<?xml version="1.0" encoding="UTF-8"?>
<!DOCTYPE svg PUBLIC "-//W3C//DTD SVG 1.1//EN" "http://www.w3.org/Graphics/SVG/1.1/DTD/svg11.dtd">
<svg xmlns="http://www.w3.org/2000/svg" version="1.1" width="512px" height="512px" style="shape-rendering:geometricPrecision; text-rendering:geometricPrecision; image-rendering:optimizeQuality; fill-rule:evenodd; clip-rule:evenodd" xmlns:xlink="http://www.w3.org/1999/xlink">
<g><path style="opacity:0.968" fill="#676D75" d="M 42.5,-0.5 C 46.5,-0.5 50.5,-0.5 54.5,-0.5C 72.7439,7.28174 91.0772,15.1151 109.5,23C 113.666,26.1651 116.166,30.3318 117,35.5C 121.845,64.9016 127.011,94.235 132.5,123.5C 220.46,160.098 308.46,196.598 396.5,233C 422.437,243.958 446.437,257.958 468.5,275C 480.625,285.454 489.125,298.287 494,313.5C 498.008,343.327 485.841,363.16 457.5,373C 440.519,376.236 423.519,376.236 406.5,373C 392.615,370.15 378.949,366.483 365.5,362C 334.374,349.792 303.374,337.292 272.5,324.5C 226.705,333.692 180.871,342.692 135,351.5C 131.771,350.901 128.604,350.068 125.5,349C 106.167,338.667 86.8333,328.333 67.5,318C 57.6481,306.998 58.3148,296.664 69.5,287C 88.7855,272.716 107.785,258.049 126.5,243C 92.9975,223.081 59.3308,203.414 25.5,184C 19.2377,180.314 15.9043,174.814 15.5,167.5C 20.4688,115.479 25.6355,63.4787 31,11.5C 33.0451,5.62437 36.8785,1.62437 42.5,-0.5 Z M 63.5,42.5 C 69.6923,45.4274 76.0257,48.0941 82.5,50.5C 87.9887,79.765 93.1554,109.098 98,138.5C 98.834,143.668 101.334,147.835 105.5,151C 194.338,188.39 283.338,225.39 372.5,262C 396.203,271.681 418.536,283.681 439.5,298C 447.479,303.643 453.645,310.809 458,319.5C 460.721,330.805 456.221,337.305 444.5,339C 431.334,340.144 418.334,339.144 405.5,336C 394.44,332.869 383.44,329.536 372.5,326C 342.939,314.553 313.606,302.553 284.5,290C 281.396,288.932 278.229,288.099 275,287.5C 229.424,296.182 183.924,305.182 138.5,314.5C 129.515,310.342 120.848,305.675 112.5,300.5C 130.714,285.458 149.38,270.958 168.5,257C 179.981,246.964 180.314,236.631 169.5,226C 130.963,203.3 92.2962,180.8 53.5,158.5C 53.1667,157.833 52.8333,157.167 52.5,156.5C 56.5628,118.539 60.2294,80.5391 63.5,42.5 Z"/></g>
<g><path style="opacity:0.995" fill="#676D75" d="M 480.5,511.5 C 330.833,511.5 181.167,511.5 31.5,511.5C 19.8951,504.851 17.0617,495.517 23,483.5C 25.2643,480.567 28.0976,478.4 31.5,477C 181.167,476.333 330.833,476.333 480.5,477C 493.076,483.408 495.909,492.908 489,505.5C 486.678,508.395 483.845,510.395 480.5,511.5 Z"/></g>
</svg>
