<svg width="12" height="12" viewBox="0 0 12 12" fill="none" xmlns="http://www.w3.org/2000/svg">
<path d="M3.71543 1.84362C3.67033 1.79589 3.63506 1.73974 3.61165 1.67837C3.58825 1.61701 3.57715 1.55163 3.57901 1.48598C3.58087 1.42033 3.59564 1.35569 3.62248 1.29575C3.64932 1.2358 3.6877 1.18173 3.73543 1.13662C3.78317 1.09152 3.83932 1.05625 3.90069 1.03284C3.96205 1.00943 4.02743 0.998343 4.09308 1.0002C4.15873 1.00206 4.22337 1.01683 4.28331 1.04367C4.34326 1.07051 4.39733 1.10889 4.44244 1.15662L8.69243 5.65662C8.7802 5.74946 8.82911 5.87237 8.82911 6.00012C8.82911 6.12788 8.7802 6.25079 8.69243 6.34362L4.44244 10.8441C4.39762 10.8929 4.34357 10.9323 4.2834 10.96C4.22324 10.9877 4.15817 11.0032 4.09197 11.0056C4.02577 11.0079 3.95977 10.9971 3.89779 10.9737C3.83581 10.9503 3.7791 10.9149 3.73094 10.8694C3.68278 10.8239 3.64413 10.7693 3.61725 10.7088C3.59037 10.6483 3.57578 10.583 3.57434 10.5168C3.5729 10.4505 3.58463 10.3847 3.60885 10.323C3.63307 10.2614 3.6693 10.2052 3.71543 10.1576L7.64144 6.00012L3.71543 1.84362Z" fill="#07C189"/>
</svg>
