<svg width="282" height="287" viewBox="0 0 282 287" fill="none" xmlns="http://www.w3.org/2000/svg">
<g opacity="0.2">
<path d="M196.304 36.8677C186.088 25.2379 173.5 15.9305 159.387 9.57139C145.274 3.21226 129.962 -0.0511606 114.483 0.000606365C54.6981 0.130753 5.3783 50.1368 6.03495 109.922C6.09758 115.634 6.6079 121.332 7.56122 126.965C10.318 143.263 9.47201 160.022 4.27796 175.699C1.55308 183.934 0.112471 192.54 0.00677682 201.214C-0.5848 248.191 37.6311 286.916 84.6023 286.916C94.7687 286.928 104.854 285.102 114.37 281.526C132.504 274.734 151.74 271.362 171.103 271.582H172.209C232.372 271.582 282.124 221.736 282 161.549C281.981 144.048 277.773 126.807 269.727 111.266C261.681 95.7251 250.03 82.3367 235.75 72.2203C221.287 61.9904 208.051 50.1279 196.304 36.8677Z" fill="#0BFEB5"/>
</g>
</svg>
