<svg width="16" height="19" viewBox="0 0 16 19" fill="none" xmlns="http://www.w3.org/2000/svg">
<g clip-path="url(#clip0_283_10523)">
<path d="M7.93883 15.1705C6.67521 15.1841 5.42311 15.0609 4.17049 14.8932C3.87908 14.8539 3.58506 14.8261 3.29942 14.7606C1.72971 14.4016 0.638517 12.8796 0.783695 11.2753C0.832913 10.7139 1.01237 10.1718 1.3078 9.69196C1.52845 9.32927 1.74386 8.96345 1.94774 8.59133C2.14514 8.22782 2.24347 7.81879 2.23286 7.40527C2.22552 6.75223 2.19879 6.095 2.25592 5.44563C2.45875 3.11596 3.64219 1.43881 5.79732 0.547828C9.01535 -0.783933 12.5919 1.02581 13.476 4.3885C13.6008 4.86334 13.6333 5.36701 13.6626 5.8602C13.6935 6.36177 13.6799 6.86649 13.6663 7.36963C13.6521 7.80908 13.7583 8.24405 13.9734 8.62749C14.1862 9.00957 14.4142 9.38326 14.6359 9.76009C15.6406 11.4671 15.0384 13.6275 13.3151 14.5064C12.8885 14.7245 12.4304 14.8209 11.9608 14.8686C10.921 14.9734 9.88118 15.0782 8.83977 15.1658C8.54156 15.193 8.23915 15.1705 7.93883 15.1705ZM8.27269 13.943C8.66367 13.9163 9.38747 13.8702 10.1107 13.8162C10.41 13.7936 10.7093 13.7638 11.007 13.7224C11.4666 13.6621 11.9357 13.6343 12.3812 13.5174C13.6637 13.1815 14.258 11.683 13.6018 10.4865C13.4546 10.2176 13.2874 9.95821 13.1265 9.70034C12.6343 8.91051 12.3508 8.06722 12.4095 7.12068C12.4357 6.70401 12.4205 6.2821 12.4095 5.86596C12.4101 5.61116 12.3907 5.3567 12.3513 5.10496C11.9048 2.65684 9.75697 1.095 7.2947 1.41942C5.27007 1.68619 3.61755 3.4493 3.50225 5.4907C3.46713 6.11649 3.47028 6.74542 3.48286 7.37277C3.49782 8.03577 3.33359 8.69051 3.00749 9.26795C2.78265 9.67361 2.53265 10.0646 2.30518 10.4687C1.59135 11.737 2.29313 13.2931 3.70193 13.5683C3.88747 13.6044 4.0772 13.6207 4.26483 13.6443C5.486 13.8025 6.70718 13.9304 8.27269 13.9441V13.943Z" fill="#676D75"/>
<path d="M7.94186 18.1088C6.98956 18.0826 6.22226 17.6895 5.6557 16.918C5.41775 16.5926 5.46545 16.2131 5.76052 15.9993C6.05559 15.7854 6.423 15.8583 6.6688 16.1769C7.37058 17.0852 8.53987 17.0842 9.23379 16.1738C9.47436 15.8593 9.85539 15.786 10.1431 16.0019C10.4309 16.2178 10.4775 16.5931 10.2516 16.9065C9.68453 17.6911 8.91409 18.0842 7.94186 18.1088Z" fill="#676D75"/>
</g>
<defs>
<clipPath id="clip0_283_10523">
<rect width="14.3538" height="18" fill="white" transform="translate(0.768799 0.108887)"/>
</clipPath>
</defs>
</svg>
