<svg width="90" height="90" viewBox="0 0 90 90" fill="none" xmlns="http://www.w3.org/2000/svg">
<g filter="url(#filter0_d_990_7000)">
<circle cx="44.7692" cy="40.7692" r="20.7692" fill="white"/>
<circle cx="44.7692" cy="40.7692" r="20.5692" stroke="#005B40" stroke-width="0.4"/>
</g>
<path d="M54.4616 46.3081C54.4616 46.6754 54.3157 47.0275 54.0561 47.2872C53.7964 47.5469 53.4442 47.6927 53.077 47.6927H36.4616C36.0944 47.6927 35.7422 47.5469 35.4825 47.2872C35.2229 47.0275 35.077 46.6754 35.077 46.3081V38.0004C35.077 37.6332 35.2229 37.281 35.4825 37.0214C35.7422 36.7617 36.0944 36.6158 36.4616 36.6158H38.0844C39.1855 36.6152 40.2413 36.1775 41.0198 35.3987L42.169 34.2523C42.4279 33.9933 42.7789 33.8474 43.1452 33.8466H46.3907C46.7579 33.8467 47.11 33.9926 47.3696 34.2523L48.5161 35.3987C48.9019 35.7847 49.3599 36.0908 49.8641 36.2996C50.3682 36.5084 50.9085 36.6159 51.4542 36.6158H53.077C53.4442 36.6158 53.7964 36.7617 54.0561 37.0214C54.3157 37.281 54.4616 37.6332 54.4616 38.0004V46.3081ZM36.4616 35.2312C35.7272 35.2312 35.0228 35.523 34.5035 36.0423C33.9841 36.5616 33.6924 37.266 33.6924 38.0004V46.3081C33.6924 47.0426 33.9841 47.7469 34.5035 48.2663C35.0228 48.7856 35.7272 49.0774 36.4616 49.0774H53.077C53.8114 49.0774 54.5158 48.7856 55.0351 48.2663C55.5545 47.7469 55.8462 47.0426 55.8462 46.3081V38.0004C55.8462 37.266 55.5545 36.5616 55.0351 36.0423C54.5158 35.523 53.8114 35.2312 53.077 35.2312H51.4542C50.7198 35.231 50.0156 34.9392 49.4964 34.4198L48.3499 33.2734C47.8307 32.754 47.1265 32.4621 46.3921 32.462H43.1465C42.4122 32.4621 41.7079 32.754 41.1887 33.2734L40.0422 34.4198C39.523 34.9392 38.8188 35.231 38.0844 35.2312H36.4616Z" fill="#005B40"/>
<path d="M44.7691 44.9233C43.8511 44.9233 42.9706 44.5586 42.3214 43.9094C41.6723 43.2603 41.3076 42.3798 41.3076 41.4618C41.3076 40.5437 41.6723 39.6632 42.3214 39.0141C42.9706 38.3649 43.8511 38.0002 44.7691 38.0002C45.6872 38.0002 46.5676 38.3649 47.2168 39.0141C47.866 39.6632 48.2307 40.5437 48.2307 41.4618C48.2307 42.3798 47.866 43.2603 47.2168 43.9094C46.5676 44.5586 45.6872 44.9233 44.7691 44.9233ZM44.7691 46.3079C46.0544 46.3079 47.287 45.7973 48.1959 44.8885C49.1047 43.9797 49.6153 42.747 49.6153 41.4618C49.6153 40.1765 49.1047 38.9438 48.1959 38.035C47.287 37.1262 46.0544 36.6156 44.7691 36.6156C43.4838 36.6156 42.2512 37.1262 41.3424 38.035C40.4335 38.9438 39.923 40.1765 39.923 41.4618C39.923 42.747 40.4335 43.9797 41.3424 44.8885C42.2512 45.7973 43.4838 46.3079 44.7691 46.3079V46.3079ZM37.846 38.6925C37.846 38.8761 37.7731 39.0522 37.6433 39.1821C37.5134 39.3119 37.3373 39.3848 37.1537 39.3848C36.9701 39.3848 36.794 39.3119 36.6642 39.1821C36.5344 39.0522 36.4614 38.8761 36.4614 38.6925C36.4614 38.5089 36.5344 38.3328 36.6642 38.203C36.794 38.0732 36.9701 38.0002 37.1537 38.0002C37.3373 38.0002 37.5134 38.0732 37.6433 38.203C37.7731 38.3328 37.846 38.5089 37.846 38.6925V38.6925Z" fill="#005B40"/>
<defs>
<filter id="filter0_d_990_7000" x="0" y="0" width="89.5386" height="89.5385" filterUnits="userSpaceOnUse" color-interpolation-filters="sRGB">
<feFlood flood-opacity="0" result="BackgroundImageFix"/>
<feColorMatrix in="SourceAlpha" type="matrix" values="0 0 0 0 0 0 0 0 0 0 0 0 0 0 0 0 0 0 127 0" result="hardAlpha"/>
<feOffset dy="4"/>
<feGaussianBlur stdDeviation="12"/>
<feComposite in2="hardAlpha" operator="out"/>
<feColorMatrix type="matrix" values="0 0 0 0 0 0 0 0 0 0 0 0 0 0 0 0 0 0 0.15 0"/>
<feBlend mode="normal" in2="BackgroundImageFix" result="effect1_dropShadow_990_7000"/>
<feBlend mode="normal" in="SourceGraphic" in2="effect1_dropShadow_990_7000" result="shape"/>
</filter>
</defs>
</svg>
