<?xml version="1.0" encoding="UTF-8"?>
<!-- Generator: visioncortex VTracer 0.6.3 -->
<svg version="1.1" xmlns="http://www.w3.org/2000/svg" width="1280" height="1280">
<path d="M0 0 C59.12 -0.03 118.23 -0.07 177.35 -0.08 C178.22 -0.08 179.1 -0.09 180 -0.09 C199.02 -0.09 218.04 -0.1 237.05 -0.1 C246.38 -0.1 255.71 -0.11 265.03 -0.11 C266.43 -0.11 266.43 -0.11 267.85 -0.11 C297.92 -0.12 328 -0.13 358.08 -0.15 C388.99 -0.17 419.9 -0.18 450.81 -0.19 C455.18 -0.19 459.54 -0.19 463.91 -0.19 C464.77 -0.19 465.63 -0.19 466.51 -0.19 C480.34 -0.19 494.17 -0.2 508 -0.21 C521.91 -0.23 535.82 -0.23 549.72 -0.23 C557.98 -0.23 566.24 -0.23 574.5 -0.24 C580.67 -0.25 586.85 -0.25 593.02 -0.24 C595.51 -0.24 598.01 -0.24 600.5 -0.25 C631.23 -0.32 631.23 -0.32 641.67 4.86 C645.45 6.71 649.39 8.19 653.3 9.75 C655.87 10.94 657.89 12.11 660 14 C660 14.66 660 15.32 660 16 C660.66 16.04 661.32 16.08 662 16.12 C666.92 17.56 671.69 20.67 674.24 25.2 C674.49 25.79 674.74 26.39 675 27 C675.66 27 676.32 27 677 27 C677 27.99 677 28.98 677 30 C677.99 30.33 678.98 30.66 680 31 C687.79 38.79 692.83 48.91 697 59 C697.54 60.23 698.08 61.46 698.62 62.69 C699.9 65.76 700.97 68.84 702 72 C702.26 72.64 702.52 73.28 702.79 73.94 C704.49 78.14 705.35 81.38 705 86 C705.99 86.33 706.98 86.66 708 87 C708.88 89.33 708.88 89.33 709.56 92.25 C710.68 96.91 712.16 101.13 714.12 105.5 C715.06 108.16 715.16 110.2 715 113 C715.66 113 716.32 113 717 113 C717.24 113.83 717.48 114.67 717.73 115.53 C719.31 120.82 720.86 125.95 723.25 130.94 C724.9 134.42 725.4 137.09 725 141 C725.66 141 726.32 141 727 141 C727.49 142.38 727.49 142.38 727.99 143.78 C730.79 151.66 730.79 151.66 733.69 159.5 C735.28 163.73 736.72 167.94 737.88 172.31 C739.22 176.73 741.08 180.8 743 185 C744.2 187.8 745.12 190.44 745.94 193.38 C746.82 196.37 747.88 199.08 749.15 201.92 C750.64 205.57 751.8 209.33 753.02 213.07 C753.84 215.51 754.7 217.91 755.62 220.31 C757 224 757 224 757.94 227.44 C758.78 230.26 759.7 232.61 760.94 235.25 C762.93 239.57 764.16 243.91 765.29 248.52 C765.97 250.88 766.84 252.84 768 255 C769.82 258.84 770.2 261.76 770 266 C770.99 266.33 771.98 266.66 773 267 C773.69 269.06 773.69 269.06 774 271 C775.58 266.67 776.45 262.57 777 258 C777.66 258 778.32 258 779 258 C779.08 256.95 779.16 255.9 779.25 254.81 C780.07 250.65 781.23 249.11 784 246 C784.53 244.89 784.53 244.89 785.06 243.75 C786 242 786 242 789 241 C792.15 239.71 792.15 239.71 794 237 C801.11 235.44 808.8 235.85 816.04 235.84 C817.2 235.83 818.36 235.83 819.56 235.82 C823.36 235.81 827.17 235.8 830.98 235.8 C832.97 235.79 834.95 235.79 836.94 235.78 C842.46 235.77 847.99 235.76 853.51 235.76 C860.64 235.76 867.76 235.74 874.88 235.71 C880.41 235.69 885.94 235.68 891.46 235.68 C894.76 235.68 898.05 235.67 901.34 235.65 C905.01 235.64 908.68 235.64 912.35 235.64 C913.43 235.63 914.51 235.63 915.62 235.62 C921.58 235.65 925.72 236.23 931 239 C932.01 239.41 933.02 239.82 934.06 240.25 C940.24 243.93 944.59 250.01 946.43 256.91 C947.08 259.29 947.82 261.64 948.56 264 C949.78 267.99 950.41 271.87 951 276 C951.66 276.99 952.32 277.98 953 279 C953.2 281.87 953.28 284.63 953.27 287.5 C953.27 288.33 953.27 289.16 953.27 290.02 C953.27 291.78 953.27 293.54 953.26 295.3 C953.25 297.99 953.26 300.68 953.27 303.38 C953.27 305.08 953.27 306.79 953.27 308.5 C953.27 309.31 953.27 310.11 953.28 310.94 C953.25 314.81 953.2 316.7 951 320 C950.44 322.24 950.44 322.24 950.06 324.69 C949.32 328.67 948.3 332.24 946.79 335.98 C945.63 338.95 944.7 341.98 943.75 345.02 C942.12 349.34 939.81 350.76 936 353 C935.67 353.66 935.34 354.32 935 355 C933.35 355 931.7 355 930 355 C930 355.66 930 356.32 930 357 C888.75 357.33 847.5 357.66 805 358 C805.73 361.28 805.73 361.28 808.98 362.75 C810.23 363.37 811.49 363.97 812.75 364.56 C813.37 364.87 813.99 365.17 814.63 365.48 C817.33 366.79 820.03 368.01 822.83 369.09 C825 370 825 370 827 372 C827 372.99 827 373.98 827 375 C827.66 375 828.32 375 829 375 C829 375.66 829 376.32 829 377 C829.99 377.33 830.98 377.66 832 378 C836 382.46 836 382.46 836 385 C836.66 385.33 837.32 385.66 838 386 C840 389 840 389 840 393 C840.66 393 841.32 393 842 393 C844.46 398.14 845.41 402.34 846 408 C846.33 408.33 846.66 408.66 847 409 C847.1 411.18 847.13 413.35 847.13 415.53 C847.13 416.57 847.13 416.57 847.14 417.64 C847.14 419.99 847.14 422.35 847.14 424.7 C847.14 426.39 847.15 428.09 847.15 429.78 C847.16 434.46 847.16 439.14 847.16 443.82 C847.16 448.85 847.17 453.89 847.18 458.92 C847.19 469.95 847.2 480.97 847.2 492 C847.2 498.88 847.21 505.76 847.21 512.64 C847.22 531.69 847.23 550.73 847.24 569.77 C847.24 570.99 847.24 572.21 847.24 573.47 C847.24 574.69 847.24 575.91 847.24 577.17 C847.24 579.65 847.24 582.13 847.24 584.61 C847.24 585.84 847.24 587.06 847.24 588.33 C847.24 608.24 847.26 628.15 847.29 648.06 C847.31 668.49 847.32 688.92 847.32 709.35 C847.32 720.83 847.33 732.3 847.35 743.78 C847.36 753.55 847.37 763.33 847.36 773.1 C847.36 778.09 847.36 783.07 847.37 788.06 C847.38 792.63 847.38 797.2 847.37 801.76 C847.37 803.41 847.37 805.07 847.38 806.72 C847.48 826.4 847.48 826.4 842.45 831.61 C841.97 832.07 841.49 832.53 841 833 C840.6 833.96 840.6 833.96 840.19 834.94 C838.44 837.98 835.97 839.2 833 841 C832.15 841.56 831.31 842.11 830.44 842.69 C825.95 845.1 821.53 845.13 816.5 845.13 C815.19 845.13 813.88 845.13 812.52 845.14 C811.07 845.13 809.62 845.13 808.18 845.13 C806.64 845.13 805.11 845.13 803.58 845.13 C799.43 845.14 795.28 845.14 791.12 845.13 C786.78 845.13 782.43 845.13 778.08 845.14 C770.79 845.14 763.49 845.14 756.19 845.13 C747.75 845.12 739.32 845.13 730.88 845.13 C723.63 845.14 716.39 845.14 709.14 845.13 C704.81 845.13 700.49 845.13 696.16 845.14 C692.09 845.14 688.03 845.14 683.96 845.13 C682.47 845.13 680.97 845.13 679.48 845.13 C677.44 845.14 675.41 845.13 673.37 845.13 C671.66 845.13 671.66 845.13 669.91 845.13 C667.42 845.02 665.37 844.73 663 844 C663 843.34 663 842.68 663 842 C661.95 841.85 661.95 841.85 660.88 841.69 C657.53 840.89 654.93 839.8 652 838 C651.38 835.94 651.38 835.94 651 834 C649.03 832.85 649.03 832.85 647 832 C646 830 646 830 645.56 828.12 C645.07 825.95 645.07 825.95 643.94 823.94 C643 822 643 822 643 819 C642.67 818.01 642.34 817.02 642 816 C641.67 769.8 641.34 723.6 641 676 C423.86 675.67 206.72 675.34 -17 675 C-17.33 723.18 -17.66 771.36 -18 821 C-21 830 -21 830 -24 833 C-24.42 834.23 -24.42 834.23 -24.85 835.48 C-26.38 838.84 -28.12 839.59 -31.38 841.25 C-32.33 841.75 -33.29 842.25 -34.27 842.77 C-38.77 844.8 -42.43 845.13 -47.37 845.13 C-48.68 845.13 -49.99 845.13 -51.34 845.14 C-52.79 845.13 -54.24 845.13 -55.7 845.13 C-57.22 845.13 -58.75 845.13 -60.28 845.13 C-64.44 845.14 -68.59 845.14 -72.74 845.13 C-77.09 845.13 -81.43 845.13 -85.78 845.14 C-93.08 845.14 -100.38 845.14 -107.68 845.13 C-116.12 845.12 -124.55 845.13 -132.99 845.13 C-140.23 845.14 -147.48 845.14 -154.72 845.13 C-159.05 845.13 -163.38 845.13 -167.7 845.14 C-171.77 845.14 -175.84 845.14 -179.91 845.13 C-181.4 845.13 -182.89 845.13 -184.39 845.13 C-186.43 845.14 -188.46 845.13 -190.5 845.13 C-192.21 845.13 -192.21 845.13 -193.96 845.13 C-196.76 845.01 -199.28 844.64 -202 844 C-202 843.34 -202 842.68 -202 842 C-202.68 841.94 -203.36 841.88 -204.06 841.81 C-209.23 840.38 -213.04 837.44 -216 833 C-216.66 832.34 -217.32 831.68 -218 831 C-218.76 829.54 -219.46 828.06 -220.12 826.56 C-220.48 825.78 -220.83 825 -221.2 824.19 C-222 822 -222 822 -222 819 C-222.5 817.51 -222.5 817.51 -223 816 C-223.09 813.77 -223.13 811.55 -223.13 809.32 C-223.13 808.63 -223.13 807.94 -223.13 807.24 C-223.14 804.92 -223.14 802.61 -223.13 800.29 C-223.14 798.62 -223.14 796.95 -223.14 795.28 C-223.15 790.68 -223.15 786.07 -223.15 781.47 C-223.15 776.51 -223.15 771.55 -223.16 766.59 C-223.16 756.87 -223.17 747.15 -223.17 737.43 C-223.17 729.53 -223.17 721.64 -223.17 713.74 C-223.18 691.36 -223.19 668.99 -223.19 646.62 C-223.19 645.41 -223.19 644.2 -223.19 642.96 C-223.19 641.75 -223.19 640.54 -223.19 639.3 C-223.18 619.7 -223.19 600.11 -223.21 580.52 C-223.22 560.41 -223.23 540.31 -223.23 520.21 C-223.23 508.92 -223.23 497.63 -223.24 486.34 C-223.25 476.72 -223.25 467.11 -223.25 457.5 C-223.24 452.59 -223.24 447.68 -223.25 442.77 C-223.26 438.28 -223.26 433.8 -223.25 429.31 C-223.25 427.68 -223.25 426.05 -223.26 424.42 C-223.26 422.22 -223.26 420.01 -223.25 417.81 C-223.25 416.58 -223.25 415.35 -223.25 414.09 C-223.01 411.11 -222.5 409.53 -221 407 C-220.63 404.97 -220.63 404.97 -220.5 402.94 C-220 399 -220 399 -218 396 C-216.56 393.37 -215.63 390.94 -215 388 C-214.34 388 -213.68 388 -213 388 C-212.67 387.01 -212.34 386.02 -212 385 C-207.96 375.09 -197.27 368.28 -188 364 C-185.77 362.94 -185.77 362.94 -183 361 C-182.34 360.67 -181.68 360.34 -181 360 C-181.61 360 -182.22 359.99 -182.85 359.99 C-197.68 359.91 -212.51 359.82 -227.34 359.71 C-234.51 359.66 -241.68 359.62 -248.86 359.58 C-255.11 359.55 -261.36 359.51 -267.61 359.46 C-270.92 359.43 -274.23 359.41 -277.54 359.4 C-281.23 359.38 -284.93 359.35 -288.62 359.32 C-290.27 359.32 -290.27 359.32 -291.95 359.31 C-292.96 359.3 -293.96 359.29 -295 359.28 C-295.88 359.27 -296.75 359.27 -297.65 359.26 C-300.17 358.98 -301.82 358.27 -304 357 C-304 356.34 -304 355.68 -304 355 C-305.98 354.67 -307.96 354.34 -310 354 C-310 353.34 -310 352.68 -310 352 C-310.99 352 -311.98 352 -313 352 C-313 351.34 -313 350.68 -313 350 C-313.66 350 -314.32 350 -315 350 C-315.33 348.35 -315.66 346.7 -316 345 C-316.66 345 -317.32 345 -318 345 C-321 339.38 -321 339.38 -321 336 C-321.47 335.13 -321.95 334.27 -322.44 333.38 C-324.14 329.7 -324.47 326.85 -324.69 322.86 C-324.79 322.24 -324.9 321.63 -325 321 C-325.66 320.67 -326.32 320.34 -327 320 C-326.34 320 -325.68 320 -325 320 C-325.99 318.51 -325.99 318.51 -327 317 C-327.18 314.14 -327.26 311.39 -327.23 308.54 C-327.23 307.71 -327.23 306.88 -327.23 306.02 C-327.23 304.27 -327.22 302.51 -327.21 300.76 C-327.19 298.08 -327.19 295.39 -327.19 292.71 C-327.18 291.01 -327.17 289.3 -327.17 287.6 C-327.17 286.8 -327.17 286 -327.16 285.17 C-327.13 281.61 -326.93 278.43 -326 275 C-325.79 273.59 -325.6 272.17 -325.44 270.75 C-325.29 269.51 -325.15 268.27 -325 267 C-324.67 267 -324.34 267 -324 267 C-323.81 265.36 -323.81 265.36 -323.62 263.69 C-323 260 -323 260 -321 257 C-320.29 254.68 -319.62 252.35 -319 250 C-318.34 250 -317.68 250 -317 250 C-316.75 248.89 -316.5 247.77 -316.25 246.62 C-315 243 -315 243 -313.12 241.69 C-312.42 241.46 -311.72 241.23 -311 241 C-308.3 239.78 -308.3 239.78 -306 238 C-306 237.67 -306 237.34 -306 237 C-298.63 236.11 -291.38 235.85 -283.96 235.85 C-282.8 235.85 -281.64 235.85 -280.44 235.84 C-276.64 235.84 -272.83 235.83 -269.02 235.83 C-267.03 235.83 -265.05 235.83 -263.06 235.82 C-256.83 235.82 -250.59 235.81 -244.36 235.81 C-237.95 235.82 -231.53 235.8 -225.12 235.79 C-219.59 235.78 -214.06 235.77 -208.54 235.77 C-205.24 235.77 -201.95 235.77 -198.66 235.76 C-194.99 235.75 -191.32 235.75 -187.65 235.76 C-186.57 235.75 -185.49 235.75 -184.38 235.74 C-175.43 235.78 -168.06 237.15 -161 243 C-155.39 249.17 -152 257.6 -152 266 C-151.01 266 -150.02 266 -149 266 C-149 267.65 -149 269.3 -149 271 C-148.34 269.02 -147.68 267.04 -147 265 C-146.34 265 -145.68 265 -145 265 C-145.04 264.15 -145.08 263.31 -145.12 262.44 C-144.99 258.65 -144.26 255.57 -143 252 C-142.34 251.67 -141.68 251.34 -141 251 C-140.61 249.01 -140.28 247.01 -140 245 C-139 242 -139 242 -137 239 C-136.62 237.68 -136.29 236.34 -136 235 C-135.53 233.31 -135.05 231.62 -134.56 229.94 C-134.19 228.65 -134.19 228.65 -133.82 227.34 C-133 225 -133 225 -131 222 C-130.69 221.07 -130.38 220.14 -130.06 219.19 C-129 216 -129 216 -127.44 213.06 C-125.85 209.67 -125.37 206.71 -125 203 C-124.34 203 -123.68 203 -123 203 C-123 201.02 -123 199.04 -123 197 C-122.34 196.67 -121.68 196.34 -121 196 C-120.61 194.01 -120.28 192.01 -120 190 C-119.16 187.49 -118.18 185.36 -117 183 C-116.38 181.14 -115.77 179.27 -115.17 177.4 C-113.34 171.75 -111.38 166.3 -108.83 160.94 C-107.99 158.98 -107.46 157.08 -107 155 C-106.67 155 -106.34 155 -106 155 C-105.67 152.69 -105.34 150.38 -105 148 C-104.34 148 -103.68 148 -103 148 C-103.04 147.05 -103.08 146.1 -103.12 145.12 C-103 142 -103 142 -101 140 C-100.44 138.02 -99.95 136.01 -99.5 134 C-98.22 128.22 -98.22 128.22 -96 126 C-95.65 124 -95.32 122 -95 120 C-94.35 118.66 -93.68 117.32 -93 116 C-93 115.01 -93 114.02 -93 113 C-92.34 112.67 -91.68 112.34 -91 112 C-89.71 108.05 -88.74 104.09 -88 100 C-87.34 100 -86.68 100 -86 100 C-85.88 98.91 -85.75 97.81 -85.62 96.69 C-85 93 -85 93 -83 90 C-82.62 88.34 -82.27 86.68 -82 85 C-81.34 85 -80.68 85 -80 85 C-80.04 84.15 -80.08 83.31 -80.12 82.44 C-79.99 78.65 -79.26 75.57 -78 72 C-77.34 71.67 -76.68 71.34 -76 71 C-75.65 69 -75.32 67 -75 65 C-74.01 63.51 -74.01 63.51 -73 62 C-71.71 59.04 -70.7 56.15 -70 53 C-69.34 53 -68.68 53 -68 53 C-68 51.35 -68 49.7 -68 48 C-67.34 48 -66.68 48 -66 48 C-65.9 47.28 -65.79 46.56 -65.69 45.81 C-64.93 42.72 -63.84 40.58 -62 38 C-61.34 38 -60.68 38 -60 38 C-59.75 37.42 -59.5 36.85 -59.24 36.25 C-57.84 33.71 -56.25 32.01 -54.19 29.96 C-53.07 28.84 -53.07 28.84 -51.93 27.7 C-50.76 26.55 -50.76 26.55 -49.56 25.38 C-48.79 24.6 -48.01 23.82 -47.21 23.02 C-39.12 15 -39.12 15 -35 15 C-35 14.34 -35 13.68 -35 13 C-33.89 12.57 -33.89 12.57 -32.75 12.12 C-30.43 11.18 -28.22 10.15 -26 9 C-26 8.34 -26 7.68 -26 7 C-22.3 5.87 -18.98 5 -15.12 4.5 C-13.58 4.25 -13.58 4.25 -12 4 C-11.67 3.34 -11.34 2.68 -11 2 C-8.5 1.59 -8.5 1.59 -5.44 1.38 C-3.92 1.26 -3.92 1.26 -2.37 1.15 C-1.59 1.1 -0.81 1.05 0 1 C0 0.67 0 0.34 0 0 Z M27 107 C27 107.33 27 107.66 27 108 C215.43 108 403.86 108 598 108 C598 107.67 598 107.34 598 107 C409.57 107 221.14 107 27 107 Z M25 108 C24.67 110.31 24.34 112.62 24 115 C23.34 115 22.68 115 22 115 C22 116.32 22 117.64 22 119 C21.34 119.33 20.68 119.66 20 120 C19.5 121.94 19 123.88 18.56 125.83 C17.91 128.35 16.87 130.63 15.8 133 C13.97 137.59 12 143.02 12 148 C11.34 148 10.68 148 10 148 C9.73 148.99 9.46 149.98 9.19 151 C8.41 153.72 7.52 156.36 6.5 159 C5.54 161.5 4.74 163.91 4 166.5 C2.58 171.48 0.92 176.23 -1.48 180.83 C-3.04 184.08 -3.97 187.14 -4.88 190.62 C-6.43 196.27 -8.38 201.5 -10.71 206.86 C-12.69 211.68 -14.26 216.62 -15.87 221.57 C-17.14 225.43 -18.53 229.21 -20 233 C-20.37 233.97 -20.74 234.94 -21.12 235.94 C-22 238 -22 238 -23 239 C-23.04 241 -23.04 243 -23 245 C-23.66 245 -24.32 245 -25 245 C-25.23 246.07 -25.45 247.14 -25.69 248.25 C-26.58 251.86 -27.84 255.15 -29.31 258.56 C-31.59 263.86 -33.48 269.21 -35.26 274.7 C-36.33 278.01 -37.46 281.27 -38.75 284.5 C-40.04 288.11 -40.6 291.2 -41 295 C-41.66 295 -42.32 295 -43 295 C-43 296.32 -43 297.64 -43 299 C-43.66 299.33 -44.32 299.66 -45 300 C-45.5 301.94 -46 303.88 -46.44 305.83 C-47.09 308.35 -48.13 310.63 -49.2 313 C-51.03 317.59 -53 323.02 -53 328 C-53.66 328 -54.32 328 -55 328 C-55.27 328.99 -55.54 329.98 -55.81 331 C-56.59 333.74 -57.51 336.36 -58.56 339 C-59.98 342.68 -60.59 346.09 -61 350 C-61.66 350 -62.32 350 -63 350 C-63 351.32 -63 352.64 -63 354 C-63.99 354.99 -63.99 354.99 -65 356 C-63.99 357.23 -63.99 357.23 -61.9 357.12 C-60.96 357.12 -60.03 357.12 -59.06 357.12 C-57.99 357.13 -56.91 357.13 -55.8 357.13 C-54.6 357.13 -53.39 357.12 -52.16 357.12 C-50.89 357.12 -49.62 357.12 -48.31 357.12 C-44.76 357.13 -41.21 357.12 -37.66 357.12 C-33.8 357.11 -29.95 357.11 -26.1 357.11 C-19.34 357.11 -12.57 357.11 -5.81 357.11 C4.24 357.1 14.3 357.09 24.36 357.09 C41.27 357.09 58.18 357.08 75.1 357.08 C98.19 357.06 121.28 357.06 144.37 357.05 C155.12 357.05 165.87 357.05 176.62 357.05 C177.69 357.05 178.77 357.05 179.88 357.04 C205.51 357.04 231.14 357.03 256.77 357.02 C258.46 357.02 258.46 357.02 260.17 357.02 C278.38 357.01 296.59 357.01 314.79 357 C331.85 356.99 348.91 356.99 365.97 356.98 C367.09 356.98 368.21 356.98 369.36 356.98 C394.95 356.97 420.53 356.96 446.11 356.95 C447.72 356.95 447.72 356.95 449.36 356.95 C460.09 356.95 470.81 356.95 481.54 356.95 C504.61 356.94 527.68 356.94 550.75 356.92 C567.56 356.91 584.38 356.91 601.19 356.91 C611.19 356.9 621.2 356.9 631.2 356.89 C637.87 356.89 644.54 356.89 651.21 356.89 C655.02 356.89 658.83 356.89 662.63 356.88 C666.72 356.88 670.81 356.88 674.91 356.88 C676.1 356.88 677.3 356.87 678.53 356.87 C679.61 356.87 680.7 356.87 681.81 356.88 C682.75 356.88 683.69 356.88 684.65 356.88 C687 357 687 357 690 358 C687.39 349.85 687.39 349.85 684 342 C684 340.68 684 339.36 684 338 C683.34 338 682.68 338 682 338 C681.89 337.45 681.78 336.91 681.67 336.35 C680.18 329.28 678.35 322.43 675 316 C674.34 316 673.68 316 673 316 C673.21 315.26 673.41 314.51 673.62 313.75 C674.06 310.54 673.58 309.74 672 307 C671.31 305.01 670.64 303.01 670 301 C669.34 301 668.68 301 668 301 C668.21 300.4 668.41 299.8 668.62 299.19 C669.31 296.72 669.31 296.72 667 294 C666.2 291.22 665.54 288.41 664.88 285.59 C663.98 282.93 663.14 281.76 661 280 C661.33 279.34 661.66 278.68 662 278 C661.01 276.33 660.01 274.66 659 273 C658.65 271.34 658.32 269.67 658 268 C657.08 265.62 656.05 263.32 655 261 C654.34 261 653.68 261 653 261 C653.33 259.02 653.66 257.04 654 255 C653.34 255 652.68 255 652 255 C651.86 253.89 651.71 252.77 651.56 251.62 C651.22 248.18 651.22 248.18 650 246 C649.34 246 648.68 246 648 246 C648.33 244.35 648.66 242.7 649 241 C648.34 241 647.68 241 647 241 C646.89 240.34 646.78 239.67 646.67 238.99 C645.77 234 644.82 230.28 642 226 C641.63 224.34 641.29 222.67 641 221 C640.37 219.32 639.7 217.65 639 216 C637.94 213.51 637.05 211.28 636.56 208.62 C635.82 205.16 634.45 202.23 633 199 C632.34 199 631.68 199 631 199 C631.33 198.01 631.66 197.02 632 196 C631.12 193.34 631.12 193.34 630 191 C629.34 191 628.68 191 628 191 C628.23 190.32 628.45 189.64 628.69 188.94 C629.04 185.65 628.29 183.83 626.89 180.89 C625.98 178.95 625.23 177.01 624.5 175 C622.87 170.58 621.11 166.22 619 162 C619 160.68 619 159.36 619 158 C618.34 158 617.68 158 617 158 C616.89 157.35 616.78 156.7 616.67 156.02 C615.73 150.84 614.54 146.66 612 142 C611.3 140.01 610.62 138.01 610 136 C609.34 136 608.68 136 608 136 C608.21 135.26 608.41 134.51 608.62 133.75 C609.06 130.54 608.58 129.74 607 127 C606.31 125.01 605.64 123.01 605 121 C604.34 121 603.68 121 603 121 C603.33 119.68 603.66 118.36 604 117 C603.01 116.67 602.02 116.34 601 116 C601.33 115.01 601.66 114.02 602 113 C601.34 111.68 600.68 110.36 600 109 C315.38 108.5 315.38 108.5 25 108 Z M932 351 C932 351.66 932 352.32 932 353 C932.66 352.67 933.32 352.34 934 352 C933.34 351.67 932.68 351.34 932 351 Z M-85 444 C-86.81 444.26 -88.62 444.48 -90.44 444.62 C-91.73 444.74 -91.73 444.74 -93.06 444.85 C-93.7 444.9 -94.34 444.95 -95 445 C-95 445.66 -95 446.32 -95 447 C-95.72 447.12 -96.44 447.25 -97.19 447.38 C-102.46 448.55 -105.26 450.14 -109 454 C-109.85 454.47 -110.69 454.95 -111.56 455.44 C-114.43 457.27 -115.52 458.97 -117 462 C-117 462.66 -117 463.32 -117 464 C-117.99 464.33 -118.98 464.66 -120 465 C-120.33 466.65 -120.66 468.3 -121 470 C-121.66 470 -122.32 470 -123 470 C-127.99 481.05 -127.8 494.39 -125 506 C-124.34 506.66 -123.68 507.32 -123 508 C-122.5 509.28 -122.04 510.57 -121.62 511.88 C-120.36 515.4 -119.03 517.66 -116 520 C-115.34 520 -114.68 520 -114 520 C-113.94 520.78 -113.88 521.57 -113.81 522.38 C-113.54 523.24 -113.28 524.11 -113 525 C-110.67 526.2 -110.67 526.2 -108 527 C-106.67 528 -105.33 529 -104 530 C-102.35 530.71 -100.68 531.37 -99 532 C-98.08 532.51 -97.16 533.02 -96.2 533.54 C-90.45 535.99 -84.18 535.41 -78.03 535.37 C-76.62 535.37 -75.2 535.38 -73.79 535.38 C-69.96 535.39 -66.14 535.38 -62.31 535.37 C-58.3 535.36 -54.3 535.36 -50.29 535.36 C-43.56 535.37 -36.84 535.35 -30.11 535.34 C-22.34 535.31 -14.56 535.31 -6.78 535.32 C0.7 535.32 8.19 535.32 15.67 535.31 C18.86 535.3 22.04 535.3 25.23 535.3 C28.97 535.31 32.72 535.3 36.47 535.28 C37.84 535.28 39.22 535.28 40.59 535.28 C42.47 535.28 44.34 535.27 46.22 535.26 C47.27 535.26 48.32 535.26 49.4 535.25 C52.24 535.18 52.24 535.18 55 533 C56.61 532.53 58.24 532.09 59.88 531.69 C64.49 530.35 66.87 528.75 70 525 C70.8 524.22 71.61 523.43 72.44 522.62 C79.11 515.79 84.23 509.62 86 500 C86.33 499.01 86.66 498.02 87 497 C87.12 494.36 87.19 491.76 87.19 489.12 C87.2 488.42 87.21 487.71 87.22 486.98 C87.24 482.87 86.83 479.7 85 476 C84.34 476 83.68 476 83 476 C83.33 474.02 83.66 472.04 84 470 C83.34 470 82.68 470 82 470 C81.73 469.07 81.46 468.14 81.19 467.19 C80.05 464.14 79.3 463.1 77 461 C76.67 460.01 76.34 459.02 76 458 C74.34 456.99 72.67 455.99 71 455 C70.18 454.13 69.35 453.27 68.5 452.38 C65.86 449.87 64.56 449.3 61 449 C61 448.34 61 447.68 61 447 C59.35 447 57.7 447 56 447 C56 446.34 56 445.68 56 445 C54.94 444.87 53.88 444.73 52.79 444.6 C51.4 444.42 50.01 444.24 48.62 444.06 C47.93 443.98 47.23 443.89 46.51 443.8 C41.23 443.11 41.23 443.11 39 442 C37.46 441.9 35.91 441.87 34.36 441.87 C33.39 441.86 32.41 441.86 31.4 441.85 C30.33 441.85 29.25 441.85 28.14 441.85 C27.01 441.85 25.88 441.85 24.72 441.84 C20.96 441.84 17.21 441.83 13.46 441.83 C10.85 441.83 8.25 441.83 5.65 441.82 C0.18 441.82 -5.29 441.81 -10.75 441.81 C-17.06 441.82 -23.37 441.8 -29.68 441.79 C-35.76 441.77 -41.83 441.77 -47.91 441.77 C-50.49 441.77 -53.07 441.77 -55.65 441.76 C-59.27 441.75 -62.88 441.75 -66.5 441.76 C-68.1 441.75 -68.1 441.75 -69.73 441.74 C-75.24 441.76 -79.78 442.22 -85 444 Z M580 444 C578.19 444.26 576.38 444.48 574.56 444.62 C573.27 444.74 573.27 444.74 571.94 444.85 C571.3 444.9 570.66 444.95 570 445 C570 445.66 570 446.32 570 447 C569.3 447.1 568.6 447.21 567.88 447.31 C564.61 448.09 561.95 449.42 559 451 C559 451.66 559 452.32 559 453 C558.07 453.27 557.14 453.54 556.19 453.81 C551.15 455.69 549.61 458.43 547 463 C546.44 463.89 545.89 464.77 545.31 465.69 C543.84 467.85 543.84 467.85 544 470 C543.34 470 542.68 470 542 470 C540.32 473.89 539.24 477.74 538.31 481.88 C538.04 483.05 537.77 484.22 537.49 485.43 C536.97 489.25 537.29 492.22 538 496 C538.18 497.25 538.18 497.25 538.36 498.52 C539.69 506.32 542.45 515.03 549 520 C549.66 520 550.32 520 551 520 C551.25 520.58 551.5 521.15 551.75 521.75 C555.92 529.25 564.17 532.55 572 535 C576.89 535.66 581.7 535.66 586.63 535.6 C588.05 535.6 589.48 535.61 590.9 535.61 C594.73 535.62 598.57 535.6 602.4 535.57 C606.42 535.55 610.44 535.55 614.46 535.55 C621.21 535.55 627.95 535.52 634.69 535.49 C642.49 535.45 650.28 535.43 658.08 535.42 C666.39 535.42 674.7 535.4 683.02 535.38 C685.41 535.37 687.8 535.37 690.2 535.36 C693.95 535.36 697.7 535.34 701.45 535.32 C702.83 535.31 704.21 535.31 705.58 535.31 C707.46 535.3 709.34 535.29 711.22 535.27 C712.27 535.27 713.32 535.26 714.4 535.26 C717.24 535.18 717.24 535.18 720 533 C721.99 532.31 723.99 531.64 726 531 C730.03 529.66 732.07 528.03 735 525 C735.99 524.6 735.99 524.6 737 524.19 C740.19 522.29 741.24 519.23 743 516 C743.66 515.67 744.32 515.34 745 515 C745.16 514.34 745.33 513.68 745.5 513 C745.66 512.34 745.83 511.68 746 511 C746.66 510.67 747.32 510.34 748 510 C748 508.35 748 506.7 748 505 C748.66 505 749.32 505 750 505 C750.33 502.36 750.66 499.72 751 497 C751.33 497 751.66 497 752 497 C752.4 486.3 752.4 486.3 750 476 C749.34 476 748.68 476 748 476 C748.37 474.98 748.37 474.98 748.75 473.94 C749.11 469.75 747.38 467.34 745 464 C744.02 462.98 743.02 461.98 742 461 C741.67 460.01 741.34 459.02 741 458 C739.34 456.99 737.67 455.99 736 455 C735.17 454.13 734.35 453.27 733.5 452.38 C730.86 449.87 729.56 449.3 726 449 C726 448.34 726 447.68 726 447 C724.35 447 722.7 447 721 447 C721 446.34 721 445.68 721 445 C719.94 444.87 718.88 444.73 717.79 444.6 C716.4 444.42 715.01 444.24 713.62 444.06 C712.93 443.98 712.23 443.89 711.51 443.8 C706.23 443.11 706.23 443.11 704 442 C702.46 441.9 700.91 441.87 699.36 441.87 C698.39 441.86 697.41 441.86 696.4 441.85 C695.33 441.85 694.25 441.85 693.14 441.85 C692.01 441.85 690.88 441.85 689.72 441.84 C685.96 441.84 682.21 441.83 678.46 441.83 C675.85 441.83 673.25 441.83 670.65 441.82 C665.18 441.82 659.71 441.81 654.25 441.81 C647.94 441.82 641.63 441.8 635.32 441.79 C629.24 441.77 623.17 441.77 617.09 441.77 C614.51 441.77 611.93 441.77 609.35 441.76 C605.73 441.75 602.12 441.75 598.5 441.76 C596.9 441.75 596.9 441.75 595.27 441.74 C589.76 441.76 585.22 442.22 580 444 Z M-120 460 C-119 462 -119 462 -119 462 Z M-118 460 C-117 462 -117 462 -117 462 Z M545 460 C546 462 546 462 546 462 Z M547 460 C548 462 548 462 548 462 Z M-23 827 C-22 829 -22 829 -22 829 Z M840 827 C841.48 827.99 841.48 827.99 843 829 C843 828.34 843 827.68 843 827 C842.01 827 841.02 827 840 827 Z " fill="#676D75" transform="translate(327,217)"/>
<path d="M0 0 C38.61 0 77.22 0 117 0 C117 0.33 117 0.66 117 1 C78.39 1 39.78 1 0 1 C0 0.67 0 0.34 0 0 Z " fill="#FDFDFD" transform="translate(914,660)"/>
<path d="M0 0 C38.61 0 77.22 0 117 0 C117 0.33 117 0.66 117 1 C78.39 1 39.78 1 0 1 C0 0.67 0 0.34 0 0 Z " fill="#FDFDFD" transform="translate(249,660)"/>
<path d="M0 0 C37.62 0 75.24 0 114 0 C114 0.33 114 0.66 114 1 C76.38 1 38.76 1 0 1 C0 0.67 0 0.34 0 0 Z " fill="#FDFDFD" transform="translate(1139,575)"/>
<path d="M0 0 C37.62 0 75.24 0 114 0 C114 0.33 114 0.66 114 1 C76.38 1 38.76 1 0 1 C0 0.67 0 0.34 0 0 Z " fill="#676D75" transform="translate(1131,452)"/>
<path d="M0 0 C37.62 0 75.24 0 114 0 C114 0.33 114 0.66 114 1 C76.38 1 38.76 1 0 1 C0 0.67 0 0.34 0 0 Z " fill="#676D75" transform="translate(31,452)"/>
<path d="M0 0 C0.66 0.33 1.32 0.66 2 1 C1.01 1.66 0.02 2.32 -1 3 C-0.67 2.01 -0.34 1.02 0 0 Z " fill="#676D75" transform="translate(1064,738)"/>
<path d="M0 0 C2 1 2 1 2 1 Z " fill="#676D75" transform="translate(224,745)"/>
<path d="" fill="#FDFDFD" transform="translate(0,0)"/>
<path d="" fill="#FDFDFD" transform="translate(0,0)"/>
<path d="" fill="#FDFDFD" transform="translate(0,0)"/>
<path d="" fill="#676D75" transform="translate(0,0)"/>
<path d="" fill="#676D75" transform="translate(0,0)"/>
<path d="" fill="#FDFDFD" transform="translate(0,0)"/>
<path d="" fill="#676D75" transform="translate(0,0)"/>
<path d="" fill="#676D75" transform="translate(0,0)"/>
<path d="" fill="#676D75" transform="translate(0,0)"/>
<path d="" fill="#676D75" transform="translate(0,0)"/>
<path d="" fill="#676D75" transform="translate(0,0)"/>
<path d="" fill="#676D75" transform="translate(0,0)"/>
<path d="" fill="#676D75" transform="translate(0,0)"/>
<path d="" fill="#676D75" transform="translate(0,0)"/>
<path d="" fill="#676D75" transform="translate(0,0)"/>
<path d="" fill="#676D75" transform="translate(0,0)"/>
<path d="" fill="#676D75" transform="translate(0,0)"/>
<path d="" fill="#676D75" transform="translate(0,0)"/>
<path d="" fill="#676D75" transform="translate(0,0)"/>
<path d="" fill="#676D75" transform="translate(0,0)"/>
<path d="" fill="#676D75" transform="translate(0,0)"/>
<path d="" fill="#FDFDFD" transform="translate(0,0)"/>
<path d="" fill="#FDFDFD" transform="translate(0,0)"/>
<path d="" fill="#FDFDFD" transform="translate(0,0)"/>
<path d="" fill="#676D75" transform="translate(0,0)"/>
<path d="" fill="#676D75" transform="translate(0,0)"/>
<path d="" fill="#676D75" transform="translate(0,0)"/>
<path d="" fill="#676D75" transform="translate(0,0)"/>
<path d="" fill="#676D75" transform="translate(0,0)"/>
<path d="" fill="#676D75" transform="translate(0,0)"/>
<path d="" fill="#676D75" transform="translate(0,0)"/>
<path d="" fill="#676D75" transform="translate(0,0)"/>
<path d="" fill="#676D75" transform="translate(0,0)"/>
<path d="" fill="#676D75" transform="translate(0,0)"/>
<path d="" fill="#676D75" transform="translate(0,0)"/>
<path d="" fill="#676D75" transform="translate(0,0)"/>
<path d="" fill="#676D75" transform="translate(0,0)"/>
<path d="" fill="#FDFDFD" transform="translate(0,0)"/>
<path d="" fill="#FDFDFD" transform="translate(0,0)"/>
<path d="" fill="#676D75" transform="translate(0,0)"/>
<path d="" fill="#676D75" transform="translate(0,0)"/>
<path d="" fill="#FDFDFD" transform="translate(0,0)"/>
<path d="" fill="#676D75" transform="translate(0,0)"/>
<path d="" fill="#FDFDFD" transform="translate(0,0)"/>
<path d="" fill="#FDFDFD" transform="translate(0,0)"/>
<path d="" fill="#676D75" transform="translate(0,0)"/>
<path d="" fill="#676D75" transform="translate(0,0)"/>
<path d="" fill="#676D75" transform="translate(0,0)"/>
<path d="" fill="#676D75" transform="translate(0,0)"/>
<path d="" fill="#676D75" transform="translate(0,0)"/>
<path d="" fill="#676D75" transform="translate(0,0)"/>
<path d="" fill="#676D75" transform="translate(0,0)"/>
</svg>
