<?xml version="1.0" encoding="UTF-8"?>
<!DOCTYPE svg PUBLIC "-//W3C//DTD SVG 1.1//EN" "http://www.w3.org/Graphics/SVG/1.1/DTD/svg11.dtd">
<svg xmlns="http://www.w3.org/2000/svg" version="1.1" width="512px" height="512px" style="shape-rendering:geometricPrecision; text-rendering:geometricPrecision; image-rendering:optimizeQuality; fill-rule:evenodd; clip-rule:evenodd" xmlns:xlink="http://www.w3.org/1999/xlink">
<g><path style="opacity:0.948" fill="#047857" d="M 183.5,-0.5 C 259.833,-0.5 336.167,-0.5 412.5,-0.5C 419.815,1.92395 425.315,6.59062 429,13.5C 435.802,34.2409 442.802,54.9076 450,75.5C 453.453,71.8549 457.62,69.3549 462.5,68C 472.5,67.3333 482.5,67.3333 492.5,68C 501.617,70.9552 507.95,76.7885 511.5,85.5C 511.5,90.5 511.5,95.5 511.5,100.5C 508.161,110.664 501.161,116.831 490.5,119C 500.998,124.32 507.998,132.486 511.5,143.5C 511.5,177.5 511.5,211.5 511.5,245.5C 508.952,253.717 503.618,259.384 495.5,262.5C 494.668,271.148 494.168,279.814 494,288.5C 490.375,298.736 483.208,304.903 472.5,307C 458.833,307.667 445.167,307.667 431.5,307C 420.74,305.573 413.574,299.74 410,289.5C 408.63,281.236 408.13,272.903 408.5,264.5C 334.833,264.5 261.167,264.5 187.5,264.5C 187.666,272.174 187.5,279.841 187,287.5C 183.503,298.666 176.003,305.166 164.5,307C 151.167,307.667 137.833,307.667 124.5,307C 112.557,305.058 105.057,298.224 102,286.5C 101.832,278.479 101.332,270.479 100.5,262.5C 92.6203,258.79 87.4537,252.79 85,244.5C 84.3333,211.167 84.3333,177.833 85,144.5C 87.8316,132.336 94.9983,123.836 106.5,119C 88.3252,113.806 81.4919,101.972 86,83.5C 89.4375,75.0615 95.6041,69.8949 104.5,68C 114.167,67.3333 123.833,67.3333 133.5,68C 138.391,69.1123 142.725,71.279 146.5,74.5C 153.626,54.6213 160.46,34.6213 167,14.5C 170.567,7.3116 176.067,2.3116 183.5,-0.5 Z M 187.5,17.5 C 261.167,17.3333 334.834,17.5 408.5,18C 410.667,18.8333 412.167,20.3333 413,22.5C 422.014,48.7081 430.514,75.0414 438.5,101.5C 344.833,101.5 251.167,101.5 157.5,101.5C 166.083,75.5825 174.583,49.5825 183,23.5C 184.332,21.34 185.832,19.34 187.5,17.5 Z M 107.5,85.5 C 115.943,85.0619 124.277,85.5619 132.5,87C 133.701,87.9025 134.535,89.0692 135,90.5C 135.499,94.1516 135.665,97.8183 135.5,101.5C 126.494,101.666 117.494,101.5 108.5,101C 100.856,96.3036 100.523,91.1369 107.5,85.5 Z M 465.5,85.5 C 473.174,85.3336 480.841,85.5003 488.5,86C 494.377,89.8043 495.044,94.471 490.5,100C 480.58,101.423 470.58,101.923 460.5,101.5C 459.314,95.1506 460.98,89.8172 465.5,85.5 Z M 145.5,119.5 C 247.167,119.333 348.834,119.5 450.5,120C 462.5,126 474.5,132 486.5,138C 489.433,140.264 491.6,143.098 493,146.5C 493.667,178.167 493.667,209.833 493,241.5C 492.167,243.667 490.667,245.167 488.5,246C 459.502,246.5 430.502,246.667 401.5,246.5C 401.811,238.772 401.311,231.105 400,223.5C 397.744,218.243 393.91,214.743 388.5,213C 328.167,212.333 267.833,212.333 207.5,213C 201.667,214.833 197.833,218.667 196,224.5C 195.5,231.826 195.334,239.159 195.5,246.5C 166.498,246.667 137.498,246.5 108.5,246C 106.061,245.226 104.227,243.726 103,241.5C 102.333,210.167 102.333,178.833 103,147.5C 104.378,142.792 107.212,139.292 111.5,137C 123.051,131.392 134.384,125.559 145.5,119.5 Z M 136.5,187.5 C 144.238,187.144 151.905,187.644 159.5,189C 165.427,192.086 168.76,196.919 169.5,203.5C 161.415,203.901 153.415,203.401 145.5,202C 140.097,198.701 137.097,193.868 136.5,187.5 Z M 440.5,187.5 C 446.833,187.5 453.167,187.5 459.5,187.5C 457.514,200.265 450.014,205.598 437,203.5C 433.5,203.167 430,202.833 426.5,202.5C 428.482,194.856 433.149,189.856 440.5,187.5 Z M 213.5,230.5 C 270.167,230.5 326.833,230.5 383.5,230.5C 383.5,235.833 383.5,241.167 383.5,246.5C 326.833,246.5 270.167,246.5 213.5,246.5C 213.5,241.167 213.5,235.833 213.5,230.5 Z M 119.5,264.5 C 136.167,264.5 152.833,264.5 169.5,264.5C 174.193,285.807 165.859,294.141 144.5,289.5C 123.141,294.141 114.807,285.807 119.5,264.5 Z M 426.5,264.5 C 443.167,264.5 459.833,264.5 476.5,264.5C 481.25,285.75 472.917,294.083 451.5,289.5C 430.164,294.164 421.831,285.831 426.5,264.5 Z"/></g>
<g><path style="opacity:0.945" fill="#047857" d="M 132.5,135.5 C 242.834,135.333 353.167,135.5 463.5,136C 469.368,139.04 470.868,143.54 468,149.5C 466.786,151.049 465.286,152.215 463.5,153C 353.167,153.667 242.833,153.667 132.5,153C 128.916,151.336 127.249,148.503 127.5,144.5C 127.377,140.405 129.044,137.405 132.5,135.5 Z"/></g>
<g><path style="opacity:0.938" fill="#047857" d="M 132.5,169.5 C 140.84,169.334 149.173,169.5 157.5,170C 178.792,174.623 188.625,187.79 187,209.5C 185.167,215.333 181.333,219.167 175.5,221C 165.5,221.667 155.5,221.667 145.5,221C 128.479,216.639 119.479,205.639 118.5,188C 118.834,178.505 123.501,172.339 132.5,169.5 Z M 136.5,187.5 C 137.097,193.868 140.097,198.701 145.5,202C 153.415,203.401 161.415,203.901 169.5,203.5C 168.76,196.919 165.427,192.086 159.5,189C 151.905,187.644 144.238,187.144 136.5,187.5 Z"/></g>
<g><path style="opacity:0.937" fill="#047857" d="M 438.5,169.5 C 446.84,169.334 455.173,169.5 463.5,170C 470.294,171.146 474.794,174.979 477,181.5C 479.016,201.479 470.516,214.646 451.5,221C 441.167,221.667 430.833,221.667 420.5,221C 410.743,216.654 406.909,209.154 409,198.5C 412.797,182.535 422.63,172.869 438.5,169.5 Z M 440.5,187.5 C 433.149,189.856 428.482,194.856 426.5,202.5C 430,202.833 433.5,203.167 437,203.5C 450.014,205.598 457.514,200.265 459.5,187.5C 453.167,187.5 446.833,187.5 440.5,187.5 Z"/></g>
<g><path style="opacity:0.942" fill="#047857" d="M 217.5,178.5 C 271.168,178.333 324.834,178.5 378.5,179C 382.238,180.399 383.904,183.066 383.5,187C 383.987,191.7 381.987,194.7 377.5,196C 324.833,196.667 272.167,196.667 219.5,196C 212.608,193.193 210.775,188.36 214,181.5C 215.145,180.364 216.312,179.364 217.5,178.5 Z"/></g>
<g><path style="opacity:0.937" fill="#047857" d="M 511.5,391.5 C 511.5,396.833 511.5,402.167 511.5,407.5C 509.161,415.307 504.495,421.474 497.5,426C 449.5,452 401.5,478 353.5,504C 346.983,507.223 340.317,509.723 333.5,511.5C 326.167,511.5 318.833,511.5 311.5,511.5C 265.327,501.044 218.994,490.71 172.5,480.5C 161.148,490.854 149.815,501.187 138.5,511.5C 95.8333,511.5 53.1667,511.5 10.5,511.5C 5.83333,508.833 2.16667,505.167 -0.5,500.5C -0.5,478.167 -0.5,455.833 -0.5,433.5C 2.31113,428.524 6.31113,424.691 11.5,422C 73.0043,386.747 134.671,351.747 196.5,317C 201.375,315.198 206.375,313.865 211.5,313C 245.484,310.584 279.484,308.418 313.5,306.5C 336.837,307.337 347.003,319.337 344,342.5C 340.899,351.934 334.732,358.434 325.5,362C 306.654,365.446 287.821,368.946 269,372.5C 268.055,372.905 267.388,373.572 267,374.5C 265.833,380.333 264.667,386.167 263.5,392C 263.911,394.214 265.245,395.547 267.5,396C 287.5,403.333 307.5,410.667 327.5,418C 329.167,418.667 330.833,418.667 332.5,418C 382.097,401.023 431.931,384.856 482,369.5C 496.594,370.61 506.427,377.943 511.5,391.5 Z M 304.5,324.5 C 309.844,324.334 315.177,324.501 320.5,325C 326.109,328.277 327.942,333.11 326,339.5C 324.833,341.333 323.333,342.833 321.5,344C 301.903,347.989 282.237,351.655 262.5,355C 256.333,357.167 252.167,361.333 250,367.5C 246.969,377.646 245.635,387.979 246,398.5C 247.736,405.237 251.903,409.737 258.5,412C 278.244,419.137 297.911,426.47 317.5,434C 323.307,436.318 329.307,436.984 335.5,436C 384.526,419.936 433.526,403.769 482.5,387.5C 491.578,389.741 495.078,395.408 493,404.5C 491.5,407.333 489.333,409.5 486.5,411C 439.167,436.667 391.833,462.333 344.5,488C 334.741,493.086 324.408,494.753 313.5,493C 265.203,482.307 216.87,471.807 168.5,461.5C 166.366,461.515 164.366,462.015 162.5,463C 152.5,473 142.5,483 132.5,493C 94.1681,493.5 55.8348,493.667 17.5,493.5C 17.1671,475.488 17.5005,457.488 18.5,439.5C 80.038,404.133 141.705,368.967 203.5,334C 206.774,332.798 210.107,331.798 213.5,331C 244.008,329.111 274.341,326.945 304.5,324.5 Z"/></g>
</svg>
