<?xml version="1.0" encoding="UTF-8"?>
<svg version="1.1" viewBox="0 0 1600 1600" width="1280" height="1280" xmlns="http://www.w3.org/2000/svg">
<path transform="translate(359 -.514)" d="m0 0c4.88 0.0102 9.75-0.00293 14.6-0.013 8.53-0.0144 17.1-0.0141 25.6-0.00381 12.7 0.0152 25.4 0.00737 38-0.00483 22.6-0.021 45.3-0.0193 67.9-0.00768 19.8 0.0101 39.6 0.0127 59.5 0.00791 1.32-3.06e-4 2.63-6.11e-4 3.99-9.26e-4 5.34-0.00125 10.7-0.00252 16-0.00384 14.9-0.00367 29.9-0.00595 44.8-0.00714 0.68-5.46e-5 1.36-1.09e-4 2.06-1.65e-4 21.7-0.00164 43.3 0.00286 65 0.0116 1.05 4.21e-4 1.05 4.21e-4 2.13 8.52e-4 11.4 0.00458 22.8 0.00946 34.2 0.0144 45.2 0.0194 90.4 0.0185 136-9.22e-4 11.4-0.00489 22.8-0.00973 34.2-0.0143 1.05-4.23e-4 1.05-4.23e-4 2.13-8.54e-4 21.6-0.00863 43.3-0.0123 64.9-0.0105 0.68 5.43e-5 1.36 1.09e-4 2.06 1.65e-4 14.9 0.00125 29.8 0.00379 44.8 0.00748 6 0.00148 12 0.00287 18 0.00427 1.31 3.16e-4 2.63 6.33e-4 3.98 9.59e-4 19.8 0.00454 39.6-7.61e-4 59.4-0.0109 22.5-0.0114 45.1-0.00855 67.6 0.0131 12.6 0.0117 25.2 0.0125 37.8-0.00258 8.43-9e-3 16.9-0.00333 25.3 0.014 4.79 0.00947 9.59 0.0129 14.4-0.00162 52.8-0.148 98.9 11.9 138 49.2 1.2 1.15 2.42 2.29 3.64 3.42 32 30.5 45.7 75.3 46.8 118 0.274 14.4 0.205 28.8 0.184 43.2-0.00665 6.17-0.00161 12.3 0.00188 18.5 0.00444 10.7 0.00161 21.3-0.00665 32-0.00865 11.2-0.0135 22.4-0.0133 33.5 7.65e-6 0.699 1.53e-5 1.4 2.32e-5 2.12 4.09e-5 2.84 1.07e-4 5.68 2.06e-4 8.51 9.04e-4 26.6-9e-3 53.1-0.0244 79.7-0.0136 23.5-0.0199 47.1-0.0192 70.6 4.04e-5 1.51 8.08e-5 3.02 1.21e-4 4.54 2.04e-5 0.748 4.07e-5 1.5 6.17e-5 2.27 1.01e-4 3.76 1.91e-4 7.53 2.7e-4 11.3 1.67e-5 0.743 3.34e-5 1.49 5.06e-5 2.25 3.66e-4 19.7-0.00418 39.5-0.0104 59.2-2.2e-4 0.703-4.41e-4 1.41-6.67e-4 2.13-8.88e-4 2.83-0.00178 5.65-0.00269 8.48-0.00315 9.79-0.00467 19.6-0.00511 29.4-6e-4 12.6-0.00476 25.2-0.0144 37.9-0.00459 6.07-0.00767 12.1-0.00641 18.2 0.00111 5.58-0.0025 11.2-0.00965 16.7-0.00179 2-0.00197 4-2.33e-4 6 0.00816 10.6-0.141 21.2-0.535 31.7-0.0324 0.964-0.0649 1.93-0.0983 2.92-1.41 33.9-14.4 67.1-35.5 93.4-1.08 1.38-1.08 1.38-2.18 2.8-26.7 33.7-67.3 55.5-110 60.4-22.7 2.37-45.6 1.9-68.4 1.88-4.6-0.00257-9.2 7.36e-4 -13.8 0.00324-8.04 0.00359-16.1 0.00352-24.1 9.53e-4 -12-0.0038-23.9-0.00184-35.9 0.00121-21.4 0.00525-42.7 0.00482-64.1 0.00192-18.7-0.00252-37.4-0.00317-56.1-0.00198-1.86 1.15e-4 -1.86 1.15e-4 -3.76 2.31e-4 -5.04 3.11e-4 -10.1 6.3e-4 -15.1 9.6e-4 -35.2 0.00227-70.3 0.00268-106-0.00106-0.662-7.02e-5 -1.32-1.4e-4 -2.01-2.13e-4 -10.7-0.00114-21.5-0.00236-32.2-0.00359-42.6-0.00486-85.2-0.00463-128 2.31e-4 -10.7 0.00122-21.5 0.00243-32.2 0.00357-0.992 1.06e-4 -0.992 1.06e-4 -2 2.13e-4 -35.8 0.00378-71.5 0.00294-107 6.02e-4 -5.03-3.21e-4 -10.1-6.34e-4 -15.1-9.43e-4 -1.24-7.91e-5 -2.48-1.58e-4 -3.76-2.4e-4 -18.7-0.00114-37.4 1.89e-4 -56 0.00272-21.2 0.00286-42.5 0.00213-63.7-0.00328-11.9-0.00293-23.8-0.00314-35.6 6.46e-4 -7.95 0.00225-15.9 8.26e-4 -23.8-0.0035-4.52-0.00236-9.04-0.00323-13.6 4.06e-4 -15.5 0.0115-31 0.0114-46.5-0.564-1.01-0.0372-2.02-0.0743-3.05-0.113-45.5-1.96-86-21.1-118-53.5-19.9-21.8-33.3-47.8-40.4-76.3-0.199-0.776-0.398-1.55-0.602-2.35-3.83-16.3-3.94-33-3.9-49.6-0.00231-2.19-0.00549-4.39-0.00945-6.58-0.00829-5.97-0.00425-11.9 0.00197-17.9 0.00455-6.46-0.00247-12.9-0.00796-19.4-0.00874-11.9-0.00766-23.8-0.00218-35.7 0.00504-11 0.00634-22 0.00395-33-1.53e-4 -0.732-3.06e-4 -1.46-4.63e-4 -2.22-6.23e-4 -2.97-0.00126-5.94-0.00192-8.92-0.00611-27.8-5.86e-4 -55.7 0.0102-83.5 0.00949-24.7 0.00864-49.4-9.22e-4 -74.1-0.0107-27.8-0.0149-55.6-0.00878-83.4 6.41e-4 -2.97 0.00127-5.93 0.00189-8.9 1.58e-4 -0.73 3.16e-4 -1.46 4.79e-4 -2.21 0.00227-11-3.74e-4 -22-0.00544-33-0.00573-12.5-0.00406-25 0.00656-37.5 0.00524-6.38 0.00734-12.8 7.02e-4 -19.1-6e-3 -5.85-0.00262-11.7 0.00796-17.5 0.00222-2.11 0.00114-4.21-0.00375-6.32-0.102-47.7 13.7-91.3 47.3-126 0.454-0.49 0.908-0.981 1.38-1.49 8.62-9.3 18-16.6 28.6-23.5 0.947-0.626 0.947-0.626 1.91-1.27 33.8-22.1 71.7-26.4 111-26.2zm-113 74.5c-0.846 0.804-1.69 1.61-2.56 2.44-1.21 1.27-1.21 1.27-2.44 2.56-0.963 0.971-0.963 0.971-1.95 1.96-22.7 23.8-33.3 56.6-33.2 89-1.46e-4 1.28-2.92e-4 2.56-4.43e-4 3.88-2.85e-4 3.48 0.00557 6.97 0.0126 10.5 0.00628 3.65 0.00684 7.3 0.00803 11 0.0031 6.9 0.0113 13.8 0.0213 20.7 0.0112 7.86 0.0167 15.7 0.0217 23.6 0.0104 16.2 0.028 32.3 0.0503 48.5 12.2 0.0926 24.4 0.164 36.6 0.207 5.67 0.0209 11.3 0.0493 17 0.0945 5.47 0.0434 10.9 0.0674 16.4 0.0778 2.09 0.00741 4.18 0.0219 6.26 0.0434 2.92 0.0289 5.84 0.033 8.76 0.0312 1.3 0.0216 1.3 0.0216 2.63 0.0436 4.63 0.0443 4.63 0.0443 8.34-2.41 0.329-0.688 0.658-1.38 0.997-2.08 0.302-0.597 0.605-1.19 0.916-1.81 0.384-0.913 0.384-0.913 0.775-1.84 4.32-9.92 9.23-18.2 16.3-26.3 0.561-0.661 1.12-1.32 1.7-2 13.1-14.2 31.9-23.1 50.3-28 0.869-0.235 1.74-0.469 2.63-0.711 25.6-5.98 51.9-1.14 74.4 11.7 0.949 0.532 1.9 1.06 2.88 1.61 8.04 4.82 15.1 10.9 22.3 16.9 2.38 1.96 4.77 3.89 7.19 5.81 0.668 0.532 1.34 1.06 2.02 1.61 1.56 1.26 1.56 1.26 3.6 1.07 0.0228-28.5 0.0405-57 0.0511-85.6 0.00125-3.36 0.00255-6.73 0.00387-10.1 2.62e-4 -0.67 5.25e-4 -1.34 7.95e-4 -2.03 0.00436-10.9 0.0122-21.7 0.0214-32.6 0.00934-11.1 0.0148-22.3 0.0169-33.4 0.00131-6.26 0.0044-12.5 0.0116-18.8 0.00676-5.88 0.00889-11.8 0.00738-17.6 2.77e-4 -2.17 0.00228-4.33 0.0061-6.5 0.00493-2.94 0.00379-5.88 0.00105-8.83 0.00291-0.869 0.00583-1.74 0.00883-2.63 0.362-3.8 0.362-3.8-1.13-6.99-2.03-0.103-4.07-0.135-6.1-0.14-0.645-0.00297-1.29-0.00594-1.95-9e-3 -2.18-0.00872-4.35-0.0102-6.53-0.0117-1.56-0.00463-3.11-0.00965-4.67-0.015-4.24-0.0132-8.49-0.0196-12.7-0.024-2.66-0.00293-5.31-0.00704-7.97-0.0115-8.33-0.0137-16.7-0.0233-25-0.0272-9.58-0.00446-19.2-0.0219-28.7-0.051-7.42-0.0217-14.8-0.0317-22.3-0.033-4.42-0.00104-8.84-0.00678-13.3-0.0248-42.9-0.165-79.7 6.61-112 37.3zm279-37c-0.18 28.6-0.18 28.6-0.355 57.1-0.0711 11.7-0.143 23.4-0.217 35.2-0.252 39.6-0.478 79.3-0.518 119-0.00311 2.45-0.00805 4.89-0.0135 7.34-0.00825 3.79-0.0114 7.59-0.0105 11.4-5.84e-4 2.03-0.00591 4.05-0.0114 6.08 0.00763 6.11 0.173 12 1.13 18 1.05-0.41 2.1-0.82 3.18-1.24 1.42-0.545 2.84-1.09 4.25-1.63 0.688-0.269 1.38-0.539 2.08-0.816 9.04-3.45 17.4-4.7 27-4.68 1.58 0.00242 1.58 0.00242 3.19 0.00488 13 0.203 23.1 3.51 35.2 8.37v-254h-75zm112 0v225c4.75-1.9 7.57-4.03 11.2-7.38 15.9-14 33.1-25.3 53.8-30.6 0.717-0.213 1.43-0.425 2.17-0.645 23.5-6.33 50.6-1.36 71.8 9.64 22 12.9 35.2 30 46.9 52 0.942 1.92 0.942 1.92 2.09 2.98 3 0.1 5.99 0.134 8.99 0.126 0.96 0.00145 1.92 0.00291 2.91 0.0044 3.26 0.00369 6.52 1.61e-4 9.78-0.00326 2.34 0.00115 4.69 0.00274 7.03 0.00473 5.79 0.00376 11.6 0.00282 17.4-5.08e-5 6.93-0.00318 13.9-5.8e-4 20.8 0.00221 13.6 0.00528 27.2 0.0048 40.8 0.00192 11.9-0.00251 23.8-0.00317 35.7-0.00198 0.787 7.64e-5 1.57 1.53e-4 2.39 2.31e-4 3.2 3.11e-4 6.39 6.3e-4 9.59 9.6e-4 30 0.00306 60 2.81e-4 90-0.0051 26.7-0.00475 53.4-0.00432 80 4.61e-4 29.9 0.00535 59.9 0.00748 89.8 0.00439 3.19-3.21e-4 6.38-6.34e-4 9.57-9.43e-4 0.785-7.91e-5 1.57-1.58e-4 2.38-2.4e-4 11.9-0.00114 23.8 1.97e-4 35.6 0.00272 13.5 0.00285 27 0.00216 40.5-0.00328 6.9-0.00269 13.8-0.00377 20.7-3.51e-4 6.3 0.00296 12.6 0.00137 18.9-0.00398 2.29-0.00113 4.58-5.3e-4 6.87 0.00188 3.09 3e-3 6.19-3.74e-5 9.28-0.00472 1.36 0.00351 1.36 0.00351 2.75 0.00709 3.93 0.381 3.93 0.381 7.24-1.13 0.1-1.58 0.131-3.16 0.134-4.74 0.00426-1.03 0.00853-2.05 0.0129-3.11-4.53e-4 -1.14-9.06e-4 -2.27-0.00137-3.45 0.00336-1.19 0.00672-2.38 0.0102-3.61 0.0079-3.28 0.0112-6.56 0.0118-9.84 7.11e-4 -2.06 0.00285-4.11 0.0055-6.17 0.00927-7.19 0.0133-14.4 0.0125-21.6-5.96e-4 -6.67 0.00986-13.3 0.0257-20 0.0132-5.74 0.0184-11.5 0.0178-17.2-2.52e-4 -3.42 0.00246-6.84 0.0132-10.3 0.214-26.6 0.214-26.6-4.43-52.6-0.214-0.78-0.427-1.56-0.647-2.36-9.63-33.6-32.7-62-63.1-79-20.2-10.9-42.1-16.2-65-16.1-1.08-0.00115-2.16-0.00231-3.28-0.0035-3.63-0.00265-7.26 0.00184-10.9 0.00629-2.63-4.36e-4 -5.25-0.00131-7.88-0.00259-5.71-0.00207-11.4-4.34e-4 -17.1 0.00364-8.5 0.00604-17 0.00634-25.5 0.00546-14.3-0.00131-28.6 0.00203-42.9 0.00802-14.1 0.00592-28.3 0.00977-42.4 0.0109-1.32 1.03e-4 -1.32 1.03e-4 -2.67 2.08e-4 -4.47 3.38e-4 -8.94 6.4e-4 -13.4 9.27e-4 -31.6 0.0021-63.3 0.00884-94.9 0.0183-30.7 0.00918-61.5 0.0163-92.2 0.0205-1.42 1.97e-4 -1.42 1.97e-4 -2.87 3.99e-4 -9.52 0.00132-19 0.00259-28.6 0.00384-19.4 0.00254-38.8 0.00536-58.2 0.00835-0.891 1.37e-4 -1.78 2.75e-4 -2.7 4.16e-4 -27.3 0.00422-54.6 0.00965-82 0.0163-0.776 1.88e-4 -1.55 3.75e-4 -2.35 5.68e-4 -31.4 0.00762-62.8 0.0165-94.3 0.0251zm-292 245c-22.2 27.8-21 74.2-17.4 108 2.96 24.3 8.38 47.3 28.4 63.4 14.4 10.6 31.7 16.5 49.6 14.2 2.8-0.473 5.57-1.04 8.34-1.66 1.2-0.257 1.2-0.257 2.43-0.52 12.6-3.21 22.9-11.2 32.6-19.5 2.61-2.16 5.24-4.3 7.88-6.44 0.687-0.559 1.37-1.12 2.08-1.69 4.13-3.35 8.31-6.64 12.5-9.87 5.11-3.92 10.2-7.87 15.2-11.9l2.13-1.66c0.652-0.522 1.3-1.04 1.97-1.58 0.582-0.46 1.16-0.92 1.76-1.39 1.7-1.84 2.12-3.01 2.38-5.49-1.16-2.67-2.36-5.14-3.75-7.69-2.39-4.52-4.6-8.81-6-13.8-0.619-1.76-0.619-1.76-1.25-3.56-2.89-1.17-5.72-1.11-8.81-1.08-0.952 0.00653-1.9 0.0131-2.88 0.0198-1.02 0.0114-2.05 0.0229-3.1 0.0347-2.18 0.0127-4.36 0.025-6.54 0.0371-3.43 0.0248-6.85 0.0527-10.3 0.0862-3.31 0.0304-6.62 0.048-9.94 0.0642-1.01 0.0135-2.03 0.0269-3.07 0.0408-14.5 0.0507-14.5 0.0507-20.3-4.45-3.91-5.06-5.72-9.05-5.47-15.4 0.833-5.53 3.03-9.24 7.35-12.7 4.29-2.24 7.65-2.69 12.5-2.74 1.09-0.0135 2.19-0.027 3.32-0.0409 1.18-0.0104 2.35-0.0209 3.56-0.0316 2.48-0.0329 4.97-0.0661 7.45-0.0996 3.92-0.0476 7.84-0.092 11.8-0.131 3.78-0.0395 7.56-0.0911 11.3-0.144 1.18-0.00841 2.36-0.0168 3.58-0.0255 1.09-0.0166 2.18-0.0333 3.3-0.0504 0.961-0.0103 1.92-0.0206 2.91-0.0312 2.5-0.0539 2.5-0.0539 4.3-2.27 0.825-2.37 1.59-4.73 2.31-7.12 1.42-4.53 2.84-8.58 5.5-12.6 2.55-3.21 2.55-3.21 2.19-7.31-1.96-1.84-3.84-3.37-6-4.94-1.29-0.976-2.58-1.95-3.88-2.93-0.678-0.51-1.36-1.02-2.05-1.55-3.42-2.62-6.74-5.35-10.1-8.08-6.71-5.48-13.5-10.9-20.3-16.2-1.66-1.3-3.3-2.61-4.94-3.93-32.7-26.1-73.7-28.5-103 5.07zm361-22.4c-1.41 0.441-1.41 0.441-2.84 0.891-9.66 3.47-17.3 9.76-25.2 16.1-0.676 0.543-1.35 1.09-2.05 1.65-3.37 2.72-6.73 5.45-10.1 8.2-3.58 2.93-7.22 5.8-10.9 8.65-5.99 4.67-11.9 9.45-17.8 14.3-0.96 0.785-0.96 0.785-1.94 1.59-0.565 0.464-1.13 0.928-1.71 1.41-1.47 1.16-3.03 2.21-4.59 3.25 0.389 0.768 0.389 0.768 0.785 1.55 1.59 3.2 3.13 6.41 4.65 9.64 0.3 0.622 0.599 1.24 0.908 1.88 1.65 3.5 3.06 7 4.26 10.7 0.263 0.799 0.525 1.6 0.796 2.42 0.294 0.905 0.294 0.905 0.595 1.83 0.682 0.00365 1.36 0.00729 2.07 0.011 7.12 0.042 14.2 0.111 21.4 0.196 2.65 0.0303 5.31 0.0494 7.96 0.0635 3.83 0.0215 7.65 0.0682 11.5 0.12 1.77 0.00184 1.77 0.00184 3.57 0.00372 6.85 0.121 12.7 0.764 18.6 4.61 4.09 5.01 5.38 9.25 5.27 15.6-0.459 4.05-1.81 7.18-4.27 10.4-8.09 6.31-18.9 5.16-28.7 5.32-1.07 0.0208-2.15 0.0416-3.25 0.063-3.39 0.0648-6.78 0.124-10.2 0.183-2.32 0.0433-4.63 0.0869-6.95 0.131-5.64 0.106-11.3 0.208-16.9 0.307-0.202 0.541-0.404 1.08-0.612 1.64-0.267 0.714-0.534 1.43-0.81 2.16-0.264 0.706-0.528 1.41-0.8 2.14-2.76 7.31-5.69 14.4-9.78 21.1 5.81 5.43 11.8 10.5 18.1 15.3 6.3 4.78 12.4 9.81 18.5 14.9 25.7 21.3 25.7 21.3 57.4 29.9 0.718 0.0412 1.44 0.0825 2.18 0.125 18.8 0.533 36.3-7.49 49.8-20.1 15.1-15.3 19.2-36.5 22-57 0.0972-0.709 0.194-1.42 0.294-2.15 1-8.46 0.948-17 0.956-25.5 0.00101-0.818 0.00201-1.64 0.00305-2.48-0.0115-13.8-0.802-27.3-3.25-40.9-0.134-0.787-0.268-1.57-0.406-2.38-2.47-14-7.98-27.9-17.6-38.6-0.581-0.661-1.16-1.32-1.76-2-11.4-12.2-27.6-19.4-44.2-20.2-8.77-0.163-16.6 0.355-25 3.2zm-178 74c-7.7 10.4-10.7 21.7-9.82 34.6 1.81 11.5 8.12 22.3 17.4 29.3 11.5 7.69 21.8 9.41 35.4 8.06 8.07-1.64 15.6-5.94 22-11v-2c0.99-0.33 1.98-0.66 3-1 9.47-11.9 11.4-24.3 10-39-2.14-11.1-9.43-21-18.5-27.5-20.3-12.2-43.3-8.92-59.5 8.5zm-322-9c-0.0949 2.34-0.126 4.66-0.114 7-1.21e-4 0.744-2.41e-4 1.49-3.65e-4 2.25 7.49e-4 2.42 0.00838 4.83 0.0162 7.25 0.00147 1.49 0.00249 2.98 0.00305 4.46 0.00525 5.53 0.0192 11.1 0.0321 16.6 0.0206 12.4 0.0412 24.7 0.0625 37.4h86c-0.66-8.25-1.32-16.5-2-25-0.285-14.3 0.027-28.1 1.38-42.3 0.0938-0.996 0.188-1.99 0.284-3.02 0.089-0.883 0.178-1.77 0.27-2.68 0.0231-0.664 0.0462-1.33 0.0701-2.01-1.76-1.76-4.1-1.13-6.44-1.14-0.78 0.00202-1.56 0.00405-2.36 0.00613-0.818-0.00175-1.64-0.0035-2.48-0.00531-2.72-0.00442-5.43-0.00148-8.15 0.00189-1.88-6.73e-4 -3.76-0.00164-5.64-0.0029-3.94-0.00148-7.89 6.78e-4 -11.8 0.00534-5.07 0.0057-10.1 0.00242-15.2-0.00357-3.88-0.00361-7.77-0.00247-11.6 1.28e-4 -1.87 6.69e-4 -3.74-1.59e-4 -5.61-0.00248-2.61-0.00253-5.22 0.00131-7.82 0.0069-1.17-0.00304-1.17-0.00304-2.36-0.00613-3.51-0.309-3.51-0.309-6.44 1.14zm1129-0.98c-8.59 0.012-17.2 0.0263-25.8 0.0436-1.13 0.00227-2.27 0.00455-3.44 0.00689-2.35 0.00472-4.7 0.00945-7.05 0.0142-6.28 0.0126-12.6 0.0247-18.8 0.0368-10.8 0.021-21.6 0.0423-32.5 0.0638-11.3 0.0225-22.7 0.0449-34 0.067-0.71 0.00139-1.42 0.00277-2.15 0.0042-3.61 0.00704-7.21 0.0141-10.8 0.0211-25.4 0.0496-50.8 0.0996-76.2 0.15-24.6 0.0487-49.3 0.0972-73.9 0.146-0.762 0.00149-1.52 0.00299-2.31 0.00453-7.66 0.015-15.3 0.03-23 0.045-15.6 0.0305-31.2 0.0611-46.8 0.0917-1.07 0.00211-1.07 0.00211-2.17 0.00426-47.7 0.0935-95.4 0.188-143 0.282 0.0707 1.09 0.141 2.18 0.214 3.31 0.0926 1.45 0.185 2.9 0.278 4.35 0.0466 0.717 0.0932 1.43 0.141 2.17 0.351 5.53 0.514 11 0.5 16.6 9.57e-4 0.894 0.00191 1.79 0.0029 2.71 6.71e-4 1.86-0.0011 3.72-0.00534 5.58-0.00536 2.8-1.64e-5 5.59 0.00635 8.39-6.61e-4 1.83-0.00194 3.67-0.00391 5.5 0.00202 0.808 0.00405 1.62 0.00613 2.45-0.0314 8.04-0.634 15.9-1.14 24h561v-75c-4.43-0.885-8.38-1.13-12.8-1.1-1.17 0.00174-1.17 0.00174-2.37 0.00351-2.62 5e-3 -5.23 0.0171-7.85 0.0291-1.88 0.00489-3.76 0.00929-5.65 0.0132-4.02 0.00914-8.05 0.0211-12.1 0.0351-6.09 0.0206-12.2 0.0315-18.3 0.0398zm-810 110c-1.11 38.4-1.15 76.8-1.14 115 0.00231 6.27 0.00256 12.5 0.00148 18.8-1.53e-4 0.903-3.06e-4 1.81-4.64e-4 2.74-3.2e-4 1.84-6.44e-4 3.67-9.73e-4 5.51-0.00282 17 3.84e-4 34.1 0.0058 51.1 0.0045 14.6 0.00366 29.2-9.19e-4 43.8-0.00535 17-0.00746 34.1-0.00439 51.1 3.19e-4 1.81 6.33e-4 3.63 9.43e-4 5.44 1.54e-4 0.892 3.09e-4 1.78 4.68e-4 2.7 8.62e-4 6.28-5.91e-4 12.6-0.00295 18.8-0.0028 7.62-0.00206 15.2 0.00328 22.9 0.00263 3.88 0.00365 7.77 3.51e-4 11.6-0.00352 4.2 6.75e-4 8.4 0.00568 12.6-0.00223 1.23-0.00446 2.47-0.00676 3.73 0.00261 1.12 0.00522 2.24 0.0079 3.4 1.62e-4 0.969 3.25e-4 1.94 4.92e-4 2.94 0.0561 2.82 0.0561 2.82 1.13 6.55h75v-379c-5.94 1.98-11.9 3.96-18 6-17.5 4.93-35 2.03-51.7-4.08-0.986-0.36-1.97-0.72-2.99-1.09-0.749-0.274-1.5-0.548-2.27-0.831zm-319 3c-0.0663 32.3-0.122 64.6-0.153 96.9-0.00375 3.82-0.00763 7.64-0.0116 11.5-7.87e-4 0.761-0.00157 1.52-0.00238 2.3-0.013 12.3-0.0367 24.6-0.0643 36.8-0.0282 12.6-0.0447 25.2-0.0508 37.9-0.0041 7.77-0.017 15.5-0.0415 23.3-0.0179 5.98-0.0196 12-0.0156 18-8.19e-4 2.44-0.0067 4.88-0.0183 7.31-0.184 40.7 10.9 74.7 39.5 105 34.3 33.6 76.9 37.9 123 37.7 4.2-0.0089 8.41-0.00702 12.6-0.00664 7.03-9.3e-4 14.1-0.00953 21.1-0.0233 8.13-0.0158 16.3-0.021 24.4-0.0203 8.69 6.74e-4 17.4-0.00624 26.1-0.0154 2.5-0.00213 5-0.00284 7.5-0.00324 3.91-1e-3 7.82-0.00707 11.7-0.0172 1.44-0.00293 2.87-0.00415 4.31-0.00357 1.95 4.87e-4 3.9-0.00576 5.85-0.0124 1.09-0.00168 2.19-0.00335 3.32-0.00508 2.39 0.147 2.39 0.147 3.44-1.13 0.0976-1.86 0.124-3.72 0.123-5.57 0.00199-1.22 0.00398-2.44 0.00603-3.69-0.00285-1.37-0.0058-2.74-0.00883-4.11 4.36e-4 -1.44 0.00131-2.88 0.00259-4.32 0.00225-3.98-0.00178-7.95-0.00678-11.9-0.0043-4.28-0.00286-8.56-0.0021-12.8 5.25e-4 -7.42-0.00262-14.8-0.00824-22.3-0.00811-10.7-0.0107-21.5-0.012-32.2-0.00219-17.4-0.00885-34.8-0.0183-52.2-0.00917-16.9-0.0163-33.8-0.0205-50.8-2.63e-4 -1.04-5.25e-4 -2.08-7.96e-4 -3.16-0.0013-5.23-0.00257-10.5-0.00381-15.7-0.0104-43.4-0.028-86.8-0.0503-130-4.4 0.864-6.89 3.31-10.1 6.25-26.4 23.2-53.4 35.3-88.9 33.9-22.9-1.52-46.9-11.6-62.9-28.1-1.97-2.28-1.97-2.28-5.06-3.06-0.703-1.31-1.36-2.65-2-4-1.34-1.7-2.69-3.39-4.06-5.06-4.94-6.94-4.94-6.94-13.9-25.9h-95zm618 0c-2.64 5.28-5.28 10.6-8 16-4.19 7.67-8.96 13.7-15 20-0.825 0.887-1.65 1.77-2.5 2.69-13.2 12.2-28.4 19.6-45.5 24.3-1.19 0.34-2.37 0.681-3.59 1.03-25.7 6.24-53.4 1.64-76-11.7-8.54-5.5-16.4-11.8-24.1-18.5-0.591-0.509-1.18-1.02-1.79-1.54-1.13-0.978-2.25-1.96-3.37-2.96-3.11-2.81-3.11-2.81-7.17-3.35v350c109 0.0574 109 0.0574 217 0.0963 15.8 0.00408 31.5 0.00826 47.3 0.0127 1.91 5.4e-4 3.81 0.00108 5.72 0.00161 30.4 0.00853 60.7 0.0235 91.1 0.0419 31.2 0.0189 62.4 0.0312 93.7 0.0352 4.41 5.76e-4 8.83 0.00123 13.2 0.00192 0.869 1.35e-4 1.74 2.7e-4 2.63 4.09e-4 14 0.00236 27.9 0.0116 41.9 0.0235 14 0.0118 28.1 0.0163 42.1 0.0133 8.34-0.00152 16.7 0.00249 25 0.0146 6.24 0.00844 12.5 0.0063 18.7 2.03e-4 2.51-8.41e-4 5.03 0.00166 7.54 0.00797 43.6 0.103 81.3-8.22 113-39.8 79.2-80.6 37.4-271 37.4-336h-570z" fill="#047857"/>
<path transform="translate(1557 920)" d="m0 0c21.7 19.1 33.4 43.8 35.3 72.6 1.35 29.8-9.99 57.4-29.9 79.3-0.583 0.654-1.17 1.31-1.77 1.98-4.61 4.91-10 8.89-15.4 13-4.01 3.11-7.95 6.31-11.9 9.52-11.5 9.38-23.2 18.5-35 27.5-0.757 0.579-1.51 1.16-2.29 1.75-24.3 18.5-48.7 36.8-73.5 54.6-2.22 1.6-4.44 3.21-6.65 4.82-10.3 7.45-20.6 14.8-31.1 22-2.49 1.74-4.98 3.48-7.46 5.23-23 16.2-46.3 31.8-69.8 47.2-0.604 0.396-1.21 0.792-1.83 1.2-11.8 7.74-23.7 15.4-35.6 22.9-1.63 1.03-3.27 2.06-4.9 3.09-0.816 0.514-1.63 1.03-2.47 1.56-2.36 1.49-4.71 2.98-7.07 4.48-12.4 7.85-24.8 15.5-37.4 23.1-0.971 0.586-1.94 1.17-2.94 1.77-66.8 40.2-142 63.8-218 81.2-1.13 0.262-1.13 0.262-2.29 0.529-66.2 15.3-135 24.9-203 24.7-3.33-0.00899-6.67-0.00456-10 0.00689-20.2 0.0587-40.3-0.907-60.4-3.33-32.5-3.76-58.4 0.513-88.3 13.5-3.74 1.63-7.49 3.24-11.2 4.84-1.38 0.592-2.77 1.18-4.15 1.78-1.06 0.453-1.06 0.453-2.14 0.915-2.19 0.939-4.38 1.88-6.58 2.82-12.4 5.34-24.9 10.6-37.3 15.9-12.3 5.2-24.6 10.4-36.9 15.7-8.98 3.86-18 7.67-27 11.4-14.3 5.96-28.5 12-42.7 18.1-1.72 0.735-1.72 0.735-3.48 1.48-7.13 3.04-14.3 6.08-21.4 9.12-10.4 4.43-20.8 8.85-31.1 13.3-1.12 0.476-2.24 0.953-3.39 1.44-17.6 7.49-35.2 14.9-52.8 22.4-10.1 4.28-20.3 8.59-30.4 12.9-43.9 18.8-86.4 33.5-135 25.5-0.767-0.124-1.53-0.247-2.32-0.375-47.8-7.94-91.2-34-120-72.9-1.27-1.69-2.56-3.36-3.85-5.03-27.8-36.6-41-88.4-49.5-133-0.198-1.04-0.395-2.07-0.599-3.14-9.15-49.7-0.797-100 26.7-143 1.89-2.63 3.85-5.16 5.87-7.69 0.826-1.09 1.65-2.17 2.47-3.26 10.6-14 10.6-14 14.5-17.7h2l1-3c1.39-1.44 1.39-1.44 3.25-3l2.21-1.86c1.26-1.06 1.26-1.06 2.54-2.14 0.932-0.83 1.86-1.66 2.82-2.52 13-11.5 27.5-20.2 43.2-27.5 0.628-0.294 1.26-0.587 1.9-0.89 23.2-10.8 47.1-19.9 70.8-29.5 12.2-4.92 24.3-9.93 36.4-15 11.5-4.82 23.1-9.58 34.6-14.3 18.1-7.4 36.1-14.9 54.2-22.4 0.989-0.413 1.98-0.826 3-1.25 0.973-0.406 1.95-0.812 2.95-1.23 7.79-3.25 15.6-6.49 23.4-9.71 24.9-10.3 49.7-20.7 74.5-31 10.9-4.57 21.8-9.13 32.8-13.6 16.6-6.85 33.2-13.8 49.7-20.7 4.8-2.01 9.59-4.02 14.4-6.02 3.27-1.37 6.55-2.74 9.82-4.11 0.621-0.26 1.24-0.52 1.88-0.787 7.84-3.28 15.7-6.62 23.5-10 35.7-15.4 72.2-27.8 110-36.3 1.14-0.26 2.28-0.519 3.45-0.787 19-4.28 38.2-7.47 57.5-9.95 1.94-0.25 3.87-0.509 5.8-0.769 39.9-5.19 82.4-4.92 122 0.505 1.94 0.249 1.94 0.249 3.92 0.504 33.3 4.31 65 13.4 96.6 24.6 66.5 23.7 125 32 193 10.8 0.859-0.265 1.72-0.53 2.6-0.804 4.27-1.32 8.54-2.65 12.8-4.01 24.7-7.78 46.6-11.6 70.8 0.32 20.2 11.1 33 28.1 43 48.5 6.19-3.77 12.1-7.75 17.9-12.1 8.38-6.22 16.9-12.2 25.5-18.1 4.2-2.93 8.39-5.86 12.6-8.8 1.67-1.17 3.33-2.33 5-3.5 1.24-0.866 1.24-0.866 2.5-1.75 2.5-1.75 5-3.5 7.5-5.25 0.825-0.578 1.65-1.16 2.5-1.75 1.66-1.16 3.33-2.33 4.99-3.49 4.22-2.95 8.43-5.91 12.6-8.86 9.67-6.78 19.4-13.5 29.1-20.2 2.61-1.79 5.22-3.59 7.83-5.4 1.55-1.07 1.55-1.07 3.14-2.16 3.07-2.13 6.12-4.31 9.16-6.48 44.8-31.9 97.9-37 142 0.0312zm-122 30.4c-3.23 2.29-6.5 4.51-9.76 6.74-7.04 4.83-14 9.72-21 14.6-5.69 3.99-11.4 7.96-17.1 11.9-3.51 2.43-7.01 4.88-10.5 7.33-2.44 1.71-4.88 3.41-7.33 5.12-8.22 5.74-16.4 11.5-24.5 17.4-6.27 4.55-12.6 9-19 13.4-4.77 3.26-9.48 6.58-14.2 9.96-3.55 2.55-7.11 5.06-10.7 7.55-1.34 0.93-1.34 0.93-2.7 1.88-1.75 1.22-3.51 2.44-5.26 3.65-2.32 1.62-4.63 3.26-6.93 4.91-0.926 0.626-0.926 0.626-1.87 1.27-3.05 2.22-4.09 3.62-5.2 7.27-0.164 1.31-0.327 2.62-0.496 3.97-2.62 17.3-11 32.4-22.4 45.5-0.722 0.831-1.44 1.66-2.19 2.52-22.3 25.3-52.9 48.1-84.8 59.5-1.72 0.634-1.72 0.634-3.48 1.28-32.9 11.2-69.2 12.9-104 12.9-0.959 6.04e-5 -1.92 1.21e-4 -2.91 1.83e-4 -56.2-0.0502-56.2-0.0502-64.9-7.19-4.81-5.48-5.35-8.76-5.28-15.9 0.517-5.68 2.68-8.68 7.03-12.4 7.21-3.61 14.6-2.49 22.3-1.7 13.6 1.23 27.1 1.38 40.7 1.34 3.97-0.0108 7.93-4.62e-6 11.9 0.0127 18.7 0.0108 37.1-0.904 55.5-4.09 0.998-0.172 2-0.344 3.03-0.521 28.6-5.11 52.1-17.7 74.8-35.7 0.873-0.669 1.75-1.34 2.64-2.03 16.3-12.8 33-28.8 37.4-50 1.48-16.8-4.68-32.5-14.4-46-0.866-0.99-1.73-1.98-2.62-3h-2c-0.33-0.99-0.66-1.98-1-3-7.67-7.51-16.9-10.8-27.6-10.7-11.8 0.563-23.2 5.12-34.4 8.75-47.8 15.2-95.1 24.4-145 14-1.09-0.225-2.19-0.45-3.31-0.682-7.61-1.6-15.2-3.4-22.7-5.32-1.28-0.32-1.28-0.32-2.59-0.646-20-5.05-39.4-12.6-58.7-20-36.6-13.9-76.6-20.4-116-20.6-1.19-0.00697-2.39-0.0139-3.62-0.0211-3.84-0.0173-7.69-0.0237-11.5-0.0258-1.32-0.00101-2.63-0.00201-3.99-0.00305-21.1 0.00157-42 0.693-63 3.25-1.85 0.225-1.85 0.225-3.74 0.454-8.11 1.02-16.2 2.23-24.3 3.55-1.11 0.178-2.21 0.355-3.35 0.538-49.9 8.11-98.7 21.8-145 42.2-8.57 3.78-17.2 7.39-25.9 10.9-13 5.31-25.9 10.7-38.9 16.1-14 5.88-28.1 11.7-42.1 17.6-14.9 6.17-29.8 12.4-44.7 18.6-1.01 0.42-2.01 0.839-3.05 1.27-10.8 4.49-21.5 8.98-32.3 13.5-18 7.56-36.1 15.1-54.1 22.5-11.4 4.67-22.8 9.37-34.2 14.1-27.3 11.4-54.6 22.7-82 33.9-2.38 0.976-4.76 1.95-7.14 2.93-7.39 3.03-14.8 6.06-22.2 9.06-3.51 1.42-7.02 2.85-10.5 4.28-1.65 0.67-3.3 1.34-4.96 2-20.3 8.18-38.4 17.9-55.6 31.5l-2.88 2.18c-1.05 0.903-1.05 0.903-2.12 1.82v2l-1.71 0.711c-20.9 11.8-35.7 47.8-41.8 69.6-12.6 48.2 0.688 98.1 17.5 144 0.316 0.871 0.632 1.74 0.957 2.64 8.47 23.3 19 45 36 63.4 0.477 0.515 0.954 1.03 1.45 1.56 11.3 12.1 24.1 21.4 38.6 29.4 1.65 0.926 1.65 0.926 3.32 1.87 34.8 18.5 77.6 21.7 115 10.4 5.63-1.8 11.1-3.98 16.5-6.25 0.853-0.352 1.71-0.704 2.58-1.07 6.38-2.64 12.7-5.35 19.1-8.07 8.18-3.51 16.4-6.99 24.6-10.5 2.06-0.879 4.13-1.76 6.19-2.64 13.5-5.77 27.1-11.5 40.7-17.1 4.7-1.92 9.36-3.88 14-6.01 7.38-3.39 14.9-6.49 22.4-9.62 4.09-1.71 8.18-3.43 12.3-5.15 0.83-0.35 1.66-0.699 2.52-1.06 21.5-9.05 42.9-18.2 64.3-27.4 18.1-7.78 36.3-15.5 54.4-23.1 11.2-4.7 22.3-9.44 33.4-14.2 85.8-36.8 85.8-36.8 119-36.5 0.751 0.00332 1.5 0.00665 2.28 0.0101 11.4 0.0583 22.6 0.817 33.9 2.15 46.9 5.47 94.3 3.4 141-1.78 0.738-0.0804 1.48-0.161 2.24-0.244 87.4-9.54 176-30.2 337-106 4.34-2.78 8.73-5.47 13.1-8.13 9.46-5.74 18.8-11.7 28.1-17.7 3.93-2.53 7.87-5.04 11.8-7.54 24.6-15.6 48.7-32 72.8-48.4 1.54-1.04 3.07-2.09 4.61-3.13 15.8-10.7 31.3-21.7 46.8-32.9 3.17-2.29 6.35-4.57 9.54-6.83 14.1-10 27.9-20.4 41.8-30.8 2.02-1.52 4.04-3.03 6.06-4.54 7.29-5.45 14.6-10.9 21.8-16.5 2.11-1.63 4.23-3.26 6.34-4.88 7.39-5.67 14.7-11.4 22-17.2 1.73-1.36 3.46-2.71 5.19-4.07 8.38-6.55 16.7-13.2 24.9-19.9 1.38-1.13 2.77-2.25 4.16-3.37 13.4-11.2 22.3-26.6 24.5-44 1.09-13.7-0.561-26.7-7-39-0.459-0.923-0.918-1.85-1.39-2.8-9.27-17.4-24-27.5-42.6-33.2-0.757-0.247-1.51-0.495-2.29-0.75-24.6-6.86-47.3 5.48-66.7 19.3z" fill="#047857"/>
</svg>
