<svg width="14" height="14" viewBox="0 0 14 14" fill="none" xmlns="http://www.w3.org/2000/svg">
<g clip-path="url(#clip0_990_6956)">
<path d="M6.25439 1.6997H6.42807C8.89498 1.6997 11.362 1.69862 13.8292 1.69647C13.9646 1.69647 14.0045 1.7271 13.9997 1.86531C13.9884 2.18163 13.996 2.18204 13.6793 2.18204C11.3376 2.18204 8.99599 2.18298 6.65453 2.18486C6.54452 2.18486 6.48086 2.15867 6.43774 2.0547C6.39019 1.94026 6.32652 1.83308 6.25439 1.6997Z" fill="#07C189"/>
<path d="M4.23123 2.18204C2.83861 2.18204 1.46774 2.18204 0.0964714 2.18204C0.0255507 2.18365 0.0074175 2.1639 0.00459679 2.09177C-0.0103127 1.6997 -0.0123275 1.6997 0.383781 1.6997C1.53423 1.6997 2.68427 1.6997 3.83472 1.69647C3.94755 1.69647 4.00638 1.72951 4.0495 1.83025C4.09826 1.94389 4.16353 2.05108 4.23123 2.18204Z" fill="#07C189"/>
<path d="M7.86386 4.74083C7.67125 4.37816 7.48991 4.03404 7.30496 3.69112C7.29303 3.66986 7.28742 3.64564 7.28877 3.6213C7.29013 3.59696 7.2984 3.57351 7.31261 3.55371C7.45687 3.28507 7.59979 3.01562 7.74136 2.74537C7.7502 2.72009 7.76718 2.69845 7.78964 2.68387C7.81211 2.66928 7.83878 2.66257 7.86547 2.66478C8.22531 2.66841 8.58556 2.66478 8.96636 2.66478L7.86386 4.74083Z" fill="#07C189"/>
<path d="M5.22266 7.50549L6.1406 5.77277C6.33523 6.14026 6.51938 6.48923 6.70474 6.83658C6.71304 6.85158 6.71692 6.86863 6.71592 6.88575C6.71492 6.90287 6.70909 6.91935 6.6991 6.93329L6.09788 8.06157C5.88351 7.75452 5.60748 7.5611 5.22266 7.50549Z" fill="#07C189"/>
<path d="M8.55176 1.21734C8.77177 0.801485 8.97849 0.411421 9.19649 0C9.41288 0.324382 9.62282 0.633451 9.82632 0.946953C9.88031 1.03077 9.76184 1.21573 9.65909 1.21653C9.29804 1.21855 8.93779 1.21734 8.55176 1.21734Z" fill="#07C189"/>
<path d="M7.00038 3.11165C6.91616 2.95047 6.84685 2.82031 6.76465 2.66437C6.91012 2.66437 7.03705 2.66437 7.16398 2.66437C7.22926 2.66437 7.22926 2.68895 7.20428 2.73529L7.00038 3.11165Z" fill="#07C189"/>
<path d="M8.7126 7.37131C7.43119 4.95732 6.1514 2.54212 4.87321 0.12571C4.85427 0.0894438 4.83291 0.0539834 4.80511 0.00280762C4.60363 0.303818 4.41988 0.589919 4.22445 0.868363C4.16038 0.959432 4.16239 1.02471 4.21397 1.12142C5.10934 2.79988 6.0023 4.47981 6.89284 6.16123C7.22568 6.78823 7.55933 7.41483 7.90507 8.06481C8.09527 7.78556 8.331 7.60261 8.63685 7.53612C8.7674 7.50792 8.76821 7.47608 8.7126 7.37131ZM7.02018 5.558C6.76148 5.558 6.76148 5.558 6.76148 5.30413C6.76148 5.07566 6.76148 5.07566 6.98552 5.07566C7.24382 5.07566 7.24382 5.07566 7.24382 5.32992C7.24261 5.56082 7.24261 5.56082 7.01897 5.56082L7.02018 5.558Z" fill="#07C189"/>
<path d="M5.79561 10.4286C5.79561 9.85113 5.79843 9.27369 5.79561 8.69585C5.79689 8.60136 5.77944 8.50755 5.74428 8.41984C5.70911 8.33213 5.65692 8.25226 5.59072 8.18482C5.52453 8.11739 5.44563 8.06373 5.35859 8.02695C5.27154 7.99017 5.17808 7.97099 5.08358 7.97052C4.7322 7.96568 4.38042 7.96206 4.02904 7.97334C3.16993 8.00114 2.44138 8.72204 2.42566 9.58155C2.40995 10.4411 2.40914 11.299 2.42566 12.1569C2.44259 13.0031 3.16509 13.7151 4.00889 13.755C4.23859 13.7685 4.46861 13.7348 4.68481 13.6561C4.90102 13.5774 5.09884 13.4553 5.26611 13.2973C5.43339 13.1393 5.56658 12.9488 5.6575 12.7374C5.74842 12.526 5.79514 12.2983 5.7948 12.0682C5.80004 11.5246 5.79561 10.9758 5.79561 10.4286ZM5.31206 12.0404C5.31004 12.7383 4.78217 13.2775 4.106 13.2771C3.42984 13.2767 2.90438 12.7375 2.90156 12.04C2.90156 11.6483 2.90156 11.2566 2.90156 10.865C2.90156 10.4733 2.90156 10.0816 2.90156 9.68994C2.90478 8.99283 3.43145 8.45367 4.10762 8.45367C4.78378 8.45367 5.31045 8.99283 5.31246 9.69115C5.31488 10.4745 5.31488 11.2577 5.31246 12.0408L5.31206 12.0404Z" fill="#07C189"/>
<path d="M11.584 10.8702C11.584 10.4488 11.5925 10.0269 11.584 9.60536C11.574 9.21321 11.426 8.83716 11.1662 8.54331C10.9063 8.24947 10.5511 8.05665 10.1632 7.99876C9.72434 7.93469 9.28028 7.95847 8.84065 7.98184C8.4933 7.99957 8.21526 8.31347 8.21364 8.65961C8.20841 9.82819 8.19873 10.9996 8.21808 12.169C8.23218 13.0071 8.95751 13.7147 9.79526 13.7566C10.0249 13.7707 10.2549 13.7377 10.4713 13.6596C10.6877 13.5815 10.8859 13.46 11.0536 13.3026C11.2214 13.1452 11.3551 12.9551 11.4468 12.7441C11.5384 12.5331 11.5859 12.3055 11.5864 12.0755C11.5884 11.6737 11.584 11.272 11.584 10.8702ZM11.1004 12.0481C11.0964 12.7428 10.5637 13.2811 9.88713 13.2775C9.21782 13.2743 8.69155 12.7363 8.68954 12.0477C8.68712 11.2595 8.68712 10.4712 8.68954 9.68273C8.69196 8.98843 9.22547 8.45048 9.90245 8.4537C10.5718 8.45693 11.0964 8.99447 11.1004 9.68313C11.1029 10.08 11.1004 10.4766 11.1004 10.8731C11.1004 11.2696 11.1037 11.6564 11.1012 12.0485L11.1004 12.0481Z" fill="#07C189"/>
<path d="M4.8309 10.8573C4.8309 11.2486 4.8309 11.6403 4.8309 12.0316C4.8309 12.468 4.52264 12.7932 4.11202 12.7952C3.69536 12.7972 3.3867 12.4696 3.38428 12.0251C3.38428 11.2522 3.38428 10.4795 3.38428 9.7069C3.38428 9.26365 3.69375 8.93443 4.1096 8.93604C4.52546 8.93765 4.82888 9.26405 4.82969 9.71335C4.83103 10.0951 4.83144 10.4764 4.8309 10.8573Z" fill="#07C189"/>
<path d="M10.6193 10.8674C10.6193 11.2587 10.6193 11.65 10.6193 12.0412C10.6193 12.4736 10.3026 12.798 9.89035 12.7952C9.48739 12.7924 9.17389 12.4688 9.17308 12.0453C9.17147 11.2576 9.17147 10.47 9.17308 9.68232C9.17308 9.25961 9.4886 8.93684 9.89398 8.93604C10.2994 8.93523 10.6165 9.2584 10.6193 9.67829C10.6213 10.074 10.6193 10.4709 10.6193 10.8674Z" fill="#07C189"/>
</g>
<defs>
<clipPath id="clip0_990_6956">
<rect width="14" height="13.759" fill="white"/>
</clipPath>
</defs>
</svg>
