<svg width="18" height="15" viewBox="0 0 18 15" fill="none" xmlns="http://www.w3.org/2000/svg">
<g id="categories" clip-path="url(#clip0_990_7261)">
<path id="Vector" d="M3.13281 6.28322C2.59682 6.28322 2.06031 6.28636 1.52381 6.28322C0.621948 6.27694 0.0058788 5.66716 0.0058788 4.76844C0.000644567 3.68914 0.000644567 2.60984 0.0058788 1.53054C0.0100662 0.623974 0.6298 0.00737971 1.54056 0.00423917C2.60659 5.17865e-05 3.67281 5.17865e-05 4.73919 0.00423917C5.65675 0.00737971 6.2812 0.628685 6.28486 1.54415C6.28975 2.61019 6.28975 3.6764 6.28486 4.74279C6.2812 5.66454 5.66513 6.27851 4.74443 6.28375C4.20582 6.28532 3.66932 6.28322 3.13281 6.28322ZM3.13647 5.02701C3.66618 5.02701 4.19588 5.02701 4.72558 5.02701C4.96374 5.02701 5.02603 4.9642 5.02655 4.72342C5.02655 3.6703 5.02655 2.61734 5.02655 1.56456C5.02655 1.3285 4.95798 1.25993 4.72244 1.25941C3.67001 1.25941 2.61724 1.25941 1.56411 1.25941C1.32177 1.25941 1.25948 1.32065 1.25895 1.55828C1.25895 2.61769 1.25895 3.6771 1.25895 4.73651C1.25895 4.97571 1.3113 5.02596 1.54684 5.02649C2.07706 5.02806 2.60677 5.02701 3.13647 5.02701Z" fill="#676D75"/>
<path id="Vector_2" d="M0.00216274 11.508C0.00216274 10.9783 0.00216274 10.4481 0.00216274 9.91835C0.00739697 8.99398 0.615614 8.38681 1.5426 8.38419C2.60898 8.38105 3.6752 8.38105 4.74123 8.38419C5.66246 8.38681 6.27801 9.00183 6.28167 9.9241C6.28586 10.9901 6.28586 12.0564 6.28167 13.1227C6.27748 14.0382 5.65356 14.66 4.736 14.6632C3.66961 14.6674 2.6034 14.6674 1.53736 14.6632C0.618756 14.6595 0.00635013 14.0398 0.00216274 13.117C0.000592472 12.5805 0.00216274 12.0445 0.00216274 11.508ZM1.25838 11.5174C1.25838 12.0471 1.25838 12.5768 1.25838 13.1065C1.25838 13.3452 1.32119 13.407 1.56196 13.4075C2.61474 13.4075 3.66752 13.4075 4.7203 13.4075C4.95689 13.4075 5.02545 13.3389 5.02598 13.1034C5.02598 12.0509 5.02598 10.9982 5.02598 9.94504C5.02598 9.7027 4.96421 9.64041 4.72658 9.63988C3.66717 9.63988 2.60794 9.63988 1.54888 9.63988C1.30915 9.63988 1.25943 9.69223 1.2589 9.92829C1.25733 10.458 1.25838 10.9877 1.25838 11.5174Z" fill="#676D75"/>
<path id="Vector_3" d="M13.2023 10.4736C11.8163 10.4736 10.4305 10.4736 9.04479 10.4736C8.55644 10.4736 8.23977 10.0324 8.42245 9.60737C8.53394 9.34566 8.74226 9.21899 9.02595 9.21899C9.62719 9.21899 10.2286 9.21899 10.8302 9.21899C12.9877 9.21899 15.1451 9.21899 17.3023 9.21899C17.7111 9.21899 17.9906 9.465 17.999 9.82721C18.0079 10.2046 17.7294 10.4736 17.3185 10.4742C15.9849 10.4742 14.6514 10.4742 13.318 10.4742L13.2023 10.4736Z" fill="#676D75"/>
<path id="Vector_4" d="M13.1826 0.845858C14.562 0.845858 15.9412 0.845858 17.3202 0.845858C17.7044 0.845858 17.9719 1.07355 17.9975 1.41011C18.0152 1.56788 17.971 1.72635 17.8742 1.85224C17.7775 1.97813 17.6358 2.06167 17.4788 2.08532C17.4079 2.09668 17.3361 2.10176 17.2642 2.10051C14.5452 2.10051 11.8259 2.10051 9.10616 2.10051C8.73976 2.10051 8.50683 1.95342 8.41 1.67182C8.37824 1.58228 8.3676 1.48661 8.37888 1.39228C8.39016 1.29794 8.42307 1.20749 8.47504 1.12796C8.52701 1.04843 8.59665 0.981968 8.67852 0.933764C8.76039 0.88556 8.85228 0.856911 8.94703 0.850046C9.1161 0.838008 9.28674 0.84481 9.45633 0.84481L13.1826 0.845858Z" fill="#676D75"/>
<path id="Vector_5" d="M11.5146 5.44884H9.10056C8.66455 5.44884 8.37719 5.20126 8.37405 4.82544C8.37091 4.44963 8.65722 4.19315 9.08957 4.19263C10.7254 4.19263 12.3608 4.19263 13.9956 4.19263C14.3097 4.19263 14.5431 4.36536 14.6284 4.65062C14.6683 4.77621 14.6648 4.91153 14.6186 5.0349C14.5724 5.15828 14.4861 5.26257 14.3735 5.33107C14.2492 5.4006 14.1097 5.43853 13.9673 5.44151C13.1498 5.45408 12.3322 5.44884 11.5146 5.44884Z" fill="#676D75"/>
<path id="Vector_6" d="M11.5039 13.8194C10.6732 13.8194 9.84256 13.8251 9.01189 13.8194C8.53034 13.8152 8.23356 13.3483 8.43613 12.9296C8.56593 12.6631 8.7952 12.5673 9.07941 12.5679C9.98249 12.5679 10.8852 12.5679 11.7876 12.5679C12.5204 12.5679 13.2532 12.5679 13.986 12.5679C14.3095 12.5679 14.5366 12.7369 14.6251 13.0191C14.668 13.1442 14.6672 13.2802 14.6226 13.4048C14.5781 13.5294 14.4926 13.6351 14.3801 13.7047C14.2505 13.7774 14.1047 13.8161 13.9562 13.8173C13.1391 13.8278 12.321 13.8225 11.5034 13.8225L11.5039 13.8194Z" fill="#676D75"/>
</g>
<defs>
<clipPath id="clip0_990_7261">
<rect width="18" height="14.6668" fill="white"/>
</clipPath>
</defs>
</svg>
