<?xml version="1.0" encoding="UTF-8"?>
<!DOCTYPE svg PUBLIC "-//W3C//DTD SVG 1.1//EN" "http://www.w3.org/Graphics/SVG/1.1/DTD/svg11.dtd">
<svg xmlns="http://www.w3.org/2000/svg" version="1.1" width="512px" height="512px" style="shape-rendering:geometricPrecision; text-rendering:geometricPrecision; image-rendering:optimizeQuality; fill-rule:evenodd; clip-rule:evenodd" xmlns:xlink="http://www.w3.org/1999/xlink">
<g><path style="opacity:0.938" fill="#047857" d="M 511.5,450.5 C 511.5,460.167 511.5,469.833 511.5,479.5C 508.585,487.577 502.919,492.744 494.5,495C 335.167,495.667 175.833,495.667 16.5,495C 8.08137,492.744 2.4147,487.577 -0.5,479.5C -0.5,469.833 -0.5,460.167 -0.5,450.5C 3.75843,439.695 11.7584,434.362 23.5,434.5C 24.7427,374.823 26.4094,315.156 28.5,255.5C 28.3333,251.833 28.1667,248.167 28,244.5C 19.2335,239.133 15.4002,231.3 16.5,221C 15.4839,209.86 19.8173,201.693 29.5,196.5C 30.9605,170.174 31.7939,143.841 32,117.5C 11.6468,99.5841 6.14676,78.0841 15.5,53C 22.5753,49.8708 26.9086,52.0375 28.5,59.5C 23.1408,85.937 33.1408,103.437 58.5,112C 76.2928,114.741 90.4595,108.908 101,94.5C 112.785,71.0799 107.952,51.9133 86.5,37C 77.9571,32.8174 68.9571,31.4841 59.5,33C 52.2329,35.3046 45.2329,38.1379 38.5,41.5C 31.3343,40.4894 28.8343,36.4894 31,29.5C 46.0928,17.0119 63.2594,13.1786 82.5,18C 114.377,29.9083 127.543,52.7416 122,86.5C 120.29,93.7517 117.124,100.252 112.5,106C 129.602,118.939 148.602,128.272 169.5,134C 221.508,147.765 273.841,149.099 326.5,138C 350.144,132.839 372.144,123.839 392.5,111C 393.357,110.311 394.023,109.478 394.5,108.5C 377.062,84.0709 377.229,59.7376 395,35.5C 416.34,14.5534 440.506,10.7201 467.5,24C 492.223,41.3121 500.056,64.4787 491,93.5C 486.785,103.258 480.618,111.592 472.5,118.5C 473.495,144.48 474.661,170.48 476,196.5C 485.559,201.777 490.059,209.944 489.5,221C 489.66,231.182 485.493,239.015 477,244.5C 478.5,307.829 480.333,371.163 482.5,434.5C 496.535,432.343 506.202,437.677 511.5,450.5 Z M 430.5,32.5 C 455.248,30.7573 471.081,41.7573 478,65.5C 479.792,89.3674 469.292,104.867 446.5,112C 415.464,113.96 399.297,99.4596 398,68.5C 401.284,49.5493 412.117,37.5493 430.5,32.5 Z M 237.5,49.5 C 239.878,54.0872 242.545,58.5872 245.5,63C 249.09,64.5302 252.757,65.8635 256.5,67C 253.036,69.0465 249.37,70.7132 245.5,72C 242.44,76.1715 239.94,80.6715 238,85.5C 236.529,81.4189 234.862,77.4189 233,73.5C 228.884,71.4051 224.717,69.4051 220.5,67.5C 224.717,65.5949 228.884,63.5949 233,61.5C 234.998,57.6701 236.498,53.6701 237.5,49.5 Z M 101.5,119.5 C 137.12,143.209 176.454,156.709 219.5,160C 273.305,165.912 325.305,158.912 375.5,139C 385.234,134.72 394.4,129.553 403,123.5C 403.667,125.167 403.667,126.833 403,128.5C 391.528,140.643 378.361,150.477 363.5,158C 359.304,162.634 359.637,166.968 364.5,171C 366.695,172.373 369.029,172.706 371.5,172C 382.353,166.745 392.353,160.245 401.5,152.5C 402.946,155.822 402.446,158.822 400,161.5C 374.384,188.398 343.217,205.565 306.5,213C 249.911,225.219 196.245,217.553 145.5,190C 129.174,180.345 115.341,167.845 104,152.5C 103.018,151.241 102.685,149.908 103,148.5C 113.881,157.61 125.881,164.943 139,170.5C 146.761,168.104 148.595,163.27 144.5,156C 128.999,148.497 115.165,138.663 103,126.5C 102.338,124.187 101.838,121.854 101.5,119.5 Z M 456.5,125.5 C 457.596,148.357 458.596,171.357 459.5,194.5C 445.5,194.5 431.5,194.5 417.5,194.5C 418.308,171.838 418.975,149.172 419.5,126.5C 425.789,127.718 432.122,128.718 438.5,129.5C 444.838,129.106 450.838,127.772 456.5,125.5 Z M 48.5,126.5 C 60.3606,130.097 72.1939,130.097 84,126.5C 84.772,126.645 85.4387,126.978 86,127.5C 86.8528,149.827 87.3528,172.16 87.5,194.5C 73.8333,194.5 60.1667,194.5 46.5,194.5C 46.8533,171.821 47.52,149.154 48.5,126.5 Z M 103.5,177.5 C 133.881,206.19 169.881,224.023 211.5,231C 267.373,240.543 320.373,232.209 370.5,206C 381.467,199.598 391.634,192.098 401,183.5C 401.828,187.871 401.661,192.205 400.5,196.5C 390.933,201.633 386.599,209.633 387.5,220.5C 386.789,230.743 390.623,238.743 399,244.5C 399.167,249.5 399.333,254.5 399.5,259.5C 397.571,317.828 395.904,376.161 394.5,434.5C 336.166,434.333 277.832,434.5 219.5,435C 216.634,436.393 215.301,438.726 215.5,442C 215.408,444.814 216.408,447.147 218.5,449C 309.443,450.326 400.443,450.993 491.5,451C 493.333,451.5 494.5,452.667 495,454.5C 495.667,461.5 495.667,468.5 495,475.5C 494.5,477.333 493.333,478.5 491.5,479C 334.167,479.667 176.833,479.667 19.5,479C 17.6667,478.5 16.5,477.333 16,475.5C 15.3333,468.5 15.3333,461.5 16,454.5C 16.5,452.667 17.6667,451.5 19.5,451C 78.1667,450.667 136.833,450.333 195.5,450C 202.864,445.308 203.197,440.308 196.5,435C 168.169,434.5 139.835,434.333 111.5,434.5C 109.216,371.173 107.383,307.84 106,244.5C 114.638,238.893 118.805,230.893 118.5,220.5C 118.898,209.619 114.398,201.619 105,196.5C 103.812,190.222 103.312,183.888 103.5,177.5 Z M 37.5,210.5 C 57.5028,210.333 77.5028,210.5 97.5,211C 102.569,215.556 103.736,221.056 101,227.5C 100.097,228.701 98.9308,229.535 97.5,230C 77.1667,230.667 56.8333,230.667 36.5,230C 33.0801,227.847 31.7468,224.681 32.5,220.5C 31.5873,215.776 33.254,212.443 37.5,210.5 Z M 408.5,210.5 C 428.503,210.333 448.503,210.5 468.5,211C 473.083,214.35 474.583,218.85 473,224.5C 472.602,227.232 471.102,229.065 468.5,230C 448.167,230.667 427.833,230.667 407.5,230C 404.08,227.847 402.747,224.681 403.5,220.5C 402.587,215.776 404.254,212.443 408.5,210.5 Z M 44.5,246.5 C 59.5,246.5 74.5,246.5 89.5,246.5C 91.2263,309.195 93.2263,371.862 95.5,434.5C 76.8333,434.5 58.1667,434.5 39.5,434.5C 41.0883,371.831 42.755,309.165 44.5,246.5 Z M 415.5,246.5 C 430.5,246.5 445.5,246.5 460.5,246.5C 462.383,309.177 464.383,371.843 466.5,434.5C 447.833,434.5 429.167,434.5 410.5,434.5C 412.369,371.839 414.035,309.172 415.5,246.5 Z M 192.5,282.5 C 194.729,286.993 197.062,291.493 199.5,296C 203.581,297.471 207.581,299.138 211.5,301C 207.5,302.667 203.5,304.333 199.5,306C 196.959,310.275 194.792,314.775 193,319.5C 191.529,315.419 189.862,311.419 188,307.5C 183.897,304.573 179.397,302.407 174.5,301C 179.229,299.218 183.729,297.051 188,294.5C 190.002,290.658 191.502,286.658 192.5,282.5 Z M 305.5,299.5 C 306.497,299.47 307.164,299.97 307.5,301C 309.667,306.833 311.833,312.667 314,318.5C 314.785,320.286 315.951,321.786 317.5,323C 324.753,326.195 332.086,329.195 339.5,332C 332.247,335.195 324.914,338.195 317.5,341C 316.667,341.833 315.833,342.667 315,343.5C 312.262,350.55 309.429,357.55 306.5,364.5C 303.18,357.71 300.347,350.71 298,343.5C 297.167,342.667 296.333,341.833 295.5,341C 287.833,338 280.167,335 272.5,332C 280.325,329.392 287.991,326.392 295.5,323C 300.048,315.731 303.381,307.898 305.5,299.5 Z"/></g>
<g><path style="opacity:0.932" fill="#047857" d="M 235.5,17.5 C 239.192,16.9712 242.358,17.9712 245,20.5C 248.839,30.1752 252.672,39.8419 256.5,49.5C 266.206,53.2354 275.873,57.0687 285.5,61C 289.5,65.3333 289.5,69.6667 285.5,74C 275.833,77.8333 266.167,81.6667 256.5,85.5C 252.672,95.1581 248.839,104.825 245,114.5C 240.046,118.677 235.38,118.343 231,113.5C 227.47,104.577 224.137,95.5771 221,86.5C 211.381,81.9562 201.548,77.7895 191.5,74C 187.577,69.594 187.577,65.2606 191.5,61C 201.548,57.2105 211.381,53.0438 221,48.5C 224.137,39.4229 227.47,30.4229 231,21.5C 232.397,19.9297 233.897,18.5964 235.5,17.5 Z M 237.5,49.5 C 236.498,53.6701 234.998,57.6701 233,61.5C 228.884,63.5949 224.717,65.5949 220.5,67.5C 224.717,69.4051 228.884,71.4051 233,73.5C 234.862,77.4189 236.529,81.4189 238,85.5C 239.94,80.6715 242.44,76.1715 245.5,72C 249.37,70.7132 253.036,69.0465 256.5,67C 252.757,65.8635 249.09,64.5302 245.5,63C 242.545,58.5872 239.878,54.0872 237.5,49.5 Z"/></g>
<g><path style="opacity:0.933" fill="#047857" d="M 192.5,250.5 C 195.559,250.797 198.059,252.13 200,254.5C 203.704,264.072 207.537,273.572 211.5,283C 220.833,286.667 230.167,290.333 239.5,294C 244.833,298.667 244.833,303.333 239.5,308C 229.913,311.806 220.246,315.306 210.5,318.5C 207.577,328.351 204.077,338.018 200,347.5C 197.091,350.394 193.591,351.227 189.5,350C 187.185,348.891 185.685,347.057 185,344.5C 181.833,336.167 178.667,327.833 175.5,319.5C 166.987,315.716 158.32,312.216 149.5,309C 144.076,306.983 142.242,303.15 144,297.5C 144.465,296.069 145.299,294.903 146.5,294C 156.295,290.458 165.962,286.624 175.5,282.5C 178.844,272.635 182.677,262.968 187,253.5C 188.719,252.131 190.552,251.131 192.5,250.5 Z M 192.5,282.5 C 191.502,286.658 190.002,290.658 188,294.5C 183.729,297.051 179.229,299.218 174.5,301C 179.397,302.407 183.897,304.573 188,307.5C 189.862,311.419 191.529,315.419 193,319.5C 194.792,314.775 196.959,310.275 199.5,306C 203.5,304.333 207.5,302.667 211.5,301C 207.581,299.138 203.581,297.471 199.5,296C 197.062,291.493 194.729,286.993 192.5,282.5 Z"/></g>
<g><path style="opacity:0.931" fill="#047857" d="M 303.5,267.5 C 307.192,266.971 310.358,267.971 313,270.5C 318.216,283.988 323.716,297.322 329.5,310.5C 342.206,315.235 354.872,320.069 367.5,325C 372.684,329.708 372.684,334.375 367.5,339C 354.491,344.172 341.491,349.339 328.5,354.5C 323.431,367.54 318.265,380.54 313,393.5C 308.042,397.715 303.375,397.381 299,392.5C 294.444,379.723 289.611,367.056 284.5,354.5C 271.509,349.339 258.509,344.172 245.5,339C 240.167,334.333 240.167,329.667 245.5,325C 258.653,320.118 271.653,314.951 284.5,309.5C 289.294,297.951 293.794,286.284 298,274.5C 298.967,271.379 300.8,269.046 303.5,267.5 Z M 305.5,299.5 C 303.381,307.898 300.048,315.731 295.5,323C 287.991,326.392 280.325,329.392 272.5,332C 280.167,335 287.833,338 295.5,341C 296.333,341.833 297.167,342.667 298,343.5C 300.347,350.71 303.18,357.71 306.5,364.5C 309.429,357.55 312.262,350.55 315,343.5C 315.833,342.667 316.667,341.833 317.5,341C 324.914,338.195 332.247,335.195 339.5,332C 332.086,329.195 324.753,326.195 317.5,323C 315.951,321.786 314.785,320.286 314,318.5C 311.833,312.667 309.667,306.833 307.5,301C 307.164,299.97 306.497,299.47 305.5,299.5 Z"/></g>
</svg>
