<?xml version="1.0" encoding="UTF-8"?>
<!DOCTYPE svg PUBLIC "-//W3C//DTD SVG 1.1//EN" "http://www.w3.org/Graphics/SVG/1.1/DTD/svg11.dtd">
<svg xmlns="http://www.w3.org/2000/svg" version="1.1" width="512px" height="512px" style="shape-rendering:geometricPrecision; text-rendering:geometricPrecision; image-rendering:optimizeQuality; fill-rule:evenodd; clip-rule:evenodd" xmlns:xlink="http://www.w3.org/1999/xlink">
<g><path style="opacity:0.961" fill="#676D75" d="M 272.5,31.5 C 302.008,33.2952 329.675,41.4619 355.5,56C 424.264,96.4992 462.764,156.666 471,236.5C 472.218,254.97 471.218,273.304 468,291.5C 461.603,301.854 453.103,304.02 442.5,298C 438.068,294.209 436.068,289.376 436.5,283.5C 445.067,215.022 424.4,157.189 374.5,110C 345.121,84.6487 311.121,68.982 272.5,63C 261.842,56.3889 259.676,47.5556 266,36.5C 268.326,34.9343 270.492,33.2676 272.5,31.5 Z"/></g>
<g><path style="opacity:0.987" fill="#676D75" d="M 124.5,57.5 C 141.945,57.3071 156.112,63.9738 167,77.5C 176,92.1667 185,106.833 194,121.5C 205.949,145.944 202.116,167.444 182.5,186C 171.788,192.05 161.621,198.883 152,206.5C 150.664,209.009 149.83,211.676 149.5,214.5C 163.265,262.059 187.932,302.893 223.5,337C 227.262,339.156 231.262,339.823 235.5,339C 243.163,335.171 250.496,330.837 257.5,326C 281.528,312.59 303.362,315.424 323,334.5C 334.755,352.336 345.755,370.669 356,389.5C 363.67,415.984 355.836,436.484 332.5,451C 317.631,459.933 302.631,468.6 287.5,477C 275.394,480.543 263.394,480.209 251.5,476C 165.06,430.639 103.227,362.805 66,272.5C 46.2967,222.615 37.9634,170.949 41,117.5C 43.5178,107.625 48.6845,99.4586 56.5,93C 72.1667,83.3333 87.8333,73.6667 103.5,64C 110.292,60.7258 117.292,58.5591 124.5,57.5 Z"/></g>
<g><path style="opacity:0.96" fill="#676D75" d="M 264.5,94.5 C 319.349,100.829 360.515,127.829 388,175.5C 406.352,209.606 411.685,245.606 404,283.5C 394.287,294.157 384.62,294.157 375,283.5C 374.089,280.689 373.256,277.856 372.5,275C 379.446,219.114 359.78,175.448 313.5,144C 297.558,135.019 280.558,129.019 262.5,126C 252.777,120.158 250.277,111.991 255,101.5C 257.529,98.1151 260.696,95.7818 264.5,94.5 Z"/></g>
<g><path style="opacity:0.958" fill="#676D75" d="M 255.5,157.5 C 294.391,161.556 321.558,181.556 337,217.5C 343.459,234.71 345.125,252.377 342,270.5C 336.361,281.691 327.861,284.525 316.5,279C 309.529,271.594 307.529,262.927 310.5,253C 307.314,217.143 287.981,195.81 252.5,189C 241.617,181.79 239.951,172.79 247.5,162C 250.099,160.205 252.766,158.705 255.5,157.5 Z"/></g>
</svg>
