<svg width="24" height="24" viewBox="0 0 24 24" fill="none" xmlns="http://www.w3.org/2000/svg">
<path d="M11.9996 12.0001C13.2619 12.0001 14.2853 10.9768 14.2853 9.71443C14.2853 8.45206 13.2619 7.42871 11.9996 7.42871C10.7372 7.42871 9.71387 8.45206 9.71387 9.71443C9.71387 10.9768 10.7372 12.0001 11.9996 12.0001Z" stroke="#155145" stroke-width="1.1" stroke-linecap="round" stroke-linejoin="round"/>
<path d="M4 7.42857H5.14286V6.28571C5.14286 5.67951 5.38367 5.09812 5.81233 4.66947C6.24098 4.24082 6.82236 4 7.42857 4H16.5714C17.1776 4 17.759 4.24082 18.1877 4.66947C18.6163 5.09812 18.8571 5.67951 18.8571 6.28571V17.7143C18.8571 18.3205 18.6163 18.9019 18.1877 19.3305C17.759 19.7592 17.1776 20 16.5714 20H7.42857C6.82236 20 6.24098 19.7592 5.81233 19.3305C5.38367 18.9019 5.14286 18.3205 5.14286 17.7143V16.5714H4M4 12H5.14286M4 9.71429H5.14286M4 14.2857H5.14286" stroke="#155145" stroke-width="1.1" stroke-linecap="round" stroke-linejoin="round"/>
<path fill-rule="evenodd" clip-rule="evenodd" d="M15.4284 15.4286V14.2857C15.4284 13.6795 15.1876 13.0981 14.759 12.6695C14.3303 12.2408 13.7489 12 13.1427 12H10.857C10.2508 12 9.66941 12.2408 9.24076 12.6695C8.8121 13.0981 8.57129 13.6795 8.57129 14.2857V15.4286C8.57129 15.7317 8.6917 16.0224 8.90602 16.2367C9.12035 16.451 9.41104 16.5714 9.71415 16.5714H14.2856C14.5887 16.5714 14.8794 16.451 15.0937 16.2367C15.308 16.0224 15.4284 15.7317 15.4284 15.4286Z" stroke="#155145" stroke-width="1.1" stroke-linecap="round" stroke-linejoin="round"/>
</svg>
