<?xml version="1.0" encoding="UTF-8"?>
<!-- Generator: visioncortex VTracer 0.6.3 -->
<svg version="1.1" xmlns="http://www.w3.org/2000/svg" width="1280" height="1280">
<path d="M0 0 C1.62 -0.03 3.25 -0.05 4.88 -0.06 C5.78 -0.07 6.68 -0.09 7.62 -0.1 C10 0 10 0 12 1 C12 1.66 12 2.32 12 3 C12.66 3 13.32 3 14 3 C14 3.66 14 4.32 14 5 C14.99 5.33 15.98 5.66 17 6 C17 6.66 17 7.32 17 8 C17.59 8.27 18.18 8.54 18.78 8.82 C24.51 11.87 29.11 16.99 33.56 21.62 C35.16 23.23 35.16 23.23 38 25 C38 25.99 38 26.98 38 28 C38.99 28 39.98 28 41 28 C41 28.66 41 29.32 41 30 C41.66 30 42.32 30 43 30 C43 30.99 43 31.98 43 33 C43.99 33 44.98 33 46 33 C46 33.66 46 34.32 46 35 C46.99 35 47.98 35 49 35 C50.46 36.46 50.46 36.46 51.94 38.38 C54.1 41.18 55.84 42.46 59 44 C59.75 46.12 59.75 46.12 60 48 C60.59 48.09 61.19 48.18 61.8 48.27 C64.56 49.19 65.45 50.36 67.25 52.62 C70.31 56.29 73.57 59.37 77.2 62.46 C79.25 64.22 81.21 65.98 83 68 C83 68.66 83 69.32 83 70 C84.32 70.33 85.64 70.66 87 71 C87 71.66 87 72.32 87 73 C87.64 73.27 88.28 73.54 88.94 73.81 C91 75 91 75 92 78 C93.31 78.71 94.65 79.38 96 80 C99.94 83.02 103.55 86.44 107 90 C107.87 90.85 108.73 91.69 109.62 92.56 C112 95 112 95 114 98 C114.68 98.33 115.36 98.66 116.06 99 C118 100 118 100 119 103 C120.64 104.04 122.31 105.04 124 106 C125.6 107.27 127.16 108.59 128.69 109.94 C129.45 110.61 130.22 111.28 131.01 111.96 C132.91 113.91 133.96 115.51 135 118 C135.66 118 136.32 118 137 118 C137 118.66 137 119.32 137 120 C137.59 120.27 138.18 120.54 138.8 120.82 C140.97 121.98 142.49 123.18 144.28 124.86 C144.87 125.42 145.47 125.98 146.08 126.55 C146.7 127.13 147.31 127.71 147.94 128.31 C148.55 128.88 149.15 129.45 149.78 130.04 C152.51 132.6 155.2 135.18 157.82 137.86 C159.81 140.03 159.81 140.03 162 141 C162 141.66 162 142.32 162 143 C162.59 143.28 163.18 143.55 163.79 143.84 C169.79 147 174.19 152.17 178.42 157.36 C180.01 159.26 180.01 159.26 183 160 C183 160.99 183 161.98 183 163 C183.99 163 184.98 163 186 163 C187.69 164.38 187.69 164.38 189 166 C189 166.66 189 167.32 189 168 C189.66 168 190.32 168 191 168 C191 168.66 191 169.32 191 170 C191.66 170 192.32 170 193 170 C193.33 170.99 193.66 171.98 194 173 C195.64 174.04 197.31 175.04 199 176 C200.6 177.27 202.16 178.59 203.69 179.94 C204.45 180.61 205.22 181.28 206.01 181.96 C208 184 208 184 209.02 186.19 C209.34 186.79 209.67 187.39 210 188 C211.32 188.37 212.66 188.7 214 189 C215.46 190.45 215.46 190.45 216.81 192.25 C218.88 194.82 220.82 196.73 223.56 198.56 C227.12 200.95 229.47 203.55 232 207 C232 207.66 232 208.32 232 209 C234.47 209.99 234.47 209.99 237 211 C237 211.66 237 212.32 237 213 C237.96 213.4 237.96 213.4 238.94 213.81 C241 215 241 215 242 218 C242.58 218.29 243.15 218.58 243.75 218.88 C246.77 220.39 248.64 222.59 251 225 C253 226.67 255 228.34 257 230 C258.33 231.33 259.67 232.67 261 234 C261.66 234.33 262.32 234.66 263 235 C263 235.99 263 236.98 263 238 C263.99 238 264.98 238 266 238 C266 238.66 266 239.32 266 240 C266.66 240 267.32 240 268 240 C268.33 240.99 268.66 241.98 269 243 C270.66 244.01 272.33 245.01 274 246 C276.78 248.21 279.53 250.45 282 253 C282 253.66 282 254.32 282 255 C282.99 255.33 283.98 255.66 285 256 C285 256.66 285 257.32 285 258 C285.56 258.06 286.11 258.12 286.69 258.19 C289.98 259.34 291.6 261.48 294 264 C295.14 264.97 296.28 265.93 297.44 266.88 C301 269.89 304.31 273.17 307 277 C307 277.66 307 278.32 307 279 C308.65 279.66 310.3 280.32 312 281 C312 281.66 312 282.32 312 283 C312.56 283.23 313.12 283.46 313.7 283.7 C316.61 285.34 318.56 287.41 320.88 289.81 C325.15 294.18 329.39 298.14 334.38 301.69 C334.91 302.12 335.45 302.55 336 303 C336 303.66 336 304.32 336 305 C336.66 305 337.32 305 338 305 C338 305.99 338 306.98 338 308 C338.62 308.08 339.24 308.17 339.88 308.25 C342.69 309.24 342.7 310.4 344 313 C345.64 314.05 347.31 315.04 349 316 C351.13 317.57 353.03 319.22 355 321 C355 321.66 355 322.32 355 323 C356.32 323.33 357.64 323.66 359 324 C359.33 325.32 359.66 326.64 360 328 C360.56 328.06 361.11 328.12 361.69 328.19 C364.98 329.34 366.6 331.48 369 334 C370.2 335.01 371.41 336.01 372.62 337 C375.48 339.39 377.14 341.75 379 345 C379.99 345.33 380.98 345.66 382 346 C382 346.66 382 347.32 382 348 C382.66 348 383.32 348 384 348 C385.62 349.38 385.62 349.38 387 351 C387 351.66 387 352.32 387 353 C387.84 353.34 387.84 353.34 388.69 353.69 C391.65 355.37 393.62 357.56 396 360 C397.18 361.03 398.37 362.05 399.56 363.06 C402.17 365.27 404.62 367.54 407 370 C409.72 372.88 409.72 372.88 413 375 C413 375.99 413 376.98 413 378 C413.99 378 414.98 378 416 378 C417.71 379.62 419.37 381.3 421 383 C422.8 384.52 424.61 386 426.45 387.47 C428.17 389.17 429.04 390.79 430 393 C430.66 393 431.32 393 432 393 C432 393.66 432 394.32 432 395 C432.99 395.33 433.98 395.66 435 396 C435 396.66 435 397.32 435 398 C435.58 398.08 436.15 398.17 436.75 398.25 C440.25 399.42 442.37 401.73 444 405 C445.65 404.67 447.3 404.34 449 404 C449 403.67 449 403.34 449 403 C451.97 402.67 454.94 402.34 458 402 C458 401.34 458 400.68 458 400 C459.46 399.81 460.92 399.62 462.38 399.44 C463.19 399.33 464 399.23 464.84 399.12 C467 399 467 399 469 400 C469 399.34 469 398.68 469 398 C471.64 397.67 474.28 397.34 477 397 C477 396.34 477 395.68 477 395 C479.97 394.67 482.94 394.34 486 394 C486 393.67 486 393.34 486 393 C486.64 392.95 487.28 392.9 487.93 392.85 C489.17 392.74 489.17 392.74 490.44 392.62 C491.26 392.56 492.08 392.49 492.93 392.41 C493.62 392.28 494.3 392.14 495 392 C495.33 391.34 495.66 390.68 496 390 C498.07 389.66 498.07 389.66 500.69 389.5 C504.75 389.18 508.18 388.49 512 387 C512.99 386.67 513.98 386.34 515 386 C515 385.67 515 385.34 515 385 C517.64 384.67 520.28 384.34 523 384 C523 383.67 523 383.34 523 383 C526.3 382.67 529.6 382.34 533 382 C533 381.34 533 380.68 533 380 C533.71 379.94 534.42 379.88 535.15 379.82 C536.07 379.73 536.99 379.65 537.94 379.56 C538.85 379.48 539.77 379.4 540.71 379.32 C542.96 379.24 542.96 379.24 544 378 C546.33 377.63 548.66 377.3 551 377 C551 376.34 551 375.68 551 375 C553.05 374.77 555.1 374.54 557.15 374.32 C559.01 374.18 559.01 374.18 560 373 C561.68 372.77 563.37 372.59 565.06 372.44 C565.98 372.35 566.9 372.27 567.85 372.18 C568.56 372.12 569.27 372.06 570 372 C570 371.34 570 370.68 570 370 C572.97 369.67 575.94 369.34 579 369 C579 368.67 579 368.34 579 368 C579.64 367.95 580.28 367.9 580.93 367.85 C582.17 367.74 582.17 367.74 583.44 367.62 C584.26 367.56 585.08 367.49 585.93 367.41 C586.62 367.28 587.3 367.14 588 367 C588.33 366.34 588.66 365.68 589 365 C591.07 364.59 591.07 364.59 593.56 364.38 C594.8 364.26 594.8 364.26 596.07 364.15 C596.7 364.1 597.34 364.05 598 364 C598 363.67 598 363.34 598 363 C599.28 362.88 600.56 362.75 601.88 362.62 C605.35 362.31 605.35 362.31 608 360 C610.66 359.43 613.29 359.26 616 359 C616 358.67 616 358.34 616 358 C616.71 357.95 617.42 357.9 618.15 357.85 C619.07 357.78 619.99 357.7 620.94 357.62 C621.85 357.56 622.77 357.49 623.71 357.41 C624.47 357.28 625.22 357.14 626 357 C626.33 356.34 626.66 355.68 627 355 C629.33 354.63 631.66 354.29 634 354 C634.33 353.67 634.66 353.34 635 353 C637.03 352.77 639.06 352.55 641.09 352.38 C643.23 352.14 643.23 352.14 645 350 C647.16 349.59 647.16 349.59 649.62 349.38 C650.44 349.3 651.26 349.23 652.1 349.15 C652.73 349.1 653.35 349.05 654 349 C654 348.67 654 348.34 654 348 C656.97 347.67 659.94 347.34 663 347 C663 346.34 663 345.68 663 345 C664.46 344.81 665.92 344.62 667.38 344.44 C668.19 344.33 669 344.23 669.84 344.12 C672 344 672 344 674 345 C674 344.34 674 343.68 674 343 C677.08 342.71 677.08 342.71 680.15 342.41 C680.76 342.28 681.37 342.14 682 342 C682.33 341.34 682.66 340.68 683 340 C685.65 339.41 688.29 339.26 691 339 C691 338.67 691 338.34 691 338 C694.3 337.67 697.6 337.34 701 337 C701 336.34 701 335.68 701 335 C701.65 334.95 702.3 334.9 702.98 334.85 C707.94 334.43 712.32 333.83 717 332 C717.99 331.67 718.98 331.34 720 331 C720 330.67 720 330.34 720 330 C722.64 329.67 725.28 329.34 728 329 C728 328.67 728 328.34 728 328 C731.3 327.67 734.6 327.34 738 327 C738 326.34 738 325.68 738 325 C738.65 324.95 739.3 324.9 739.98 324.85 C744.94 324.43 749.32 323.83 754 322 C754.99 321.67 755.98 321.34 757 321 C757 320.67 757 320.34 757 320 C758.13 319.86 759.27 319.71 760.44 319.56 C763.81 319.39 763.81 319.39 765 318 C767.58 317.72 770.16 317.55 772.75 317.38 C773.49 317.25 774.23 317.13 775 317 C775.33 316.34 775.66 315.68 776 315 C778.72 314.59 778.72 314.59 782.06 314.38 C783.72 314.26 783.72 314.26 785.41 314.15 C786.26 314.1 787.12 314.05 788 314 C788 313.67 788 313.34 788 313 C792.03 312.92 796.07 312.87 800.1 312.84 C801.47 312.82 802.84 312.8 804.2 312.77 C816.05 312.55 826.71 313.98 837.75 318.44 C838.81 318.86 839.88 319.29 840.97 319.73 C859.18 327.37 859.18 327.37 862 333 C862.72 333.42 863.43 333.83 864.17 334.26 C878.25 342.92 886.89 358.15 893 373 C893.3 373.71 893.59 374.42 893.9 375.14 C895.59 379.39 896.68 383.63 897.57 388.12 C897.94 390.08 897.94 390.08 899 392 C899.11 394.52 899.16 397.01 899.17 399.53 C899.17 400.27 899.17 401.02 899.18 401.78 C899.18 403.36 899.19 404.94 899.19 406.51 C899.19 408.92 899.21 411.34 899.22 413.75 C899.23 415.28 899.23 416.81 899.23 418.34 C899.24 419.42 899.24 419.42 899.25 420.53 C899.24 424.24 899.12 425.82 897 429 C896.47 430.94 896.47 430.94 896.12 433.06 C894.43 441.24 890.83 448.63 887 456 C886.42 457.15 885.85 458.31 885.25 459.5 C884.84 460.33 884.42 461.15 884 462 C883.34 462 882.68 462 882 462 C881.59 462.87 881.59 462.87 881.18 463.75 C878.16 469.51 873.84 474.7 869 479 C868.34 479 867.68 479 867 479 C866.77 479.6 866.55 480.2 866.31 480.81 C864.64 483.59 862.83 484.48 860 486 C859.01 486.66 858.02 487.32 857 488 C856.01 488 855.02 488 854 488 C853.67 488.99 853.34 489.98 853 491 C848.76 493.84 843.83 495.46 839 497 C837.87 497.52 836.73 498.03 835.56 498.56 C831.97 500.01 828.82 500.49 825 501 C824.01 501.66 823.02 502.32 822 503 C820.34 503.37 818.67 503.7 817 504 C815.2 504.49 813.41 504.99 811.62 505.5 C807.42 506.67 803.32 507.38 799 508 C798.36 508.32 797.73 508.64 797.07 508.97 C794.95 510.03 793.14 510.49 790.81 510.94 C787.56 511.61 784.5 512.46 781.38 513.56 C777.6 514.88 773.96 515.46 770 516 C769.34 516.33 768.68 516.66 768 517 C766 518 766 518 762.75 518.44 C759.76 518.89 757.78 519.39 755.06 520.5 C752.25 521.63 749.76 522.26 746.75 522.56 C743.34 522.96 741.91 523.46 739 525 C735.01 526.11 731.29 526.96 727.19 527.5 C723.85 527.79 723.85 527.79 721 530 C718.67 530.74 716.37 531.39 714 532 C713.05 532.25 712.1 532.5 711.12 532.76 C702.22 535.05 702.22 535.05 697.94 535.56 C694.82 535.81 694.82 535.81 692 538 C689.96 538.2 689.96 538.2 687.81 538.12 C686.55 538.08 685.3 538.04 684 538 C684 538.66 684 539.32 684 540 C679.88 541.1 675.93 542.07 671.69 542.5 C667.92 542.74 667.92 542.74 665 545 C662.99 545.48 660.97 545.95 658.95 546.37 C655.18 547.18 651.43 548.08 647.69 549 C646.65 549.25 646.65 549.25 645.59 549.5 C641.69 550.46 641.69 550.46 638.02 552.03 C634.23 553.85 629.89 554.18 625.76 554.86 C622.24 555.46 620.02 555.99 617 558 C615.34 558.37 613.67 558.7 612 559 C610.23 559.49 608.46 559.99 606.69 560.5 C603.28 561.45 600.02 562.2 596.5 562.56 C592.89 562.75 592.89 562.75 590 565 C588.05 565.53 588.05 565.53 585.88 565.94 C582.6 566.61 579.52 567.45 576.38 568.56 C572.6 569.88 568.96 570.46 565 571 C564.34 571.33 563.68 571.66 563 572 C560.12 573.44 557.17 573.58 554 574 C553.67 574.33 553.34 574.66 553 575 C551 575.23 549.01 575.45 547.01 575.62 C544.69 575.92 544.69 575.92 542 578 C540.34 578.37 538.67 578.7 537 579 C535.2 579.49 533.41 579.99 531.62 580.5 C528.51 581.37 525.66 582.04 522.44 582.44 C519.35 582.94 517.16 583.68 514.31 584.88 C507.49 587.73 500.34 589.65 493 590.56 C490.08 590.83 490.08 590.83 488 592 C486 593 486 593 482.75 593.44 C479.76 593.89 477.78 594.39 475.06 595.5 C472.23 596.64 469.72 597.26 466.69 597.56 C462.92 597.73 462.92 597.73 460 600 C457.98 600.6 457.98 600.6 455.75 601.06 C454.96 601.23 454.17 601.4 453.35 601.57 C451.29 601.95 449.21 602.23 447.12 602.5 C443.85 602.8 443.85 602.8 441 605 C438.67 605.74 436.37 606.39 434 607 C433.05 607.25 432.1 607.5 431.12 607.76 C422.22 610.05 422.22 610.05 417.94 610.56 C414.82 610.81 414.82 610.81 412 613 C409.96 613.2 409.96 613.2 407.81 613.12 C406.55 613.08 405.3 613.04 404 613 C404 613.66 404 614.32 404 615 C399.88 616.1 395.93 617.07 391.69 617.5 C387.92 617.74 387.92 617.74 385 620 C382.99 620.48 380.97 620.95 378.95 621.37 C375.18 622.18 371.43 623.08 367.69 624 C366.65 624.25 366.65 624.25 365.59 624.5 C361.69 625.46 361.69 625.46 358.02 627.03 C354.23 628.85 349.89 629.18 345.76 629.86 C342.24 630.46 340.02 630.99 337 633 C335.34 633.37 333.67 633.7 332 634 C330.23 634.49 328.46 634.99 326.69 635.5 C323.28 636.45 320.02 637.2 316.5 637.56 C312.89 637.75 312.89 637.75 310 640 C308.05 640.53 308.05 640.53 305.88 640.94 C302.6 641.61 299.52 642.45 296.38 643.56 C292.6 644.88 288.96 645.46 285 646 C284.34 646.33 283.68 646.66 283 647 C281 648 281 648 277.75 648.44 C274.76 648.89 272.78 649.39 270.06 650.5 C267.25 651.63 264.76 652.26 261.75 652.56 C258.34 652.96 256.91 653.46 254 655 C250.01 656.11 246.29 656.96 242.19 657.5 C238.85 657.79 238.85 657.79 236 660 C233.67 660.74 231.37 661.39 229 662 C228.05 662.25 227.1 662.5 226.12 662.76 C217.22 665.05 217.22 665.05 212.94 665.56 C209.82 665.81 209.82 665.81 207 668 C205.06 668.23 203.12 668.46 201.18 668.65 C198.93 669.01 197.1 669.64 195 670.5 C192.19 671.65 189.71 672.26 186.69 672.56 C182.92 672.73 182.92 672.73 180 675 C177.98 675.6 177.98 675.6 175.75 676.06 C174.96 676.23 174.17 676.4 173.35 676.57 C171.29 676.95 169.21 677.23 167.12 677.5 C163.85 677.8 163.85 677.8 161 680 C158.67 680.74 156.37 681.39 154 682 C153.05 682.25 152.1 682.5 151.12 682.76 C142.22 685.05 142.22 685.05 137.94 685.56 C134.82 685.81 134.82 685.81 132 688 C130.34 688.37 128.67 688.7 127 689 C125.23 689.49 123.46 689.99 121.69 690.5 C118.28 691.45 115.02 692.2 111.5 692.56 C107.89 692.75 107.89 692.75 105 695 C103.05 695.53 103.05 695.53 100.88 695.94 C97.6 696.61 94.52 697.45 91.38 698.56 C87.6 699.88 83.96 700.46 80 701 C79.34 701.33 78.68 701.66 78 702 C75.12 703.44 72.17 703.58 69 704 C68.67 704.33 68.34 704.66 68 705 C66 705.23 64.01 705.45 62.01 705.62 C59.69 705.92 59.69 705.92 57 708 C55.34 708.37 53.67 708.7 52 709 C50.2 709.49 48.41 709.99 46.62 710.5 C43.41 711.4 40.31 712.17 37 712.56 C33.83 712.81 33.83 712.81 31 715 C28.67 715.74 26.37 716.39 24 717 C23.05 717.25 22.1 717.5 21.12 717.76 C12.22 720.05 12.22 720.05 7.94 720.56 C4.82 720.81 4.82 720.81 2 723 C0.06 723.23 -1.88 723.46 -3.82 723.65 C-6.07 724.01 -7.9 724.64 -10 725.5 C-12.81 726.65 -15.29 727.26 -18.31 727.56 C-22.08 727.73 -22.08 727.73 -25 730 C-27.02 730.6 -27.02 730.6 -29.25 731.06 C-30.04 731.23 -30.83 731.4 -31.65 731.57 C-33.71 731.95 -35.79 732.23 -37.88 732.5 C-41.15 732.8 -41.15 732.8 -44 735 C-46.33 735.74 -48.63 736.39 -51 737 C-51.95 737.25 -52.9 737.5 -53.88 737.76 C-62.78 740.05 -62.78 740.05 -67.06 740.56 C-70.18 740.81 -70.18 740.81 -73 743 C-74.66 743.37 -76.33 743.7 -78 744 C-79.77 744.49 -81.54 744.99 -83.31 745.5 C-86.72 746.45 -89.98 747.2 -93.5 747.56 C-97.11 747.75 -97.11 747.75 -100 750 C-101.95 750.53 -101.95 750.53 -104.12 750.94 C-107.4 751.61 -110.48 752.45 -113.62 753.56 C-117.4 754.88 -121.04 755.46 -125 756 C-125.66 756.33 -126.32 756.66 -127 757 C-129.88 758.44 -132.83 758.58 -136 759 C-136.33 759.33 -136.66 759.66 -137 760 C-139 760.23 -140.99 760.45 -142.99 760.62 C-145.31 760.92 -145.31 760.92 -148 763 C-149.66 763.37 -151.33 763.7 -153 764 C-154.8 764.49 -156.59 764.99 -158.38 765.5 C-161.49 766.37 -164.34 767.04 -167.56 767.44 C-170.65 767.94 -172.84 768.68 -175.69 769.88 C-183.55 773.17 -191.59 774.8 -200 776 C-201.68 776.63 -203.35 777.3 -205 778 C-209.78 779.59 -213.96 780.76 -219 780 C-221.7 776.88 -223 775.17 -223 771 C-223.66 771 -224.32 771 -225 771 C-225.08 770.22 -225.16 769.43 -225.25 768.62 C-225.5 767.76 -225.75 766.89 -226 766 C-226.64 765.69 -227.28 765.38 -227.94 765.06 C-230 764 -230 764 -230.82 761.47 C-232.32 757.06 -234.58 753.39 -237 749.44 C-239.68 745.03 -242.18 740.84 -244 736 C-244.47 735.53 -244.95 735.05 -245.44 734.56 C-247.65 732.35 -248.64 729.82 -250 727 C-250.82 725.45 -251.66 723.91 -252.5 722.38 C-253.1 721.27 -253.1 721.27 -253.72 720.15 C-254.95 717.99 -254.95 717.99 -256.47 716.09 C-258.32 713.57 -259.59 710.94 -260.94 708.12 C-263.05 703.82 -265.24 699.91 -268 696 C-269.01 694.34 -270.01 692.67 -271 691 C-271.46 690.24 -271.92 689.49 -272.4 688.71 C-274.6 684.99 -276.59 681.16 -278.6 677.33 C-279.79 674.88 -279.79 674.88 -282 674 C-282.12 673.42 -282.25 672.85 -282.38 672.25 C-282.88 669.8 -282.88 669.8 -285 667.69 C-287.42 664.44 -287.69 661.99 -288 658 C-288.99 657.67 -289.98 657.34 -291 657 C-292.82 654.16 -292.82 654.16 -294.69 650.62 C-295.62 648.88 -295.62 648.88 -296.57 647.1 C-298 644 -298 644 -298 641 C-298.66 641 -299.32 641 -300 641 C-300.27 640.24 -300.54 639.47 -300.81 638.69 C-301.78 636.04 -301.78 636.04 -303.42 634.64 C-305.35 632.64 -306.31 630.63 -307.5 628.12 C-308.85 625.32 -310.2 622.67 -311.81 620 C-313 618 -313 618 -313 616 C-313.66 615.67 -314.32 615.34 -315 615 C-319 608.65 -319 608.65 -319 605 C-319.66 605 -320.32 605 -321 605 C-321.84 603.3 -321.84 603.3 -322.69 601.56 C-326.59 593.54 -326.59 593.54 -331.47 586.1 C-333.31 583.57 -334.58 580.95 -335.94 578.12 C-338.05 573.82 -340.24 569.91 -343 566 C-344.01 564.34 -345.01 562.67 -346 561 C-346.47 560.22 -346.95 559.43 -347.44 558.62 C-347.95 557.76 -348.47 556.89 -349 556 C-349.53 555.13 -349.53 555.13 -350.08 554.23 C-353 549.34 -353 549.34 -353 546 C-353.66 546 -354.32 546 -355 546 C-355.25 545.48 -355.51 544.96 -355.77 544.43 C-357.31 541.3 -358.83 538.26 -360.69 535.31 C-362.08 532.85 -362.6 530.79 -363 528 C-363.99 527.67 -364.98 527.34 -366 527 C-367.57 524.67 -367.57 524.67 -369.12 521.75 C-369.64 520.8 -370.16 519.84 -370.7 518.86 C-371.91 516.19 -372.57 513.89 -373 511 C-373.66 511 -374.32 511 -375 511 C-375.29 510.2 -375.58 509.39 -375.88 508.56 C-376.73 505.87 -376.73 505.87 -379 505 C-381.21 501.69 -381.18 498.91 -381 495 C-378.69 494.67 -376.38 494.34 -374 494 C-374 493.67 -374 493.34 -374 493 C-371.03 492.67 -368.06 492.34 -365 492 C-365 491.34 -365 490.68 -365 490 C-362.03 489.67 -359.06 489.34 -356 489 C-356 488.67 -356 488.34 -356 488 C-355.36 487.95 -354.72 487.9 -354.07 487.85 C-352.83 487.74 -352.83 487.74 -351.56 487.62 C-350.74 487.56 -349.92 487.49 -349.07 487.41 C-348.38 487.28 -347.7 487.14 -347 487 C-346.67 486.34 -346.34 485.68 -346 485 C-338.59 483.71 -338.59 483.71 -336 485 C-336 484.34 -336 483.68 -336 483 C-333.36 482.67 -330.72 482.34 -328 482 C-328 481.34 -328 480.68 -328 480 C-325.03 479.67 -322.06 479.34 -319 479 C-319 478.67 -319 478.34 -319 478 C-315.7 477.67 -312.4 477.34 -309 477 C-309 476.34 -309 475.68 -309 475 C-308.29 474.94 -307.58 474.88 -306.85 474.82 C-305.47 474.69 -305.47 474.69 -304.06 474.56 C-303.15 474.48 -302.23 474.4 -301.29 474.32 C-299.04 474.24 -299.04 474.24 -298 473 C-294.03 471.83 -290.51 471.19 -286.77 473.2 C-285.42 474.25 -284.1 475.33 -282.82 476.46 C-281.06 478.09 -281.06 478.09 -278.83 479.01 C-277 480 -277 480 -276 483 C-273 484.71 -273 484.71 -270 486 C-270 486.66 -270 487.32 -270 488 C-269.34 488.19 -268.68 488.37 -268 488.56 C-264.34 490.32 -261.81 492.68 -258.87 495.44 C-256.98 497.21 -256.98 497.21 -254 498 C-252.65 499.31 -251.31 500.65 -250 502 C-249.34 502.33 -248.68 502.66 -248 503 C-248 503.66 -248 504.32 -248 505 C-247.22 505.27 -246.43 505.54 -245.62 505.81 C-243 507 -243 507 -241 510 C-240.01 510.33 -239.02 510.66 -238 511 C-238 511.66 -238 512.32 -238 513 C-236.68 513 -235.36 513 -234 513 C-234 513.99 -234 514.98 -234 516 C-233.34 516 -232.68 516 -232 516 C-232 516.66 -232 517.32 -232 518 C-231.01 518 -230.02 518 -229 518 C-227.67 519.33 -226.33 520.67 -225 522 C-223.42 522.77 -223.42 522.77 -221.81 523.56 C-219 525 -219 525 -218 528 C-216.3 528.71 -216.3 528.71 -214.56 529.44 C-211 531 -211 531 -209.56 533.19 C-209.38 533.79 -209.19 534.38 -209 535 C-208.34 535 -207.68 535 -207 535 C-206.67 535.99 -206.34 536.98 -206 538 C-203 539.71 -203 539.71 -200 541 C-200 541.66 -200 542.32 -200 543 C-199.03 543.27 -198.06 543.54 -197.06 543.81 C-195.55 544.4 -195.55 544.4 -194 545 C-193.67 545.99 -193.34 546.98 -193 548 C-190.72 549.54 -188.44 550.8 -185.94 551.94 C-183.52 553.26 -181.91 555.03 -180 557 C-179.34 557.33 -178.68 557.66 -178 558 C-178 558.66 -178 559.32 -178 560 C-177.22 560.08 -176.43 560.16 -175.62 560.25 C-173 561 -173 561 -171.88 563 C-171.59 563.66 -171.3 564.32 -171 565 C-170.01 565.33 -169.02 565.66 -168 566 C-168 566.66 -168 567.32 -168 568 C-167.01 567.67 -166.02 567.34 -165 567 C-163.61 566.93 -162.21 566.91 -160.81 566.94 C-159.55 566.96 -158.3 566.98 -157 567 C-157 566.34 -157 565.68 -157 565 C-156.29 564.94 -155.58 564.88 -154.85 564.82 C-153.93 564.73 -153.01 564.65 -152.06 564.56 C-151.15 564.48 -150.23 564.4 -149.29 564.32 C-147.04 564.24 -147.04 564.24 -146 563 C-144.84 562.86 -143.69 562.71 -142.5 562.56 C-141.34 562.38 -140.19 562.19 -139 562 C-138.67 561.34 -138.34 560.68 -138 560 C-135.93 559.59 -135.93 559.59 -133.44 559.38 C-132.61 559.3 -131.78 559.23 -130.93 559.15 C-130.3 559.1 -129.66 559.05 -129 559 C-129 558.67 -129 558.34 -129 558 C-126.03 557.67 -123.06 557.34 -120 557 C-120 556.34 -120 555.68 -120 555 C-117.03 554.67 -114.06 554.34 -111 554 C-111 553.67 -111 553.34 -111 553 C-107.7 552.67 -104.4 552.34 -101 552 C-101 551.34 -101 550.68 -101 550 C-98.03 549.67 -95.06 549.34 -92 549 C-92 548.67 -92 548.34 -92 548 C-90.08 547.81 -90.08 547.81 -88.12 547.62 C-84.65 547.31 -84.65 547.31 -82 545 C-79.62 544.8 -79.62 544.8 -76.88 544.88 C-75.96 544.89 -75.05 544.91 -74.12 544.93 C-73.07 544.96 -73.07 544.96 -72 545 C-72 544.34 -72 543.68 -72 543 C-69.36 542.67 -66.72 542.34 -64 542 C-64 541.34 -64 540.68 -64 540 C-60.7 539.67 -57.4 539.34 -54 539 C-54 538.67 -54 538.34 -54 538 C-51.03 537.67 -48.06 537.34 -45 537 C-45 536.34 -45 535.68 -45 535 C-42.03 534.67 -39.06 534.34 -36 534 C-36 533.67 -36 533.34 -36 533 C-35.36 532.95 -34.72 532.9 -34.07 532.85 C-33.24 532.78 -32.41 532.7 -31.56 532.62 C-30.74 532.56 -29.92 532.49 -29.07 532.41 C-28.38 532.28 -27.7 532.14 -27 532 C-26.67 531.34 -26.34 530.68 -26 530 C-23.93 529.59 -23.93 529.59 -21.44 529.38 C-20.61 529.3 -19.78 529.23 -18.93 529.15 C-18.3 529.1 -17.66 529.05 -17 529 C-17 528.67 -17 528.34 -17 528 C-15.08 527.81 -15.08 527.81 -13.12 527.62 C-9.65 527.31 -9.65 527.31 -7 525 C-4.34 524.43 -1.71 524.26 1 524 C1 523.67 1 523.34 1 523 C4.3 522.67 7.6 522.34 11 522 C11 521.34 11 520.68 11 520 C13.05 519.77 15.1 519.54 17.15 519.32 C19.01 519.18 19.01 519.18 20 518 C22.03 517.77 24.06 517.55 26.09 517.38 C28.23 517.14 28.23 517.14 30 515 C32.16 514.59 32.16 514.59 34.62 514.38 C35.44 514.3 36.26 514.23 37.1 514.15 C37.73 514.1 38.35 514.05 39 514 C39 513.67 39 513.34 39 513 C41.97 512.67 44.94 512.34 48 512 C48 511.34 48 510.68 48 510 C49.46 509.81 50.92 509.62 52.38 509.44 C53.19 509.33 54 509.23 54.84 509.12 C57 509 57 509 59 510 C59 509.34 59 508.68 59 508 C62.08 507.71 62.08 507.71 65.15 507.41 C65.76 507.28 66.37 507.14 67 507 C67.33 506.34 67.66 505.68 68 505 C70.65 504.41 73.29 504.26 76 504 C76 503.67 76 503.34 76 503 C79.3 502.67 82.6 502.34 86 502 C86 501.34 86 500.68 86 500 C86.65 499.95 87.3 499.9 87.98 499.85 C92.94 499.43 97.32 498.83 102 497 C102.99 496.67 103.98 496.34 105 496 C105 495.67 105 495.34 105 495 C107.97 494.67 110.94 494.34 114 494 C114 493.67 114 493.34 114 493 C114.64 492.95 115.28 492.9 115.93 492.85 C117.17 492.74 117.17 492.74 118.44 492.62 C119.26 492.56 120.08 492.49 120.93 492.41 C121.62 492.28 122.3 492.14 123 492 C123.33 491.34 123.66 490.68 124 490 C126.03 489.62 126.03 489.62 128.5 489.44 C131.55 489.42 131.55 489.42 134 488 C135.15 487.86 136.31 487.71 137.5 487.56 C138.65 487.38 139.81 487.19 141 487 C141.33 486.34 141.66 485.68 142 485 C142.99 484.67 143.98 484.34 145 484 C144.34 483.67 143.68 483.34 143 483 C142.59 480.68 142.26 478.34 142 476 C141.34 476 140.68 476 140 476 C139.75 475.31 139.49 474.63 139.23 473.92 C138.89 473.02 138.54 472.12 138.19 471.19 C137.85 470.29 137.51 469.4 137.17 468.48 C136.02 466.04 134.94 464.81 133 463 C131.97 461.02 130.97 459.02 130 457 C129.01 455.33 128.01 453.66 127 452 C126.67 451.3 126.34 450.6 126 449.88 C125.09 447.94 125.09 447.94 123.5 446.56 C122 445 122 445 121.16 442.85 C119.45 438.66 117.07 434.87 114.75 431 C112 426.32 112 426.32 112 423 C111.01 422.67 110.02 422.34 109 422 C107.18 419.16 107.18 419.16 105.31 415.62 C104.38 413.88 104.38 413.88 103.43 412.1 C102 409 102 409 102 406 C101.34 406 100.68 406 100 406 C99.75 405.46 99.49 404.91 99.23 404.36 C98.89 403.64 98.54 402.92 98.19 402.19 C97.85 401.48 97.51 400.77 97.17 400.04 C96.13 397.98 96.13 397.98 94.55 396.68 C92.67 394.64 91.84 392.45 90.81 389.9 C89.46 386.75 87.73 383.83 86 380.88 C85.66 380.28 85.31 379.69 84.96 379.07 C83.01 375.7 81.01 372.34 79 369 C77.81 366.98 76.62 364.96 75.44 362.94 C74.54 361.4 74.54 361.4 73.62 359.84 C72 357 72 357 70.91 354.69 C70.11 352.81 70.11 352.81 68 352 C67.37 348.94 67.37 348.94 67 346 C66.34 346 65.68 346 65 346 C64.75 345.31 64.49 344.63 64.23 343.92 C63.89 343.02 63.54 342.12 63.19 341.19 C62.85 340.29 62.51 339.4 62.17 338.48 C61.02 336.04 59.94 334.81 58 333 C56.97 331.02 55.97 329.02 55 327 C54.01 325.33 53.01 323.66 52 322 C51.67 321.3 51.34 320.6 51 319.88 C50.09 317.94 50.09 317.94 48.5 316.56 C47 315 47 315 46.16 312.85 C44.45 308.66 42.07 304.87 39.75 301 C37 296.32 37 296.32 37 293 C36.01 292.67 35.02 292.34 34 292 C32.18 289.16 32.18 289.16 30.31 285.62 C29.38 283.88 29.38 283.88 28.43 282.1 C27 279 27 279 27 276 C26.34 276 25.68 276 25 276 C24.75 275.46 24.49 274.91 24.23 274.36 C23.89 273.64 23.54 272.92 23.19 272.19 C22.85 271.48 22.51 270.77 22.17 270.04 C21.13 267.98 21.13 267.98 19.55 266.68 C17.67 264.64 16.84 262.45 15.81 259.9 C14.46 256.75 12.73 253.83 11 250.88 C10.66 250.28 10.31 249.69 9.96 249.07 C8.01 245.7 6.01 242.34 4 239 C2.81 236.98 1.62 234.96 0.44 232.94 C-0.16 231.92 -0.76 230.89 -1.38 229.84 C-3 227 -3 227 -4.09 224.69 C-4.89 222.81 -4.89 222.81 -7 222 C-7.62 218.94 -7.62 218.94 -8 216 C-8.66 216 -9.32 216 -10 216 C-10.25 215.31 -10.51 214.63 -10.77 213.92 C-11.11 213.02 -11.46 212.12 -11.81 211.19 C-12.15 210.29 -12.49 209.4 -12.83 208.48 C-13.98 206.04 -15.06 204.81 -17 203 C-18.03 201.02 -19.03 199.02 -20 197 C-20.99 195.33 -21.99 193.66 -23 192 C-23.33 191.3 -23.66 190.6 -24 189.88 C-24.91 187.94 -24.91 187.94 -26.5 186.56 C-28 185 -28 185 -28.84 182.85 C-30.55 178.66 -32.93 174.87 -35.25 171 C-38 166.32 -38 166.32 -38 163 C-38.99 162.67 -39.98 162.34 -41 162 C-42.82 159.16 -42.82 159.16 -44.69 155.62 C-45.31 154.46 -45.93 153.3 -46.57 152.1 C-48 149 -48 149 -48 146 C-48.66 146 -49.32 146 -50 146 C-50.25 145.46 -50.51 144.91 -50.77 144.36 C-51.11 143.64 -51.46 142.92 -51.81 142.19 C-52.15 141.48 -52.49 140.77 -52.83 140.04 C-53.87 137.98 -53.87 137.98 -55.45 136.68 C-57.33 134.64 -58.16 132.45 -59.19 129.9 C-60.54 126.75 -62.27 123.83 -64 120.88 C-64.34 120.28 -64.69 119.69 -65.04 119.07 C-66.99 115.7 -68.99 112.34 -71 109 C-72.19 106.98 -73.38 104.96 -74.56 102.94 C-75.46 101.4 -75.46 101.4 -76.38 99.84 C-78 97 -78 97 -79.09 94.69 C-79.89 92.81 -79.89 92.81 -82 92 C-82.33 90 -82.67 88 -83 86 C-83.66 85.67 -84.32 85.34 -85 85 C-86.09 82.78 -86.98 80.52 -87.9 78.23 C-89.02 75.96 -90.19 74.72 -92 73 C-93.03 71.02 -94.03 69.02 -95 67 C-95.99 65.33 -96.99 63.66 -98 62 C-98.33 61.3 -98.66 60.6 -99 59.88 C-99.91 57.94 -99.91 57.94 -101.5 56.56 C-103 55 -103 55 -103.83 52.84 C-105.55 48.67 -107.96 44.91 -110.34 41.08 C-113.05 36.54 -113.05 36.54 -112.8 33.69 C-112.21 32.45 -111.61 31.22 -111 30 C-108.97 29.62 -108.97 29.62 -106.5 29.44 C-103.45 29.42 -103.45 29.42 -101 28 C-99.85 27.86 -98.69 27.71 -97.5 27.56 C-96.35 27.38 -95.19 27.19 -94 27 C-93.67 26.34 -93.34 25.68 -93 25 C-90.67 24.63 -88.34 24.29 -86 24 C-85.67 23.67 -85.34 23.34 -85 23 C-83.32 22.77 -81.63 22.59 -79.94 22.44 C-79.02 22.35 -78.1 22.27 -77.15 22.18 C-76.44 22.12 -75.73 22.06 -75 22 C-75 21.34 -75 20.68 -75 20 C-72.03 19.67 -69.06 19.34 -66 19 C-66 18.67 -66 18.34 -66 18 C-65.36 17.95 -64.72 17.9 -64.07 17.85 C-63.24 17.78 -62.41 17.7 -61.56 17.62 C-60.74 17.56 -59.92 17.49 -59.07 17.41 C-58.38 17.28 -57.7 17.14 -57 17 C-56.67 16.34 -56.34 15.68 -56 15 C-53.93 14.59 -53.93 14.59 -51.44 14.38 C-50.2 14.26 -50.2 14.26 -48.93 14.15 C-48.3 14.1 -47.66 14.05 -47 14 C-47 13.67 -47 13.34 -47 13 C-45.72 12.88 -44.44 12.75 -43.12 12.62 C-39.65 12.31 -39.65 12.31 -37 10 C-34.34 9.43 -31.71 9.26 -29 9 C-29 8.67 -29 8.34 -29 8 C-25.7 7.67 -22.4 7.34 -19 7 C-19 6.34 -19 5.68 -19 5 C-18.35 4.95 -17.7 4.9 -17.02 4.85 C-12.06 4.43 -7.68 3.83 -3 2 C-1.51 1.5 -1.51 1.5 0 1 C0 0.67 0 0.34 0 0 Z " fill="#047857" transform="translate(381,89)"/>
<path d="M0 0 C0.84 -0 1.67 -0.01 2.54 -0.01 C5.34 -0.02 8.14 -0.01 10.94 -0 C12.98 -0.01 15.01 -0.01 17.05 -0.01 C22.67 -0.02 28.29 -0.02 33.91 -0.01 C40.02 -0.01 46.12 -0.01 52.23 -0.02 C62.94 -0.03 73.64 -0.03 84.35 -0.03 C95.84 -0.02 107.33 -0.02 118.82 -0.03 C119.91 -0.03 119.91 -0.03 121.02 -0.03 C123.97 -0.03 126.93 -0.03 129.88 -0.03 C159.89 -0.05 189.89 -0.05 219.9 -0.05 C224.04 -0.05 228.19 -0.05 232.33 -0.05 C233.57 -0.05 233.57 -0.05 234.83 -0.05 C253.07 -0.05 271.31 -0.05 289.56 -0.05 C293.72 -0.06 297.89 -0.06 302.05 -0.06 C303.72 -0.06 305.4 -0.06 307.07 -0.06 C308.31 -0.06 308.31 -0.06 309.58 -0.06 C311.25 -0.06 312.93 -0.06 314.6 -0.06 C362.16 -0.07 409.71 -0.07 457.26 -0.07 C458.14 -0.07 459.02 -0.07 459.93 -0.07 C469.75 -0.07 479.57 -0.07 489.39 -0.06 C490.72 -0.06 490.72 -0.06 492.07 -0.06 C499.44 -0.06 499.44 -0.06 502.83 -0.06 C559.56 -0.06 616.29 -0.07 673.03 -0.08 C687.33 -0.09 701.62 -0.09 715.92 -0.1 C716.8 -0.1 717.68 -0.1 718.59 -0.1 C745.71 -0.11 772.84 -0.11 799.96 -0.11 C800.81 -0.11 801.66 -0.11 802.54 -0.11 C821.22 -0.11 839.9 -0.11 858.58 -0.11 C865.27 -0.11 871.95 -0.11 878.63 -0.11 C880.3 -0.11 881.96 -0.11 883.62 -0.11 C910.15 -0.11 936.67 -0.12 963.19 -0.13 C990.64 -0.14 1018.08 -0.14 1045.52 -0.13 C1048.46 -0.13 1051.41 -0.13 1054.35 -0.12 C1055.07 -0.12 1055.8 -0.12 1056.54 -0.12 C1068 -0.12 1079.47 -0.12 1090.93 -0.13 C1102.19 -0.14 1113.44 -0.14 1124.7 -0.13 C1130.73 -0.12 1136.75 -0.12 1142.78 -0.13 C1148.26 -0.14 1153.73 -0.14 1159.2 -0.13 C1161.18 -0.12 1163.16 -0.13 1165.13 -0.13 C1167.8 -0.14 1170.47 -0.14 1173.14 -0.12 C1174.3 -0.13 1174.3 -0.13 1175.48 -0.15 C1178.68 -0.11 1180.91 0.06 1183.73 1.63 C1185.85 3.88 1185.75 5.29 1185.74 8.35 C1185.75 9.41 1185.76 10.46 1185.77 11.55 C1185.75 12.7 1185.74 13.86 1185.73 15.05 C1185.73 16.88 1185.73 16.88 1185.73 18.74 C1185.74 22.08 1185.72 25.42 1185.7 28.76 C1185.67 32.26 1185.67 35.75 1185.67 39.24 C1185.67 45.1 1185.64 50.97 1185.61 56.83 C1185.57 64.36 1185.56 71.9 1185.55 79.43 C1185.54 85.9 1185.52 92.37 1185.5 98.84 C1185.49 100.92 1185.49 103 1185.48 105.09 C1185.47 108.96 1185.45 112.84 1185.43 116.71 C1185.43 117.87 1185.43 119.03 1185.43 120.23 C1185.42 121.28 1185.41 122.33 1185.4 123.41 C1185.4 124.32 1185.4 125.24 1185.39 126.19 C1185.26 128.25 1185.26 128.25 1184.26 129.25 C1181.64 129.35 1179.05 129.38 1176.44 129.38 C1175.6 129.38 1174.77 129.38 1173.91 129.38 C1171.07 129.38 1168.23 129.38 1165.39 129.37 C1163.34 129.38 1161.3 129.38 1159.25 129.38 C1153.57 129.38 1147.89 129.38 1142.21 129.37 C1136.05 129.37 1129.89 129.37 1123.73 129.37 C1112.91 129.38 1102.1 129.38 1091.29 129.37 C1079.68 129.37 1068.07 129.36 1056.46 129.36 C1055.36 129.36 1055.36 129.36 1054.24 129.37 C1050.51 129.37 1046.78 129.37 1043.05 129.37 C1016 129.37 988.96 129.36 961.92 129.36 C935.12 129.35 908.33 129.35 881.54 129.35 C880.3 129.35 880.3 129.35 879.02 129.35 C871.43 129.35 863.84 129.35 856.25 129.35 C837.37 129.35 818.49 129.34 799.62 129.34 C798.33 129.34 798.33 129.34 797.01 129.34 C755.17 129.34 713.33 129.33 671.49 129.33 C656.96 129.32 642.44 129.32 627.91 129.32 C627.01 129.32 626.11 129.32 625.18 129.32 C583.33 129.31 541.47 129.31 499.61 129.31 C496.9 129.31 494.18 129.31 491.46 129.31 C473.46 129.31 455.46 129.3 437.46 129.3 C401.63 129.3 365.81 129.3 329.99 129.29 C328.28 129.29 326.58 129.29 324.87 129.29 C248.05 129.29 171.22 129.28 94.4 129.27 C93.68 129.27 92.96 129.27 92.22 129.27 C56.23 129.26 20.24 129.26 -15.74 129.25 C-17.48 125.98 -17.99 123.83 -17.98 120.1 C-17.99 119.06 -17.99 118.02 -17.99 116.95 C-17.99 115.81 -17.98 114.68 -17.97 113.51 C-17.97 111.71 -17.97 111.71 -17.97 109.87 C-17.97 106.58 -17.96 103.3 -17.95 100.01 C-17.93 96.57 -17.93 93.14 -17.93 89.7 C-17.92 83.19 -17.91 76.69 -17.89 70.18 C-17.87 62.77 -17.85 55.37 -17.84 47.96 C-17.82 32.72 -17.79 17.49 -17.74 2.25 C-11.74 0.7 -6.19 -0.04 0 0 Z " fill="#047857" transform="translate(56.743498623371124,1061.7481510043144)"/>
<path d="M0 0 C1.98 0 3.96 0 6 0 C6 0.33 6 0.66 6 1 C4.02 1 2.04 1 0 1 C0 0.67 0 0.34 0 0 Z " fill="#047857" transform="translate(42,1061)"/>
<path d="M0 0 C3 1 3 1 3 1 Z " fill="#FDFDFD" transform="translate(236,850)"/>
<path d="M0 0 C3 1 3 1 3 1 Z " fill="#FDFDFD" transform="translate(441,795)"/>
<path d="M0 0 C3 1 3 1 3 1 Z " fill="#FDFDFD" transform="translate(926,665)"/>
<path d="M0 0 C2 1 2 1 2 1 Z " fill="#FDFDFD" transform="translate(181,865)"/>
<path d="M0 0 C2 1 2 1 2 1 Z " fill="#FDFDFD" transform="translate(274,840)"/>
<path d="M0 0 C2 1 2 1 2 1 Z " fill="#FDFDFD" transform="translate(311,830)"/>
<path d="M0 0 C2 1 2 1 2 1 Z " fill="#FDFDFD" transform="translate(349,820)"/>
<path d="M0 0 C2 1 2 1 2 1 Z " fill="#FDFDFD" transform="translate(386,810)"/>
<path d="M0 0 C2 1 2 1 2 1 Z " fill="#FDFDFD" transform="translate(479,785)"/>
<path d="M0 0 C2 1 2 1 2 1 Z " fill="#FDFDFD" transform="translate(516,775)"/>
<path d="M0 0 C2 1 2 1 2 1 Z " fill="#FDFDFD" transform="translate(554,765)"/>
<path d="M0 0 C2 1 2 1 2 1 Z " fill="#FDFDFD" transform="translate(591,755)"/>
<path d="M0 0 C2 1 2 1 2 1 Z " fill="#FDFDFD" transform="translate(684,730)"/>
<path d="M0 0 C2 1 2 1 2 1 Z " fill="#FDFDFD" transform="translate(721,720)"/>
<path d="M0 0 C2 1 2 1 2 1 Z " fill="#FDFDFD" transform="translate(759,710)"/>
<path d="M0 0 C2 1 2 1 2 1 Z " fill="#FDFDFD" transform="translate(796,700)"/>
<path d="M0 0 C2 1 2 1 2 1 Z " fill="#FDFDFD" transform="translate(871,680)"/>
<path d="M0 0 C2 1 2 1 2 1 Z " fill="#FDFDFD" transform="translate(964,655)"/>
<path d="M0 0 C2 1 2 1 2 1 Z " fill="#FDFDFD" transform="translate(1001,645)"/>
<path d="M0 0 C2 1 2 1 2 1 Z " fill="#FDFDFD" transform="translate(1039,635)"/>
<path d="M0 0 C2 1 2 1 2 1 Z " fill="#FDFDFD" transform="translate(1076,625)"/>
<path d="M0 0 C2 1 2 1 2 1 Z " fill="#FDFDFD" transform="translate(1169,600)"/>
<path d="M0 0 C2 1 2 1 2 1 Z " fill="#FDFDFD" transform="translate(1206,590)"/>
<path d="M0 0 C2 1 2 1 2 1 Z " fill="#047857" transform="translate(87,560)"/>
<path d="" fill="#047857" transform="translate(0,0)"/>
<path d="" fill="#FDFDFD" transform="translate(0,0)"/>
<path d="" fill="#FDFDFD" transform="translate(0,0)"/>
<path d="" fill="#FDFDFD" transform="translate(0,0)"/>
<path d="" fill="#047857" transform="translate(0,0)"/>
<path d="" fill="#047857" transform="translate(0,0)"/>
<path d="" fill="#FDFDFD" transform="translate(0,0)"/>
<path d="" fill="#FDFDFD" transform="translate(0,0)"/>
<path d="" fill="#FDFDFD" transform="translate(0,0)"/>
<path d="" fill="#FDFDFD" transform="translate(0,0)"/>
<path d="" fill="#FDFDFD" transform="translate(0,0)"/>
<path d="" fill="#FDFDFD" transform="translate(0,0)"/>
<path d="" fill="#FDFDFD" transform="translate(0,0)"/>
<path d="" fill="#047857" transform="translate(0,0)"/>
<path d="" fill="#FDFDFD" transform="translate(0,0)"/>
<path d="" fill="#047857" transform="translate(0,0)"/>
<path d="" fill="#FDFDFD" transform="translate(0,0)"/>
<path d="" fill="#FDFDFD" transform="translate(0,0)"/>
<path d="" fill="#FDFDFD" transform="translate(0,0)"/>
<path d="" fill="#FDFDFD" transform="translate(0,0)"/>
<path d="" fill="#FDFDFD" transform="translate(0,0)"/>
<path d="" fill="#FDFDFD" transform="translate(0,0)"/>
<path d="" fill="#FDFDFD" transform="translate(0,0)"/>
<path d="" fill="#FDFDFD" transform="translate(0,0)"/>
<path d="" fill="#FDFDFD" transform="translate(0,0)"/>
<path d="" fill="#FDFDFD" transform="translate(0,0)"/>
<path d="" fill="#FDFDFD" transform="translate(0,0)"/>
<path d="" fill="#FDFDFD" transform="translate(0,0)"/>
<path d="" fill="#FDFDFD" transform="translate(0,0)"/>
<path d="" fill="#FDFDFD" transform="translate(0,0)"/>
<path d="" fill="#047857" transform="translate(0,0)"/>
<path d="" fill="#FDFDFD" transform="translate(0,0)"/>
<path d="" fill="#FDFDFD" transform="translate(0,0)"/>
<path d="" fill="#FDFDFD" transform="translate(0,0)"/>
<path d="" fill="#FDFDFD" transform="translate(0,0)"/>
<path d="" fill="#FDFDFD" transform="translate(0,0)"/>
<path d="" fill="#047857" transform="translate(0,0)"/>
<path d="" fill="#FDFDFD" transform="translate(0,0)"/>
<path d="" fill="#FDFDFD" transform="translate(0,0)"/>
<path d="" fill="#047857" transform="translate(0,0)"/>
<path d="" fill="#FDFDFD" transform="translate(0,0)"/>
<path d="" fill="#047857" transform="translate(0,0)"/>
<path d="" fill="#FDFDFD" transform="translate(0,0)"/>
<path d="" fill="#FDFDFD" transform="translate(0,0)"/>
<path d="" fill="#FDFDFD" transform="translate(0,0)"/>
<path d="" fill="#FDFDFD" transform="translate(0,0)"/>
<path d="" fill="#047857" transform="translate(0,0)"/>
<path d="" fill="#FDFDFD" transform="translate(0,0)"/>
<path d="" fill="#FDFDFD" transform="translate(0,0)"/>
<path d="" fill="#FDFDFD" transform="translate(0,0)"/>
<path d="" fill="#FDFDFD" transform="translate(0,0)"/>
<path d="" fill="#FDFDFD" transform="translate(0,0)"/>
<path d="" fill="#047857" transform="translate(0,0)"/>
<path d="" fill="#047857" transform="translate(0,0)"/>
<path d="" fill="#FDFDFD" transform="translate(0,0)"/>
<path d="" fill="#FDFDFD" transform="translate(0,0)"/>
<path d="" fill="#FDFDFD" transform="translate(0,0)"/>
<path d="" fill="#047857" transform="translate(0,0)"/>
<path d="" fill="#FDFDFD" transform="translate(0,0)"/>
<path d="" fill="#FDFDFD" transform="translate(0,0)"/>
<path d="" fill="#FDFDFD" transform="translate(0,0)"/>
<path d="" fill="#047857" transform="translate(0,0)"/>
<path d="" fill="#FDFDFD" transform="translate(0,0)"/>
<path d="" fill="#FDFDFD" transform="translate(0,0)"/>
<path d="" fill="#FDFDFD" transform="translate(0,0)"/>
<path d="" fill="#FDFDFD" transform="translate(0,0)"/>
<path d="" fill="#FDFDFD" transform="translate(0,0)"/>
<path d="" fill="#FDFDFD" transform="translate(0,0)"/>
<path d="" fill="#FDFDFD" transform="translate(0,0)"/>
<path d="" fill="#047857" transform="translate(0,0)"/>
<path d="" fill="#FDFDFD" transform="translate(0,0)"/>
<path d="" fill="#FDFDFD" transform="translate(0,0)"/>
<path d="" fill="#FDFDFD" transform="translate(0,0)"/>
<path d="" fill="#FDFDFD" transform="translate(0,0)"/>
<path d="" fill="#047857" transform="translate(0,0)"/>
<path d="" fill="#047857" transform="translate(0,0)"/>
<path d="" fill="#047857" transform="translate(0,0)"/>
<path d="" fill="#FDFDFD" transform="translate(0,0)"/>
<path d="" fill="#047857" transform="translate(0,0)"/>
<path d="" fill="#FDFDFD" transform="translate(0,0)"/>
<path d="" fill="#FDFDFD" transform="translate(0,0)"/>
<path d="" fill="#047857" transform="translate(0,0)"/>
<path d="" fill="#047857" transform="translate(0,0)"/>
<path d="" fill="#047857" transform="translate(0,0)"/>
<path d="" fill="#047857" transform="translate(0,0)"/>
<path d="" fill="#047857" transform="translate(0,0)"/>
<path d="" fill="#047857" transform="translate(0,0)"/>
<path d="" fill="#047857" transform="translate(0,0)"/>
<path d="" fill="#047857" transform="translate(0,0)"/>
<path d="" fill="#047857" transform="translate(0,0)"/>
<path d="" fill="#047857" transform="translate(0,0)"/>
<path d="" fill="#047857" transform="translate(0,0)"/>
<path d="" fill="#047857" transform="translate(0,0)"/>
<path d="" fill="#047857" transform="translate(0,0)"/>
<path d="" fill="#047857" transform="translate(0,0)"/>
<path d="" fill="#047857" transform="translate(0,0)"/>
<path d="" fill="#047857" transform="translate(0,0)"/>
<path d="" fill="#047857" transform="translate(0,0)"/>
<path d="" fill="#047857" transform="translate(0,0)"/>
<path d="" fill="#047857" transform="translate(0,0)"/>
<path d="" fill="#047857" transform="translate(0,0)"/>
<path d="" fill="#047857" transform="translate(0,0)"/>
<path d="" fill="#047857" transform="translate(0,0)"/>
<path d="" fill="#047857" transform="translate(0,0)"/>
<path d="" fill="#047857" transform="translate(0,0)"/>
<path d="" fill="#047857" transform="translate(0,0)"/>
<path d="" fill="#047857" transform="translate(0,0)"/>
<path d="" fill="#047857" transform="translate(0,0)"/>
<path d="" fill="#047857" transform="translate(0,0)"/>
<path d="" fill="#047857" transform="translate(0,0)"/>
<path d="" fill="#047857" transform="translate(0,0)"/>
<path d="" fill="#047857" transform="translate(0,0)"/>
<path d="" fill="#047857" transform="translate(0,0)"/>
</svg>
