<?xml version="1.0" encoding="UTF-8"?>
<!DOCTYPE svg PUBLIC "-//W3C//DTD SVG 1.1//EN" "http://www.w3.org/Graphics/SVG/1.1/DTD/svg11.dtd">
<svg xmlns="http://www.w3.org/2000/svg" version="1.1" width="512px" height="512px" style="shape-rendering:geometricPrecision; text-rendering:geometricPrecision; image-rendering:optimizeQuality; fill-rule:evenodd; clip-rule:evenodd" xmlns:xlink="http://www.w3.org/1999/xlink">
<g><path style="opacity:0.946" fill="#676D75" d="M 511.5,112.5 C 511.5,116.833 511.5,121.167 511.5,125.5C 508.308,133.217 503.308,139.717 496.5,145C 485.98,151.762 474.98,157.762 463.5,163C 369.713,206.393 276.046,250.06 182.5,294C 144.468,309.452 105.135,315.119 64.5,311C 54.5719,309.958 46.7386,305.458 41,297.5C 36.835,288.336 38.335,280.169 45.5,273C 29.924,254.268 14.5906,235.435 -0.5,216.5C -0.5,215.833 -0.5,215.167 -0.5,214.5C 16.5946,206.41 33.7612,198.41 51,190.5C 76.5445,200.07 102.044,209.737 127.5,219.5C 151.828,208.003 176.162,196.503 200.5,185C 162.347,146.014 124.014,107.181 85.5,68.5C 86.8333,68.1667 88.1667,67.8333 89.5,67.5C 116.503,65.9166 143.503,64.7499 170.5,64C 216.56,87.6965 262.893,110.863 309.5,133.5C 338.281,120.61 366.948,107.443 395.5,94C 415.254,85.2275 435.921,81.2275 457.5,82C 474.222,83.3484 489.222,89.015 502.5,99C 506.571,102.882 509.571,107.382 511.5,112.5 Z M 142.5,86.5 C 150.507,86.3336 158.507,86.5003 166.5,87C 213.893,111.363 261.56,135.196 309.5,158.5C 341.615,143.943 373.615,129.11 405.5,114C 419.675,107.698 434.509,104.198 450,103.5C 462.79,103.763 474.624,107.263 485.5,114C 490.051,116.625 490.551,119.792 487,123.5C 476.066,131.723 464.233,138.556 451.5,144C 358.38,187.06 265.38,230.393 172.5,274C 140.699,286.693 107.699,292.026 73.5,290C 69.6233,289.743 65.9567,288.743 62.5,287C 66.533,282.632 70.8663,278.632 75.5,275C 61.5,257.667 47.5,240.333 33.5,223C 39.6209,220.44 45.6209,217.606 51.5,214.5C 77.0946,224.365 102.761,234.031 128.5,243.5C 165.223,226.972 201.557,209.638 237.5,191.5C 204.015,156.848 170.348,122.348 136.5,88C 138.708,87.8091 140.708,87.3091 142.5,86.5 Z"/></g>
<g><path style="opacity:0.955" fill="#676D75" d="M 15.5,425.5 C 177.5,425.5 339.5,425.5 501.5,425.5C 501.5,432.833 501.5,440.167 501.5,447.5C 339.5,447.5 177.5,447.5 15.5,447.5C 15.5,440.167 15.5,432.833 15.5,425.5 Z"/></g>
</svg>
