<svg width="13" height="13" viewBox="0 0 13 13" fill="none" xmlns="http://www.w3.org/2000/svg">
<g clip-path="url(#clip0_990_6972)">
<path d="M12.1703 5.98242C12.1502 5.66473 12.1063 5.34899 12.0389 5.03786C11.9256 4.52868 11.7113 4.08958 11.4619 3.63615C10.6365 2.13728 9.09314 1.14069 7.42907 0.822118C5.48367 0.446736 3.4133 0.928308 1.96834 2.31356C1.90133 2.3778 1.83538 2.44417 1.77157 2.51213C0.400001 3.96481 -0.0536422 6.05304 0.321823 7.98888C0.34416 8.10569 0.370042 8.22161 0.399469 8.33665C0.446978 8.52461 0.502997 8.71009 0.567524 8.89309C1.13179 10.479 2.50814 11.9195 4.13072 12.4536C4.60936 12.6103 5.11512 12.6591 5.61503 12.683C7.01319 12.7499 8.3571 12.5768 9.55795 11.8085C10.653 11.1066 11.5486 10.0033 11.9357 8.75398C12.1564 8.04304 12.2054 7.28909 12.1942 6.5447C12.1905 6.35727 12.1835 6.16985 12.1703 5.98242ZM9.39575 2.56204C9.71165 2.79407 9.70739 2.79884 9.43085 3.08396C8.85967 3.67279 8.28903 4.26214 7.67584 4.89291C7.65776 4.29612 7.27431 3.89791 7.0802 3.41687C6.9281 3.03246 5.80223 2.22754 5.38901 2.20153C4.96355 2.17498 4.61468 1.90526 4.19029 1.90313C6.04528 1.19007 7.78593 1.37855 9.39575 2.56204ZM6.33778 9.80261C6.33778 10.2587 6.55689 10.6065 6.94405 10.9229C6.21652 10.8735 5.76235 10.3962 5.78788 9.76863C5.79114 9.62506 5.82304 9.48359 5.88171 9.35247C5.94038 9.22136 6.02464 9.10323 6.12957 9.00501C6.23449 8.90678 6.35797 8.83042 6.4928 8.78039C6.62763 8.73036 6.77109 8.70766 6.9148 8.71363C6.54572 8.99981 6.33991 9.35077 6.33778 9.80261ZM7.64978 8.7338C7.0201 9.51165 7.15997 10.316 7.91888 10.873C7.5381 11.0116 7.08179 10.8799 6.80206 10.5507C6.65595 10.3781 6.56503 10.1658 6.54105 9.94109C6.51706 9.7164 6.56111 9.48968 6.66751 9.29024C6.87066 8.9138 7.2807 8.6823 7.64978 8.7338ZM5.77777 10.4859C5.39965 10.4955 5.04545 10.2162 4.89495 9.79039C4.81699 9.56858 4.81099 9.32789 4.87782 9.10248C4.94465 8.87708 5.08089 8.67841 5.26722 8.5347C5.64535 8.23683 6.13622 8.2294 6.58348 8.52302C5.61982 8.98282 5.37252 9.60031 5.77937 10.4875L5.77777 10.4859ZM4.70828 9.82437C4.27963 9.5674 4.27059 9.4835 4.63914 9.17449C4.63223 9.40811 4.62904 9.60669 4.70828 9.82437ZM4.22485 8.13649C4.1637 7.43191 4.89867 6.84893 5.56823 7.08202C5.30232 7.31033 5.14278 7.6273 4.77476 7.71916C4.55139 7.77862 4.38972 7.95437 4.22485 8.13649ZM4.58224 4.65345C4.14242 4.39223 3.94246 4.04127 3.97118 3.59739C3.99989 3.11954 4.25836 2.76752 4.71572 2.60399C5.11884 2.4601 5.48952 2.54452 5.84957 2.85406C5.37518 2.89707 4.99865 3.05582 4.73966 3.42483C4.48066 3.79384 4.46683 4.19206 4.58224 4.65345ZM4.82209 3.66058C5.03163 3.26024 5.46559 3.01176 5.88573 3.05211C6.34097 3.09565 6.68346 3.35581 6.80791 3.75031C5.74692 3.48218 5.18426 3.76252 4.88378 4.70602C4.65776 4.4432 4.63329 4.02481 4.82209 3.66058ZM6.04528 7.68199C6.2112 7.50465 6.24684 7.50731 6.3298 7.73827C6.38746 7.86673 6.40595 8.00929 6.38298 8.14817C6.26545 8.04198 6.17025 7.9411 6.0591 7.85933C5.97242 7.79508 5.97401 7.75792 6.04528 7.68199ZM6.04528 8.12109H5.673C5.81234 7.88694 5.81234 7.88694 6.049 8.12109H6.04528ZM6.22397 6.37373C6.09739 6.42683 5.99954 6.25267 5.87828 6.1948C5.55281 6.04029 5.22149 6.01375 4.83592 6.13427C5.19809 5.45678 6.07878 5.33041 6.5638 5.83747C6.64357 5.92136 6.65421 5.97764 6.5638 6.04985C6.55689 6.05516 6.5521 6.06313 6.54572 6.06897C6.44255 6.17303 6.3548 6.32435 6.22769 6.37373H6.22397ZM5.92828 6.43585C6.02879 6.50169 6.08091 6.55638 5.96338 6.67053C5.82138 6.80752 5.71129 6.90362 5.47251 6.85636C4.97419 6.75708 4.55618 6.95247 4.18975 7.4059C4.19773 6.90309 4.39557 6.57655 4.77476 6.37479C5.16565 6.16507 5.55866 6.19055 5.932 6.43585H5.92828ZM6.84886 6.87866C6.81908 7.10538 6.81216 7.12078 6.63028 7.35333C6.55529 7.11175 6.55529 7.11175 6.85258 6.87866H6.84886ZM6.66059 5.67182C6.24045 5.32617 5.77937 5.26776 5.27786 5.45944C5.22468 5.47961 5.17894 5.53748 5.11034 5.51253C5.20553 5.06335 5.57993 4.75752 6.09048 4.71133C6.50158 4.67416 6.98553 4.94441 7.12434 5.30865C7.21475 5.54492 6.95363 5.59695 6.85843 5.73341C6.76323 5.86986 6.71803 5.71641 6.66432 5.67182H6.66059ZM5.06513 5.00813C5.06513 4.55682 5.22468 4.20321 5.59695 3.97649C5.99316 3.7365 6.41011 3.73703 6.79568 3.99985C7.16795 4.25365 7.31367 4.62319 7.27112 5.12122C6.51434 4.35294 6.02719 4.33276 5.06992 5.00813H5.06513ZM3.43936 2.62841C3.76643 2.30984 4.15891 2.25674 4.64287 2.4001C4.20943 2.61726 3.90895 2.89282 3.81163 3.33882C3.71643 3.77155 3.82333 4.15489 4.13072 4.53983C3.61486 4.46868 3.3064 4.22126 3.15909 3.79331C3.00326 3.35103 3.1075 2.95282 3.43936 2.62841ZM2.24063 10.1621C0.492538 8.18268 0.53987 5.08299 2.35231 3.1567C2.51186 2.98946 2.65173 2.80787 2.80064 2.63266L2.87616 2.70646C2.58472 3.35103 2.64694 3.9457 3.13622 4.46603C3.37226 4.72318 3.69994 4.8776 4.04882 4.8961C4.09296 4.89875 4.1371 4.89981 4.18125 4.90459C4.68594 4.96087 4.86517 5.2975 4.6067 5.73075C4.46843 5.96224 4.34664 6.20064 4.15572 6.40612C3.85949 6.72469 3.77706 7.12343 3.81748 7.56093C3.84177 7.9112 3.84533 8.26259 3.82812 8.61328C3.82596 8.71405 3.80287 8.81328 3.7603 8.90467C3.71773 8.99607 3.65661 9.07764 3.58082 9.14423C3.23514 9.47289 2.90434 9.81853 2.58419 10.1721C2.44432 10.324 2.37571 10.3123 2.24063 10.1621ZM2.99156 10.8486C3.31065 10.5173 3.62975 10.1902 3.94299 9.85411C4.03978 9.74792 4.07701 9.79039 4.16635 9.87004C4.47375 10.1429 4.76199 10.4743 5.12363 10.6415C5.65545 10.8873 6.17717 11.2293 6.77493 11.2595C7.24825 11.2834 7.7354 11.3694 8.21351 11.1969C8.42624 11.1199 8.67619 11.2425 8.90488 11.1533C7.42003 12.2221 4.77688 12.3076 2.99156 10.8486ZM8.56823 10.8279C8.34713 10.8311 8.13003 10.7688 7.94446 10.6487C7.75889 10.5287 7.61319 10.3563 7.52583 10.1535C7.43847 9.95069 7.41338 9.72656 7.45373 9.5095C7.49409 9.29244 7.59808 9.09223 7.75253 8.93423C7.90698 8.77624 8.10493 8.66757 8.32129 8.62201C8.53766 8.57644 8.76271 8.59603 8.96791 8.67828C9.17312 8.76054 9.34925 8.90176 9.47398 9.08405C9.59872 9.26634 9.66644 9.4815 9.66857 9.70226C9.66825 9.99603 9.55306 10.2781 9.34754 10.4883C9.14202 10.6986 8.8624 10.8204 8.56823 10.8279ZM10.0185 10.3065C9.98766 10.3367 9.95309 10.3628 9.88555 10.4206C10.002 10.0723 10.0876 9.76597 10.0206 9.43041C9.85205 8.58885 9.05006 8.05897 8.2151 8.2671C7.84283 8.36001 7.46577 8.33612 7.08871 8.32975C6.96373 8.32975 6.83184 8.28781 6.81429 8.17047C6.79089 8.01755 6.68399 7.84712 6.83556 7.69633C7.06105 7.47227 7.13604 7.17069 7.27219 6.8999C7.46045 6.52346 7.56043 6.09923 7.88112 5.78066C8.62567 5.03733 9.35107 4.27435 10.0791 3.51457C10.1855 3.40413 10.2387 3.36962 10.3567 3.51457C11.9251 5.41749 11.7719 8.56549 10.0185 10.3065Z" fill="#07C189"/>
</g>
<defs>
<clipPath id="clip0_990_6972">
<rect width="12" height="12" fill="white" transform="translate(0.195312 0.696289)"/>
</clipPath>
</defs>
</svg>
