<?xml version="1.0" encoding="UTF-8"?>
<!-- Generator: visioncortex VTracer 0.6.3 -->
<svg version="1.1" xmlns="http://www.w3.org/2000/svg" width="1280" height="1280">
<path d="M0 0 C1.5 0.01 1.5 0.01 3.03 0.03 C22.27 0.42 38.19 7.15 54.75 16.38 C54.75 17.03 54.75 17.69 54.75 18.38 C55.53 18.68 56.32 18.99 57.12 19.31 C59.75 20.38 59.75 20.38 61.75 21.38 C61.75 22.04 61.75 22.69 61.75 23.38 C62.33 23.64 62.9 23.91 63.5 24.19 C65.81 25.4 67.77 26.68 69.75 28.38 C69.75 29.04 69.75 29.69 69.75 30.38 C70.41 30.38 71.07 30.38 71.75 30.38 C76.75 35.85 76.75 35.85 76.75 38.38 C77.41 38.38 78.07 38.38 78.75 38.38 C81.05 40.94 81.75 41.85 81.75 45.38 C82.41 45.38 83.07 45.38 83.75 45.38 C88.3 53.46 92.4 61.23 95.06 70.18 C95.55 72.33 95.55 72.33 96.75 73.38 C99.75 85.15 100.17 96.63 100.09 108.72 C100.09 110.61 100.09 112.49 100.09 114.38 C100.09 119.44 100.08 124.5 100.05 129.57 C100.04 134.88 100.03 140.19 100.03 145.5 C100.02 155.53 100 165.56 99.97 175.6 C99.93 187.03 99.92 198.46 99.9 209.89 C99.87 233.39 99.82 256.88 99.75 280.38 C100.7 280.37 101.64 280.37 102.62 280.37 C158.75 280.3 214.88 280.25 271.02 280.22 C277.76 280.22 284.5 280.21 291.24 280.21 C292.25 280.21 292.25 280.21 293.27 280.21 C315 280.2 336.73 280.17 358.46 280.15 C381.43 280.12 404.4 280.1 427.37 280.09 C441.12 280.09 454.88 280.08 468.63 280.05 C478.07 280.04 487.5 280.03 496.94 280.03 C502.38 280.04 507.82 280.03 513.26 280.02 C518.25 280 523.24 280 528.23 280.01 C530.03 280.01 531.82 280.01 533.62 280 C545.93 279.94 558.82 279.96 569.81 286.31 C571.94 287.52 571.94 287.52 575.08 288.75 C591.86 295.84 605.97 311.21 613.23 327.75 C613.9 329.62 614.54 331.5 615.13 333.4 C615.58 335.36 615.58 335.36 616.75 336.38 C616.89 337.41 617.04 338.44 617.19 339.5 C617.62 343.29 617.62 343.29 618.77 346.46 C620.16 351.24 620.09 355.99 620.06 360.94 C620.06 362.39 620.06 362.39 620.05 363.88 C619.89 373.83 618.89 383.65 613.81 392.43 C612.6 394.56 612.6 394.56 611.38 397.7 C604.28 414.48 588.92 428.59 572.38 435.86 C570.51 436.53 568.63 437.17 566.73 437.75 C564.77 438.2 564.77 438.2 563.75 439.38 C562.72 439.52 561.69 439.66 560.62 439.81 C556.8 440.27 556.8 440.27 553.44 441.4 C549.72 442.38 546.67 442.62 542.83 442.62 C541.84 442.62 541.84 442.62 540.84 442.62 C538.65 442.62 536.46 442.61 534.27 442.6 C532.69 442.6 531.11 442.6 529.54 442.6 C525.27 442.6 521 442.59 516.73 442.58 C512.27 442.57 507.8 442.56 503.33 442.56 C494.88 442.56 486.43 442.54 477.98 442.52 C468.36 442.5 458.74 442.49 449.12 442.48 C429.33 442.45 409.54 442.42 389.75 442.38 C390.09 443.04 390.43 443.7 390.77 444.39 C391.44 445.71 391.44 445.71 392.12 447.06 C392.57 447.93 393.01 448.8 393.46 449.7 C401.58 466.54 402.93 488.66 396.75 506.38 C386.74 530.39 371.23 546.42 347.75 557.38 C348.37 558.42 348.98 559.46 349.62 560.54 C351.33 563.54 352.68 566.48 353.81 569.75 C354.14 570.69 354.47 571.63 354.8 572.59 C355.12 573.51 355.43 574.43 355.75 575.38 C356.04 576.21 356.33 577.05 356.63 577.91 C362.54 595.11 361.75 616.11 353.98 632.58 C343.46 653.83 329.12 667.4 307.75 677.38 C308.37 678.42 308.98 679.46 309.62 680.54 C311.33 683.54 312.68 686.48 313.81 689.75 C314.14 690.69 314.47 691.63 314.8 692.59 C315.12 693.51 315.43 694.43 315.75 695.38 C316.04 696.21 316.33 697.05 316.63 697.91 C321.96 713.42 322.1 733.47 315.77 748.75 C315.15 750 314.51 751.23 313.81 752.43 C312.6 754.56 312.6 754.56 311.38 757.7 C304.28 774.48 288.92 788.59 272.38 795.86 C270.51 796.53 268.63 797.17 266.73 797.75 C264.77 798.2 264.77 798.2 263.75 799.38 C262.72 799.52 261.69 799.66 260.62 799.81 C256.83 800.25 256.83 800.25 253.66 801.39 C248.9 802.78 244.18 802.66 239.25 802.66 C237.69 802.66 237.69 802.66 236.09 802.67 C232.59 802.69 229.1 802.69 225.6 802.7 C223.09 802.71 220.58 802.72 218.08 802.73 C211.26 802.75 204.45 802.77 197.64 802.78 C193.38 802.78 189.12 802.79 184.86 802.8 C173.05 802.82 161.24 802.84 149.43 802.85 C148.29 802.85 148.29 802.85 147.14 802.85 C146 802.85 146 802.85 144.84 802.85 C143.31 802.85 141.78 802.85 140.24 802.86 C139.1 802.86 139.1 802.86 137.94 802.86 C125.63 802.86 113.32 802.9 101 802.95 C88.34 802.99 75.68 803.02 63.02 803.02 C55.92 803.02 48.82 803.03 41.72 803.07 C35.03 803.1 28.35 803.11 21.66 803.09 C19.22 803.09 16.77 803.1 14.33 803.12 C0.71 803.22 -10.01 802.66 -22.25 796.38 C-24.29 795.51 -26.33 794.65 -28.38 793.81 C-29.34 793.41 -30.3 793.01 -31.29 792.59 C-35.51 790.86 -39.77 789.25 -44.03 787.62 C-48.13 786.03 -52.17 784.33 -56.22 782.62 C-59.38 781.32 -62.56 780.09 -65.75 778.88 C-70.95 776.89 -76.09 774.79 -81.22 772.62 C-84.38 771.32 -87.56 770.09 -90.75 768.88 C-95.95 766.89 -101.09 764.79 -106.22 762.62 C-109.38 761.32 -112.56 760.09 -115.75 758.88 C-120.95 756.89 -126.09 754.79 -131.22 752.62 C-134.38 751.32 -137.56 750.09 -140.75 748.88 C-145.95 746.89 -151.09 744.79 -156.22 742.62 C-159.38 741.32 -162.56 740.09 -165.75 738.88 C-181.4 732.91 -181.4 732.91 -188.25 729.38 C-188.4 730.21 -188.4 730.21 -188.55 731.05 C-192.15 742.95 -204.9 751.69 -215.31 757.31 C-227.76 762.77 -239.79 762.81 -253.13 762.78 C-255.23 762.78 -257.32 762.79 -259.42 762.8 C-265.09 762.82 -270.75 762.82 -276.42 762.81 C-281.15 762.81 -285.89 762.81 -290.63 762.82 C-301.8 762.83 -312.97 762.83 -324.15 762.82 C-335.66 762.81 -347.18 762.82 -358.7 762.85 C-368.6 762.87 -378.51 762.88 -388.41 762.87 C-394.32 762.87 -400.23 762.87 -406.14 762.89 C-411.69 762.91 -417.24 762.9 -422.79 762.88 C-424.83 762.88 -426.86 762.88 -428.9 762.89 C-431.68 762.91 -434.46 762.89 -437.24 762.88 C-438.05 762.89 -438.85 762.9 -439.67 762.91 C-446.67 762.81 -451.69 760.48 -457.06 756.06 C-461.42 750.71 -462.62 745.95 -462.63 739.13 C-462.63 738.43 -462.64 737.74 -462.64 737.02 C-462.66 734.69 -462.65 732.35 -462.64 730.02 C-462.64 728.33 -462.65 726.64 -462.65 724.95 C-462.67 720.3 -462.66 715.66 -462.66 711.02 C-462.65 706.01 -462.66 701 -462.67 695.99 C-462.69 686.18 -462.69 676.36 -462.69 666.55 C-462.68 658.58 -462.69 650.6 -462.69 642.63 C-462.69 641.49 -462.69 640.36 -462.69 639.19 C-462.69 636.88 -462.7 634.58 -462.7 632.27 C-462.71 610.66 -462.71 589.04 -462.69 567.42 C-462.68 547.64 -462.7 527.85 -462.72 508.07 C-462.75 487.76 -462.76 467.46 -462.75 447.15 C-462.74 435.74 -462.75 424.34 -462.76 412.94 C-462.78 403.23 -462.78 393.52 -462.76 383.82 C-462.75 378.86 -462.75 373.91 -462.77 368.96 C-462.78 364.42 -462.78 359.89 -462.76 355.36 C-462.75 353.72 -462.76 352.08 -462.77 350.44 C-462.82 341.14 -462.86 333.72 -456.5 326.35 C-455.95 325.91 -455.39 325.46 -454.81 325 C-453.98 324.31 -453.98 324.31 -453.13 323.6 C-448.11 320.32 -443.43 320.09 -437.56 320.11 C-436.69 320.11 -435.81 320.11 -434.91 320.1 C-431.98 320.09 -429.05 320.1 -426.12 320.1 C-424.02 320.1 -421.92 320.09 -419.82 320.08 C-414.11 320.07 -408.4 320.07 -402.69 320.07 C-397.92 320.07 -393.15 320.07 -388.38 320.06 C-377.13 320.05 -365.87 320.05 -354.62 320.06 C-343.02 320.07 -331.42 320.05 -319.82 320.03 C-309.85 320.01 -299.89 320.01 -289.92 320.01 C-283.97 320.01 -278.03 320.01 -272.08 320 C-266.48 319.98 -260.88 319.99 -255.28 320 C-253.23 320 -251.18 320 -249.13 319.99 C-236.11 319.94 -225.2 320.8 -213.25 326.38 C-213.25 327.04 -213.25 327.69 -213.25 328.38 C-212.67 328.5 -212.1 328.62 -211.5 328.75 C-209.23 329.38 -207.32 330.26 -205.25 331.38 C-205.25 332.04 -205.25 332.69 -205.25 333.38 C-204.17 333.72 -204.17 333.72 -203.06 334.06 C-199.69 335.64 -197.69 337.58 -195.25 340.38 C-195.25 341.04 -195.25 341.69 -195.25 342.38 C-190.97 341.9 -189.09 339.43 -186.25 336.38 C-176.25 326.37 -176.25 326.37 -173.75 323.94 C-171.88 322.02 -170.23 320.14 -168.56 318.06 C-167.8 317.18 -167.04 316.29 -166.25 315.38 C-165.59 315.38 -164.93 315.38 -164.25 315.38 C-164.25 314.71 -164.25 314.06 -164.25 313.38 C-163.59 313.38 -162.93 313.38 -162.25 313.38 C-161.92 312.38 -161.59 311.39 -161.25 310.38 C-160.59 310.38 -159.93 310.38 -159.25 310.38 C-159.25 309.71 -159.25 309.06 -159.25 308.38 C-158.59 308.38 -157.93 308.38 -157.25 308.38 C-157.01 307.83 -156.78 307.29 -156.53 306.73 C-154.91 303.74 -152.9 301.26 -150.75 298.62 C-149.96 297.64 -149.16 296.66 -148.34 295.64 C-147.65 294.89 -146.96 294.15 -146.25 293.38 C-145.59 293.38 -144.93 293.38 -144.25 293.38 C-144.01 292.66 -143.76 291.94 -143.51 291.2 C-142.1 288.03 -140.38 285.88 -138.12 283.25 C-129.93 274.07 -129.93 274.07 -124.25 263.38 C-123.59 263.38 -122.93 263.38 -122.25 263.38 C-121.99 262.65 -121.72 261.93 -121.45 261.19 C-120.22 258.3 -118.75 255.92 -117 253.31 C-113.81 248.4 -111.14 243.38 -108.61 238.1 C-107.28 235.43 -105.79 232.93 -104.25 230.38 C-99.62 222.15 -95.12 213.95 -92.14 204.96 C-91.16 202.12 -90.01 199.39 -88.81 196.62 C-86.37 190.85 -84.39 184.98 -82.46 179.02 C-81.61 176.46 -80.73 173.98 -79.76 171.47 C-78.15 167.23 -76.89 162.93 -75.69 158.56 C-75.47 157.78 -75.25 157 -75.03 156.19 C-73.6 150.95 -72.44 145.72 -71.61 140.34 C-71.25 138.37 -71.25 138.37 -70.25 136.38 C-70.05 134.88 -69.89 133.38 -69.75 131.88 C-69.36 127.6 -69.36 127.6 -68.25 125.38 C-67.88 122.73 -67.55 120.09 -67.25 117.44 C-66.38 109.77 -66.38 109.77 -65.25 106.38 C-65.12 104.97 -65.03 103.55 -64.97 102.14 C-64.93 101.32 -64.89 100.5 -64.86 99.65 C-64.8 98.37 -64.8 98.37 -64.75 97.06 C-64.68 95.38 -64.61 93.7 -64.53 92.01 C-64.5 91.27 -64.47 90.52 -64.44 89.75 C-64.25 87.37 -64.25 87.37 -63.74 84.5 C-63.22 81.21 -63.12 78.11 -63.11 74.79 C-62.81 50.97 -59.93 32.85 -42.25 15.38 C-30.52 4.62 -15.77 -0.23 0 0 Z M-16.12 49.31 C-19.55 54.24 -20.5 57.98 -20.63 63.97 C-20.66 65.25 -20.7 66.53 -20.73 67.84 C-20.76 69.19 -20.79 70.53 -20.81 71.88 C-21.41 97.32 -21.41 97.32 -23.25 104.38 C-23.38 106.56 -23.48 108.75 -23.56 110.94 C-23.92 118 -25.2 124.71 -26.79 131.59 C-27.86 136.27 -28.6 140.84 -29 145.63 C-29.25 147.38 -29.25 147.38 -30.25 148.38 C-30.53 149.85 -30.77 151.33 -31 152.81 C-33.88 169.27 -39.28 185.8 -45.25 201.38 C-45.51 202.07 -45.78 202.77 -46.05 203.48 C-49.77 213.3 -53.73 222.9 -58.25 232.38 C-58.97 233.93 -59.69 235.49 -60.41 237.05 C-67.58 252.47 -67.58 252.47 -72.25 259.56 C-73.49 261.47 -73.49 261.47 -73.25 264.38 C-73.91 264.38 -74.57 264.38 -75.25 264.38 C-75.8 265.53 -76.36 266.68 -76.93 267.87 C-79.14 272.27 -81.67 276.38 -84.38 280.5 C-84.85 281.23 -85.33 281.96 -85.81 282.71 C-90.94 290.53 -96.24 298.29 -102.03 305.64 C-103.44 307.29 -103.44 307.29 -103.25 309.38 C-103.91 309.38 -104.57 309.38 -105.25 309.38 C-106.84 311.09 -106.84 311.09 -108.38 313.25 C-108.91 313.97 -109.45 314.69 -110.01 315.43 C-111.43 317.27 -111.43 317.27 -111.25 319.38 C-111.91 319.38 -112.57 319.38 -113.25 319.38 C-116.89 322.85 -116.89 322.85 -118.25 327.38 C-118.91 327.38 -119.57 327.38 -120.25 327.38 C-121.68 329.03 -121.68 329.03 -123.19 331.19 C-126.65 335.81 -130.52 339.77 -134.69 343.74 C-135.91 344.92 -137.09 346.14 -138.25 347.38 C-138.25 348.04 -138.25 348.69 -138.25 349.38 C-139.21 349.78 -139.21 349.78 -140.19 350.19 C-142.58 351.26 -142.58 351.26 -143.25 354.38 C-144.58 355.04 -145.92 355.71 -147.25 356.38 C-147.58 357.37 -147.91 358.36 -148.25 359.38 C-149.58 360.04 -150.92 360.71 -152.25 361.38 C-152.58 362.37 -152.91 363.36 -153.25 364.38 C-154.58 365.04 -155.92 365.71 -157.25 366.38 C-157.58 367.37 -157.91 368.36 -158.25 369.38 C-159.58 370.04 -160.92 370.71 -162.25 371.38 C-162.58 372.37 -162.91 373.36 -163.25 374.38 C-164.58 375.04 -165.92 375.71 -167.25 376.38 C-167.58 377.37 -167.91 378.36 -168.25 379.38 C-169.58 380.04 -170.92 380.71 -172.25 381.38 C-172.58 382.37 -172.91 383.36 -173.25 384.38 C-174.58 385.04 -175.92 385.71 -177.25 386.38 C-177.58 387.37 -177.91 388.36 -178.25 389.38 C-178.91 389.38 -179.57 389.38 -180.25 389.38 C-180.25 487.72 -180.25 586.06 -180.25 687.38 C-175.96 689.02 -171.67 690.67 -167.25 692.38 C-163.24 694.03 -159.24 695.69 -155.25 697.38 C-146.29 701.14 -137.28 704.78 -128.25 708.38 C-126.58 709.04 -124.92 709.71 -123.25 710.38 C-122.48 710.68 -121.7 710.99 -120.9 711.31 C-118.83 712.14 -116.76 712.98 -114.69 713.81 C-109.01 716.1 -103.33 718.38 -97.56 720.44 C-91.7 722.54 -85.98 724.94 -80.25 727.38 C-73.03 730.42 -65.79 733.34 -58.47 736.12 C-54.37 737.72 -50.33 739.42 -46.28 741.12 C-43.12 742.43 -39.94 743.66 -36.75 744.88 C-31.55 746.85 -26.42 748.96 -21.3 751.12 C-17.02 752.88 -12.69 754.53 -8.36 756.16 C-5.25 757.37 -5.25 757.37 -2.18 758.93 C2.41 760.89 6.82 760.79 11.76 760.76 C12.75 760.76 13.74 760.77 14.76 760.77 C18.08 760.78 21.39 760.77 24.71 760.76 C27.09 760.77 29.47 760.77 31.85 760.78 C37.64 760.79 43.43 760.79 49.22 760.78 C53.93 760.77 58.64 760.77 63.34 760.78 C64.01 760.78 64.69 760.78 65.38 760.78 C66.74 760.78 68.1 760.78 69.47 760.78 C82.24 760.79 95.01 760.78 107.79 760.76 C118.74 760.75 129.69 760.75 140.63 760.77 C153.36 760.78 166.09 760.79 178.81 760.78 C180.17 760.78 181.53 760.78 182.89 760.78 C183.56 760.78 184.23 760.78 184.91 760.78 C189.61 760.77 194.31 760.78 199.01 760.78 C205.34 760.79 211.67 760.79 218 760.77 C220.33 760.77 222.65 760.77 224.97 760.77 C228.14 760.78 231.32 760.77 234.49 760.76 C235.4 760.76 236.32 760.77 237.26 760.78 C247.16 760.69 258.3 757.21 265.75 750.38 C265.75 749.72 265.75 749.05 265.75 748.38 C266.41 748.38 267.07 748.38 267.75 748.38 C275.69 738.2 278.86 728.27 277.75 715.38 C276.2 708.16 272.78 699.87 267.75 694.38 C267.09 694.38 266.43 694.38 265.75 694.38 C265.75 693.72 265.75 693.05 265.75 692.38 C260.37 687.81 254.47 685.25 247.75 683.38 C246.76 683.04 245.77 682.72 244.75 682.38 C242.51 682.28 240.26 682.24 238.02 682.23 C237.34 682.23 236.66 682.23 235.96 682.22 C234.48 682.22 233 682.21 231.53 682.21 C229.19 682.2 226.84 682.18 224.5 682.16 C217.84 682.11 211.18 682.06 204.52 682.05 C200.45 682.04 196.37 682.01 192.3 681.97 C190.75 681.96 189.2 681.95 187.65 681.95 C170.64 681.97 170.64 681.97 164.25 675.96 C159.47 670.65 158.27 665.9 158.44 658.94 C159.11 653.41 161.54 649.18 165.69 645.5 C171.93 641.17 176.96 641.08 184.36 641.1 C185.97 641.1 185.97 641.1 187.6 641.09 C189.92 641.08 192.24 641.07 194.56 641.07 C198.23 641.07 201.91 641.05 205.58 641.03 C216.03 640.97 226.48 640.94 236.92 640.92 C243.31 640.9 249.71 640.87 256.1 640.83 C258.53 640.82 260.96 640.82 263.39 640.82 C266.8 640.82 270.21 640.8 273.62 640.78 C274.62 640.78 275.61 640.78 276.64 640.79 C286.81 640.69 298.06 637.42 305.75 630.38 C305.75 629.72 305.75 629.05 305.75 628.38 C306.41 628.38 307.07 628.38 307.75 628.38 C315.69 618.2 318.86 608.27 317.75 595.38 C316.2 588.16 312.78 579.87 307.75 574.38 C307.09 574.38 306.43 574.38 305.75 574.38 C305.75 573.72 305.75 573.05 305.75 572.38 C300.37 567.81 294.47 565.25 287.75 563.38 C286.76 563.04 285.77 562.72 284.75 562.38 C283.25 562.28 281.74 562.25 280.23 562.24 C279.3 562.24 278.38 562.24 277.42 562.23 C275.9 562.23 275.9 562.23 274.35 562.23 C272.74 562.23 272.74 562.23 271.1 562.22 C268.78 562.22 266.45 562.21 264.12 562.21 C260.43 562.2 256.75 562.18 253.06 562.16 C242.58 562.11 232.1 562.06 221.61 562.05 C215.2 562.04 208.79 562.01 202.38 561.97 C199.94 561.96 197.5 561.95 195.06 561.95 C191.64 561.95 188.22 561.93 184.8 561.91 C183.8 561.91 182.79 561.92 181.76 561.93 C174.97 561.84 169.34 560.7 164.23 555.96 C159.49 550.62 158.27 545.92 158.44 538.94 C159.11 533.41 161.54 529.18 165.69 525.5 C170.53 522.14 174.14 521.13 180.02 521.12 C181.29 521.11 182.55 521.1 183.85 521.1 C185.25 521.1 186.64 521.1 188.04 521.1 C189.51 521.1 190.98 521.09 192.46 521.09 C195.63 521.08 198.8 521.07 201.97 521.07 C206.99 521.07 212 521.05 217.02 521.03 C229.49 520.98 241.96 520.95 254.43 520.93 C264.11 520.91 273.8 520.89 283.48 520.84 C288.47 520.82 293.45 520.82 298.43 520.82 C301.54 520.82 304.65 520.8 307.76 520.78 C309.19 520.78 310.63 520.78 312.06 520.78 C319.83 520.81 326.58 520.54 333.75 517.38 C334.57 517.02 335.39 516.67 336.24 516.31 C341.27 513.77 341.27 513.77 345.75 510.38 C345.75 509.71 345.75 509.06 345.75 508.38 C346.41 508.38 347.07 508.38 347.75 508.38 C355.69 498.2 358.86 488.27 357.75 475.38 C356.2 468.16 352.78 459.87 347.75 454.38 C347.09 454.38 346.43 454.38 345.75 454.38 C345.75 453.71 345.75 453.06 345.75 452.38 C340.37 447.81 334.47 445.25 327.75 443.38 C326.76 443.05 325.77 442.71 324.75 442.38 C322.74 442.28 320.72 442.25 318.71 442.24 C317.45 442.24 316.18 442.24 314.88 442.23 C313.48 442.23 312.08 442.23 310.68 442.23 C309.2 442.23 307.72 442.23 306.25 442.22 C303.07 442.21 299.89 442.21 296.71 442.21 C291.68 442.2 286.65 442.18 281.62 442.16 C279.9 442.16 278.18 442.15 276.45 442.15 C275.59 442.14 274.73 442.14 273.84 442.14 C262.13 442.09 250.41 442.06 238.7 442.05 C230.8 442.04 222.9 442.02 215 441.98 C210.83 441.96 206.65 441.95 202.47 441.95 C198.53 441.96 194.6 441.94 190.67 441.92 C189.23 441.91 187.79 441.91 186.35 441.92 C170.68 441.99 170.68 441.99 164.24 435.96 C159.48 430.64 158.27 425.91 158.44 418.94 C159.11 413.41 161.54 409.18 165.69 405.5 C170.57 402.11 174.2 401.13 180.13 401.12 C181.43 401.12 182.73 401.11 184.06 401.1 C185.5 401.11 186.94 401.11 188.38 401.12 C189.9 401.11 191.43 401.11 192.96 401.11 C197.16 401.1 201.36 401.1 205.56 401.1 C210.09 401.1 214.62 401.1 219.16 401.09 C227.01 401.08 234.86 401.07 242.71 401.07 C254.07 401.07 265.44 401.05 276.8 401.03 C295.25 401 313.69 400.98 332.14 400.96 C333.25 400.96 334.35 400.96 335.49 400.96 C347.81 400.95 360.12 400.94 372.44 400.93 C376.91 400.92 381.37 400.92 385.84 400.92 C386.94 400.92 388.04 400.92 389.18 400.92 C407.55 400.9 425.92 400.88 444.3 400.84 C455.63 400.82 466.96 400.81 478.29 400.82 C486.06 400.82 493.83 400.81 501.6 400.79 C506.08 400.78 510.56 400.78 515.04 400.78 C519.14 400.79 523.25 400.78 527.35 400.77 C528.83 400.76 530.32 400.76 531.8 400.77 C539.65 400.8 546.51 400.59 553.75 397.38 C554.57 397.02 555.39 396.67 556.24 396.31 C561.27 393.77 561.27 393.77 565.75 390.38 C565.75 389.71 565.75 389.06 565.75 388.38 C566.41 388.38 567.07 388.38 567.75 388.38 C575.69 378.2 578.86 368.27 577.75 355.38 C576.2 348.16 572.78 339.87 567.75 334.38 C567.09 334.38 566.43 334.38 565.75 334.38 C565.75 333.71 565.75 333.06 565.75 332.38 C560.37 327.81 554.47 325.25 547.75 323.38 C546.76 323.05 545.77 322.71 544.75 322.38 C542.17 322.28 539.62 322.24 537.05 322.25 C535.85 322.25 535.85 322.25 534.63 322.24 C531.94 322.24 529.25 322.24 526.56 322.24 C524.62 322.24 522.68 322.24 520.74 322.24 C516.51 322.23 512.29 322.23 508.06 322.23 C501.18 322.23 494.3 322.23 487.42 322.22 C477.43 322.21 467.44 322.21 457.45 322.21 C441.67 322.2 425.88 322.18 410.1 322.16 C407.41 322.16 404.72 322.16 402.04 322.16 C401.37 322.15 400.7 322.15 400.01 322.15 C398.66 322.15 397.3 322.15 395.94 322.15 C394.58 322.15 393.22 322.15 391.86 322.14 C375.82 322.12 359.77 322.11 343.73 322.09 C343.03 322.09 342.33 322.09 341.6 322.09 C318.83 322.07 296.07 322.06 273.3 322.05 C249.23 322.04 225.16 322.02 201.1 321.98 C186.68 321.96 172.26 321.95 157.85 321.95 C147.97 321.96 138.09 321.95 128.21 321.92 C122.51 321.91 116.81 321.9 111.11 321.92 C105.89 321.93 100.67 321.92 95.45 321.89 C93.56 321.89 91.67 321.89 89.78 321.9 C87.22 321.91 84.65 321.9 82.08 321.88 C81.35 321.89 80.61 321.9 79.86 321.91 C73.42 321.81 68.47 319.51 63.44 315.56 C59.03 309.85 58.31 304.55 58.37 297.57 C58.36 296.27 58.36 296.27 58.36 294.95 C58.35 292.07 58.36 289.19 58.37 286.31 C58.36 284.24 58.36 282.17 58.35 280.1 C58.34 275.65 58.33 271.19 58.34 266.74 C58.35 259.69 58.33 252.64 58.31 245.6 C58.27 230.63 58.26 215.66 58.25 200.69 C58.24 184.54 58.22 168.4 58.18 152.25 C58.16 145.26 58.16 138.26 58.16 131.26 C58.17 126.89 58.15 122.53 58.14 118.16 C58.14 116.15 58.14 114.13 58.14 112.11 C58.19 96.72 57.25 80.33 47.75 67.38 C47.09 67.38 46.43 67.38 45.75 67.38 C44.75 65.38 43.75 63.37 42.75 61.38 C42.09 61.38 41.43 61.38 40.75 61.38 C40.75 60.72 40.75 60.06 40.75 59.38 C40.09 59.38 39.43 59.38 38.75 59.38 C38.75 58.72 38.75 58.06 38.75 57.38 C36.11 54.98 36.11 54.98 32.75 54.38 C32.75 53.72 32.75 53.06 32.75 52.38 C30.86 51.41 28.96 50.46 27.06 49.5 C26.01 48.97 24.95 48.43 23.86 47.88 C11.46 41.87 -5.76 37.66 -16.12 49.31 Z " fill="#047857" transform="translate(561.25,238.625)"/>
</svg>
