<svg width="18" height="19" viewBox="0 0 18 19" fill="none" xmlns="http://www.w3.org/2000/svg">
<path fill-rule="evenodd" clip-rule="evenodd" d="M17.2145 2.34238H10.995V0.875L0.771851 2.45487V16.303L10.995 18.0661V15.8912H17.2145C17.4029 15.9007 17.5874 15.8352 17.7276 15.7089C17.8679 15.5827 17.9525 15.406 17.963 15.2174V3.01551C17.9523 2.82707 17.8676 2.6505 17.7274 2.52437C17.5872 2.39825 17.4028 2.33282 17.2145 2.34238ZM17.3128 15.3293H10.9742L10.9637 14.1681H12.4907V12.8156H10.9521L10.9447 12.0165H12.4907V10.6641H10.933L10.9257 9.8649H12.4907V8.51248H10.9207V7.71333H12.4907V6.36091H10.9207V5.56175H12.4907V4.20933H10.9207V2.97986H17.3128V15.3293Z" fill="#20744A"/>
<path d="M13.3488 4.20801H16.0029V5.56043H13.3488V4.20801ZM13.3488 6.3602H16.0029V7.71262H13.3488V6.3602ZM13.3488 8.51239H16.0029V9.86481H13.3488V8.51239ZM13.3488 10.6646H16.0029V12.017H13.3488V10.6646ZM13.3488 12.8168H16.0029V14.1692H13.3488V12.8168Z" fill="#20744A"/>
<path fill-rule="evenodd" clip-rule="evenodd" d="M3.43914 6.19645L4.75672 6.12084L5.58496 8.4009L6.56362 6.02678L7.8812 5.95117L6.2812 9.18837L7.8812 12.4336L6.48811 12.3395L5.54751 9.86581L4.60629 12.2455L3.32617 12.1323L4.8132 9.26583L3.43914 6.19645Z" fill="white"/>
</svg>
