<?xml version="1.0" encoding="UTF-8"?>
<!-- Generator: visioncortex VTracer 0.6.3 -->
<svg version="1.1" xmlns="http://www.w3.org/2000/svg" width="1280" height="1280">
<path d="M0 0 C1.15 0 1.15 0 2.32 0.01 C3.12 0.01 3.93 0 4.76 0 C7.51 -0 10.25 0 12.99 0.01 C14.96 0 16.93 0 18.91 0 C24.35 -0 29.8 -0 35.24 0 C41.11 0 46.97 0 52.83 -0 C64.32 -0.01 75.82 -0.01 87.32 -0 C96.65 -0 105.99 0 115.33 -0 C115.99 -0 116.65 -0 117.34 -0 C120.02 -0 122.71 -0 125.4 -0 C150.65 -0.01 175.89 -0 201.14 0 C223.59 0.01 246.04 0.01 268.49 0 C293.68 -0 318.88 -0 344.08 -0 C346.76 -0 349.45 -0 352.13 -0 C352.79 -0 353.45 -0 354.13 -0 C364.13 0 374.13 -0 384.13 -0 C395.5 -0.01 406.86 -0.01 418.22 -0 C424.03 0 429.83 0 435.64 0 C440.94 -0 446.25 -0 451.55 0 C453.48 0.01 455.41 0 457.34 0 C459.94 -0 462.54 0 465.14 0.01 C465.91 0 466.67 0 467.46 0 C472.62 0.02 472.62 0.02 473.73 1.13 C473.94 3.78 474.11 6.42 474.23 9.07 C474.27 14.26 474.27 14.26 475.73 19.13 C475.83 22.12 475.87 25.09 475.86 28.09 C475.87 29.03 475.87 29.97 475.87 30.94 C475.88 34.14 475.88 37.34 475.87 40.54 C475.88 42.84 475.88 45.14 475.89 47.44 C475.89 53.79 475.9 60.14 475.9 66.5 C475.9 72.63 475.91 78.77 475.92 84.91 C475.94 97.47 475.95 110.03 475.96 122.59 C475.97 140.53 476 158.47 476.02 176.41 C476.03 183.61 476.04 190.8 476.05 197.99 C476.05 198.79 476.05 199.59 476.05 200.42 C476.08 219.45 476.1 238.49 476.12 257.52 C476.12 258.36 476.12 259.19 476.13 260.05 C476.15 279.49 476.17 298.93 476.19 318.38 C476.19 319.21 476.19 320.05 476.19 320.91 C476.19 325.13 476.2 329.35 476.2 333.56 C476.2 334.4 476.2 335.23 476.2 336.09 C476.21 337.77 476.21 339.45 476.21 341.14 C476.24 368.91 476.27 396.68 476.31 424.45 C476.32 428.37 476.32 432.29 476.33 436.21 C476.33 436.98 476.33 437.75 476.33 438.55 C476.35 450.98 476.36 463.42 476.36 475.85 C476.37 488.34 476.39 500.83 476.41 513.31 C476.42 520.09 476.43 526.86 476.43 533.63 C476.43 539.82 476.44 546.01 476.45 552.2 C476.46 554.44 476.46 556.69 476.45 558.94 C476.45 561.98 476.46 565.02 476.47 568.05 C476.47 568.94 476.46 569.83 476.46 570.74 C476.48 575.73 476.48 575.73 478.73 580.13 C479.33 581.95 479.86 583.79 480.35 585.63 C480.62 586.59 480.88 587.55 481.14 588.54 C481.73 591.13 481.73 591.13 481.73 594.13 C482.39 594.13 483.05 594.13 483.73 594.13 C484.15 595.01 484.56 595.89 484.99 596.79 C490.47 607.33 499.88 621.18 511.73 625.13 C512.06 626.12 512.39 627.11 512.73 628.13 C514.05 628.13 515.37 628.13 516.73 628.13 C516.73 628.79 516.73 629.45 516.73 630.13 C517.27 630.24 517.8 630.34 518.35 630.45 C521.35 631.31 523.94 632.74 526.73 634.13 C528.68 634.72 528.68 634.72 530.73 635.13 C531.78 635.45 532.83 635.77 533.9 636.09 C546.48 639.51 559.61 639.45 572.54 639.51 C574.28 639.53 576.03 639.55 577.78 639.56 C582.31 639.61 586.85 639.64 591.39 639.68 C598.71 639.73 606.02 639.79 613.34 639.86 C615.88 639.89 618.43 639.9 620.98 639.92 C622.53 639.93 624.07 639.95 625.62 639.96 C626.33 639.96 627.04 639.96 627.77 639.97 C632.62 640.02 632.62 640.02 633.73 641.13 C633.73 693.93 633.73 746.73 633.73 801.13 C422.53 801.13 211.33 801.13 -6.27 801.13 C-6.27 641.13 -6.27 641.13 -5.27 640.13 C-2.65 640.01 -0.06 639.95 2.55 639.93 C3.37 639.92 4.19 639.91 5.04 639.9 C7.76 639.87 10.48 639.84 13.2 639.82 C15.08 639.8 16.97 639.77 18.85 639.75 C23.81 639.7 28.77 639.65 33.74 639.6 C38.8 639.55 43.86 639.49 48.92 639.44 C58.86 639.33 68.79 639.23 78.73 639.13 C78.73 638.8 78.73 638.47 78.73 638.13 C84.01 637.8 89.29 637.47 94.73 637.13 C94.73 636.47 94.73 635.81 94.73 635.13 C96.59 634.95 96.59 634.95 98.48 634.76 C101.62 634.37 104 633.81 106.73 632.13 C107.39 631.8 108.05 631.47 108.73 631.13 C109.35 630.62 109.97 630.1 110.6 629.57 C112.73 628.13 112.73 628.13 116.73 628.13 C116.96 627.51 117.18 626.9 117.42 626.26 C119.11 623.52 120.72 623.08 123.73 622.13 C123.73 621.47 123.73 620.81 123.73 620.13 C125.39 619.12 127.06 618.12 128.73 617.13 C131.68 614.44 133.98 611.84 135.6 608.13 C136.73 606.13 136.73 606.13 138.73 604.7 C141.22 602.75 141.66 601.06 142.73 598.13 C143.25 597.47 143.76 596.81 144.29 596.13 C145.96 593.81 146.34 591.94 146.73 589.13 C147.06 589.13 147.39 589.13 147.73 589.13 C148.06 586.49 148.39 583.85 148.73 581.13 C149.39 581.13 150.05 581.13 150.73 581.13 C150.79 580.02 150.85 578.92 150.91 577.77 C151 576.31 151.08 574.85 151.17 573.38 C151.21 572.65 151.25 571.92 151.29 571.17 C151.62 565.54 151.62 565.54 152.24 563.24 C152.84 560.64 152.86 558.26 152.86 555.6 C152.86 553.9 152.86 553.9 152.87 552.17 C152.87 550.93 152.86 549.68 152.86 548.4 C152.87 547.07 152.87 545.73 152.87 544.4 C152.88 540.73 152.88 537.05 152.88 533.38 C152.87 529.42 152.88 525.47 152.89 521.51 C152.89 513.75 152.9 505.99 152.9 498.23 C152.9 491.92 152.9 485.61 152.9 479.3 C152.91 461.41 152.92 443.51 152.92 425.61 C152.92 424.65 152.92 423.68 152.91 422.69 C152.91 421.24 152.91 421.24 152.91 419.76 C152.91 404.12 152.92 388.48 152.94 372.83 C152.95 356.76 152.96 340.7 152.96 324.63 C152.96 315.61 152.96 306.59 152.97 297.57 C152.98 289.89 152.98 282.21 152.98 274.53 C152.97 270.61 152.97 266.69 152.98 262.78 C152.99 259.18 152.99 255.59 152.98 252 C152.98 250.1 152.98 248.2 152.99 246.3 C152.95 236.23 152.02 226.68 148.73 217.13 C148.58 216.32 148.44 215.51 148.28 214.68 C147.56 211.35 146.26 208.48 144.85 205.38 C144.34 204.23 143.83 203.08 143.3 201.9 C141.97 198.84 141.97 198.84 138.73 198.13 C138.73 196.81 138.73 195.49 138.73 194.13 C138.07 194.13 137.41 194.13 136.73 194.13 C135.71 192.48 134.71 190.81 133.73 189.13 C133.07 188.8 132.41 188.47 131.73 188.13 C131.73 187.14 131.73 186.15 131.73 185.13 C131.15 185.05 130.57 184.97 129.98 184.88 C127.11 183.93 125.78 182.32 123.73 180.13 C123.07 179.8 122.41 179.47 121.73 179.13 C121.73 178.47 121.73 177.81 121.73 177.13 C121.19 176.88 120.65 176.62 120.09 176.35 C117.29 174.9 114.62 173.27 111.92 171.63 C107.55 169.07 103.69 167.28 98.73 166.13 C97.6 165.62 96.46 165.1 95.29 164.57 C90.4 162.64 85.3 162.62 80.1 162.42 C74.82 162.22 74.82 162.22 73.73 161.13 C71.27 161.01 68.84 160.96 66.38 160.94 C65.23 160.93 65.23 160.93 64.05 160.92 C62.37 160.9 60.7 160.89 59.02 160.87 C56.38 160.85 53.73 160.82 51.08 160.8 C45.47 160.74 39.85 160.68 34.23 160.63 C27.72 160.57 21.22 160.51 14.71 160.44 C12.09 160.41 9.48 160.39 6.86 160.37 C5.27 160.36 3.67 160.34 2.08 160.32 C0.98 160.32 0.98 160.32 -0.14 160.31 C-5.16 160.25 -5.16 160.25 -6.27 159.13 C-6.37 157.1 -6.4 155.06 -6.4 153.02 C-6.4 152.38 -6.4 151.73 -6.4 151.07 C-6.41 148.89 -6.4 146.71 -6.4 144.53 C-6.4 142.98 -6.4 141.42 -6.41 139.87 C-6.41 135.63 -6.41 131.4 -6.4 127.16 C-6.4 122.74 -6.4 118.31 -6.41 113.89 C-6.41 106.46 -6.41 99.04 -6.4 91.61 C-6.4 83.01 -6.4 74.41 -6.4 65.81 C-6.41 58.43 -6.41 51.06 -6.41 43.69 C-6.4 39.29 -6.4 34.88 -6.41 30.47 C-6.41 26.33 -6.41 22.18 -6.4 18.04 C-6.4 16.51 -6.4 14.99 -6.4 13.46 C-6.41 11.39 -6.4 9.32 -6.4 7.24 C-6.4 6.08 -6.4 4.92 -6.4 3.72 C-6.17 -0.9 -4.1 0.01 0 0 Z " fill="#047857" transform="translate(325.27031445503235,478.86706441640854)"/>
<path d="M0 0 C1.43 -0.01 1.43 -0.01 2.88 -0.02 C3.92 -0.02 4.95 -0.02 6.02 -0.02 C7.08 -0.03 8.13 -0.03 9.22 -0.03 C11.46 -0.04 13.71 -0.04 15.95 -0.04 C19.38 -0.04 22.82 -0.06 26.25 -0.08 C28.42 -0.08 30.6 -0.08 32.77 -0.09 C33.8 -0.09 34.83 -0.1 35.9 -0.11 C36.85 -0.1 37.81 -0.1 38.8 -0.1 C39.64 -0.1 40.48 -0.1 41.35 -0.1 C43.53 0.15 43.53 0.15 46.53 2.15 C46.86 1.49 47.19 0.83 47.53 0.15 C48.19 0.33 48.86 0.51 49.55 0.7 C50.47 0.95 51.39 1.2 52.34 1.46 C53.35 1.73 54.36 2.01 55.4 2.3 C57.35 2.83 59.32 3.34 61.29 3.84 C71.41 6.42 80.73 10.7 90.15 15.13 C92.46 16.2 92.46 16.2 94.78 16.66 C95.36 16.82 95.93 16.98 96.53 17.15 C96.86 17.81 97.19 18.47 97.53 19.15 C98.52 19.48 99.51 19.81 100.53 20.15 C100.53 20.81 100.53 21.47 100.53 22.15 C101.46 22.41 102.38 22.68 103.34 22.96 C106.48 24.13 107.32 24.85 109.53 27.15 C111.5 28.19 113.5 29.2 115.53 30.15 C115.53 30.81 115.53 31.47 115.53 32.15 C116.36 32.55 116.36 32.55 117.22 32.96 C119.74 34.25 122.16 35.57 124.53 37.15 C124.53 37.81 124.53 38.47 124.53 39.15 C125.52 39.48 126.51 39.81 127.53 40.15 C127.53 40.81 127.53 41.47 127.53 42.15 C128.06 42.35 128.6 42.56 129.15 42.77 C132.45 44.68 135.12 47.19 137.53 50.15 C137.53 50.81 137.53 51.47 137.53 52.15 C138.52 52.48 139.51 52.81 140.53 53.15 C140.53 53.81 140.53 54.47 140.53 55.15 C141.19 55.15 141.85 55.15 142.53 55.15 C144.7 58.11 146.36 60.65 147.53 64.15 C148.19 64.15 148.85 64.15 149.53 64.15 C151.53 67.15 151.53 67.15 151.53 70.15 C152.52 70.48 153.51 70.81 154.53 71.15 C155.91 73.36 155.91 73.36 157.22 76.08 C157.65 76.98 158.09 77.87 158.54 78.8 C159.53 81.15 159.53 81.15 159.53 83.15 C160.19 83.15 160.85 83.15 161.53 83.15 C161.53 84.8 161.53 86.45 161.53 88.15 C162.19 88.15 162.85 88.15 163.53 88.15 C166.14 93.75 168.65 99.25 170.53 105.15 C171.04 106.28 171.56 107.41 172.09 108.58 C173.54 112.19 174.03 115.31 174.53 119.15 C174.88 119.97 175.23 120.8 175.59 121.65 C176.8 124.87 176.53 127.72 176.53 131.15 C176.85 131.77 177.18 132.4 177.51 133.05 C178.73 135.56 178.78 137.31 178.79 140.09 C178.79 141.08 178.8 142.06 178.81 143.07 C178.8 144.65 178.8 144.65 178.79 146.26 C178.8 147.35 178.8 148.44 178.8 149.57 C178.8 151.87 178.8 154.17 178.79 156.48 C178.78 160 178.79 163.52 178.8 167.04 C178.8 169.28 178.8 171.52 178.79 173.76 C178.8 174.81 178.8 175.86 178.81 176.94 C178.77 182.1 178.52 186.31 176.53 191.15 C176.29 192.74 176.09 194.35 175.97 195.96 C175.63 200.04 175.63 200.04 174.53 201.15 C173.99 203.33 173.57 205.52 173.13 207.72 C172.48 210.33 171.57 212.67 170.53 215.15 C170.21 215.95 169.89 216.75 169.56 217.57 C167.62 222.46 165.63 227.32 163.53 232.15 C162.87 232.15 162.21 232.15 161.53 232.15 C161.53 233.8 161.53 235.45 161.53 237.15 C160.87 237.48 160.21 237.81 159.53 238.15 C158.66 239.72 157.86 241.33 157.09 242.96 C155.5 246.33 153.82 249.2 151.53 252.15 C150.83 253.46 150.16 254.79 149.53 256.15 C148.87 256.15 148.21 256.15 147.53 256.15 C147.13 256.98 147.13 256.98 146.72 257.83 C145.42 260.36 144.1 262.78 142.53 265.15 C141.87 265.15 141.21 265.15 140.53 265.15 C140.2 266.14 139.87 267.13 139.53 268.15 C138.87 268.15 138.21 268.15 137.53 268.15 C137.22 268.95 137.22 268.95 136.9 269.77 C135 273.07 132.48 275.74 129.53 278.15 C128.87 278.15 128.21 278.15 127.53 278.15 C127.2 279.14 126.87 280.13 126.53 281.15 C125.87 281.15 125.21 281.15 124.53 281.15 C124.53 281.81 124.53 282.47 124.53 283.15 C121.57 285.32 119.02 286.98 115.53 288.15 C115.53 288.81 115.53 289.47 115.53 290.15 C112.53 292.15 112.53 292.15 109.53 292.15 C109.2 293.14 108.87 294.13 108.53 295.15 C106.31 296.53 106.31 296.53 103.59 297.83 C102.69 298.27 101.8 298.71 100.88 299.16 C98.53 300.15 98.53 300.15 96.53 300.15 C96.53 300.81 96.53 301.47 96.53 302.15 C95.86 302.4 95.2 302.65 94.52 302.91 C89.03 305.03 89.03 305.03 83.84 307.77 C80.87 309.54 77.86 310.23 74.53 311.15 C72.8 311.92 72.8 311.92 71.03 312.71 C67.45 314.18 64.35 314.65 60.53 315.15 C59.7 315.5 58.88 315.85 58.03 316.21 C54.8 317.42 51.95 317.15 48.53 317.15 C47.9 317.47 47.27 317.79 46.62 318.13 C44.1 319.35 42.34 319.4 39.55 319.4 C38.56 319.41 37.57 319.42 36.55 319.42 C35.49 319.42 34.43 319.42 33.34 319.41 C32.25 319.41 31.15 319.41 30.02 319.42 C27.71 319.42 25.4 319.41 23.08 319.41 C19.54 319.4 16 319.41 12.46 319.42 C10.21 319.42 7.96 319.41 5.72 319.41 C4.65 319.41 3.59 319.42 2.5 319.42 C1.02 319.41 1.02 319.41 -0.49 319.4 C-1.36 319.4 -2.23 319.4 -3.12 319.4 C-5.67 319.12 -7.21 318.29 -9.47 317.15 C-10.79 317.15 -12.11 317.15 -13.47 317.15 C-17.4 317.15 -18.23 316.84 -21.47 315.15 C-22.94 314.77 -24.42 314.43 -25.91 314.15 C-29.29 313.43 -32.29 312.53 -35.47 311.15 C-36.8 310.66 -38.14 310.18 -39.47 309.71 C-42.72 308.5 -45.51 306.96 -48.47 305.15 C-50.66 304.45 -50.66 304.45 -52.47 304.15 C-52.47 303.49 -52.47 302.83 -52.47 302.15 C-54.12 302.15 -55.77 302.15 -57.47 302.15 C-57.8 301.49 -58.13 300.83 -58.47 300.15 C-60.42 299.09 -62.41 298.1 -64.41 297.15 C-70.26 294.35 -70.26 294.35 -72.47 292.15 C-73.79 291.45 -75.12 290.78 -76.47 290.15 C-76.47 289.49 -76.47 288.83 -76.47 288.15 C-77.03 287.88 -77.59 287.61 -78.16 287.33 C-80.68 286.04 -83.11 284.72 -85.47 283.15 C-85.47 282.49 -85.47 281.83 -85.47 281.15 C-86.46 280.82 -87.45 280.49 -88.47 280.15 C-88.47 279.49 -88.47 278.83 -88.47 278.15 C-89.28 277.84 -89.28 277.84 -90.1 277.52 C-93.39 275.61 -96.07 273.1 -98.47 270.15 C-98.47 269.49 -98.47 268.83 -98.47 268.15 C-99.46 267.82 -100.45 267.49 -101.47 267.15 C-101.47 266.49 -101.47 265.83 -101.47 265.15 C-102.13 265.15 -102.79 265.15 -103.47 265.15 C-104.76 263.68 -104.76 263.68 -106.1 261.77 C-106.54 261.14 -106.99 260.52 -107.45 259.87 C-108.47 258.15 -108.47 258.15 -108.47 256.15 C-109.13 256.15 -109.79 256.15 -110.47 256.15 C-110.91 255.22 -111.34 254.29 -111.78 253.33 C-113.21 250.26 -113.21 250.26 -114.97 248.65 C-116.47 247.15 -116.47 247.15 -117.91 244.21 C-119.29 241.1 -119.29 241.1 -121.6 239.02 C-123.73 236.88 -123.8 236.01 -124.47 233.15 C-125.19 231.3 -125.95 229.47 -126.72 227.65 C-127.17 226.59 -127.61 225.53 -128.07 224.43 C-128.98 222.3 -129.89 220.17 -130.81 218.04 C-135.03 208.14 -137.68 199.07 -138.94 188.34 C-139.3 185.25 -139.3 185.25 -140.49 183.08 C-141.94 178.74 -141.72 174.57 -141.67 170.03 C-141.66 168.58 -141.66 168.58 -141.66 167.09 C-141.65 164.01 -141.62 160.92 -141.6 157.83 C-141.59 155.74 -141.58 153.64 -141.57 151.54 C-141.55 146.41 -141.51 141.28 -141.47 136.15 C-140.81 135.82 -140.15 135.49 -139.47 135.15 C-139.04 132.17 -139.04 132.17 -138.91 128.71 C-138.57 122.33 -138.57 122.33 -137.47 120.15 C-137.26 118.38 -137.26 118.38 -137.03 116.58 C-136.85 115.45 -136.66 114.31 -136.47 113.15 C-135.48 112.65 -135.48 112.65 -134.47 112.15 C-134.06 109.82 -133.73 107.49 -133.47 105.15 C-132.81 105.15 -132.15 105.15 -131.47 105.15 C-131.47 103.17 -131.47 101.19 -131.47 99.15 C-130.48 98.65 -130.48 98.65 -129.47 98.15 C-128.79 96.15 -128.13 94.15 -127.47 92.15 C-126.76 90.97 -126.76 90.97 -126.03 89.77 C-124.31 86.87 -123.28 84.01 -122.22 80.82 C-121.47 79.15 -121.47 79.15 -119.47 78.15 C-119 76.99 -118.52 75.84 -118.03 74.65 C-117.52 73.49 -117 72.34 -116.47 71.15 C-114.99 70.65 -114.99 70.65 -113.47 70.15 C-113.39 69.24 -113.31 68.33 -113.22 67.4 C-112.38 63.73 -111.39 62.45 -108.47 60.15 C-107.81 60.15 -107.15 60.15 -106.47 60.15 C-106.14 59.16 -105.81 58.17 -105.47 57.15 C-102.92 50.77 -96.68 46.51 -91.66 42.11 C-90.17 40.77 -88.72 39.39 -87.32 37.96 C-85.06 35.74 -83.51 35.16 -80.47 34.15 C-80.47 33.49 -80.47 32.83 -80.47 32.15 C-78.82 31.13 -77.15 30.13 -75.47 29.15 C-75.14 28.49 -74.81 27.83 -74.47 27.15 C-73.15 27.15 -71.83 27.15 -70.47 27.15 C-69.98 25.66 -69.98 25.66 -69.47 24.15 C-65.91 21.86 -62.7 19.82 -58.47 19.15 C-58.47 18.49 -58.47 17.83 -58.47 17.15 C-57.59 16.88 -56.7 16.61 -55.78 16.33 C-52.68 15.22 -50.26 13.86 -47.47 12.15 C-45.82 11.45 -44.15 10.78 -42.47 10.15 C-41.36 9.63 -40.24 9.11 -39.1 8.58 C-35.49 7.15 -32.32 6.54 -28.47 6.15 C-28.47 5.49 -28.47 4.83 -28.47 4.15 C-27.69 4.1 -26.91 4.05 -26.1 4 C-24.58 3.88 -24.58 3.88 -23.03 3.77 C-22.03 3.7 -21.02 3.63 -19.98 3.56 C-19.15 3.42 -18.32 3.29 -17.47 3.15 C-17.14 2.49 -16.81 1.83 -16.47 1.15 C-15.69 1.16 -14.91 1.17 -14.1 1.18 C-13.09 1.19 -12.08 1.2 -11.03 1.21 C-9.52 1.23 -9.52 1.23 -7.98 1.24 C-4.97 1.13 -3.27 0.01 0 0 Z " fill="#047857" transform="translate(620.47216796875,-0.145263671875)"/>
<path d="M0 0 C0.33 0 0.66 0 1 0 C1 52.8 1 105.6 1 160 C0.67 160 0.34 160 0 160 C0 107.2 0 54.4 0 0 Z " fill="#FCFDFF" transform="translate(960,1120)"/>
<path d="M0 0 C26.07 0 52.14 0 79 0 C79 0.33 79 0.66 79 1 C52.93 1 26.86 1 0 1 C0 0.67 0 0.34 0 0 Z " fill="#FCFDFF" transform="translate(320,640)"/>
<path d="M0 0 C10.56 0 21.12 0 32 0 C32 0.33 32 0.66 32 1 C21.44 1 10.88 1 0 1 C0 0.67 0 0.34 0 0 Z " fill="#FCFDFF" transform="translate(624,320)"/>
<path d="M0 0 C0.33 0 0.66 0 1 0 C1 10.56 1 21.12 1 32 C0.67 32 0.34 32 0 32 C0 21.44 0 10.88 0 0 Z " fill="#FCFDFF" transform="translate(800,144)"/>
<path d="M0 0 C0.33 0 0.66 0 1 0 C1 5.28 1 10.56 1 16 C0.67 16 0.34 16 0 16 C0 10.72 0 5.44 0 0 Z " fill="#FCFDFF" transform="translate(800,480)"/>
<path d="M0 0 C1.98 0 3.96 0 6 0 C6 0.33 6 0.66 6 1 C4.02 1 2.04 1 0 1 C0 0.67 0 0.34 0 0 Z " fill="#FCFDFF" transform="translate(410,642)"/>
<path d="M0 0 C1.98 0 3.96 0 6 0 C6 0.33 6 0.66 6 1 C4.02 1 2.04 1 0 1 C0 0.67 0 0.34 0 0 Z " fill="#FCFDFF" transform="translate(605,317)"/>
<path d="M0 0 C2 1 2 1 2 1 Z " fill="#FCFDFF" transform="translate(696,310)"/>
<path d="M0 0 C2 1 2 1 2 1 Z " fill="#FCFDFF" transform="translate(582,310)"/>
<path d="" fill="#FCFDFF" transform="translate(0,0)"/>
<path d="" fill="#FCFDFF" transform="translate(0,0)"/>
<path d="" fill="#FCFDFF" transform="translate(0,0)"/>
<path d="" fill="#FCFDFF" transform="translate(0,0)"/>
<path d="" fill="#FCFDFF" transform="translate(0,0)"/>
<path d="" fill="#047857" transform="translate(0,0)"/>
<path d="" fill="#047857" transform="translate(0,0)"/>
<path d="" fill="#047857" transform="translate(0,0)"/>
<path d="" fill="#047857" transform="translate(0,0)"/>
<path d="" fill="#047857" transform="translate(0,0)"/>
<path d="" fill="#047857" transform="translate(0,0)"/>
<path d="" fill="#FCFDFF" transform="translate(0,0)"/>
<path d="" fill="#FCFDFF" transform="translate(0,0)"/>
<path d="" fill="#FCFDFF" transform="translate(0,0)"/>
<path d="" fill="#FCFDFF" transform="translate(0,0)"/>
<path d="" fill="#FCFDFF" transform="translate(0,0)"/>
<path d="" fill="#047857" transform="translate(0,0)"/>
<path d="" fill="#047857" transform="translate(0,0)"/>
<path d="" fill="#FCFDFF" transform="translate(0,0)"/>
<path d="" fill="#FCFDFF" transform="translate(0,0)"/>
<path d="" fill="#FCFDFF" transform="translate(0,0)"/>
<path d="" fill="#FCFDFF" transform="translate(0,0)"/>
<path d="" fill="#FCFDFF" transform="translate(0,0)"/>
<path d="" fill="#FCFDFF" transform="translate(0,0)"/>
<path d="" fill="#FCFDFF" transform="translate(0,0)"/>
<path d="" fill="#FCFDFF" transform="translate(0,0)"/>
<path d="" fill="#FCFDFF" transform="translate(0,0)"/>
<path d="" fill="#FCFDFF" transform="translate(0,0)"/>
<path d="" fill="#FCFDFF" transform="translate(0,0)"/>
<path d="" fill="#FCFDFF" transform="translate(0,0)"/>
<path d="" fill="#FCFDFF" transform="translate(0,0)"/>
<path d="" fill="#FCFDFF" transform="translate(0,0)"/>
<path d="" fill="#FCFDFF" transform="translate(0,0)"/>
<path d="" fill="#FCFDFF" transform="translate(0,0)"/>
<path d="" fill="#FCFDFF" transform="translate(0,0)"/>
<path d="" fill="#FCFDFF" transform="translate(0,0)"/>
<path d="" fill="#047857" transform="translate(0,0)"/>
<path d="" fill="#FCFDFF" transform="translate(0,0)"/>
<path d="" fill="#047857" transform="translate(0,0)"/>
<path d="" fill="#FCFDFF" transform="translate(0,0)"/>
<path d="" fill="#FCFDFF" transform="translate(0,0)"/>
<path d="" fill="#FCFDFF" transform="translate(0,0)"/>
<path d="" fill="#047857" transform="translate(0,0)"/>
<path d="" fill="#FCFDFF" transform="translate(0,0)"/>
<path d="" fill="#FCFDFF" transform="translate(0,0)"/>
<path d="" fill="#FCFDFF" transform="translate(0,0)"/>
<path d="" fill="#FCFDFF" transform="translate(0,0)"/>
<path d="" fill="#047857" transform="translate(0,0)"/>
<path d="" fill="#047857" transform="translate(0,0)"/>
<path d="" fill="#047857" transform="translate(0,0)"/>
<path d="" fill="#047857" transform="translate(0,0)"/>
<path d="" fill="#047857" transform="translate(0,0)"/>
</svg>
