<?xml version="1.0" encoding="UTF-8"?>
<!-- Generator: visioncortex VTracer 0.6.3 -->
<svg version="1.1" xmlns="http://www.w3.org/2000/svg" width="1280" height="1280">
<path d="M0 0 C1.05 -0 1.05 -0 2.13 -0 C3.62 -0 5.1 -0 6.59 0 C8.87 0.01 11.14 0 13.42 -0 C14.86 -0 16.31 -0 17.75 0 C19.07 0 20.38 0 21.74 0 C24.88 0.13 24.88 0.13 26.88 1.13 C28.66 1.29 30.46 1.41 32.25 1.51 C38.72 2.01 44.65 3.34 50.88 5.13 C51.49 5.31 52.11 5.48 52.75 5.66 C62.22 8.37 71.03 11.75 79.88 16.13 C80.88 16.61 81.89 17.08 82.93 17.57 C93.04 22.41 102.08 28.56 110.84 35.54 C112.77 37.05 114.74 38.48 116.75 39.88 C119.09 41.57 120.99 42.99 122.88 45.13 C122.88 45.79 122.88 46.45 122.88 47.13 C123.74 47.53 123.74 47.53 124.62 47.95 C126.93 49.16 128.9 50.44 130.88 52.13 C130.88 52.79 130.88 53.45 130.88 54.13 C131.46 54.39 132.04 54.65 132.64 54.92 C135.05 56.23 136.72 57.68 138.7 59.57 C139.4 60.24 140.1 60.91 140.82 61.59 C141.54 62.29 142.26 62.98 143 63.7 C144.44 65.07 145.88 66.45 147.32 67.82 C147.95 68.43 148.59 69.05 149.24 69.67 C150.83 71.22 150.83 71.22 152.88 72.13 C152.88 72.79 152.88 73.45 152.88 74.13 C153.87 74.46 154.86 74.79 155.88 75.13 C155.88 75.79 155.88 76.45 155.88 77.13 C156.42 77.36 156.96 77.58 157.52 77.82 C160.61 79.55 162.92 81.78 165.5 84.2 C168.92 87.55 168.92 87.55 172.88 90.13 C172.88 90.79 172.88 91.45 172.88 92.13 C173.54 92.13 174.19 92.13 174.88 92.13 C174.88 92.79 174.88 93.45 174.88 94.13 C175.87 94.46 176.86 94.79 177.88 95.13 C177.88 95.79 177.88 96.45 177.88 97.13 C178.74 97.53 178.74 97.53 179.62 97.95 C181.93 99.16 183.9 100.44 185.88 102.13 C185.88 102.79 185.88 103.45 185.88 104.13 C186.71 104.5 186.71 104.5 187.56 104.88 C190.3 106.36 192.55 108.07 194.88 110.13 C194.88 110.79 194.88 111.45 194.88 112.13 C195.46 112.39 196.05 112.65 196.65 112.91 C199.07 114.24 200.61 115.7 202.5 117.7 C204.92 120.27 204.92 120.27 207.88 122.13 C207.88 122.79 207.88 123.45 207.88 124.13 C208.47 124.4 209.06 124.67 209.66 124.95 C211.89 126.14 213.43 127.4 215.26 129.14 C216.17 130 216.17 130 217.11 130.88 C217.73 131.48 218.36 132.08 219 132.7 C220.25 133.89 221.5 135.08 222.76 136.26 C223.31 136.79 223.86 137.32 224.43 137.86 C225.87 139.24 225.87 139.24 227.88 140.13 C227.88 140.79 227.88 141.45 227.88 142.13 C228.74 142.5 228.74 142.5 229.62 142.88 C232.17 144.3 233.82 146.08 235.88 148.13 C236.87 148.46 237.86 148.79 238.88 149.13 C238.88 148.47 238.88 147.81 238.88 147.13 C240.25 145.51 240.25 145.51 241.88 144.13 C242.53 144.13 243.2 144.13 243.88 144.13 C243.88 143.47 243.88 142.81 243.88 142.13 C245.86 140.44 247.85 138.87 249.94 137.32 C250.54 136.87 251.14 136.42 251.76 135.95 C252.94 135.06 254.13 134.18 255.32 133.29 C256.52 132.4 257.7 131.49 258.88 130.57 C263.24 127.25 268.04 124.92 272.97 122.54 C274.64 121.73 276.3 120.9 277.93 120 C303.43 106.02 337.95 105.9 365.31 113.57 C382.03 119.04 397.22 127.23 410.78 138.43 C412.97 140.26 412.97 140.26 415.88 142.13 C415.88 142.79 415.88 143.45 415.88 144.13 C416.53 144.13 417.2 144.13 417.88 144.13 C419.5 145.51 419.5 145.51 420.88 147.13 C420.88 147.79 420.88 148.45 420.88 149.13 C421.87 149.13 422.86 149.13 423.88 149.13 C423.88 148.47 423.88 147.81 423.88 147.13 C429.35 142.13 429.35 142.13 431.88 142.13 C432.21 141.14 432.53 140.15 432.88 139.13 C433.53 139.13 434.2 139.13 434.88 139.13 C434.88 138.47 434.88 137.81 434.88 137.13 C436.38 135.62 436.38 135.62 438.44 133.88 C439.16 133.27 439.89 132.65 440.64 132.02 C441.38 131.4 442.11 130.77 442.88 130.13 C443.54 129.54 444.21 128.95 444.89 128.34 C445.51 127.8 446.12 127.25 446.75 126.7 C447.3 126.2 447.86 125.71 448.43 125.2 C449.88 124.13 449.88 124.13 451.88 124.13 C451.88 123.47 451.88 122.81 451.88 122.13 C452.53 122.13 453.2 122.13 453.88 122.13 C454.21 121.14 454.53 120.15 454.88 119.13 C455.53 119.13 456.2 119.13 456.88 119.13 C456.88 118.47 456.88 117.81 456.88 117.13 C458.49 115.68 460.17 114.29 461.88 112.95 C469.37 106.94 476.46 100.8 483.06 93.82 C484.88 92.13 484.88 92.13 486.88 92.13 C486.88 91.47 486.88 90.81 486.88 90.13 C488.27 88.72 488.27 88.72 490.25 87.07 C494.53 83.44 498.66 79.67 502.77 75.86 C504.88 74.13 504.88 74.13 506.88 74.13 C506.88 73.47 506.88 72.81 506.88 72.13 C507.53 72.13 508.2 72.13 508.88 72.13 C508.88 71.47 508.88 70.81 508.88 70.13 C510.52 68.44 510.52 68.44 512.69 66.57 C513.4 65.95 514.1 65.33 514.83 64.69 C516.88 63.13 516.88 63.13 519.88 62.13 C519.88 61.47 519.88 60.81 519.88 60.13 C521.34 58.62 521.34 58.62 523.25 57.01 C524.19 56.2 524.19 56.2 525.15 55.38 C526.88 54.13 526.88 54.13 528.88 54.13 C528.88 53.47 528.88 52.81 528.88 52.13 C534.35 47.13 534.35 47.13 536.88 47.13 C537.21 46.14 537.53 45.15 537.88 44.13 C538.53 44.13 539.2 44.13 539.88 44.13 C539.88 43.47 539.88 42.81 539.88 42.13 C541.69 40.54 543.51 39.08 545.44 37.63 C546.02 37.19 546.6 36.75 547.2 36.3 C561.36 25.71 576.18 16.2 592.88 10.13 C593.58 9.86 594.29 9.58 595.02 9.3 C599.25 7.66 603.48 6.3 607.88 5.13 C608.76 4.88 609.65 4.64 610.56 4.38 C616.89 2.67 622.93 1.7 629.48 1.34 C631.89 1.28 631.89 1.28 633.88 0.13 C636.33 0.03 638.76 -0.01 641.22 0 C641.94 -0 642.67 -0 643.42 -0 C644.95 -0 646.48 -0 648.02 0 C650.37 0.01 652.72 0 655.07 -0 C656.55 -0 658.04 -0 659.53 0 C660.24 -0 660.94 -0 661.67 -0.01 C666.65 0.02 666.65 0.02 668.88 1.13 C670.62 1.26 672.37 1.36 674.12 1.45 C681.37 1.99 687.96 3.98 694.88 6.13 C698.18 7.09 701.48 8.03 704.8 8.89 C713.92 11.39 721.76 15.5 729.97 20.08 C731.57 20.97 733.2 21.8 734.84 22.63 C742.98 26.75 750.04 32.29 757.22 37.86 C758.57 38.9 759.96 39.89 761.35 40.87 C761.85 41.29 762.36 41.7 762.88 42.13 C762.88 42.79 762.88 43.45 762.88 44.13 C763.87 44.46 764.86 44.79 765.88 45.13 C765.88 45.79 765.88 46.45 765.88 47.13 C766.54 47.13 767.19 47.13 767.88 47.13 C767.88 47.79 767.88 48.45 767.88 49.13 C768.87 49.46 769.86 49.79 770.88 50.13 C770.88 50.79 770.88 51.45 770.88 52.13 C771.54 52.13 772.19 52.13 772.88 52.13 C772.88 52.79 772.88 53.45 772.88 54.13 C773.87 54.46 774.86 54.79 775.88 55.13 C775.88 55.79 775.88 56.45 775.88 57.13 C776.54 57.13 777.19 57.13 777.88 57.13 C779.6 59.18 781.22 61.23 782.81 63.38 C783.26 63.97 783.7 64.56 784.15 65.16 C785.02 66.3 785.87 67.45 786.72 68.6 C787.68 69.88 788.68 71.13 789.69 72.37 C790.88 74.13 790.88 74.13 790.88 77.13 C791.54 77.13 792.19 77.13 792.88 77.13 C793.26 77.93 793.65 78.73 794.05 79.55 C797.21 86.05 797.21 86.05 801 92.2 C803.2 95.65 804.44 99.1 805.75 102.96 C806.7 105.64 807.74 108.23 808.84 110.85 C810.89 115.96 812.28 121.08 813.5 126.45 C813.7 127.29 813.91 128.14 814.12 129.01 C816.94 141.08 818.23 152.77 818.19 165.13 C818.19 167.37 818.21 169.6 818.24 171.83 C818.28 182.22 816.97 191.97 814.88 202.13 C814.7 203.06 814.52 204 814.34 204.96 C813.26 210.65 811.12 215.8 808.88 221.13 C808.23 222.8 807.58 224.47 806.94 226.13 C803.86 233.81 799.98 240.97 795.88 248.13 C797.01 248.13 798.15 248.13 799.32 248.13 C810.07 248.11 820.83 248.09 831.58 248.08 C837.11 248.08 842.63 248.07 848.16 248.06 C853.5 248.05 858.85 248.04 864.19 248.04 C866.22 248.04 868.25 248.03 870.28 248.03 C906.81 247.93 906.81 247.93 920.06 255.15 C922.91 256.69 925.89 257.88 928.88 259.13 C929.54 259.46 930.19 259.79 930.88 260.13 C930.88 260.79 930.88 261.45 930.88 262.13 C931.42 262.21 931.97 262.28 932.53 262.36 C935.77 263.43 937.83 265.31 940.44 267.51 C941.39 268.3 942.34 269.09 943.32 269.91 C947.49 273.54 947.49 273.54 948.88 275.13 C948.88 275.79 948.88 276.45 948.88 277.13 C949.54 277.13 950.19 277.13 950.88 277.13 C951.54 278.78 952.19 280.43 952.88 282.13 C953.54 282.13 954.19 282.13 954.88 282.13 C959.87 288.93 963.6 296.06 966.18 304.09 C966.7 306.1 966.7 306.1 967.88 307.13 C968.21 309.47 968.54 311.8 968.88 314.13 C969.2 314.46 969.54 314.79 969.88 315.13 C969.98 317.12 970.02 319.12 970.03 321.11 C970.04 322.41 970.05 323.71 970.05 325.05 C970.06 326.5 970.06 327.95 970.07 329.41 C970.08 330.93 970.08 332.45 970.09 333.97 C970.12 338.98 970.13 343.99 970.15 349 C970.15 350.73 970.16 352.45 970.16 354.18 C970.19 361.36 970.2 368.54 970.22 375.72 C970.23 386 970.27 396.28 970.32 406.57 C970.36 413.8 970.38 421.03 970.39 428.26 C970.39 432.58 970.4 436.9 970.43 441.22 C970.46 445.28 970.47 449.35 970.46 453.42 C970.46 454.91 970.47 456.4 970.48 457.88 C970.58 466.73 969.8 473.58 964.88 481.13 C964.42 481.84 963.97 482.55 963.51 483.28 C962.19 485.26 962.19 485.26 959.88 488.13 C959.21 488.13 958.56 488.13 957.88 488.13 C957.88 488.79 957.88 489.45 957.88 490.13 C955.89 491.72 955.89 491.72 953.12 493.51 C952.24 494.09 951.36 494.68 950.45 495.28 C938.8 501.7 927.46 501.7 914.53 501.64 C912.46 501.64 910.39 501.65 908.31 501.65 C902.61 501.67 896.91 501.66 891.21 501.65 C885 501.64 878.8 501.65 872.6 501.66 C861.73 501.67 850.85 501.67 839.98 501.66 C828.32 501.65 816.65 501.65 804.99 501.66 C803.89 501.66 803.89 501.66 802.76 501.66 C799.76 501.66 796.75 501.66 793.75 501.67 C765.8 501.69 737.84 501.69 709.89 501.68 C709.06 501.68 708.23 501.68 707.38 501.68 C706.13 501.68 706.13 501.68 704.86 501.68 C679.6 501.67 654.33 501.66 629.06 501.67 C627.37 501.67 625.68 501.67 623.99 501.67 C617.19 501.67 610.39 501.67 603.59 501.67 C584.59 501.68 565.58 501.68 546.58 501.68 C545.71 501.68 544.84 501.68 543.95 501.68 C516.37 501.68 488.8 501.68 461.22 501.67 C459.88 501.67 459.88 501.67 458.51 501.67 C443.98 501.66 429.45 501.66 414.93 501.65 C357.32 501.63 299.7 501.63 242.09 501.65 C227.57 501.66 213.05 501.66 198.53 501.67 C197.64 501.67 196.74 501.67 195.82 501.67 C168.27 501.68 140.72 501.68 113.17 501.68 C112.31 501.68 111.44 501.68 110.55 501.68 C91.57 501.68 72.59 501.68 53.6 501.67 C46.81 501.67 40.02 501.67 33.22 501.67 C31.53 501.67 29.84 501.67 28.15 501.67 C2.89 501.66 -22.37 501.67 -47.63 501.68 C-48.45 501.68 -49.28 501.68 -50.14 501.68 C-51.38 501.68 -51.38 501.68 -52.64 501.68 C-80.51 501.69 -108.39 501.69 -136.26 501.66 C-139.26 501.66 -142.25 501.66 -145.24 501.66 C-145.98 501.66 -146.71 501.66 -147.47 501.66 C-159.1 501.65 -170.73 501.65 -182.36 501.67 C-193.8 501.68 -205.24 501.67 -216.67 501.65 C-222.79 501.64 -228.91 501.64 -235.03 501.66 C-240.59 501.67 -246.16 501.66 -251.73 501.64 C-253.73 501.64 -255.73 501.64 -257.73 501.65 C-273.84 501.73 -286.14 499.69 -298.75 488.88 C-305.16 481.46 -310.38 474.7 -310.37 464.62 C-310.38 463.3 -310.38 461.98 -310.38 460.62 C-310.38 459.17 -310.37 457.71 -310.37 456.26 C-310.37 454.72 -310.37 453.19 -310.37 451.65 C-310.38 447.49 -310.37 443.32 -310.36 439.16 C-310.35 434.8 -310.35 430.45 -310.35 426.09 C-310.35 418.78 -310.34 411.47 -310.33 404.16 C-310.32 395.7 -310.31 387.24 -310.31 378.77 C-310.31 370.64 -310.31 362.51 -310.3 354.37 C-310.29 350.91 -310.29 347.44 -310.29 343.98 C-310.29 339.9 -310.28 335.83 -310.27 331.75 C-310.27 330.25 -310.27 328.75 -310.27 327.26 C-310.27 325.22 -310.27 323.18 -310.26 321.14 C-310.26 319.43 -310.26 319.43 -310.25 317.68 C-310.12 315.13 -310.12 315.13 -309.12 314.13 C-309.02 313.12 -308.92 312.11 -308.81 311.07 C-308.13 307.14 -307.01 304.56 -305.16 301.09 C-303.98 298.94 -303.98 298.94 -302.75 295.76 C-300.62 291 -298.18 286.37 -295.12 282.13 C-294.46 282.13 -293.81 282.13 -293.12 282.13 C-292.9 281.41 -292.67 280.69 -292.44 279.95 C-290.86 276.56 -288.92 274.59 -286.12 272.13 C-285.13 271.8 -284.14 271.47 -283.12 271.13 C-283.12 270.47 -283.12 269.81 -283.12 269.13 C-281.48 268.47 -279.82 267.81 -278.12 267.13 C-278.12 266.47 -278.12 265.81 -278.12 265.13 C-269.33 258.57 -259.25 253.36 -248.62 250.57 C-247.71 250.32 -246.79 250.07 -245.84 249.82 C-233.33 247.52 -220.4 247.92 -207.73 247.82 C-205.69 247.8 -203.64 247.77 -201.6 247.75 C-196.26 247.7 -190.92 247.65 -185.58 247.6 C-180.12 247.55 -174.66 247.49 -169.19 247.44 C-158.5 247.33 -147.81 247.23 -137.12 247.13 C-137.67 246.12 -138.21 245.11 -138.77 244.06 C-139.49 242.71 -140.21 241.36 -140.94 240.01 C-141.29 239.34 -141.65 238.68 -142.02 237.99 C-145.29 231.87 -148.31 226.02 -150.25 219.32 C-151.12 215.42 -151.12 215.42 -153.12 212.13 C-153.62 210.1 -154.09 208.06 -154.52 206 C-154.94 204.01 -155.4 202.02 -155.88 200.04 C-158.15 190.12 -158.59 180.58 -158.52 170.42 C-158.5 167.77 -158.52 165.12 -158.54 162.47 C-158.55 151.37 -157.42 140.98 -155.12 130.13 C-154.81 128.49 -154.5 126.84 -154.19 125.2 C-153.25 121.16 -151.73 117.42 -150.13 113.61 C-149.18 111.26 -148.38 108.92 -147.62 106.51 C-146.47 102.99 -145.07 99.78 -143.36 96.5 C-142.06 94.01 -140.83 91.5 -139.6 88.99 C-136.74 83.17 -133.85 77.46 -130.12 72.13 C-129.47 72.13 -128.81 72.13 -128.12 72.13 C-127.75 71.06 -127.75 71.06 -127.38 69.96 C-125.99 66.82 -124.28 64.49 -122.12 61.82 C-121.42 60.94 -120.72 60.05 -120 59.14 C-119.07 58.15 -119.07 58.15 -118.12 57.13 C-117.47 57.13 -116.81 57.13 -116.12 57.13 C-115.89 56.57 -115.65 56.01 -115.41 55.43 C-113.84 52.61 -111.91 50.65 -109.62 48.38 C-108.83 47.58 -108.04 46.78 -107.22 45.96 C-105.12 44.13 -105.12 44.13 -103.12 44.13 C-103.12 43.47 -103.12 42.81 -103.12 42.13 C-101.31 40.54 -99.49 39.08 -97.56 37.63 C-96.98 37.19 -96.39 36.75 -95.78 36.29 C-93.91 34.89 -92.02 33.51 -90.12 32.13 C-89.55 31.71 -88.97 31.28 -88.38 30.85 C-77.69 23.09 -66.16 17.5 -54.12 12.13 C-53.48 11.84 -52.84 11.55 -52.18 11.25 C-46.03 8.53 -39.61 6.89 -33.12 5.13 C-32.08 4.84 -31.04 4.55 -29.97 4.25 C-23.81 2.58 -17.9 1.7 -11.52 1.34 C-7.5 0.99 -4.27 0 0 0 Z M-15.12 89.13 C-16.15 89.52 -17.17 89.91 -18.22 90.3 C-21.22 91.51 -24.18 92.8 -27.12 94.13 C-27.84 94.44 -28.56 94.75 -29.3 95.06 C-37.33 98.71 -44.11 104.78 -50.12 111.13 C-51.05 112.02 -51.98 112.91 -52.94 113.82 C-55.35 115.84 -55.35 115.84 -55.12 118.13 C-55.78 118.13 -56.44 118.13 -57.12 118.13 C-62.5 125.01 -66.3 132.92 -69.12 141.13 C-69.39 141.89 -69.65 142.65 -69.92 143.43 C-72.39 151.35 -72.57 158.88 -72.5 167.13 C-72.51 168.42 -72.52 169.71 -72.54 171.04 C-72.5 181.39 -70.67 190.08 -66.56 199.57 C-66.15 200.54 -65.73 201.51 -65.31 202.5 C-64.3 204.75 -63.25 206.95 -62.12 209.13 C-61.47 209.13 -60.81 209.13 -60.12 209.13 C-59.92 209.79 -59.71 210.45 -59.5 211.13 C-57.63 215.2 -55.15 218.82 -52.12 222.13 C-51.46 222.13 -50.81 222.13 -50.12 222.13 C-49.8 223.12 -49.46 224.11 -49.12 225.13 C-48.46 225.13 -47.81 225.13 -47.12 225.13 C-47.12 225.79 -47.12 226.45 -47.12 227.13 C-45.2 228.83 -43.29 230.4 -41.25 231.95 C-40.36 232.62 -40.36 232.62 -39.45 233.31 C-31.41 239.28 -23.34 242.59 -13.71 245.34 C-11.12 246.13 -11.12 246.13 -10.12 247.13 C1.07 248.55 12.45 248.28 23.72 248.26 C25.68 248.26 27.64 248.27 29.6 248.27 C34.88 248.27 40.16 248.27 45.45 248.27 C50.98 248.26 56.52 248.27 62.06 248.27 C71.34 248.27 80.62 248.27 89.9 248.26 C100.64 248.26 111.38 248.26 122.12 248.27 C131.35 248.27 140.58 248.27 149.81 248.27 C155.32 248.27 160.83 248.27 166.34 248.27 C171.51 248.27 176.68 248.27 181.84 248.26 C183.74 248.26 185.65 248.26 187.55 248.27 C190.13 248.27 192.71 248.26 195.29 248.26 C196.06 248.26 196.82 248.26 197.6 248.27 C201.03 248.56 201.03 248.56 203.88 247.13 C204.57 242.15 205.16 237.16 202.38 232.78 C200.63 231.01 198.97 229.48 196.88 228.13 C196.21 228.13 195.56 228.13 194.88 228.13 C194.55 227.14 194.21 226.15 193.88 225.13 C193.21 225.13 192.56 225.13 191.88 225.13 C191.88 224.47 191.88 223.81 191.88 223.13 C190.16 221.32 190.16 221.32 188 219.51 C187.28 218.88 186.56 218.24 185.82 217.59 C184.01 215.93 184.01 215.93 181.88 216.13 C181.54 215.14 181.22 214.15 180.88 213.13 C179.32 211.52 179.32 211.52 177.38 209.95 C173.41 206.6 169.58 203.14 165.76 199.64 C164.02 197.92 164.02 197.92 161.88 198.13 C161.88 197.47 161.88 196.81 161.88 196.13 C160.54 194.47 160.54 194.47 158.88 193.13 C158.22 193.13 157.56 193.13 156.88 193.13 C156.88 192.47 156.88 191.81 156.88 191.13 C155.18 189.62 153.41 188.17 151.62 186.76 C148.82 184.54 146.14 182.4 143.64 179.84 C142.05 177.9 142.05 177.9 139.88 178.13 C139.88 177.47 139.88 176.81 139.88 176.13 C138.2 174.36 138.2 174.36 136.06 172.57 C135 171.64 135 171.64 133.92 170.69 C131.86 168.95 131.86 168.95 128.88 168.13 C128.88 167.47 128.88 166.81 128.88 166.13 C127.43 164.63 127.43 164.63 125.5 163.07 C121.29 159.5 117.22 155.8 113.17 152.05 C111.12 150.34 109.32 149.19 106.88 148.13 C106.88 147.47 106.88 146.81 106.88 146.13 C105.43 144.63 105.43 144.63 103.5 143.07 C99.22 139.44 95.09 135.67 90.98 131.86 C89.07 129.92 89.07 129.92 86.88 130.13 C86.88 129.47 86.88 128.81 86.88 128.13 C85.19 126.43 85.19 126.43 83.06 124.7 C79.02 121.29 79.02 121.29 77.24 119.41 C75.94 117.9 75.94 117.9 73.88 118.13 C73.88 117.47 73.88 116.81 73.88 116.13 C72.39 114.55 72.39 114.55 70.5 113.01 C69.87 112.47 69.25 111.93 68.6 111.38 C66.96 109.94 66.96 109.94 64.88 110.13 C64.88 109.47 64.88 108.81 64.88 108.13 C62.91 106.44 60.95 104.87 58.88 103.32 C58.28 102.87 57.68 102.42 57.06 101.95 C55.34 100.67 53.61 99.4 51.88 98.13 C51.14 97.6 50.41 97.06 49.65 96.5 C44.88 93.27 39.81 91.61 34.32 89.93 C31.88 89.13 31.88 89.13 30.88 88.13 C23.65 86.1 16.46 85.78 9 85.82 C7.94 85.83 6.88 85.83 5.79 85.84 C-1.55 85.95 -8.21 86.51 -15.12 89.13 Z M628.88 89.13 C627.95 89.43 627.02 89.74 626.07 90.05 C619.72 92.21 613.79 95 607.88 98.13 C607.88 98.79 607.88 99.45 607.88 100.13 C606.81 100.49 606.81 100.49 605.72 100.86 C602.41 102.34 600.08 104.23 597.31 106.57 C591.99 111.05 591.99 111.05 589.54 112.79 C588.99 113.24 588.44 113.68 587.88 114.13 C587.88 114.79 587.88 115.45 587.88 116.13 C587.34 116.36 586.8 116.59 586.25 116.82 C583.05 118.59 580.58 120.67 577.88 123.13 C577.88 123.79 577.88 124.45 577.88 125.13 C576.39 125.63 576.39 125.63 574.88 126.13 C574.88 126.79 574.88 127.45 574.88 128.13 C574.33 128.36 573.79 128.58 573.23 128.82 C570.14 130.55 567.83 132.78 565.25 135.2 C560.07 140.04 560.07 140.04 557.88 141.13 C557.88 141.79 557.88 142.45 557.88 143.13 C557.22 143.13 556.56 143.13 555.88 143.13 C554.21 144.47 554.21 144.47 552.88 146.13 C552.88 146.79 552.88 147.45 552.88 148.13 C552.33 148.36 551.79 148.58 551.23 148.82 C548.14 150.55 545.83 152.78 543.25 155.2 C538.07 160.04 538.07 160.04 535.88 161.13 C535.88 161.79 535.88 162.45 535.88 163.13 C534.39 163.63 534.39 163.63 532.88 164.13 C532.88 164.79 532.88 165.45 532.88 166.13 C532.34 166.36 531.8 166.59 531.25 166.82 C528.05 168.59 525.58 170.67 522.88 173.13 C522.88 173.79 522.88 174.45 522.88 175.13 C522.28 175.4 521.69 175.67 521.09 175.95 C518.86 177.14 517.32 178.4 515.49 180.14 C514.88 180.71 514.27 181.29 513.64 181.88 C513.02 182.48 512.39 183.08 511.75 183.7 C510.5 184.89 509.25 186.08 507.99 187.26 C507.44 187.79 506.89 188.32 506.32 188.86 C504.88 190.13 504.88 190.13 502.88 191.13 C502.88 191.79 502.88 192.45 502.88 193.13 C502.29 193.39 501.7 193.65 501.1 193.91 C498.68 195.24 497.14 196.7 495.25 198.7 C492.07 202.04 492.07 202.04 489.88 203.13 C489.88 203.79 489.88 204.45 489.88 205.13 C489.32 205.38 488.76 205.63 488.19 205.88 C485.45 207.36 483.2 209.07 480.88 211.13 C480.88 211.79 480.88 212.45 480.88 213.13 C480.32 213.36 479.76 213.59 479.19 213.82 C476.24 215.49 474.24 217.71 471.88 220.13 C471.11 220.69 470.35 221.25 469.56 221.82 C469.01 222.25 468.45 222.69 467.88 223.13 C467.88 223.79 467.88 224.45 467.88 225.13 C467.32 225.38 466.76 225.63 466.19 225.88 C463.45 227.36 461.2 229.07 458.88 231.13 C458.88 231.79 458.88 232.45 458.88 233.13 C457.88 233.46 456.89 233.79 455.88 234.13 C455.85 236.28 455.83 238.42 455.81 240.57 C455.8 241.77 455.79 242.96 455.78 244.19 C455.54 247.02 455.54 247.02 456.88 248.13 C459.38 248.23 461.85 248.27 464.35 248.26 C465.14 248.26 465.93 248.26 466.75 248.26 C469.42 248.27 472.1 248.27 474.77 248.26 C476.68 248.26 478.59 248.27 480.5 248.27 C485.71 248.27 490.92 248.27 496.13 248.27 C501.58 248.26 507.03 248.27 512.48 248.27 C521.64 248.27 530.81 248.27 539.98 248.26 C550.55 248.26 561.13 248.26 571.71 248.27 C580.79 248.27 589.88 248.27 598.96 248.27 C604.39 248.27 609.81 248.27 615.23 248.27 C620.34 248.27 625.46 248.27 630.57 248.26 C632.44 248.26 634.3 248.26 636.17 248.27 C656.36 248.58 656.36 248.58 675.88 244.13 C676.83 243.78 677.79 243.43 678.77 243.07 C689.85 238.74 700.2 232.32 708.88 224.13 C708.88 223.47 708.88 222.81 708.88 222.13 C709.87 221.8 710.86 221.47 711.88 221.13 C717.91 214.26 723.09 206.46 726.88 198.13 C727.36 197.07 727.85 196 728.35 194.91 C731.85 185.78 732.34 177.13 732.38 167.38 C732.38 165.55 732.38 165.55 732.39 163.69 C732.11 143.27 724.01 125.35 710.23 110.38 C707.31 107.59 704.24 105.06 701.06 102.57 C700.22 101.91 700.22 101.91 699.35 101.23 C696 98.66 696 98.66 691.88 98.13 C691.88 97.47 691.88 96.81 691.88 96.13 C678.49 89.91 666.94 85.73 652 85.82 C650.55 85.83 650.55 85.83 649.07 85.83 C641.97 85.95 635.6 86.76 628.88 89.13 Z " fill="#047857" transform="translate(310.125,-0.1328125)"/>
<path d="M0 0 C0.76 0 1.52 0 2.3 0.01 C3.5 0 3.5 0 4.72 0 C7.44 -0 10.16 0 12.88 0.01 C14.84 0 16.79 0 18.75 0 C24.15 -0 29.55 -0 34.95 0 C40.76 0 46.57 0 52.39 -0 C63.79 -0.01 75.19 -0.01 86.58 -0 C95.84 -0 105.1 0 114.36 -0 C115.68 -0 116.99 -0 118.35 -0 C120.35 -0 122.35 -0 124.35 -0 C149.39 -0.01 174.42 -0 199.45 0 C221.72 0.01 243.98 0.01 266.24 0 C291.22 -0 316.21 -0 341.2 -0 C343.86 -0 346.52 -0 349.18 -0 C350.49 -0 351.8 -0 353.15 -0 C362.41 0 371.66 -0 380.91 -0 C392.18 -0.01 403.45 -0.01 414.72 -0 C420.48 0 426.24 0 431.99 0 C437.25 -0 442.51 -0 447.77 0 C449.68 0.01 451.6 0 453.51 0 C456.09 -0 458.67 0 461.25 0.01 C462.01 0 462.76 0 463.55 0 C468.66 0.02 468.66 0.02 469.77 1.13 C469.87 2.49 469.9 3.86 469.9 5.22 C469.9 6.11 469.91 7 469.91 7.92 C469.91 9.4 469.91 9.4 469.9 10.92 C469.91 11.96 469.91 13.01 469.91 14.08 C469.92 17.63 469.91 21.18 469.91 24.73 C469.92 27.29 469.92 29.84 469.92 32.39 C469.93 38.7 469.93 45.01 469.93 51.32 C469.93 58.87 469.94 66.43 469.95 73.98 C469.96 92.25 469.97 110.51 469.97 128.77 C469.98 137.41 469.98 146.05 469.98 154.69 C470 184.26 470.01 213.83 470.01 243.39 C470.01 245.25 470.01 247.11 470.01 248.97 C470.01 250.83 470.01 252.69 470.01 254.55 C470.01 258.29 470.01 262.02 470.01 265.76 C470.01 267.15 470.01 267.15 470.01 268.57 C470.02 298.58 470.03 328.6 470.06 358.61 C470.08 390.34 470.09 422.06 470.1 453.79 C470.1 457.27 470.1 460.75 470.1 464.24 C470.1 465.1 470.1 465.95 470.1 466.84 C470.1 480.64 470.11 494.44 470.12 508.24 C470.14 522.12 470.14 536 470.13 549.87 C470.13 558.12 470.13 566.36 470.15 574.6 C470.16 580.76 470.15 586.92 470.14 593.08 C470.14 595.57 470.14 598.06 470.15 600.55 C470.23 624.34 470.23 624.34 466.77 636.13 C466.58 636.84 466.39 637.55 466.19 638.28 C463.54 647.51 459.07 655.22 453.77 663.13 C453.11 664.12 452.45 665.11 451.77 666.13 C451.11 666.13 450.45 666.13 449.77 666.13 C449.5 666.9 449.24 667.66 448.96 668.45 C447.82 671.02 446.96 672.4 444.77 674.13 C444.11 674.13 443.45 674.13 442.77 674.13 C442.77 674.79 442.77 675.45 442.77 676.13 C441.04 677.58 439.23 678.94 437.4 680.26 C436.4 680.98 435.4 681.71 434.37 682.45 C431.77 684.13 431.77 684.13 429.77 684.13 C429.77 684.79 429.77 685.45 429.77 686.13 C427.07 687.43 424.36 688.72 421.65 690.01 C420.89 690.37 420.13 690.74 419.34 691.11 C413.66 693.81 408.3 696.19 401.96 696.7 C399.07 696.74 399.07 696.74 396.77 698.13 C394.64 698.23 392.51 698.26 390.37 698.26 C389.35 698.26 389.35 698.26 388.31 698.26 C386 698.26 383.7 698.26 381.39 698.25 C379.73 698.25 378.07 698.25 376.41 698.26 C371.83 698.26 367.25 698.25 362.67 698.25 C357.74 698.24 352.81 698.25 347.87 698.25 C339.32 698.25 330.77 698.24 322.22 698.24 C309.85 698.23 297.49 698.23 285.12 698.23 C265.06 698.22 245 698.22 224.94 698.21 C205.45 698.2 185.96 698.19 166.47 698.19 C164.67 698.19 164.67 698.19 162.83 698.19 C156.81 698.19 150.79 698.18 144.77 698.18 C94.77 698.17 44.77 698.16 -5.23 698.13 C-6.44 695.7 -6.35 694.15 -6.35 691.43 C-6.36 690.43 -6.36 689.43 -6.36 688.4 C-6.36 687.29 -6.36 686.18 -6.35 685.04 C-6.35 683.86 -6.36 682.68 -6.36 681.47 C-6.36 678.19 -6.36 674.9 -6.36 671.61 C-6.35 668.04 -6.36 664.48 -6.36 660.91 C-6.36 654.65 -6.36 648.39 -6.36 642.13 C-6.36 632.82 -6.36 623.52 -6.36 614.21 C-6.37 597.59 -6.37 580.97 -6.36 564.35 C-6.36 549.8 -6.36 535.26 -6.36 520.72 C-6.36 519.75 -6.36 518.79 -6.36 517.8 C-6.36 513.89 -6.36 509.98 -6.36 506.07 C-6.37 469.36 -6.36 432.66 -6.36 395.95 C-6.35 363.31 -6.35 330.67 -6.36 298.03 C-6.36 261.4 -6.37 224.76 -6.36 188.12 C-6.36 184.22 -6.36 180.32 -6.36 176.42 C-6.36 175.46 -6.36 174.49 -6.36 173.5 C-6.36 158.97 -6.36 144.43 -6.36 129.89 C-6.37 113.37 -6.37 96.84 -6.36 80.32 C-6.36 71.06 -6.36 61.8 -6.36 52.55 C-6.36 46.37 -6.36 40.2 -6.36 34.03 C-6.36 30.5 -6.35 26.98 -6.36 23.46 C-6.36 19.67 -6.36 15.89 -6.35 12.1 C-6.36 10.99 -6.36 9.88 -6.36 8.74 C-6.36 7.74 -6.36 6.74 -6.35 5.71 C-6.35 4.84 -6.35 3.98 -6.35 3.08 C-6.09 -0.95 -3.42 0.01 0 0 Z " fill="#047857" transform="translate(728.2272915840149,581.8670644164085)"/>
<path d="M0 0 C0.76 0 1.52 0 2.3 0.01 C3.5 0 3.5 0 4.72 0 C7.44 -0 10.16 0 12.88 0.01 C14.84 0 16.79 0 18.75 0 C24.15 -0 29.55 -0 34.95 0 C40.76 0 46.57 0 52.39 -0 C63.79 -0.01 75.19 -0.01 86.58 -0 C95.84 -0 105.1 0 114.36 -0 C115.68 -0 116.99 -0 118.35 -0 C120.35 -0 122.35 -0 124.35 -0 C149.39 -0.01 174.42 -0 199.45 0 C221.72 0.01 243.98 0.01 266.24 0 C291.22 -0 316.21 -0 341.2 -0 C343.86 -0 346.52 -0 349.18 -0 C350.49 -0 351.8 -0 353.15 -0 C362.41 0 371.66 -0 380.91 -0 C392.18 -0.01 403.45 -0.01 414.72 -0 C420.48 0 426.24 0 431.99 0 C437.25 -0 442.51 -0 447.77 0 C449.68 0.01 451.6 0 453.51 0 C456.09 -0 458.67 0 461.25 0.01 C462.01 0 462.76 0 463.55 0 C468.66 0.02 468.66 0.02 469.77 1.13 C469.87 2.66 469.9 4.18 469.9 5.71 C469.9 6.71 469.9 7.71 469.91 8.74 C469.9 9.85 469.9 10.96 469.9 12.1 C469.9 13.28 469.9 14.45 469.9 15.66 C469.91 18.95 469.9 22.24 469.9 25.53 C469.9 29.09 469.9 32.66 469.9 36.22 C469.91 42.48 469.91 48.74 469.91 55 C469.9 64.31 469.9 73.62 469.91 82.92 C469.91 99.54 469.91 116.16 469.91 132.78 C469.91 147.33 469.91 161.87 469.91 176.42 C469.91 177.86 469.91 177.86 469.91 179.34 C469.91 183.24 469.91 187.15 469.91 191.06 C469.91 227.77 469.91 264.48 469.9 301.18 C469.9 333.82 469.9 366.46 469.9 399.1 C469.91 435.74 469.91 472.37 469.91 509.01 C469.91 512.91 469.91 516.81 469.91 520.72 C469.91 521.68 469.91 522.64 469.91 523.63 C469.91 538.17 469.91 552.7 469.91 567.24 C469.91 583.77 469.91 600.29 469.91 616.81 C469.9 626.07 469.9 635.33 469.91 644.59 C469.91 650.76 469.91 656.93 469.9 663.11 C469.9 666.63 469.9 670.16 469.9 673.68 C469.91 677.47 469.9 681.25 469.9 685.04 C469.9 686.15 469.9 687.25 469.91 688.4 C469.9 689.4 469.9 690.4 469.9 691.43 C469.9 692.73 469.9 692.73 469.9 694.06 C469.77 696.13 469.77 696.13 468.77 698.13 C417.58 698.16 366.38 698.17 315.19 698.18 C309.15 698.19 303.11 698.19 297.07 698.19 C295.87 698.19 294.67 698.19 293.43 698.19 C273.94 698.19 254.45 698.2 234.96 698.21 C214.98 698.22 195 698.22 175.02 698.23 C162.68 698.23 150.34 698.23 138 698.24 C129.55 698.25 121.1 698.25 112.65 698.25 C107.76 698.25 102.88 698.25 98 698.25 C93.53 698.26 89.07 698.26 84.61 698.25 C82.99 698.25 81.37 698.25 79.74 698.26 C77.55 698.26 75.36 698.26 73.17 698.26 C71.95 698.26 70.73 698.26 69.47 698.26 C66.77 698.13 66.77 698.13 65.77 697.13 C64.47 697.03 63.17 696.93 61.84 696.82 C56.33 696.25 51.78 694.43 46.77 692.13 C45.8 691.69 44.83 691.24 43.82 690.78 C36.98 687.5 30.82 683.72 24.77 679.13 C24.19 678.69 23.6 678.25 23 677.79 C19.39 674.92 16.54 671.79 13.77 668.13 C13.77 667.47 13.77 666.81 13.77 666.13 C13.11 666.13 12.45 666.13 11.77 666.13 C-0.5 650.61 -6.58 631.83 -6.48 612.19 C-6.48 611.13 -6.48 610.07 -6.48 608.97 C-6.49 605.42 -6.48 601.87 -6.47 598.32 C-6.48 595.75 -6.48 593.18 -6.48 590.6 C-6.49 585.01 -6.49 579.42 -6.48 573.83 C-6.47 565.51 -6.47 557.2 -6.47 548.88 C-6.48 534.89 -6.48 520.9 -6.47 506.91 C-6.46 493.06 -6.46 479.22 -6.46 465.37 C-6.46 464.5 -6.46 463.64 -6.46 462.76 C-6.46 459.26 -6.46 455.76 -6.46 452.26 C-6.46 419.47 -6.45 386.67 -6.43 353.88 C-6.42 324.72 -6.41 295.56 -6.41 266.41 C-6.41 264.53 -6.41 262.66 -6.41 260.79 C-6.41 259.86 -6.41 258.93 -6.41 257.98 C-6.41 253.32 -6.41 248.66 -6.41 243.99 C-6.41 243.07 -6.41 242.15 -6.41 241.21 C-6.41 216.86 -6.41 192.51 -6.4 168.16 C-6.4 167.29 -6.4 166.43 -6.4 165.54 C-6.4 162.05 -6.4 158.57 -6.4 155.09 C-6.4 142.97 -6.39 130.84 -6.39 118.71 C-6.39 103.09 -6.39 87.47 -6.38 71.85 C-6.37 63.59 -6.37 55.32 -6.37 47.05 C-6.37 40.9 -6.37 34.74 -6.36 28.59 C-6.36 26.08 -6.36 23.58 -6.36 21.08 C-6.37 17.7 -6.36 14.32 -6.36 10.94 C-6.36 9.95 -6.36 8.96 -6.36 7.93 C-6.36 6.6 -6.36 6.6 -6.35 5.23 C-6.35 4.46 -6.35 3.69 -6.35 2.89 C-6.08 -0.97 -3.21 0.01 0 0 Z " fill="#047857" transform="translate(88.22729158401489,581.8670644164085)"/>
</svg>
