<?xml version="1.0" encoding="UTF-8"?>
<!DOCTYPE svg PUBLIC "-//W3C//DTD SVG 1.1//EN" "http://www.w3.org/Graphics/SVG/1.1/DTD/svg11.dtd">
<svg xmlns="http://www.w3.org/2000/svg" version="1.1" width="512px" height="512px" style="shape-rendering:geometricPrecision; text-rendering:geometricPrecision; image-rendering:optimizeQuality; fill-rule:evenodd; clip-rule:evenodd" xmlns:xlink="http://www.w3.org/1999/xlink">
<g><path style="opacity:0.954" fill="#047857" d="M 251.5,31.5 C 254.187,31.3359 256.854,31.5026 259.5,32C 261.333,32.5 262.5,33.6667 263,35.5C 263.667,40.8333 263.667,46.1667 263,51.5C 262.5,53.3333 261.333,54.5 259.5,55C 256.833,55.6667 254.167,55.6667 251.5,55C 249.667,54.5 248.5,53.3333 248,51.5C 247.333,46.1667 247.333,40.8333 248,35.5C 248.69,33.6498 249.856,32.3164 251.5,31.5 Z"/></g>
<g><path style="opacity:0.951" fill="#047857" d="M 115.5,79.5 C 118.978,79.1842 122.312,79.6842 125.5,81C 128.333,83.8333 131.167,86.6667 134,89.5C 137.997,100.036 134.497,104.536 123.5,103C 119.701,100.203 116.201,97.0364 113,93.5C 110.425,88.034 111.258,83.3673 115.5,79.5 Z"/></g>
<g><path style="opacity:0.976" fill="#047857" d="M 199.5,79.5 C 223.966,76.6394 240.466,86.6394 249,109.5C 251.07,115.876 253.236,122.209 255.5,128.5C 258.891,117.05 263.391,106.05 269,95.5C 281.283,80.8796 296.783,76.0462 315.5,81C 340.12,92.0745 348.62,110.574 341,136.5C 334.865,149.62 324.699,158.12 310.5,162C 305.228,163.869 299.894,165.535 294.5,167C 321.167,167.333 347.833,167.667 374.5,168C 382.667,170.833 388.167,176.333 391,184.5C 391.667,198.833 391.667,213.167 391,227.5C 390.5,229.333 389.333,230.5 387.5,231C 383.514,231.499 379.514,231.666 375.5,231.5C 375.333,245.504 375.5,259.504 376,273.5C 389.04,259.066 405.206,253.233 424.5,256C 429.381,257.107 433.714,259.274 437.5,262.5C 448.343,256.041 460.009,253.874 472.5,256C 489.376,261.878 496.876,273.712 495,291.5C 470.333,318.833 445.667,346.167 421,373.5C 420.333,374.167 420.333,374.833 421,375.5C 432.878,387.59 434.544,400.923 426,415.5C 422.547,419.145 418.38,421.645 413.5,423C 402.5,423.333 391.5,423.667 380.5,424C 347.356,474.531 301.356,491.531 242.5,475C 217.802,469.99 194.135,461.99 171.5,451C 145.121,439.697 117.621,433.197 89,431.5C 70.4017,431.587 53.9017,437.42 39.5,449C 35.7838,453.048 32.4504,457.382 29.5,462C 25.5,464 21.5,464 17.5,462C 16.8742,461.25 16.3742,460.416 16,459.5C 15.8333,442.167 15.6667,424.833 15.5,407.5C 15.3457,389.412 15.8457,371.412 17,353.5C 18.9449,352.137 21.1116,351.303 23.5,351C 59.5115,350.164 93.5115,341.497 125.5,325C 128.72,323.648 132.053,322.814 135.5,322.5C 135.5,292.167 135.5,261.833 135.5,231.5C 131.486,231.666 127.486,231.499 123.5,231C 121.667,230.5 120.5,229.333 120,227.5C 119.333,213.167 119.333,198.833 120,184.5C 122.833,176.333 128.333,170.833 136.5,168C 163.167,167.667 189.833,167.333 216.5,167C 203.067,164.115 190.734,158.781 179.5,151C 165.639,134.914 163.472,117.414 173,98.5C 179.562,88.8195 188.395,82.4862 199.5,79.5 Z M 207.5,95.5 C 216.823,95.7425 223.99,99.7425 229,107.5C 236.233,123.343 241.066,139.676 243.5,156.5C 229.231,153.244 215.231,149.077 201.5,144C 183.865,135.431 179.699,122.598 189,105.5C 194.204,100.152 200.371,96.8183 207.5,95.5 Z M 301.5,95.5 C 322.793,99.4165 330.293,111.75 324,132.5C 320.429,137.876 315.595,141.709 309.5,144C 295.407,149.603 281.074,153.436 266.5,155.5C 270.127,138.99 275.293,122.99 282,107.5C 286.645,100.331 293.145,96.3314 301.5,95.5 Z M 143.5,183.5 C 170.167,183.5 196.833,183.5 223.5,183.5C 223.5,194.167 223.5,204.833 223.5,215.5C 194.167,215.5 164.833,215.5 135.5,215.5C 135.334,207.493 135.5,199.493 136,191.5C 136.68,186.989 139.18,184.323 143.5,183.5 Z M 239.5,183.5 C 250.167,183.5 260.833,183.5 271.5,183.5C 271.833,242.17 271.5,300.837 270.5,359.5C 259.615,357.706 249.448,354.039 240,348.5C 239.5,293.501 239.333,238.501 239.5,183.5 Z M 287.5,183.5 C 315.231,183.026 342.897,183.526 370.5,185C 373.094,186.339 374.594,188.506 375,191.5C 375.5,199.493 375.666,207.493 375.5,215.5C 346.167,215.5 316.833,215.5 287.5,215.5C 287.5,204.833 287.5,194.167 287.5,183.5 Z M 151.5,231.5 C 175.5,231.5 199.5,231.5 223.5,231.5C 223.667,266.835 223.5,302.168 223,337.5C 201.201,323.592 177.368,317.592 151.5,319.5C 151.5,290.167 151.5,260.833 151.5,231.5 Z M 287.5,231.5 C 311.5,231.5 335.5,231.5 359.5,231.5C 359.5,274.167 359.5,316.833 359.5,359.5C 335.5,359.5 311.5,359.5 287.5,359.5C 287.5,316.833 287.5,274.167 287.5,231.5 Z M 415.5,271.5 C 418.253,272.022 420.92,272.856 423.5,274C 407.569,291.323 391.735,308.823 376,326.5C 375.333,317.167 375.333,307.833 376,298.5C 383.296,288.867 392.13,281.033 402.5,275C 406.86,273.417 411.194,272.25 415.5,271.5 Z M 463.5,271.5 C 469.249,271.961 473.749,274.628 477,279.5C 478.301,281.365 478.635,283.365 478,285.5C 454.297,310.867 430.964,336.534 408,362.5C 407.196,363.804 406.029,364.471 404.5,364.5C 395.22,360.644 385.553,358.977 375.5,359.5C 375.337,357.143 375.503,354.81 376,352.5C 393.372,333.463 410.372,314.13 427,294.5C 433.667,286.491 441.5,279.991 450.5,275C 454.86,273.417 459.194,272.25 463.5,271.5 Z M 158.5,335.5 C 185.485,336.334 209.152,345.501 229.5,363C 239.539,368.686 250.205,372.686 261.5,375C 299.5,375.333 337.5,375.667 375.5,376C 390.048,375.733 402.215,380.9 412,391.5C 416.524,398.623 415.024,403.789 407.5,407C 366.833,407.333 326.167,407.667 285.5,408C 274.326,409.669 265.16,414.835 258,423.5C 252.306,436.333 256.139,441.166 269.5,438C 273.537,430.469 279.87,426.136 288.5,425C 312.134,423.407 335.801,423.073 359.5,424C 335.103,456.684 302.769,469.017 262.5,461C 243.285,458.53 224.619,453.863 206.5,447C 180.682,435.283 154.015,425.949 126.5,419C 106.931,415.286 87.2645,414.619 67.5,417C 54.1737,419.435 42.3404,424.935 32,433.5C 31.5,411.503 31.3334,389.503 31.5,367.5C 50.1931,367.038 68.5264,364.205 86.5,359C 104.147,353.118 121.48,346.452 138.5,339C 145.234,337.384 151.901,336.218 158.5,335.5 Z"/></g>
<g><path style="opacity:0.951" fill="#047857" d="M 387.5,79.5 C 397.33,77.8292 401.163,81.8292 399,91.5C 396.203,95.2988 393.036,98.7988 389.5,102C 378.964,105.997 374.464,102.497 376,91.5C 379.364,86.9715 383.197,82.9715 387.5,79.5 Z"/></g>
<g><path style="opacity:0.954" fill="#047857" d="M 67.5,199.5 C 73.6208,199.09 79.6208,199.59 85.5,201C 90.196,211.45 86.8627,216.283 75.5,215.5C 65.6649,217.166 61.8316,213.166 64,203.5C 64.6897,201.65 65.8564,200.316 67.5,199.5 Z"/></g>
<g><path style="opacity:0.954" fill="#047857" d="M 427.5,199.5 C 433.621,199.09 439.621,199.59 445.5,201C 450.196,211.45 446.863,216.283 435.5,215.5C 425.665,217.166 421.832,213.166 424,203.5C 424.69,201.65 425.856,200.316 427.5,199.5 Z"/></g>
</svg>
