<?xml version="1.0" encoding="UTF-8"?>
<!DOCTYPE svg PUBLIC "-//W3C//DTD SVG 1.1//EN" "http://www.w3.org/Graphics/SVG/1.1/DTD/svg11.dtd">
<svg xmlns="http://www.w3.org/2000/svg" version="1.1" width="512px" height="512px" style="shape-rendering:geometricPrecision; text-rendering:geometricPrecision; image-rendering:optimizeQuality; fill-rule:evenodd; clip-rule:evenodd" xmlns:xlink="http://www.w3.org/1999/xlink">
<g><path style="opacity:0.952" fill="#047857" d="M 511.5,45.5 C 511.5,127.167 511.5,208.833 511.5,290.5C 510.404,292.103 509.07,293.603 507.5,295C 492.663,303.919 477.663,312.586 462.5,321C 457.073,322.2 452.573,320.7 449,316.5C 439.086,320.872 429.586,325.872 420.5,331.5C 425.653,356.67 415.653,371.67 390.5,376.5C 386.624,398.273 373.624,408.939 351.5,408.5C 345.184,431 330.517,439.667 307.5,434.5C 296.938,455.411 280.605,461.911 258.5,454C 255.5,451.833 252.5,449.667 249.5,447.5C 242.28,454.89 234.613,461.723 226.5,468C 206.482,475.962 190.982,470.795 180,452.5C 178.263,448.339 177.263,444.005 177,439.5C 157.228,437.228 146.394,426.228 144.5,406.5C 124.5,404.5 113.5,393.5 111.5,373.5C 95.1853,372.433 84.6853,364.1 80,348.5C 78.3356,342.872 78.0023,337.205 79,331.5C 72.8153,326.738 66.8153,321.738 61,316.5C 57.9749,320.921 53.8082,322.421 48.5,321C 33.3365,312.586 18.3365,303.919 3.5,295C 1.92975,293.603 0.596413,292.103 -0.5,290.5C -0.5,208.833 -0.5,127.167 -0.5,45.5C 5.47816,38.0911 12.1448,37.5911 19.5,44C 62.5423,80.0444 105.876,115.711 149.5,151C 156.597,155.805 158.263,161.971 154.5,169.5C 166.363,174.589 178.363,174.755 190.5,170C 214.803,156.609 239.303,156.109 264,168.5C 282.82,160.167 301.987,159.334 321.5,166C 332.906,173.605 345.239,175.939 358.5,173C 352.42,164.721 353.42,157.387 361.5,151C 406.543,113.622 451.876,76.6216 497.5,40C 503.686,38.268 508.353,40.1014 511.5,45.5 Z M 19.5,72.5 C 57.2928,103.121 94.9595,133.954 132.5,165C 104.458,208.918 76.2914,252.752 48,296.5C 38.5002,291.085 29.1669,285.418 20,279.5C 19.5,210.501 19.3333,141.501 19.5,72.5 Z M 490.5,72.5 C 491.665,141.332 491.832,210.332 491,279.5C 481.833,285.418 472.5,291.085 463,296.5C 434.709,252.752 406.542,208.918 378.5,165C 416.023,134.302 453.356,103.469 490.5,72.5 Z M 220.5,180.5 C 226.952,180.084 233.285,180.584 239.5,182C 226.506,188.828 213.839,196.162 201.5,204C 188.169,218.599 186.002,234.766 195,252.5C 204.98,266.388 218.48,271.888 235.5,269C 259.547,260.43 283.547,252.097 307.5,244C 338,274.5 368.5,305 399,335.5C 403.21,345.747 399.877,352.414 389,355.5C 387.189,354.922 385.355,354.422 383.5,354C 356.861,328.362 330.528,302.362 304.5,276C 291.136,273.033 286.302,278.2 290,291.5C 315.333,316.833 340.667,342.167 366,367.5C 370.646,375.858 368.812,382.358 360.5,387C 356.218,387.965 352.218,387.298 348.5,385C 326.833,363.333 305.167,341.667 283.5,320C 270.178,316.324 265.012,321.158 268,334.5C 288,354.5 308,374.5 328,394.5C 333.202,403.499 331.036,410.332 321.5,415C 317.88,415.841 314.546,415.174 311.5,413C 295.862,398.362 280.529,383.362 265.5,368C 253.559,364.604 248.392,369.104 250,381.5C 262,394.167 274,406.833 286,419.5C 287.528,430.637 282.694,436.137 271.5,436C 266.504,434.014 262.337,430.847 259,426.5C 258.696,413.723 253.529,403.556 243.5,396C 240.691,394.259 237.691,393.092 234.5,392.5C 238.67,374.484 233.003,360.651 217.5,351C 212.671,349.042 207.671,347.876 202.5,347.5C 200.562,327.562 189.562,316.562 169.5,314.5C 164.927,315.135 160.427,316.135 156,317.5C 143.9,296.356 126.733,290.856 104.5,301C 99.6994,304.799 95.1994,308.966 91,313.5C 84.6885,308.689 78.5218,303.689 72.5,298.5C 95.6667,262.167 118.833,225.833 142,189.5C 161.579,196.126 181.079,195.96 200.5,189C 206.92,185.282 213.586,182.449 220.5,180.5 Z M 286.5,182.5 C 300.163,180.916 312.83,183.749 324.5,191C 339.317,196.378 354.317,196.878 369.5,192.5C 370.167,192.833 370.833,193.167 371.5,193.5C 393.958,228.248 416.291,263.082 438.5,298C 429.833,302.333 421.167,306.667 412.5,311C 410.553,311.991 408.553,312.325 406.5,312C 377.167,282.667 347.833,253.333 318.5,224C 314.702,220.814 310.368,219.814 305.5,221C 280.91,230.197 256.243,239.197 231.5,248C 215.359,248.859 208.859,241.359 212,225.5C 213.167,223.667 214.333,221.833 215.5,220C 234.338,209.08 253.338,198.413 272.5,188C 277.159,185.842 281.825,184.009 286.5,182.5 Z M 120.5,316.5 C 135.188,318.209 139.021,325.543 132,338.5C 127.425,343.746 122.258,348.246 116.5,352C 107.225,353.19 101.558,349.19 99.5,340C 100.227,338.601 100.727,337.101 101,335.5C 106.733,328.265 113.233,321.932 120.5,316.5 Z M 168.5,335.5 C 178.844,337.184 183.011,343.184 181,353.5C 171.864,363.637 162.364,373.47 152.5,383C 143.282,387.374 136.782,384.874 133,375.5C 132.402,371.947 133.069,368.614 135,365.5C 144.167,356.333 153.333,347.167 162.5,338C 164.611,337.155 166.611,336.322 168.5,335.5 Z M 199.5,368.5 C 211.877,369.256 216.377,375.59 213,387.5C 203.5,397 194,406.5 184.5,416C 176.265,419.539 170.098,417.372 166,409.5C 165.035,405.218 165.702,401.218 168,397.5C 176.833,388.667 185.667,379.833 194.5,371C 196.315,370.243 197.981,369.41 199.5,368.5 Z M 221.5,411.5 C 230.177,411.339 235.51,415.506 237.5,424C 236.714,426.96 235.548,429.794 234,432.5C 228.096,439.074 221.596,444.908 214.5,450C 205.225,451.19 199.558,447.19 197.5,438C 198.227,436.601 198.727,435.101 199,433.5C 205.757,425.241 213.257,417.908 221.5,411.5 Z"/></g>
</svg>
