<svg width="24" height="24" viewBox="0 0 24 24" fill="none" xmlns="http://www.w3.org/2000/svg">
<path d="M3 4V20C3 20.943 3 21.414 3.293 21.707C3.586 22 4.057 22 5 22H19C19.943 22 20.414 22 20.707 21.707C21 21.414 21 20.943 21 20V4M10.5 8V9.5M10.5 9.5V11M10.5 9.5H13.5M13.5 8V9.5M13.5 9.5V11" stroke="#155145" stroke-width="1.3" stroke-linecap="round" stroke-linejoin="round"/>
<path d="M14 22V18C14 17.4696 13.7893 16.9609 13.4142 16.5858C13.0391 16.2107 12.5304 16 12 16C11.4696 16 10.9609 16.2107 10.5858 16.5858C10.2107 16.9609 10 17.4696 10 18V22M2 4H8C8.64 2.827 10.19 2 12 2C13.81 2 15.36 2.827 16 4H22M6 8H7M6 12H7M6 16H7M17 8H18M17 12H18M17 16H18" stroke="#155145" stroke-width="1.3" stroke-linecap="round" stroke-linejoin="round"/>
</svg>
