<?xml version="1.0" encoding="UTF-8"?>
<!-- Generator: visioncortex VTracer 0.6.3 -->
<svg version="1.1" xmlns="http://www.w3.org/2000/svg" width="1280" height="1280">
<path d="M0 0 C0.95 -0 1.9 -0.01 2.88 -0.01 C4.44 -0.01 4.44 -0.01 6.04 -0 C7.15 -0.01 8.26 -0.01 9.41 -0.01 C13.17 -0.02 16.93 -0.01 20.69 -0.01 C23.4 -0.01 26.11 -0.02 28.82 -0.02 C35.51 -0.03 42.2 -0.03 48.89 -0.03 C56.9 -0.03 64.91 -0.04 72.92 -0.05 C92.28 -0.06 111.64 -0.07 131 -0.07 C140.16 -0.08 149.31 -0.08 158.47 -0.08 C189.81 -0.1 221.15 -0.11 252.48 -0.11 C254.45 -0.11 256.42 -0.11 258.39 -0.11 C260.36 -0.11 262.33 -0.11 264.3 -0.11 C268.26 -0.11 272.22 -0.11 276.18 -0.11 C277.16 -0.11 278.14 -0.11 279.15 -0.11 C310.97 -0.12 342.78 -0.13 374.6 -0.16 C408.23 -0.18 441.86 -0.19 475.49 -0.2 C479.18 -0.2 482.88 -0.2 486.57 -0.2 C487.93 -0.2 487.93 -0.2 489.32 -0.2 C503.95 -0.2 518.59 -0.21 533.22 -0.22 C547.93 -0.24 562.63 -0.24 577.34 -0.23 C586.08 -0.23 594.82 -0.23 603.55 -0.25 C609.39 -0.26 615.23 -0.26 621.07 -0.25 C624.39 -0.24 627.72 -0.24 631.04 -0.25 C634.63 -0.26 638.21 -0.26 641.8 -0.24 C642.83 -0.25 643.86 -0.26 644.92 -0.27 C656.96 -0.18 666.51 3.42 675.15 11.96 C684.91 23 685.74 34.45 685.64 48.68 C685.64 50.34 685.64 52 685.64 53.65 C685.64 58.13 685.62 62.6 685.6 67.07 C685.58 71.75 685.58 76.43 685.58 81.11 C685.57 89.96 685.54 98.82 685.51 107.67 C685.48 117.76 685.46 127.84 685.45 137.93 C685.42 158.66 685.36 179.39 685.3 200.13 C686.16 200.12 686.16 200.12 687.05 200.11 C693.12 200.04 699.19 200 705.25 199.96 C707.51 199.95 709.77 199.93 712.03 199.9 C715.3 199.86 718.56 199.85 721.82 199.83 C723.32 199.81 723.32 199.81 724.84 199.79 C736.93 199.78 746.49 203.39 755.15 211.96 C764.2 222.2 765.75 232.62 765.66 245.98 C765.67 247.37 765.67 248.76 765.68 250.15 C765.68 253.96 765.67 257.77 765.66 261.58 C765.65 265.73 765.66 269.88 765.66 274.03 C765.67 281.3 765.67 288.57 765.65 295.84 C765.64 306.65 765.63 317.46 765.64 328.27 C765.64 346.45 765.63 364.64 765.61 382.82 C765.6 400.83 765.58 418.83 765.58 436.84 C765.58 437.96 765.58 439.08 765.58 440.23 C765.58 445.92 765.58 451.6 765.58 457.29 C765.57 497.56 765.55 537.83 765.52 578.1 C765.49 617.22 765.47 656.34 765.46 695.46 C765.46 696.67 765.46 697.87 765.46 699.12 C765.46 711.23 765.45 723.34 765.45 735.45 C765.44 760.12 765.43 784.78 765.42 809.45 C765.42 810.59 765.42 811.72 765.42 812.89 C765.39 888.64 765.35 964.38 765.3 1040.13 C766.38 1040.12 767.46 1040.11 768.57 1040.11 C778.78 1040.05 788.99 1040 799.2 1039.97 C804.45 1039.96 809.7 1039.94 814.94 1039.9 C820.01 1039.87 825.08 1039.85 830.15 1039.84 C832.08 1039.84 834.01 1039.83 835.94 1039.81 C850.6 1039.69 861.62 1040.33 873.3 1050.13 C882.27 1059.01 885.58 1068.66 885.67 1081.13 C885.53 1093.6 882.44 1102.91 873.46 1111.98 C862.8 1121.41 851.95 1122.58 838.09 1122.5 C836.56 1122.5 835.03 1122.5 833.5 1122.51 C829.32 1122.51 825.14 1122.5 820.95 1122.49 C816.43 1122.48 811.92 1122.49 807.4 1122.49 C798.56 1122.5 789.72 1122.49 780.87 1122.47 C770.58 1122.45 760.29 1122.45 750 1122.45 C731.65 1122.45 713.3 1122.43 694.94 1122.41 C677.12 1122.39 659.3 1122.37 641.48 1122.37 C640.38 1122.37 639.28 1122.37 638.15 1122.37 C635.93 1122.37 633.72 1122.37 631.5 1122.37 C630.41 1122.37 629.32 1122.37 628.19 1122.37 C626.56 1122.36 626.56 1122.36 624.89 1122.36 C607.92 1122.36 590.95 1122.35 573.97 1122.34 C567.82 1122.33 561.66 1122.33 555.5 1122.33 C545.74 1122.32 535.98 1122.31 526.22 1122.3 C521.76 1122.29 517.29 1122.29 512.83 1122.29 C508.75 1122.29 504.68 1122.28 500.6 1122.27 C499.12 1122.27 497.64 1122.27 496.16 1122.27 C494.15 1122.27 492.15 1122.27 490.15 1122.26 C489.04 1122.26 487.92 1122.26 486.77 1122.26 C484.3 1122.13 484.3 1122.13 483.3 1121.13 C483.2 1119.4 483.17 1117.66 483.16 1115.92 C483.16 1114.79 483.15 1113.65 483.15 1112.48 C483.15 1111.22 483.15 1109.96 483.15 1108.65 C483.15 1107.31 483.14 1105.97 483.14 1104.62 C483.13 1100.92 483.13 1097.21 483.12 1093.5 C483.12 1089.5 483.11 1085.51 483.1 1081.52 C483.09 1074.59 483.08 1067.66 483.07 1060.74 C483.05 1050.71 483.03 1040.69 483.01 1030.66 C482.97 1014.39 482.93 998.11 482.9 981.84 C482.9 980.86 482.9 979.89 482.9 978.88 C482.87 965.06 482.85 951.23 482.82 937.41 C482.82 936.44 482.82 935.46 482.82 934.46 C482.82 933.49 482.82 932.52 482.81 931.52 C482.79 915.31 482.75 899.11 482.71 882.91 C482.69 872.91 482.67 862.91 482.66 852.92 C482.65 846.06 482.64 839.21 482.62 832.35 C482.61 828.4 482.6 824.44 482.6 820.49 C482.6 816.87 482.59 813.24 482.57 809.62 C482.57 807.69 482.57 805.77 482.58 803.84 C482.59 792.43 482.59 792.43 478.3 782.13 C478.3 781.14 478.3 780.15 478.3 779.13 C477.64 779.13 476.98 779.13 476.3 779.13 C475.18 777.7 475.18 777.7 473.98 775.82 C471.8 772.59 469.74 771 466.3 769.13 C466.3 768.47 466.3 767.81 466.3 767.13 C465.27 766.94 465.27 766.94 464.23 766.75 C459.84 765.82 455.56 764.55 451.3 763.13 C449.86 763.04 448.42 763 446.98 763 C446.1 763 445.21 762.99 444.3 762.99 C442.84 762.99 442.84 762.99 441.35 762.99 C440.32 762.99 439.29 762.99 438.22 762.99 C434.74 762.98 431.26 762.98 427.78 762.98 C425.29 762.98 422.8 762.98 420.32 762.97 C414.25 762.96 408.18 762.96 402.11 762.96 C397.18 762.96 392.24 762.96 387.31 762.95 C373.31 762.95 359.32 762.94 345.33 762.94 C344.58 762.94 343.82 762.94 343.04 762.94 C342.29 762.94 341.53 762.94 340.75 762.94 C328.52 762.94 316.28 762.93 304.05 762.92 C291.48 762.9 278.92 762.9 266.35 762.9 C259.3 762.9 252.25 762.9 245.2 762.89 C238.56 762.88 231.92 762.88 225.28 762.88 C222.85 762.88 220.42 762.88 217.98 762.88 C214.65 762.87 211.33 762.87 208 762.88 C206.56 762.87 206.56 762.87 205.09 762.86 C198.1 762.9 191.24 763.16 185.3 767.13 C184.31 767.13 183.32 767.13 182.3 767.13 C182.3 767.79 182.3 768.45 182.3 769.13 C181.31 769.13 180.32 769.13 179.3 769.13 C179.3 769.79 179.3 770.45 179.3 771.13 C176.92 773.75 176.92 773.75 174.3 776.13 C173.64 776.13 172.98 776.13 172.3 776.13 C172.3 777.12 172.3 778.11 172.3 779.13 C171.64 779.13 170.98 779.13 170.3 779.13 C170.17 779.81 170.05 780.49 169.92 781.19 C168.98 785.59 167.72 789.86 166.3 794.13 C166.2 795.95 166.16 797.78 166.16 799.6 C166.15 800.75 166.15 801.89 166.15 803.07 C166.14 804.96 166.14 804.96 166.14 806.9 C166.14 808.25 166.14 809.6 166.13 810.95 C166.12 814.67 166.11 818.39 166.11 822.11 C166.1 826.11 166.09 830.12 166.08 834.13 C166.06 841.08 166.05 848.03 166.04 854.97 C166.02 865.02 165.99 875.07 165.97 885.11 C165.92 901.41 165.88 917.71 165.85 934.01 C165.85 934.98 165.84 935.96 165.84 936.97 C165.82 944.89 165.81 952.81 165.79 960.73 C165.77 967.65 165.76 974.58 165.74 981.51 C165.74 982.48 165.74 983.46 165.74 984.46 C165.7 1000.7 165.66 1016.94 165.62 1033.18 C165.59 1043.21 165.57 1053.23 165.55 1063.26 C165.54 1070.12 165.52 1076.99 165.5 1083.85 C165.49 1087.82 165.48 1091.78 165.48 1095.75 C165.47 1099.37 165.47 1103 165.45 1106.62 C165.45 1108.56 165.45 1110.51 165.45 1112.45 C165.44 1113.59 165.44 1114.73 165.43 1115.91 C165.43 1116.9 165.43 1117.89 165.43 1118.91 C165.3 1121.13 165.3 1121.13 164.3 1122.13 C162.35 1122.23 160.39 1122.26 158.44 1122.26 C157.16 1122.26 155.88 1122.27 154.56 1122.27 C153.11 1122.27 151.67 1122.27 150.23 1122.27 C148.72 1122.27 147.2 1122.27 145.69 1122.28 C141.5 1122.29 137.32 1122.29 133.13 1122.29 C128.62 1122.29 124.12 1122.3 119.61 1122.3 C109.74 1122.32 99.88 1122.32 90.01 1122.33 C83.85 1122.33 77.69 1122.33 71.53 1122.34 C54.49 1122.35 37.44 1122.36 20.4 1122.37 C19.3 1122.37 18.21 1122.37 17.09 1122.37 C15.99 1122.37 14.9 1122.37 13.77 1122.37 C11.55 1122.37 9.33 1122.37 7.12 1122.37 C5.47 1122.37 5.47 1122.37 3.78 1122.37 C-14.04 1122.37 -31.86 1122.39 -49.67 1122.41 C-67.96 1122.44 -86.25 1122.45 -104.53 1122.45 C-114.8 1122.45 -125.07 1122.46 -135.34 1122.48 C-144.09 1122.49 -152.84 1122.5 -161.59 1122.49 C-166.05 1122.48 -170.51 1122.48 -174.97 1122.5 C-179.06 1122.51 -183.15 1122.51 -187.24 1122.5 C-188.72 1122.5 -190.19 1122.5 -191.67 1122.51 C-204.9 1122.58 -214.43 1120.75 -224.7 1112.13 C-233.68 1103.25 -236.99 1093.6 -237.08 1081.13 C-236.94 1068.36 -233.58 1059.59 -224.82 1050.08 C-216.7 1042.38 -207.08 1039.97 -196.17 1040.01 C-194.88 1040.01 -194.88 1040.01 -193.57 1040.01 C-190.73 1040.01 -187.9 1040.02 -185.06 1040.03 C-183.1 1040.03 -181.13 1040.03 -179.16 1040.03 C-173.99 1040.04 -168.81 1040.05 -163.64 1040.06 C-158.35 1040.07 -153.07 1040.07 -147.79 1040.08 C-137.43 1040.09 -127.07 1040.11 -116.7 1040.13 C-116.7 1039.43 -116.71 1038.73 -116.71 1038.01 C-116.76 961.82 -116.8 885.64 -116.83 809.45 C-116.83 807.75 -116.83 807.75 -116.83 806.01 C-116.84 781.28 -116.85 756.56 -116.86 731.84 C-116.86 719.71 -116.87 707.59 -116.87 695.46 C-116.87 694.26 -116.87 693.05 -116.87 691.81 C-116.88 652.69 -116.91 613.57 -116.93 574.45 C-116.96 534.25 -116.98 494.06 -116.99 453.86 C-116.99 448.19 -116.99 442.51 -116.99 436.84 C-116.99 435.16 -116.99 435.16 -116.99 433.45 C-116.99 415.46 -117.01 397.47 -117.02 379.48 C-117.04 361.4 -117.05 343.32 -117.04 325.24 C-117.04 314.49 -117.05 303.74 -117.07 293 C-117.08 285.82 -117.08 278.64 -117.07 271.47 C-117.07 267.38 -117.07 263.29 -117.08 259.2 C-117.09 255.47 -117.09 251.75 -117.08 248.03 C-117.07 246.06 -117.09 244.09 -117.1 242.13 C-117.02 229 -113.76 219.79 -104.82 210.08 C-98.05 203.66 -89.19 199.99 -79.84 200.01 C-78.88 200.01 -77.92 200.01 -76.93 200.01 C-75.39 200.02 -75.39 200.02 -73.81 200.03 C-72.22 200.03 -72.22 200.03 -70.6 200.03 C-67.22 200.04 -63.84 200.05 -60.45 200.07 C-58.16 200.07 -55.87 200.07 -53.57 200.08 C-47.95 200.09 -42.33 200.11 -36.7 200.13 C-36.71 199.27 -36.71 198.41 -36.71 197.53 C-36.78 176.67 -36.83 155.8 -36.86 134.93 C-36.88 124.84 -36.9 114.75 -36.93 104.66 C-36.96 95.86 -36.98 87.06 -36.99 78.27 C-36.99 73.61 -37 68.95 -37.02 64.3 C-37.04 59.91 -37.05 55.52 -37.04 51.13 C-37.04 49.53 -37.05 47.92 -37.06 46.32 C-37.16 31.52 -35.04 21.18 -24.82 10.08 C-18.11 3.71 -9.28 0.01 0 0 Z M142.3 127.13 C142.3 127.79 142.3 128.45 142.3 129.13 C141.31 129.13 140.32 129.13 139.3 129.13 C139.3 129.79 139.3 130.45 139.3 131.13 C138.66 131.4 138.02 131.66 137.36 131.94 C134.96 133.01 134.96 133.01 134.3 136.13 C133.64 136.13 132.98 136.13 132.3 136.13 C132.3 137.12 132.3 138.11 132.3 139.13 C131.64 139.13 130.98 139.13 130.3 139.13 C125.87 146.97 124.99 154.78 125.04 163.64 C125.03 164.54 125.03 165.44 125.03 166.37 C125.02 169.33 125.02 172.29 125.03 175.25 C125.03 177.33 125.03 179.4 125.02 181.47 C125.02 185.81 125.03 190.14 125.03 194.47 C125.05 200.01 125.04 205.55 125.03 211.09 C125.02 215.36 125.02 219.64 125.03 223.92 C125.03 225.96 125.03 228 125.02 230.04 C125.02 232.9 125.03 235.76 125.04 238.62 C125.03 239.45 125.03 240.28 125.02 241.14 C125.08 249.1 126.35 256.13 130.3 263.13 C130.96 263.13 131.62 263.13 132.3 263.13 C132.5 263.85 132.71 264.57 132.92 265.32 C134.77 269.1 136.9 270.65 140.3 273.13 C140.96 273.13 141.62 273.13 142.3 273.13 C142.3 273.79 142.3 274.45 142.3 275.13 C153.14 281.24 166.43 281.88 178.39 278.77 C181.18 277.83 183.73 276.57 186.3 275.13 C186.3 274.47 186.3 273.81 186.3 273.13 C187.02 272.92 187.74 272.72 188.48 272.5 C192.27 270.65 193.82 268.53 196.3 265.13 C196.3 264.47 196.3 263.81 196.3 263.13 C196.96 263.13 197.62 263.13 198.3 263.13 C202.72 255.29 203.6 247.47 203.55 238.62 C203.56 237.72 203.56 236.81 203.57 235.88 C203.57 232.92 203.57 229.96 203.56 227 C203.56 224.93 203.56 222.86 203.57 220.78 C203.57 216.45 203.57 212.12 203.56 207.78 C203.54 202.24 203.55 196.71 203.56 191.17 C203.57 186.89 203.57 182.61 203.56 178.34 C203.56 176.29 203.56 174.25 203.57 172.21 C203.57 169.35 203.57 166.49 203.55 163.64 C203.56 162.8 203.56 161.97 203.57 161.11 C203.51 153.15 202.24 146.13 198.3 139.13 C197.64 139.13 196.98 139.13 196.3 139.13 C195.99 138.04 195.99 138.04 195.67 136.94 C193.82 133.16 191.69 131.61 188.3 129.13 C187.64 129.13 186.98 129.13 186.3 129.13 C186.3 128.47 186.3 127.81 186.3 127.13 C173.14 119.71 155.45 119.71 142.3 127.13 Z M302.3 127.13 C302.3 127.79 302.3 128.45 302.3 129.13 C301.31 129.13 300.32 129.13 299.3 129.13 C299.3 129.79 299.3 130.45 299.3 131.13 C298.66 131.4 298.02 131.66 297.36 131.94 C294.96 133.01 294.96 133.01 294.3 136.13 C293.64 136.13 292.98 136.13 292.3 136.13 C292.3 137.12 292.3 138.11 292.3 139.13 C291.64 139.13 290.98 139.13 290.3 139.13 C285.87 146.97 284.99 154.78 285.04 163.64 C285.03 164.54 285.03 165.44 285.03 166.37 C285.02 169.33 285.02 172.29 285.03 175.25 C285.03 177.33 285.03 179.4 285.02 181.47 C285.02 185.81 285.03 190.14 285.03 194.47 C285.05 200.01 285.04 205.55 285.03 211.09 C285.02 215.36 285.02 219.64 285.03 223.92 C285.03 225.96 285.03 228 285.02 230.04 C285.02 232.9 285.03 235.76 285.04 238.62 C285.03 239.45 285.03 240.28 285.02 241.14 C285.08 249.1 286.35 256.13 290.3 263.13 C290.96 263.13 291.62 263.13 292.3 263.13 C292.5 263.85 292.71 264.57 292.92 265.32 C294.77 269.1 296.9 270.65 300.3 273.13 C300.96 273.13 301.62 273.13 302.3 273.13 C302.3 273.79 302.3 274.45 302.3 275.13 C313.14 281.24 326.43 281.88 338.39 278.77 C341.18 277.83 343.73 276.57 346.3 275.13 C346.3 274.47 346.3 273.81 346.3 273.13 C347.02 272.92 347.74 272.72 348.48 272.5 C352.27 270.65 353.82 268.53 356.3 265.13 C356.3 264.47 356.3 263.81 356.3 263.13 C356.96 263.13 357.62 263.13 358.3 263.13 C362.72 255.29 363.6 247.47 363.55 238.62 C363.56 237.72 363.56 236.81 363.57 235.88 C363.57 232.92 363.57 229.96 363.56 227 C363.56 224.93 363.56 222.86 363.57 220.78 C363.57 216.45 363.57 212.12 363.56 207.78 C363.54 202.24 363.55 196.71 363.56 191.17 C363.57 186.89 363.57 182.61 363.56 178.34 C363.56 176.29 363.56 174.25 363.57 172.21 C363.57 169.35 363.57 166.49 363.55 163.64 C363.56 162.8 363.56 161.97 363.57 161.11 C363.51 153.15 362.24 146.13 358.3 139.13 C357.64 139.13 356.98 139.13 356.3 139.13 C355.99 138.04 355.99 138.04 355.67 136.94 C353.82 133.16 351.69 131.61 348.3 129.13 C347.64 129.13 346.98 129.13 346.3 129.13 C346.3 128.47 346.3 127.81 346.3 127.13 C333.14 119.71 315.45 119.71 302.3 127.13 Z M462.3 127.13 C462.3 127.79 462.3 128.45 462.3 129.13 C461.31 129.13 460.32 129.13 459.3 129.13 C459.3 129.79 459.3 130.45 459.3 131.13 C458.66 131.4 458.02 131.66 457.36 131.94 C454.96 133.01 454.96 133.01 454.3 136.13 C453.64 136.13 452.98 136.13 452.3 136.13 C452.3 137.12 452.3 138.11 452.3 139.13 C451.64 139.13 450.98 139.13 450.3 139.13 C445.87 146.97 444.99 154.78 445.04 163.64 C445.03 164.54 445.03 165.44 445.03 166.37 C445.02 169.33 445.02 172.29 445.03 175.25 C445.03 177.33 445.03 179.4 445.02 181.47 C445.02 185.81 445.03 190.14 445.03 194.47 C445.05 200.01 445.04 205.55 445.03 211.09 C445.02 215.36 445.02 219.64 445.03 223.92 C445.03 225.96 445.03 228 445.02 230.04 C445.02 232.9 445.03 235.76 445.04 238.62 C445.03 239.45 445.03 240.28 445.02 241.14 C445.08 249.1 446.35 256.13 450.3 263.13 C450.96 263.13 451.62 263.13 452.3 263.13 C452.5 263.85 452.71 264.57 452.92 265.32 C454.77 269.1 456.9 270.65 460.3 273.13 C460.96 273.13 461.62 273.13 462.3 273.13 C462.3 273.79 462.3 274.45 462.3 275.13 C473.14 281.24 486.43 281.88 498.39 278.77 C501.18 277.83 503.73 276.57 506.3 275.13 C506.3 274.47 506.3 273.81 506.3 273.13 C507.02 272.92 507.74 272.72 508.48 272.5 C512.27 270.65 513.82 268.53 516.3 265.13 C516.3 264.47 516.3 263.81 516.3 263.13 C516.96 263.13 517.62 263.13 518.3 263.13 C522.72 255.29 523.6 247.47 523.55 238.62 C523.56 237.72 523.56 236.81 523.57 235.88 C523.57 232.92 523.57 229.96 523.56 227 C523.56 224.93 523.56 222.86 523.57 220.78 C523.57 216.45 523.57 212.12 523.56 207.78 C523.54 202.24 523.55 196.71 523.56 191.17 C523.57 186.89 523.57 182.61 523.56 178.34 C523.56 176.29 523.56 174.25 523.57 172.21 C523.57 169.35 523.57 166.49 523.55 163.64 C523.56 162.8 523.56 161.97 523.57 161.11 C523.51 153.15 522.24 146.13 518.3 139.13 C517.64 139.13 516.98 139.13 516.3 139.13 C515.99 138.04 515.99 138.04 515.67 136.94 C513.82 133.16 511.69 131.61 508.3 129.13 C507.64 129.13 506.98 129.13 506.3 129.13 C506.3 128.47 506.3 127.81 506.3 127.13 C493.14 119.71 475.45 119.71 462.3 127.13 Z M62.3 327.13 C62.3 327.79 62.3 328.45 62.3 329.13 C61.31 329.13 60.32 329.13 59.3 329.13 C59.3 329.79 59.3 330.45 59.3 331.13 C58.66 331.4 58.02 331.66 57.36 331.94 C54.96 333.01 54.96 333.01 54.3 336.13 C53.64 336.13 52.98 336.13 52.3 336.13 C52.3 337.12 52.3 338.11 52.3 339.13 C51.64 339.13 50.98 339.13 50.3 339.13 C45.87 346.97 44.99 354.78 45.04 363.64 C45.03 364.54 45.03 365.44 45.03 366.37 C45.02 369.33 45.02 372.29 45.03 375.25 C45.03 377.33 45.03 379.4 45.02 381.47 C45.02 385.81 45.03 390.14 45.03 394.47 C45.05 400.01 45.04 405.55 45.03 411.09 C45.02 415.36 45.02 419.64 45.03 423.92 C45.03 425.96 45.03 428 45.02 430.04 C45.02 432.9 45.03 435.76 45.04 438.62 C45.03 439.45 45.03 440.28 45.02 441.14 C45.08 449.1 46.35 456.13 50.3 463.13 C50.96 463.13 51.62 463.13 52.3 463.13 C52.5 463.85 52.71 464.57 52.92 465.32 C54.77 469.1 56.9 470.65 60.3 473.13 C60.96 473.13 61.62 473.13 62.3 473.13 C62.3 473.79 62.3 474.45 62.3 475.13 C73.14 481.24 86.43 481.88 98.39 478.77 C101.18 477.83 103.73 476.57 106.3 475.13 C106.3 474.47 106.3 473.81 106.3 473.13 C107.02 472.92 107.74 472.72 108.48 472.5 C112.27 470.65 113.82 468.53 116.3 465.13 C116.3 464.47 116.3 463.81 116.3 463.13 C116.96 463.13 117.62 463.13 118.3 463.13 C122.72 455.29 123.6 447.47 123.55 438.62 C123.56 437.72 123.56 436.81 123.57 435.88 C123.57 432.92 123.57 429.96 123.56 427 C123.56 424.93 123.56 422.86 123.57 420.78 C123.57 416.45 123.57 412.12 123.56 407.78 C123.54 402.24 123.55 396.71 123.56 391.17 C123.57 386.89 123.57 382.61 123.56 378.34 C123.56 376.29 123.56 374.25 123.57 372.21 C123.57 369.35 123.57 366.49 123.55 363.64 C123.56 362.8 123.56 361.97 123.57 361.11 C123.51 353.15 122.24 346.13 118.3 339.13 C117.64 339.13 116.98 339.13 116.3 339.13 C115.99 338.04 115.99 338.04 115.67 336.94 C113.82 333.16 111.69 331.61 108.3 329.13 C107.64 329.13 106.98 329.13 106.3 329.13 C106.3 328.47 106.3 327.81 106.3 327.13 C93.14 319.71 75.45 319.71 62.3 327.13 Z M222.3 327.13 C222.3 327.79 222.3 328.45 222.3 329.13 C221.31 329.13 220.32 329.13 219.3 329.13 C219.3 329.79 219.3 330.45 219.3 331.13 C218.66 331.4 218.02 331.66 217.36 331.94 C214.96 333.01 214.96 333.01 214.3 336.13 C213.64 336.13 212.98 336.13 212.3 336.13 C212.3 337.12 212.3 338.11 212.3 339.13 C211.64 339.13 210.98 339.13 210.3 339.13 C205.87 346.97 204.99 354.78 205.04 363.64 C205.03 364.54 205.03 365.44 205.03 366.37 C205.02 369.33 205.02 372.29 205.03 375.25 C205.03 377.33 205.03 379.4 205.02 381.47 C205.02 385.81 205.03 390.14 205.03 394.47 C205.05 400.01 205.04 405.55 205.03 411.09 C205.02 415.36 205.02 419.64 205.03 423.92 C205.03 425.96 205.03 428 205.02 430.04 C205.02 432.9 205.03 435.76 205.04 438.62 C205.03 439.45 205.03 440.28 205.02 441.14 C205.08 449.1 206.35 456.13 210.3 463.13 C210.96 463.13 211.62 463.13 212.3 463.13 C212.5 463.85 212.71 464.57 212.92 465.32 C214.77 469.1 216.9 470.65 220.3 473.13 C220.96 473.13 221.62 473.13 222.3 473.13 C222.3 473.79 222.3 474.45 222.3 475.13 C233.14 481.24 246.43 481.88 258.39 478.77 C261.18 477.83 263.73 476.57 266.3 475.13 C266.3 474.47 266.3 473.81 266.3 473.13 C267.02 472.92 267.74 472.72 268.48 472.5 C272.27 470.65 273.82 468.53 276.3 465.13 C276.3 464.47 276.3 463.81 276.3 463.13 C276.96 463.13 277.62 463.13 278.3 463.13 C282.72 455.29 283.6 447.47 283.55 438.62 C283.56 437.72 283.56 436.81 283.57 435.88 C283.57 432.92 283.57 429.96 283.56 427 C283.56 424.93 283.56 422.86 283.57 420.78 C283.57 416.45 283.57 412.12 283.56 407.78 C283.54 402.24 283.55 396.71 283.56 391.17 C283.57 386.89 283.57 382.61 283.56 378.34 C283.56 376.29 283.56 374.25 283.57 372.21 C283.57 369.35 283.57 366.49 283.55 363.64 C283.56 362.8 283.56 361.97 283.57 361.11 C283.51 353.15 282.24 346.13 278.3 339.13 C277.64 339.13 276.98 339.13 276.3 339.13 C275.99 338.04 275.99 338.04 275.67 336.94 C273.82 333.16 271.69 331.61 268.3 329.13 C267.64 329.13 266.98 329.13 266.3 329.13 C266.3 328.47 266.3 327.81 266.3 327.13 C253.14 319.71 235.45 319.71 222.3 327.13 Z M382.3 327.13 C382.3 327.79 382.3 328.45 382.3 329.13 C381.31 329.13 380.32 329.13 379.3 329.13 C379.3 329.79 379.3 330.45 379.3 331.13 C378.66 331.4 378.02 331.66 377.36 331.94 C374.96 333.01 374.96 333.01 374.3 336.13 C373.64 336.13 372.98 336.13 372.3 336.13 C372.3 337.12 372.3 338.11 372.3 339.13 C371.64 339.13 370.98 339.13 370.3 339.13 C365.87 346.97 364.99 354.78 365.04 363.64 C365.03 364.54 365.03 365.44 365.03 366.37 C365.02 369.33 365.02 372.29 365.03 375.25 C365.03 377.33 365.03 379.4 365.02 381.47 C365.02 385.81 365.03 390.14 365.03 394.47 C365.05 400.01 365.04 405.55 365.03 411.09 C365.02 415.36 365.02 419.64 365.03 423.92 C365.03 425.96 365.03 428 365.02 430.04 C365.02 432.9 365.03 435.76 365.04 438.62 C365.03 439.45 365.03 440.28 365.02 441.14 C365.08 449.1 366.35 456.13 370.3 463.13 C370.96 463.13 371.62 463.13 372.3 463.13 C372.5 463.85 372.71 464.57 372.92 465.32 C374.77 469.1 376.9 470.65 380.3 473.13 C380.96 473.13 381.62 473.13 382.3 473.13 C382.3 473.79 382.3 474.45 382.3 475.13 C393.14 481.24 406.43 481.88 418.39 478.77 C421.18 477.83 423.73 476.57 426.3 475.13 C426.3 474.47 426.3 473.81 426.3 473.13 C427.02 472.92 427.74 472.72 428.48 472.5 C432.27 470.65 433.82 468.53 436.3 465.13 C436.3 464.47 436.3 463.81 436.3 463.13 C436.96 463.13 437.62 463.13 438.3 463.13 C442.72 455.29 443.6 447.47 443.55 438.62 C443.56 437.72 443.56 436.81 443.57 435.88 C443.57 432.92 443.57 429.96 443.56 427 C443.56 424.93 443.56 422.86 443.57 420.78 C443.57 416.45 443.57 412.12 443.56 407.78 C443.54 402.24 443.55 396.71 443.56 391.17 C443.57 386.89 443.57 382.61 443.56 378.34 C443.56 376.29 443.56 374.25 443.57 372.21 C443.57 369.35 443.57 366.49 443.55 363.64 C443.56 362.8 443.56 361.97 443.57 361.11 C443.51 353.15 442.24 346.13 438.3 339.13 C437.64 339.13 436.98 339.13 436.3 339.13 C435.99 338.04 435.99 338.04 435.67 336.94 C433.82 333.16 431.69 331.61 428.3 329.13 C427.64 329.13 426.98 329.13 426.3 329.13 C426.3 328.47 426.3 327.81 426.3 327.13 C413.14 319.71 395.45 319.71 382.3 327.13 Z M542.3 327.13 C542.3 327.79 542.3 328.45 542.3 329.13 C541.31 329.13 540.32 329.13 539.3 329.13 C539.3 329.79 539.3 330.45 539.3 331.13 C538.66 331.4 538.02 331.66 537.36 331.94 C534.96 333.01 534.96 333.01 534.3 336.13 C533.64 336.13 532.98 336.13 532.3 336.13 C532.3 337.12 532.3 338.11 532.3 339.13 C531.64 339.13 530.98 339.13 530.3 339.13 C525.87 346.97 524.99 354.78 525.04 363.64 C525.03 364.54 525.03 365.44 525.03 366.37 C525.02 369.33 525.02 372.29 525.03 375.25 C525.03 377.33 525.03 379.4 525.02 381.47 C525.02 385.81 525.03 390.14 525.03 394.47 C525.05 400.01 525.04 405.55 525.03 411.09 C525.02 415.36 525.02 419.64 525.03 423.92 C525.03 425.96 525.03 428 525.02 430.04 C525.02 432.9 525.03 435.76 525.04 438.62 C525.03 439.45 525.03 440.28 525.02 441.14 C525.08 449.1 526.35 456.13 530.3 463.13 C530.96 463.13 531.62 463.13 532.3 463.13 C532.5 463.85 532.71 464.57 532.92 465.32 C534.77 469.1 536.9 470.65 540.3 473.13 C540.96 473.13 541.62 473.13 542.3 473.13 C542.3 473.79 542.3 474.45 542.3 475.13 C553.14 481.24 566.43 481.88 578.39 478.77 C581.18 477.83 583.73 476.57 586.3 475.13 C586.3 474.47 586.3 473.81 586.3 473.13 C587.02 472.92 587.74 472.72 588.48 472.5 C592.27 470.65 593.82 468.53 596.3 465.13 C596.3 464.47 596.3 463.81 596.3 463.13 C596.96 463.13 597.62 463.13 598.3 463.13 C602.72 455.29 603.6 447.47 603.55 438.62 C603.56 437.72 603.56 436.81 603.57 435.88 C603.57 432.92 603.57 429.96 603.56 427 C603.56 424.93 603.56 422.86 603.57 420.78 C603.57 416.45 603.57 412.12 603.56 407.78 C603.54 402.24 603.55 396.71 603.56 391.17 C603.57 386.89 603.57 382.61 603.56 378.34 C603.56 376.29 603.56 374.25 603.57 372.21 C603.57 369.35 603.57 366.49 603.55 363.64 C603.56 362.8 603.56 361.97 603.57 361.11 C603.51 353.15 602.24 346.13 598.3 339.13 C597.64 339.13 596.98 339.13 596.3 339.13 C595.99 338.04 595.99 338.04 595.67 336.94 C593.82 333.16 591.69 331.61 588.3 329.13 C587.64 329.13 586.98 329.13 586.3 329.13 C586.3 328.47 586.3 327.81 586.3 327.13 C573.14 319.71 555.45 319.71 542.3 327.13 Z M62.3 567.13 C62.3 567.79 62.3 568.45 62.3 569.13 C61.31 569.13 60.32 569.13 59.3 569.13 C59.3 569.79 59.3 570.45 59.3 571.13 C58.66 571.4 58.02 571.66 57.36 571.94 C54.96 573.01 54.96 573.01 54.3 576.13 C53.64 576.13 52.98 576.13 52.3 576.13 C52.3 577.12 52.3 578.11 52.3 579.13 C51.64 579.13 50.98 579.13 50.3 579.13 C45.87 586.97 44.99 594.78 45.04 603.64 C45.03 604.54 45.03 605.44 45.03 606.37 C45.02 609.33 45.02 612.29 45.03 615.25 C45.03 617.33 45.03 619.4 45.02 621.47 C45.02 625.81 45.03 630.14 45.03 634.47 C45.05 640.01 45.04 645.55 45.03 651.09 C45.02 655.36 45.02 659.64 45.03 663.92 C45.03 665.96 45.03 668 45.02 670.04 C45.02 672.9 45.03 675.76 45.04 678.62 C45.03 679.45 45.03 680.28 45.02 681.14 C45.08 689.1 46.35 696.13 50.3 703.13 C50.96 703.13 51.62 703.13 52.3 703.13 C52.5 703.85 52.71 704.57 52.92 705.32 C54.77 709.1 56.9 710.65 60.3 713.13 C60.96 713.13 61.62 713.13 62.3 713.13 C62.3 713.79 62.3 714.45 62.3 715.13 C73.14 721.24 86.43 721.88 98.39 718.77 C101.18 717.83 103.73 716.57 106.3 715.13 C106.3 714.47 106.3 713.81 106.3 713.13 C107.02 712.92 107.74 712.72 108.48 712.5 C112.27 710.65 113.82 708.53 116.3 705.13 C116.3 704.47 116.3 703.81 116.3 703.13 C116.96 703.13 117.62 703.13 118.3 703.13 C122.72 695.29 123.6 687.47 123.55 678.62 C123.56 677.72 123.56 676.81 123.57 675.88 C123.57 672.92 123.57 669.96 123.56 667 C123.56 664.93 123.56 662.86 123.57 660.78 C123.57 656.45 123.57 652.12 123.56 647.78 C123.54 642.24 123.55 636.71 123.56 631.17 C123.57 626.89 123.57 622.61 123.56 618.34 C123.56 616.29 123.56 614.25 123.57 612.21 C123.57 609.35 123.57 606.49 123.55 603.64 C123.56 602.8 123.56 601.97 123.57 601.11 C123.51 593.15 122.24 586.13 118.3 579.13 C117.64 579.13 116.98 579.13 116.3 579.13 C115.99 578.04 115.99 578.04 115.67 576.94 C113.82 573.16 111.69 571.61 108.3 569.13 C107.64 569.13 106.98 569.13 106.3 569.13 C106.3 568.47 106.3 567.81 106.3 567.13 C93.14 559.71 75.45 559.71 62.3 567.13 Z M222.3 567.13 C222.3 567.79 222.3 568.45 222.3 569.13 C221.31 569.13 220.32 569.13 219.3 569.13 C219.3 569.79 219.3 570.45 219.3 571.13 C218.66 571.4 218.02 571.66 217.36 571.94 C214.96 573.01 214.96 573.01 214.3 576.13 C213.64 576.13 212.98 576.13 212.3 576.13 C212.3 577.12 212.3 578.11 212.3 579.13 C211.64 579.13 210.98 579.13 210.3 579.13 C205.87 586.97 204.99 594.78 205.04 603.64 C205.03 604.54 205.03 605.44 205.03 606.37 C205.02 609.33 205.02 612.29 205.03 615.25 C205.03 617.33 205.03 619.4 205.02 621.47 C205.02 625.81 205.03 630.14 205.03 634.47 C205.05 640.01 205.04 645.55 205.03 651.09 C205.02 655.36 205.02 659.64 205.03 663.92 C205.03 665.96 205.03 668 205.02 670.04 C205.02 672.9 205.03 675.76 205.04 678.62 C205.03 679.45 205.03 680.28 205.02 681.14 C205.08 689.1 206.35 696.13 210.3 703.13 C210.96 703.13 211.62 703.13 212.3 703.13 C212.5 703.85 212.71 704.57 212.92 705.32 C214.77 709.1 216.9 710.65 220.3 713.13 C220.96 713.13 221.62 713.13 222.3 713.13 C222.3 713.79 222.3 714.45 222.3 715.13 C233.14 721.24 246.43 721.88 258.39 718.77 C261.18 717.83 263.73 716.57 266.3 715.13 C266.3 714.47 266.3 713.81 266.3 713.13 C267.02 712.92 267.74 712.72 268.48 712.5 C272.27 710.65 273.82 708.53 276.3 705.13 C276.3 704.47 276.3 703.81 276.3 703.13 C276.96 703.13 277.62 703.13 278.3 703.13 C282.72 695.29 283.6 687.47 283.55 678.62 C283.56 677.72 283.56 676.81 283.57 675.88 C283.57 672.92 283.57 669.96 283.56 667 C283.56 664.93 283.56 662.86 283.57 660.78 C283.57 656.45 283.57 652.12 283.56 647.78 C283.54 642.24 283.55 636.71 283.56 631.17 C283.57 626.89 283.57 622.61 283.56 618.34 C283.56 616.29 283.56 614.25 283.57 612.21 C283.57 609.35 283.57 606.49 283.55 603.64 C283.56 602.8 283.56 601.97 283.57 601.11 C283.51 593.15 282.24 586.13 278.3 579.13 C277.64 579.13 276.98 579.13 276.3 579.13 C275.99 578.04 275.99 578.04 275.67 576.94 C273.82 573.16 271.69 571.61 268.3 569.13 C267.64 569.13 266.98 569.13 266.3 569.13 C266.3 568.47 266.3 567.81 266.3 567.13 C253.14 559.71 235.45 559.71 222.3 567.13 Z M382.3 567.13 C382.3 567.79 382.3 568.45 382.3 569.13 C381.31 569.13 380.32 569.13 379.3 569.13 C379.3 569.79 379.3 570.45 379.3 571.13 C378.66 571.4 378.02 571.66 377.36 571.94 C374.96 573.01 374.96 573.01 374.3 576.13 C373.64 576.13 372.98 576.13 372.3 576.13 C372.3 577.12 372.3 578.11 372.3 579.13 C371.64 579.13 370.98 579.13 370.3 579.13 C365.87 586.97 364.99 594.78 365.04 603.64 C365.03 604.54 365.03 605.44 365.03 606.37 C365.02 609.33 365.02 612.29 365.03 615.25 C365.03 617.33 365.03 619.4 365.02 621.47 C365.02 625.81 365.03 630.14 365.03 634.47 C365.05 640.01 365.04 645.55 365.03 651.09 C365.02 655.36 365.02 659.64 365.03 663.92 C365.03 665.96 365.03 668 365.02 670.04 C365.02 672.9 365.03 675.76 365.04 678.62 C365.03 679.45 365.03 680.28 365.02 681.14 C365.08 689.1 366.35 696.13 370.3 703.13 C370.96 703.13 371.62 703.13 372.3 703.13 C372.5 703.85 372.71 704.57 372.92 705.32 C374.77 709.1 376.9 710.65 380.3 713.13 C380.96 713.13 381.62 713.13 382.3 713.13 C382.3 713.79 382.3 714.45 382.3 715.13 C393.14 721.24 406.43 721.88 418.39 718.77 C421.18 717.83 423.73 716.57 426.3 715.13 C426.3 714.47 426.3 713.81 426.3 713.13 C427.02 712.92 427.74 712.72 428.48 712.5 C432.27 710.65 433.82 708.53 436.3 705.13 C436.3 704.47 436.3 703.81 436.3 703.13 C436.96 703.13 437.62 703.13 438.3 703.13 C442.72 695.29 443.6 687.47 443.55 678.62 C443.56 677.72 443.56 676.81 443.57 675.88 C443.57 672.92 443.57 669.96 443.56 667 C443.56 664.93 443.56 662.86 443.57 660.78 C443.57 656.45 443.57 652.12 443.56 647.78 C443.54 642.24 443.55 636.71 443.56 631.17 C443.57 626.89 443.57 622.61 443.56 618.34 C443.56 616.29 443.56 614.25 443.57 612.21 C443.57 609.35 443.57 606.49 443.55 603.64 C443.56 602.8 443.56 601.97 443.57 601.11 C443.51 593.15 442.24 586.13 438.3 579.13 C437.64 579.13 436.98 579.13 436.3 579.13 C435.99 578.04 435.99 578.04 435.67 576.94 C433.82 573.16 431.69 571.61 428.3 569.13 C427.64 569.13 426.98 569.13 426.3 569.13 C426.3 568.47 426.3 567.81 426.3 567.13 C413.14 559.71 395.45 559.71 382.3 567.13 Z M542.3 567.13 C542.3 567.79 542.3 568.45 542.3 569.13 C541.31 569.13 540.32 569.13 539.3 569.13 C539.3 569.79 539.3 570.45 539.3 571.13 C538.66 571.4 538.02 571.66 537.36 571.94 C534.96 573.01 534.96 573.01 534.3 576.13 C533.64 576.13 532.98 576.13 532.3 576.13 C532.3 577.12 532.3 578.11 532.3 579.13 C531.64 579.13 530.98 579.13 530.3 579.13 C525.87 586.97 524.99 594.78 525.04 603.64 C525.03 604.54 525.03 605.44 525.03 606.37 C525.02 609.33 525.02 612.29 525.03 615.25 C525.03 617.33 525.03 619.4 525.02 621.47 C525.02 625.81 525.03 630.14 525.03 634.47 C525.05 640.01 525.04 645.55 525.03 651.09 C525.02 655.36 525.02 659.64 525.03 663.92 C525.03 665.96 525.03 668 525.02 670.04 C525.02 672.9 525.03 675.76 525.04 678.62 C525.03 679.45 525.03 680.28 525.02 681.14 C525.08 689.1 526.35 696.13 530.3 703.13 C530.96 703.13 531.62 703.13 532.3 703.13 C532.5 703.85 532.71 704.57 532.92 705.32 C534.77 709.1 536.9 710.65 540.3 713.13 C540.96 713.13 541.62 713.13 542.3 713.13 C542.3 713.79 542.3 714.45 542.3 715.13 C553.14 721.24 566.43 721.88 578.39 718.77 C581.18 717.83 583.73 716.57 586.3 715.13 C586.3 714.47 586.3 713.81 586.3 713.13 C587.02 712.92 587.74 712.72 588.48 712.5 C592.27 710.65 593.82 708.53 596.3 705.13 C596.3 704.47 596.3 703.81 596.3 703.13 C596.96 703.13 597.62 703.13 598.3 703.13 C602.72 695.29 603.6 687.47 603.55 678.62 C603.56 677.72 603.56 676.81 603.57 675.88 C603.57 672.92 603.57 669.96 603.56 667 C603.56 664.93 603.56 662.86 603.57 660.78 C603.57 656.45 603.57 652.12 603.56 647.78 C603.54 642.24 603.55 636.71 603.56 631.17 C603.57 626.89 603.57 622.61 603.56 618.34 C603.56 616.29 603.56 614.25 603.57 612.21 C603.57 609.35 603.57 606.49 603.55 603.64 C603.56 602.8 603.56 601.97 603.57 601.11 C603.51 593.15 602.24 586.13 598.3 579.13 C597.64 579.13 596.98 579.13 596.3 579.13 C595.99 578.04 595.99 578.04 595.67 576.94 C593.82 573.16 591.69 571.61 588.3 569.13 C587.64 569.13 586.98 569.13 586.3 569.13 C586.3 568.47 586.3 567.81 586.3 567.13 C573.14 559.71 555.45 559.71 542.3 567.13 Z M22.3 807.13 C22.3 807.79 22.3 808.45 22.3 809.13 C21.31 809.13 20.32 809.13 19.3 809.13 C19.3 809.79 19.3 810.45 19.3 811.13 C18.66 811.4 18.02 811.66 17.36 811.94 C14.96 813.01 14.96 813.01 14.3 816.13 C13.64 816.13 12.98 816.13 12.3 816.13 C12.3 817.12 12.3 818.11 12.3 819.13 C11.64 819.13 10.98 819.13 10.3 819.13 C5.87 826.97 4.99 834.78 5.04 843.64 C5.03 844.54 5.03 845.44 5.03 846.37 C5.02 849.33 5.02 852.29 5.03 855.25 C5.03 857.33 5.03 859.4 5.02 861.47 C5.02 865.81 5.03 870.14 5.03 874.47 C5.05 880.01 5.04 885.55 5.03 891.09 C5.02 895.36 5.02 899.64 5.03 903.92 C5.03 905.96 5.03 908 5.02 910.04 C5.02 912.9 5.03 915.76 5.04 918.62 C5.03 919.45 5.03 920.28 5.02 921.14 C5.08 929.1 6.35 936.13 10.3 943.13 C10.96 943.13 11.62 943.13 12.3 943.13 C12.5 943.85 12.71 944.57 12.92 945.32 C14.77 949.1 16.9 950.65 20.3 953.13 C20.96 953.13 21.62 953.13 22.3 953.13 C22.3 953.79 22.3 954.45 22.3 955.13 C33.14 961.24 46.43 961.88 58.39 958.77 C61.18 957.83 63.73 956.57 66.3 955.13 C66.3 954.47 66.3 953.81 66.3 953.13 C67.02 952.92 67.74 952.72 68.48 952.5 C72.27 950.65 73.82 948.53 76.3 945.13 C76.3 944.47 76.3 943.81 76.3 943.13 C76.96 943.13 77.62 943.13 78.3 943.13 C82.72 935.29 83.6 927.47 83.55 918.62 C83.56 917.72 83.56 916.81 83.57 915.88 C83.57 912.92 83.57 909.96 83.56 907 C83.56 904.93 83.56 902.86 83.57 900.78 C83.57 896.45 83.57 892.12 83.56 887.78 C83.54 882.24 83.55 876.71 83.56 871.17 C83.57 866.89 83.57 862.61 83.56 858.34 C83.56 856.29 83.56 854.25 83.57 852.21 C83.57 849.35 83.57 846.49 83.55 843.64 C83.56 842.8 83.56 841.97 83.57 841.11 C83.51 833.15 82.24 826.13 78.3 819.13 C77.64 819.13 76.98 819.13 76.3 819.13 C75.99 818.04 75.99 818.04 75.67 816.94 C73.82 813.16 71.69 811.61 68.3 809.13 C67.64 809.13 66.98 809.13 66.3 809.13 C66.3 808.47 66.3 807.81 66.3 807.13 C53.14 799.71 35.45 799.71 22.3 807.13 Z M582.3 807.13 C582.3 807.79 582.3 808.45 582.3 809.13 C581.31 809.13 580.32 809.13 579.3 809.13 C579.3 809.79 579.3 810.45 579.3 811.13 C578.66 811.4 578.02 811.66 577.36 811.94 C574.96 813.01 574.96 813.01 574.3 816.13 C573.64 816.13 572.98 816.13 572.3 816.13 C572.3 817.12 572.3 818.11 572.3 819.13 C571.64 819.13 570.98 819.13 570.3 819.13 C565.87 826.97 564.99 834.78 565.04 843.64 C565.03 844.54 565.03 845.44 565.03 846.37 C565.02 849.33 565.02 852.29 565.03 855.25 C565.03 857.33 565.03 859.4 565.02 861.47 C565.02 865.81 565.03 870.14 565.03 874.47 C565.05 880.01 565.04 885.55 565.03 891.09 C565.02 895.36 565.02 899.64 565.03 903.92 C565.03 905.96 565.03 908 565.02 910.04 C565.02 912.9 565.03 915.76 565.04 918.62 C565.03 919.45 565.03 920.28 565.02 921.14 C565.08 929.1 566.35 936.13 570.3 943.13 C570.96 943.13 571.62 943.13 572.3 943.13 C572.5 943.85 572.71 944.57 572.92 945.32 C574.77 949.1 576.9 950.65 580.3 953.13 C580.96 953.13 581.62 953.13 582.3 953.13 C582.3 953.79 582.3 954.45 582.3 955.13 C593.14 961.24 606.43 961.88 618.39 958.77 C621.18 957.83 623.73 956.57 626.3 955.13 C626.3 954.47 626.3 953.81 626.3 953.13 C627.02 952.92 627.74 952.72 628.48 952.5 C632.27 950.65 633.82 948.53 636.3 945.13 C636.3 944.47 636.3 943.81 636.3 943.13 C636.96 943.13 637.62 943.13 638.3 943.13 C642.72 935.29 643.6 927.47 643.55 918.62 C643.56 917.72 643.56 916.81 643.57 915.88 C643.57 912.92 643.57 909.96 643.56 907 C643.56 904.93 643.56 902.86 643.57 900.78 C643.57 896.45 643.57 892.12 643.56 887.78 C643.54 882.24 643.55 876.71 643.56 871.17 C643.57 866.89 643.57 862.61 643.56 858.34 C643.56 856.29 643.56 854.25 643.57 852.21 C643.57 849.35 643.57 846.49 643.55 843.64 C643.56 842.8 643.56 841.97 643.57 841.11 C643.51 833.15 642.24 826.13 638.3 819.13 C637.64 819.13 636.98 819.13 636.3 819.13 C635.99 818.04 635.99 818.04 635.67 816.94 C633.82 813.16 631.69 811.61 628.3 809.13 C627.64 809.13 626.98 809.13 626.3 809.13 C626.3 808.47 626.3 807.81 626.3 807.13 C613.14 799.71 595.45 799.71 582.3 807.13 Z " fill="#047857" transform="translate(315.7044025659561,78.87234950065613)"/>
<path d="M0 0 C0.65 -0 1.31 -0 1.98 -0 C4.19 -0.01 6.39 -0.01 8.6 -0 C10.17 -0 11.75 -0.01 13.32 -0.01 C17.61 -0.01 21.9 -0.01 26.19 -0.01 C30.67 -0 35.15 -0.01 39.62 -0.01 C47.15 -0.01 54.67 -0.01 62.19 -0 C70.9 0 79.61 0 88.32 -0.01 C95.79 -0.01 103.25 -0.01 110.71 -0.01 C115.18 -0.01 119.64 -0.01 124.11 -0.01 C128.3 -0.01 132.5 -0.01 136.69 -0 C138.24 -0 139.78 -0 141.33 -0.01 C143.43 -0.01 145.53 -0.01 147.62 0 C149.39 0 149.39 0 151.19 0 C153.81 0.13 153.81 0.13 154.81 1.13 C154.91 2.62 154.94 4.12 154.94 5.62 C154.94 6.6 154.94 7.57 154.95 8.58 C154.94 9.67 154.94 10.75 154.94 11.87 C154.94 13.01 154.94 14.16 154.94 15.34 C154.95 18.52 154.95 21.71 154.94 24.9 C154.94 28.33 154.94 31.77 154.95 35.2 C154.95 41.93 154.95 48.66 154.95 55.39 C154.95 60.86 154.94 66.33 154.95 71.79 C154.95 72.57 154.95 73.35 154.95 74.15 C154.95 75.73 154.95 77.3 154.95 78.88 C154.95 93.69 154.95 108.5 154.94 123.31 C154.94 136.03 154.94 148.76 154.94 161.48 C154.95 176.23 154.95 190.99 154.95 205.74 C154.95 207.32 154.95 208.89 154.95 210.46 C154.95 211.23 154.95 212.01 154.95 212.8 C154.94 218.27 154.95 223.73 154.95 229.2 C154.95 235.85 154.95 242.51 154.95 249.16 C154.94 252.56 154.94 255.96 154.94 259.36 C154.95 263.03 154.94 266.71 154.94 270.38 C154.94 271.47 154.94 272.56 154.95 273.67 C154.94 274.65 154.94 275.63 154.94 276.63 C154.94 277.48 154.94 278.33 154.94 279.21 C154.81 281.13 154.81 281.13 153.81 282.13 C151.75 282.23 149.69 282.25 147.62 282.25 C146.64 282.26 146.64 282.26 145.64 282.26 C143.44 282.26 141.23 282.26 139.03 282.26 C137.45 282.26 135.88 282.26 134.3 282.26 C130.01 282.27 125.72 282.26 121.44 282.26 C116.96 282.26 112.48 282.26 108 282.26 C100.48 282.26 92.95 282.26 85.43 282.26 C76.72 282.25 68.01 282.25 59.3 282.26 C51.84 282.26 44.38 282.26 36.91 282.26 C32.45 282.26 27.98 282.26 23.52 282.26 C19.32 282.27 15.13 282.26 10.93 282.26 C9.39 282.26 7.84 282.26 6.3 282.26 C4.2 282.26 2.1 282.26 0 282.25 C-1.77 282.25 -1.77 282.25 -3.57 282.25 C-6.19 282.13 -6.19 282.13 -7.19 281.13 C-7.29 279.63 -7.31 278.13 -7.31 276.63 C-7.32 275.66 -7.32 274.68 -7.32 273.67 C-7.32 272.59 -7.32 271.5 -7.31 270.38 C-7.32 269.24 -7.32 268.1 -7.32 266.92 C-7.32 263.73 -7.32 260.54 -7.32 257.35 C-7.32 253.92 -7.32 250.49 -7.32 247.05 C-7.33 240.32 -7.33 233.59 -7.32 226.86 C-7.32 221.4 -7.32 215.93 -7.32 210.46 C-7.32 209.68 -7.32 208.91 -7.32 208.11 C-7.32 206.53 -7.32 204.95 -7.32 203.37 C-7.33 188.56 -7.32 173.75 -7.32 158.94 C-7.31 146.22 -7.31 133.5 -7.32 120.78 C-7.32 106.02 -7.33 91.27 -7.32 76.51 C-7.32 74.94 -7.32 73.37 -7.32 71.79 C-7.32 71.02 -7.32 70.25 -7.32 69.45 C-7.32 63.99 -7.32 58.52 -7.32 53.06 C-7.33 46.4 -7.33 39.75 -7.32 33.09 C-7.32 29.69 -7.32 26.3 -7.32 22.9 C-7.32 19.22 -7.32 15.55 -7.31 11.87 C-7.32 10.78 -7.32 9.7 -7.32 8.58 C-7.32 7.6 -7.32 6.63 -7.31 5.62 C-7.31 4.77 -7.31 3.92 -7.31 3.05 C-7.03 -1.22 -3.51 0 0 0 Z " fill="#047857" transform="translate(566.187744140625,918.8730163574219)"/>
</svg>
