<svg width="15" height="15" viewBox="0 0 15 15" fill="none" xmlns="http://www.w3.org/2000/svg">
<path d="M2.69417 7.69627C3.49959 7.69627 4.15251 7.04335 4.15251 6.23794C4.15251 5.43252 3.49959 4.7796 2.69417 4.7796C1.88876 4.7796 1.23584 5.43252 1.23584 6.23794C1.23584 7.04335 1.88876 7.69627 2.69417 7.69627Z" fill="#07C189"/>
<path d="M5.31917 5.36296C6.12459 5.36296 6.77751 4.71004 6.77751 3.90462C6.77751 3.09921 6.12459 2.44629 5.31917 2.44629C4.51376 2.44629 3.86084 3.09921 3.86084 3.90462C3.86084 4.71004 4.51376 5.36296 5.31917 5.36296Z" fill="#07C189"/>
<path d="M8.81917 5.36296C9.62459 5.36296 10.2775 4.71004 10.2775 3.90462C10.2775 3.09921 9.62459 2.44629 8.81917 2.44629C8.01376 2.44629 7.36084 3.09921 7.36084 3.90462C7.36084 4.71004 8.01376 5.36296 8.81917 5.36296Z" fill="#07C189"/>
<path d="M11.4442 7.69627C12.2496 7.69627 12.9025 7.04335 12.9025 6.23794C12.9025 5.43252 12.2496 4.7796 11.4442 4.7796C10.6388 4.7796 9.98584 5.43252 9.98584 6.23794C9.98584 7.04335 10.6388 7.69627 11.4442 7.69627Z" fill="#07C189"/>
<path d="M10.1844 9.36462C9.67688 8.76962 9.25105 8.26212 8.73771 7.66712C8.46938 7.35212 8.12521 7.03712 7.71688 6.89712C7.65271 6.87379 7.58855 6.85629 7.52438 6.84462C7.37855 6.82129 7.22105 6.82129 7.06938 6.82129C6.91771 6.82129 6.76021 6.82129 6.60855 6.85046C6.54438 6.86212 6.48021 6.87962 6.41605 6.90296C6.00771 7.04296 5.66938 7.35796 5.39521 7.67296C4.88771 8.26796 4.46188 8.77546 3.94855 9.37046C3.18438 10.1346 2.24521 10.9805 2.42021 12.1646C2.58938 12.7596 3.01521 13.3488 3.77938 13.518C4.20521 13.6055 5.56438 13.2613 7.01105 13.2613H7.11605C8.56271 13.2613 9.92188 13.5996 10.3477 13.518C11.1119 13.3488 11.5377 12.7538 11.7069 12.1646C11.8877 10.9746 10.9485 10.1288 10.1844 9.36462Z" fill="#07C189"/>
</svg>
