<?xml version="1.0" encoding="UTF-8"?>
<!-- Generator: visioncortex VTracer 0.6.3 -->
<svg version="1.1" xmlns="http://www.w3.org/2000/svg" width="1280" height="1280">
<path d="M0 0 C36.98 -0.01 73.97 -0.02 110.95 -0.03 C111.67 -0.03 112.4 -0.03 113.14 -0.03 C190.66 -0.05 268.18 -0.07 345.7 -0.08 C347.42 -0.08 349.14 -0.09 350.87 -0.09 C386.99 -0.09 423.12 -0.1 459.25 -0.1 C477.4 -0.1 495.55 -0.11 513.69 -0.11 C516.43 -0.11 519.17 -0.11 521.91 -0.11 C564.08 -0.12 606.25 -0.12 648.42 -0.14 C649.32 -0.14 650.23 -0.14 651.17 -0.14 C665.79 -0.14 680.42 -0.15 695.05 -0.15 C737.16 -0.16 779.27 -0.18 821.38 -0.18 C822.25 -0.18 823.12 -0.18 824.01 -0.18 C843 -0.18 862 -0.19 880.99 -0.19 C888.64 -0.19 896.28 -0.19 903.92 -0.19 C905.18 -0.19 905.18 -0.19 906.46 -0.19 C933.44 -0.19 960.42 -0.2 987.4 -0.21 C1014.56 -0.22 1041.73 -0.23 1068.89 -0.23 C1072.64 -0.23 1076.39 -0.23 1080.13 -0.23 C1080.87 -0.23 1081.6 -0.23 1082.36 -0.23 C1094.03 -0.23 1105.69 -0.23 1117.36 -0.24 C1128.81 -0.25 1140.26 -0.25 1151.72 -0.24 C1157.85 -0.24 1163.98 -0.24 1170.12 -0.25 C1175.68 -0.26 1181.25 -0.26 1186.82 -0.25 C1188.83 -0.25 1190.85 -0.25 1192.86 -0.25 C1195.57 -0.26 1198.29 -0.26 1201 -0.25 C1201.79 -0.25 1202.58 -0.26 1203.4 -0.26 C1208.77 -0.23 1208.77 -0.23 1211 2 C1211.25 4.06 1211.25 4.06 1211.25 6.66 C1211.26 7.66 1211.26 8.65 1211.27 9.67 C1211.26 10.77 1211.26 11.87 1211.25 13 C1211.26 14.17 1211.26 15.33 1211.26 16.53 C1211.27 19.79 1211.27 23.05 1211.26 26.31 C1211.26 29.85 1211.27 33.38 1211.27 36.92 C1211.28 43.13 1211.28 49.33 1211.28 55.54 C1211.27 64.77 1211.28 74 1211.29 83.23 C1211.3 100.68 1211.3 118.12 1211.3 135.57 C1211.3 149.04 1211.3 162.52 1211.31 176 C1211.31 177.93 1211.31 179.87 1211.31 181.8 C1211.31 184.72 1211.31 187.63 1211.31 190.55 C1211.32 217.67 1211.32 244.79 1211.32 271.91 C1211.32 272.93 1211.32 273.96 1211.32 275.01 C1211.32 280.2 1211.32 285.38 1211.32 290.57 C1211.32 291.6 1211.32 292.63 1211.32 293.69 C1211.32 295.78 1211.32 297.86 1211.32 299.94 C1211.31 332.33 1211.32 364.71 1211.34 397.1 C1211.36 433.47 1211.37 469.84 1211.36 506.22 C1211.36 510.1 1211.36 513.98 1211.36 517.86 C1211.36 519.29 1211.36 519.29 1211.36 520.76 C1211.36 535.17 1211.37 549.59 1211.38 564 C1211.39 580.41 1211.39 596.82 1211.38 613.23 C1211.37 622.4 1211.37 631.58 1211.39 640.76 C1211.4 646.9 1211.39 653.03 1211.38 659.17 C1211.38 662.67 1211.37 666.16 1211.39 669.65 C1211.47 699.99 1207.53 724.97 1189 750 C1188.44 750.79 1187.88 751.58 1187.3 752.39 C1186.77 753.13 1186.23 753.87 1185.69 754.62 C1184.98 755.6 1184.98 755.6 1184.26 756.6 C1183.85 757.06 1183.43 757.52 1183 758 C1182.34 758 1181.68 758 1181 758 C1180.75 758.58 1180.51 759.15 1180.25 759.75 C1178.82 762.33 1177.22 764.06 1175 766 C1174.34 766 1173.68 766 1173 766 C1173 766.66 1173 767.32 1173 768 C1171.66 769.29 1171.66 769.29 1169.77 770.76 C1169.08 771.3 1168.38 771.84 1167.67 772.39 C1166.91 772.96 1166.15 773.54 1165.38 774.12 C1164.61 774.71 1163.84 775.29 1163.04 775.89 C1154.25 782.46 1145.03 787.95 1134.88 792.2 C1133.18 792.93 1131.52 793.77 1129.88 794.62 C1126.63 796.18 1123.48 797.07 1120 798 C1119.33 798.23 1118.66 798.45 1117.96 798.68 C1103.7 803.4 1089.1 804.45 1074.2 804.38 C1072.48 804.38 1070.75 804.39 1069.03 804.39 C1064.33 804.4 1059.63 804.4 1054.93 804.39 C1049.8 804.38 1044.68 804.39 1039.55 804.4 C1030.58 804.41 1021.6 804.41 1012.63 804.4 C999.29 804.39 985.94 804.39 972.6 804.4 C950.14 804.42 927.69 804.42 905.24 804.41 C904.55 804.41 903.87 804.41 903.17 804.41 C902.48 804.41 901.8 804.41 901.09 804.41 C880.24 804.4 859.38 804.4 838.52 804.4 C837.12 804.4 835.72 804.4 834.33 804.4 C828.71 804.4 823.09 804.4 817.47 804.41 C801.77 804.41 786.06 804.41 770.36 804.41 C769.64 804.41 768.93 804.41 768.19 804.41 C745.41 804.41 722.64 804.41 699.86 804.4 C698.75 804.4 698.75 804.4 697.62 804.4 C685.63 804.4 673.64 804.39 661.65 804.39 C614.09 804.38 566.53 804.38 518.97 804.39 C506.98 804.39 494.99 804.4 483.01 804.4 C482.27 804.4 481.53 804.4 480.77 804.4 C458.01 804.41 435.26 804.41 412.51 804.41 C411.79 804.41 411.08 804.41 410.34 804.41 C394.65 804.41 378.97 804.41 363.28 804.4 C357.67 804.4 352.05 804.4 346.44 804.4 C345.05 804.4 343.65 804.4 342.25 804.4 C321.4 804.4 300.55 804.4 279.7 804.41 C278.67 804.41 278.67 804.41 277.63 804.41 C276.95 804.41 276.26 804.41 275.56 804.41 C252.55 804.42 229.54 804.41 206.52 804.4 C193.26 804.39 180 804.39 166.73 804.4 C157.87 804.41 149.01 804.4 140.15 804.39 C135.1 804.38 130.05 804.38 125.01 804.39 C120.41 804.4 115.81 804.4 111.21 804.38 C109.56 804.38 107.92 804.38 106.27 804.39 C91.61 804.45 77.5 803.14 64 797 C62.35 796.39 60.71 795.79 59.06 795.19 C38.18 786.79 23.69 770.09 13 751 C12.2 749.72 12.2 749.72 11.38 748.42 C9.86 745.75 8.93 743.17 8 740.25 C6.87 736.7 5.71 733.19 4.44 729.69 C-0.46 714.3 -0.43 699.39 -0.37 683.36 C-0.36 679.71 -0.36 676.06 -0.37 672.42 C-0.37 666.04 -0.37 659.66 -0.36 653.28 C-0.34 643.79 -0.34 634.3 -0.34 624.81 C-0.35 608.85 -0.34 592.89 -0.32 576.92 C-0.3 561.13 -0.29 545.33 -0.28 529.53 C-0.28 528.54 -0.28 527.56 -0.28 526.55 C-0.28 521.55 -0.28 516.56 -0.28 511.57 C-0.27 476.22 -0.25 440.87 -0.23 405.52 C-0.2 371.19 -0.18 336.86 -0.16 302.52 C-0.16 301.46 -0.16 300.4 -0.16 299.31 C-0.16 288.68 -0.16 278.05 -0.15 267.41 C-0.14 245.75 -0.14 224.09 -0.13 202.43 C-0.13 201.44 -0.13 200.44 -0.13 199.41 C-0.1 132.94 -0.05 66.47 0 0 Z M231 144 C231 144.66 231 145.32 231 146 C230.42 146.08 229.85 146.16 229.25 146.25 C226.35 147.22 224.96 148.69 223 151 C223 151.66 223 152.32 223 153 C222.34 153 221.68 153 221 153 C214.37 164.15 215.27 175.91 215.34 188.46 C215.33 190.75 215.33 193.03 215.32 195.32 C215.31 200.09 215.32 204.85 215.35 209.62 C215.38 215.71 215.36 221.79 215.33 227.87 C215.31 232.59 215.32 237.3 215.33 242.01 C215.33 244.25 215.33 246.49 215.32 248.73 C214.79 267.37 214.79 267.37 222.54 283.83 C223.95 285.21 223.95 285.21 226 285 C226 285.66 226 286.32 226 287 C227.39 287.82 228.79 288.63 230.19 289.44 C230.96 289.89 231.74 290.34 232.54 290.81 C238.07 293.49 243.81 293.15 249.82 293.15 C250.8 293.15 251.79 293.15 252.8 293.16 C256.05 293.16 259.3 293.17 262.55 293.17 C264.82 293.17 267.08 293.17 269.34 293.18 C274.09 293.18 278.83 293.19 283.57 293.19 C289.64 293.19 295.72 293.2 301.79 293.22 C306.46 293.23 311.13 293.23 315.81 293.23 C318.05 293.23 320.28 293.23 322.52 293.24 C325.66 293.25 328.79 293.25 331.92 293.24 C332.84 293.25 333.76 293.25 334.71 293.26 C341.62 293.23 347.25 292.13 353.44 288.88 C354.12 288.52 354.8 288.17 355.5 287.8 C355.99 287.54 356.49 287.27 357 287 C357 286.34 357 285.68 357 285 C357.99 284.67 358.98 284.34 360 284 C366.92 275.87 368.46 267 368.39 256.55 C368.39 255.56 368.4 254.57 368.4 253.55 C368.42 250.3 368.41 247.06 368.4 243.81 C368.4 241.54 368.4 239.26 368.41 236.99 C368.41 232.24 368.41 227.49 368.39 222.73 C368.37 216.66 368.38 210.58 368.4 204.51 C368.41 199.82 368.41 195.13 368.4 190.44 C368.4 188.2 368.4 185.96 368.41 183.72 C368.42 180.59 368.4 177.45 368.39 174.32 C368.4 172.95 368.4 172.95 368.41 171.55 C368.33 164.13 367.15 156.58 361.94 150.94 C361.43 150.37 360.92 149.8 360.4 149.21 C359.06 147.78 359.06 147.78 357 148 C357 147.34 357 146.68 357 146 C345.75 139.21 333.61 140.31 320.92 140.41 C318.58 140.41 316.24 140.41 313.9 140.41 C309.02 140.41 304.13 140.43 299.25 140.46 C293 140.5 286.75 140.5 280.5 140.49 C275.67 140.49 270.85 140.5 266.02 140.52 C263.72 140.53 261.41 140.53 259.11 140.53 C255.89 140.53 252.67 140.55 249.45 140.58 C248.5 140.58 247.56 140.57 246.59 140.57 C240.73 140.65 236.37 141.63 231 144 Z M518.19 153.44 C513.78 159.68 513.7 166.17 513.69 173.53 C513.69 174.58 513.68 175.62 513.67 176.7 C513.64 180.16 513.64 183.62 513.63 187.08 C513.62 189.49 513.61 191.9 513.6 194.31 C513.59 199.37 513.58 204.42 513.57 209.47 C513.57 215.93 513.53 222.39 513.49 228.85 C513.46 233.84 513.45 238.82 513.45 243.8 C513.44 246.18 513.43 248.56 513.41 250.94 C513.38 254.28 513.39 257.62 513.4 260.95 C513.39 261.93 513.37 262.9 513.36 263.91 C513.44 272.15 516.08 278.45 521.31 284.81 C529.9 291.8 536.28 293.15 547.19 293.15 C548.21 293.15 549.23 293.15 550.29 293.16 C553.67 293.16 557.05 293.17 560.43 293.17 C562.78 293.17 565.13 293.17 567.49 293.18 C572.42 293.18 577.35 293.19 582.28 293.19 C588.59 293.19 594.91 293.2 601.22 293.22 C606.08 293.23 610.94 293.23 615.8 293.23 C618.13 293.23 620.45 293.23 622.78 293.24 C626.04 293.25 629.3 293.25 632.55 293.24 C633.99 293.25 633.99 293.25 635.46 293.26 C644.44 293.22 653.16 291.32 660 285 C660 284.01 660 283.02 660 282 C660.66 282 661.32 282 662 282 C665.22 275.88 665.43 270.7 665.39 263.85 C665.39 262.75 665.4 261.65 665.4 260.51 C665.42 256.88 665.41 253.25 665.4 249.62 C665.4 247.1 665.4 244.57 665.41 242.04 C665.41 236.74 665.41 231.45 665.39 226.15 C665.37 220.04 665.38 213.93 665.4 207.82 C665.41 201.93 665.41 196.03 665.4 190.14 C665.4 187.64 665.4 185.14 665.41 182.64 C665.42 179.14 665.4 175.65 665.39 172.15 C665.4 170.6 665.4 170.6 665.41 169.03 C665.36 163.24 664.71 159.14 662 154 C661.34 154 660.68 154 660 154 C659.79 153.44 659.59 152.89 659.38 152.31 C655.79 146.28 649.47 143.14 643 141 C639.45 140.47 635.97 140.45 632.39 140.48 C630.86 140.47 630.86 140.47 629.3 140.46 C625.95 140.44 622.6 140.46 619.25 140.47 C616.91 140.47 614.57 140.46 612.22 140.46 C607.32 140.45 602.43 140.46 597.53 140.48 C591.26 140.5 585 140.49 578.73 140.46 C573.9 140.45 569.07 140.45 564.23 140.46 C561.93 140.47 559.62 140.46 557.31 140.45 C554.07 140.44 550.84 140.46 547.61 140.48 C546.66 140.47 545.72 140.47 544.75 140.46 C534.41 140.59 524.51 145.07 518.19 153.44 Z M823 149 C823 149.66 823 150.32 823 151 C822.34 151 821.68 151 821 151 C820.17 152.3 819.36 153.62 818.56 154.94 C818.11 155.67 817.66 156.4 817.19 157.15 C814.39 163.85 814.85 171.63 814.87 178.78 C814.87 179.72 814.87 180.65 814.87 181.61 C814.86 184.67 814.86 187.72 814.87 190.78 C814.87 192.92 814.87 195.06 814.86 197.2 C814.86 201.68 814.86 206.15 814.87 210.63 C814.88 216.35 814.87 222.07 814.87 227.79 C814.86 232.2 814.86 236.62 814.87 241.03 C814.87 243.14 814.87 245.25 814.86 247.36 C814.86 250.31 814.87 253.26 814.87 256.22 C814.87 257.08 814.87 257.94 814.86 258.82 C814.9 270.54 816.09 278.02 824.66 286.67 C832.15 293.17 839.76 293.15 849.25 293.16 C850.27 293.17 851.29 293.17 852.34 293.18 C855.7 293.19 859.06 293.2 862.42 293.2 C864.77 293.21 867.11 293.21 869.45 293.22 C874.37 293.23 879.28 293.24 884.19 293.24 C890.47 293.25 896.75 293.27 903.03 293.3 C907.87 293.32 912.71 293.32 917.55 293.32 C919.87 293.33 922.18 293.33 924.5 293.35 C927.74 293.36 930.98 293.36 934.23 293.36 C935.65 293.37 935.65 293.37 937.1 293.38 C943.51 293.34 948.97 292.15 955 290 C955 289.34 955 288.68 955 288 C955.6 287.75 956.19 287.49 956.8 287.23 C959.27 285.85 960.45 284.51 962.12 282.25 C962.62 281.6 963.12 280.94 963.63 280.27 C967.28 274.21 967.3 268.4 967.29 261.55 C967.3 260.51 967.3 259.47 967.31 258.4 C967.33 254.97 967.33 251.54 967.34 248.11 C967.34 245.71 967.35 243.32 967.36 240.93 C967.37 235.92 967.37 230.91 967.37 225.9 C967.37 219.49 967.4 213.08 967.43 206.67 C967.45 201.73 967.46 196.79 967.46 191.86 C967.46 189.49 967.47 187.13 967.48 184.77 C967.5 181.46 967.5 178.15 967.49 174.84 C967.5 173.87 967.51 172.9 967.52 171.91 C967.44 163.13 964.48 155.89 959 149 C951.46 142.23 943.4 140.55 933.55 140.58 C932.54 140.57 931.52 140.56 930.47 140.55 C927.13 140.53 923.79 140.53 920.45 140.53 C918.12 140.52 915.78 140.52 913.44 140.51 C908.55 140.49 903.66 140.49 898.77 140.5 C892.52 140.5 886.28 140.47 880.03 140.43 C875.21 140.41 870.38 140.41 865.56 140.41 C863.26 140.41 860.96 140.4 858.66 140.38 C839.13 139.52 839.13 139.52 823 149 Z M229 484 C229 484.66 229 485.32 229 486 C228.42 486.25 227.85 486.5 227.25 486.75 C221.29 490.06 218.35 495.51 216.46 501.9 C214.65 510.21 215.32 519.12 215.37 527.57 C215.37 529.86 215.37 532.15 215.36 534.44 C215.36 539.22 215.38 544.01 215.4 548.79 C215.44 554.9 215.43 561.01 215.41 567.12 C215.4 571.84 215.41 576.57 215.43 581.29 C215.43 583.54 215.43 585.8 215.42 588.05 C215.42 591.2 215.44 594.35 215.47 597.51 C215.46 598.43 215.45 599.34 215.45 600.29 C215.57 608.96 218.37 617.3 224 624 C232.05 630.41 238.96 632.3 249.1 632.27 C250.6 632.28 250.6 632.28 252.14 632.29 C255.44 632.3 258.75 632.3 262.05 632.3 C264.36 632.3 266.66 632.31 268.97 632.31 C273.79 632.32 278.62 632.32 283.45 632.32 C289.62 632.31 295.8 632.33 301.97 632.35 C306.73 632.36 311.49 632.37 316.25 632.36 C318.52 632.36 320.8 632.37 323.08 632.38 C326.27 632.39 329.45 632.38 332.64 632.37 C333.57 632.38 334.51 632.39 335.47 632.4 C344.6 632.32 351.96 629.66 358.79 623.35 C369.87 611.81 368.58 597.67 368.5 582.71 C368.5 580.44 368.5 578.17 368.5 575.89 C368.5 571.15 368.49 566.4 368.47 561.66 C368.44 555.59 368.44 549.52 368.45 543.46 C368.46 538.77 368.45 534.09 368.44 529.4 C368.44 527.16 368.44 524.93 368.44 522.69 C368.44 519.56 368.43 516.43 368.4 513.3 C368.41 512.39 368.41 511.48 368.42 510.53 C368.33 503 367.07 495.49 361.81 489.75 C361.28 489.15 360.75 488.54 360.21 487.92 C353.2 481.82 347.91 480.27 338.63 480.38 C337.52 480.38 336.4 480.37 335.26 480.37 C331.6 480.36 327.94 480.38 324.27 480.41 C321.72 480.41 319.17 480.41 316.62 480.41 C311.27 480.41 305.93 480.43 300.59 480.46 C294.43 480.49 288.26 480.5 282.1 480.5 C276.15 480.49 270.21 480.5 264.26 480.52 C261.73 480.53 259.21 480.53 256.69 480.53 C253.16 480.53 249.64 480.55 246.11 480.58 C244.55 480.58 244.55 480.58 242.96 480.57 C237.54 480.63 233.71 480.99 229 484 Z M523 487 C521.72 489.09 521.72 489.09 521 491 C520.34 491 519.68 491 519 491 C514.16 497.85 513.7 504.35 513.71 512.45 C513.7 513.49 513.7 514.53 513.69 515.6 C513.67 519.03 513.67 522.46 513.66 525.89 C513.66 528.29 513.65 530.68 513.64 533.07 C513.63 538.08 513.63 543.09 513.63 548.1 C513.63 554.51 513.6 560.92 513.57 567.33 C513.55 572.27 513.54 577.21 513.54 582.14 C513.54 584.51 513.53 586.87 513.52 589.23 C513.5 592.54 513.5 595.85 513.51 599.16 C513.5 600.61 513.5 600.61 513.48 602.09 C513.56 611.32 516.51 618.36 523 625 C530.36 631.22 537.1 632.3 546.54 632.29 C547.59 632.3 548.64 632.3 549.72 632.31 C553.19 632.33 556.65 632.33 560.11 632.34 C562.53 632.34 564.94 632.35 567.35 632.36 C572.41 632.37 577.47 632.37 582.53 632.37 C589 632.37 595.47 632.4 601.94 632.43 C606.92 632.45 611.91 632.46 616.89 632.46 C619.28 632.46 621.66 632.47 624.05 632.48 C627.39 632.5 630.73 632.5 634.07 632.49 C635.53 632.5 635.53 632.5 637.03 632.52 C646.21 632.44 653.44 629.56 660 623 C665.13 616.81 665.72 611.43 665.65 603.57 C665.66 602.45 665.66 601.33 665.67 600.18 C665.7 596.49 665.68 592.81 665.66 589.12 C665.67 586.55 665.67 583.98 665.68 581.41 C665.69 576.03 665.68 570.66 665.65 565.28 C665.62 559.07 665.63 552.87 665.66 546.67 C665.69 540.68 665.68 534.69 665.67 528.7 C665.67 526.16 665.67 523.62 665.68 521.08 C665.69 517.53 665.67 513.98 665.65 510.43 C665.66 509.39 665.67 508.34 665.68 507.27 C665.56 498.98 662.92 493.97 657.31 488 C655.26 485.78 655.26 485.78 653 486 C653 485.34 653 484.68 653 484 C647.4 480.43 642.43 480.56 636.01 480.56 C634.92 480.55 633.82 480.54 632.69 480.53 C629.07 480.51 625.45 480.5 621.83 480.5 C619.3 480.49 616.78 480.48 614.26 480.47 C608.97 480.45 603.68 480.44 598.39 480.44 C592.3 480.45 586.21 480.41 580.11 480.37 C574.23 480.32 568.35 480.31 562.46 480.31 C559.97 480.31 557.48 480.3 554.99 480.27 C551.49 480.24 548 480.25 544.5 480.27 C542.97 480.25 542.97 480.25 541.41 480.22 C534.11 480.32 528.63 482.23 523 487 Z M824 487 C824 487.66 824 488.32 824 489 C823.01 489.33 822.02 489.66 821 490 C819.57 491.81 819.57 491.81 818.38 494.06 C817.95 494.8 817.52 495.53 817.09 496.29 C814.52 502.71 814.85 509.92 814.85 516.75 C814.85 517.69 814.85 518.63 814.84 519.6 C814.84 522.69 814.83 525.78 814.83 528.87 C814.83 531.03 814.83 533.19 814.82 535.35 C814.82 539.88 814.81 544.4 814.81 548.92 C814.81 554.7 814.8 560.48 814.78 566.26 C814.77 570.72 814.77 575.19 814.77 579.65 C814.77 581.78 814.77 583.91 814.76 586.04 C814.75 589.02 814.75 592.01 814.76 595 C814.75 595.86 814.75 596.73 814.74 597.63 C814.78 605.39 815.31 613.57 819.94 620.06 C820.44 620.8 820.95 621.53 821.46 622.29 C822.99 624.27 822.99 624.27 826 625 C826 625.66 826 626.32 826 627 C832.88 631.86 839.41 632.3 847.54 632.29 C848.59 632.3 849.64 632.3 850.72 632.31 C854.19 632.33 857.65 632.33 861.11 632.34 C863.53 632.34 865.94 632.35 868.35 632.36 C873.41 632.37 878.47 632.37 883.53 632.37 C890 632.37 896.47 632.4 902.94 632.43 C907.92 632.45 912.91 632.46 917.89 632.46 C920.28 632.46 922.66 632.47 925.05 632.48 C928.39 632.5 931.73 632.5 935.07 632.49 C936.53 632.5 936.53 632.5 938.03 632.52 C944.55 632.46 949.25 631.04 955 628 C956.36 627.38 956.36 627.38 957.75 626.75 C963.04 622.63 965.71 616.46 967 610 C967.28 606.5 967.28 603.02 967.27 599.51 C967.28 598.48 967.28 597.45 967.29 596.38 C967.3 592.99 967.3 589.59 967.3 586.19 C967.3 583.82 967.31 581.45 967.31 579.08 C967.32 574.12 967.32 569.16 967.32 564.2 C967.31 557.85 967.33 551.5 967.35 545.15 C967.36 540.26 967.37 535.36 967.36 530.47 C967.36 528.13 967.37 525.79 967.38 523.45 C967.39 520.17 967.38 516.9 967.37 513.62 C967.38 512.66 967.39 511.7 967.4 510.71 C967.34 503.26 965.56 497.58 962 491 C961.34 491 960.68 491 960 491 C959.67 490.01 959.34 489.02 959 488 C958.34 488 957.68 488 957 488 C957 487.34 957 486.68 957 486 C950.19 481.36 944.82 480.27 936.67 480.34 C935.03 480.32 935.03 480.32 933.35 480.31 C929.74 480.28 926.14 480.29 922.54 480.3 C920.02 480.29 917.5 480.29 914.98 480.28 C909.71 480.27 904.44 480.27 899.16 480.29 C893.09 480.32 887.02 480.3 880.95 480.26 C875.08 480.23 869.22 480.22 863.35 480.24 C860.86 480.24 858.38 480.23 855.89 480.21 C852.41 480.19 848.94 480.21 845.46 480.24 C844.44 480.23 843.43 480.21 842.38 480.2 C835.09 480.32 829.66 482.3 824 487 Z " fill="#047857" transform="translate(37,402)"/>
<path d="M0 0 C2.71 0 5.41 0 8.12 -0 C13.76 -0 19.4 0.01 25.04 0.03 C31.56 0.05 38.08 0.05 44.6 0.05 C50.9 0.04 57.19 0.05 63.49 0.06 C66.16 0.06 68.83 0.06 71.5 0.06 C75.22 0.06 78.93 0.07 82.65 0.09 C84.31 0.08 84.31 0.08 86 0.08 C87.52 0.09 87.52 0.09 89.06 0.1 C90.38 0.11 90.38 0.11 91.72 0.11 C93.95 0.36 93.95 0.36 96.95 2.36 C97.33 4.44 97.33 4.44 97.33 7.05 C97.34 8.04 97.35 9.03 97.36 10.05 C97.35 11.14 97.34 12.23 97.34 13.36 C97.34 14.5 97.35 15.65 97.35 16.82 C97.36 19.32 97.37 21.81 97.36 24.31 C97.36 28.26 97.37 32.21 97.39 36.16 C97.43 44.56 97.44 52.96 97.45 61.36 C97.46 70.41 97.48 79.45 97.52 88.49 C97.55 93.04 97.54 97.59 97.54 102.14 C97.55 104.54 97.56 106.94 97.57 109.34 C97.56 110.41 97.56 111.48 97.55 112.59 C97.62 121.17 99.55 128.51 102.95 136.36 C103.61 136.36 104.27 136.36 104.95 136.36 C105.65 137.25 106.36 138.14 107.08 139.05 C111.43 144.48 117.3 147.59 123.95 149.36 C126.92 149.66 129.85 149.69 132.83 149.68 C133.59 149.69 134.36 149.71 135.14 149.72 C140.75 149.73 144.79 148.53 149.95 146.36 C151.28 146.01 152.61 145.67 153.95 145.36 C153.95 144.7 153.95 144.04 153.95 143.36 C155.13 142.34 156.34 141.37 157.58 140.43 C163.15 135.63 167.15 129.74 168.5 122.41 C168.7 119.21 168.73 116.06 168.68 112.86 C168.69 111.06 168.69 111.06 168.7 109.22 C168.71 105.97 168.69 102.73 168.66 99.48 C168.64 96.06 168.66 92.65 168.67 89.24 C168.69 82.79 168.68 76.35 168.66 69.9 C168.62 58.33 168.62 46.76 168.65 35.2 C168.65 31.8 168.65 28.41 168.63 25.02 C168.62 21.25 168.61 17.48 168.62 13.71 C168.61 12.58 168.59 11.46 168.58 10.3 C168.59 9.27 168.59 8.25 168.59 7.2 C168.59 6.31 168.59 5.42 168.59 4.5 C168.71 3.79 168.83 3.09 168.95 2.36 C172.05 0.3 172.68 0.11 176.17 0.11 C177.04 0.11 177.9 0.1 178.79 0.1 C179.75 0.1 180.7 0.11 181.68 0.11 C183.21 0.11 183.21 0.11 184.76 0.1 C188.2 0.1 191.64 0.1 195.07 0.11 C197.55 0.11 200.02 0.1 202.5 0.1 C207.9 0.09 213.3 0.09 218.7 0.1 C226.72 0.11 234.75 0.1 242.78 0.1 C257.12 0.08 271.46 0.09 285.79 0.09 C298.34 0.1 310.88 0.1 323.43 0.1 C324.26 0.1 325.09 0.1 325.95 0.1 C329.32 0.09 332.7 0.09 336.07 0.09 C367.74 0.09 399.41 0.09 431.08 0.1 C459.23 0.11 487.39 0.11 515.54 0.1 C547.15 0.09 578.76 0.09 610.37 0.09 C613.74 0.09 617.11 0.1 620.48 0.1 C621.72 0.1 621.72 0.1 622.99 0.1 C635.53 0.1 648.07 0.1 660.61 0.09 C674.86 0.08 689.12 0.09 703.37 0.1 C711.36 0.1 719.34 0.1 727.33 0.1 C733.28 0.09 739.22 0.1 745.17 0.11 C747.59 0.11 750.01 0.11 752.42 0.1 C755.69 0.1 758.96 0.1 762.22 0.11 C763.65 0.1 763.65 0.1 765.11 0.1 C765.98 0.1 766.84 0.11 767.74 0.11 C768.86 0.11 768.86 0.11 770 0.11 C771.95 0.36 771.95 0.36 774.95 2.36 C775.32 4.5 775.32 4.5 775.32 7.21 C775.33 8.74 775.33 8.74 775.33 10.31 C775.32 12 775.32 12 775.31 13.72 C775.31 14.91 775.31 16.09 775.31 17.31 C775.32 20.56 775.31 23.82 775.29 27.07 C775.29 30.48 775.3 33.9 775.31 37.31 C775.34 48.2 775.34 59.08 775.32 69.97 C775.3 77.12 775.31 84.27 775.34 91.41 C775.35 94.8 775.35 98.2 775.33 101.59 C775.31 105.38 775.32 109.17 775.34 112.97 C775.32 114.64 775.32 114.64 775.3 116.34 C775.4 125.73 778.1 132.63 784.64 139.43 C786.41 141.09 787.78 142.28 789.95 143.36 C789.95 144.02 789.95 144.68 789.95 145.36 C791.6 145.69 793.25 146.02 794.95 146.36 C794.95 147.02 794.95 147.68 794.95 148.36 C795.76 148.34 796.56 148.32 797.39 148.3 C799.95 148.36 799.95 148.36 800.95 149.36 C815.62 150.49 815.62 150.49 828.95 145.36 C829.69 144.87 830.43 144.38 831.19 143.87 C834.46 141.54 836.71 139.74 838.95 136.36 C839.61 136.36 840.27 136.36 840.95 136.36 C841.41 135.01 841.87 133.66 842.33 132.3 C842.58 131.55 842.84 130.79 843.1 130.02 C843.52 128.7 843.52 128.7 843.95 127.36 C844.3 126.39 844.64 125.42 844.99 124.42 C846.44 119.28 846.24 114.08 846.22 108.77 C846.23 107.62 846.23 106.47 846.24 105.29 C846.25 102.8 846.26 100.32 846.26 97.83 C846.26 93.9 846.28 89.97 846.3 86.05 C846.35 76.29 846.38 66.54 846.4 56.79 C846.42 48.54 846.45 40.29 846.49 32.04 C846.51 29.43 846.51 26.82 846.51 24.21 C846.51 20.58 846.53 16.95 846.55 13.31 C846.55 11.68 846.55 11.68 846.54 10.02 C846.55 8.54 846.55 8.54 846.57 7.04 C846.57 6.18 846.57 5.32 846.57 4.43 C846.7 3.75 846.82 3.07 846.95 2.36 C850.22 0.18 851.14 0.11 854.92 0.11 C855.95 0.1 856.97 0.1 858.03 0.09 C859.72 0.1 859.72 0.1 861.44 0.1 C863.22 0.1 863.22 0.1 865.03 0.09 C868.29 0.09 871.54 0.09 874.8 0.09 C878.21 0.1 881.62 0.09 885.03 0.09 C890.77 0.09 896.5 0.09 902.24 0.1 C908.85 0.11 915.46 0.11 922.08 0.1 C927.76 0.09 933.45 0.09 939.14 0.09 C942.53 0.1 945.92 0.1 949.31 0.09 C953.11 0.09 956.9 0.09 960.69 0.1 C962.36 0.1 962.36 0.1 964.06 0.09 C969.59 0.12 974.63 0.48 979.99 1.9 C982.11 2.4 984.15 2.59 986.33 2.74 C990.94 3.19 994.91 4.66 999.2 6.33 C1001.75 7.29 1004.27 8.03 1006.89 8.74 C1021.75 13.13 1038.21 23.18 1049.95 33.36 C1049.95 34.02 1049.95 34.68 1049.95 35.36 C1050.94 35.69 1051.93 36.02 1052.95 36.36 C1052.95 37.02 1052.95 37.68 1052.95 38.36 C1053.85 38.77 1053.85 38.77 1054.77 39.18 C1056.95 40.36 1058.37 41.46 1059.95 43.36 C1059.95 44.02 1059.95 44.68 1059.95 45.36 C1060.94 45.69 1061.93 46.02 1062.95 46.36 C1062.95 47.02 1062.95 47.68 1062.95 48.36 C1063.61 48.36 1064.27 48.36 1064.95 48.36 C1066.4 50.1 1067.76 51.9 1069.08 53.74 C1069.8 54.74 1070.53 55.73 1071.27 56.76 C1072.95 59.36 1072.95 59.36 1072.95 61.36 C1073.61 61.36 1074.27 61.36 1074.95 61.36 C1079.52 70.2 1083.89 78.87 1086.95 88.36 C1087.35 89.54 1087.35 89.54 1087.76 90.75 C1090.22 98.66 1090.37 106.23 1090.31 114.46 C1090.31 115.95 1090.31 117.43 1090.32 118.92 C1090.32 122.93 1090.31 126.93 1090.29 130.94 C1090.28 135.14 1090.28 139.34 1090.28 143.54 C1090.27 150.57 1090.26 157.61 1090.23 164.65 C1090.21 173.7 1090.2 182.74 1090.19 191.79 C1090.19 199.57 1090.17 207.34 1090.16 215.12 C1090.16 217.63 1090.15 220.13 1090.15 222.63 C1090.15 226.55 1090.14 230.47 1090.12 234.38 C1090.12 235.83 1090.11 237.27 1090.11 238.71 C1090.11 240.67 1090.1 242.63 1090.09 244.58 C1090.09 245.68 1090.09 246.78 1090.08 247.91 C1089.95 250.36 1089.95 250.36 1088.95 251.36 C1086.33 251.46 1083.73 251.5 1081.11 251.49 C1080.27 251.49 1079.44 251.49 1078.57 251.49 C1075.73 251.5 1072.88 251.49 1070.03 251.49 C1067.98 251.49 1065.92 251.49 1063.87 251.49 C1058.17 251.5 1052.47 251.5 1046.77 251.49 C1040.59 251.49 1034.41 251.49 1028.23 251.49 C1017.38 251.5 1006.54 251.5 995.69 251.5 C984.04 251.49 972.4 251.49 960.75 251.49 C960.02 251.49 959.28 251.49 958.53 251.5 C955.54 251.5 952.54 251.5 949.55 251.5 C921.67 251.5 893.79 251.5 865.9 251.5 C865.08 251.5 864.25 251.5 863.4 251.5 C862.57 251.5 861.74 251.5 860.89 251.5 C835.68 251.5 810.48 251.5 785.27 251.5 C783.58 251.5 781.9 251.5 780.21 251.5 C773.44 251.5 766.66 251.5 759.89 251.5 C740.95 251.5 722.01 251.5 703.08 251.5 C701.78 251.5 701.78 251.5 700.46 251.5 C672.97 251.5 645.47 251.5 617.98 251.5 C616.64 251.5 616.64 251.5 615.27 251.5 C600.78 251.5 586.29 251.49 571.8 251.49 C514.33 251.49 456.85 251.49 399.38 251.49 C384.9 251.49 370.41 251.5 355.93 251.5 C355.04 251.5 354.15 251.5 353.23 251.5 C325.76 251.5 298.3 251.5 270.83 251.5 C269.97 251.5 269.11 251.5 268.22 251.5 C249.3 251.5 230.38 251.5 211.47 251.5 C204.7 251.5 197.93 251.5 191.16 251.5 C189.48 251.5 187.8 251.5 186.11 251.5 C160.91 251.5 135.71 251.5 110.51 251.5 C109.68 251.5 108.86 251.5 108 251.5 C107.18 251.5 106.35 251.5 105.5 251.5 C77.7 251.5 49.9 251.5 22.1 251.5 C19.12 251.5 16.14 251.5 13.16 251.49 C12.06 251.49 12.06 251.49 10.94 251.49 C-0.68 251.49 -12.3 251.49 -23.91 251.5 C-35.32 251.5 -46.72 251.5 -58.13 251.49 C-64.24 251.49 -70.35 251.49 -76.45 251.49 C-82 251.5 -87.54 251.5 -93.09 251.49 C-95.09 251.49 -97.1 251.49 -99.1 251.49 C-101.8 251.5 -104.5 251.49 -107.2 251.49 C-108.39 251.49 -108.39 251.49 -109.6 251.5 C-114.93 251.48 -114.93 251.48 -116.05 250.36 C-116.15 248.4 -116.18 246.43 -116.19 244.46 C-116.2 242.53 -116.2 242.53 -116.2 240.57 C-116.21 239.13 -116.21 237.7 -116.21 236.26 C-116.21 234.76 -116.22 233.25 -116.22 231.75 C-116.24 227.65 -116.24 223.55 -116.25 219.46 C-116.25 216.89 -116.25 214.33 -116.26 211.76 C-116.27 203.73 -116.28 195.7 -116.29 187.66 C-116.29 178.41 -116.31 169.16 -116.34 159.91 C-116.36 152.75 -116.37 145.59 -116.37 138.43 C-116.37 134.16 -116.38 129.89 -116.39 125.62 C-116.41 121.59 -116.41 117.56 -116.4 113.53 C-116.4 112.07 -116.41 110.6 -116.42 109.13 C-116.56 87.28 -110.12 68.5 -100.05 49.36 C-99.38 48.03 -98.71 46.7 -98.05 45.36 C-97.39 45.36 -96.73 45.36 -96.05 45.36 C-95.96 44.83 -95.88 44.29 -95.8 43.74 C-94.77 40.49 -93.08 38.08 -91.05 35.36 C-90.39 35.36 -89.73 35.36 -89.05 35.36 C-88.66 34.49 -88.66 34.49 -88.27 33.6 C-79.83 18.13 -59.01 8.22 -43.05 3.36 C-28.95 -0.7 -14.55 -0.06 0 0 Z " fill="#047857" transform="translate(153.046875,73.63671875)"/>
</svg>
