<?xml version="1.0" encoding="UTF-8"?>
<!DOCTYPE svg PUBLIC "-//W3C//DTD SVG 1.1//EN" "http://www.w3.org/Graphics/SVG/1.1/DTD/svg11.dtd">
<svg xmlns="http://www.w3.org/2000/svg" version="1.1" width="512px" height="512px" style="shape-rendering:geometricPrecision; text-rendering:geometricPrecision; image-rendering:optimizeQuality; fill-rule:evenodd; clip-rule:evenodd" xmlns:xlink="http://www.w3.org/1999/xlink">
<g><path style="opacity:0.969" fill="#676D75" d="M 72.5,-0.5 C 194.5,-0.5 316.5,-0.5 438.5,-0.5C 451.492,3.65946 459.992,12.3261 464,25.5C 465.462,62.7986 465.962,100.132 465.5,137.5C 489.508,137.849 504.841,149.516 511.5,172.5C 511.5,209.833 511.5,247.167 511.5,284.5C 504.998,291.125 498.498,291.125 492,284.5C 491.833,261.493 491.333,238.493 490.5,215.5C 448.833,250 407.167,284.5 365.5,319C 407.333,356.833 449.167,394.667 491,432.5C 491.333,410.167 491.667,387.833 492,365.5C 495.748,359.458 500.915,357.958 507.5,361C 509.07,362.397 510.404,363.897 511.5,365.5C 511.5,402.5 511.5,439.5 511.5,476.5C 506.14,494.526 494.474,506.193 476.5,511.5C 329.167,511.5 181.833,511.5 34.5,511.5C 16.4737,506.14 4.80704,494.474 -0.5,476.5C -0.5,375.167 -0.5,273.833 -0.5,172.5C 6.15861,149.516 21.4919,137.849 45.5,137.5C 45.038,100.132 45.538,62.7986 47,25.5C 51.008,12.3261 59.508,3.65946 72.5,-0.5 Z M 80.5,19.5 C 197.167,19.3333 313.834,19.5 430.5,20C 437.918,21.0863 442.418,25.2529 444,32.5C 444.667,97.1667 444.667,161.833 444,226.5C 390.075,270.881 336.241,315.381 282.5,360C 273.596,361.14 264.596,361.64 255.5,361.5C 246.404,361.64 237.404,361.14 228.5,360C 174.759,315.381 120.925,270.881 67,226.5C 66.3333,161.833 66.3333,97.1667 67,32.5C 68.7576,25.2411 73.2576,20.9078 80.5,19.5 Z M 255.5,124.5 C 261.349,134.353 267.349,144.186 273.5,154C 284.761,156.919 296.094,159.586 307.5,162C 300.782,169.262 293.949,176.429 287,183.5C 286.333,184.833 285.667,186.167 285,187.5C 285.334,198.85 286.168,210.183 287.5,221.5C 276.982,217.27 266.482,212.937 256,208.5C 244.999,212.39 234.332,217.056 224,222.5C 223.833,222.167 223.667,221.833 223.5,221.5C 225.655,210.259 226.822,198.925 227,187.5C 219.872,178.703 212.372,170.203 204.5,162C 215.889,159.589 227.223,156.922 238.5,154C 244.81,144.548 250.477,134.714 255.5,124.5 Z M 37.5,158.5 C 40.1667,158.5 42.8333,158.5 45.5,158.5C 45.6666,175.17 45.4999,191.837 45,208.5C 37.4434,201.642 29.6101,195.142 21.5,189C 18.1825,174.473 23.5158,164.306 37.5,158.5 Z M 465.5,158.5 C 481.982,159.483 490.648,168.316 491.5,185C 491.561,186.711 490.894,188.044 489.5,189C 481.39,195.142 473.557,201.642 466,208.5C 465.5,191.837 465.333,175.17 465.5,158.5 Z M 19.5,215.5 C 61.6225,249.745 103.622,284.245 145.5,319C 103.667,356.833 61.8333,394.667 20,432.5C 19.5,360.167 19.3333,287.834 19.5,215.5 Z M 161.5,332.5 C 181.293,348.455 200.96,364.621 220.5,381C 232.074,382.147 243.741,382.647 255.5,382.5C 267.259,382.647 278.926,382.147 290.5,381C 310,364.833 329.5,348.667 349,332.5C 396.523,375.266 443.856,418.266 491,461.5C 492.048,478.448 484.215,488.282 467.5,491C 326.167,491.667 184.833,491.667 43.5,491C 26.7853,488.282 18.952,478.448 20,461.5C 67.1452,418.367 114.312,375.367 161.5,332.5 Z"/></g>
<g><path style="opacity:0.916" fill="#676D75" d="M 251.5,37.5 C 258.445,35.7747 263.278,38.108 266,44.5C 266.87,50.9172 266.536,57.2506 265,63.5C 257.891,70.4515 251.558,69.7849 246,61.5C 245.333,55.5 245.333,49.5 246,43.5C 247.36,40.9774 249.193,38.9774 251.5,37.5 Z"/></g>
<g><path style="opacity:0.921" fill="#676D75" d="M 155.5,63.5 C 158.794,63.259 161.794,64.0924 164.5,66C 170.667,72.1667 176.833,78.3333 183,84.5C 187.488,93.8819 184.654,99.5486 174.5,101.5C 172.366,101.485 170.366,100.985 168.5,100C 162,93.5 155.5,87 149,80.5C 145.657,72.5442 147.823,66.8775 155.5,63.5 Z"/></g>
<g><path style="opacity:0.917" fill="#676D75" d="M 351.5,63.5 C 362.678,64.1803 366.512,69.847 363,80.5C 356.5,87 350,93.5 343.5,100C 330.243,103.638 325.077,98.8047 328,85.5C 335.452,77.5415 343.285,70.2082 351.5,63.5 Z"/></g>
<g><path style="opacity:0.944" fill="#676D75" d="M 253.5,98.5 C 260.129,98.2327 265.629,100.566 270,105.5C 275.707,115.748 281.54,125.915 287.5,136C 298.861,138.205 310.194,140.539 321.5,143C 332.309,148.759 335.142,157.259 330,168.5C 321.833,177.333 313.667,186.167 305.5,195C 308.022,208.02 309.189,221.186 309,234.5C 304.483,244.341 296.983,247.841 286.5,245C 276.486,240.108 266.319,235.608 256,231.5C 244.002,236.916 231.835,241.916 219.5,246.5C 208.743,245.577 202.743,239.743 201.5,229C 203.534,217.232 204.701,205.399 205,193.5C 197.897,185.642 190.564,177.975 183,170.5C 175.646,156.384 179.479,146.884 194.5,142C 204.5,140 214.5,138 224.5,136C 230.46,125.915 236.293,115.748 242,105.5C 245.225,101.979 249.058,99.646 253.5,98.5 Z M 255.5,124.5 C 250.477,134.714 244.81,144.548 238.5,154C 227.223,156.922 215.889,159.589 204.5,162C 212.372,170.203 219.872,178.703 227,187.5C 226.822,198.925 225.655,210.259 223.5,221.5C 223.667,221.833 223.833,222.167 224,222.5C 234.332,217.056 244.999,212.39 256,208.5C 266.482,212.937 276.982,217.27 287.5,221.5C 286.168,210.183 285.334,198.85 285,187.5C 285.667,186.167 286.333,184.833 287,183.5C 293.949,176.429 300.782,169.262 307.5,162C 296.094,159.586 284.761,156.919 273.5,154C 267.349,144.186 261.349,134.353 255.5,124.5 Z"/></g>
<g><path style="opacity:0.918" fill="#676D75" d="M 130.5,161.5 C 136.38,161.048 142.047,161.882 147.5,164C 151.62,168.215 152.453,173.049 150,178.5C 148.786,180.049 147.286,181.215 145.5,182C 138.392,182.924 131.392,182.591 124.5,181C 117.705,171.652 119.705,165.152 130.5,161.5 Z"/></g>
<g><path style="opacity:0.918" fill="#676D75" d="M 370.5,161.5 C 374.182,161.335 377.848,161.501 381.5,162C 387.721,162.722 391.055,166.222 391.5,172.5C 391.109,175.781 389.776,178.615 387.5,181C 380.608,182.591 373.608,182.924 366.5,182C 360.975,179.081 359.142,174.581 361,168.5C 362.985,164.321 366.152,161.988 370.5,161.5 Z"/></g>
<g><path style="opacity:0.924" fill="#676D75" d="M 170.5,243.5 C 181.977,242.521 186.477,247.521 184,258.5C 177.865,265.636 171.365,272.469 164.5,279C 157.563,282.724 152.063,281.224 148,274.5C 147.333,271.833 147.333,269.167 148,266.5C 155.032,258.302 162.532,250.635 170.5,243.5 Z"/></g>
<g><path style="opacity:0.918" fill="#676D75" d="M 332.5,243.5 C 336.308,243.163 339.974,243.663 343.5,245C 350,251.5 356.5,258 363,264.5C 366.56,273.716 363.56,279.382 354,281.5C 351.755,280.863 349.588,280.03 347.5,279C 341,272.5 334.5,266 328,259.5C 325.172,252.851 326.672,247.518 332.5,243.5 Z"/></g>
<g><path style="opacity:0.913" fill="#676D75" d="M 254.5,276.5 C 260.218,276.598 264.051,279.265 266,284.5C 266.667,289.833 266.667,295.167 266,300.5C 263.27,307.053 258.437,309.22 251.5,307C 249,305.833 247.167,304 246,301.5C 245.333,295.5 245.333,289.5 246,283.5C 247.866,279.784 250.699,277.45 254.5,276.5 Z"/></g>
<g><path style="opacity:0.907" fill="#676D75" d="M 511.5,319.5 C 511.5,322.833 511.5,326.167 511.5,329.5C 504.998,336.125 498.498,336.125 492,329.5C 490.132,315.86 495.632,311.36 508.5,316C 509.163,317.518 510.163,318.685 511.5,319.5 Z"/></g>
<g><path style="opacity:0.942" fill="#676D75" d="M 203.5,400.5 C 238.168,400.333 272.835,400.5 307.5,401C 312.308,402.312 314.642,405.479 314.5,410.5C 314.534,415.603 312.201,419.103 307.5,421C 273.167,421.667 238.833,421.667 204.5,421C 199.45,419.566 197.117,416.233 197.5,411C 197.324,406.177 199.324,402.677 203.5,400.5 Z"/></g>
<g><path style="opacity:0.947" fill="#676D75" d="M 173.5,440.5 C 228.501,440.333 283.501,440.5 338.5,441C 344.386,444.806 345.886,449.972 343,456.5C 341.048,458.894 338.548,460.394 335.5,461C 282.5,461.667 229.5,461.667 176.5,461C 168.936,459.048 166.103,454.215 168,446.5C 169.36,443.977 171.193,441.977 173.5,440.5 Z"/></g>
</svg>
