<?xml version="1.0" encoding="UTF-8"?>
<!DOCTYPE svg PUBLIC "-//W3C//DTD SVG 1.1//EN" "http://www.w3.org/Graphics/SVG/1.1/DTD/svg11.dtd">
<svg xmlns="http://www.w3.org/2000/svg" version="1.1" width="512px" height="512px" style="shape-rendering:geometricPrecision; text-rendering:geometricPrecision; image-rendering:optimizeQuality; fill-rule:evenodd; clip-rule:evenodd" xmlns:xlink="http://www.w3.org/1999/xlink">
<g><path style="opacity:0.98" fill="#047857" d="M 359.5,15.5 C 365.786,14.1795 370.953,15.8461 375,20.5C 375.5,38.8303 375.667,57.1636 375.5,75.5C 393.836,75.3334 412.17,75.5001 430.5,76C 432.333,77.1667 433.833,78.6667 435,80.5C 435.5,212.166 435.667,343.833 435.5,475.5C 453.836,475.333 472.17,475.5 490.5,476C 495.275,479.655 496.775,484.488 495,490.5C 493.833,492.333 492.333,493.833 490.5,495C 333.833,495.667 177.167,495.667 20.5,495C 15.7255,491.345 14.2255,486.512 16,480.5C 17.1667,478.667 18.6667,477.167 20.5,476C 38.8303,475.5 57.1636,475.333 75.5,475.5C 75.3333,343.833 75.5,212.166 76,80.5C 77.5429,78.6217 79.3762,77.1217 81.5,76C 174.309,55.8738 266.975,35.7071 359.5,15.5 Z M 353.5,38.5 C 354.495,50.6554 354.829,62.9887 354.5,75.5C 298.166,75.6667 241.832,75.5 185.5,75C 241.695,63.1137 297.695,50.947 353.5,38.5 Z M 96.5,95.5 C 202.5,95.5 308.5,95.5 414.5,95.5C 414.5,115.5 414.5,135.5 414.5,155.5C 308.5,155.5 202.5,155.5 96.5,155.5C 96.5,135.5 96.5,115.5 96.5,95.5 Z M 96.5,175.5 C 202.5,175.5 308.5,175.5 414.5,175.5C 414.5,248.833 414.5,322.167 414.5,395.5C 308.5,395.5 202.5,395.5 96.5,395.5C 96.5,322.167 96.5,248.833 96.5,175.5 Z M 219.5,236.5 C 231.426,234.752 241.426,238.252 249.5,247C 253.833,249 258.167,249 262.5,247C 270.57,238.088 280.57,234.754 292.5,237C 309.23,242.949 316.397,254.782 314,272.5C 313.101,276.538 311.434,280.205 309,283.5C 291.333,300.5 273.667,317.5 256,334.5C 238.667,317.833 221.333,301.167 204,284.5C 197.005,274.62 195.672,263.953 200,252.5C 204.312,244.341 210.812,239.008 219.5,236.5 Z M 96.5,415.5 C 202.5,415.5 308.5,415.5 414.5,415.5C 414.5,435.5 414.5,455.5 414.5,475.5C 308.5,475.5 202.5,475.5 96.5,475.5C 96.5,455.5 96.5,435.5 96.5,415.5 Z"/></g>
<g><path style="opacity:0.91" fill="#047857" d="M 145.5,115.5 C 152.5,115.5 159.5,115.5 166.5,115.5C 166.666,122.175 166.5,128.842 166,135.5C 159.256,136.479 152.422,136.812 145.5,136.5C 145.5,129.5 145.5,122.5 145.5,115.5 Z"/></g>
<g><path style="opacity:0.91" fill="#047857" d="M 185.5,115.5 C 192.5,115.5 199.5,115.5 206.5,115.5C 206.666,122.175 206.5,128.842 206,135.5C 199.256,136.479 192.422,136.812 185.5,136.5C 185.5,129.5 185.5,122.5 185.5,115.5 Z"/></g>
<g><path style="opacity:0.953" fill="#047857" d="M 225.5,115.5 C 232.167,115.5 238.833,115.5 245.5,115.5C 245.5,122.5 245.5,129.5 245.5,136.5C 238.833,136.5 232.167,136.5 225.5,136.5C 225.5,129.5 225.5,122.5 225.5,115.5 Z"/></g>
<g><path style="opacity:0.912" fill="#047857" d="M 265.5,115.5 C 272.175,115.334 278.842,115.5 285.5,116C 286.833,122.667 286.833,129.333 285.5,136C 278.842,136.5 272.175,136.666 265.5,136.5C 265.5,129.5 265.5,122.5 265.5,115.5 Z"/></g>
<g><path style="opacity:0.91" fill="#047857" d="M 304.5,115.5 C 311.5,115.5 318.5,115.5 325.5,115.5C 325.5,122.5 325.5,129.5 325.5,136.5C 318.825,136.666 312.158,136.5 305.5,136C 304.521,129.256 304.188,122.422 304.5,115.5 Z"/></g>
<g><path style="opacity:0.91" fill="#047857" d="M 344.5,115.5 C 351.5,115.5 358.5,115.5 365.5,115.5C 365.5,122.5 365.5,129.5 365.5,136.5C 358.825,136.666 352.158,136.5 345.5,136C 344.521,129.256 344.188,122.422 344.5,115.5 Z"/></g>
<g><path style="opacity:0.955" fill="#047857" d="M 216.5,215.5 C 230.905,213.394 244.071,216.394 256,224.5C 267.93,216.228 281.096,213.395 295.5,216C 325.385,224.578 338.551,244.412 335,275.5C 333.283,283.599 329.95,290.932 325,297.5C 308.5,313.333 292,329.167 275.5,345C 290.5,345.333 305.5,345.667 320.5,346C 325.275,349.655 326.775,354.488 325,360.5C 323.833,362.333 322.333,363.833 320.5,365C 277.167,365.667 233.833,365.667 190.5,365C 185.725,361.345 184.225,356.512 186,350.5C 187.167,348.667 188.667,347.167 190.5,346C 205.833,345.667 221.167,345.333 236.5,345C 220,329.167 203.5,313.333 187,297.5C 174.166,278.153 173.166,258.153 184,237.5C 192.292,226.281 203.126,218.947 216.5,215.5 Z M 219.5,236.5 C 210.812,239.008 204.312,244.341 200,252.5C 195.672,263.953 197.005,274.62 204,284.5C 221.333,301.167 238.667,317.833 256,334.5C 273.667,317.5 291.333,300.5 309,283.5C 311.434,280.205 313.101,276.538 314,272.5C 316.397,254.782 309.23,242.949 292.5,237C 280.57,234.754 270.57,238.088 262.5,247C 258.167,249 253.833,249 249.5,247C 241.426,238.252 231.426,234.752 219.5,236.5 Z"/></g>
<g><path style="opacity:0.909" fill="#047857" d="M 145.5,434.5 C 152.175,434.334 158.842,434.5 165.5,435C 166.479,441.744 166.812,448.578 166.5,455.5C 159.5,455.5 152.5,455.5 145.5,455.5C 145.5,448.5 145.5,441.5 145.5,434.5 Z"/></g>
<g><path style="opacity:0.909" fill="#047857" d="M 185.5,434.5 C 192.175,434.334 198.842,434.5 205.5,435C 206.479,441.744 206.812,448.578 206.5,455.5C 199.5,455.5 192.5,455.5 185.5,455.5C 185.5,448.5 185.5,441.5 185.5,434.5 Z"/></g>
<g><path style="opacity:0.952" fill="#047857" d="M 225.5,434.5 C 232.167,434.5 238.833,434.5 245.5,434.5C 245.5,441.5 245.5,448.5 245.5,455.5C 238.833,455.5 232.167,455.5 225.5,455.5C 225.5,448.5 225.5,441.5 225.5,434.5 Z"/></g>
<g><path style="opacity:0.911" fill="#047857" d="M 265.5,434.5 C 272.175,434.334 278.842,434.5 285.5,435C 286.833,441.667 286.833,448.333 285.5,455C 278.842,455.5 272.175,455.666 265.5,455.5C 265.5,448.5 265.5,441.5 265.5,434.5 Z"/></g>
<g><path style="opacity:0.909" fill="#047857" d="M 305.5,434.5 C 312.167,434.5 318.833,434.5 325.5,434.5C 325.5,441.5 325.5,448.5 325.5,455.5C 318.5,455.5 311.5,455.5 304.5,455.5C 304.205,448.412 304.538,441.412 305.5,434.5 Z"/></g>
<g><path style="opacity:0.909" fill="#047857" d="M 345.5,434.5 C 352.167,434.5 358.833,434.5 365.5,434.5C 365.5,441.5 365.5,448.5 365.5,455.5C 358.5,455.5 351.5,455.5 344.5,455.5C 344.205,448.412 344.538,441.412 345.5,434.5 Z"/></g>
</svg>
