<svg width="18" height="15" viewBox="0 0 18 15" fill="none" xmlns="http://www.w3.org/2000/svg">
<g clip-path="url(#clip0_283_10721)">
<path d="M16.7908 7.5095C16.7908 8.97112 16.7951 10.4327 16.7908 11.8944C16.7816 13.3346 15.9382 14.4953 14.6771 14.801C14.4775 14.8461 14.2742 14.8676 14.0705 14.8651C11.8681 14.8699 9.66586 14.8699 7.46381 14.8651C6.09692 14.8604 5.01765 13.8784 4.78291 12.4032C4.72895 12.0553 4.74729 11.6907 4.73974 11.3345C4.73326 11.0525 4.73542 10.7705 4.73974 10.4886C4.74568 10.0332 5.03438 9.70669 5.42076 9.71203C5.80713 9.71737 6.07857 10.0457 6.08019 10.4933C6.08181 10.9409 6.08019 11.4022 6.08019 11.8588C6.08019 12.7659 6.65436 13.3964 7.48323 13.3982C8.7546 13.4017 10.0254 13.3982 11.2963 13.3982C12.2169 13.3982 13.1375 13.4011 14.0581 13.3982C14.7386 13.3982 15.2669 12.9505 15.4137 12.2577C15.4423 12.1116 15.4557 11.9625 15.4536 11.813C15.4558 8.94164 15.4558 6.07004 15.4536 3.19824C15.4536 2.22936 14.8908 1.60779 14.0139 1.60779C11.8485 1.60779 9.68295 1.60779 7.51723 1.60779C6.63817 1.60779 6.07749 2.22699 6.07695 3.19468C6.07695 3.63221 6.07695 4.06916 6.07695 4.50669C6.07695 4.96323 5.79202 5.29391 5.40619 5.29272C5.02035 5.29153 4.73812 4.96798 4.73758 4.52094C4.73758 3.93439 4.72301 3.34547 4.76133 2.76189C4.85252 1.3816 5.97658 0.198997 7.235 0.149723C7.87231 0.125382 8.51123 0.140222 9.14908 0.140222C10.7917 0.140222 12.4338 0.136066 14.0765 0.140222C15.3937 0.144377 16.4508 1.07466 16.7282 2.47336C16.7702 2.71032 16.7894 2.9515 16.7854 3.19289C16.7935 4.63196 16.7908 6.07399 16.7908 7.5095Z" fill="#F20100"/>
<path d="M2.86916 8.23699C2.93209 8.30645 2.96771 8.348 3.00571 8.38659C3.26989 8.65137 3.54001 8.91318 3.79885 9.18093C4.10044 9.49023 4.10341 9.94083 3.81191 10.2329C3.74269 10.3025 3.66022 10.3575 3.56937 10.3946C3.47851 10.4318 3.38113 10.4503 3.28299 10.4492C3.18484 10.448 3.08793 10.4272 2.99798 10.3879C2.90803 10.3486 2.82688 10.2917 2.75933 10.2205C2.02792 9.49498 1.29968 8.76654 0.574611 8.03514C0.261744 7.7199 0.261151 7.28711 0.574611 6.97186C1.30008 6.24046 2.02852 5.51222 2.75993 4.78714C3.06567 4.48378 3.52339 4.48318 3.81191 4.7723C4.10044 5.06142 4.10163 5.51618 3.80063 5.82489C3.53942 6.09264 3.27227 6.35445 3.00808 6.61923C2.96949 6.65781 2.93387 6.69996 2.86975 6.76942L3.09001 6.76942C5.08119 6.76942 7.07237 6.76942 9.06356 6.76942C9.1724 6.76532 9.28133 6.7751 9.3877 6.79851C9.74391 6.89469 9.95525 7.22715 9.91251 7.60532C9.89181 7.77565 9.81034 7.93278 9.68305 8.04785C9.55577 8.16291 9.39124 8.22818 9.21969 8.23164C8.52925 8.24055 7.83881 8.2358 7.14836 8.2358L2.87035 8.2358L2.86916 8.23699Z" fill="#F20100"/>
</g>
<defs>
<clipPath id="clip0_283_10721">
<rect width="18" height="14.7273" fill="white" transform="translate(0 0.13623)"/>
</clipPath>
</defs>
</svg>
