<?xml version="1.0" encoding="utf-8"?>
<!-- Generator: Adobe Illustrator 28.1.0, SVG Export Plug-In . SVG Version: 6.00 Build 0)  -->
<svg version="1.1" id="Layer_1" xmlns="http://www.w3.org/2000/svg" xmlns:xlink="http://www.w3.org/1999/xlink" x="0px" y="0px"
	 viewBox="0 0 413.3 144" style="enable-background:new 0 0 413.3 144;" xml:space="preserve">
<style type="text/css">
	.st0{fill:#FFC35A;}
	.st1{fill:#155146;}
	.st2{fill:#FF4D63;}
	.st3{fill:#FFFFFF;}
</style>
<g>
	<g>
		<g>
			<g>
				<g>
					<g>
						<path class="st0" d="M223.6,93.2c0,4.9,2.3,5.1,4.5,5.1v0.6h-12.3v-0.6c1.9,0,2.7-1.6,2.7-5V74.6c0-2.7-0.9-4.3-2.8-4.3v-0.6
							h9c8.3,0,14,1.2,14,8.4c0,7.1-5.7,8.3-14,8.3h-1.1V93.2z M224.8,85.7c4.6,0,8.3-0.2,8.3-7.7c0-7.6-3.8-7.8-8.3-7.8h-1.1v15.5
							H224.8z"/>
						<path class="st0" d="M270.1,93.2c0,3.4-0.2,4.4,2,5v0.6h-8v-0.6c1.1-0.4,1.1-1.5,1.1-5v-8h-10.7v8c0,3.8-0.1,4.6,1.1,5v0.6h-8
							v-0.6c2.2-0.6,2-1.3,2-5V75.5c0-3.5,0-4.9-2-5.2v-0.6h8v0.6c-1.2,0.4-1.1,1.6-1.1,5.2v9h10.7v-9c0-3.6,0.1-4.9-1.1-5.2v-0.6h8
							v0.6c-2,0.4-2,1.6-2,5.2V93.2z"/>
						<path class="st0" d="M302.4,90v8.8h-22.1v-0.6c1.7,0,2.3-1.8,2.3-4.7V74.7c0-2.6-0.5-4.4-2.3-4.4v-0.6h21.6v7.7h-0.6
							c-0.7-7-9.9-7.1-11.6-7.1h-1.9v13.5h2.1c0.6,0,5.9,0,6.3-4.2h0.6v9.1h-0.6c-0.3-4.3-5.7-4.3-6.3-4.3h-2.1v13.8h1.7
							c1.8,0,11,0.1,12.3-8.2H302.4z"/>
						<path class="st0" d="M339.5,98.9H336c-6.4,0-5.5,0-8.2-9.1c-1.2-4.3-5.3-4.3-5.8-4.3h-2v8.7c0,2.9,1.2,4.1,2.9,4.1v0.6h-10.7
							v-0.6c1.8,0,2.8-1.2,2.8-4.3V73.7c0-2.6-1-3.4-2.8-3.4v-0.6h9.1c8.3,0,13.5,1,13.5,7.9c0,5.4-3.2,7.1-7.9,7.6
							c2.7-0.1,5.8,1,7.9,9.3c0.8,3.2,3.6,3.8,4.7,3.9V98.9z M321.4,70.2h-1.3v14.6h1.3c4.4,0,7.8,0,7.8-7.3
							C329.2,70.2,325.6,70.2,321.4,70.2z"/>
						<path class="st0" d="M374.4,98.9h-10.7v-0.6c2.7,0,1.5-3.4,1-4.6l-1.3-3.3h-10.3c-0.6,1.7-2.8,8.1,3.4,7.9v0.6h-9.8v-0.6
							c1.3,0,2.4,0,6.2-9.7l7.1-18.9h0.5C368.2,87.9,371,95,371,95c1.4,3.3,2.3,3.1,3.4,3.2V98.9z M363.1,89.7l-5.2-13l-4.8,13
							H363.1z"/>
						<path class="st0" d="M393.8,99.2c-7.4,0-10.6-2.5-10.6-2.5v-8h0.6c0.7,3.8,2.8,9.8,10,9.8c5.4,0,6.5-6.5,1.5-10.1l-6.6-4.2
							c-4.9-3.2-7.9-7.1-4.6-11.8c0,0,2-3.2,8.2-3.2c6.6,0,10.1,2,10.1,2v7h-0.6c-0.6-3.2-2.7-8.3-9.4-8.3c-4.5,0-7,5.6-1.2,9.4
							l6.6,4.4c5.5,3.7,7.1,8.2,4.5,12.2C402.2,95.8,400.4,99.2,393.8,99.2z"/>
					</g>
					<g>
						<path class="st1" d="M217.9,31.6c0.1,2.1,0.2,4.1,0.1,5.9c0,16.3-25.4,27.2-25.4,47.8c0,3.2,1.1,6,4.4,7.4
							c-0.4,6.1-5.4,10.1-12,10.1c-7,0-13.3-4.3-13.3-11.8c0-17.9,33.5-28.2,42.9-44.5c-2.7,3.4-8,6.2-14.7,6.2
							c-9.8,0-19.9-3-30.5-3c-4.5,0-8.9,1.5-9.9,6.3l-0.7-0.1c1.9-11.7,5.3-24.9,18.7-24.9c10.9,0,36.8,11.3,39.9,5.7
							c0.2-1.6,0.1-3.4-0.1-5.2L217.9,31.6z"/>
					</g>
				</g>
				<g>
					<path class="st1" d="M199.2,110.8c0.1,0,0.1,0,0.2,0.1c0.1,0,0.1,0.1,0.1,0.2c0,0,0,0.1,0,0.1l-3,8.5c0,0.1,0,0.1-0.1,0.1
						c0,0-0.1,0-0.1,0c-0.1,0-0.1,0-0.2,0c0,0-0.1-0.1-0.1-0.1l-2.4-6.1h0.1l-2.4,6.1c0,0.1-0.1,0.1-0.1,0.1c0,0-0.1,0-0.2,0
						c0,0-0.1,0-0.1,0c0,0-0.1-0.1-0.1-0.1l-3-8.5c0-0.1,0-0.1,0-0.1c0-0.1,0-0.2,0.1-0.2c0.1,0,0.1-0.1,0.2-0.1c0.1,0,0.1,0,0.1,0
						c0,0,0.1,0.1,0.1,0.1l2.8,8l-0.1,0l2.4-6c0-0.1,0-0.1,0.1-0.1c0,0,0.1,0,0.2,0c0.1,0,0.1,0,0.1,0c0,0,0.1,0.1,0.1,0.1l2.4,6.1
						l-0.1,0l2.8-8.1c0-0.1,0-0.1,0.1-0.1C199.1,110.8,199.1,110.8,199.2,110.8z"/>
					<path class="st1" d="M205.6,120c-0.6,0-1.2-0.1-1.7-0.4c-0.5-0.3-0.9-0.7-1.2-1.2c-0.3-0.5-0.4-1.1-0.4-1.8
						c0-0.7,0.1-1.3,0.4-1.8c0.3-0.5,0.6-0.9,1.1-1.2c0.4-0.3,0.9-0.4,1.4-0.4c0.4,0,0.7,0.1,1.1,0.2c0.3,0.1,0.7,0.3,0.9,0.5
						c0.3,0.2,0.5,0.6,0.7,0.9c0.2,0.4,0.3,0.8,0.3,1.3c0,0.1,0,0.1-0.1,0.2c-0.1,0.1-0.1,0.1-0.2,0.1h-5.3l-0.1-0.5h5.2l-0.1,0.1
						v-0.2c0-0.5-0.2-0.8-0.4-1.2c-0.2-0.3-0.5-0.5-0.9-0.7c-0.3-0.2-0.7-0.2-1.1-0.2c-0.3,0-0.5,0.1-0.8,0.2
						c-0.3,0.1-0.5,0.3-0.8,0.5c-0.2,0.2-0.4,0.5-0.6,0.9s-0.2,0.8-0.2,1.3c0,0.5,0.1,1,0.3,1.4c0.2,0.4,0.5,0.8,0.9,1.1
						c0.4,0.3,0.9,0.4,1.5,0.4c0.3,0,0.6,0,0.8-0.1c0.3-0.1,0.5-0.2,0.7-0.4s0.4-0.3,0.5-0.5c0.1-0.1,0.1-0.1,0.2-0.1
						c0.1,0,0.1,0,0.2,0.1c0,0,0.1,0.1,0.1,0.2s0,0.1-0.1,0.2c-0.3,0.3-0.6,0.6-1,0.9C206.6,119.8,206.1,120,205.6,120z"/>
					<path class="st1" d="M217.1,110.3c0.1,0,0.1,0,0.2,0.1c0,0.1,0.1,0.1,0.1,0.2v9c0,0.1,0,0.1-0.1,0.2c-0.1,0.1-0.1,0.1-0.2,0.1
						c-0.1,0-0.1,0-0.2-0.1c0-0.1-0.1-0.1-0.1-0.2v-1.8l0.2-0.3c0,0.3-0.1,0.6-0.2,0.9c-0.1,0.3-0.3,0.6-0.6,0.8
						c-0.2,0.2-0.5,0.4-0.9,0.6c-0.3,0.1-0.7,0.2-1.1,0.2c-0.6,0-1.1-0.1-1.5-0.4c-0.5-0.3-0.8-0.7-1.1-1.2
						c-0.3-0.5-0.4-1.1-0.4-1.7s0.1-1.2,0.4-1.7c0.3-0.5,0.6-0.9,1.1-1.2c0.5-0.3,1-0.4,1.5-0.4c0.4,0,0.7,0.1,1,0.2
						c0.3,0.1,0.6,0.3,0.9,0.6c0.2,0.2,0.4,0.5,0.6,0.8c0.1,0.3,0.2,0.7,0.2,1.1l-0.2-0.3v-5c0-0.1,0-0.1,0.1-0.2
						C216.9,110.3,217,110.3,217.1,110.3z M214.3,119.5c0.5,0,0.9-0.1,1.3-0.4c0.4-0.2,0.7-0.6,0.9-1c0.2-0.4,0.3-0.9,0.3-1.5
						s-0.1-1.1-0.3-1.5c-0.2-0.4-0.5-0.8-0.9-1c-0.4-0.2-0.8-0.4-1.3-0.4c-0.5,0-0.9,0.1-1.3,0.4s-0.7,0.6-0.9,1
						c-0.2,0.4-0.3,0.9-0.3,1.5c0,0.6,0.1,1,0.3,1.5c0.2,0.4,0.5,0.8,0.9,1C213.4,119.3,213.9,119.5,214.3,119.5z"/>
					<path class="st1" d="M226.7,110.3c0.1,0,0.1,0,0.2,0.1c0,0.1,0.1,0.1,0.1,0.2v9c0,0.1,0,0.1-0.1,0.2c-0.1,0.1-0.1,0.1-0.2,0.1
						c-0.1,0-0.1,0-0.2-0.1c0-0.1-0.1-0.1-0.1-0.2v-1.8l0.2-0.3c0,0.3-0.1,0.6-0.2,0.9c-0.1,0.3-0.3,0.6-0.6,0.8
						c-0.2,0.2-0.5,0.4-0.9,0.6c-0.3,0.1-0.7,0.2-1.1,0.2c-0.6,0-1.1-0.1-1.5-0.4c-0.5-0.3-0.8-0.7-1.1-1.2
						c-0.3-0.5-0.4-1.1-0.4-1.7s0.1-1.2,0.4-1.7c0.3-0.5,0.6-0.9,1.1-1.2c0.5-0.3,1-0.4,1.5-0.4c0.4,0,0.7,0.1,1,0.2
						c0.3,0.1,0.6,0.3,0.9,0.6c0.2,0.2,0.4,0.5,0.6,0.8c0.1,0.3,0.2,0.7,0.2,1.1l-0.2-0.3v-5c0-0.1,0-0.1,0.1-0.2
						C226.6,110.3,226.6,110.3,226.7,110.3z M224,119.5c0.5,0,0.9-0.1,1.3-0.4c0.4-0.2,0.7-0.6,0.9-1c0.2-0.4,0.3-0.9,0.3-1.5
						s-0.1-1.1-0.3-1.5c-0.2-0.4-0.5-0.8-0.9-1c-0.4-0.2-0.8-0.4-1.3-0.4c-0.5,0-0.9,0.1-1.3,0.4c-0.4,0.2-0.7,0.6-0.9,1
						c-0.2,0.4-0.3,0.9-0.3,1.5c0,0.6,0.1,1,0.3,1.5c0.2,0.4,0.5,0.8,0.9,1C223.1,119.3,223.5,119.5,224,119.5z"/>
					<path class="st1" d="M231.3,112.3c-0.1,0-0.2,0-0.3-0.1c-0.1-0.1-0.1-0.2-0.1-0.3v-0.1c0-0.1,0-0.2,0.1-0.3
						c0.1-0.1,0.2-0.1,0.3-0.1c0.1,0,0.2,0,0.3,0.1c0.1,0.1,0.1,0.2,0.1,0.3v0.1c0,0.1,0,0.2-0.1,0.3
						C231.5,112.3,231.4,112.3,231.3,112.3z M231.6,119.6c0,0.1,0,0.1-0.1,0.2c-0.1,0.1-0.1,0.1-0.2,0.1c-0.1,0-0.1,0-0.2-0.1
						c0-0.1-0.1-0.1-0.1-0.2v-6.1c0-0.1,0-0.1,0.1-0.2s0.1-0.1,0.2-0.1c0.1,0,0.1,0,0.2,0.1c0,0.1,0.1,0.1,0.1,0.2V119.6z"/>
					<path class="st1" d="M238.6,113.2c0.5,0,1,0.1,1.3,0.3c0.3,0.2,0.6,0.5,0.7,0.9s0.2,0.8,0.2,1.2v4c0,0.1,0,0.1-0.1,0.2
						c-0.1,0.1-0.1,0.1-0.2,0.1c-0.1,0-0.1,0-0.2-0.1c0-0.1-0.1-0.1-0.1-0.2v-3.9c0-0.4-0.1-0.7-0.2-1c-0.1-0.3-0.3-0.5-0.6-0.7
						c-0.3-0.2-0.6-0.3-1.1-0.3c-0.4,0-0.7,0.1-1.1,0.3c-0.4,0.2-0.7,0.4-0.9,0.7c-0.2,0.3-0.4,0.6-0.4,1v3.9c0,0.1,0,0.1-0.1,0.2
						c-0.1,0.1-0.1,0.1-0.2,0.1c-0.1,0-0.1,0-0.2-0.1c0-0.1-0.1-0.1-0.1-0.2v-5.9c0-0.1,0-0.1,0.1-0.2s0.1-0.1,0.2-0.1
						c0.1,0,0.1,0,0.2,0.1c0,0.1,0.1,0.1,0.1,0.2v1.3l-0.3,0.6c0-0.3,0.1-0.6,0.2-0.9c0.2-0.3,0.4-0.5,0.6-0.8
						c0.3-0.2,0.6-0.4,0.9-0.5C237.9,113.2,238.3,113.2,238.6,113.2z"/>
					<path class="st1" d="M247.6,113.2c0.4,0,0.7,0.1,1.1,0.2c0.3,0.1,0.6,0.3,0.9,0.5c0.3,0.2,0.5,0.5,0.6,0.7
						c0.1,0.3,0.2,0.5,0.2,0.8l-0.2-0.5v-1.3c0-0.1,0-0.1,0.1-0.2c0-0.1,0.1-0.1,0.2-0.1c0.1,0,0.1,0,0.2,0.1c0,0.1,0.1,0.1,0.1,0.2
						v5.6c0,0.7-0.1,1.2-0.4,1.7c-0.3,0.5-0.6,0.9-1.1,1.1c-0.5,0.3-1,0.4-1.7,0.4c-0.3,0-0.7,0-1-0.1c-0.3-0.1-0.6-0.2-0.9-0.3
						c-0.2-0.1-0.3-0.3-0.3-0.4c0-0.1,0-0.1,0.1-0.2c0,0,0.1-0.1,0.2-0.1c0.1,0,0.2,0,0.2,0.1c0.1,0.1,0.2,0.2,0.4,0.3
						c0.1,0,0.2,0.1,0.3,0.1c0.1,0,0.3,0.1,0.5,0.1c0.2,0,0.4,0,0.6,0c0.8,0,1.5-0.3,1.9-0.8c0.5-0.5,0.7-1.2,0.7-2v-1.3l0.1,0
						c-0.1,0.4-0.3,0.7-0.5,0.9c-0.2,0.3-0.4,0.5-0.7,0.6c-0.3,0.2-0.5,0.3-0.8,0.3c-0.3,0.1-0.5,0.1-0.8,0.1
						c-0.6,0-1.1-0.1-1.6-0.4c-0.5-0.3-0.8-0.7-1.1-1.2c-0.3-0.5-0.4-1.1-0.4-1.7s0.1-1.2,0.4-1.7c0.3-0.5,0.6-0.9,1.1-1.2
						C246.5,113.3,247.1,113.2,247.6,113.2z M247.7,113.7c-0.5,0-1,0.1-1.4,0.4s-0.7,0.6-0.9,1c-0.2,0.4-0.3,0.9-0.3,1.5
						c0,0.6,0.1,1,0.3,1.5c0.2,0.4,0.5,0.8,0.9,1c0.4,0.3,0.9,0.4,1.4,0.4c0.5,0,0.9-0.1,1.3-0.4c0.4-0.2,0.7-0.6,0.9-1
						c0.2-0.4,0.3-0.9,0.3-1.5s-0.1-1.1-0.3-1.5c-0.2-0.4-0.5-0.8-0.9-1C248.6,113.8,248.2,113.7,247.7,113.7z"/>
					<path class="st1" d="M263.1,120c-0.6,0-1.2-0.1-1.7-0.4c-0.5-0.3-0.9-0.7-1.2-1.2c-0.3-0.5-0.4-1.1-0.4-1.8
						c0-0.7,0.1-1.3,0.4-1.8c0.3-0.5,0.6-0.9,1.1-1.2c0.4-0.3,0.9-0.4,1.4-0.4c0.4,0,0.7,0.1,1.1,0.2c0.3,0.1,0.7,0.3,0.9,0.5
						c0.3,0.2,0.5,0.6,0.7,0.9c0.2,0.4,0.3,0.8,0.3,1.3c0,0.1,0,0.1-0.1,0.2c-0.1,0.1-0.1,0.1-0.2,0.1h-5.3l-0.1-0.5h5.2l-0.1,0.1
						v-0.2c0-0.5-0.2-0.8-0.4-1.2c-0.2-0.3-0.5-0.5-0.9-0.7c-0.3-0.2-0.7-0.2-1.1-0.2c-0.3,0-0.5,0.1-0.8,0.2
						c-0.3,0.1-0.5,0.3-0.8,0.5c-0.2,0.2-0.4,0.5-0.6,0.9c-0.2,0.4-0.2,0.8-0.2,1.3c0,0.5,0.1,1,0.3,1.4c0.2,0.4,0.5,0.8,0.9,1.1
						c0.4,0.3,0.9,0.4,1.5,0.4c0.3,0,0.6,0,0.8-0.1c0.3-0.1,0.5-0.2,0.7-0.4c0.2-0.2,0.4-0.3,0.5-0.5c0.1-0.1,0.1-0.1,0.2-0.1
						c0.1,0,0.1,0,0.2,0.1c0,0,0.1,0.1,0.1,0.2s0,0.1-0.1,0.2c-0.3,0.3-0.6,0.6-1,0.9C264.1,119.8,263.7,120,263.1,120z"/>
					<path class="st1" d="M268.9,113.1c0,0,0.1,0,0.1,0c0,0,0.1,0.1,0.1,0.1l2.4,5.7l-0.1,0.1l2.4-5.8c0-0.1,0.1-0.2,0.3-0.2
						c0,0,0.1,0,0.2,0.1c0.1,0,0.1,0.1,0.1,0.2c0,0,0,0.1,0,0.1c0,0,0,0,0,0.1l-2.6,6.2c0,0.1-0.1,0.2-0.2,0.2c-0.1,0-0.1,0-0.1,0
						c0,0-0.1-0.1-0.1-0.1l-2.6-6.1c0,0,0,0,0-0.1c0,0,0,0,0-0.1c0-0.1,0-0.1,0.1-0.2C268.8,113.2,268.8,113.1,268.9,113.1z"/>
					<path class="st1" d="M280.7,120c-0.6,0-1.2-0.1-1.7-0.4c-0.5-0.3-0.9-0.7-1.2-1.2c-0.3-0.5-0.4-1.1-0.4-1.8
						c0-0.7,0.1-1.3,0.4-1.8c0.3-0.5,0.6-0.9,1.1-1.2c0.4-0.3,0.9-0.4,1.4-0.4c0.4,0,0.7,0.1,1.1,0.2c0.3,0.1,0.7,0.3,0.9,0.5
						c0.3,0.2,0.5,0.6,0.7,0.9c0.2,0.4,0.3,0.8,0.3,1.3c0,0.1,0,0.1-0.1,0.2c-0.1,0.1-0.1,0.1-0.2,0.1h-5.3l-0.1-0.5h5.2l-0.1,0.1
						v-0.2c0-0.5-0.2-0.8-0.4-1.2c-0.2-0.3-0.5-0.5-0.9-0.7c-0.3-0.2-0.7-0.2-1.1-0.2c-0.3,0-0.5,0.1-0.8,0.2
						c-0.3,0.1-0.5,0.3-0.8,0.5c-0.2,0.2-0.4,0.5-0.6,0.9c-0.2,0.4-0.2,0.8-0.2,1.3c0,0.5,0.1,1,0.3,1.4c0.2,0.4,0.5,0.8,0.9,1.1
						c0.4,0.3,0.9,0.4,1.5,0.4c0.3,0,0.6,0,0.8-0.1c0.3-0.1,0.5-0.2,0.7-0.4c0.2-0.2,0.4-0.3,0.5-0.5c0.1-0.1,0.1-0.1,0.2-0.1
						c0.1,0,0.1,0,0.2,0.1c0,0,0.1,0.1,0.1,0.2s0,0.1-0.1,0.2c-0.3,0.3-0.6,0.6-1,0.9C281.6,119.8,281.2,120,280.7,120z"/>
					<path class="st1" d="M289.8,113.2c0.5,0,1,0.1,1.3,0.3s0.6,0.5,0.7,0.9s0.2,0.8,0.2,1.2v4c0,0.1,0,0.1-0.1,0.2
						c-0.1,0.1-0.1,0.1-0.2,0.1c-0.1,0-0.1,0-0.2-0.1c0-0.1-0.1-0.1-0.1-0.2v-3.9c0-0.4-0.1-0.7-0.2-1s-0.3-0.5-0.6-0.7
						c-0.3-0.2-0.6-0.3-1.1-0.3c-0.4,0-0.7,0.1-1.1,0.3c-0.4,0.2-0.7,0.4-0.9,0.7c-0.2,0.3-0.4,0.6-0.4,1v3.9c0,0.1,0,0.1-0.1,0.2
						c-0.1,0.1-0.1,0.1-0.2,0.1c-0.1,0-0.1,0-0.2-0.1c0-0.1-0.1-0.1-0.1-0.2v-5.9c0-0.1,0-0.1,0.1-0.2c0.1-0.1,0.1-0.1,0.2-0.1
						c0.1,0,0.1,0,0.2,0.1s0.1,0.1,0.1,0.2v1.3l-0.3,0.6c0-0.3,0.1-0.6,0.2-0.9c0.2-0.3,0.4-0.5,0.6-0.8c0.3-0.2,0.6-0.4,0.9-0.5
						C289.1,113.2,289.5,113.2,289.8,113.2z"/>
					<path class="st1" d="M295.6,113.3h3c0.1,0,0.1,0,0.2,0.1c0,0.1,0.1,0.1,0.1,0.2c0,0.1,0,0.1-0.1,0.2c0,0-0.1,0.1-0.2,0.1h-3
						c-0.1,0-0.1,0-0.2-0.1c-0.1-0.1-0.1-0.1-0.1-0.2c0-0.1,0-0.1,0.1-0.2C295.5,113.4,295.5,113.3,295.6,113.3z M296.9,111.4
						c0.1,0,0.1,0,0.2,0.1c0,0.1,0.1,0.1,0.1,0.2v6.7c0,0.3,0,0.5,0.1,0.6c0.1,0.1,0.2,0.2,0.3,0.3c0.1,0,0.2,0.1,0.3,0.1
						c0.1,0,0.1,0,0.2,0c0,0,0.1,0,0.2,0s0.1,0,0.2,0.1c0,0,0.1,0.1,0.1,0.2c0,0.1,0,0.1-0.1,0.2c-0.1,0.1-0.2,0.1-0.4,0.1
						c-0.1,0-0.1,0-0.3,0c-0.1,0-0.3,0-0.4-0.1c-0.2-0.1-0.3-0.2-0.4-0.4c-0.1-0.2-0.2-0.5-0.2-0.9v-6.8c0-0.1,0-0.1,0.1-0.2
						C296.8,111.5,296.8,111.4,296.9,111.4z"/>
					<path class="st1" d="M310.4,113.3c0.5,0,0.9,0.1,1.3,0.4c0.4,0.3,0.7,0.7,0.8,1.2l-0.2,0.1l0.1-0.2c0.1-0.3,0.3-0.5,0.6-0.8
						c0.3-0.2,0.6-0.4,0.9-0.5c0.3-0.1,0.7-0.2,1-0.2c0.5,0,0.9,0.1,1.3,0.3c0.3,0.2,0.6,0.5,0.7,0.9c0.2,0.4,0.2,0.8,0.2,1.3v3.8
						c0,0.1,0,0.1-0.1,0.2c0,0.1-0.1,0.1-0.2,0.1c-0.1,0-0.1,0-0.2-0.1c0-0.1-0.1-0.1-0.1-0.2v-3.7c0-0.4-0.1-0.7-0.2-1
						c-0.1-0.3-0.3-0.6-0.6-0.7c-0.3-0.2-0.6-0.3-1-0.3c-0.4,0-0.7,0.1-1.1,0.3c-0.4,0.2-0.6,0.4-0.9,0.7c-0.2,0.3-0.3,0.7-0.3,1
						v3.7c0,0.1,0,0.1-0.1,0.2c0,0.1-0.1,0.1-0.2,0.1c-0.1,0-0.1,0-0.2-0.1c0-0.1-0.1-0.1-0.1-0.2v-3.8c0-0.4-0.1-0.7-0.2-1
						c-0.1-0.3-0.3-0.5-0.5-0.7c-0.3-0.2-0.6-0.3-1-0.3c-0.4,0-0.7,0.1-1.1,0.3c-0.3,0.2-0.6,0.4-0.8,0.7c-0.2,0.3-0.3,0.6-0.3,1
						v3.8c0,0.1,0,0.1-0.1,0.2c-0.1,0.1-0.1,0.1-0.2,0.1c-0.1,0-0.1,0-0.2-0.1c0-0.1-0.1-0.1-0.1-0.2v-5.9c0-0.1,0-0.1,0.1-0.2
						c0.1-0.1,0.1-0.1,0.2-0.1c0.1,0,0.1,0,0.2,0.1c0,0.1,0.1,0.1,0.1,0.2v1.4l-0.4,0.7c0-0.3,0.1-0.6,0.2-0.9
						c0.1-0.3,0.3-0.5,0.6-0.8c0.2-0.2,0.5-0.4,0.8-0.5C309.7,113.4,310,113.3,310.4,113.3z"/>
					<path class="st1" d="M326.6,113.4c0.1,0,0.1,0,0.2,0.1c0,0.1,0.1,0.1,0.1,0.2v5.9c0,0.1,0,0.1-0.1,0.2
						c-0.1,0.1-0.1,0.1-0.2,0.1c-0.1,0-0.1,0-0.2-0.1c0-0.1-0.1-0.1-0.1-0.2v-1.8l0.2-0.2c0,0.3-0.1,0.6-0.2,0.8s-0.3,0.5-0.6,0.8
						c-0.2,0.2-0.5,0.4-0.9,0.6c-0.3,0.1-0.7,0.2-1.1,0.2c-0.6,0-1.1-0.2-1.5-0.5c-0.5-0.3-0.8-0.7-1.1-1.2s-0.4-1.1-0.4-1.7
						c0-0.7,0.1-1.2,0.4-1.7c0.3-0.5,0.6-0.9,1.1-1.2c0.5-0.3,1-0.4,1.5-0.4c0.4,0,0.7,0.1,1,0.2c0.3,0.1,0.6,0.3,0.9,0.6
						c0.2,0.2,0.4,0.5,0.6,0.8c0.1,0.3,0.2,0.7,0.2,1.1l-0.2-0.3v-1.9c0-0.1,0-0.1,0.1-0.2C326.5,113.4,326.5,113.4,326.6,113.4z
						 M323.9,119.5c0.5,0,0.9-0.1,1.3-0.4c0.4-0.3,0.7-0.6,0.9-1c0.2-0.4,0.3-0.9,0.3-1.5c0-0.5-0.1-1-0.3-1.5
						c-0.2-0.4-0.5-0.8-0.9-1c-0.4-0.3-0.8-0.4-1.3-0.4c-0.5,0-0.9,0.1-1.3,0.4c-0.4,0.2-0.7,0.6-0.9,1c-0.2,0.4-0.3,0.9-0.3,1.5
						c0,0.6,0.1,1.1,0.3,1.5c0.2,0.4,0.5,0.8,0.9,1C323,119.3,323.4,119.5,323.9,119.5z"/>
					<path class="st1" d="M333.9,113.2c0.5,0,1,0.1,1.3,0.3c0.3,0.2,0.6,0.5,0.7,0.9c0.2,0.4,0.2,0.8,0.2,1.2v4c0,0.1,0,0.1-0.1,0.2
						c-0.1,0.1-0.1,0.1-0.2,0.1c-0.1,0-0.1,0-0.2-0.1c0-0.1-0.1-0.1-0.1-0.2v-3.9c0-0.4-0.1-0.7-0.2-1c-0.1-0.3-0.3-0.5-0.6-0.7
						c-0.3-0.2-0.6-0.3-1.1-0.3c-0.4,0-0.7,0.1-1.1,0.3c-0.4,0.2-0.7,0.4-0.9,0.7c-0.2,0.3-0.4,0.6-0.4,1v3.9c0,0.1,0,0.1-0.1,0.2
						c-0.1,0.1-0.1,0.1-0.2,0.1c-0.1,0-0.1,0-0.2-0.1c0-0.1-0.1-0.1-0.1-0.2v-5.9c0-0.1,0-0.1,0.1-0.2c0.1-0.1,0.1-0.1,0.2-0.1
						c0.1,0,0.1,0,0.2,0.1c0,0.1,0.1,0.1,0.1,0.2v1.3l-0.3,0.6c0-0.3,0.1-0.6,0.2-0.9c0.2-0.3,0.4-0.5,0.6-0.8
						c0.3-0.2,0.6-0.4,0.9-0.5C333.2,113.2,333.6,113.2,333.9,113.2z"/>
					<path class="st1" d="M345.6,113.4c0.1,0,0.1,0,0.2,0.1c0,0.1,0.1,0.1,0.1,0.2v5.9c0,0.1,0,0.1-0.1,0.2
						c-0.1,0.1-0.1,0.1-0.2,0.1c-0.1,0-0.1,0-0.2-0.1c0-0.1-0.1-0.1-0.1-0.2v-1.8l0.2-0.2c0,0.3-0.1,0.6-0.2,0.8
						c-0.1,0.3-0.3,0.5-0.6,0.8c-0.2,0.2-0.5,0.4-0.9,0.6c-0.3,0.1-0.7,0.2-1.1,0.2c-0.6,0-1.1-0.2-1.5-0.5
						c-0.5-0.3-0.8-0.7-1.1-1.2c-0.3-0.5-0.4-1.1-0.4-1.7c0-0.7,0.1-1.2,0.4-1.7c0.3-0.5,0.6-0.9,1.1-1.2c0.5-0.3,1-0.4,1.5-0.4
						c0.4,0,0.7,0.1,1,0.2c0.3,0.1,0.6,0.3,0.9,0.6c0.2,0.2,0.4,0.5,0.6,0.8c0.1,0.3,0.2,0.7,0.2,1.1l-0.2-0.3v-1.9
						c0-0.1,0-0.1,0.1-0.2C345.4,113.4,345.5,113.4,345.6,113.4z M342.9,119.5c0.5,0,0.9-0.1,1.3-0.4c0.4-0.3,0.7-0.6,0.9-1
						c0.2-0.4,0.3-0.9,0.3-1.5c0-0.5-0.1-1-0.3-1.5c-0.2-0.4-0.5-0.8-0.9-1c-0.4-0.3-0.8-0.4-1.3-0.4c-0.5,0-0.9,0.1-1.3,0.4
						c-0.4,0.2-0.7,0.6-0.9,1c-0.2,0.4-0.3,0.9-0.3,1.5c0,0.6,0.1,1.1,0.3,1.5c0.2,0.4,0.5,0.8,0.9,1
						C341.9,119.3,342.4,119.5,342.9,119.5z"/>
					<path class="st1" d="M352.6,113.2c0.4,0,0.7,0.1,1.1,0.2c0.3,0.1,0.6,0.3,0.9,0.5c0.3,0.2,0.5,0.5,0.6,0.7
						c0.1,0.3,0.2,0.5,0.2,0.8l-0.2-0.5v-1.3c0-0.1,0-0.1,0.1-0.2c0-0.1,0.1-0.1,0.2-0.1s0.1,0,0.2,0.1c0,0.1,0.1,0.1,0.1,0.2v5.6
						c0,0.7-0.1,1.2-0.4,1.7c-0.3,0.5-0.6,0.9-1.1,1.1c-0.5,0.3-1,0.4-1.7,0.4c-0.3,0-0.7,0-1-0.1c-0.3-0.1-0.6-0.2-0.9-0.3
						c-0.2-0.1-0.3-0.3-0.3-0.4c0-0.1,0-0.1,0.1-0.2c0,0,0.1-0.1,0.2-0.1c0.1,0,0.2,0,0.2,0.1c0.1,0.1,0.2,0.2,0.4,0.3
						c0.1,0,0.2,0.1,0.3,0.1c0.1,0,0.3,0.1,0.5,0.1c0.2,0,0.4,0,0.6,0c0.8,0,1.5-0.3,1.9-0.8c0.5-0.5,0.7-1.2,0.7-2v-1.3l0.1,0
						c-0.1,0.4-0.3,0.7-0.5,0.9c-0.2,0.3-0.4,0.5-0.7,0.6c-0.3,0.2-0.5,0.3-0.8,0.3c-0.3,0.1-0.5,0.1-0.8,0.1
						c-0.6,0-1.1-0.1-1.6-0.4c-0.5-0.3-0.8-0.7-1.1-1.2c-0.3-0.5-0.4-1.1-0.4-1.7s0.1-1.2,0.4-1.7c0.3-0.5,0.6-0.9,1.1-1.2
						C351.5,113.3,352,113.2,352.6,113.2z M352.6,113.7c-0.5,0-1,0.1-1.4,0.4s-0.7,0.6-0.9,1c-0.2,0.4-0.3,0.9-0.3,1.5
						c0,0.6,0.1,1,0.3,1.5c0.2,0.4,0.5,0.8,0.9,1c0.4,0.3,0.9,0.4,1.4,0.4c0.5,0,0.9-0.1,1.3-0.4c0.4-0.2,0.7-0.6,0.9-1
						c0.2-0.4,0.3-0.9,0.3-1.5s-0.1-1.1-0.3-1.5c-0.2-0.4-0.5-0.8-0.9-1S353.1,113.7,352.6,113.7z"/>
					<path class="st1" d="M362.4,120c-0.6,0-1.2-0.1-1.7-0.4c-0.5-0.3-0.9-0.7-1.2-1.2c-0.3-0.5-0.4-1.1-0.4-1.8
						c0-0.7,0.1-1.3,0.4-1.8c0.3-0.5,0.6-0.9,1.1-1.2c0.4-0.3,0.9-0.4,1.4-0.4c0.4,0,0.7,0.1,1.1,0.2c0.3,0.1,0.7,0.3,0.9,0.5
						c0.3,0.2,0.5,0.6,0.7,0.9c0.2,0.4,0.3,0.8,0.3,1.3c0,0.1,0,0.1-0.1,0.2c-0.1,0.1-0.1,0.1-0.2,0.1h-5.3l-0.1-0.5h5.2l-0.1,0.1
						v-0.2c0-0.5-0.2-0.8-0.4-1.2c-0.2-0.3-0.5-0.5-0.9-0.7c-0.3-0.2-0.7-0.2-1.1-0.2c-0.3,0-0.5,0.1-0.8,0.2
						c-0.3,0.1-0.5,0.3-0.8,0.5c-0.2,0.2-0.4,0.5-0.6,0.9c-0.2,0.4-0.2,0.8-0.2,1.3c0,0.5,0.1,1,0.3,1.4c0.2,0.4,0.5,0.8,0.9,1.1
						c0.4,0.3,0.9,0.4,1.5,0.4c0.3,0,0.6,0,0.8-0.1c0.3-0.1,0.5-0.2,0.7-0.4c0.2-0.2,0.4-0.3,0.5-0.5c0.1-0.1,0.1-0.1,0.2-0.1
						c0.1,0,0.1,0,0.2,0.1c0,0,0.1,0.1,0.1,0.2s0,0.1-0.1,0.2c-0.3,0.3-0.6,0.6-1,0.9C363.4,119.8,362.9,120,362.4,120z"/>
					<path class="st1" d="M371.3,113.3c0.5,0,0.9,0.1,1.3,0.4c0.4,0.3,0.7,0.7,0.8,1.2l-0.2,0.1l0.1-0.2c0.1-0.3,0.3-0.5,0.6-0.8
						c0.3-0.2,0.6-0.4,0.9-0.5c0.3-0.1,0.7-0.2,1-0.2c0.5,0,0.9,0.1,1.3,0.3c0.3,0.2,0.6,0.5,0.7,0.9c0.2,0.4,0.2,0.8,0.2,1.3v3.8
						c0,0.1,0,0.1-0.1,0.2c0,0.1-0.1,0.1-0.2,0.1c-0.1,0-0.1,0-0.2-0.1c0-0.1-0.1-0.1-0.1-0.2v-3.7c0-0.4-0.1-0.7-0.2-1
						c-0.1-0.3-0.3-0.6-0.6-0.7c-0.3-0.2-0.6-0.3-1-0.3c-0.4,0-0.7,0.1-1.1,0.3c-0.4,0.2-0.6,0.4-0.9,0.7c-0.2,0.3-0.3,0.7-0.3,1
						v3.7c0,0.1,0,0.1-0.1,0.2c0,0.1-0.1,0.1-0.2,0.1s-0.1,0-0.2-0.1c0-0.1-0.1-0.1-0.1-0.2v-3.8c0-0.4-0.1-0.7-0.2-1
						c-0.1-0.3-0.3-0.5-0.5-0.7c-0.2-0.2-0.6-0.3-1-0.3c-0.4,0-0.7,0.1-1.1,0.3c-0.3,0.2-0.6,0.4-0.8,0.7c-0.2,0.3-0.3,0.6-0.3,1
						v3.8c0,0.1,0,0.1-0.1,0.2c-0.1,0.1-0.1,0.1-0.2,0.1c-0.1,0-0.1,0-0.2-0.1c0-0.1-0.1-0.1-0.1-0.2v-5.9c0-0.1,0-0.1,0.1-0.2
						c0.1-0.1,0.1-0.1,0.2-0.1c0.1,0,0.1,0,0.2,0.1c0,0.1,0.1,0.1,0.1,0.2v1.4l-0.4,0.7c0-0.3,0.1-0.6,0.2-0.9s0.3-0.5,0.6-0.8
						c0.2-0.2,0.5-0.4,0.8-0.5C370.7,113.4,371,113.3,371.3,113.3z"/>
					<path class="st1" d="M385.1,120c-0.6,0-1.2-0.1-1.7-0.4c-0.5-0.3-0.9-0.7-1.2-1.2c-0.3-0.5-0.4-1.1-0.4-1.8
						c0-0.7,0.1-1.3,0.4-1.8c0.3-0.5,0.6-0.9,1.1-1.2c0.4-0.3,0.9-0.4,1.4-0.4c0.4,0,0.7,0.1,1.1,0.2c0.3,0.1,0.7,0.3,0.9,0.5
						c0.3,0.2,0.5,0.6,0.7,0.9c0.2,0.4,0.3,0.8,0.3,1.3c0,0.1,0,0.1-0.1,0.2c-0.1,0.1-0.1,0.1-0.2,0.1h-5.3l-0.1-0.5h5.2l-0.1,0.1
						v-0.2c0-0.5-0.2-0.8-0.4-1.2c-0.2-0.3-0.5-0.5-0.9-0.7c-0.3-0.2-0.7-0.2-1.1-0.2c-0.3,0-0.5,0.1-0.8,0.2
						c-0.3,0.1-0.5,0.3-0.8,0.5c-0.2,0.2-0.4,0.5-0.6,0.9c-0.2,0.4-0.2,0.8-0.2,1.3c0,0.5,0.1,1,0.3,1.4c0.2,0.4,0.5,0.8,0.9,1.1
						c0.4,0.3,0.9,0.4,1.5,0.4c0.3,0,0.6,0,0.8-0.1c0.3-0.1,0.5-0.2,0.7-0.4s0.4-0.3,0.5-0.5c0.1-0.1,0.1-0.1,0.2-0.1
						c0.1,0,0.1,0,0.2,0.1c0,0,0.1,0.1,0.1,0.2s0,0.1-0.1,0.2c-0.3,0.3-0.6,0.6-1,0.9C386.1,119.8,385.6,120,385.1,120z"/>
					<path class="st1" d="M394.2,113.2c0.5,0,1,0.1,1.3,0.3c0.3,0.2,0.6,0.5,0.7,0.9c0.2,0.4,0.2,0.8,0.2,1.2v4c0,0.1,0,0.1-0.1,0.2
						c-0.1,0.1-0.1,0.1-0.2,0.1c-0.1,0-0.1,0-0.2-0.1c0-0.1-0.1-0.1-0.1-0.2v-3.9c0-0.4-0.1-0.7-0.2-1c-0.1-0.3-0.3-0.5-0.6-0.7
						c-0.3-0.2-0.6-0.3-1.1-0.3c-0.4,0-0.7,0.1-1.1,0.3c-0.4,0.2-0.7,0.4-0.9,0.7c-0.2,0.3-0.4,0.6-0.4,1v3.9c0,0.1,0,0.1-0.1,0.2
						c-0.1,0.1-0.1,0.1-0.2,0.1c-0.1,0-0.1,0-0.2-0.1c0-0.1-0.1-0.1-0.1-0.2v-5.9c0-0.1,0-0.1,0.1-0.2c0.1-0.1,0.1-0.1,0.2-0.1
						c0.1,0,0.1,0,0.2,0.1c0,0.1,0.1,0.1,0.1,0.2v1.3l-0.3,0.6c0-0.3,0.1-0.6,0.2-0.9c0.2-0.3,0.4-0.5,0.6-0.8
						c0.3-0.2,0.6-0.4,0.9-0.5C393.6,113.2,393.9,113.2,394.2,113.2z"/>
					<path class="st1" d="M400,113.3h3c0.1,0,0.1,0,0.2,0.1c0,0.1,0.1,0.1,0.1,0.2c0,0.1,0,0.1-0.1,0.2c0,0-0.1,0.1-0.2,0.1h-3
						c-0.1,0-0.1,0-0.2-0.1c-0.1-0.1-0.1-0.1-0.1-0.2c0-0.1,0-0.1,0.1-0.2C399.9,113.4,400,113.3,400,113.3z M401.3,111.4
						c0.1,0,0.1,0,0.2,0.1c0,0.1,0.1,0.1,0.1,0.2v6.7c0,0.3,0,0.5,0.1,0.6c0.1,0.1,0.2,0.2,0.3,0.3c0.1,0,0.2,0.1,0.3,0.1
						c0.1,0,0.1,0,0.2,0c0,0,0.1,0,0.2,0c0.1,0,0.1,0,0.2,0.1c0,0,0.1,0.1,0.1,0.2c0,0.1,0,0.1-0.1,0.2c-0.1,0.1-0.2,0.1-0.4,0.1
						c-0.1,0-0.1,0-0.3,0c-0.1,0-0.3,0-0.4-0.1c-0.2-0.1-0.3-0.2-0.4-0.4c-0.1-0.2-0.2-0.5-0.2-0.9v-6.8c0-0.1,0-0.1,0.1-0.2
						C401.2,111.5,401.3,111.4,401.3,111.4z"/>
				</g>
			</g>
		</g>
	</g>
	<g>
		<circle class="st2" cx="91.3" cy="73.9" r="4.8"/>
		<g>
			<path class="st1" d="M35.2,37.3C49,17.7,76,8.6,99,15.6c11.5,3.4,21.7,10.4,29.4,19.5c20.2,23.6,20.1,59.1-1.6,81.8
				c-10.3,11-24.9,17.7-40,18.6c-14.9,0.9-30.1-4-41.5-13.7c42.9,29.8,100.4-1.3,96-54.4c-1.2-11.6-5.9-22.9-13.6-31.7
				c-15.3-17.7-41.4-24.4-63.6-17.3c-5.5,1.7-10.8,4.3-15.7,7.5c-4.8,3.2-9.2,7.2-13.1,11.6L35.2,37.3L35.2,37.3z"/>
			<g>
				<g>
					<g>
						<path class="st0" d="M74.3,51.3c-1.3,0-2.7-0.2-4-0.7c-3-1.1-5.5-3.2-6.9-6.1l1.7-0.9c1.2,2.4,3.3,4.3,5.8,5.2
							c2.5,0.9,5.2,0.7,7.6-0.4c4.9-2.4,6.9-8.5,4.4-13.5l1.7-0.9c3,6,0.6,13.2-5.3,16.1C77.8,50.9,76,51.3,74.3,51.3z"/>
					</g>
					<path class="st0" d="M53.6,77.4c-0.9,0-1.8-0.1-2.7-0.3l0.4-1.9c0.7,0.2,1.5,0.2,2.2,0.2c4.6,0,8.8-3.1,9.8-7.7
						c0.6-2.6,0.1-5.2-1.4-7.5c-1.5-2.2-3.8-3.8-6.4-4.4L56,54c3.2,0.7,5.9,2.5,7.6,5.2c1.8,2.7,2.4,5.9,1.7,8.9
						C64.1,73.7,59.1,77.4,53.6,77.4z"/>
					<path class="st0" d="M68.7,107.3l-1.2-1.5c4.4-3.5,5.1-9.9,1.7-14.1c-1.7-2.1-4-3.3-6.7-3.6c-2.7-0.2-5.3,0.6-7.4,2.3l-1.2-1.5
						c2.5-2,5.6-3,8.8-2.7c3.2,0.3,6,1.8,8,4.3C74.8,95.5,73.9,103.1,68.7,107.3z"/>
					<path class="st0" d="M79.6,112.4c-0.1-6.7,5.2-12.1,11.8-12.2c0,0,0.1,0,0.1,0c6.5,0,11.8,5.4,11.8,12l-1.9,0
						c0-5.6-4.5-10.1-9.9-10.1c0,0,0,0-0.1,0c-5.5,0-9.9,4.6-9.8,10.2L79.6,112.4z"/>
					<path class="st0" d="M114.1,106.8c-5.2-4.1-6.2-11.7-2.2-16.8c2-2.5,4.8-4.1,8-4.4c3.2-0.3,6.3,0.6,8.9,2.6l-1.2,1.5
						c-2.1-1.7-4.8-2.4-7.5-2.2c-2.7,0.3-5,1.6-6.7,3.7c-3.4,4.3-2.5,10.6,1.9,14.1L114.1,106.8z"/>
					<path class="st0" d="M128.5,76.8c-2.2,0-4.4-0.6-6.3-1.7c-2.7-1.7-4.7-4.3-5.4-7.3c-1.5-6.4,2.6-12.8,9.1-14.3l0.4,1.9
						c-5.5,1.3-8.9,6.7-7.6,12c0.6,2.6,2.2,4.7,4.5,6.1c2.3,1.4,5,1.8,7.7,1.2l0.4,1.9C130.4,76.6,129.4,76.8,128.5,76.8z"/>
					<path class="st0" d="M107.4,51c-1.7,0-3.4-0.4-5-1.1c-5.9-2.8-8.4-10-5.5-16l1.8,0.8c-2.4,5.1-0.3,11.1,4.6,13.4
						c2.4,1.1,5.1,1.2,7.6,0.3c2.5-0.9,4.5-2.8,5.7-5.3l1.8,0.8c-1.4,2.9-3.8,5.1-6.8,6.2C110.1,50.8,108.7,51,107.4,51z"/>
					<g>
						<path class="st0" d="M74.2,47.6c-0.9,0-1.8-0.2-2.7-0.5c-2.1-0.7-3.8-2.3-4.8-4.3l0.8-0.4c0.9,1.8,2.4,3.2,4.3,3.8
							c1.9,0.7,3.9,0.5,5.6-0.3c3.6-1.8,5.1-6.3,3.3-10l0.8-0.4c2,4.2,0.4,9.2-3.6,11.2C76.6,47.3,75.4,47.6,74.2,47.6z"/>
					</g>
					<g>
						<path class="st0" d="M53.6,73.8c-0.6,0-1.2-0.1-1.9-0.2l0.2-0.8c2,0.4,4,0.1,5.7-1c1.7-1,2.8-2.7,3.3-4.6
							c0.4-1.9,0.1-3.9-1-5.5c-1.1-1.7-2.8-2.8-4.7-3.2l0.2-0.8c2.2,0.5,4.1,1.8,5.3,3.6c1.2,1.9,1.6,4.1,1.2,6.2
							c-0.5,2.1-1.8,4-3.6,5.1C56.7,73.3,55.1,73.8,53.6,73.8z"/>
					</g>
					<g>
						<path class="st0" d="M66.4,104.4l-0.5-0.7c3.2-2.6,3.8-7.3,1.2-10.4c-2.5-3.1-7.2-3.6-10.5-1l-0.5-0.7
							c3.6-2.9,8.8-2.4,11.7,1.1C70.6,96.3,70,101.5,66.4,104.4z"/>
					</g>
					<g>
						<path class="st0" d="M83.3,112.3c0-4.6,3.6-8.4,8.1-8.5c0,0,0,0,0.1,0c2.2,0,4.2,0.9,5.8,2.4c1.6,1.6,2.4,3.7,2.4,5.9l-0.9,0
							c0-2-0.8-3.9-2.2-5.3c-1.4-1.4-3.2-2.2-5.1-2.2c0,0,0,0-0.1,0c-4,0-7.3,3.4-7.3,7.6L83.3,112.3z"/>
					</g>
					<g>
						<path class="st0" d="M116.4,104c-1.8-1.4-2.9-3.4-3.2-5.6c-0.3-2.2,0.3-4.4,1.7-6.1c2.8-3.6,8-4.1,11.7-1.3l-0.5,0.7
							c-3.3-2.6-8-2.1-10.5,1.1c-1.2,1.5-1.7,3.5-1.5,5.4c0.3,2,1.3,3.7,2.9,5L116.4,104z"/>
					</g>
					<g>
						<path class="st0" d="M128.5,73.1c-1.5,0-3-0.4-4.3-1.2c-1.9-1.1-3.2-3-3.7-5.1s-0.1-4.3,1.1-6.2c1.2-1.9,3-3.2,5.2-3.7
							l0.2,0.8c-2,0.5-3.6,1.6-4.7,3.3c-1.1,1.7-1.4,3.6-1,5.6c0.4,1.9,1.6,3.5,3.3,4.5c1.7,1,3.7,1.3,5.7,0.9l0.2,0.8
							C129.8,73,129.2,73.1,128.5,73.1z"/>
					</g>
					<g>
						<path class="st0" d="M107.4,47.3c-1.2,0-2.3-0.2-3.4-0.8c-4.1-1.9-5.8-6.9-3.8-11.1l0.8,0.4c-1.8,3.8-0.3,8.2,3.4,10
							c3.7,1.7,8.1,0.1,9.9-3.7l0.8,0.4C113.5,45.5,110.5,47.3,107.4,47.3z"/>
					</g>
				</g>
				<g>
					<path class="st0" d="M112.9,63.2c-0.2,0.3-0.3,0.7-0.5,1c1.3,2.9,2,6.1,2,9.1c0.3,0.2,0.6,0.5,0.9,0.7
						C115.3,70.4,114.5,66.7,112.9,63.2z"/>
					<path class="st0" d="M69.9,64.2c-0.2-0.3-0.3-0.7-0.5-1c-1.6,3.4-2.5,7.1-2.4,10.9c0.3-0.2,0.6-0.5,0.9-0.7
						C67.9,70.2,68.6,67.1,69.9,64.2z"/>
					<path class="st0" d="M96.8,51.2c3.1,0.8,6.1,2.2,8.6,4.2c0.4-0.1,0.7-0.2,1.1-0.2c-3-2.5-6.5-4.2-10.3-5
						C96.4,50.5,96.6,50.8,96.8,51.2z"/>
					<path class="st0" d="M76.9,55.3c0.8-0.6,1.7-1.2,2.6-1.7c1.9-1.1,4-1.9,6-2.4c0.2-0.3,0.3-0.7,0.5-1c-2.4,0.5-4.7,1.4-7,2.7
						c-1.2,0.7-2.2,1.4-3.2,2.2C76.2,55.1,76.5,55.2,76.9,55.3z"/>
					<path class="st0" d="M111.8,84.5c-1.4,2.7-3.3,5.1-5.7,7.1c0,0.4,0,0.8,0,1.1c3-2.3,5.3-5.3,6.9-8.5
						C112.5,84.4,112.1,84.5,111.8,84.5z"/>
					<path class="st0" d="M95.6,96.6c-1.5,0.3-3,0.4-4.5,0.4c-1.6,0-3.1-0.2-4.6-0.5c-0.3,0.2-0.6,0.5-0.9,0.7
						c1.8,0.4,3.6,0.6,5.5,0.6c1.8,0,3.6-0.2,5.4-0.6C96.2,97.1,95.9,96.9,95.6,96.6z"/>
					<path class="st0" d="M76.2,91.6c-2-1.7-3.8-3.8-5.2-6.2c-0.2-0.3-0.4-0.6-0.5-0.9c-0.4-0.1-0.7-0.2-1.1-0.3
						c0.3,0.6,0.5,1.1,0.9,1.6c1.6,2.7,3.6,5.1,6,6.9C76.2,92.4,76.2,92,76.2,91.6z"/>
				</g>
				<g>
					<g>
						<path class="st0" d="M91.1,70.2c-4.4,0-9.1-2.8-9.4-8.9c0-0.2,0-0.3,0-0.5c0-8.4,8.3-18.8,8.6-19.3l0.8-1l0.8,1
							c0.4,0.4,8.6,10.9,8.6,19.3c0,0.2,0,0.3,0,0.5C100.3,67.4,95.5,70.2,91.1,70.2z M91.1,43.8c-2,2.8-7.4,10.8-7.4,17.1
							c0,0.1,0,0.3,0,0.4c0.2,4.8,4,7,7.4,7c3.5,0,7.3-2.2,7.4-7c0-0.1,0-0.3,0-0.4C98.6,54.6,93.1,46.6,91.1,43.8z"/>
					</g>
					<g>
						<path class="st0" d="M80.9,75.3c-1.8,0-3.7-0.6-5.5-1.9c-0.1-0.1-0.2-0.2-0.4-0.3c-6.5-5.2-9.6-18.2-9.7-18.8l-0.3-1.2l1.2,0
							c0.6,0,13.9,0.1,20.5,5.3c0.1,0.1,0.2,0.2,0.4,0.3c4.6,4,3.8,9.5,1.1,12.9C86.6,73.7,83.9,75.3,80.9,75.3z M67.6,55.1
							c0.9,3.3,3.8,12.6,8.7,16.5l0,0c0.1,0.1,0.2,0.2,0.3,0.2c3.9,2.9,8,1.3,10.1-1.4c2.2-2.7,2.8-7-0.9-10.2
							c-0.1-0.1-0.2-0.2-0.3-0.3C80.7,56,71,55.3,67.6,55.1z"/>
					</g>
					<g>
						<path class="st0" d="M76.9,86.3c-7.7,0-16.7-4.3-17.1-4.5l-1.1-0.5l0.8-1c0.4-0.4,8.8-10.8,16.9-12.7c0.2,0,0.3-0.1,0.5-0.1
							c6-1.1,9.8,2.9,10.8,7.2c1,4.2-0.7,9.5-6.6,11.1c-0.2,0-0.3,0.1-0.5,0.1l0,0C79.4,86.2,78.2,86.3,76.9,86.3z M61.8,80.5
							c3.2,1.4,12.2,4.9,18.3,3.5c0.1,0,0.3-0.1,0.4-0.1c4.7-1.2,6-5.4,5.2-8.8c-0.8-3.4-3.8-6.6-8.5-5.7c-0.1,0-0.3,0.1-0.4,0.1
							C70.6,70.9,64,78,61.8,80.5z"/>
					</g>
					<g>
						<path class="st0" d="M76.6,103.8l-0.3-1.2c-0.1-0.6-3-13.6,0.6-21.1c0.1-0.1,0.1-0.3,0.2-0.4c2.9-5.4,8.4-5.8,12.3-3.9
							c3.9,1.9,7,6.5,4.6,12.1c-0.1,0.1-0.1,0.3-0.2,0.4c-3.6,7.5-15.6,13.4-16.2,13.6L76.6,103.8z M85.2,78.1
							c-2.4,0-4.8,1.1-6.2,3.9c-0.1,0.1-0.1,0.2-0.2,0.4C76,88,77.4,97.6,78,101c3-1.6,11.4-6.5,14.1-12.1l0,0
							c0.1-0.1,0.1-0.2,0.2-0.4c1.9-4.4-0.5-8.1-3.6-9.6C87.6,78.4,86.4,78.1,85.2,78.1z"/>
					</g>
					<g>
						<path class="st0" d="M105.5,103.9l-1.1-0.5c-0.5-0.2-12.5-6.1-16.1-13.7c-0.1-0.1-0.1-0.3-0.2-0.4c-2.4-5.6,0.7-10.2,4.6-12.1
							c3.9-1.9,9.5-1.4,12.3,4c0.1,0.1,0.1,0.3,0.2,0.4l0,0c3.6,7.5,0.7,20.6,0.6,21.1L105.5,103.9z M97,78.1
							c-1.2,0-2.4,0.3-3.5,0.8c-3.1,1.5-5.6,5.1-3.7,9.5c0.1,0.1,0.1,0.2,0.2,0.4c2.7,5.6,11,10.5,14.1,12.2c0.6-3.4,2-13-0.7-18.6
							l0,0c-0.1-0.1-0.1-0.2-0.2-0.4C101.8,79.2,99.4,78.1,97,78.1z"/>
					</g>
					<g>
						<path class="st0" d="M105.3,86.3c-1.3,0-2.5-0.1-3.6-0.4c-0.2,0-0.3-0.1-0.5-0.1c-5.9-1.6-7.5-6.9-6.6-11.1
							c1-4.2,4.8-8.3,10.8-7.1c0.2,0,0.3,0.1,0.5,0.1l0,0c8.1,1.9,16.5,12.3,16.9,12.7l0.8,1l-1.1,0.5C122,82.1,113,86.3,105.3,86.3
							z M103.5,69.3c-3.8,0-6.2,2.8-6.9,5.8c-0.8,3.4,0.5,7.6,5.2,8.8c0.1,0,0.3,0.1,0.4,0.1c6.1,1.4,15.1-2.1,18.3-3.4
							c-2.3-2.6-8.9-9.7-15-11.1c-0.1,0-0.3-0.1-0.4-0.1C104.5,69.4,104,69.3,103.5,69.3z"/>
					</g>
					<g>
						<path class="st0" d="M101.3,75.3c-3,0-5.6-1.6-7.3-3.7c-2.7-3.4-3.5-8.9,1.2-12.9c0.1-0.1,0.2-0.2,0.4-0.3
							c6.5-5.2,19.9-5.2,20.5-5.2l1.2,0l-0.3,1.2c-0.1,0.6-3.2,13.5-9.8,18.7c-0.1,0.1-0.2,0.2-0.4,0.3
							C104.9,74.8,103.1,75.3,101.3,75.3z M114.7,55.2c-3.4,0.1-13.1,0.9-18,4.8l0,0c-0.1,0.1-0.2,0.2-0.3,0.3
							c-3.7,3.1-3,7.5-0.9,10.2c2.1,2.7,6.2,4.3,10.1,1.5c0.1-0.1,0.2-0.2,0.3-0.2C110.9,67.7,113.8,58.5,114.7,55.2z"/>
					</g>
				</g>
				<g>
					<g>
						<path class="st0" d="M91.2,114.5c-14.1,0-27.8-7.3-35.3-20.4c-11.2-19.4-4.5-44.4,14.9-55.6c9.4-5.4,20.4-6.9,30.9-4.1
							c10.5,2.8,19.3,9.6,24.7,19c5.4,9.4,6.9,20.4,4.1,30.9c-2.8,10.5-9.6,19.3-19,24.7C105.1,112.7,98.1,114.5,91.2,114.5z
							 M91.1,35.2c-6.7,0-13.3,1.8-19.2,5.2C53.4,51,47.1,74.6,57.7,93c7.1,12.4,20.1,19.3,33.5,19.3c6.5,0,13.2-1.7,19.2-5.2
							c8.9-5.2,15.3-13.5,18-23.4c2.7-9.9,1.3-20.3-3.9-29.3c-5.2-8.9-13.5-15.3-23.4-18C97.8,35.6,94.4,35.2,91.1,35.2z"/>
					</g>
					<g>
						<path class="st0" d="M91.2,117.4c-3.8,0-7.6-0.5-11.4-1.5c-11.2-3-20.6-10.2-26.5-20.3C47.6,85.5,46,73.7,49,62.5
							C52,51.2,59.2,41.8,69.3,36c20.8-12,47.5-4.9,59.5,16c5.8,10.1,7.4,21.8,4.4,33.1c-3,11.2-10.2,20.6-20.3,26.5
							C106.2,115.4,98.7,117.4,91.2,117.4z M69.8,36.8c-9.9,5.7-17,14.9-19.9,25.9c-3,11-1.4,22.5,4.3,32.4
							c5.7,9.9,14.9,17,25.9,19.9c11,3,22.5,1.4,32.4-4.3c9.9-5.7,17-14.9,19.9-25.9c3-11,1.4-22.5-4.3-32.4
							C116.3,32,90.2,25,69.8,36.8L69.8,36.8z"/>
					</g>
				</g>
			</g>
		</g>
		<g>
			<path class="st3" d="M13.8,51.3c0.2,0.5,0.5,1.1,0.6,1.6c0.9,2.4,1,5.1,0.4,8.2c-0.7,2.5-0.2,5.5,2.2,6.3
				c0.6,0.2,1.4,0.3,2.1,0.3c1,0,2.1-0.2,2.7-0.8c1.1-1.3,0.5-3.4,0.1-4.9l0,0c-0.2-0.5-0.4-1.1-0.6-1.6c-0.3-0.6-0.5-1.3-0.7-2
				c-0.9-2.7-0.1-4.9,1.5-7.4c0.9-1.1,1.8-3,1.3-4.3c-0.3-0.8-0.9-1.3-1.9-1.5c-2.9-0.7-5.5-0.2-7.2,1.2c-1.1,0.9-1.6,1.9-1.3,2.8
				C13.2,49.9,13.5,50.6,13.8,51.3z"/>
			<g>
				<path class="st2" d="M21.1,58.2c-1.1-2.6,0.1-4.9,1.5-6.8c1.5-1.6,2.9-4.2,1.2-6.2c-0.5-0.6-1.3-1-2-1.2
					c-1.4-0.4-2.8-0.6-4.3-0.4c-2.5,0.2-5.6,2-6,4.7c-0.1,1.2,0.5,2.3,1,3.2c1.9,3.1,2.9,5.9,2.2,9.5c-0.7,2.5-0.6,5.8,2,7.1
					c1.8,0.8,4.6,1.1,6.1-0.4c1-1.1,1-2.8,0.6-4.2C23,61.6,21.8,60.1,21.1,58.2z M21.9,66.9c-1,1.1-3.4,0.9-4.8,0.5
					c-2.5-0.8-2.8-4-2.2-6.2c0.5-2.7,0.5-5.6-0.4-8.2c-0.4-1.2-1.1-2.5-1.4-3.7c-0.3-1.1,0.5-2.1,1.3-2.8c1.9-1.6,4.7-1.7,7.1-1.2
					c3.1,0.7,2,3.9,0.6,5.7c-1.5,2.4-2.4,4.6-1.5,7.4c0.3,1.2,0.9,2.4,1.3,3.6C22.4,63.6,23,65.6,21.9,66.9z"/>
				<g>
					<path class="st2" d="M23,43.4c1,0.2,2-0.9,2.2-2.4s-0.4-2.8-1.4-2.9c-1-0.2-2,0.9-2.2,2.4C21.4,41.9,22,43.2,23,43.4z
						 M19.2,42.5c0.7,0,1.2-0.8,1.2-1.7c0-1-0.5-1.7-1.2-1.8c-0.7,0-1.2,0.8-1.2,1.7C18,41.7,18.5,42.5,19.2,42.5z M16.3,42.8
						c0.5,0,0.8-0.6,0.8-1.3c-0.1-0.7-0.5-1.2-1-1.2c-0.5,0-0.8,0.6-0.8,1.3C15.4,42.3,15.9,42.8,16.3,42.8z M13.9,43.9
						c0.4-0.1,0.7-0.7,0.5-1.3c-0.1-0.6-0.6-1.1-1-1c-0.4,0.1-0.7,0.7-0.5,1.3S13.5,44,13.9,43.9z M11.4,43.7
						c-0.3,0.1-0.4,0.5-0.4,0.9c0.1,0.4,0.4,0.7,0.7,0.6c0.3-0.1,0.4-0.5,0.4-0.9C12,43.9,11.7,43.6,11.4,43.7z"/>
				</g>
			</g>
		</g>
		<g>
			<path class="st3" d="M25.4,77.5c0.9,1.4,3.3,2,5.1,2c0.2,0,0.4,0,0.5,0c3.1-0.3,4.6-3.8,4.5-6.9c0.1-3.8,1.1-7.1,2.8-9.7
				c0.4-0.6,0.8-1.2,1.2-1.8c0.6-0.7,1.1-1.5,1.5-2.3c0.6-1.1,0.3-2.3-0.8-3.8c-1.6-2.2-4.7-3.4-8.3-3.4c0,0,0,0,0,0
				c-1.3,0-2.2,0.4-2.7,1.2c-1,1.5-0.4,3.9,0.3,5.5c1.2,3.4,1.5,6.3-0.3,9.2c-0.4,0.8-0.9,1.5-1.4,2.2c-0.4,0.6-0.8,1.1-1.2,1.7
				C25.7,73.4,24.5,75.6,25.4,77.5z"/>
			<g>
				<path class="st1" d="M37.2,50.8c-1.7-0.6-3.5-0.8-5.3-0.7c-0.9,0-2,0.3-2.8,0.9c-2.5,1.9-1.6,5.4-0.3,7.7
					c1.2,2.8,1.9,5.8-0.1,8.6c-1.3,2-3.2,3.5-4.3,5.7c-0.8,1.5-1.4,3.6-0.4,5.2c1.3,2.3,4.8,2.7,7.2,2.2c3.5-0.8,4.5-4.8,4.4-7.9
					c0.1-3.3,1.4-6.6,3.6-9c1.4-1.7,3.4-3.1,3.8-5.4C43.4,54.7,40.2,51.7,37.2,50.8z M41,58.8c-0.7,1.4-1.9,2.7-2.7,4
					c-1.9,2.9-2.7,6.3-2.8,9.7c0.1,2.9-1.1,6.6-4.4,6.9c-1.7,0.1-4.6-0.4-5.6-1.9c-0.9-1.9,0.3-4.1,1.3-5.9c0.8-1.3,1.9-2.5,2.6-3.9
					c1.9-3.1,1.4-6.1,0.3-9.3c-1.2-2.6-1.6-6.7,2.3-6.7c3,0,6.3,0.9,8.2,3.4C41,56.1,41.7,57.5,41,58.8z"/>
				<g>
					<path class="st1" d="M33.2,45.9c0.1-1.8-0.8-3.4-2-3.5c-1.2-0.1-2.4,1.3-2.5,3.1c-0.1,1.8,0.8,3.4,2,3.5
						C32,49.1,33.1,47.7,33.2,45.9z M37.4,47.2c0.3-1.2-0.2-2.2-1-2.4c-0.8-0.2-1.6,0.6-1.9,1.8c-0.3,1.2,0.2,2.2,1,2.4
						C36.3,49.2,37.2,48.4,37.4,47.2z M40.4,49c0.3-0.8,0-1.6-0.6-1.8c-0.6-0.2-1.2,0.4-1.5,1.2c-0.3,0.8,0,1.6,0.6,1.8
						C39.5,50.4,40.1,49.8,40.4,49z M43,51.3c0.3-0.7,0.2-1.5-0.3-1.7s-1.2,0.2-1.5,0.9S41,52,41.5,52.2C42,52.4,42.7,52,43,51.3z
						 M43.5,53.2c-0.2,0.5-0.2,1,0.2,1.1c0.3,0.2,0.8-0.1,1-0.6c0.2-0.5,0.2-1-0.2-1.1C44.2,52.5,43.7,52.7,43.5,53.2z"/>
				</g>
			</g>
		</g>
		<g>
			<path class="st3" d="M31.4,106.3c-0.6-0.4-1.2-0.8-1.7-1.1c-0.7-0.5-1.5-0.9-2.2-1.5c-2.8-2-3.6-4.8-3.8-8.4
				c0.1-1.8-0.4-4.2-1.9-5.2c-0.8-0.6-1.8-0.6-3-0.1c-3.3,1.4-5.6,3.7-6.3,6.4c-0.5,1.8-0.2,3,0.7,3.8c0.7,0.6,1.5,1,2.3,1.5
				c0.6,0.4,1.3,0.7,1.8,1.1c2.6,1.7,4.7,4.4,6.3,7.8c0.9,2.6,3.1,4.9,5.6,4.9c0.4,0,0.8-0.1,1.2-0.2c1.6-0.5,4.2-2.2,4.4-4l0,0
				C35,109.2,32.9,107.5,31.4,106.3z"/>
			<g>
				<path class="st1" d="M33.9,106.9c-1.8-1.6-4.2-2.2-6.1-3.6c-2.9-1.8-3.5-4.9-3.4-7.9c0.3-2.6-0.2-6.3-3.3-7
					c-1-0.3-2.1-0.1-2.9,0.2c-1.7,0.6-3.2,1.5-4.6,2.7c-2.4,2-4.2,6-2.6,9c0.8,1.2,2.2,2,3.4,2.5c4.1,1.7,7.1,3.8,9.1,7.9
					c1.1,2.9,3.6,6.2,7.1,5.6c2.4-0.4,5.4-2.2,5.7-4.8C36.6,109.6,35.3,108,33.9,106.9z M34.8,111.3c-0.3,1.8-2.8,3.4-4.4,4
					c-3.1,1-5.7-1.9-6.7-4.6c-1.4-3.1-3.5-6-6.4-7.9c-1.3-0.9-2.9-1.7-4.1-2.7c-1.1-0.9-1-2.4-0.7-3.7c0.8-3,3.5-5.1,6.3-6.3
					c3.6-1.5,4.8,2.4,4.7,5.2c0.2,3.4,0.9,6.3,3.9,8.5c1.2,1,2.7,1.7,3.9,2.6C32.9,107.6,34.9,109.3,34.8,111.3z"/>
				<g>
					<path class="st1" d="M18.9,87.1c1.1-0.6,1.3-2.3,0.5-4c-0.8-1.6-2.4-2.5-3.5-1.9c-1.1,0.6-1.3,2.3-0.5,4
						C16.2,86.8,17.8,87.6,18.9,87.1z M14.5,89c0.7-0.5,0.6-1.6,0-2.6c-0.7-1-1.8-1.4-2.4-0.9c-0.7,0.5-0.6,1.6,0,2.6
						C12.7,89,13.8,89.4,14.5,89z M11.8,91.3c0.5-0.4,0.4-1.2-0.2-1.9c-0.6-0.7-1.4-0.9-1.8-0.5c-0.5,0.4-0.4,1.2,0.2,1.9
						C10.6,91.5,11.4,91.7,11.8,91.3z M10.2,94.2c0.4-0.4,0.2-1.2-0.4-1.7S8.4,91.9,8,92.3c-0.4,0.4-0.2,1.2,0.4,1.7
						S9.8,94.6,10.2,94.2z M7.6,95.8c-0.2,0.3-0.1,0.8,0.3,1.1C8.3,97.2,8.8,97.3,9,97s0.1-0.8-0.3-1.1C8.3,95.6,7.8,95.5,7.6,95.8z
						"/>
				</g>
			</g>
		</g>
		<g>
			<path class="st3" d="M46.3,106.9c-1.7-2.6-2.7-5.2-2.8-7.7c0-0.6,0-1.2,0-1.7c0-0.8,0-1.5-0.1-2.2c-0.2-1.2-1.3-1.7-1.9-1.9
				c-1.2-0.5-2.6-0.5-4.1-0.1c-1.2,0.3-2.3,0.9-3.4,1.7c-1.1,0.7-1.5,1.9-1,2.9c0.5,1.2,1.7,2.1,2.7,2.7c2.4,1.7,4,3.4,4.2,6.2
				c0.1,0.8,0.1,1.7,0.1,2.5l0,0.4c0,1.3,0.2,3.1,1,4.4c0.3,0.5,0.7,0.9,1.1,1.1c0.3,0.1,0.6,0.2,0.9,0.2c1.3,0,2.9-0.8,3.8-1.6l0,0
				C48.6,112,47.9,108.9,46.3,106.9z"/>
			<g>
				<path class="st2" d="M46.4,106.9c-1.5-2.2-2.2-5-1.9-7.6c0.1-1.8,0.8-3.7-0.1-5.4c-1.4-2.4-4.9-2.8-7.3-2
					c-1.4,0.4-2.7,1.2-3.8,2c-0.6,0.5-1.2,1.1-1.4,1.9c-0.8,2.4,1.6,4.3,3.5,5.2c2.1,1.2,4.1,2.9,4.1,5.7c0.1,1.9-0.4,3.8-0.1,5.8
					c0.2,1.4,0.8,3,2.2,3.6c2,0.9,4.4-0.5,5.8-2C49.2,112,47.9,108.9,46.4,106.9z M46.6,113.6c-1.1,0.9-3.2,2-4.6,1.4
					c-0.4-0.2-0.8-0.6-1-1c-0.7-1.2-0.9-2.9-1-4.4c0-0.9,0-1.9-0.1-2.9c-0.2-2.9-2-4.6-4.2-6.3c-1.1-0.6-2.2-1.5-2.6-2.7
					c-0.5-1.1,0-2.2,1-2.8c1-0.8,2.2-1.3,3.4-1.7c1.4-0.4,2.8-0.4,4,0.1c0.9,0.3,1.7,0.9,1.9,1.9c0.2,1.2,0,2.7,0.1,4
					c0.1,2.8,1.3,5.4,2.8,7.7C47.7,108.8,48.7,111.8,46.6,113.6z"/>
				<g>
					<path class="st2" d="M32.1,90.5c-0.8-1.3-2.1-1.8-3-1.3c-0.9,0.5-0.9,2-0.1,3.2s2.1,1.9,3,1.3C32.8,93.2,32.8,91.7,32.1,90.5z
						 M35.5,89.4c-0.4-0.9-1.2-1.4-1.8-1.1c-0.6,0.3-0.8,1.2-0.4,2.1c0.4,0.9,1.2,1.4,1.8,1.1C35.7,91.2,35.9,90.2,35.5,89.4z
						 M38.3,89.1c-0.2-0.7-0.8-1.1-1.2-0.9c-0.5,0.2-0.6,0.8-0.4,1.5c0.2,0.7,0.8,1.1,1.2,0.9S38.5,89.8,38.3,89.1z M41.1,89.4
						c-0.1-0.6-0.6-1.1-1-1c-0.4,0.1-0.7,0.7-0.6,1.3c0.1,0.6,0.6,1.1,1,1C41,90.6,41.2,90,41.1,89.4z M42.3,90.4
						c0.1,0.4,0.4,0.7,0.7,0.7c0.3-0.1,0.5-0.4,0.4-0.9c-0.1-0.4-0.4-0.7-0.7-0.7C42.4,89.6,42.3,90,42.3,90.4z"/>
				</g>
			</g>
		</g>
	</g>
</g>
</svg>
