<svg width="143" height="38" viewBox="0 0 143 38" fill="none" xmlns="http://www.w3.org/2000/svg">
<g id="Logo">
<g id="Group 427322658">
<g id="Group 427322656">
<g id="Layer 2">
<g id="Layer 1">
<path id="Vector" d="M13.2756 0C13.0177 0.263984 12.8383 0.409278 12.7135 0.586632C12.5335 0.85892 12.3693 1.14133 12.2217 1.43247C12.0354 1.78241 11.8608 2.13848 11.6862 2.49387C11.562 2.74762 11.4461 3.00547 11.326 3.26126C11.1746 3.58391 11.0532 3.92771 10.8594 4.22102C10.7197 4.42444 10.5243 4.58333 10.2967 4.67873C9.97882 4.80424 9.61865 4.81516 9.28987 4.92021C8.7237 5.09619 8.1739 5.32539 7.60569 5.49319C7.11603 5.63026 6.68118 5.91634 6.36148 6.31175C6.08863 6.64258 5.86216 7.03208 5.52724 7.27424C5.20595 7.50753 4.78167 7.62417 4.38535 7.72103C3.91332 7.83563 3.42218 7.86905 2.9406 7.9475C2.12204 8.08393 1.30962 8.22854 0.493115 8.36155C0.15205 8.41681 0.00334552 8.60985 0.00539192 8.94887C0.00880257 9.6883 0.168421 10.3916 0.404438 11.0914C0.601574 11.6767 0.835544 12.2108 1.20117 12.7286C1.90649 13.7286 2.92764 14.1112 4.02109 14.2647C5.2803 14.4414 6.56407 14.44 7.84102 14.5144C7.97745 14.5226 8.11387 14.5232 8.2503 14.5178C8.48018 14.5089 8.59137 14.5908 8.63093 14.8411C8.67731 15.1228 8.796 15.393 8.8915 15.6651C8.99996 15.9728 9.12684 16.2743 9.22916 16.5833C9.32124 16.8643 9.3765 17.1576 9.47472 17.4352C9.65276 17.9387 9.8649 18.4298 10.0361 18.9359C10.2019 19.4271 10.3226 19.9339 10.4836 20.4271C10.6725 21.0069 10.8861 21.5792 11.0846 22.1563C11.1732 22.4134 11.2421 22.6781 11.3363 22.9339C11.4413 23.2183 11.59 23.4898 11.6719 23.7804C11.7207 23.9564 11.7141 24.1432 11.6528 24.3152C11.4884 24.7245 11.2633 25.1058 11.0893 25.5096C10.9215 25.8991 10.8076 26.3125 10.633 26.6986C10.3922 27.232 10.1002 27.7422 9.86081 28.2763C9.62138 28.8105 9.43516 29.3725 9.19437 29.9073C8.96244 30.4237 8.68277 30.9189 8.43857 31.4298C8.21005 31.9073 8.0252 32.4073 7.7694 32.8684C7.64316 33.0718 7.45637 33.2304 7.23529 33.3221C6.81578 33.496 6.3683 33.6017 5.93447 33.7416C5.41673 33.908 5.05657 34.2873 4.69845 34.6665C4.39899 34.9851 4.25438 35.3835 4.0552 35.7579C3.95557 35.9367 3.89592 36.135 3.88038 36.3391C3.86483 36.5432 3.89376 36.7483 3.96516 36.9401C4.09067 37.2607 4.51973 37.4319 4.92901 37.4326L11.9877 37.4489C12.5655 37.4489 13.1432 37.4489 13.5771 37.4489C13.8308 37.0233 13.9693 36.6509 14.2251 36.3951C14.605 36.0151 15.0832 35.7354 15.4911 35.3807C15.9686 34.966 16.3349 34.468 16.1814 33.7873C16.0928 33.3916 15.9263 33.0124 15.7878 32.6277C15.6398 32.2184 15.47 31.8091 15.3342 31.3944C15.1985 30.9796 14.9897 30.5403 14.985 30.1113C14.9754 29.2129 14.9168 28.322 15.1112 27.4073C15.2988 26.5253 15.1678 25.5751 15.1739 24.6549C15.1775 24.4308 15.1303 24.2088 15.0358 24.0056C14.9413 23.8024 14.8019 23.6233 14.6282 23.4817C14.1282 23.0527 13.5977 22.6606 13.0409 22.3084C12.3895 21.908 12.0232 21.3923 12.0764 20.6126C12.0859 20.4653 12.047 20.3002 12.1009 20.174C12.161 20.0376 12.2933 19.923 12.412 19.8186C12.4638 19.7736 12.5655 19.792 12.6337 19.7586C13.1998 19.4796 13.5771 18.9946 13.9495 18.513C14.4133 17.9148 15.032 17.5669 15.7435 17.3814C16.0361 17.305 16.1903 17.1829 16.1896 16.8732C16.1896 16.4305 16.1753 15.9864 16.2183 15.5451C16.2455 15.2681 16.3683 14.9994 16.457 14.6985C16.7735 15.0014 17.0436 15.2654 17.3213 15.5226C17.8315 15.9966 18.3786 16.4373 18.8506 16.9468C19.3226 17.4564 19.6958 18.0239 20.1282 18.5546C20.5484 19.0703 20.7565 19.6747 20.9086 20.305C20.9884 20.6351 21.0334 20.9762 21.1378 21.2975C21.3097 21.8288 21.47 22.3718 21.721 22.8664C21.9921 23.3795 22.3092 23.867 22.6685 24.3227C23.0464 24.8193 23.5553 25.1542 24.1269 25.4271C24.6985 25.6999 25.2183 26.0506 25.764 26.363C26.1733 26.5976 26.633 26.7722 26.9973 27.0662C27.6835 27.6174 28.367 28.1877 28.9543 28.8398C29.3575 29.2873 29.6058 29.8787 29.9025 30.4169C30.0164 30.6215 30.0785 30.8609 30.1528 31.0881C30.2756 31.4633 30.3957 31.8384 30.5062 32.2191C30.5744 32.4571 30.6262 32.7006 30.6794 32.9176C31.3377 32.9408 32.1392 32.202 32.1303 31.5922C32.1143 31.1443 32.0412 30.7003 31.9127 30.2709C31.7565 29.7102 31.5239 29.1713 31.3472 28.616C31.2456 28.2989 31.2047 27.9626 31.1092 27.642C30.927 27.028 30.6678 26.4346 30.5464 25.8118C30.4066 25.0956 30.367 24.3582 30.3118 23.629C30.2817 23.2334 30.3158 22.8336 30.3118 22.4359C30.3118 22.3289 30.2968 22.1979 30.236 22.1194C29.9298 21.7245 29.6153 21.3357 29.2865 20.9598C28.8363 20.4448 28.3861 19.9278 27.9072 19.4393C27.2729 18.7927 26.6112 18.1719 25.9591 17.543C25.4816 17.0812 25.0123 16.6044 24.5102 16.1685C24.0205 15.7436 23.487 15.3704 22.9843 14.9605C22.3022 14.4066 21.6132 13.8636 20.9686 13.2702C20.3701 12.7139 19.8009 12.1269 19.2633 11.5116C18.9188 11.1208 18.6364 10.6712 18.3547 10.2299C18.0893 9.81585 17.8472 9.38475 17.6221 8.9475C17.455 8.62485 17.341 8.27492 17.1855 7.94545C17.0054 7.56278 16.7865 7.19511 16.6187 6.81039C16.4509 6.42567 16.3458 5.98501 16.1623 5.59483C15.8608 4.95499 15.5095 4.33903 15.1958 3.70533C14.9099 3.1262 14.663 2.52797 14.3676 1.95499C14.0443 1.34039 13.6903 0.74284 13.2756 0Z" fill="#07C189"/>
<path id="Vector_2" d="M20.2813 37.0164C20.2977 37.0963 20.3141 37.1754 20.3311 37.2552C20.5521 37.3104 20.7732 37.4107 20.9955 37.4134C22.2118 37.4312 23.428 37.4394 24.6429 37.4134C24.9573 37.4073 25.325 37.3589 25.5706 37.1897C25.856 36.9898 26.0954 36.7313 26.2729 36.4314C26.4504 36.1316 26.5619 35.7973 26.5999 35.451C26.6845 34.7688 26.6429 34.0662 26.6108 33.3752C26.5867 33.0796 26.5076 32.7911 26.3775 32.5246C26.2281 32.1799 26.038 31.8543 25.8114 31.5546C25.4587 31.1065 25.0985 30.644 24.6606 30.2859C24.1831 29.8936 23.6708 29.513 23.0133 29.4039C22.5678 29.3302 22.1442 29.1071 21.6995 29.0628C21.1074 29.0021 20.5044 29.0478 19.8707 29.0478C19.9 28.8704 19.9246 28.7627 19.9341 28.6542C19.9737 28.1972 20.1886 27.6385 20.0023 27.305C19.7206 26.8002 20.0262 26.5376 20.1804 26.2135C20.4471 25.6481 20.8993 25.1412 21.0474 24.5567C21.2022 23.9359 21.3339 23.1924 20.6053 22.6958L20.3148 22.7265C20.0815 23.1794 19.855 23.6296 19.6204 24.0744C19.3707 24.5478 19.0828 25.0041 18.87 25.4925C18.709 25.8588 18.3802 26.1951 17.9778 26.1624C17.4457 26.1194 17.0071 26.3929 16.6429 26.6549C16.1654 26.996 15.7779 27.4966 15.4423 27.9905C15.31 28.1856 15.3059 28.6515 15.4484 28.8091C15.7063 29.0949 16.0999 29.2865 16.4716 29.4312C16.724 29.5273 16.8223 29.6406 16.8202 29.8855C16.8182 30.1303 16.8202 30.3834 16.8202 30.6324L16.9055 30.6283L16.9894 30.4775C16.9894 30.8091 16.9832 31.0819 16.9894 31.3548C16.9976 31.6153 16.9519 31.9066 17.0515 32.1297C17.2869 32.6685 17.5671 33.1867 17.8891 33.6788C18.3052 34.3063 18.2704 34.9851 18.2111 35.6692C18.1763 35.9129 18.0925 36.147 17.9648 36.3575C17.7397 36.7668 17.4785 37.1495 17.1776 37.631C17.5869 37.5628 17.8966 37.438 18.1961 37.4653C18.9 37.5294 19.2445 37.1495 19.4764 36.5737C19.6572 36.1256 20.2309 35.7552 20.7118 35.8098C20.8721 35.8282 21.0242 35.9257 21.1763 35.9946C21.3639 36.0799 21.5474 36.1733 21.6852 36.2402L20.2813 37.0164Z" fill="#07C189"/>
<path id="Vector_3" d="M28.6566 37.4054C28.6327 37.3931 28.673 37.4327 28.7105 37.4306C29.8674 37.3574 31.024 37.2815 32.1805 37.2028C32.2026 37.1993 32.2241 37.1921 32.2439 37.1816C32.6675 36.9954 33.0932 36.814 33.514 36.6223C34.0748 36.3672 34.4642 35.9115 34.8033 35.4265C35.0967 35.0136 35.3463 34.5712 35.5482 34.1066C35.7528 33.6202 35.969 33.1011 35.999 32.5861C36.0386 31.9081 35.9145 31.2185 35.834 30.5363C35.7895 30.1331 35.7117 29.7343 35.6014 29.344C35.5406 29.1339 35.3503 28.9647 35.2603 28.7587C35.1614 28.5281 34.9874 28.228 35.0652 28.0438C35.2125 27.6789 35.5202 27.3808 35.7371 27.0397C36.0577 26.5343 36.3729 26.0234 36.66 25.4981C36.824 25.1789 36.9644 24.8481 37.0802 24.5083C37.2166 24.1304 37.4029 23.7505 37.4465 23.3583C37.5488 22.4374 37.5045 21.5097 37.2419 20.6161C37.1055 20.1639 36.8763 19.7389 36.6805 19.3051C36.4602 18.816 36.2712 18.3057 35.9929 17.8508C35.6927 17.3519 35.3404 16.8863 34.9417 16.4619C34.5359 16.0377 34.1177 15.524 33.3087 15.7975C33.394 16.2593 33.5134 16.7205 33.5591 17.1891C33.6566 18.228 33.7016 19.2716 33.8026 20.3098C33.8217 20.5036 33.9799 20.7007 34.1157 20.8617C34.3265 21.1127 34.6859 21.2955 34.7814 21.5752C34.9956 22.2007 34.6668 22.9708 33.8381 22.9299C33.4138 22.9094 32.9881 22.9265 32.467 22.9265C32.5625 23.6837 32.6471 24.4135 32.748 25.1414C32.8162 25.6086 32.9015 26.0725 32.9833 26.537C32.9999 26.6023 33.0227 26.6658 33.0516 26.7266C33.158 26.9995 33.2794 27.2723 33.3687 27.5507C33.4642 27.8515 33.527 28.1646 33.6089 28.4668C33.6771 28.7171 33.7453 28.9654 33.8203 29.2137C33.9431 29.6284 34.1382 30.0357 34.1791 30.4579C34.2324 31.1034 34.2336 31.7522 34.1825 32.3979C34.1648 32.6625 34.0256 32.9395 33.8776 33.1694C33.6726 33.4818 33.4367 33.7729 33.1737 34.0384C32.5932 34.6312 31.9247 35.0786 31.0741 35.1912C30.9697 35.2048 30.8421 35.2389 30.7773 35.3112C30.5802 35.5295 30.4363 35.7976 30.2228 35.9988C29.7159 36.479 29.1839 36.934 28.6566 37.4054Z" fill="#07C189"/>
<path id="Vector_4" d="M13.2427 0.240117C13.845 0.268766 14.1131 1.46795 14.328 1.90179C14.5892 2.42975 14.8409 2.96182 15.0885 3.49592C15.5838 4.56482 16.0619 5.64191 16.5695 6.70535C17.5688 8.80494 18.6997 10.8738 20.2605 12.6194C22.6847 15.3275 26.0115 17.1044 28.4372 19.8118C29.1554 20.6126 29.8014 21.5103 30.1145 22.5403C30.4419 23.6072 30.399 24.7491 30.5777 25.8507C30.7905 27.1638 31.3151 28.4019 31.7455 29.6611C31.9399 30.2307 32.1172 30.8207 32.0709 31.423C32.0245 32.0253 31.708 32.6379 31.1554 32.876C31.0745 32.9161 30.9842 32.9335 30.8942 32.9264C30.4372 32.8644 30.4167 31.9032 30.3198 31.5717C30.1579 30.9976 29.9306 30.444 29.6425 29.9216C28.8137 28.4155 27.5579 27.3684 26.0763 26.5431C24.6991 25.7757 23.1588 25.0922 22.2345 23.7525C21.5354 22.7395 21.2973 21.4898 20.8751 20.3329C20.4116 19.0554 19.7343 17.8659 18.8723 16.8152C18.442 16.285 17.9465 15.8113 17.3976 15.4052C17.2543 15.3016 16.7154 14.8466 16.5374 14.8889C16.283 14.9489 16.401 15.571 16.3546 15.8022C16.2809 16.1605 16.1342 16.4998 15.9235 16.7988C15.4903 17.425 14.9003 17.9359 14.2986 18.3971L12.8218 19.5321C12.5524 19.7368 12.2761 19.9578 12.1308 20.2668C11.8246 20.9319 12.2829 21.7129 12.8553 22.1699C13.4276 22.6269 14.1336 22.9271 14.6063 23.4871C15.6922 24.7743 15.0892 26.6931 14.9542 28.3725C14.8577 29.589 15.0425 30.8113 15.4944 31.9448C15.8703 32.8828 16.4289 33.936 15.9664 34.8344C15.5667 35.612 14.5585 35.8917 14.079 36.6222C13.9098 36.8787 13.798 37.1993 13.5292 37.3487C13.3498 37.449 13.1349 37.449 12.9303 37.449L5.38524 37.4401C4.89138 37.4401 4.31703 37.3985 4.03735 36.9919C3.8143 36.6686 3.87091 36.2293 3.99847 35.8582C4.17889 35.348 4.47157 34.8847 4.85491 34.5027C5.23825 34.1206 5.70248 33.8295 6.21335 33.6509C6.64923 33.5022 7.13013 33.4305 7.4862 33.1386C7.78088 32.8971 7.94732 32.5383 8.10489 32.1925L11.184 25.423C11.3593 25.0369 11.5374 24.6426 11.5797 24.2211C11.6349 23.6679 11.4521 23.1222 11.2727 22.5969L8.81704 15.4162C8.69971 15.0751 8.55783 14.7013 8.23927 14.5294C7.9903 14.393 7.69357 14.4189 7.40844 14.4434C6.11785 14.556 4.78633 14.6228 3.55577 14.2156C1.57759 13.5608 0.0966855 11.6078 0.00323363 9.52391C-0.0117732 9.18898 0.0182405 8.82132 0.248801 8.5778C0.417287 8.40044 0.663536 8.322 0.901599 8.26538C2.36545 7.91681 4.0012 8.10917 5.28156 7.3179C6.14786 6.78243 6.73927 5.85337 7.66219 5.42226C8.47461 5.04231 9.45142 5.0962 10.2236 4.63849C11.0128 4.16782 11.3832 3.2906 11.7188 2.48091C11.9964 1.81652 12.2584 0.639163 12.9774 0.298098C13.0597 0.25729 13.1508 0.237378 13.2427 0.240117Z" fill="#07C189"/>
<path id="Vector_5" d="M20.3064 37.0329C20.3392 36.9884 20.3829 36.9531 20.4333 36.9306C20.7164 36.775 21.3508 36.26 21.6543 36.26C21.3733 36.0336 21.0349 35.8637 20.6748 35.8357C20.3146 35.8078 19.9326 35.9367 19.7068 36.2184C19.5513 36.4115 19.4776 36.6584 19.3392 36.8637C19.1229 37.183 18.76 37.3794 18.3842 37.4715C18.0431 37.5554 17.6243 37.6079 17.2791 37.5458C17.3385 37.3139 17.5036 37.0411 17.64 36.8323C17.8398 36.5254 18.0534 36.2239 18.155 35.8678C18.3187 35.2694 18.2949 34.6351 18.0868 34.0506C17.8821 33.5097 17.4449 33.0895 17.2355 32.5499C16.9833 31.9047 16.9004 31.2056 16.9947 30.5192L16.8583 30.6195C16.8078 30.217 16.9503 29.6127 16.4701 29.4292C16.0984 29.2873 15.7048 29.0929 15.4469 28.8071C15.305 28.6495 15.3105 28.1836 15.4408 27.9885C15.7764 27.4947 16.1638 26.996 16.6413 26.6529C17.0056 26.391 17.4442 26.1174 17.9763 26.1604C18.3787 26.1932 18.7075 25.8569 18.8685 25.4906C19.084 25.0022 19.3719 24.5458 19.6188 24.0724C19.803 23.7238 19.966 23.1584 20.2328 22.876C20.4995 22.5935 20.8262 22.7552 21.0186 23.1174C21.155 23.3753 21.1707 23.6815 21.1434 23.9721C21.0609 24.8644 20.5411 25.4435 20.1775 26.215C20.0506 26.4837 19.8467 26.6925 19.9047 27.0144C19.964 27.3555 20.0895 27.5922 20.0513 27.9537C20.0274 28.1816 19.6789 29.0888 20.0745 29.0608C21.6775 28.9455 23.3985 29.2593 24.6591 30.2887C25.097 30.6468 25.4572 31.1072 25.8099 31.5574C26.8255 32.8487 27.2635 35.8023 25.8371 36.9824C25.2451 37.4715 24.5895 37.4224 23.8719 37.4265C23.0043 37.4315 22.1366 37.4287 21.2689 37.4183C20.9906 37.4183 20.7021 37.4094 20.4504 37.2914C20.3617 37.2498 20.2675 37.1686 20.2887 37.0724C20.2922 37.0583 20.2982 37.0449 20.3064 37.0329Z" fill="#07C189"/>
<path id="Vector_6" d="M28.743 37.3938C28.6448 37.3535 29.9572 36.0684 30.0711 35.979C31.0193 35.2389 32.3372 34.9381 33.1694 34.0691C33.9197 33.2894 34.3372 32.1994 34.2431 31.1168C34.1748 30.3385 33.9634 29.5691 33.7437 28.8215C33.1864 26.9292 32.5957 25.0261 32.5193 23.0418C32.5138 23.0238 32.5133 23.0047 32.5177 22.9865C32.5221 22.9683 32.5314 22.9516 32.5445 22.9382C32.5577 22.9248 32.5742 22.9152 32.5923 22.9103C32.6104 22.9055 32.6295 22.9057 32.6476 22.9108C32.9559 22.9074 33.256 22.9231 33.5637 22.9381C33.9286 22.9531 34.3283 22.9067 34.5868 22.6509C34.9613 22.2832 34.8856 21.6959 34.5868 21.3126C34.3904 21.0615 34.1353 20.8562 33.9675 20.5847C33.6783 20.1188 33.6864 19.5356 33.6762 18.9865C33.6577 18.046 33.5575 17.1088 33.3767 16.1857C33.3542 16.0711 33.3317 15.9483 33.3767 15.8446C33.5234 15.5192 34.2315 15.8364 34.4177 15.9572C34.7369 16.1618 34.9784 16.4674 35.2055 16.7757C36.9668 19.14 38.0705 21.8917 36.9313 24.7853C36.5695 25.7253 36.0669 26.6048 35.4409 27.3938C35.2362 27.6461 35.0548 27.9586 35.106 28.2805C35.1339 28.4565 35.2287 28.6134 35.3106 28.771C35.9927 30.067 36.1673 31.5964 35.8706 33.0213C35.593 34.3501 34.9777 35.6134 33.8515 36.417C33.1216 36.9388 32.2294 37.2035 31.3522 37.3433C30.5978 37.4627 29.4716 37.6939 28.743 37.3938Z" fill="#07C189"/>
</g>
</g>
</g>
<g id="Group 427322657">
<path id="Vector_7" d="M56.6606 22.6213C56.4026 22.6032 55.61 22.5942 54.2828 22.5942C52.9557 22.5942 52.1811 22.6308 51.9592 22.7041C50.9824 25.9139 50.4292 28.228 50.2996 29.6464C50.0758 29.6785 49.8493 29.6876 49.6236 29.6735C49.1566 29.6729 48.6899 29.6452 48.226 29.5906C47.2121 29.4436 46.7051 29.3135 46.7051 29.2036C46.7051 28.4668 47.3597 26.3189 48.6688 22.7598C48.4288 22.557 48.1522 22.1374 47.839 21.5008C47.5258 20.8643 47.3692 20.3342 47.3692 19.9106C47.3692 19.8937 48.1342 19.8571 49.6642 19.8007C51.175 15.4136 52.0324 13.1 52.2363 12.8601C52.309 12.8043 52.6419 12.7164 53.2317 12.5964C53.6047 12.5087 53.9837 12.4488 54.3657 12.4173L54.3099 12.0573C54.2727 11.7988 54.2321 11.5182 54.1865 11.2124C54.1514 11.0157 54.1282 10.817 54.1172 10.6175C54.1172 10.5617 54.2727 10.4485 54.587 10.2795C55.4543 9.84507 56.4105 9.61773 57.3805 9.61536C57.5653 10.7037 57.8092 12.0911 58.1123 13.7777C58.4154 15.4643 59.0102 18.0409 59.8969 21.5076C60.7802 24.9731 61.6251 27.3881 62.4318 28.7524L62.6262 29.0904C62.6262 29.1834 62.4572 29.3405 62.1006 29.5619C61.6686 29.8229 61.2096 30.0365 60.7317 30.199C60.2272 30.389 59.694 30.4918 59.155 30.5032C58.9894 30.5032 58.5883 29.4571 57.9517 27.365C57.3152 25.2728 56.8848 23.6916 56.6606 22.6213ZM55.9998 19.7737C55.3734 17.1182 55.0354 15.6338 54.9859 15.3206C54.9301 15.008 54.8845 14.8508 54.8473 14.8508C54.8101 14.8508 54.7645 14.888 54.7087 14.9607C54.5431 15.275 54.2344 16.031 53.7826 17.2286C53.3308 18.4262 53.0407 19.256 52.9123 19.7179C54.9515 19.7179 55.9807 19.7365 55.9998 19.7737Z" fill="#005B40"/>
<path id="Vector_8" d="M71.346 16.9515L71.2903 12.8601C71.2903 11.716 71.3173 11.1177 71.3731 11.062C71.6938 10.7797 72.0639 10.5591 72.4648 10.4113C72.9229 10.2104 73.4163 10.1024 73.9165 10.0936C74.3778 10.0936 74.6094 10.1308 74.6094 10.2052C74.4606 13.2662 74.3868 16.52 74.388 19.9664C74.3891 23.4128 74.4454 25.4689 74.557 26.1347C74.6854 27.1295 74.9896 27.8669 75.4695 28.3469C75.4695 28.5311 75.0859 28.82 74.3221 29.2172C73.5582 29.6143 72.9059 29.812 72.3718 29.812C72.3161 29.812 72.2333 29.7377 72.1234 29.5907C71.7719 29.1287 71.5595 28.5018 71.4863 27.7097C71.4863 27.6557 71.4677 27.6269 71.4322 27.6269L71.3494 27.6827C70.5743 28.7879 69.4217 29.3411 67.8918 29.3422C67.3191 29.3609 66.7508 29.2366 66.2383 28.9805C65.7258 28.7244 65.2852 28.3445 64.9563 27.8754C64.2468 26.926 63.8681 25.7702 63.8781 24.585C63.8781 22.5019 64.5237 20.7274 65.8148 19.2616C67.1059 17.7959 68.9497 17.0258 71.346 16.9515ZM71.4001 19.8565C71.4001 19.8193 71.2987 19.8007 71.0959 19.8007H70.9861C69.8042 19.8007 68.8776 20.1787 68.2061 20.9347C67.5346 21.6907 67.1966 22.6483 67.1921 23.8076C67.1658 24.4032 67.3356 24.9909 67.6755 25.4807C67.9977 25.9133 68.4866 26.1302 69.1423 26.1313C69.4565 26.1353 69.7663 26.0584 70.0421 25.908C70.318 25.7577 70.5505 25.539 70.7174 25.2728C71.114 24.7016 71.3122 24.251 71.3122 23.9209C71.3156 21.8749 71.3449 20.5201 71.4001 19.8565Z" fill="#005B40"/>
<path id="Vector_9" d="M87.3991 27.6135C86.3378 28.8945 84.8996 29.535 83.0846 29.535C81.2696 29.535 79.8455 28.9717 78.8124 27.845C77.7793 26.7184 77.2627 25.2571 77.2627 23.4613C77.2627 21.6654 77.9038 20.0729 79.1859 18.6838C80.4669 17.2924 82.1951 16.5967 84.3707 16.5967C85.2562 16.6339 85.7345 16.6879 85.8088 16.7657C85.8832 16.8434 85.9187 17.0141 85.9187 17.2912C85.9164 17.5972 85.8887 17.9024 85.8358 18.2038C86.113 18.2038 86.4679 18.3728 86.9005 18.6872C87.2929 18.9713 87.6503 19.3009 87.9652 19.669C88.2877 20.0875 88.5316 20.561 88.6851 21.0666C88.8954 21.7136 88.9982 22.3907 88.9893 23.0709C89.0204 24.7267 88.4561 26.3386 87.3991 27.6135ZM84.952 21.1275C84.5887 20.8717 84.1589 20.7273 83.715 20.7117H83.4936C83.4459 20.56 83.4276 20.4005 83.4395 20.2419C83.4384 20.009 83.4662 19.7768 83.5223 19.5507C82.7652 19.5507 82.0599 19.8915 81.4065 20.5731C80.753 21.2548 80.4257 22.2045 80.4246 23.4224C80.4246 24.86 80.8854 25.8554 81.807 26.4086C82.1568 26.63 82.6418 26.7466 83.2587 26.7466C83.8755 26.7466 84.4568 26.4626 85.001 25.8898C85.5452 25.3169 85.8173 24.4702 85.8173 23.3464C85.8173 22.2225 85.5232 21.479 84.952 21.1275Z" fill="#005B40"/>
<path id="Vector_10" d="M91.2573 25.0836L91.2016 18.8054C91.2016 17.7171 91.2387 17.1374 91.3114 17.0631C91.5142 16.8603 91.8657 16.6811 92.3626 16.524C92.8137 16.3748 93.285 16.2956 93.7602 16.2891C94.1928 16.2891 94.4091 16.3347 94.4091 16.4276C94.3502 16.9924 94.3226 17.5599 94.3263 18.1277C94.3263 18.7632 94.3449 19.0826 94.3821 19.0826C94.4044 19.0799 94.4258 19.0724 94.4449 19.0604C94.4639 19.0484 94.4799 19.0323 94.4919 19.0133L94.6727 18.7919C94.7561 18.6905 94.9307 18.5108 95.1966 18.2528C96.1261 17.3798 97.3381 16.8695 98.612 16.8146C98.7607 17.0546 98.8334 17.423 98.8334 17.9199C98.8334 18.971 98.7044 19.718 98.4464 20.1607L98.3366 20.3821L97.9766 20.3264C97.3595 20.3078 96.748 20.4482 96.2008 20.7341C95.6536 21.02 95.1891 21.4417 94.8519 21.9589C94.5561 22.3999 94.4091 22.7329 94.4091 22.9543V25.3878C94.4091 27.6005 94.3815 28.7339 94.3263 28.788C93.8092 29.2871 92.7952 29.5361 91.2844 29.5349C91.1373 29.5349 91.063 29.5079 91.063 29.4521C91.1914 28.7345 91.2562 27.2783 91.2573 25.0836Z" fill="#005B40"/>
<path id="Vector_11" d="M102.195 12.3058C102.424 12.2984 102.652 12.3398 102.864 12.4272C103.076 12.5146 103.268 12.646 103.425 12.8128C103.747 13.1672 103.915 13.6342 103.895 14.1123C103.897 14.372 103.843 14.629 103.735 14.8654C103.628 15.1019 103.47 15.312 103.273 15.4812C102.902 15.8408 102.407 16.0436 101.891 16.0473C101.665 16.0576 101.44 16.0198 101.23 15.9364C101.019 15.8531 100.829 15.7262 100.672 15.564C100.357 15.2118 100.194 14.7497 100.218 14.2779C100.216 14.0178 100.269 13.7601 100.373 13.5219C100.478 13.2836 100.631 13.0702 100.824 12.8956C101.002 12.7115 101.215 12.5646 101.45 12.4634C101.686 12.3621 101.939 12.3086 102.195 12.3058ZM103.591 19.1907L103.535 23.6707C103.518 24.7279 103.56 25.7852 103.66 26.8377C103.744 27.5154 103.986 28.164 104.365 28.7322C104.365 28.9158 103.987 29.2104 103.231 29.616C102.475 30.0216 101.828 30.2249 101.291 30.2261C101.122 30.2261 100.953 29.9506 100.792 29.3963C100.634 28.8831 100.528 28.3555 100.474 27.8213C100.429 27.3222 100.406 25.644 100.405 22.7869C100.404 19.9297 100.469 18.3722 100.599 18.1142C101.022 17.7762 101.768 17.6072 102.839 17.6072C103.263 17.6072 103.515 17.6629 103.613 17.7762L103.591 19.1907Z" fill="#005B40"/>
<path id="Vector_12" d="M109.646 22.5943L109.675 23.6167V25.719C109.675 27.6906 109.637 28.7136 109.563 28.788C109.323 29.0279 108.909 29.2127 108.319 29.3423C107.843 29.4562 107.357 29.5208 106.868 29.5349C106.489 29.5349 106.3 29.5079 106.3 29.4521C106.43 28.6218 106.495 27.2574 106.494 25.359L106.411 19.1366C106.411 17.9942 106.458 17.3746 106.55 17.2777C106.854 17.0206 107.213 16.8363 107.599 16.7386C108.051 16.5894 108.522 16.5102 108.997 16.5037C109.43 16.5037 109.646 16.5493 109.646 16.6422C109.591 17.0823 109.564 17.5254 109.563 17.9689C109.563 18.4116 109.592 18.633 109.646 18.633L109.73 18.5772C109.857 18.4068 109.995 18.2453 110.144 18.0939C110.329 17.9001 110.724 17.6416 111.327 17.3182C111.85 17.0175 112.439 16.8514 113.041 16.8349C113.475 16.8212 113.907 16.9042 114.305 17.0778C114.703 17.2514 115.057 17.5113 115.343 17.8387C115.623 18.1905 115.835 18.5918 115.966 19.0217C116.128 19.4928 116.262 19.973 116.367 20.4599C116.477 21.0457 116.551 21.6377 116.588 22.2326C116.645 23.2466 116.672 24.5372 116.671 26.1043L116.588 29.3406C116.588 29.469 116.284 29.5935 115.676 29.7141C115.194 29.8182 114.703 29.8781 114.21 29.8932L113.298 29.7546C113.478 28.1548 113.569 26.5464 113.573 24.9366C113.573 23.3784 113.472 22.2073 113.269 21.4231C113.066 20.639 112.661 20.2475 112.052 20.2486C111.515 20.2242 110.987 20.4014 110.574 20.7455C110.246 21.0073 109.993 21.3513 109.84 21.7425L109.646 22.2123V22.5943Z" fill="#005B40"/>
<path id="Vector_13" d="M129.281 21.9589L129.337 28.5125C129.358 29.8125 129.162 31.1068 128.756 32.342C128.369 33.4574 127.9 34.3243 127.346 34.9428C126.802 35.552 126.156 36.0616 125.437 36.4486C124.369 37.0686 123.159 37.4022 121.925 37.4169C121.869 37.4169 121.756 37.2784 121.587 37.0029C121.387 36.6444 121.229 36.2639 121.117 35.8689C120.977 35.4397 120.903 34.992 120.896 34.5406H121.421C121.778 34.5417 122.135 34.5094 122.486 34.4443C122.932 34.3356 123.357 34.1534 123.743 33.9052C124.242 33.6091 124.675 33.214 125.016 32.7442C125.365 32.2642 125.669 31.5539 125.928 30.6132C126.203 29.5385 126.333 28.4319 126.315 27.3228C126.315 27.2501 126.305 27.213 126.288 27.213L126.206 27.2958C125.429 28.4934 124.222 29.0922 122.582 29.0922C122.007 29.109 121.436 28.9842 120.92 28.7287C120.404 28.4732 119.959 28.0949 119.623 27.627C118.901 26.6833 118.515 25.525 118.528 24.3367C118.528 22.1251 119.238 20.2999 120.657 18.8612C122.077 17.4225 124.115 16.7031 126.77 16.7031C127.416 16.7031 127.738 16.7504 127.738 16.8417C127.795 17.1801 127.823 17.5227 127.821 17.8658L127.792 18.2798H128.097C128.687 18.2798 129.081 18.3362 129.28 18.4488L129.281 21.9589ZM126.266 19.6352L125.687 19.5524C124.505 19.5524 123.569 19.9349 122.88 20.6999C122.19 21.4649 121.844 22.4191 121.842 23.5627C121.831 24.1041 122.01 24.6324 122.349 25.0549C122.687 25.4785 123.185 25.6909 123.843 25.692C124.158 25.6956 124.47 25.6277 124.754 25.4933C125.039 25.3589 125.29 25.1616 125.487 24.9163C125.93 24.4014 126.152 23.9868 126.152 23.6725C126.155 21.5702 126.193 20.2244 126.266 19.6352Z" fill="#005B40"/>
<path id="Vector_14" d="M141.408 27.6135C140.347 28.8945 138.909 29.535 137.094 29.535C135.279 29.535 133.855 28.9717 132.822 27.845C131.787 26.7184 131.271 25.2571 131.272 23.4613C131.273 21.6654 131.914 20.0729 133.193 18.6838C134.476 17.2924 136.204 16.5967 138.38 16.5967C139.264 16.6339 139.744 16.6879 139.818 16.7657C139.892 16.8434 139.928 17.0141 139.928 17.2912C139.926 17.5972 139.898 17.9024 139.845 18.2038C140.122 18.2038 140.477 18.3728 140.91 18.6872C141.301 18.9722 141.659 19.3017 141.974 19.669C142.296 20.0879 142.54 20.5613 142.694 21.0666C142.905 21.7136 143.007 22.3907 142.999 23.0709C143.03 24.7267 142.465 26.3386 141.408 27.6135ZM138.96 21.1275C138.594 20.8707 138.162 20.7268 137.716 20.7134H137.494C137.446 20.5618 137.427 20.4023 137.439 20.2436C137.438 20.0106 137.466 19.7784 137.523 19.5524C136.766 19.5524 136.061 19.8932 135.407 20.5748C134.754 21.2565 134.427 22.2062 134.425 23.4241C134.425 24.8617 134.886 25.8571 135.808 26.4103C136.158 26.6356 136.642 26.7482 137.259 26.7482C137.876 26.7482 138.458 26.4643 139.002 25.8914C139.546 25.3185 139.818 24.4719 139.818 23.3481C139.818 22.2242 139.531 21.479 138.96 21.1275Z" fill="#005B40"/>
</g>
</g>
</g>
</svg>
