<?xml version="1.0" encoding="UTF-8"?>
<!-- Generator: visioncortex VTracer 0.6.3 -->
<svg version="1.1" xmlns="http://www.w3.org/2000/svg" width="1280" height="1280">
<path d="M0 0 C1.86 -0 3.72 -0.01 5.57 -0.01 C10.66 -0.02 15.75 -0.02 20.84 -0.01 C26.39 -0 31.93 -0.01 37.47 -0.02 C47.18 -0.03 56.89 -0.03 66.6 -0.02 C80.37 -0.01 94.13 -0.01 107.89 -0.02 C132.87 -0.04 157.84 -0.04 182.81 -0.03 C183.55 -0.03 184.29 -0.03 185.05 -0.03 C185.79 -0.03 186.53 -0.03 187.29 -0.03 C209.86 -0.02 232.43 -0.02 255 -0.02 C256.51 -0.02 258.02 -0.02 259.53 -0.02 C265.61 -0.03 271.69 -0.03 277.76 -0.03 C294.75 -0.03 311.73 -0.03 328.72 -0.03 C329.49 -0.03 330.26 -0.03 331.06 -0.03 C355.7 -0.03 380.34 -0.03 404.98 -0.02 C406.18 -0.02 406.18 -0.02 407.4 -0.02 C420.38 -0.02 433.35 -0.02 446.33 -0.01 C497.79 0 549.25 0 600.71 -0.01 C613.68 -0.02 626.65 -0.02 639.62 -0.02 C640.42 -0.02 641.21 -0.02 642.04 -0.02 C666.65 -0.03 691.27 -0.03 715.88 -0.03 C716.65 -0.03 717.43 -0.03 718.22 -0.03 C735.19 -0.03 752.15 -0.03 769.12 -0.03 C775.19 -0.03 781.26 -0.03 787.33 -0.02 C788.84 -0.02 790.35 -0.02 791.86 -0.02 C814.42 -0.02 836.99 -0.02 859.55 -0.03 C860.66 -0.03 860.66 -0.03 861.79 -0.03 C862.53 -0.03 863.26 -0.03 864.02 -0.03 C888.92 -0.04 913.82 -0.04 938.72 -0.02 C953.08 -0.01 967.43 -0.01 981.79 -0.02 C991.37 -0.03 1000.96 -0.03 1010.55 -0.01 C1016.01 -0.01 1021.47 -0 1026.94 -0.01 C1031.91 -0.02 1036.88 -0.02 1041.86 -0 C1043.64 -0 1045.43 -0 1047.21 -0.01 C1060.83 -0.07 1073.55 0.94 1086.21 6.47 C1088.49 7.5 1088.49 7.5 1091.74 8.5 C1094.3 9.38 1094.3 9.38 1097.3 11.38 C1095.96 14.37 1094.48 16.44 1092.15 18.74 C1091.51 19.37 1090.87 20.01 1090.22 20.66 C1089.53 21.33 1088.85 22 1088.14 22.7 C1087.08 23.75 1087.08 23.75 1086 24.82 C1083.75 27.05 1081.49 29.28 1079.24 31.5 C1076.97 33.74 1074.72 35.97 1072.46 38.21 C1071.06 39.6 1069.65 40.99 1068.24 42.37 C1067.6 43 1066.97 43.63 1066.32 44.28 C1065.48 45.1 1065.48 45.1 1064.62 45.95 C1063.19 47.36 1063.19 47.36 1062.3 49.38 C1061.64 49.38 1060.98 49.38 1060.3 49.38 C1060.3 50.04 1060.3 50.7 1060.3 51.38 C1058.92 53 1058.92 53 1057.3 54.38 C1056.64 54.38 1055.98 54.38 1055.3 54.38 C1055.3 55.04 1055.3 55.7 1055.3 56.38 C1053.92 58 1053.92 58 1052.3 59.38 C1051.64 59.38 1050.98 59.38 1050.3 59.38 C1050.3 60.04 1050.3 60.7 1050.3 61.38 C1048.92 63 1048.92 63 1047.3 64.38 C1046.64 64.38 1045.98 64.38 1045.3 64.38 C1045.3 65.04 1045.3 65.7 1045.3 66.38 C1043.92 68 1043.92 68 1042.3 69.38 C1041.64 69.38 1040.98 69.38 1040.3 69.38 C1040.3 70.04 1040.3 70.7 1040.3 71.38 C1038.92 73 1038.92 73 1037.3 74.38 C1036.64 74.38 1035.98 74.38 1035.3 74.38 C1035.3 75.04 1035.3 75.7 1035.3 76.38 C1033.92 78 1033.92 78 1032.3 79.38 C1031.64 79.38 1030.98 79.38 1030.3 79.38 C1030.3 80.04 1030.3 80.7 1030.3 81.38 C1028.92 83 1028.92 83 1027.3 84.38 C1026.64 84.38 1025.98 84.38 1025.3 84.38 C1025.3 85.04 1025.3 85.7 1025.3 86.38 C1023.92 88 1023.92 88 1022.3 89.38 C1021.64 89.38 1020.98 89.38 1020.3 89.38 C1020.3 90.04 1020.3 90.7 1020.3 91.38 C1018.92 93 1018.92 93 1017.3 94.38 C1016.64 94.38 1015.98 94.38 1015.3 94.38 C1015.3 95.04 1015.3 95.7 1015.3 96.38 C1013.92 98 1013.92 98 1012.3 99.38 C1011.64 99.38 1010.98 99.38 1010.3 99.38 C1010.3 100.04 1010.3 100.7 1010.3 101.38 C1008.92 103 1008.92 103 1007.3 104.38 C1006.64 104.38 1005.98 104.38 1005.3 104.38 C1005.3 105.04 1005.3 105.7 1005.3 106.38 C1003.92 108 1003.92 108 1002.3 109.38 C1001.64 109.38 1000.98 109.38 1000.3 109.38 C1000.3 110.04 1000.3 110.7 1000.3 111.38 C998.92 113 998.92 113 997.3 114.38 C996.64 114.38 995.98 114.38 995.3 114.38 C995.3 115.04 995.3 115.7 995.3 116.38 C993.92 118 993.92 118 992.3 119.38 C991.64 119.38 990.98 119.38 990.3 119.38 C990.3 120.04 990.3 120.7 990.3 121.38 C988.92 123 988.92 123 987.3 124.38 C986.64 124.38 985.98 124.38 985.3 124.38 C985.3 125.04 985.3 125.7 985.3 126.38 C983.92 128 983.92 128 982.3 129.38 C981.64 129.38 980.98 129.38 980.3 129.38 C980.3 130.04 980.3 130.7 980.3 131.38 C978.92 133 978.92 133 977.3 134.38 C976.64 134.38 975.98 134.38 975.3 134.38 C975.3 135.04 975.3 135.7 975.3 136.38 C973.92 138 973.92 138 972.3 139.38 C971.64 139.38 970.98 139.38 970.3 139.38 C970.3 140.04 970.3 140.7 970.3 141.38 C968.92 143 968.92 143 967.3 144.38 C966.64 144.38 965.98 144.38 965.3 144.38 C965.3 145.04 965.3 145.7 965.3 146.38 C963.92 148 963.92 148 962.3 149.38 C961.64 149.38 960.98 149.38 960.3 149.38 C960.03 150.02 959.76 150.66 959.49 151.32 C958.3 153.38 958.3 153.38 955.3 154.38 C954.97 155.04 954.64 155.7 954.3 156.38 C953.97 157.04 953.64 157.7 953.3 158.38 C952.31 158.71 951.32 159.04 950.3 159.38 C949.97 160.04 949.64 160.7 949.3 161.38 C948.97 162.04 948.64 162.7 948.3 163.38 C947.31 163.71 946.32 164.04 945.3 164.38 C944.97 165.04 944.64 165.7 944.3 166.38 C943.97 167.04 943.64 167.7 943.3 168.38 C942.31 168.71 941.32 169.04 940.3 169.38 C939.97 170.04 939.64 170.7 939.3 171.38 C938.97 172.04 938.64 172.7 938.3 173.38 C937.31 173.71 936.32 174.04 935.3 174.38 C934.97 175.04 934.64 175.7 934.3 176.38 C933.97 177.04 933.64 177.7 933.3 178.38 C932.31 178.71 931.32 179.04 930.3 179.38 C929.97 180.04 929.64 180.7 929.3 181.38 C928.97 182.04 928.64 182.7 928.3 183.38 C927.31 183.71 926.32 184.04 925.3 184.38 C924.97 185.04 924.64 185.7 924.3 186.38 C923.97 187.04 923.64 187.7 923.3 188.38 C922.31 188.71 921.32 189.04 920.3 189.38 C919.97 190.04 919.64 190.7 919.3 191.38 C918.97 192.04 918.64 192.7 918.3 193.38 C917.31 193.71 916.32 194.04 915.3 194.38 C914.97 195.04 914.64 195.7 914.3 196.38 C913.97 197.04 913.64 197.7 913.3 198.38 C912.31 198.71 911.32 199.04 910.3 199.38 C909.97 200.04 909.64 200.7 909.3 201.38 C908.97 202.04 908.64 202.7 908.3 203.38 C907.31 203.71 906.32 204.04 905.3 204.38 C904.97 205.04 904.64 205.7 904.3 206.38 C903.97 207.04 903.64 207.7 903.3 208.38 C902.31 208.71 901.32 209.04 900.3 209.38 C899.97 210.04 899.64 210.7 899.3 211.38 C898.97 212.04 898.64 212.7 898.3 213.38 C897.31 213.71 896.32 214.04 895.3 214.38 C894.97 215.04 894.64 215.7 894.3 216.38 C893.97 217.04 893.64 217.7 893.3 218.38 C892.31 218.71 891.32 219.04 890.3 219.38 C889.97 220.04 889.64 220.7 889.3 221.38 C888.97 222.04 888.64 222.7 888.3 223.38 C887.31 223.71 886.32 224.04 885.3 224.38 C884.97 225.04 884.64 225.7 884.3 226.38 C883.97 227.04 883.64 227.7 883.3 228.38 C882.31 228.71 881.32 229.04 880.3 229.38 C879.97 230.04 879.64 230.7 879.3 231.38 C878.97 232.04 878.64 232.7 878.3 233.38 C877.31 233.71 876.32 234.04 875.3 234.38 C874.97 235.04 874.64 235.7 874.3 236.38 C873.97 237.04 873.64 237.7 873.3 238.38 C872.31 238.71 871.32 239.04 870.3 239.38 C869.97 240.04 869.64 240.7 869.3 241.38 C868.97 242.04 868.64 242.7 868.3 243.38 C867.31 243.71 866.32 244.04 865.3 244.38 C864.97 245.04 864.64 245.7 864.3 246.38 C863.97 247.04 863.64 247.7 863.3 248.38 C862.31 248.71 861.32 249.04 860.3 249.38 C859.97 250.04 859.64 250.7 859.3 251.38 C858.97 252.04 858.64 252.7 858.3 253.38 C857.31 253.71 856.32 254.04 855.3 254.38 C854.97 255.04 854.64 255.7 854.3 256.38 C853.97 257.04 853.64 257.7 853.3 258.38 C852.31 258.71 851.32 259.04 850.3 259.38 C849.61 260.7 848.95 262.04 848.3 263.38 C846.97 264.88 845.58 266.34 844.15 267.76 C842.85 269.07 842.85 269.07 841.52 270.4 C840.55 271.35 839.59 272.31 838.62 273.27 C837.6 274.28 836.59 275.29 835.57 276.31 C833.39 278.49 831.2 280.67 829.01 282.85 C825.54 286.29 822.08 289.75 818.62 293.2 C813.14 298.67 807.66 304.13 802.17 309.59 C792.36 319.36 782.56 329.13 772.76 338.9 C769.32 342.33 765.89 345.75 762.44 349.18 C760.3 351.31 758.15 353.45 756.01 355.59 C755.02 356.58 754.03 357.57 753.03 358.55 C747.89 363.66 742.95 368.82 738.3 374.38 C736.76 376.07 736.76 376.07 735.3 377.38 C734.64 377.38 733.98 377.38 733.3 377.38 C733.3 378.04 733.3 378.7 733.3 379.38 C731.92 381 731.92 381 730.3 382.38 C729.64 382.38 728.98 382.38 728.3 382.38 C728.3 383.04 728.3 383.7 728.3 384.38 C726.92 386 726.92 386 725.3 387.38 C724.64 387.38 723.98 387.38 723.3 387.38 C723.3 388.04 723.3 388.7 723.3 389.38 C721.92 391 721.92 391 720.3 392.38 C719.64 392.38 718.98 392.38 718.3 392.38 C718.3 393.04 718.3 393.7 718.3 394.38 C716.92 396 716.92 396 715.3 397.38 C714.64 397.38 713.98 397.38 713.3 397.38 C713.3 398.04 713.3 398.7 713.3 399.38 C711.92 401 711.92 401 710.3 402.38 C709.64 402.38 708.98 402.38 708.3 402.38 C708.3 403.04 708.3 403.7 708.3 404.38 C706.92 406 706.92 406 705.3 407.38 C704.64 407.38 703.98 407.38 703.3 407.38 C703.3 408.04 703.3 408.7 703.3 409.38 C701.92 411 701.92 411 700.3 412.38 C699.64 412.38 698.98 412.38 698.3 412.38 C698.3 413.04 698.3 413.7 698.3 414.38 C696.92 416 696.92 416 695.3 417.38 C694.64 417.38 693.98 417.38 693.3 417.38 C693.3 418.04 693.3 418.7 693.3 419.38 C691.92 421 691.92 421 690.3 422.38 C689.64 422.38 688.98 422.38 688.3 422.38 C688.3 423.04 688.3 423.7 688.3 424.38 C686.92 426 686.92 426 685.3 427.38 C684.64 427.38 683.98 427.38 683.3 427.38 C683.3 428.04 683.3 428.7 683.3 429.38 C681.92 431 681.92 431 680.3 432.38 C679.64 432.38 678.98 432.38 678.3 432.38 C678.3 433.04 678.3 433.7 678.3 434.38 C676.92 436 676.92 436 675.3 437.38 C674.64 437.38 673.98 437.38 673.3 437.38 C673.3 438.04 673.3 438.7 673.3 439.38 C671.92 441 671.92 441 670.3 442.38 C669.64 442.38 668.98 442.38 668.3 442.38 C668.3 443.04 668.3 443.7 668.3 444.38 C666.92 446 666.92 446 665.3 447.38 C664.64 447.38 663.98 447.38 663.3 447.38 C663.3 448.04 663.3 448.7 663.3 449.38 C661.92 451 661.92 451 660.3 452.38 C659.64 452.38 658.98 452.38 658.3 452.38 C658.3 453.04 658.3 453.7 658.3 454.38 C656.92 456 656.92 456 655.3 457.38 C654.64 457.38 653.98 457.38 653.3 457.38 C653.3 458.04 653.3 458.7 653.3 459.38 C651.92 461 651.92 461 650.3 462.38 C649.64 462.38 648.98 462.38 648.3 462.38 C648.03 463.02 647.76 463.66 647.49 464.32 C646.3 466.38 646.3 466.38 643.3 467.38 C642.97 468.04 642.64 468.7 642.3 469.38 C641.97 470.04 641.64 470.7 641.3 471.38 C640.31 471.71 639.32 472.04 638.3 472.38 C637.97 473.04 637.64 473.7 637.3 474.38 C636.97 475.04 636.64 475.7 636.3 476.38 C635.31 476.71 634.32 477.04 633.3 477.38 C632.97 478.04 632.64 478.7 632.3 479.38 C631.97 480.04 631.64 480.7 631.3 481.38 C630.31 481.71 629.32 482.04 628.3 482.38 C627.97 483.04 627.64 483.7 627.3 484.38 C626.97 485.04 626.64 485.7 626.3 486.38 C625.31 486.71 624.32 487.04 623.3 487.38 C622.97 488.04 622.64 488.7 622.3 489.38 C621.97 490.04 621.64 490.7 621.3 491.38 C620.31 491.71 619.32 492.04 618.3 492.38 C617.97 493.04 617.64 493.7 617.3 494.38 C616.97 495.04 616.64 495.7 616.3 496.38 C615.31 496.71 614.32 497.04 613.3 497.38 C612.97 498.04 612.64 498.7 612.3 499.38 C611.97 500.04 611.64 500.7 611.3 501.38 C610.31 501.71 609.32 502.04 608.3 502.38 C607.97 503.04 607.64 503.7 607.3 504.38 C606.97 505.04 606.64 505.7 606.3 506.38 C605.31 506.71 604.32 507.04 603.3 507.38 C602.62 508.71 601.96 510.04 601.3 511.38 C599.76 513.11 598.15 514.79 596.52 516.43 C596.03 516.92 595.55 517.41 595.05 517.92 C593.45 519.53 591.84 521.14 590.23 522.75 C589.11 523.87 587.98 525 586.86 526.13 C584.51 528.49 582.16 530.84 579.8 533.19 C576.79 536.2 573.79 539.21 570.8 542.23 C568.49 544.55 566.16 546.88 563.84 549.2 C562.73 550.3 561.63 551.41 560.53 552.53 C548.39 564.77 537.73 570.64 520.3 571.38 C506.64 570.84 496.53 565.34 487.3 555.38 C486.97 554.39 486.64 553.4 486.3 552.38 C485.64 552.05 484.98 551.72 484.3 551.38 C482.3 550.38 482.3 550.38 481.3 547.38 C480.64 547.05 479.98 546.72 479.3 546.38 C477.3 545.38 477.3 545.38 476.3 542.38 C475.64 542.05 474.98 541.72 474.3 541.38 C472.3 540.38 472.3 540.38 471.3 537.38 C470.64 537.05 469.98 536.72 469.3 536.38 C467.3 535.38 467.3 535.38 466.3 532.38 C465.64 532.05 464.98 531.72 464.3 531.38 C462.3 530.38 462.3 530.38 461.3 527.38 C460.64 527.05 459.98 526.72 459.3 526.38 C457.3 525.38 457.3 525.38 456.3 522.38 C455.64 522.05 454.98 521.72 454.3 521.38 C452.3 520.38 452.3 520.38 451.3 517.38 C450.64 517.05 449.98 516.72 449.3 516.38 C447.3 515.38 447.3 515.38 446.3 512.38 C445.64 512.05 444.98 511.72 444.3 511.38 C442.3 510.38 442.3 510.38 441.3 507.38 C440.64 507.05 439.98 506.72 439.3 506.38 C437.3 505.38 437.3 505.38 436.3 502.38 C435.64 502.38 434.98 502.38 434.3 502.38 C434.3 501.72 434.3 501.06 434.3 500.38 C433.31 500.05 432.32 499.72 431.3 499.38 C431.3 498.72 431.3 498.06 431.3 497.38 C430.64 497.38 429.98 497.38 429.3 497.38 C427.67 496 427.67 496 426.3 494.38 C426.3 493.72 426.3 493.06 426.3 492.38 C425.64 492.38 424.98 492.38 424.3 492.38 C422.67 491 422.67 491 421.3 489.38 C421.3 488.72 421.3 488.06 421.3 487.38 C420.64 487.38 419.98 487.38 419.3 487.38 C417.67 486 417.67 486 416.3 484.38 C416.3 483.72 416.3 483.06 416.3 482.38 C415.64 482.38 414.98 482.38 414.3 482.38 C412.67 481 412.67 481 411.3 479.38 C411.3 478.72 411.3 478.06 411.3 477.38 C410.64 477.38 409.98 477.38 409.3 477.38 C407.67 476 407.67 476 406.3 474.38 C406.3 473.72 406.3 473.06 406.3 472.38 C405.64 472.38 404.98 472.38 404.3 472.38 C402.67 471 402.67 471 401.3 469.38 C401.3 468.72 401.3 468.06 401.3 467.38 C400.64 467.38 399.98 467.38 399.3 467.38 C397.67 466 397.67 466 396.3 464.38 C396.3 463.72 396.3 463.06 396.3 462.38 C395.64 462.38 394.98 462.38 394.3 462.38 C392.67 461 392.67 461 391.3 459.38 C391.3 458.72 391.3 458.06 391.3 457.38 C390.64 457.38 389.98 457.38 389.3 457.38 C387.67 456 387.67 456 386.3 454.38 C386.3 453.72 386.3 453.06 386.3 452.38 C385.64 452.38 384.98 452.38 384.3 452.38 C382.67 451 382.67 451 381.3 449.38 C381.3 448.72 381.3 448.06 381.3 447.38 C380.64 447.38 379.98 447.38 379.3 447.38 C377.67 446 377.67 446 376.3 444.38 C376.3 443.72 376.3 443.06 376.3 442.38 C375.64 442.38 374.98 442.38 374.3 442.38 C372.67 441 372.67 441 371.3 439.38 C371.3 438.72 371.3 438.06 371.3 437.38 C370.64 437.38 369.98 437.38 369.3 437.38 C367.67 436 367.67 436 366.3 434.38 C366.3 433.72 366.3 433.06 366.3 432.38 C365.64 432.38 364.98 432.38 364.3 432.38 C362.67 431 362.67 431 361.3 429.38 C361.3 428.72 361.3 428.06 361.3 427.38 C360.64 427.38 359.98 427.38 359.3 427.38 C357.67 426 357.67 426 356.3 424.38 C356.3 423.72 356.3 423.06 356.3 422.38 C355.64 422.38 354.98 422.38 354.3 422.38 C352.67 421 352.67 421 351.3 419.38 C351.3 418.72 351.3 418.06 351.3 417.38 C350.64 417.38 349.98 417.38 349.3 417.38 C348.08 416.14 348.08 416.14 346.57 414.28 C340.75 407.45 334.28 401.24 327.92 394.92 C326.46 393.46 325 392 323.54 390.55 C320.41 387.42 317.28 384.3 314.15 381.18 C309.2 376.25 304.26 371.32 299.32 366.39 C285.26 352.36 271.21 338.34 257.15 324.32 C249.37 316.57 241.6 308.82 233.83 301.06 C228.91 296.15 223.99 291.24 219.07 286.34 C216.01 283.3 212.96 280.25 209.92 277.2 C208.5 275.79 207.08 274.37 205.66 272.96 C203.72 271.04 201.8 269.11 199.87 267.18 C199.3 266.62 198.73 266.05 198.14 265.47 C194.3 261.61 194.3 261.61 194.3 259.38 C193.66 259.11 193.02 258.84 192.36 258.57 C190.3 257.38 190.3 257.38 189.3 254.38 C188.64 254.05 187.98 253.72 187.3 253.38 C185.3 252.38 185.3 252.38 184.3 249.38 C183.64 249.05 182.98 248.72 182.3 248.38 C180.3 247.38 180.3 247.38 179.3 244.38 C178.64 244.05 177.98 243.72 177.3 243.38 C175.3 242.38 175.3 242.38 174.3 239.38 C173.64 239.05 172.98 238.72 172.3 238.38 C170.3 237.38 170.3 237.38 169.3 234.38 C168.64 234.05 167.98 233.72 167.3 233.38 C165.3 232.38 165.3 232.38 164.3 229.38 C163.64 229.05 162.98 228.72 162.3 228.38 C160.3 227.38 160.3 227.38 159.3 224.38 C158.64 224.05 157.98 223.72 157.3 223.38 C155.3 222.38 155.3 222.38 154.3 219.38 C153.64 219.05 152.98 218.72 152.3 218.38 C150.3 217.38 150.3 217.38 149.3 214.38 C148.64 214.05 147.98 213.72 147.3 213.38 C145.3 212.38 145.3 212.38 144.3 209.38 C143.64 209.05 142.98 208.72 142.3 208.38 C140.3 207.38 140.3 207.38 139.3 204.38 C138.64 204.05 137.98 203.72 137.3 203.38 C135.3 202.38 135.3 202.38 134.3 199.38 C133.64 199.05 132.98 198.72 132.3 198.38 C130.3 197.38 130.3 197.38 129.3 194.38 C128.64 194.05 127.98 193.72 127.3 193.38 C125.3 192.38 125.3 192.38 124.3 189.38 C123.64 189.05 122.98 188.72 122.3 188.38 C120.3 187.38 120.3 187.38 119.3 184.38 C118.64 184.05 117.98 183.72 117.3 183.38 C115.3 182.38 115.3 182.38 114.3 179.38 C113.64 179.05 112.98 178.72 112.3 178.38 C110.3 177.38 110.3 177.38 109.3 174.38 C108.64 174.05 107.98 173.72 107.3 173.38 C105.3 172.38 105.3 172.38 104.3 169.38 C103.64 169.05 102.98 168.72 102.3 168.38 C100.3 167.38 100.3 167.38 99.3 164.38 C98.31 164.05 97.32 163.72 96.3 163.38 C96.3 162.72 96.3 162.06 96.3 161.38 C95.64 161.38 94.98 161.38 94.3 161.38 C94.3 160.72 94.3 160.06 94.3 159.38 C93.64 159.38 92.98 159.38 92.3 159.38 C90.67 158 90.67 158 89.3 156.38 C89.3 155.72 89.3 155.06 89.3 154.38 C88.64 154.38 87.98 154.38 87.3 154.38 C85.67 153 85.67 153 84.3 151.38 C84.3 150.72 84.3 150.06 84.3 149.38 C83.64 149.38 82.98 149.38 82.3 149.38 C80.67 148 80.67 148 79.3 146.38 C79.3 145.72 79.3 145.06 79.3 144.38 C78.64 144.38 77.98 144.38 77.3 144.38 C75.67 143 75.67 143 74.3 141.38 C74.3 140.72 74.3 140.06 74.3 139.38 C73.64 139.38 72.98 139.38 72.3 139.38 C70.67 138 70.67 138 69.3 136.38 C69.3 135.72 69.3 135.06 69.3 134.38 C68.64 134.38 67.98 134.38 67.3 134.38 C65.67 133 65.67 133 64.3 131.38 C64.3 130.72 64.3 130.06 64.3 129.38 C63.64 129.38 62.98 129.38 62.3 129.38 C60.67 128 60.67 128 59.3 126.38 C59.3 125.72 59.3 125.06 59.3 124.38 C58.64 124.38 57.98 124.38 57.3 124.38 C55.67 123 55.67 123 54.3 121.38 C54.3 120.72 54.3 120.06 54.3 119.38 C53.64 119.38 52.98 119.38 52.3 119.38 C50.67 118 50.67 118 49.3 116.38 C49.3 115.72 49.3 115.06 49.3 114.38 C48.64 114.38 47.98 114.38 47.3 114.38 C45.67 113 45.67 113 44.3 111.38 C44.3 110.72 44.3 110.06 44.3 109.38 C43.64 109.38 42.98 109.38 42.3 109.38 C40.67 108 40.67 108 39.3 106.38 C39.3 105.72 39.3 105.06 39.3 104.38 C38.64 104.38 37.98 104.38 37.3 104.38 C35.67 103 35.67 103 34.3 101.38 C34.3 100.72 34.3 100.06 34.3 99.38 C33.64 99.38 32.98 99.38 32.3 99.38 C30.67 98 30.67 98 29.3 96.38 C29.3 95.72 29.3 95.06 29.3 94.38 C28.64 94.38 27.98 94.38 27.3 94.38 C25.67 93 25.67 93 24.3 91.38 C24.3 90.72 24.3 90.06 24.3 89.38 C23.64 89.38 22.98 89.38 22.3 89.38 C20.67 88 20.67 88 19.3 86.38 C19.3 85.72 19.3 85.06 19.3 84.38 C18.64 84.38 17.98 84.38 17.3 84.38 C15.67 83 15.67 83 14.3 81.38 C14.3 80.72 14.3 80.06 14.3 79.38 C13.64 79.38 12.98 79.38 12.3 79.38 C10.67 78 10.67 78 9.3 76.38 C9.3 75.72 9.3 75.06 9.3 74.38 C8.64 74.38 7.98 74.38 7.3 74.38 C5.67 73 5.67 73 4.3 71.38 C4.3 70.72 4.3 70.06 4.3 69.38 C3.64 69.38 2.98 69.38 2.3 69.38 C0.67 68 0.67 68 -0.7 66.38 C-0.7 65.72 -0.7 65.06 -0.7 64.38 C-1.36 64.38 -2.02 64.38 -2.7 64.38 C-4.07 62.98 -4.07 62.98 -5.7 61.01 C-10.12 55.81 -14.94 51.06 -19.79 46.26 C-20.75 45.31 -21.7 44.37 -22.65 43.42 C-26.67 39.43 -30.69 35.44 -34.71 31.46 C-37.19 29.01 -39.66 26.56 -42.13 24.1 C-43.53 22.71 -44.93 21.33 -46.33 19.95 C-47.58 18.7 -47.58 18.7 -48.87 17.42 C-49.61 16.69 -50.35 15.95 -51.12 15.2 C-52.7 13.38 -52.7 13.38 -52.7 11.38 C-49.14 8.89 -45.39 7.36 -41.33 5.88 C-40.25 5.48 -39.17 5.07 -38.05 4.66 C-25.37 0.66 -13.18 -0.06 0 0 Z " fill="#047857" transform="translate(117.70181274414063,188.6224765777588)"/>
<path d="M0 0 C0.66 0.33 1.32 0.66 2 1 C2 1.66 2 2.32 2 3 C2.54 3.22 3.08 3.43 3.64 3.66 C6.82 5.46 9.21 7.92 11.75 10.5 C12.26 11 12.76 11.5 13.29 12.01 C17 15.75 17 15.75 17 18 C17.66 18 18.32 18 19 18 C19 18.66 19 19.32 19 20 C19.99 20.33 20.98 20.66 22 21 C22 21.66 22 22.32 22 23 C22.66 23 23.32 23 24 23 C24 23.66 24 24.32 24 25 C24.99 25.33 25.98 25.66 27 26 C27 26.66 27 27.32 27 28 C27.66 28 28.32 28 29 28 C29 28.66 29 29.32 29 30 C29.99 30.33 30.98 30.66 32 31 C32 31.66 32 32.32 32 33 C32.66 33 33.32 33 34 33 C34 33.66 34 34.32 34 35 C34.99 35.33 35.98 35.66 37 36 C37 36.66 37 37.32 37 38 C37.66 38 38.32 38 39 38 C39 38.66 39 39.32 39 40 C39.99 40.33 40.98 40.66 42 41 C42 41.66 42 42.32 42 43 C42.66 43 43.32 43 44 43 C44 43.66 44 44.32 44 45 C44.99 45.33 45.98 45.66 47 46 C47 46.66 47 47.32 47 48 C47.66 48 48.32 48 49 48 C50.55 49.57 50.55 49.57 52.31 51.69 C55.08 54.95 57.93 58.01 61 61 C71 71 81 81 91 91 C91.75 91.74 92.49 92.49 93.26 93.25 C95.2 95.2 97.13 97.15 99.05 99.12 C106.05 106.33 106.05 106.33 113.81 112.69 C115.39 113.83 115.39 113.83 117 115 C117 115.66 117 116.32 117 117 C117.54 117.27 118.08 117.53 118.64 117.8 C121.38 119.19 124.06 120.65 126.75 122.12 C128.23 122.93 128.23 122.93 129.73 123.76 C130.86 124.37 130.86 124.37 132 125 C132 125.66 132 126.32 132 127 C132.71 127.11 133.42 127.22 134.15 127.33 C137.29 128.07 139.7 129.27 142.56 130.75 C157.82 137.73 172.23 139.47 188.88 139.5 C189.67 139.5 190.46 139.51 191.27 139.51 C204.4 139.54 216.79 138.22 229 133 C229.95 132.62 230.89 132.23 231.87 131.84 C241 128.12 248.94 124.26 256.9 118.39 C259 117 259 117 261 117 C261 116.34 261 115.68 261 115 C262.58 113.6 264.22 112.27 265.89 110.98 C271.56 106.43 276.72 101.56 281.83 96.4 C282.71 95.52 283.59 94.64 284.5 93.73 C286.34 91.88 288.18 90.04 290.02 88.19 C292.82 85.37 295.63 82.56 298.44 79.75 C300.23 77.95 302.03 76.14 303.83 74.34 C304.66 73.5 305.49 72.67 306.35 71.81 C310.77 67.35 314.95 62.8 319 58 C320.38 56.71 321.79 55.45 323.25 54.25 C325.73 52.19 327.18 50.73 329 48 C329.66 48 330.32 48 331 48 C331.33 47.01 331.66 46.02 332 45 C332.66 45 333.32 45 334 45 C334 44.34 334 43.68 334 43 C334.66 43 335.32 43 336 43 C336.33 42.01 336.66 41.02 337 40 C337.66 40 338.32 40 339 40 C339 39.34 339 38.68 339 38 C339.66 38 340.32 38 341 38 C341.33 37.01 341.66 36.02 342 35 C342.66 35 343.32 35 344 35 C344 34.34 344 33.68 344 33 C344.66 33 345.32 33 346 33 C346.33 32.01 346.66 31.02 347 30 C347.66 30 348.32 30 349 30 C349 29.34 349 28.68 349 28 C349.66 28 350.32 28 351 28 C351.33 27.01 351.66 26.02 352 25 C352.66 25 353.32 25 354 25 C354 24.34 354 23.68 354 23 C354.66 23 355.32 23 356 23 C356.33 22.01 356.66 21.02 357 20 C357.66 20 358.32 20 359 20 C359 19.34 359 18.68 359 18 C359.66 18 360.32 18 361 18 C361.33 17.01 361.66 16.02 362 15 C362.66 15 363.32 15 364 15 C364 14.34 364 13.68 364 13 C364.66 13 365.32 13 366 13 C366.33 12.01 366.66 11.02 367 10 C367.66 10 368.32 10 369 10 C369 9.34 369 8.68 369 8 C369.66 8 370.32 8 371 8 C371.33 7.01 371.66 6.02 372 5 C372.66 5 373.32 5 374 5 C374 4.34 374 3.68 374 3 C374.66 3 375.32 3 376 3 C376.33 2.01 376.66 1.02 377 0 C380.34 1.17 382.77 2.19 385 5 C385 5.66 385 6.32 385 7 C385.66 7 386.32 7 387 7 C388.62 8.38 388.62 8.38 390 10 C390 10.66 390 11.32 390 12 C390.66 12 391.32 12 392 12 C393.62 13.38 393.62 13.38 395 15 C395 15.66 395 16.32 395 17 C395.66 17 396.32 17 397 17 C398.62 18.38 398.62 18.38 400 20 C400 20.66 400 21.32 400 22 C400.66 22 401.32 22 402 22 C403.37 23.39 403.37 23.39 404.98 25.35 C409.47 30.62 414.34 35.46 419.25 40.33 C420.27 41.34 421.28 42.36 422.3 43.37 C424.47 45.53 426.64 47.7 428.82 49.86 C432.25 53.28 435.68 56.7 439.11 60.12 C448.86 69.85 458.62 79.57 468.38 89.28 C473.78 94.66 479.18 100.04 484.57 105.43 C487.99 108.83 491.4 112.23 494.82 115.63 C496.94 117.74 499.06 119.85 501.17 121.96 C502.15 122.94 503.14 123.92 504.12 124.9 C505.47 126.23 506.8 127.57 508.14 128.9 C508.89 129.65 509.64 130.4 510.41 131.17 C512 133 512 133 512 135 C512.96 135.4 512.96 135.4 513.94 135.81 C516 137 516 137 517 140 C517.66 140.33 518.32 140.66 519 141 C519.66 141.33 520.32 141.66 521 142 C521.33 142.99 521.66 143.98 522 145 C522.66 145.33 523.32 145.66 524 146 C524.66 146.33 525.32 146.66 526 147 C526.33 147.99 526.66 148.98 527 150 C527.66 150.33 528.32 150.66 529 151 C529.66 151.33 530.32 151.66 531 152 C531.33 152.99 531.66 153.98 532 155 C532.66 155.33 533.32 155.66 534 156 C534.66 156.33 535.32 156.66 536 157 C536.33 157.99 536.66 158.98 537 160 C537.66 160.33 538.32 160.66 539 161 C539.66 161.33 540.32 161.66 541 162 C541.33 162.99 541.66 163.98 542 165 C542.66 165.33 543.32 165.66 544 166 C544.66 166.33 545.32 166.66 546 167 C546.33 167.99 546.66 168.98 547 170 C547.66 170.33 548.32 170.66 549 171 C549.66 171.33 550.32 171.66 551 172 C551.33 172.99 551.66 173.98 552 175 C552.66 175.33 553.32 175.66 554 176 C554.66 176.33 555.32 176.66 556 177 C556.33 177.99 556.66 178.98 557 180 C557.66 180.33 558.32 180.66 559 181 C559.66 181.33 560.32 181.66 561 182 C561.33 182.99 561.66 183.98 562 185 C562.66 185.33 563.32 185.66 564 186 C564.66 186.33 565.32 186.66 566 187 C566.33 187.99 566.66 188.98 567 190 C567.66 190.33 568.32 190.66 569 191 C569.66 191.33 570.32 191.66 571 192 C571.33 192.99 571.66 193.98 572 195 C572.66 195.33 573.32 195.66 574 196 C574.66 196.33 575.32 196.66 576 197 C576.33 197.99 576.66 198.98 577 200 C577.66 200.33 578.32 200.66 579 201 C579.66 201.33 580.32 201.66 581 202 C581.33 202.99 581.66 203.98 582 205 C582.66 205.33 583.32 205.66 584 206 C584.66 206.33 585.32 206.66 586 207 C586.33 207.99 586.66 208.98 587 210 C587.66 210.33 588.32 210.66 589 211 C589.66 211.33 590.32 211.66 591 212 C591.33 212.99 591.66 213.98 592 215 C592.66 215.33 593.32 215.66 594 216 C594.66 216.33 595.32 216.66 596 217 C596.33 217.99 596.66 218.98 597 220 C597.66 220.33 598.32 220.66 599 221 C599.66 221.33 600.32 221.66 601 222 C601.33 222.99 601.66 223.98 602 225 C602.66 225.33 603.32 225.66 604 226 C604.66 226.33 605.32 226.66 606 227 C606.33 227.99 606.66 228.98 607 230 C607.66 230.33 608.32 230.66 609 231 C609.66 231.33 610.32 231.66 611 232 C611.33 232.99 611.66 233.98 612 235 C612.66 235.33 613.32 235.66 614 236 C614.66 236.33 615.32 236.66 616 237 C616.33 237.99 616.66 238.98 617 240 C617.66 240.33 618.32 240.66 619 241 C619.66 241.33 620.32 241.66 621 242 C621.33 242.99 621.66 243.98 622 245 C622.66 245.33 623.32 245.66 624 246 C624.66 246.33 625.32 246.66 626 247 C626.33 247.99 626.66 248.98 627 250 C627.66 250 628.32 250 629 250 C630.62 251.38 630.62 251.38 632 253 C632 253.66 632 254.32 632 255 C632.66 255 633.32 255 634 255 C635.62 256.38 635.62 256.38 637 258 C637 258.66 637 259.32 637 260 C637.66 260 638.32 260 639 260 C640.62 261.38 640.62 261.38 642 263 C642 263.66 642 264.32 642 265 C642.66 265 643.32 265 644 265 C645.62 266.38 645.62 266.38 647 268 C647 268.66 647 269.32 647 270 C647.66 270 648.32 270 649 270 C650.62 271.38 650.62 271.38 652 273 C652 273.66 652 274.32 652 275 C652.66 275 653.32 275 654 275 C655.62 276.38 655.62 276.38 657 278 C657 278.66 657 279.32 657 280 C657.66 280 658.32 280 659 280 C660.62 281.38 660.62 281.38 662 283 C662 283.66 662 284.32 662 285 C662.66 285 663.32 285 664 285 C665.62 286.38 665.62 286.38 667 288 C667 288.66 667 289.32 667 290 C667.66 290 668.32 290 669 290 C670.62 291.38 670.62 291.38 672 293 C672 293.66 672 294.32 672 295 C672.66 295 673.32 295 674 295 C675.62 296.38 675.62 296.38 677 298 C677 298.66 677 299.32 677 300 C677.66 300 678.32 300 679 300 C680.62 301.38 680.62 301.38 682 303 C682 303.66 682 304.32 682 305 C682.66 305 683.32 305 684 305 C685.62 306.38 685.62 306.38 687 308 C687 308.66 687 309.32 687 310 C687.66 310 688.32 310 689 310 C690.62 311.38 690.62 311.38 692 313 C692 313.66 692 314.32 692 315 C692.66 315 693.32 315 694 315 C695.62 316.38 695.62 316.38 697 318 C697 318.66 697 319.32 697 320 C697.66 320 698.32 320 699 320 C700.62 321.38 700.62 321.38 702 323 C702 323.66 702 324.32 702 325 C702.66 325 703.32 325 704 325 C705.62 326.38 705.62 326.38 707 328 C707 328.66 707 329.32 707 330 C707.66 330 708.32 330 709 330 C710.62 331.38 710.62 331.38 712 333 C712 333.66 712 334.32 712 335 C712.66 335 713.32 335 714 335 C715.62 336.38 715.62 336.38 717 338 C717 338.66 717 339.32 717 340 C717.66 340 718.32 340 719 340 C720.62 341.38 720.62 341.38 722 343 C722 343.66 722 344.32 722 345 C722.66 345 723.32 345 724 345 C725.62 346.38 725.62 346.38 727 348 C727 348.66 727 349.32 727 350 C727.66 350 728.32 350 729 350 C730.22 351.24 730.22 351.24 731.72 353.1 C735.23 357.22 738.96 361.04 742.81 364.84 C743.42 365.45 744.04 366.05 744.67 366.68 C747.25 369.23 749.83 371.78 752.42 374.33 C754.33 376.2 756.22 378.08 758.12 379.96 C758.71 380.54 759.3 381.12 759.91 381.71 C761.31 383.1 762.66 384.55 764 386 C764 386.66 764 387.32 764 388 C756.9 394.55 744.17 395.88 735 398 C734.28 398.18 733.55 398.35 732.81 398.53 C729.34 399.11 725.96 399.14 722.46 399.13 C721.32 399.13 721.32 399.13 720.17 399.13 C717.62 399.14 715.08 399.13 712.53 399.13 C710.68 399.13 708.84 399.14 706.99 399.14 C701.89 399.14 696.78 399.14 691.68 399.14 C686.14 399.14 680.59 399.15 675.05 399.15 C664.05 399.16 653.04 399.16 642.04 399.16 C629.54 399.16 617.04 399.17 604.54 399.17 C572.77 399.19 541 399.2 509.23 399.2 C493.41 399.2 477.59 399.21 461.78 399.21 C411.04 399.22 360.3 399.23 309.56 399.24 C307.14 399.24 304.71 399.24 302.29 399.24 C297.42 399.24 292.56 399.24 287.7 399.24 C282 399.24 276.31 399.24 270.61 399.24 C268.98 399.24 267.35 399.24 265.72 399.24 C213.38 399.24 161.04 399.26 108.69 399.28 C71.09 399.3 33.48 399.31 -4.13 399.32 C-5.29 399.32 -5.29 399.32 -6.47 399.32 C-23.45 399.32 -40.43 399.32 -57.41 399.32 C-63.49 399.32 -69.57 399.32 -75.64 399.32 C-77.15 399.32 -78.66 399.32 -80.18 399.32 C-104.26 399.32 -128.34 399.33 -152.42 399.35 C-176.68 399.36 -200.94 399.37 -225.21 399.36 C-240.26 399.36 -255.31 399.36 -270.36 399.38 C-279.96 399.38 -289.56 399.38 -299.16 399.37 C-304.64 399.37 -310.11 399.37 -315.58 399.38 C-320.56 399.39 -325.54 399.39 -330.53 399.38 C-332.31 399.37 -334.1 399.38 -335.89 399.38 C-349.75 399.44 -362.75 398.19 -375.75 392.94 C-376.42 392.68 -377.09 392.43 -377.78 392.16 C-380.78 391 -383.31 389.79 -386 388 C-384.52 384.56 -382.58 382.35 -379.93 379.72 C-379.1 378.89 -378.26 378.05 -377.4 377.19 C-376.49 376.3 -375.59 375.41 -374.65 374.49 C-373.24 373.08 -371.82 371.68 -370.4 370.27 C-368.42 368.3 -366.44 366.34 -364.45 364.37 C-360.97 360.93 -357.49 357.48 -354.02 354.03 C-352.17 352.19 -350.32 350.36 -348.47 348.53 C-347.21 347.29 -347.21 347.29 -345.94 346.02 C-344.83 344.92 -344.83 344.92 -343.7 343.81 C-341.93 342.1 -341.93 342.1 -341 340 C-340.34 340 -339.68 340 -339 340 C-339 339.34 -339 338.68 -339 338 C-337.62 336.38 -337.62 336.38 -336 335 C-335.34 335 -334.68 335 -334 335 C-334 334.34 -334 333.68 -334 333 C-332.62 331.38 -332.62 331.38 -331 330 C-330.34 330 -329.68 330 -329 330 C-329 329.34 -329 328.68 -329 328 C-327.62 326.38 -327.62 326.38 -326 325 C-325.34 325 -324.68 325 -324 325 C-324 324.34 -324 323.68 -324 323 C-322.62 321.38 -322.62 321.38 -321 320 C-320.34 320 -319.68 320 -319 320 C-319 319.34 -319 318.68 -319 318 C-317.62 316.38 -317.62 316.38 -316 315 C-315.34 315 -314.68 315 -314 315 C-314 314.34 -314 313.68 -314 313 C-312.62 311.38 -312.62 311.38 -311 310 C-310.34 310 -309.68 310 -309 310 C-309 309.34 -309 308.68 -309 308 C-307.62 306.38 -307.62 306.38 -306 305 C-305.34 305 -304.68 305 -304 305 C-304 304.34 -304 303.68 -304 303 C-302.62 301.38 -302.62 301.38 -301 300 C-300.34 300 -299.68 300 -299 300 C-299 299.34 -299 298.68 -299 298 C-297.62 296.38 -297.62 296.38 -296 295 C-295.34 295 -294.68 295 -294 295 C-294 294.34 -294 293.68 -294 293 C-292.62 291.38 -292.62 291.38 -291 290 C-290.34 290 -289.68 290 -289 290 C-289 289.34 -289 288.68 -289 288 C-287.62 286.38 -287.62 286.38 -286 285 C-285.34 285 -284.68 285 -284 285 C-284 284.34 -284 283.68 -284 283 C-282.62 281.38 -282.62 281.38 -281 280 C-280.34 280 -279.68 280 -279 280 C-279 279.34 -279 278.68 -279 278 C-277.62 276.38 -277.62 276.38 -276 275 C-275.34 275 -274.68 275 -274 275 C-274 274.34 -274 273.68 -274 273 C-272.62 271.38 -272.62 271.38 -271 270 C-270.34 270 -269.68 270 -269 270 C-269 269.34 -269 268.68 -269 268 C-267.62 266.38 -267.62 266.38 -266 265 C-265.34 265 -264.68 265 -264 265 C-264 264.34 -264 263.68 -264 263 C-262.62 261.38 -262.62 261.38 -261 260 C-260.34 260 -259.68 260 -259 260 C-259 259.34 -259 258.68 -259 258 C-257.62 256.38 -257.62 256.38 -256 255 C-255.34 255 -254.68 255 -254 255 C-254 254.34 -254 253.68 -254 253 C-252.62 251.38 -252.62 251.38 -251 250 C-250.34 250 -249.68 250 -249 250 C-249 249.34 -249 248.68 -249 248 C-247.62 246.38 -247.62 246.38 -246 245 C-245.34 245 -244.68 245 -244 245 C-244 244.34 -244 243.68 -244 243 C-242.62 241.38 -242.62 241.38 -241 240 C-240.34 240 -239.68 240 -239 240 C-238.73 239.36 -238.46 238.72 -238.19 238.06 C-237 236 -237 236 -234 235 C-233.67 234.34 -233.34 233.68 -233 233 C-232 231 -232 231 -229 230 C-228.67 229.34 -228.34 228.68 -228 228 C-227 226 -227 226 -224 225 C-223.67 224.34 -223.34 223.68 -223 223 C-222 221 -222 221 -219 220 C-218.67 219.34 -218.34 218.68 -218 218 C-217 216 -217 216 -214 215 C-213.67 214.34 -213.34 213.68 -213 213 C-212 211 -212 211 -209 210 C-208.67 209.34 -208.34 208.68 -208 208 C-207 206 -207 206 -204 205 C-203.67 204.34 -203.34 203.68 -203 203 C-202 201 -202 201 -199 200 C-198.67 199.34 -198.34 198.68 -198 198 C-197 196 -197 196 -194 195 C-193.67 194.34 -193.34 193.68 -193 193 C-192 191 -192 191 -189 190 C-188.67 189.34 -188.34 188.68 -188 188 C-187 186 -187 186 -184 185 C-183.67 184.34 -183.34 183.68 -183 183 C-182 181 -182 181 -179 180 C-178.67 179.34 -178.34 178.68 -178 178 C-177 176 -177 176 -174 175 C-173.67 174.34 -173.34 173.68 -173 173 C-172 171 -172 171 -169 170 C-168.67 169.34 -168.34 168.68 -168 168 C-167 166 -167 166 -164 165 C-163.67 164.34 -163.34 163.68 -163 163 C-162 161 -162 161 -159 160 C-158.67 159.34 -158.34 158.68 -158 158 C-157 156 -157 156 -154 155 C-153.67 154.34 -153.34 153.68 -153 153 C-152 151 -152 151 -149 150 C-148.67 149.34 -148.34 148.68 -148 148 C-147 146 -147 146 -144 145 C-143.67 144.34 -143.34 143.68 -143 143 C-142 141 -142 141 -139 140 C-138.72 139.43 -138.44 138.87 -138.15 138.29 C-136.55 135.11 -134.15 132.87 -131.65 130.4 C-131.1 129.85 -130.54 129.29 -129.98 128.72 C-128.13 126.87 -126.27 125.02 -124.41 123.17 C-123.08 121.84 -121.76 120.51 -120.43 119.18 C-116.83 115.57 -113.21 111.97 -109.6 108.37 C-105.83 104.6 -102.06 100.83 -98.29 97.06 C-91.95 90.73 -85.62 84.4 -79.28 78.07 C-71.95 70.76 -64.61 63.43 -57.29 56.1 C-50.25 49.06 -43.2 42.02 -36.16 34.98 C-33.15 31.98 -30.15 28.99 -27.15 25.98 C-23.62 22.46 -20.09 18.93 -16.55 15.4 C-15.25 14.11 -13.96 12.81 -12.66 11.51 C-10.89 9.74 -9.12 7.98 -7.35 6.22 C-6.58 5.44 -6.58 5.44 -5.78 4.64 C-2.23 1.11 -2.23 1.11 0 0 Z " fill="#047857" transform="translate(451,692)"/>
<path d="M0 0 C5.44 1.49 8.65 5.23 12.49 9.12 C13.19 9.83 13.89 10.53 14.62 11.25 C16.1 12.74 17.58 14.22 19.05 15.71 C21.31 18 23.59 20.27 25.87 22.55 C27.31 23.99 28.74 25.43 30.18 26.88 C30.86 27.56 31.54 28.24 32.25 28.95 C32.87 29.58 33.5 30.21 34.14 30.87 C34.7 31.43 35.25 31.98 35.82 32.56 C37 34 37 34 37 36 C37.64 36.27 38.28 36.54 38.94 36.81 C41 38 41 38 42 41 C42.99 41.33 43.98 41.66 45 42 C45 42.66 45 43.32 45 44 C45.66 44 46.32 44 47 44 C47 44.66 47 45.32 47 46 C47.99 46.33 48.98 46.66 50 47 C50 47.66 50 48.32 50 49 C50.66 49 51.32 49 52 49 C52 49.66 52 50.32 52 51 C52.99 51.33 53.98 51.66 55 52 C55 52.66 55 53.32 55 54 C55.66 54 56.32 54 57 54 C57 54.66 57 55.32 57 56 C58.48 56.5 58.48 56.5 60 57 C60 57.66 60 58.32 60 59 C60.66 59 61.32 59 62 59 C62 59.66 62 60.32 62 61 C63.48 61.5 63.48 61.5 65 62 C65 62.66 65 63.32 65 64 C65.66 64 66.32 64 67 64 C67 64.66 67 65.32 67 66 C68.48 66.5 68.48 66.5 70 67 C70 67.66 70 68.32 70 69 C70.66 69 71.32 69 72 69 C72 69.66 72 70.32 72 71 C73.48 71.5 73.48 71.5 75 72 C75 72.66 75 73.32 75 74 C75.66 74 76.32 74 77 74 C77 74.66 77 75.32 77 76 C78.48 76.5 78.48 76.5 80 77 C80 77.66 80 78.32 80 79 C80.66 79 81.32 79 82 79 C82 79.66 82 80.32 82 81 C83.48 81.5 83.48 81.5 85 82 C85 82.66 85 83.32 85 84 C85.66 84 86.32 84 87 84 C87 84.66 87 85.32 87 86 C88.48 86.5 88.48 86.5 90 87 C90 87.66 90 88.32 90 89 C90.66 89 91.32 89 92 89 C92 89.66 92 90.32 92 91 C93.48 91.5 93.48 91.5 95 92 C95 92.66 95 93.32 95 94 C95.66 94 96.32 94 97 94 C97 94.66 97 95.32 97 96 C98.48 96.5 98.48 96.5 100 97 C100 97.66 100 98.32 100 99 C100.66 99 101.32 99 102 99 C102 99.66 102 100.32 102 101 C103.48 101.5 103.48 101.5 105 102 C105 102.66 105 103.32 105 104 C105.66 104 106.32 104 107 104 C107 104.66 107 105.32 107 106 C108.48 106.5 108.48 106.5 110 107 C110 107.66 110 108.32 110 109 C110.66 109 111.32 109 112 109 C112 109.66 112 110.32 112 111 C113.48 111.5 113.48 111.5 115 112 C115 112.66 115 113.32 115 114 C115.66 114 116.32 114 117 114 C117 114.66 117 115.32 117 116 C117.99 116.33 118.98 116.66 120 117 C120 117.66 120 118.32 120 119 C120.66 119 121.32 119 122 119 C122 119.66 122 120.32 122 121 C122.99 121.33 123.98 121.66 125 122 C125 122.66 125 123.32 125 124 C125.66 124 126.32 124 127 124 C127 124.66 127 125.32 127 126 C127.99 126.33 128.98 126.66 130 127 C130 127.66 130 128.32 130 129 C130.66 129 131.32 129 132 129 C132 129.66 132 130.32 132 131 C132.99 131.33 133.98 131.66 135 132 C135 132.66 135 133.32 135 134 C135.66 134 136.32 134 137 134 C137 134.66 137 135.32 137 136 C137.99 136.33 138.98 136.66 140 137 C140 137.66 140 138.32 140 139 C140.66 139 141.32 139 142 139 C142 139.66 142 140.32 142 141 C142.99 141.33 143.98 141.66 145 142 C145 142.66 145 143.32 145 144 C145.66 144 146.32 144 147 144 C147 144.66 147 145.32 147 146 C147.99 146.33 148.98 146.66 150 147 C150 147.66 150 148.32 150 149 C150.66 149 151.32 149 152 149 C152 149.66 152 150.32 152 151 C152.99 151.33 153.98 151.66 155 152 C155 152.66 155 153.32 155 154 C155.66 154 156.32 154 157 154 C157 154.66 157 155.32 157 156 C157.99 156.33 158.98 156.66 160 157 C160 157.66 160 158.32 160 159 C160.66 159 161.32 159 162 159 C162 159.66 162 160.32 162 161 C162.99 161.33 163.98 161.66 165 162 C165 162.66 165 163.32 165 164 C165.66 164 166.32 164 167 164 C167 164.66 167 165.32 167 166 C167.99 166.33 168.98 166.66 170 167 C170 167.66 170 168.32 170 169 C170.66 169 171.32 169 172 169 C172 169.66 172 170.32 172 171 C172.99 171.33 173.98 171.66 175 172 C175 172.66 175 173.32 175 174 C175.66 174 176.32 174 177 174 C177 174.66 177 175.32 177 176 C177.99 176.33 178.98 176.66 180 177 C180 177.66 180 178.32 180 179 C180.66 179 181.32 179 182 179 C182 179.66 182 180.32 182 181 C182.99 181.33 183.98 181.66 185 182 C185 182.66 185 183.32 185 184 C185.66 184 186.32 184 187 184 C187 184.66 187 185.32 187 186 C187.99 186.33 188.98 186.66 190 187 C190 187.66 190 188.32 190 189 C190.66 189 191.32 189 192 189 C193.55 190.57 193.55 190.57 195.31 192.69 C198.08 195.95 200.93 199.01 204 202 C264 262 264 262 266.34 264.34 C268.92 266.92 271.5 269.48 274.09 272.05 C275.1 273.05 276.11 274.05 277.12 275.05 C277.66 275.58 278.19 276.11 278.74 276.66 C291.05 288.86 303.34 301.08 315.62 313.31 C322.72 320.37 329.82 327.43 336.94 334.48 C343.15 340.64 349.36 346.81 355.55 352.99 C358.83 356.26 362.11 359.52 365.41 362.77 C368.5 365.82 371.58 368.89 374.65 371.97 C375.78 373.1 376.92 374.22 378.06 375.34 C379.61 376.86 381.14 378.41 382.67 379.95 C383.54 380.81 384.4 381.67 385.29 382.56 C387 385 387 385 387.06 387.5 C385.69 390.72 383.92 392.57 381.44 395.03 C380.96 395.52 380.48 396 379.99 396.49 C378.39 398.1 376.77 399.69 375.15 401.29 C374 402.44 372.84 403.59 371.69 404.74 C368.56 407.87 365.41 410.99 362.27 414.1 C358.98 417.37 355.69 420.64 352.41 423.92 C346.19 430.13 339.95 436.33 333.71 442.52 C324.57 451.6 315.44 460.68 306.32 469.78 C305.64 470.44 304.97 471.11 304.28 471.8 C302.95 473.13 301.61 474.47 300.27 475.8 C296.36 479.69 292.45 483.58 288.54 487.47 C286.09 489.89 283.65 492.32 281.22 494.74 C280.09 495.86 278.96 496.98 277.83 498.1 C272.33 503.56 266.96 509.04 262 515 C260.68 516.25 259.33 517.46 257.94 518.62 C254.81 521.29 251.87 524.05 249 527 C199 577 199 577 196.31 579.62 C193.89 581.97 193.89 581.97 192 585 C191.34 585 190.68 585 190 585 C189.67 585.99 189.34 586.98 189 588 C188.34 588 187.68 588 187 588 C187 588.66 187 589.32 187 590 C186.34 590 185.68 590 185 590 C184.67 590.99 184.34 591.98 184 593 C183.34 593 182.68 593 182 593 C182 593.66 182 594.32 182 595 C181.34 595 180.68 595 180 595 C179.67 595.99 179.34 596.98 179 598 C178.34 598 177.68 598 177 598 C177 598.66 177 599.32 177 600 C176.34 600 175.68 600 175 600 C174.67 600.99 174.34 601.98 174 603 C173.34 603 172.68 603 172 603 C172 603.66 172 604.32 172 605 C171.34 605 170.68 605 170 605 C169.67 605.99 169.34 606.98 169 608 C168.34 608 167.68 608 167 608 C167 608.66 167 609.32 167 610 C166.34 610 165.68 610 165 610 C164.67 610.99 164.34 611.98 164 613 C163.34 613 162.68 613 162 613 C162 613.66 162 614.32 162 615 C161.34 615 160.68 615 160 615 C159.67 615.99 159.34 616.98 159 618 C158.34 618 157.68 618 157 618 C157 618.66 157 619.32 157 620 C156.34 620 155.68 620 155 620 C154.67 620.99 154.34 621.98 154 623 C153.34 623 152.68 623 152 623 C152 623.66 152 624.32 152 625 C151.34 625 150.68 625 150 625 C149.67 625.99 149.34 626.98 149 628 C148.34 628 147.68 628 147 628 C147 628.66 147 629.32 147 630 C146.34 630 145.68 630 145 630 C144.67 630.99 144.34 631.98 144 633 C143.34 633 142.68 633 142 633 C142 633.66 142 634.32 142 635 C141.34 635 140.68 635 140 635 C139.67 635.99 139.34 636.98 139 638 C138.34 638 137.68 638 137 638 C137 638.66 137 639.32 137 640 C136.34 640 135.68 640 135 640 C134.67 640.99 134.34 641.98 134 643 C133.34 643 132.68 643 132 643 C132 643.66 132 644.32 132 645 C131.34 645 130.68 645 130 645 C129.67 645.99 129.34 646.98 129 648 C128.34 648 127.68 648 127 648 C127 648.66 127 649.32 127 650 C126.34 650 125.68 650 125 650 C124.67 650.99 124.34 651.98 124 653 C123.34 653 122.68 653 122 653 C122 653.66 122 654.32 122 655 C121.34 655 120.68 655 120 655 C119.67 655.99 119.34 656.98 119 658 C118.34 658 117.68 658 117 658 C117 658.66 117 659.32 117 660 C116.34 660 115.68 660 115 660 C114.67 660.99 114.34 661.98 114 663 C113.34 663 112.68 663 112 663 C112 663.66 112 664.32 112 665 C111.34 665 110.68 665 110 665 C109.67 665.99 109.34 666.98 109 668 C108.34 668 107.68 668 107 668 C107 668.66 107 669.32 107 670 C106.34 670 105.68 670 105 670 C104.67 670.99 104.34 671.98 104 673 C103.34 673 102.68 673 102 673 C102 673.66 102 674.32 102 675 C101.34 675 100.68 675 100 675 C99.67 675.99 99.34 676.98 99 678 C98.34 678 97.68 678 97 678 C97 678.66 97 679.32 97 680 C96.34 680 95.68 680 95 680 C94.67 680.99 94.34 681.98 94 683 C93.34 683 92.68 683 92 683 C92 683.66 92 684.32 92 685 C91.34 685 90.68 685 90 685 C89.67 685.99 89.34 686.98 89 688 C88.34 688 87.68 688 87 688 C87 688.66 87 689.32 87 690 C86.34 690 85.68 690 85 690 C84.67 690.99 84.34 691.98 84 693 C83.34 693 82.68 693 82 693 C82 693.66 82 694.32 82 695 C81.34 695 80.68 695 80 695 C79.67 695.99 79.34 696.98 79 698 C78.34 698 77.68 698 77 698 C77 698.66 77 699.32 77 700 C76.34 700 75.68 700 75 700 C74.67 700.99 74.34 701.98 74 703 C73.34 703 72.68 703 72 703 C72 703.66 72 704.32 72 705 C71.34 705 70.68 705 70 705 C69.67 705.99 69.34 706.98 69 708 C68.34 708 67.68 708 67 708 C67 708.66 67 709.32 67 710 C66.34 710 65.68 710 65 710 C64.67 710.99 64.34 711.98 64 713 C63.34 713 62.68 713 62 713 C62 713.66 62 714.32 62 715 C61.34 715 60.68 715 60 715 C59.67 715.99 59.34 716.98 59 718 C58.34 718 57.68 718 57 718 C57 718.66 57 719.32 57 720 C56.34 720 55.68 720 55 720 C54.67 720.99 54.34 721.98 54 723 C53.34 723 52.68 723 52 723 C52 723.66 52 724.32 52 725 C51.34 725 50.68 725 50 725 C49.67 725.99 49.34 726.98 49 728 C48.34 728 47.68 728 47 728 C47 728.66 47 729.32 47 730 C46.34 730 45.68 730 45 730 C44.67 730.99 44.34 731.98 44 733 C43.34 733 42.68 733 42 733 C42 733.66 42 734.32 42 735 C41.34 735 40.68 735 40 735 C39.67 735.99 39.34 736.98 39 738 C38.34 738 37.68 738 37 738 C36.73 738.59 36.46 739.18 36.19 739.79 C34.99 742.02 33.77 743.49 31.99 745.28 C31.08 746.21 31.08 746.21 30.15 747.15 C29.49 747.81 28.84 748.46 28.16 749.14 C27.49 749.82 26.81 750.5 26.12 751.2 C24.69 752.63 23.26 754.06 21.82 755.49 C19.63 757.68 17.45 759.88 15.27 762.09 C13.88 763.48 12.49 764.87 11.1 766.26 C10.45 766.92 9.8 767.58 9.13 768.26 C8.51 768.87 7.9 769.48 7.27 770.1 C6.73 770.64 6.2 771.18 5.64 771.73 C3.78 773.17 2.3 773.59 0 774 C-3.57 768.51 -5.37 762.98 -7.17 756.7 C-7.74 754.11 -7.74 754.11 -9 753 C-9.33 750.67 -9.67 748.33 -10 746 C-10.33 745.67 -10.66 745.34 -11 745 C-11.1 743.43 -11.13 741.86 -11.13 740.29 C-11.13 739.26 -11.13 738.23 -11.13 737.17 C-11.13 736.02 -11.13 734.88 -11.13 733.7 C-11.13 732.49 -11.13 731.28 -11.13 730.03 C-11.13 726.64 -11.13 723.26 -11.13 719.87 C-11.13 716.19 -11.13 712.52 -11.13 708.84 C-11.14 702.39 -11.14 695.94 -11.13 689.49 C-11.13 679.9 -11.13 670.31 -11.13 660.72 C-11.14 643.59 -11.14 626.47 -11.14 609.34 C-11.13 594.36 -11.13 579.37 -11.13 564.38 C-11.13 563.39 -11.13 562.4 -11.13 561.37 C-11.13 557.35 -11.13 553.32 -11.14 549.29 C-11.14 511.47 -11.14 473.65 -11.13 435.83 C-11.13 402.2 -11.13 368.56 -11.13 334.93 C-11.14 297.18 -11.14 259.43 -11.13 221.68 C-11.13 217.66 -11.13 213.64 -11.13 209.62 C-11.13 208.63 -11.13 207.64 -11.13 206.62 C-11.13 191.64 -11.13 176.66 -11.14 161.68 C-11.14 144.65 -11.14 127.62 -11.13 110.6 C-11.13 101.06 -11.13 91.52 -11.13 81.98 C-11.14 75.62 -11.13 69.26 -11.13 62.89 C-11.13 59.26 -11.13 55.63 -11.13 52 C-11.13 48.1 -11.13 44.2 -11.13 40.3 C-11.13 39.16 -11.13 38.01 -11.13 36.83 C-11.13 35.8 -11.13 34.77 -11.13 33.71 C-11.13 32.82 -11.13 31.93 -11.13 31.01 C-11 29 -11 29 -10 28 C-9.9 27.03 -9.79 26.06 -9.69 25.06 C-9.03 20.04 -6.96 15.63 -5 11 C-4.27 9.15 -3.54 7.29 -2.81 5.44 C-1.12 1.12 -1.12 1.12 0 0 Z " fill="#047857" transform="translate(11,253)"/>
<path d="M0 0 C3 1 3 1 4.54 3.95 C5.06 5.19 5.56 6.44 6.06 7.69 C6.32 8.3 6.57 8.91 6.84 9.54 C9.39 15.72 11.09 21.39 12 28 C12.33 28.33 12.66 28.66 13 29 C13.1 30.57 13.13 32.14 13.13 33.71 C13.13 34.74 13.13 35.77 13.13 36.83 C13.13 37.98 13.13 39.12 13.13 40.3 C13.13 41.51 13.13 42.72 13.13 43.97 C13.13 47.36 13.13 50.74 13.13 54.13 C13.13 57.81 13.13 61.48 13.13 65.16 C13.14 71.61 13.14 78.06 13.13 84.51 C13.13 94.1 13.13 103.69 13.13 113.28 C13.14 130.41 13.14 147.53 13.14 164.66 C13.13 179.64 13.13 194.63 13.13 209.62 C13.13 211.11 13.13 211.11 13.13 212.63 C13.13 216.65 13.13 220.68 13.14 224.71 C13.14 262.53 13.14 300.35 13.13 338.17 C13.13 371.8 13.13 405.44 13.13 439.07 C13.14 476.82 13.14 514.57 13.13 552.32 C13.13 556.34 13.13 560.36 13.13 564.38 C13.13 565.37 13.13 566.36 13.13 567.38 C13.13 582.36 13.13 597.34 13.14 612.32 C13.14 629.35 13.14 646.38 13.13 663.4 C13.13 672.94 13.13 682.48 13.13 692.02 C13.14 698.38 13.13 704.74 13.13 711.11 C13.13 714.74 13.13 718.37 13.13 722 C13.13 725.9 13.13 729.8 13.13 733.7 C13.13 734.84 13.13 735.99 13.13 737.17 C13.13 738.2 13.13 739.23 13.13 740.29 C13.13 741.63 13.13 741.63 13.13 742.99 C13 745 13 745 12 746 C11.9 746.97 11.79 747.94 11.69 748.94 C11.15 753.04 9.72 756.57 8.11 760.36 C7.35 762.17 6.63 763.99 5.95 765.83 C5.45 767.18 5.45 767.18 4.94 768.56 C4.64 769.39 4.34 770.22 4.03 771.07 C3 773 3 773 0 774 C-1.59 773.02 -1.59 773.02 -3.38 771.36 C-4.08 770.71 -4.78 770.07 -5.51 769.4 C-10.14 764.94 -14.74 760.45 -19.28 755.9 C-21.02 754.17 -22.76 752.44 -24.5 750.72 C-25.61 749.62 -26.71 748.52 -27.81 747.42 C-28.33 746.9 -28.86 746.39 -29.39 745.86 C-33 742.23 -33 742.23 -33 740 C-33.66 740 -34.32 740 -35 740 C-35 739.34 -35 738.68 -35 738 C-35.99 737.67 -36.98 737.34 -38 737 C-38 736.34 -38 735.68 -38 735 C-38.66 735 -39.32 735 -40 735 C-40 734.34 -40 733.68 -40 733 C-40.99 732.67 -41.98 732.34 -43 732 C-43 731.34 -43 730.68 -43 730 C-43.66 730 -44.32 730 -45 730 C-45 729.34 -45 728.68 -45 728 C-45.99 727.67 -46.98 727.34 -48 727 C-48 726.34 -48 725.68 -48 725 C-48.66 725 -49.32 725 -50 725 C-50 724.34 -50 723.68 -50 723 C-50.99 722.67 -51.98 722.34 -53 722 C-53 721.34 -53 720.68 -53 720 C-53.66 720 -54.32 720 -55 720 C-55 719.34 -55 718.68 -55 718 C-55.99 717.67 -56.98 717.34 -58 717 C-58 716.34 -58 715.68 -58 715 C-58.66 715 -59.32 715 -60 715 C-60 714.34 -60 713.68 -60 713 C-60.99 712.67 -61.98 712.34 -63 712 C-63 711.34 -63 710.68 -63 710 C-63.66 710 -64.32 710 -65 710 C-65 709.34 -65 708.68 -65 708 C-65.99 707.67 -66.98 707.34 -68 707 C-68 706.34 -68 705.68 -68 705 C-68.66 705 -69.32 705 -70 705 C-70 704.34 -70 703.68 -70 703 C-70.99 702.67 -71.98 702.34 -73 702 C-73 701.34 -73 700.68 -73 700 C-73.66 700 -74.32 700 -75 700 C-75 699.34 -75 698.68 -75 698 C-75.99 697.67 -76.98 697.34 -78 697 C-78 696.34 -78 695.68 -78 695 C-78.66 695 -79.32 695 -80 695 C-80 694.34 -80 693.68 -80 693 C-80.99 692.67 -81.98 692.34 -83 692 C-83 691.34 -83 690.68 -83 690 C-83.66 690 -84.32 690 -85 690 C-85 689.34 -85 688.68 -85 688 C-85.99 687.67 -86.98 687.34 -88 687 C-88 686.34 -88 685.68 -88 685 C-88.66 685 -89.32 685 -90 685 C-90 684.34 -90 683.68 -90 683 C-90.99 682.67 -91.98 682.34 -93 682 C-93 681.34 -93 680.68 -93 680 C-93.66 680 -94.32 680 -95 680 C-95 679.34 -95 678.68 -95 678 C-95.99 677.67 -96.98 677.34 -98 677 C-98 676.34 -98 675.68 -98 675 C-98.66 675 -99.32 675 -100 675 C-100 674.34 -100 673.68 -100 673 C-100.99 672.67 -101.98 672.34 -103 672 C-103 671.34 -103 670.68 -103 670 C-103.66 670 -104.32 670 -105 670 C-105 669.34 -105 668.68 -105 668 C-105.99 667.67 -106.98 667.34 -108 667 C-108 666.34 -108 665.68 -108 665 C-108.66 665 -109.32 665 -110 665 C-110 664.34 -110 663.68 -110 663 C-110.99 662.67 -111.98 662.34 -113 662 C-113 661.34 -113 660.68 -113 660 C-113.66 660 -114.32 660 -115 660 C-115 659.34 -115 658.68 -115 658 C-115.99 657.67 -116.98 657.34 -118 657 C-118 656.34 -118 655.68 -118 655 C-118.66 655 -119.32 655 -120 655 C-120 654.34 -120 653.68 -120 653 C-120.99 652.67 -121.98 652.34 -123 652 C-123 651.34 -123 650.68 -123 650 C-123.66 650 -124.32 650 -125 650 C-125 649.34 -125 648.68 -125 648 C-125.99 647.67 -126.98 647.34 -128 647 C-128 646.34 -128 645.68 -128 645 C-128.66 645 -129.32 645 -130 645 C-130 644.34 -130 643.68 -130 643 C-130.99 642.67 -131.98 642.34 -133 642 C-133 641.34 -133 640.68 -133 640 C-133.66 640 -134.32 640 -135 640 C-135 639.34 -135 638.68 -135 638 C-135.99 637.67 -136.98 637.34 -138 637 C-138 636.34 -138 635.68 -138 635 C-138.66 635 -139.32 635 -140 635 C-140 634.34 -140 633.68 -140 633 C-140.99 632.67 -141.98 632.34 -143 632 C-143 631.34 -143 630.68 -143 630 C-143.66 630 -144.32 630 -145 630 C-145 629.34 -145 628.68 -145 628 C-145.99 627.67 -146.98 627.34 -148 627 C-148 626.34 -148 625.68 -148 625 C-148.66 625 -149.32 625 -150 625 C-150 624.34 -150 623.68 -150 623 C-150.99 622.67 -151.98 622.34 -153 622 C-153 621.34 -153 620.68 -153 620 C-153.66 620 -154.32 620 -155 620 C-155 619.34 -155 618.68 -155 618 C-155.99 617.67 -156.98 617.34 -158 617 C-158 616.34 -158 615.68 -158 615 C-158.66 615 -159.32 615 -160 615 C-160 614.34 -160 613.68 -160 613 C-160.99 612.67 -161.98 612.34 -163 612 C-163 611.34 -163 610.68 -163 610 C-163.66 610 -164.32 610 -165 610 C-165 609.34 -165 608.68 -165 608 C-165.99 607.67 -166.98 607.34 -168 607 C-168 606.34 -168 605.68 -168 605 C-168.66 605 -169.32 605 -170 605 C-170 604.34 -170 603.68 -170 603 C-170.99 602.67 -171.98 602.34 -173 602 C-173 601.34 -173 600.68 -173 600 C-173.66 600 -174.32 600 -175 600 C-175 599.34 -175 598.68 -175 598 C-175.99 597.67 -176.98 597.34 -178 597 C-178 596.34 -178 595.68 -178 595 C-178.66 595 -179.32 595 -180 595 C-181.55 593.43 -181.55 593.43 -183.31 591.31 C-186.08 588.05 -188.93 584.99 -192 582 C-227 547 -227 547 -229.26 544.74 C-232.3 541.7 -235.36 538.66 -238.42 535.62 C-239.73 534.32 -241.03 533.02 -242.34 531.72 C-243.04 531.03 -243.73 530.34 -244.45 529.63 C-260.42 513.77 -276.37 497.89 -292.31 482 C-301.52 472.82 -310.75 463.64 -319.98 454.47 C-328.04 446.47 -336.1 438.46 -344.14 430.43 C-348.39 426.18 -352.65 421.94 -356.92 417.71 C-360.94 413.74 -364.94 409.75 -368.93 405.75 C-370.39 404.29 -371.87 402.82 -373.35 401.37 C-375.36 399.38 -377.36 397.38 -379.35 395.38 C-379.94 394.8 -380.54 394.22 -381.15 393.63 C-384.93 389.76 -384.93 389.76 -385.22 386.5 C-383.48 382.93 -380.92 380.39 -378.11 377.64 C-377.49 377.01 -376.87 376.39 -376.23 375.75 C-374.14 373.65 -372.04 371.58 -369.94 369.5 C-368.44 368 -366.94 366.51 -365.44 365.01 C-361.37 360.94 -357.29 356.88 -353.2 352.83 C-348.93 348.58 -344.66 344.33 -340.4 340.07 C-332.32 332 -324.22 323.95 -316.12 315.89 C-304.25 304.08 -292.39 292.26 -280.53 280.44 C-279.66 279.57 -278.79 278.7 -277.89 277.81 C-276.16 276.08 -274.42 274.35 -272.69 272.62 C-267.61 267.55 -262.52 262.49 -257.44 257.44 C-254.27 254.29 -251.11 251.13 -247.94 247.98 C-246.47 246.52 -245.01 245.06 -243.54 243.61 C-241.53 241.61 -239.53 239.61 -237.52 237.62 C-236.95 237.05 -236.37 236.47 -235.77 235.88 C-232.44 232.55 -229.31 229.11 -226.29 225.5 C-224.65 223.6 -222.86 221.98 -220.94 220.38 C-217.81 217.71 -214.87 214.95 -212 212 C-192 192 -192 192 -189.31 189.38 C-186.89 187.03 -186.89 187.03 -185 184 C-184.34 184 -183.68 184 -183 184 C-182.67 183.01 -182.34 182.02 -182 181 C-181.34 181 -180.68 181 -180 181 C-180 180.34 -180 179.68 -180 179 C-179.34 179 -178.68 179 -178 179 C-177.67 178.01 -177.34 177.02 -177 176 C-176.34 176 -175.68 176 -175 176 C-175 175.34 -175 174.68 -175 174 C-174.34 174 -173.68 174 -173 174 C-172.67 173.01 -172.34 172.02 -172 171 C-171.34 171 -170.68 171 -170 171 C-170 170.34 -170 169.68 -170 169 C-169.34 169 -168.68 169 -168 169 C-167.67 168.01 -167.34 167.02 -167 166 C-166.34 166 -165.68 166 -165 166 C-165 165.34 -165 164.68 -165 164 C-164.34 164 -163.68 164 -163 164 C-162.67 163.01 -162.34 162.02 -162 161 C-161.34 161 -160.68 161 -160 161 C-160 160.34 -160 159.68 -160 159 C-159.34 159 -158.68 159 -158 159 C-157.67 158.01 -157.34 157.02 -157 156 C-156.34 156 -155.68 156 -155 156 C-155 155.34 -155 154.68 -155 154 C-154.34 154 -153.68 154 -153 154 C-152.67 153.01 -152.34 152.02 -152 151 C-151.34 151 -150.68 151 -150 151 C-150 150.34 -150 149.68 -150 149 C-149.34 149 -148.68 149 -148 149 C-147.67 148.01 -147.34 147.02 -147 146 C-146.34 146 -145.68 146 -145 146 C-145 145.34 -145 144.68 -145 144 C-144.34 144 -143.68 144 -143 144 C-142.67 143.01 -142.34 142.02 -142 141 C-141.34 141 -140.68 141 -140 141 C-140 140.34 -140 139.68 -140 139 C-139.34 139 -138.68 139 -138 139 C-137.67 138.01 -137.34 137.02 -137 136 C-136.34 136 -135.68 136 -135 136 C-135 135.34 -135 134.68 -135 134 C-134.34 134 -133.68 134 -133 134 C-132.67 133.01 -132.34 132.02 -132 131 C-131.34 131 -130.68 131 -130 131 C-130 130.34 -130 129.68 -130 129 C-129.34 129 -128.68 129 -128 129 C-127.67 128.01 -127.34 127.02 -127 126 C-126.34 126 -125.68 126 -125 126 C-125 125.34 -125 124.68 -125 124 C-124.34 124 -123.68 124 -123 124 C-122.67 123.01 -122.34 122.02 -122 121 C-121.34 121 -120.68 121 -120 121 C-120 120.34 -120 119.68 -120 119 C-119.34 119 -118.68 119 -118 119 C-117.67 118.01 -117.34 117.02 -117 116 C-116.34 116 -115.68 116 -115 116 C-115 115.34 -115 114.68 -115 114 C-114.34 114 -113.68 114 -113 114 C-112.67 113.01 -112.34 112.02 -112 111 C-111.34 111 -110.68 111 -110 111 C-110 110.34 -110 109.68 -110 109 C-109.34 109 -108.68 109 -108 109 C-107.67 108.01 -107.34 107.02 -107 106 C-106.34 106 -105.68 106 -105 106 C-105 105.34 -105 104.68 -105 104 C-104.34 104 -103.68 104 -103 104 C-102.67 103.01 -102.34 102.02 -102 101 C-101.34 101 -100.68 101 -100 101 C-100 100.34 -100 99.68 -100 99 C-99.34 99 -98.68 99 -98 99 C-97.67 98.01 -97.34 97.02 -97 96 C-96.34 96 -95.68 96 -95 96 C-95 95.34 -95 94.68 -95 94 C-94.34 94 -93.68 94 -93 94 C-92.67 93.01 -92.34 92.02 -92 91 C-91.34 91 -90.68 91 -90 91 C-90 90.34 -90 89.68 -90 89 C-89.34 89 -88.68 89 -88 89 C-87.67 88.01 -87.34 87.02 -87 86 C-86.34 86 -85.68 86 -85 86 C-85 85.34 -85 84.68 -85 84 C-84.34 84 -83.68 84 -83 84 C-82.67 83.01 -82.34 82.02 -82 81 C-81.34 81 -80.68 81 -80 81 C-80 80.34 -80 79.68 -80 79 C-79.34 79 -78.68 79 -78 79 C-77.67 78.01 -77.34 77.02 -77 76 C-76.34 76 -75.68 76 -75 76 C-75 75.34 -75 74.68 -75 74 C-74.34 74 -73.68 74 -73 74 C-72.67 73.01 -72.34 72.02 -72 71 C-71.34 71 -70.68 71 -70 71 C-70 70.34 -70 69.68 -70 69 C-69.34 69 -68.68 69 -68 69 C-67.67 68.01 -67.34 67.02 -67 66 C-66.34 66 -65.68 66 -65 66 C-65 65.34 -65 64.68 -65 64 C-64.34 64 -63.68 64 -63 64 C-62.67 63.01 -62.34 62.02 -62 61 C-61.34 61 -60.68 61 -60 61 C-60 60.34 -60 59.68 -60 59 C-59.34 59 -58.68 59 -58 59 C-57.67 58.01 -57.34 57.02 -57 56 C-56.34 56 -55.68 56 -55 56 C-55 55.34 -55 54.68 -55 54 C-54.34 54 -53.68 54 -53 54 C-52.67 53.01 -52.34 52.02 -52 51 C-51.34 51 -50.68 51 -50 51 C-50 50.34 -50 49.68 -50 49 C-49.34 49 -48.68 49 -48 49 C-47.67 48.01 -47.34 47.02 -47 46 C-46.34 46 -45.68 46 -45 46 C-45 45.34 -45 44.68 -45 44 C-44.34 44 -43.68 44 -43 44 C-42.67 43.01 -42.34 42.02 -42 41 C-41.34 41 -40.68 41 -40 41 C-40 40.34 -40 39.68 -40 39 C-39.34 39 -38.68 39 -38 39 C-37.67 38.01 -37.34 37.02 -37 36 C-36.34 36 -35.68 36 -35 36 C-35 35.34 -35 34.68 -35 34 C-34.34 34 -33.68 34 -33 34 C-32.73 33.4 -32.46 32.81 -32.18 32.19 C-31.02 30.03 -29.87 28.63 -28.14 26.9 C-27.57 26.32 -26.99 25.75 -26.4 25.15 C-25.79 24.54 -25.17 23.93 -24.53 23.3 C-23.9 22.67 -23.26 22.03 -22.6 21.37 C-21.26 20.04 -19.92 18.7 -18.57 17.36 C-16.5 15.31 -14.44 13.26 -12.39 11.2 C-11.08 9.9 -9.78 8.6 -8.47 7.3 C-7.85 6.68 -7.23 6.07 -6.6 5.43 C-2.23 1.12 -2.23 1.12 0 0 Z " fill="#047857" transform="translate(1267,253)"/>
</svg>
