<svg width="13" height="13" viewBox="0 0 13 13" fill="none" xmlns="http://www.w3.org/2000/svg">
<g clip-path="url(#clip0_990_6970)">
<path d="M4.60059 1.00146C4.60059 0.689746 4.3498 0.438965 4.03809 0.438965C3.72637 0.438965 3.47559 0.689746 3.47559 1.00146V1.93896C2.64824 1.93896 1.97559 2.61162 1.97559 3.43896H1.03809C0.726367 3.43896 0.475586 3.68975 0.475586 4.00146C0.475586 4.31318 0.726367 4.56396 1.03809 4.56396H1.97559V5.87646H1.03809C0.726367 5.87646 0.475586 6.12725 0.475586 6.43896C0.475586 6.75068 0.726367 7.00146 1.03809 7.00146H1.97559V8.31396H1.03809C0.726367 8.31396 0.475586 8.56475 0.475586 8.87646C0.475586 9.18818 0.726367 9.43896 1.03809 9.43896H1.97559C1.97559 10.2663 2.64824 10.939 3.47559 10.939V11.8765C3.47559 12.1882 3.72637 12.439 4.03809 12.439C4.3498 12.439 4.60059 12.1882 4.60059 11.8765V10.939H5.91309V11.8765C5.91309 12.1882 6.16387 12.439 6.47559 12.439C6.7873 12.439 7.03809 12.1882 7.03809 11.8765V10.939H8.35059V11.8765C8.35059 12.1882 8.60137 12.439 8.91309 12.439C9.2248 12.439 9.47559 12.1882 9.47559 11.8765V10.939C10.3029 10.939 10.9756 10.2663 10.9756 9.43896H11.9131C12.2248 9.43896 12.4756 9.18818 12.4756 8.87646C12.4756 8.56475 12.2248 8.31396 11.9131 8.31396H10.9756V7.00146H11.9131C12.2248 7.00146 12.4756 6.75068 12.4756 6.43896C12.4756 6.12725 12.2248 5.87646 11.9131 5.87646H10.9756V4.56396H11.9131C12.2248 4.56396 12.4756 4.31318 12.4756 4.00146C12.4756 3.68975 12.2248 3.43896 11.9131 3.43896H10.9756C10.9756 2.61162 10.3029 1.93896 9.47559 1.93896V1.00146C9.47559 0.689746 9.2248 0.438965 8.91309 0.438965C8.60137 0.438965 8.35059 0.689746 8.35059 1.00146V1.93896H7.03809V1.00146C7.03809 0.689746 6.7873 0.438965 6.47559 0.438965C6.16387 0.438965 5.91309 0.689746 5.91309 1.00146V1.93896H4.60059V1.00146ZM4.22559 3.43896H8.72559C9.14043 3.43896 9.47559 3.77412 9.47559 4.18896V8.68896C9.47559 9.10381 9.14043 9.43896 8.72559 9.43896H4.22559C3.81074 9.43896 3.47559 9.10381 3.47559 8.68896V4.18896C3.47559 3.77412 3.81074 3.43896 4.22559 3.43896ZM8.72559 4.18896H4.22559V8.68896H8.72559V4.18896Z" fill="#07C189"/>
</g>
<defs>
<clipPath id="clip0_990_6970">
<rect width="12" height="12" fill="white" transform="translate(0.475586 0.438965)"/>
</clipPath>
</defs>
</svg>
