<svg width="15" height="19" viewBox="0 0 15 19" fill="none" xmlns="http://www.w3.org/2000/svg">
<g clip-path="url(#clip0_990_7340)">
<path d="M7.67003 15.5618C6.40641 15.5755 5.15431 15.4523 3.90169 15.2846C3.61028 15.2453 3.31626 15.2175 3.03062 15.152C1.46091 14.793 0.369718 13.2709 0.514896 11.6666C0.564114 11.1053 0.74357 10.5632 1.03901 10.0833C1.25966 9.72063 1.47506 9.3548 1.67894 8.98269C1.87635 8.61918 1.97467 8.21014 1.96406 7.79663C1.95672 7.14359 1.92999 6.48636 1.98712 5.83698C2.18995 3.50732 3.37339 1.83017 5.52852 0.939185C8.74655 -0.392576 12.3231 1.41717 13.2072 4.77986C13.332 5.2547 13.3645 5.75837 13.3938 6.25155C13.4247 6.75313 13.4111 7.25784 13.3975 7.76099C13.3833 8.20044 13.4895 8.63541 13.7046 9.01885C13.9174 9.40092 14.1454 9.77462 14.3671 10.1515C15.3718 11.8585 14.7696 14.0189 13.0463 14.8978C12.6197 15.1158 12.1616 15.2122 11.692 15.2599C10.6522 15.3648 9.61238 15.4696 8.57098 15.5571C8.27276 15.5844 7.97035 15.5618 7.67003 15.5618ZM8.00389 14.3344C8.39488 14.3076 9.11867 14.2615 9.84194 14.2075C10.1412 14.185 10.4405 14.1551 10.7382 14.1137C11.1978 14.0534 11.6669 14.0257 12.1124 13.9088C13.3949 13.5728 13.9892 12.0744 13.333 10.8779C13.1858 10.609 13.0186 10.3496 12.8577 10.0917C12.3655 9.30187 12.082 8.45858 12.1407 7.51204C12.1669 7.09537 12.1517 6.67346 12.1407 6.25732C12.1413 6.00251 12.1219 5.74806 12.0825 5.49631C11.636 3.0482 9.48817 1.48636 7.0259 1.81078C5.00127 2.07755 3.34875 3.84065 3.23345 5.88206C3.19833 6.50784 3.20148 7.13677 3.21406 7.76413C3.22902 8.42712 3.06479 9.08187 2.73869 9.65931C2.51385 10.065 2.26385 10.456 2.03638 10.86C1.32255 12.1284 2.02433 13.6845 3.43313 13.9596C3.61867 13.9958 3.8084 14.012 3.99603 14.0356C5.2172 14.1939 6.43838 14.3218 8.00389 14.3354V14.3344Z" fill="#005B40"/>
<path d="M7.67294 18.5C6.72064 18.4738 5.95334 18.0808 5.38678 17.3093C5.14883 16.9838 5.19653 16.6043 5.4916 16.3905C5.78667 16.1767 6.15407 16.2495 6.39988 16.5682C7.10166 17.4765 8.27095 17.4754 8.96487 16.565C9.20544 16.2506 9.58647 16.1772 9.8742 16.3931C10.1619 16.6091 10.2086 16.9843 9.98269 17.2977C9.4156 18.0823 8.64517 18.4754 7.67294 18.5Z" fill="#005B40"/>
</g>
<defs>
<clipPath id="clip0_990_7340">
<rect width="14.3538" height="18" fill="white" transform="translate(0.5 0.5)"/>
</clipPath>
</defs>
</svg>
