<svg width="14" height="14" viewBox="0 0 14 14" fill="none" xmlns="http://www.w3.org/2000/svg">
<path d="M2.91702 2.91667C2.91707 2.80409 2.88455 2.69391 2.82337 2.59941C2.7622 2.50491 2.67499 2.43012 2.57227 2.38408C2.65627 2.31816 2.75777 2.27325 2.86977 2.25691L9.1686 1.35683C9.33408 1.33318 9.50272 1.34536 9.66308 1.39256C9.82344 1.43976 9.97179 1.52086 10.0981 1.63039C10.2244 1.73992 10.3256 1.8753 10.395 2.02738C10.4644 2.17945 10.5004 2.34467 10.5003 2.51183V2.99017C10.3098 2.94121 10.1138 2.91651 9.91702 2.91667H2.91702ZM5.68785 7.58333C5.68785 7.23524 5.82613 6.9014 6.07227 6.65525C6.31841 6.40911 6.65225 6.27083 7.00035 6.27083C7.34845 6.27083 7.68229 6.40911 7.92843 6.65525C8.17457 6.9014 8.31285 7.23524 8.31285 7.58333C8.31285 7.93143 8.17457 8.26527 7.92843 8.51141C7.68229 8.75755 7.34845 8.89583 7.00035 8.89583C6.65225 8.89583 6.31841 8.75755 6.07227 8.51141C5.82613 8.26527 5.68785 7.93143 5.68785 7.58333Z" fill="#07C189"/>
<path fill-rule="evenodd" clip-rule="evenodd" d="M10.5002 3.59919C11.1797 3.8401 11.6668 4.48819 11.6668 5.25002V11.0834C11.6668 11.5475 11.4825 11.9926 11.1543 12.3208C10.8261 12.649 10.381 12.8334 9.91683 12.8334H4.0835C3.61937 12.8334 3.17425 12.649 2.84606 12.3208C2.51787 11.9926 2.3335 11.5475 2.3335 11.0834V2.91669C2.3335 3.0714 2.39495 3.21977 2.50435 3.32917C2.61375 3.43856 2.76212 3.50002 2.91683 3.50002H9.91683C10.121 3.50002 10.3176 3.53502 10.5002 3.59919ZM7.00016 5.39585C6.42 5.39585 5.8636 5.62632 5.45337 6.03656C5.04313 6.44679 4.81266 7.00319 4.81266 7.58335C4.81266 8.16352 5.04313 8.71991 5.45337 9.13015C5.8636 9.54039 6.42 9.77085 7.00016 9.77085C7.58032 9.77085 8.13672 9.54039 8.54696 9.13015C8.95719 8.71991 9.18766 8.16352 9.18766 7.58335C9.18766 7.00319 8.95719 6.44679 8.54696 6.03656C8.13672 5.62632 7.58032 5.39585 7.00016 5.39585ZM5.8335 10.6459C5.71746 10.6459 5.60618 10.6919 5.52414 10.774C5.44209 10.856 5.396 10.9673 5.396 11.0834C5.396 11.1994 5.44209 11.3107 5.52414 11.3927C5.60618 11.4748 5.71746 11.5209 5.8335 11.5209H8.16683C8.28286 11.5209 8.39414 11.4748 8.47619 11.3927C8.55824 11.3107 8.60433 11.1994 8.60433 11.0834C8.60433 10.9673 8.55824 10.856 8.47619 10.774C8.39414 10.6919 8.28286 10.6459 8.16683 10.6459H5.8335Z" fill="#07C189"/>
</svg>
