<svg width="26" height="33" viewBox="0 0 26 33" fill="none" xmlns="http://www.w3.org/2000/svg">
<path fill-rule="evenodd" clip-rule="evenodd" d="M0 12.992C0.00159094 9.54541 1.372 6.24056 3.80985 3.8042C6.24771 1.36784 9.55341 -0.000530539 13 1.54306e-07C20.178 1.54306e-07 26 5.818 26 12.992C26 18.34 23.324 22.578 20.456 25.442C19.1882 26.7153 17.7673 27.8265 16.226 28.75C15.582 29.13 14.98 29.43 14.456 29.634C13.962 29.83 13.5526 32.9677 13.1086 32.9677C12.6646 32.9677 12.038 29.83 11.544 29.634C10.9322 29.3851 10.3405 29.0895 9.774 28.75C8.23269 27.8264 6.81185 26.7153 5.544 25.442C2.676 22.578 0 18.34 0 12.992ZM13 7.994C11.6739 7.994 10.4021 8.52078 9.46447 9.45847C8.52678 10.3961 8 11.6679 8 12.994C8 14.3201 8.52678 15.5919 9.46447 16.5295C10.4021 17.4672 11.6739 17.994 13 17.994C14.3261 17.994 15.5979 17.4672 16.5355 16.5295C17.4732 15.5919 18 14.3201 18 12.994C18 11.6679 17.4732 10.3961 16.5355 9.45847C15.5979 8.52078 14.3261 7.994 13 7.994Z" fill="white"/>
<path d="M7.57471 12.957C7.57471 11.5182 8.1463 10.1382 9.16374 9.12077C10.1812 8.10333 11.5611 7.53174 13 7.53174C14.4389 7.53174 15.8188 8.10333 16.8363 9.12077C17.8537 10.1382 18.4253 11.5182 18.4253 12.957C18.4253 14.3959 17.8537 15.7759 16.8363 16.7933C15.8188 17.8107 14.4389 18.3823 13 18.3823C11.5611 18.3823 10.1812 17.8107 9.16374 16.7933C8.1463 15.7759 7.57471 14.3959 7.57471 12.957Z" fill="white"/>
<path fill-rule="evenodd" clip-rule="evenodd" d="M8.8086 19.888C7.45554 19.3796 7.58574 17.6462 8.23314 16.509C8.65898 15.763 9.86818 14.528 10.4631 13.73C12.8901 10.4767 13.8238 11.5844 16.0329 14.4216C16.6206 15.1754 17.7535 16.207 18.1082 17.3792C18.5973 18.993 17.6902 20.2467 16.166 19.8989C14.9078 19.6117 14.1892 18.4527 12.506 18.7345C11.3378 18.9278 9.99047 20.3297 8.8086 19.888Z" fill="#07C189"/>
<path fill-rule="evenodd" clip-rule="evenodd" d="M13.5297 6.38584C14.4843 2.4378 18.2529 3.60529 17.2969 7.9337C16.3819 12.0642 12.4363 10.9145 13.5297 6.38584Z" fill="#07C189"/>
<path fill-rule="evenodd" clip-rule="evenodd" d="M12.4918 6.60317C13.4032 10.9859 9.5116 11.9687 8.66998 7.89875C7.75642 3.4865 11.6379 2.49522 12.4918 6.60317Z" fill="#07C189"/>
<path fill-rule="evenodd" clip-rule="evenodd" d="M17.0939 14.1977C14.9049 12.906 17.9945 7.70893 20.269 8.97811C22.3824 10.1611 19.4749 15.6058 17.0939 14.1977Z" fill="#07C189"/>
<path fill-rule="evenodd" clip-rule="evenodd" d="M9.16118 14.2249C5.72923 15.1766 3.91723 10.0836 5.69183 9.0054C7.46643 7.92717 10.6286 11.387 9.16118 14.2249Z" fill="#07C189"/>
</svg>
