<svg width="100" height="100" viewBox="0 0 100 100" fill="none" xmlns="http://www.w3.org/2000/svg">
<circle cx="50" cy="50" r="50" fill="#B4B4B4"/>
<mask id="mask0_148_8772" style="mask-type:alpha" maskUnits="userSpaceOnUse" x="20" y="20" width="60" height="60">
<path d="M22.0067 76.8648C22.0088 77.0158 22.0407 77.1648 22.1004 77.3035C22.1601 77.4421 22.2466 77.5676 22.3548 77.6729C22.4631 77.7781 22.591 77.861 22.7312 77.9168C22.8715 77.9726 23.0214 78.0002 23.1724 77.9981H76.8231C76.9741 78.0004 77.1242 77.9729 77.2646 77.9172C77.4051 77.8615 77.5332 77.7787 77.6416 77.6734C77.75 77.5682 77.8366 77.4426 77.8964 77.3038C77.9562 77.1651 77.9881 77.0159 77.9902 76.8648V75.512C78.0167 75.1038 78.0712 73.0702 76.7302 70.82C75.8844 69.4009 74.6568 68.1763 73.0815 67.1771C71.1761 65.9688 68.752 65.0949 65.8194 64.5688C64.3308 64.3593 62.8542 64.072 61.3956 63.7082C57.517 62.7179 57.178 61.8411 57.1751 61.8323C57.1527 61.7457 57.12 61.6621 57.0778 61.5832C57.0454 61.4211 56.9673 60.8051 57.1176 59.1561C57.4978 54.9666 59.7451 52.4909 61.5503 50.5015C62.1191 49.8752 62.657 49.2813 63.0711 48.7007C64.8586 46.1955 65.0237 43.344 65.031 43.1672C65.0378 42.8538 64.9945 42.5414 64.9028 42.2417C64.726 41.6965 64.3974 41.3575 64.1557 41.107C64.0985 41.0497 64.043 40.9907 63.9892 40.9302C63.9715 40.9096 63.9243 40.8536 63.9671 40.5721C64.1116 39.6654 64.2114 38.7521 64.2662 37.8355C64.3487 36.359 64.4121 34.1515 64.0304 32.0014C63.9744 31.5907 63.8897 31.1845 63.777 30.7857C63.3747 29.3061 62.7292 28.0418 61.8318 26.9984C61.677 26.8289 57.9222 22.8722 47.0217 22.0617C45.5142 21.9497 44.0243 22.0102 42.5566 22.0853C42.1225 22.095 41.6905 22.1483 41.2672 22.2445C40.1413 22.5348 39.8407 23.248 39.7626 23.6474C39.6314 24.3105 39.8613 24.8233 40.0131 25.1652C40.0352 25.2138 40.0632 25.2743 40.0146 25.4334C39.7626 25.8254 39.3632 26.1791 38.958 26.5136C38.8401 26.6123 36.108 28.9701 35.9576 32.0486C35.5524 34.3902 35.5819 38.0374 36.0608 40.5588C36.0903 40.6988 36.1301 40.9051 36.0637 41.0451C35.548 41.5064 34.9644 42.0295 34.9659 43.2232C34.9718 43.344 35.1383 46.194 36.9258 48.7007C37.3384 49.2813 37.8763 49.8737 38.4437 50.5L38.4466 50.5015C40.2518 52.4909 42.4991 54.9666 42.8793 59.1547C43.0282 60.8051 42.95 61.4196 42.9191 61.5832C42.8763 61.662 42.8432 61.7456 42.8204 61.8323C42.8189 61.8411 42.4814 62.715 38.6205 63.7038C36.3924 64.2741 34.1996 64.5659 34.1333 64.5732C31.2833 65.0551 28.8739 65.9083 26.9714 67.1093C25.402 68.1011 24.1715 69.3301 23.3168 70.7595C21.9492 73.0437 21.9861 75.1245 22.0052 75.5047V76.8648H22.0067Z" fill="white" stroke="#EEEEEE" stroke-width="4" stroke-linejoin="round"/>
</mask>
<g mask="url(#mask0_148_8772)">
<path d="M14.6326 14.6316H85.3671V85.3662H14.6326V14.6316Z" fill="#DADADA"/>
</g>
</svg>
