<svg width="121" height="121" viewBox="0 0 121 121" fill="none" xmlns="http://www.w3.org/2000/svg">
<circle cx="60.084" cy="60.7583" r="58" stroke="#FE4A49" stroke-width="4"/>
<path d="M75.5006 51.5085C75.5006 47.4197 73.8763 43.4984 70.9851 40.6072C68.0939 37.716 64.1727 36.0918 60.0839 36.0918C55.9951 36.0918 52.0739 37.716 49.1827 40.6072C46.2915 43.4984 44.6672 47.4197 44.6672 51.5085C44.6672 52.3262 44.9921 53.1105 45.5703 53.6887C46.1486 54.2669 46.9328 54.5918 47.7506 54.5918C48.5683 54.5918 49.3526 54.2669 49.9308 53.6887C50.5091 53.1105 50.8339 52.3262 50.8339 51.5085C50.8339 49.679 51.3764 47.8906 52.3928 46.3694C53.4092 44.8483 54.8539 43.6627 56.5441 42.9626C58.2343 42.2625 60.0942 42.0793 61.8885 42.4362C63.6828 42.7931 65.331 43.6741 66.6246 44.9677C67.9183 46.2614 68.7993 47.9096 69.1562 49.7039C69.5131 51.4982 69.3299 53.3581 68.6298 55.0483C67.9297 56.7385 66.7441 58.1832 65.2229 59.1996C63.7018 60.216 61.9134 60.7585 60.0839 60.7585C59.2662 60.7585 58.4819 61.0833 57.9037 61.6616C57.3254 62.2398 57.0006 63.024 57.0006 63.8418V70.0085C57.0006 70.8262 57.3254 71.6105 57.9037 72.1887C58.4819 72.7669 59.2662 73.0918 60.0839 73.0918C60.9017 73.0918 61.6859 72.7669 62.2641 72.1887C62.8424 71.6105 63.1672 70.8262 63.1672 70.0085V66.6168C66.6494 65.906 69.7791 64.0139 72.0266 61.2607C74.2741 58.5076 75.5013 55.0625 75.5006 51.5085Z" fill="#FE4A49"/>
<path d="M60.0838 85.425C61.7867 85.425 63.1672 84.0445 63.1672 82.3416C63.1672 80.6388 61.7867 79.2583 60.0838 79.2583C58.3809 79.2583 57.0005 80.6388 57.0005 82.3416C57.0005 84.0445 58.3809 85.425 60.0838 85.425Z" fill="#FE4A49"/>
</svg>
