<?xml version="1.0" encoding="UTF-8"?>
<!DOCTYPE svg PUBLIC "-//W3C//DTD SVG 1.1//EN" "http://www.w3.org/Graphics/SVG/1.1/DTD/svg11.dtd">
<svg xmlns="http://www.w3.org/2000/svg" version="1.1" width="512px" height="512px" style="shape-rendering:geometricPrecision; text-rendering:geometricPrecision; image-rendering:optimizeQuality; fill-rule:evenodd; clip-rule:evenodd" xmlns:xlink="http://www.w3.org/1999/xlink">
<g><path style="opacity:0.963" fill="#000000" d="M 352.5,31.5 C 402.158,27.5782 439.991,46.5782 466,88.5C 482.468,121.877 483.802,155.877 470,190.5C 445.36,237.913 406.194,259.413 352.5,255C 298.324,244.824 266.158,212.658 256,158.5C 251.59,108.821 270.423,70.988 312.5,45C 325.31,38.5639 338.643,34.0639 352.5,31.5 Z M 366.5,63.5 C 401.436,65.3675 426.269,82.0341 441,113.5C 453.46,150.502 444.96,181.669 415.5,207C 383.5,229 351.5,229 319.5,207C 291.57,183.475 282.404,153.975 292,118.5C 305.448,84.6971 330.282,66.3637 366.5,63.5 Z"/></g>
<g><path style="opacity:0.963" fill="#000000" d="M 134.5,44.5 C 148.17,43.499 160.503,46.999 171.5,55C 191.029,74.1949 210.195,93.6949 229,113.5C 240.447,135.707 237.613,155.874 220.5,174C 215.503,177.834 210.17,181.167 204.5,184C 188.579,200.147 187.746,216.981 202,234.5C 228.891,262.059 256.391,288.892 284.5,315C 300.642,322.115 314.808,319.282 327,306.5C 339.807,279.515 360.64,270.015 389.5,278C 393.759,279.934 397.759,282.268 401.5,285C 421.727,304.559 441.227,324.726 460,345.5C 468.885,362.666 468.552,379.666 459,396.5C 441.195,415.305 423.029,433.805 404.5,452C 366.789,481.061 325.456,487.395 280.5,471C 267.16,465.306 255.16,457.64 244.5,448C 184,387.5 123.5,327 63,266.5C 29.9212,227.303 22.5878,183.636 41,135.5C 45.8118,125.037 51.8118,115.371 59,106.5C 76.5,89 94,71.5 111.5,54C 118.586,49.1457 126.253,45.979 134.5,44.5 Z M 137.5,77.5 C 142.324,76.9711 146.657,78.1378 150.5,81C 167,97.5 183.5,114 200,130.5C 204.377,136.908 203.877,143.074 198.5,149C 163.269,168.651 151.769,197.818 164,236.5C 167.25,243.34 171.25,249.673 176,255.5C 202.5,282 229,308.5 255.5,335C 282.343,355.871 310.343,357.538 339.5,340C 349.388,331.888 357.388,322.221 363.5,311C 369.267,306.578 374.933,306.578 380.5,311C 397,327.5 413.5,344 430,360.5C 434.201,366.257 434.535,372.257 431,378.5C 413.805,396.029 396.305,413.196 378.5,430C 346.009,451.463 313.009,452.463 279.5,433C 274.546,429.715 269.88,426.048 265.5,422C 206.667,363.167 147.833,304.333 89,245.5C 61.9656,214.844 56.9656,180.844 74,143.5C 77.0852,138.328 80.4186,133.328 84,128.5C 100.167,112.333 116.333,96.1667 132.5,80C 134.315,79.2432 135.981,78.4098 137.5,77.5 Z"/></g>
<g><path style="opacity:0.98" fill="#000000" d="M 353.5,87.5 C 363.36,85.3496 370.527,88.6829 375,97.5C 375.5,110.162 375.667,122.829 375.5,135.5C 382.841,135.334 390.174,135.5 397.5,136C 406.482,140.473 409.649,147.64 407,157.5C 405.167,162 402,165.167 397.5,167C 382.833,167.667 368.167,167.667 353.5,167C 349,165.167 345.833,162 344,157.5C 343.333,137.5 343.333,117.5 344,97.5C 346.022,92.98 349.189,89.6467 353.5,87.5 Z"/></g>
</svg>
