<?xml version="1.0" encoding="UTF-8"?>
<!DOCTYPE svg PUBLIC "-//W3C//DTD SVG 1.1//EN" "http://www.w3.org/Graphics/SVG/1.1/DTD/svg11.dtd">
<svg xmlns="http://www.w3.org/2000/svg" version="1.1" width="512px" height="512px" style="shape-rendering:geometricPrecision; text-rendering:geometricPrecision; image-rendering:optimizeQuality; fill-rule:evenodd; clip-rule:evenodd" xmlns:xlink="http://www.w3.org/1999/xlink">
<g><path style="opacity:0.938" fill="#047857" d="M 511.5,298.5 C 511.5,305.167 511.5,311.833 511.5,318.5C 508.455,329.732 502.455,339.232 493.5,347C 452.5,381.167 411.5,415.333 370.5,449.5C 368.669,462.817 366.835,476.15 365,489.5C 362.732,497.435 357.565,502.268 349.5,504C 321.167,504.667 292.833,504.667 264.5,504C 261.287,503.394 258.287,502.227 255.5,500.5C 252.713,502.227 249.713,503.394 246.5,504C 218.167,504.667 189.833,504.667 161.5,504C 153.862,502.363 148.695,497.863 146,490.5C 144.246,476.803 142.413,463.137 140.5,449.5C 99.5,415.333 58.5,381.167 17.5,347C 8.54464,339.232 2.54464,329.732 -0.5,318.5C -0.5,311.833 -0.5,305.167 -0.5,298.5C 5.42373,273.727 10.9237,248.727 16,223.5C 22.2372,208.298 33.4039,202.464 49.5,206C 61.9981,210.662 67.9981,219.662 67.5,233C 65.679,254.389 63.3456,275.723 60.5,297C 60.8333,297.833 61.1667,298.667 61.5,299.5C 71.5,305.167 81.5,310.833 91.5,316.5C 92.521,315.998 92.6877,315.332 92,314.5C 86.9806,308.464 82.9806,301.797 80,294.5C 77.3916,275.695 85.2249,264.029 103.5,259.5C 103.333,181.166 103.5,102.833 104,24.5C 105.719,15.1141 111.219,9.2808 120.5,7C 210.5,6.33333 300.5,6.33333 390.5,7C 399.781,9.2808 405.281,15.1141 407,24.5C 407.667,94.5 407.667,164.5 407,234.5C 404.305,240.098 400.138,241.598 394.5,239C 393.299,238.097 392.465,236.931 392,235.5C 391.5,216.17 391.333,196.836 391.5,177.5C 371.164,177.333 350.831,177.5 330.5,178C 325.422,186.041 318.089,190.208 308.5,190.5C 304.546,189.387 300.546,188.887 296.5,189C 301.292,197.42 306.458,205.587 312,213.5C 314.29,222.789 310.79,226.622 301.5,225C 300.069,224.535 298.903,223.701 298,222.5C 293.584,214.667 288.918,207 284,199.5C 283.5,224.831 283.333,250.164 283.5,275.5C 314.835,275.667 346.168,275.5 377.5,275C 389.681,257.96 404.681,254.96 422.5,266C 432.661,277.382 434.161,289.882 427,303.5C 424.578,307.344 421.911,311.01 419,314.5C 418.312,315.332 418.479,315.998 419.5,316.5C 429.5,310.833 439.5,305.167 449.5,299.5C 449.833,298.667 450.167,297.833 450.5,297C 446.863,272.94 444.696,248.773 444,224.5C 451.361,206.376 464.195,200.876 482.5,208C 486.667,210.833 490.167,214.333 493,218.5C 499.378,245.242 505.545,271.908 511.5,298.5 Z M 123.5,22.5 C 158.167,22.5 192.833,22.5 227.5,22.5C 227.333,43.1694 227.5,63.836 228,84.5C 231.42,88.7532 235.587,89.5865 240.5,87C 241.46,85.5806 242.293,84.0806 243,82.5C 243.5,62.5028 243.667,42.5028 243.5,22.5C 251.5,22.5 259.5,22.5 267.5,22.5C 267.833,49.5082 267.5,76.5082 266.5,103.5C 251.037,98.8225 238.537,102.823 229,115.5C 218.859,109.837 208.026,107.337 196.5,108C 189.63,109.704 184.297,113.538 180.5,119.5C 160.178,120.5 139.844,120.833 119.5,120.5C 119.333,89.1649 119.5,57.8316 120,26.5C 120.69,24.6498 121.856,23.3164 123.5,22.5 Z M 283.5,22.5 C 318.92,22.0133 354.253,22.5133 389.5,24C 390.126,24.7504 390.626,25.5838 391,26.5C 391.5,57.8316 391.667,89.1649 391.5,120.5C 371.156,120.833 350.822,120.5 330.5,119.5C 322.34,108.502 311.673,105.002 298.5,109C 293.65,110.838 288.817,112.672 284,114.5C 283.5,83.8351 283.333,53.1685 283.5,22.5 Z M 248.5,118.5 C 253.179,118.334 257.845,118.501 262.5,119C 264.667,119.833 266.167,121.333 267,123.5C 267.667,140.5 267.667,157.5 267,174.5C 265.891,176.815 264.057,178.315 261.5,179C 257.5,179.667 253.5,179.667 249.5,179C 246.943,178.315 245.109,176.815 244,174.5C 243.333,157.5 243.333,140.5 244,123.5C 245.025,121.313 246.525,119.646 248.5,118.5 Z M 199.5,123.5 C 208.83,124.942 217.83,127.609 226.5,131.5C 227.499,143.148 227.832,154.814 227.5,166.5C 219.196,169.156 210.863,171.823 202.5,174.5C 199.128,173.731 196.295,172.065 194,169.5C 192.393,156.904 192.059,144.237 193,131.5C 194.305,128.039 196.471,125.372 199.5,123.5 Z M 305.5,123.5 C 311.347,122.84 315.513,125.173 318,130.5C 318.942,143.57 318.609,156.57 317,169.5C 314.705,172.065 311.872,173.731 308.5,174.5C 300.137,171.823 291.804,169.156 283.5,166.5C 283.168,154.814 283.501,143.148 284.5,131.5C 291.599,128.805 298.599,126.138 305.5,123.5 Z M 119.5,136.5 C 138.5,136.5 157.5,136.5 176.5,136.5C 176.5,144.833 176.5,153.167 176.5,161.5C 157.5,161.5 138.5,161.5 119.5,161.5C 119.5,153.167 119.5,144.833 119.5,136.5 Z M 334.5,136.5 C 353.5,136.5 372.5,136.5 391.5,136.5C 391.5,144.833 391.5,153.167 391.5,161.5C 372.5,161.5 353.5,161.5 334.5,161.5C 334.5,153.167 334.5,144.833 334.5,136.5 Z M 214.5,188.5 C 209.845,197.141 204.679,205.474 199,213.5C 197.154,224.16 201.32,227.66 211.5,224C 216.792,215.918 221.958,207.751 227,199.5C 227.5,224.831 227.667,250.164 227.5,275.5C 196.165,275.667 164.832,275.5 133.5,275C 129.978,269.978 125.645,265.811 120.5,262.5C 119.5,234.175 119.167,205.841 119.5,177.5C 139.836,177.333 160.169,177.5 180.5,178C 185.475,185.905 192.642,190.072 202,190.5C 206.086,189.551 210.253,188.884 214.5,188.5 Z M 243.5,194.5 C 251.5,195.833 259.5,195.833 267.5,194.5C 267.5,221.5 267.5,248.5 267.5,275.5C 259.5,275.5 251.5,275.5 243.5,275.5C 243.5,248.5 243.5,221.5 243.5,194.5 Z M 40.5,220.5 C 48.1661,221.496 51.8327,225.83 51.5,233.5C 49.1967,256.897 46.5301,280.23 43.5,303.5C 44.5437,307.379 46.8771,310.212 50.5,312C 71.8333,324 93.1667,336 114.5,348C 121.581,360.83 128.914,373.497 136.5,386C 143.331,388.526 147.664,386.193 149.5,379C 143.121,365.615 136.288,352.448 129,339.5C 117.61,323.775 106.61,307.775 96,291.5C 94.3522,284.296 96.8522,279.129 103.5,276C 106.964,275.183 110.298,275.517 113.5,277C 128.833,294.667 144.167,312.333 159.5,330C 176.619,337.392 193.619,345.059 210.5,353C 226.043,362.58 235.21,376.414 238,394.5C 241.59,424.809 244.59,455.143 247,485.5C 246.167,486.333 245.333,487.167 244.5,488C 217.08,488.982 189.747,488.649 162.5,487C 160.042,471.511 157.542,456.011 155,440.5C 110.374,403.543 66.0403,366.209 22,328.5C 15.9653,320.086 13.9653,310.752 16,300.5C 21.1609,275.359 26.8276,250.359 33,225.5C 35.1699,223.177 37.6699,221.51 40.5,220.5 Z M 468.5,220.5 C 474.664,221.164 478.497,224.498 480,230.5C 484.872,253.861 489.872,277.195 495,300.5C 497.035,310.752 495.035,320.086 489,328.5C 444.96,366.209 400.626,403.543 356,440.5C 353.458,456.011 350.958,471.511 348.5,487C 321.253,488.649 293.92,488.982 266.5,488C 264.167,486.667 263.167,484.667 263.5,482C 266.667,452.834 269.833,423.667 273,394.5C 275.79,376.414 284.957,362.58 300.5,353C 317.381,345.059 334.381,337.392 351.5,330C 366.833,312.333 382.167,294.667 397.5,277C 405.403,273.705 411.236,275.871 415,283.5C 415.667,286.167 415.667,288.833 415,291.5C 404.39,307.775 393.39,323.775 382,339.5C 374.712,352.448 367.879,365.615 361.5,379C 363.336,386.193 367.669,388.526 374.5,386C 382.086,373.497 389.419,360.83 396.5,348C 420.241,335.383 443.407,321.883 466,307.5C 466.402,306.128 466.902,304.795 467.5,303.5C 464.47,280.23 461.803,256.897 459.5,233.5C 459.021,226.661 462.021,222.328 468.5,220.5 Z M 147.5,291.5 C 219.332,290.334 291.332,290.168 363.5,291C 356.167,299.667 348.833,308.333 341.5,317C 321.802,324.684 302.802,333.684 284.5,344C 266.745,359.01 257.078,378.177 255.5,401.5C 253.191,373.029 239.858,351.529 215.5,337C 200.167,330.333 184.833,323.667 169.5,317C 162.302,308.308 154.968,299.808 147.5,291.5 Z"/></g>
</svg>
