<svg width="16" height="20" viewBox="0 0 16 20" fill="none" xmlns="http://www.w3.org/2000/svg">
<path d="M8.31543 9.85498C8.79004 9.85498 9.16797 9.47705 9.16797 8.99365C9.16797 8.75635 9.08008 8.56299 8.92188 8.40479L6.53125 6.03174C6.98828 5.95264 7.51562 5.90869 8.08691 5.90869C11.4707 5.90869 14.1689 8.61572 14.1689 12.0347C14.1689 15.4272 11.4531 18.1519 8.06055 18.1519C4.67676 18.1519 1.95215 15.4272 1.95215 12.0347C1.95215 11.5073 1.60938 11.1294 1.09961 11.1294C0.572266 11.1294 0.203125 11.5073 0.203125 12.0347C0.203125 16.394 3.70996 19.9009 8.06055 19.9009C12.4199 19.9009 15.918 16.394 15.918 12.0347C15.918 7.67529 12.4375 4.19482 8.08691 4.19482C7.67383 4.19482 7.25195 4.22998 6.83008 4.2915L8.93066 2.23486C9.08008 2.06787 9.16797 1.87451 9.16797 1.63721C9.16797 1.15381 8.79883 0.758301 8.31543 0.758301C8.06055 0.758301 7.8584 0.846191 7.7002 1.02197L4.09668 4.68701C3.91211 4.86279 3.82422 5.09131 3.82422 5.32861C3.82422 5.57471 3.90332 5.78564 4.09668 5.979L7.70898 9.60889C7.8584 9.77588 8.06055 9.85498 8.31543 9.85498Z" fill="#27962D"/>
</svg>
