<svg width="18" height="18" viewBox="0 0 18 18" fill="none" xmlns="http://www.w3.org/2000/svg">
<g id="icon-park-outline:doc-success">
<g id="Group">
<path id="Vector" d="M6.375 11.25H11.625M6.375 13.5H9M14.25 1.5H3.75C3.55109 1.5 3.36032 1.57902 3.21967 1.71967C3.07902 1.86032 3 2.05109 3 2.25V15.75C3 15.9489 3.07902 16.1397 3.21967 16.2803C3.36032 16.421 3.55109 16.5 3.75 16.5H14.25C14.4489 16.5 14.6397 16.421 14.7803 16.2803C14.921 16.1397 15 15.9489 15 15.75V2.25C15 2.05109 14.921 1.86032 14.7803 1.71967C14.6397 1.57902 14.4489 1.5 14.25 1.5Z" stroke="#676D75" stroke-width="1.3" stroke-linecap="round" stroke-linejoin="round"/>
<path id="Vector_2" d="M11.25 4.875L8.25 7.875L6.75 6.375" stroke="#676D75" stroke-width="1.3" stroke-linecap="round" stroke-linejoin="round"/>
</g>
</g>
</svg>
