<svg width="19" height="18" viewBox="0 0 19 18" fill="none" xmlns="http://www.w3.org/2000/svg">
<path d="M6.875 11.25H12.125M6.875 13.5H9.5M14.75 1.5H4.25C4.05109 1.5 3.86032 1.57902 3.71967 1.71967C3.57902 1.86032 3.5 2.05109 3.5 2.25V15.75C3.5 15.9489 3.57902 16.1397 3.71967 16.2803C3.86032 16.421 4.05109 16.5 4.25 16.5H14.75C14.9489 16.5 15.1397 16.421 15.2803 16.2803C15.421 16.1397 15.5 15.9489 15.5 15.75V2.25C15.5 2.05109 15.421 1.86032 15.2803 1.71967C15.1397 1.57902 14.9489 1.5 14.75 1.5Z" stroke="#005B40" stroke-width="1.3" stroke-linecap="round" stroke-linejoin="round"/>
<path d="M11.75 4.875L8.75 7.875L7.25 6.375" stroke="#005B40" stroke-width="1.3" stroke-linecap="round" stroke-linejoin="round"/>
</svg>
