<svg width="24" height="24" viewBox="0 0 24 24" fill="none" xmlns="http://www.w3.org/2000/svg">
<path d="M14.25 1.5C15.2295 1.5 16.0635 2.12625 16.3725 3H17.625C18.3212 3 18.9889 3.27656 19.4812 3.76885C19.9734 4.26113 20.25 4.92881 20.25 5.625V19.875C20.25 20.5712 19.9734 21.2389 19.4812 21.7312C18.9889 22.2234 18.3212 22.5 17.625 22.5H6.375C5.67881 22.5 5.01113 22.2234 4.51884 21.7312C4.02656 21.2389 3.75 20.5712 3.75 19.875V5.625C3.75 4.92881 4.02656 4.26113 4.51884 3.76885C5.01113 3.27656 5.67881 3 6.375 3H7.6275C7.78266 2.56113 8.07012 2.18119 8.45026 1.91254C8.8304 1.64389 9.28451 1.49976 9.75 1.5H14.25ZM9.75 3C9.55109 3 9.36032 3.07902 9.21967 3.21967C9.07902 3.36032 9 3.55109 9 3.75C9 3.94891 9.07902 4.13968 9.21967 4.28033C9.36032 4.42098 9.55109 4.5 9.75 4.5H14.25C14.4489 4.5 14.6397 4.42098 14.7803 4.28033C14.921 4.13968 15 3.94891 15 3.75C15 3.55109 14.921 3.36032 14.7803 3.21967C14.6397 3.07902 14.4489 3 14.25 3H9.75ZM6.375 4.5C6.07663 4.5 5.79048 4.61853 5.5795 4.82951C5.36853 5.04048 5.25 5.32663 5.25 5.625V19.875C5.25 20.1734 5.36853 20.4595 5.5795 20.6705C5.79048 20.8815 6.07663 21 6.375 21H17.625C17.9234 21 18.2095 20.8815 18.4205 20.6705C18.6315 20.4595 18.75 20.1734 18.75 19.875V5.625C18.75 5.32663 18.6315 5.04048 18.4205 4.82951C18.2095 4.61853 17.9234 4.5 17.625 4.5H16.3725C16.2173 4.93887 15.9299 5.31881 15.5497 5.58746C15.1696 5.85611 14.7155 6.00024 14.25 6H9.75C9.28451 6.00024 8.8304 5.85611 8.45026 5.58746C8.07012 5.31881 7.78266 4.93887 7.6275 4.5H6.375ZM12 9C11.6022 9 11.2206 9.15804 10.9393 9.43934C10.658 9.72064 10.5 10.1022 10.5 10.5C10.5 10.8978 10.658 11.2794 10.9393 11.5607C11.2206 11.842 11.6022 12 12 12C12.3978 12 12.7794 11.842 13.0607 11.5607C13.342 11.2794 13.5 10.8978 13.5 10.5C13.5 10.1022 13.342 9.72064 13.0607 9.43934C12.7794 9.15804 12.3978 9 12 9ZM9 10.5C9 9.70435 9.31607 8.94129 9.87868 8.37868C10.4413 7.81607 11.2044 7.5 12 7.5C12.7956 7.5 13.5587 7.81607 14.1213 8.37868C14.6839 8.94129 15 9.70435 15 10.5C15 11.2956 14.6839 12.0587 14.1213 12.6213C13.5587 13.1839 12.7956 13.5 12 13.5C11.2044 13.5 10.4413 13.1839 9.87868 12.6213C9.31607 12.0587 9 11.2956 9 10.5ZM8.625 16.1925C8.625 15.9488 8.82375 15.75 9.0675 15.75H14.9325C15.1762 15.75 15.375 15.9488 15.375 16.1925C15.375 16.731 15.1192 17.145 14.571 17.4615C13.9897 17.7975 13.1048 18 12 18C10.8952 18 10.0102 17.7975 9.429 17.4615C8.8815 17.1442 8.625 16.7303 8.625 16.1925ZM9.0675 14.2507C8.55232 14.2507 8.05823 14.4554 7.69395 14.8197C7.32966 15.184 7.125 15.6781 7.125 16.1932C7.125 17.3602 7.75275 18.2257 8.6775 18.7605C9.57 19.2765 10.7475 19.5007 12 19.5007C13.2525 19.5007 14.43 19.2765 15.3225 18.7605C16.2473 18.2257 16.875 17.3602 16.875 16.194C16.8752 15.9388 16.8251 15.686 16.7276 15.4502C16.63 15.2143 16.487 15 16.3066 14.8195C16.1262 14.6389 15.912 14.4957 15.6762 14.398C15.4404 14.3003 15.1877 14.25 14.9325 14.25L9.0675 14.2507Z" fill="#676D75"/>
</svg>
