<?xml version="1.0" encoding="UTF-8"?>
<!DOCTYPE svg PUBLIC "-//W3C//DTD SVG 1.1//EN" "http://www.w3.org/Graphics/SVG/1.1/DTD/svg11.dtd">
<svg xmlns="http://www.w3.org/2000/svg" version="1.1" width="512px" height="512px" style="shape-rendering:geometricPrecision; text-rendering:geometricPrecision; image-rendering:optimizeQuality; fill-rule:evenodd; clip-rule:evenodd" xmlns:xlink="http://www.w3.org/1999/xlink">
<g><path style="opacity:0.989" fill="#047857" d="M 32.5,15.5 C 53.1694,15.3334 73.836,15.5 94.5,16C 101.882,18.5471 107.215,23.3805 110.5,30.5C 128.824,31.333 147.158,31.833 165.5,32C 170,33.8333 173.167,37 175,41.5C 175.5,160.833 175.667,280.166 175.5,399.5C 186.167,399.5 196.833,399.5 207.5,399.5C 207.333,336.166 207.5,272.832 208,209.5C 209.833,205 213,201.833 217.5,200C 290.833,199.333 364.167,199.333 437.5,200C 442,201.833 445.167,205 447,209.5C 447.5,272.832 447.667,336.166 447.5,399.5C 462.93,399.032 478.263,399.532 493.5,401C 494.126,401.75 494.626,402.584 495,403.5C 495.667,416.833 495.667,430.167 495,443.5C 494.5,445.333 493.333,446.5 491.5,447C 481.151,447.168 470.817,447.668 460.5,448.5C 466.35,463.211 464.016,476.378 453.5,488C 440.815,496.794 427.482,497.794 413.5,491C 399.348,479.688 395.681,465.521 402.5,448.5C 352.5,447.167 302.5,447.167 252.5,448.5C 259.319,465.521 255.652,479.688 241.5,491C 227.518,497.794 214.185,496.794 201.5,488C 190.984,476.378 188.65,463.211 194.5,448.5C 181.513,447.667 168.513,447.167 155.5,447C 146.363,438.864 137.53,430.364 129,421.5C 127.504,296.914 127.004,172.248 127.5,47.5C 121.794,47.1712 116.128,47.5046 110.5,48.5C 107.215,55.6195 101.882,60.4529 94.5,63C 72.7693,63.9667 51.1027,63.6333 29.5,62C 14.9547,53.1575 11.4547,40.9908 19,25.5C 22.5795,20.7307 27.0795,17.3974 32.5,15.5 Z M 39.5,31.5 C 55.5035,31.3334 71.5035,31.5001 87.5,32C 94.5915,34.1593 96.2582,38.4926 92.5,45C 90.913,45.8624 89.2464,46.5291 87.5,47C 71.5,47.6667 55.5,47.6667 39.5,47C 32.6531,45.1344 30.8197,40.9677 34,34.5C 35.8761,33.3913 37.7095,32.3913 39.5,31.5 Z M 143.5,47.5 C 148.833,47.5 154.167,47.5 159.5,47.5C 159.004,169.581 159.504,291.581 161,413.5C 161.75,414.126 162.584,414.626 163.5,415C 268.833,415.5 374.166,415.667 479.5,415.5C 479.5,420.833 479.5,426.167 479.5,431.5C 374.166,431.667 268.833,431.5 163.5,431C 157,424.5 150.5,418 144,411.5C 143.5,290.167 143.333,168.834 143.5,47.5 Z M 223.5,215.5 C 244.833,215.5 266.167,215.5 287.5,215.5C 287.5,220.833 287.5,226.167 287.5,231.5C 266.167,231.5 244.833,231.5 223.5,231.5C 223.5,226.167 223.5,220.833 223.5,215.5 Z M 303.5,215.5 C 319.5,215.5 335.5,215.5 351.5,215.5C 351.5,242.167 351.5,268.833 351.5,295.5C 335.5,295.5 319.5,295.5 303.5,295.5C 303.5,268.833 303.5,242.167 303.5,215.5 Z M 367.5,215.5 C 388.833,215.5 410.167,215.5 431.5,215.5C 431.5,220.833 431.5,226.167 431.5,231.5C 410.167,231.5 388.833,231.5 367.5,231.5C 367.5,226.167 367.5,220.833 367.5,215.5 Z M 223.5,247.5 C 244.833,247.5 266.167,247.5 287.5,247.5C 287.5,252.833 287.5,258.167 287.5,263.5C 266.167,263.5 244.833,263.5 223.5,263.5C 223.5,258.167 223.5,252.833 223.5,247.5 Z M 367.5,247.5 C 388.833,247.5 410.167,247.5 431.5,247.5C 431.5,252.833 431.5,258.167 431.5,263.5C 410.167,263.5 388.833,263.5 367.5,263.5C 367.5,258.167 367.5,252.833 367.5,247.5 Z M 223.5,279.5 C 244.833,279.5 266.167,279.5 287.5,279.5C 287.334,286.841 287.5,294.174 288,301.5C 289.833,306 293,309.167 297.5,311C 317.5,311.667 337.5,311.667 357.5,311C 362,309.167 365.167,306 367,301.5C 367.5,294.174 367.666,286.841 367.5,279.5C 388.833,279.5 410.167,279.5 431.5,279.5C 431.5,319.5 431.5,359.5 431.5,399.5C 362.167,399.5 292.833,399.5 223.5,399.5C 223.5,359.5 223.5,319.5 223.5,279.5 Z M 218.5,448.5 C 235.765,448.257 241.598,456.257 236,472.5C 229.749,479.011 222.582,480.177 214.5,476C 207.989,469.749 206.823,462.582 211,454.5C 213.114,451.879 215.614,449.879 218.5,448.5 Z M 426.5,448.5 C 443.765,448.257 449.598,456.257 444,472.5C 437.749,479.011 430.582,480.177 422.5,476C 415.989,469.749 414.823,462.582 419,454.5C 421.114,451.879 423.614,449.879 426.5,448.5 Z"/></g>
<g><path style="opacity:1" fill="#047857" d="M 351.5,367.5 C 356.833,367.5 362.167,367.5 367.5,367.5C 367.5,372.833 367.5,378.167 367.5,383.5C 362.167,383.5 356.833,383.5 351.5,383.5C 351.5,378.167 351.5,372.833 351.5,367.5 Z"/></g>
<g><path style="opacity:1" fill="#047857" d="M 383.5,367.5 C 394.167,367.5 404.833,367.5 415.5,367.5C 415.5,372.833 415.5,378.167 415.5,383.5C 404.833,383.5 394.167,383.5 383.5,383.5C 383.5,378.167 383.5,372.833 383.5,367.5 Z"/></g>
</svg>
