<svg width="36" height="33" viewBox="0 0 36 33" fill="none" xmlns="http://www.w3.org/2000/svg">
<path d="M20.9232 18.035C21.5308 18.035 22.0232 17.5425 22.0232 16.935C22.0232 16.3274 21.5308 15.835 20.9232 15.835C20.3157 15.835 19.8232 16.3274 19.8232 16.935C19.8232 17.5425 20.3157 18.035 20.9232 18.035Z" fill="#FF4D63"/>
<path d="M8.06738 8.54712C11.2299 4.05545 17.4174 1.97003 22.6882 3.5742C25.3236 4.35337 27.6611 5.95753 29.4257 8.04295C34.0549 13.4513 34.032 21.5867 29.0591 26.7888C26.6986 29.3096 23.3528 30.845 19.8924 31.0513C16.4778 31.2575 12.9945 30.1346 10.382 27.9117C20.2132 34.7409 33.3903 27.6138 32.382 15.445C32.107 12.7867 31.0299 10.1971 29.2653 8.18045C25.759 4.1242 19.7778 2.58878 14.6903 4.21587C13.4299 4.60545 12.2153 5.20128 11.0924 5.93462C9.99238 6.66795 8.98405 7.58462 8.0903 8.59295L8.06738 8.54712Z" fill="#155146"/>
<path d="M17.0272 11.7556C16.7293 11.7556 16.4085 11.7098 16.1105 11.5952C15.423 11.3431 14.8501 10.8618 14.5293 10.1973L14.9189 9.99102C15.1939 10.541 15.6751 10.9764 16.248 11.1827C16.821 11.3889 17.4397 11.3431 17.9897 11.091C19.1126 10.541 19.571 9.1431 18.998 7.99727L19.3876 7.79102C20.0751 9.16602 19.5251 10.816 18.173 11.4806C17.8293 11.6639 17.4168 11.7556 17.0272 11.7556Z" fill="#FFC35A"/>
<path d="M12.2838 17.7365C12.0775 17.7365 11.8713 17.7136 11.665 17.6678L11.7567 17.2324C11.9171 17.2782 12.1005 17.2782 12.2609 17.2782C13.315 17.2782 14.2775 16.5678 14.5067 15.5136C14.6442 14.9178 14.5296 14.3219 14.1859 13.7949C13.8421 13.2907 13.315 12.924 12.7192 12.7865L12.8338 12.374C13.5671 12.5344 14.1859 12.9469 14.5755 13.5657C14.988 14.1844 15.1255 14.9178 14.965 15.6053C14.69 16.8886 13.5442 17.7365 12.2838 17.7365Z" fill="#FFC35A"/>
<path d="M15.7442 24.5886L15.4692 24.2449C16.4775 23.4428 16.638 21.9761 15.8588 21.0136C15.4692 20.5324 14.9421 20.2574 14.3234 20.1886C13.7046 20.1428 13.1088 20.3261 12.6275 20.7157L12.3525 20.372C12.9255 19.9136 13.6359 19.6845 14.3692 19.7532C15.1025 19.822 15.7442 20.1657 16.2025 20.7386C17.1421 21.8845 16.9359 23.6261 15.7442 24.5886Z" fill="#FFC35A"/>
<path d="M18.2425 25.7568C18.2196 24.2214 19.4342 22.9839 20.9467 22.9609H20.9696C22.4592 22.9609 23.6738 24.1984 23.6738 25.7109H23.2383C23.2383 24.4276 22.2071 23.3964 20.9696 23.3964C20.9696 23.3964 20.9696 23.3964 20.9467 23.3964C19.6863 23.3964 18.6779 24.4505 18.7008 25.7339L18.2425 25.7568Z" fill="#FFC35A"/>
<path d="M26.1485 24.4738C24.9569 23.5342 24.7277 21.7926 25.6444 20.6238C26.1027 20.0509 26.7444 19.6842 27.4777 19.6155C28.211 19.5467 28.9215 19.753 29.5173 20.2113L29.2423 20.5551C28.761 20.1655 28.1423 20.0051 27.5235 20.0509C26.9048 20.1196 26.3777 20.4176 25.9881 20.8988C25.209 21.8842 25.4152 23.328 26.4235 24.1301L26.1485 24.4738Z" fill="#FFC35A"/>
<path d="M29.4485 17.5984C28.9443 17.5984 28.4401 17.4609 28.0047 17.2088C27.386 16.8192 26.9276 16.2234 26.7672 15.5359C26.4235 14.0692 27.3631 12.6025 28.8526 12.2588L28.9443 12.6942C27.6839 12.9921 26.9047 14.2296 27.2026 15.4442C27.3401 16.04 27.7068 16.5213 28.2339 16.8421C28.761 17.163 29.3797 17.2546 29.9985 17.1171L30.0901 17.5525C29.8839 17.5525 29.6547 17.5984 29.4485 17.5984Z" fill="#FFC35A"/>
<path d="M24.6132 11.6863C24.2236 11.6863 23.8341 11.5947 23.4674 11.4342C22.1153 10.7926 21.5424 9.14258 22.207 7.76758L22.6195 7.95091C22.0695 9.11966 22.5507 10.4947 23.6736 11.0217C24.2236 11.2738 24.8424 11.2967 25.4153 11.0905C25.9882 10.8842 26.4466 10.4488 26.7216 9.87591L27.1341 10.0592C26.8132 10.7238 26.2632 11.228 25.5757 11.4801C25.232 11.6405 24.9111 11.6863 24.6132 11.6863Z" fill="#FFC35A"/>
<path d="M17.0049 10.9077C16.7986 10.9077 16.5924 10.8618 16.3861 10.7931C15.9049 10.6327 15.5153 10.266 15.2861 9.80768L15.4695 9.71602C15.6757 10.1285 16.0195 10.4493 16.4549 10.5868C16.8903 10.7473 17.3486 10.7014 17.7382 10.5181C18.5632 10.1056 18.907 9.07435 18.4945 8.22643L18.6778 8.13477C19.1361 9.09727 18.7695 10.2431 17.8528 10.7014C17.5549 10.8389 17.2799 10.9077 17.0049 10.9077Z" fill="#FFC35A"/>
<path d="M12.284 16.9113C12.1465 16.9113 12.009 16.8883 11.8486 16.8654L11.8945 16.6821C12.3528 16.7738 12.8111 16.705 13.2007 16.4529C13.5903 16.2238 13.8424 15.8342 13.957 15.3988C14.0486 14.9633 13.9799 14.505 13.7278 14.1383C13.4757 13.7488 13.0861 13.4967 12.6507 13.405L12.6965 13.2217C13.2007 13.3363 13.6361 13.6342 13.9111 14.0467C14.1861 14.4821 14.2778 14.9863 14.1861 15.4675C14.0715 15.9488 13.7736 16.3842 13.3611 16.6363C12.9945 16.7967 12.6278 16.9113 12.284 16.9113Z" fill="#FFC35A"/>
<path d="M15.2169 23.9245L15.1023 23.764C15.8356 23.1682 15.9731 22.0911 15.3773 21.3807C14.8044 20.6703 13.7273 20.5557 12.971 21.1515L12.8564 20.9911C13.6814 20.3265 14.8731 20.4411 15.5377 21.2432C16.1794 22.0682 16.0419 23.2599 15.2169 23.9245Z" fill="#FFC35A"/>
<path d="M19.0898 25.735C19.0898 24.6809 19.9148 23.81 20.9461 23.7871C20.9461 23.7871 20.9461 23.7871 20.969 23.7871C21.4732 23.7871 21.9315 23.9934 22.2982 24.3371C22.6648 24.7038 22.8482 25.185 22.8482 25.6892H22.6419C22.6419 25.2309 22.4586 24.7954 22.1378 24.4746C21.8169 24.1538 21.4044 23.9704 20.969 23.9704C20.969 23.9704 20.969 23.9704 20.9461 23.9704C20.0294 23.9704 19.2732 24.7496 19.2732 25.7121L19.0898 25.735Z" fill="#FFC35A"/>
<path d="M26.6754 23.8315C26.2629 23.5107 26.0108 23.0523 25.9421 22.5482C25.8733 22.044 26.0109 21.5398 26.3317 21.1502C26.9734 20.3252 28.165 20.2107 29.0129 20.8523L28.8983 21.0127C28.1421 20.4169 27.065 20.5315 26.4921 21.2648C26.2171 21.6086 26.1025 22.0669 26.1484 22.5023C26.2171 22.9607 26.4463 23.3502 26.8129 23.6482L26.6754 23.8315Z" fill="#FFC35A"/>
<path d="M29.448 16.7516C29.1042 16.7516 28.7605 16.6599 28.4626 16.4766C28.0272 16.2245 27.7292 15.7891 27.6147 15.3078C27.5001 14.8266 27.5917 14.3224 27.8667 13.887C28.1417 13.4516 28.5542 13.1536 29.0584 13.0391L29.1042 13.2224C28.6459 13.337 28.2792 13.5891 28.0272 13.9786C27.7751 14.3682 27.7063 14.8036 27.798 15.262C27.8897 15.6974 28.1647 16.0641 28.5542 16.2932C28.9438 16.5224 29.4022 16.5911 29.8605 16.4995L29.9063 16.6828C29.7459 16.7286 29.6084 16.7516 29.448 16.7516Z" fill="#FFC35A"/>
<path d="M24.6127 10.8384C24.3377 10.8384 24.0856 10.7926 23.8335 10.6551C22.8939 10.2197 22.5043 9.07383 22.9627 8.11133L23.146 8.20299C22.7335 9.07383 23.0772 10.0822 23.9252 10.4947C24.7731 10.8842 25.7814 10.5176 26.1939 9.64674L26.3772 9.73841C26.0106 10.4259 25.3231 10.8384 24.6127 10.8384Z" fill="#FFC35A"/>
<path d="M25.8734 14.4824C25.8275 14.5512 25.8046 14.6428 25.7588 14.7116C26.0567 15.3762 26.2171 16.1095 26.2171 16.797C26.2859 16.8428 26.3546 16.9116 26.4234 16.9574C26.4234 16.1324 26.24 15.2845 25.8734 14.4824Z" fill="#FFC35A"/>
<path d="M16.0198 14.7116C15.974 14.6428 15.9511 14.5512 15.9052 14.4824C15.5386 15.2616 15.3323 16.1095 15.3552 16.9803C15.424 16.9345 15.4927 16.8658 15.5615 16.8199C15.5615 16.0866 15.7219 15.3762 16.0198 14.7116Z" fill="#FFC35A"/>
<path d="M22.1844 11.7321C22.8948 11.9154 23.5823 12.2363 24.1552 12.6946C24.2469 12.6717 24.3156 12.6488 24.4073 12.6488C23.7198 12.0758 22.9177 11.6863 22.0469 11.5029C22.0927 11.5717 22.1385 11.6404 22.1844 11.7321Z" fill="#FFC35A"/>
<path d="M17.6242 12.6717C17.8075 12.5342 18.0137 12.3967 18.22 12.2821C18.6554 12.03 19.1367 11.8467 19.595 11.7321C19.6408 11.6633 19.6637 11.5717 19.7096 11.5029C19.1596 11.6175 18.6325 11.8238 18.1054 12.1217C17.8304 12.2821 17.6012 12.4425 17.3721 12.6258C17.4637 12.6258 17.5325 12.6488 17.6242 12.6717Z" fill="#FFC35A"/>
<path d="M25.6217 19.3637C25.3008 19.9824 24.8654 20.5324 24.3154 20.9908C24.3154 21.0824 24.3154 21.1741 24.3154 21.2428C25.0029 20.7158 25.53 20.0283 25.8967 19.2949C25.7821 19.3408 25.6904 19.3637 25.6217 19.3637Z" fill="#FFC35A"/>
<path d="M21.9089 22.1362C21.5651 22.2049 21.2214 22.2279 20.8776 22.2279C20.5109 22.2279 20.1672 22.182 19.8234 22.1133C19.7547 22.1591 19.6859 22.2279 19.6172 22.2737C20.0297 22.3654 20.4422 22.4112 20.8776 22.4112C21.2901 22.4112 21.7026 22.3654 22.1151 22.2737C22.0464 22.2508 21.9776 22.2049 21.9089 22.1362Z" fill="#FFC35A"/>
<path d="M17.4636 20.9908C17.0053 20.6012 16.5928 20.1199 16.2719 19.5699C16.2261 19.5012 16.1803 19.4324 16.1574 19.3637C16.0657 19.3408 15.9969 19.3178 15.9053 19.2949C15.974 19.4324 16.0199 19.547 16.1115 19.6616C16.4782 20.2803 16.9365 20.8303 17.4865 21.2428C17.4636 21.1741 17.4636 21.0824 17.4636 20.9908Z" fill="#FFC35A"/>
<path d="M20.8788 16.0855C19.8704 16.0855 18.7934 15.4439 18.7246 14.046C18.7246 14.0001 18.7246 13.9772 18.7246 13.9314C18.7246 12.0064 20.6267 9.62305 20.6954 9.50846L20.8788 9.2793L21.0621 9.50846C21.1538 9.60013 23.0329 12.0064 23.0329 13.9314C23.0329 13.9772 23.0329 14.0001 23.0329 14.046C22.9871 15.4439 21.8871 16.0855 20.8788 16.0855ZM20.8788 10.0355C20.4204 10.6772 19.1829 12.5105 19.1829 13.9543C19.1829 13.9772 19.1829 14.023 19.1829 14.046C19.2288 15.146 20.0996 15.6501 20.8788 15.6501C21.6809 15.6501 22.5517 15.146 22.5746 14.046C22.5746 14.023 22.5746 13.9772 22.5746 13.9543C22.5975 12.5105 21.3371 10.6772 20.8788 10.0355Z" fill="#FFC35A"/>
<path d="M18.5412 17.2545C18.1287 17.2545 17.6933 17.117 17.2808 16.8191C17.2579 16.7962 17.235 16.7732 17.1891 16.7503C15.6995 15.5587 14.9891 12.5795 14.9662 12.442L14.8975 12.167H15.1725C15.31 12.167 18.3579 12.1899 19.8704 13.3816C19.8933 13.4045 19.9162 13.4274 19.962 13.4503C21.0162 14.367 20.8329 15.6274 20.2141 16.4066C19.8475 16.8878 19.2287 17.2545 18.5412 17.2545ZM15.4933 12.6253C15.6995 13.3816 16.3641 15.5128 17.487 16.4066C17.51 16.4295 17.5329 16.4524 17.5558 16.4524C18.4495 17.117 19.3891 16.7503 19.8704 16.1316C20.3745 15.5128 20.512 14.5274 19.6641 13.7941C19.6412 13.7712 19.6183 13.7482 19.5954 13.7253C18.4954 12.8316 16.2725 12.6712 15.4933 12.6253Z" fill="#FFC35A"/>
<path d="M17.624 19.7754C15.8594 19.7754 13.7969 18.79 13.7052 18.7442L13.4531 18.6296L13.6365 18.4004C13.7281 18.3087 15.6531 15.9254 17.5094 15.49C17.5552 15.49 17.5781 15.4671 17.624 15.4671C18.999 15.215 19.8698 16.1317 20.099 17.1171C20.3281 18.0796 19.9385 19.2942 18.5865 19.6608C18.5406 19.6608 18.5177 19.6837 18.4719 19.6837C18.1969 19.7525 17.9219 19.7754 17.624 19.7754ZM14.1635 18.4462C14.8969 18.7671 16.9594 19.5692 18.3573 19.2483C18.3802 19.2483 18.426 19.2254 18.449 19.2254C19.526 18.9504 19.824 17.9879 19.6406 17.2087C19.4573 16.4296 18.7698 15.6962 17.6927 15.9025C17.6698 15.9025 17.624 15.9254 17.601 15.9254C16.1802 16.2462 14.6677 17.8733 14.1635 18.4462Z" fill="#FFC35A"/>
<path d="M17.5553 23.786L17.4866 23.511C17.4637 23.3735 16.7991 20.3943 17.6241 18.6756C17.647 18.6527 17.647 18.6068 17.6699 18.5839C18.3345 17.3464 19.5949 17.2548 20.4887 17.6902C21.3824 18.1256 22.0928 19.1798 21.5428 20.4631C21.5199 20.486 21.5199 20.5318 21.497 20.5548C20.672 22.2735 17.922 23.6256 17.7845 23.6714L17.5553 23.786ZM19.5262 17.8964C18.9762 17.8964 18.4262 18.1485 18.1053 18.7902C18.0824 18.8131 18.0824 18.836 18.0595 18.8818C17.4178 20.1652 17.7387 22.3652 17.8762 23.1443C18.5637 22.7777 20.4887 21.6548 21.1074 20.3714C21.1303 20.3485 21.1303 20.3256 21.1532 20.2798C21.5887 19.2714 21.0387 18.4235 20.3282 18.0798C20.0762 17.9652 19.8012 17.8964 19.5262 17.8964Z" fill="#FFC35A"/>
<path d="M24.1787 23.8086L23.9266 23.694C23.812 23.6482 21.062 22.2961 20.237 20.5545C20.2141 20.5315 20.2141 20.4857 20.1912 20.4628C19.6412 19.1795 20.3516 18.1253 21.2453 17.6899C22.1391 17.2545 23.4224 17.369 24.0641 18.6065C24.087 18.6295 24.087 18.6753 24.1099 18.6982C24.9349 20.417 24.2703 23.419 24.2474 23.5336L24.1787 23.8086ZM22.2308 17.8961C21.9558 17.8961 21.6808 17.9649 21.4287 18.0795C20.7183 18.4232 20.1453 19.2482 20.5808 20.2565C20.6037 20.2795 20.6037 20.3024 20.6266 20.3482C21.2453 21.6315 23.1474 22.7545 23.8578 23.144C23.9953 22.3649 24.3162 20.1649 23.6974 18.8815C23.6745 18.8586 23.6745 18.8357 23.6516 18.7899C23.3308 18.1482 22.7808 17.8961 22.2308 17.8961Z" fill="#FFC35A"/>
<path d="M24.1325 19.7754C23.8346 19.7754 23.5596 19.7525 23.3075 19.6837C23.2617 19.6837 23.2388 19.6608 23.1929 19.6608C21.8409 19.2942 21.4742 18.0796 21.6804 17.1171C21.9096 16.1546 22.7804 15.215 24.1554 15.49C24.2013 15.49 24.2242 15.5129 24.27 15.5129C26.1263 15.9483 28.0513 18.3317 28.1429 18.4233L28.3263 18.6525L28.0742 18.7671C27.9596 18.8129 25.8971 19.7754 24.1325 19.7754ZM23.72 15.8796C22.8492 15.8796 22.2992 16.5212 22.1388 17.2087C21.9554 17.9879 22.2534 18.9504 23.3304 19.2254C23.3534 19.2254 23.3992 19.2483 23.4221 19.2483C24.82 19.5692 26.8825 18.7671 27.6159 18.4692C27.0888 17.8733 25.5763 16.2462 24.1784 15.9254C24.1554 15.9254 24.1096 15.9025 24.0867 15.9025C23.9492 15.9025 23.8346 15.8796 23.72 15.8796Z" fill="#FFC35A"/>
<path d="M23.2158 17.255C22.5283 17.255 21.9324 16.8883 21.5428 16.4071C20.9241 15.6279 20.7408 14.3675 21.8178 13.4508C21.8408 13.4279 21.8637 13.405 21.9095 13.3821C23.3991 12.1904 26.4699 12.1904 26.6074 12.1904H26.8824L26.8137 12.4654C26.7908 12.6029 26.0803 15.5592 24.5678 16.7508C24.5449 16.7738 24.522 16.7967 24.4762 16.8196C24.0408 17.1404 23.6283 17.255 23.2158 17.255ZM26.2866 12.6488C25.5074 12.6717 23.2845 12.855 22.1616 13.7488C22.1387 13.7717 22.1158 13.7946 22.0929 13.8175C21.2449 14.5279 21.4053 15.5363 21.8866 16.155C22.3678 16.7738 23.3074 17.1404 24.2012 16.4988C24.2241 16.4758 24.247 16.4529 24.2699 16.4529C25.4158 15.5133 26.0803 13.405 26.2866 12.6488Z" fill="#FFC35A"/>
<path d="M20.9007 26.2383C17.6694 26.2383 14.5298 24.5654 12.8111 21.5633C10.2444 17.1175 11.7798 11.3883 16.2257 8.82162C18.3798 7.58412 20.9007 7.24037 23.3069 7.88204C25.7132 8.52371 27.7298 10.082 28.9673 12.2362C30.2048 14.3904 30.5486 16.9112 29.9069 19.3175C29.2652 21.7237 27.7069 23.7404 25.5527 24.9779C24.0861 25.8258 22.4819 26.2383 20.9007 26.2383ZM20.8777 8.06537C19.3423 8.06537 17.8298 8.47787 16.4777 9.25704C12.2382 11.6862 10.7944 17.0945 13.2236 21.3112C14.8507 24.1529 17.8298 25.7341 20.9007 25.7341C22.3902 25.7341 23.9257 25.3445 25.3007 24.5425C27.3402 23.3508 28.8069 21.4487 29.4257 19.18C30.0444 16.9112 29.7236 14.5279 28.5319 12.4654C27.3402 10.4258 25.4382 8.95912 23.1694 8.34037C22.4132 8.15704 21.634 8.06537 20.8777 8.06537Z" fill="#FFC35A"/>
<path d="M20.9008 26.9024C20.03 26.9024 19.1592 26.7879 18.2883 26.5587C15.7217 25.8712 13.5675 24.2212 12.2154 21.9066C10.9092 19.592 10.5425 16.8879 11.23 14.3212C11.9175 11.7316 13.5675 9.57744 15.8821 8.24827C20.6488 5.49827 26.7675 7.12536 29.5175 11.9149C30.8467 14.2295 31.2133 16.9108 30.5258 19.5004C29.8383 22.067 28.1883 24.2212 25.8738 25.5733C24.3383 26.4441 22.6196 26.9024 20.9008 26.9024ZM15.9967 8.43161C13.7279 9.73786 12.1008 11.8462 11.4363 14.367C10.7488 16.8879 11.1154 19.5233 12.4217 21.792C13.7279 24.0608 15.8363 25.6879 18.3571 26.3524C20.8779 27.0399 23.5133 26.6733 25.7821 25.367C28.0508 24.0608 29.6779 21.9524 30.3425 19.4316C31.03 16.9108 30.6633 14.2754 29.3571 12.0066C26.6529 7.33161 20.6717 5.72744 15.9967 8.43161Z" fill="#FFC35A"/>
<path d="M3.16197 11.756C3.2078 11.8706 3.27655 12.0081 3.29947 12.1227C3.50572 12.6727 3.52863 13.2915 3.39113 14.0019C3.23072 14.5748 3.3453 15.2623 3.8953 15.4456C4.0328 15.4915 4.21613 15.5144 4.37655 15.5144C4.60572 15.5144 4.8578 15.4685 4.9953 15.331C5.24738 15.0331 5.10988 14.5519 5.01822 14.2081C4.97238 14.0935 4.92655 13.956 4.88072 13.8415C4.81197 13.704 4.76613 13.5435 4.7203 13.3831C4.51405 12.7644 4.69738 12.2602 5.06405 11.6873C5.2703 11.4352 5.47655 10.9998 5.36197 10.7019C5.29322 10.5185 5.15572 10.404 4.92655 10.3581C4.26197 10.1977 3.66613 10.3123 3.27655 10.6331C3.02447 10.8394 2.90988 11.0685 2.97863 11.2748C3.02447 11.4352 3.09322 11.5956 3.16197 11.756Z" fill="white"/>
<path d="M4.83534 13.3374C4.58326 12.7416 4.85826 12.2145 5.17909 11.7791C5.52284 11.4124 5.84367 10.8166 5.45409 10.3583C5.33951 10.2208 5.15617 10.1291 4.99576 10.0833C4.67492 9.99161 4.35409 9.94578 4.01034 9.99161C3.43742 10.0374 2.72701 10.4499 2.63534 11.0687C2.61242 11.3437 2.74992 11.5958 2.86451 11.802C3.29992 12.5124 3.52909 13.1541 3.36867 13.9791C3.20826 14.552 3.23117 15.3083 3.82701 15.6062C4.23951 15.7895 4.88117 15.8583 5.22492 15.5145C5.45409 15.2624 5.45409 14.8729 5.36242 14.552C5.27076 14.1166 4.99576 13.7729 4.83534 13.3374ZM5.01867 15.3312C4.78951 15.5833 4.23951 15.5374 3.91867 15.4458C3.34576 15.2624 3.27701 14.5291 3.41451 14.0249C3.52909 13.4062 3.52909 12.7416 3.32284 12.1458C3.23117 11.8708 3.07076 11.5729 3.00201 11.2979C2.93326 11.0458 3.11659 10.8166 3.29992 10.6562C3.73534 10.2895 4.37701 10.2666 4.92701 10.3812C5.63742 10.5416 5.38534 11.2749 5.06451 11.6874C4.72076 12.2374 4.51451 12.7416 4.72076 13.3833C4.78951 13.6583 4.92701 13.9333 5.01867 14.2083C5.13326 14.5749 5.27076 15.0333 5.01867 15.3312Z" fill="#FF4D63"/>
<path d="M5.27148 9.94556C5.50065 9.99139 5.72982 9.73931 5.77565 9.39556C5.82148 9.05181 5.68398 8.75389 5.45482 8.73097C5.22565 8.68514 4.99648 8.93722 4.95065 9.28097C4.90482 9.60181 5.04232 9.89972 5.27148 9.94556ZM4.40065 9.73931C4.56107 9.73931 4.67565 9.55597 4.67565 9.34972C4.67565 9.12056 4.56107 8.96014 4.40065 8.93722C4.24023 8.93722 4.12565 9.12056 4.12565 9.32681C4.12565 9.55597 4.24023 9.73931 4.40065 9.73931ZM3.73607 9.80806C3.85065 9.80806 3.9194 9.67056 3.9194 9.51014C3.89648 9.34972 3.80482 9.23514 3.69023 9.23514C3.57565 9.23514 3.5069 9.37264 3.5069 9.53306C3.52982 9.69347 3.6444 9.80806 3.73607 9.80806ZM3.18607 10.0601C3.27773 10.0372 3.34648 9.89972 3.30065 9.76222C3.27773 9.62472 3.16315 9.51014 3.07148 9.53306C2.97982 9.55597 2.91107 9.69347 2.9569 9.83097C3.00273 9.96847 3.0944 10.0831 3.18607 10.0601ZM2.61315 10.0143C2.5444 10.0372 2.52148 10.1289 2.52148 10.2206C2.5444 10.3122 2.61315 10.381 2.6819 10.3581C2.75065 10.3351 2.77357 10.2435 2.77357 10.1518C2.75065 10.0601 2.6819 9.99139 2.61315 10.0143Z" fill="#FF4D63"/>
<path d="M5.82207 17.7596C6.02832 18.0805 6.57832 18.218 6.99082 18.218C7.03665 18.218 7.08249 18.218 7.1054 18.218C7.81582 18.1492 8.15957 17.3471 8.13665 16.6367C8.15957 15.7659 8.38874 15.0096 8.77832 14.4138C8.86999 14.2763 8.96165 14.1388 9.05332 14.0013C9.19082 13.8409 9.3054 13.6576 9.39707 13.4742C9.53457 13.2221 9.46582 12.9471 9.21374 12.6034C8.84707 12.0992 8.13665 11.8242 7.31165 11.8242C7.01374 11.8242 6.80749 11.9159 6.6929 12.0992C6.46374 12.443 6.60124 12.993 6.76165 13.3596C7.03665 14.1388 7.1054 14.8034 6.6929 15.468C6.60124 15.6513 6.48665 15.8117 6.37207 15.9721C6.2804 16.1096 6.18874 16.2242 6.09707 16.3617C5.89082 16.8201 5.61582 17.3242 5.82207 17.7596Z" fill="white"/>
<path d="M8.5259 11.6407C8.13632 11.5032 7.72382 11.4573 7.31132 11.4802C7.10507 11.4802 6.85299 11.549 6.66965 11.6865C6.09674 12.1219 6.30299 12.924 6.6009 13.4511C6.8759 14.0927 7.03632 14.7802 6.57799 15.4219C6.28007 15.8802 5.84465 16.224 5.59257 16.7282C5.40924 17.0719 5.27174 17.5532 5.5009 17.9198C5.79882 18.4469 6.60091 18.5386 7.15091 18.424C7.95299 18.2407 8.18215 17.324 8.15924 16.6136C8.18215 15.8573 8.48007 15.1011 8.98424 14.5511C9.30507 14.1615 9.7634 13.8407 9.85507 13.3136C9.94674 12.5344 9.2134 11.8469 8.5259 11.6407ZM9.39674 13.474C9.23632 13.7948 8.96132 14.0927 8.77799 14.3907C8.34257 15.0552 8.15924 15.8344 8.13632 16.6136C8.15924 17.2782 7.88424 18.1261 7.12799 18.1948C6.7384 18.2177 6.07382 18.1032 5.84465 17.7594C5.6384 17.324 5.9134 16.8198 6.14257 16.4073C6.3259 16.1094 6.57799 15.8344 6.7384 15.5136C7.17382 14.8032 7.05924 14.1157 6.80716 13.3823C6.53216 12.7865 6.44049 11.8469 7.33424 11.8469C8.02174 11.8469 8.77799 12.0532 9.2134 12.6261C9.39674 12.8552 9.55715 13.1761 9.39674 13.474Z" fill="#155146"/>
<path d="M7.60916 10.5171C7.63208 10.1046 7.42583 9.73794 7.15083 9.71502C6.87583 9.69211 6.60083 10.0129 6.57791 10.4254C6.55499 10.8379 6.76124 11.2046 7.03624 11.2275C7.33416 11.2504 7.58624 10.9296 7.60916 10.5171ZM8.57166 10.815C8.64041 10.54 8.52583 10.3109 8.34249 10.265C8.15916 10.2192 7.97583 10.4025 7.90708 10.6775C7.83833 10.9525 7.95291 11.1817 8.13624 11.2275C8.31958 11.2734 8.52583 11.09 8.57166 10.815ZM9.25916 11.2275C9.32791 11.0442 9.25916 10.8609 9.12166 10.815C8.98416 10.7692 8.84666 10.9067 8.77791 11.09C8.70916 11.2734 8.77791 11.4567 8.91541 11.5025C9.05291 11.5484 9.19041 11.4109 9.25916 11.2275ZM9.85499 11.7546C9.92374 11.5942 9.90083 11.4109 9.78624 11.365C9.67166 11.3192 9.51124 11.4109 9.44249 11.5713C9.37374 11.7317 9.39666 11.915 9.51124 11.9609C9.62583 12.0067 9.78624 11.915 9.85499 11.7546ZM9.96958 12.19C9.92374 12.3046 9.92374 12.4192 10.0154 12.4421C10.0842 12.4879 10.1987 12.4192 10.2446 12.3046C10.2904 12.19 10.2904 12.0754 10.1987 12.0525C10.13 12.0296 10.0154 12.0754 9.96958 12.19Z" fill="#155146"/>
<path d="M7.19602 24.3607C7.05852 24.269 6.92102 24.1773 6.80644 24.1086C6.64602 23.994 6.46269 23.9023 6.30227 23.7648C5.6606 23.3065 5.47727 22.6648 5.43144 21.8398C5.45435 21.4273 5.33977 20.8773 4.99602 20.6482C4.81269 20.5107 4.58352 20.5107 4.30852 20.6253C3.55227 20.9461 3.02519 21.4732 2.86477 22.0919C2.75019 22.5044 2.81894 22.7794 3.02519 22.9628C3.1856 23.1003 3.36894 23.1919 3.55227 23.3065C3.68977 23.3982 3.85019 23.4669 3.96477 23.5586C4.5606 23.9482 5.04185 24.5669 5.40852 25.3461C5.61477 25.9419 6.11894 26.469 6.69185 26.469C6.78352 26.469 6.87519 26.4461 6.96685 26.4232C7.33352 26.3086 7.92935 25.919 7.97519 25.5065C8.02102 25.0253 7.53977 24.6357 7.19602 24.3607Z" fill="white"/>
<path d="M7.76905 24.4982C7.35655 24.1315 6.80654 23.994 6.37113 23.6732C5.70654 23.2607 5.56904 22.5503 5.59196 21.8628C5.66071 21.267 5.54613 20.419 4.83571 20.2586C4.60654 20.1899 4.35446 20.2357 4.17113 20.3045C3.78154 20.442 3.43779 20.6482 3.11696 20.9232C2.56696 21.3815 2.15446 22.2982 2.52113 22.9857C2.70446 23.2607 3.02529 23.444 3.30029 23.5586C4.23988 23.9482 4.92738 24.4295 5.38571 25.369C5.63779 26.0336 6.21071 26.7899 7.01279 26.6524C7.5628 26.5607 8.25029 26.1482 8.31904 25.5524C8.38779 25.117 8.08988 24.7503 7.76905 24.4982ZM7.97529 25.5065C7.90654 25.919 7.33363 26.2857 6.96696 26.4232C6.25654 26.6524 5.66071 25.9878 5.43155 25.369C5.11071 24.6586 4.62946 23.994 3.96488 23.5586C3.66696 23.3524 3.30029 23.169 3.02529 22.9399C2.77321 22.7336 2.79613 22.3899 2.86488 22.092C3.04821 21.4045 3.66696 20.9232 4.30863 20.6482C5.13363 20.3045 5.40863 21.1982 5.38571 21.8399C5.43154 22.619 5.59196 23.2836 6.27946 23.7878C6.55446 24.017 6.89821 24.1774 7.17321 24.3836C7.53988 24.6586 7.99821 25.0482 7.97529 25.5065Z" fill="#155146"/>
<path d="M4.33125 19.9604C4.58333 19.8229 4.62917 19.4333 4.44583 19.0437C4.2625 18.677 3.89583 18.4708 3.64375 18.6083C3.39167 18.7458 3.34583 19.1354 3.52917 19.5249C3.7125 19.8916 4.07917 20.0749 4.33125 19.9604ZM3.32292 20.3958C3.48333 20.2812 3.46042 20.0291 3.32292 19.7999C3.1625 19.5708 2.91042 19.4791 2.77292 19.5937C2.6125 19.7083 2.63542 19.9604 2.77292 20.1895C2.91042 20.3958 3.1625 20.4874 3.32292 20.3958ZM2.70417 20.9229C2.81875 20.8312 2.79583 20.6479 2.65833 20.4874C2.52083 20.327 2.3375 20.2812 2.24583 20.3729C2.13125 20.4645 2.15417 20.6479 2.29167 20.8083C2.42917 20.9687 2.6125 21.0145 2.70417 20.9229ZM2.3375 21.5874C2.42917 21.4958 2.38333 21.3124 2.24583 21.1979C2.10833 21.0833 1.925 21.0604 1.83333 21.152C1.74167 21.2437 1.7875 21.427 1.925 21.5416C2.0625 21.6562 2.24583 21.6791 2.3375 21.5874ZM1.74167 21.9541C1.69583 22.0229 1.71875 22.1374 1.81042 22.2062C1.90208 22.2749 2.01667 22.2979 2.0625 22.2291C2.10833 22.1604 2.08542 22.0458 1.99375 21.977C1.90208 21.9083 1.7875 21.8854 1.74167 21.9541Z" fill="#155146"/>
<path d="M10.6104 24.4972C10.2208 23.9014 9.99161 23.3056 9.9687 22.7327C9.9687 22.5952 9.9687 22.4577 9.9687 22.3431C9.9687 22.1597 9.9687 21.9993 9.94578 21.8389C9.89995 21.5639 9.64786 21.4493 9.51036 21.4035C9.23536 21.2889 8.91453 21.2889 8.57078 21.3806C8.29578 21.4493 8.0437 21.5868 7.79161 21.7702C7.53953 21.9306 7.44786 22.2056 7.56245 22.4347C7.67703 22.7097 7.95203 22.916 8.1812 23.0535C8.7312 23.4431 9.09786 23.8327 9.1437 24.4743C9.16661 24.6577 9.16661 24.8639 9.16661 25.0472V25.1389C9.16661 25.4368 9.21245 25.8493 9.39578 26.1472C9.46453 26.2618 9.5562 26.3535 9.64786 26.3993C9.71661 26.4222 9.78536 26.4452 9.85411 26.4452C10.152 26.4452 10.5187 26.2618 10.7249 26.0785C11.1374 25.666 10.977 24.9556 10.6104 24.4972Z" fill="white"/>
<path d="M10.6336 24.4969C10.2898 23.9928 10.1294 23.3511 10.1982 22.7553C10.2211 22.3428 10.3815 21.9074 10.1752 21.5178C9.85441 20.9678 9.05232 20.8761 8.50232 21.0594C8.18149 21.1511 7.88357 21.3344 7.63149 21.5178C7.49399 21.6324 7.35649 21.7699 7.31066 21.9532C7.12732 22.5032 7.67732 22.9386 8.11274 23.1449C8.59399 23.4199 9.05232 23.8094 9.05232 24.4511C9.07524 24.8865 8.96066 25.3219 9.02941 25.7803C9.07524 26.1011 9.21274 26.4678 9.53357 26.6053C9.99191 26.8115 10.5419 26.4907 10.8627 26.1469C11.2752 25.6657 10.9773 24.9553 10.6336 24.4969ZM10.6794 26.0324C10.4273 26.2386 9.94607 26.4907 9.62524 26.3532C9.53357 26.3074 9.44191 26.2157 9.39607 26.124C9.23566 25.849 9.18982 25.4594 9.16691 25.1157C9.16691 24.9094 9.16691 24.6803 9.14399 24.4511C9.09816 23.7865 8.68566 23.3969 8.18149 23.0074C7.92941 22.8699 7.67732 22.6636 7.58566 22.3886C7.47107 22.1365 7.58566 21.8844 7.81482 21.7469C8.04399 21.5636 8.31899 21.449 8.59399 21.3574C8.91482 21.2657 9.23566 21.2657 9.51066 21.3803C9.71691 21.449 9.90024 21.5865 9.94607 21.8157C9.99191 22.0907 9.94607 22.4344 9.96899 22.7324C9.99191 23.374 10.2669 23.9699 10.6107 24.4969C10.9315 24.9324 11.1607 25.6199 10.6794 26.0324Z" fill="#FF4D63"/>
<path d="M7.3569 20.7381C7.17356 20.4402 6.87565 20.3256 6.6694 20.4402C6.46315 20.5548 6.46315 20.8985 6.64648 21.1735C6.82981 21.4485 7.12773 21.6089 7.33398 21.4714C7.51731 21.3569 7.51731 21.0131 7.3569 20.7381ZM8.13606 20.486C8.0444 20.2798 7.86106 20.1652 7.72356 20.2339C7.58606 20.3027 7.54023 20.5089 7.6319 20.7152C7.72356 20.9214 7.9069 21.036 8.0444 20.9673C8.1819 20.8985 8.22773 20.6694 8.13606 20.486ZM8.77773 20.4173C8.7319 20.2569 8.5944 20.1652 8.50273 20.211C8.38815 20.2569 8.36523 20.3944 8.41106 20.5548C8.4569 20.7152 8.5944 20.8069 8.68606 20.761C8.77773 20.7152 8.82356 20.5777 8.77773 20.4173ZM9.4194 20.486C9.39648 20.3485 9.2819 20.2339 9.19023 20.2569C9.09856 20.2798 9.02981 20.4173 9.05273 20.5548C9.07565 20.6923 9.19023 20.8069 9.2819 20.7839C9.39648 20.761 9.44231 20.6235 9.4194 20.486ZM9.6944 20.7152C9.71731 20.8069 9.78606 20.8756 9.85481 20.8756C9.92356 20.8527 9.9694 20.7839 9.94648 20.6694C9.92356 20.5777 9.85481 20.5089 9.78606 20.5089C9.71731 20.5319 9.6944 20.6235 9.6944 20.7152Z" fill="#FF4D63"/>
</svg>
