<?xml version="1.0" encoding="UTF-8"?>
<!DOCTYPE svg PUBLIC "-//W3C//DTD SVG 1.1//EN" "http://www.w3.org/Graphics/SVG/1.1/DTD/svg11.dtd">
<svg xmlns="http://www.w3.org/2000/svg" version="1.1" width="512px" height="512px" style="shape-rendering:geometricPrecision; text-rendering:geometricPrecision; image-rendering:optimizeQuality; fill-rule:evenodd; clip-rule:evenodd" xmlns:xlink="http://www.w3.org/1999/xlink">
<g><path style="opacity:0.99" fill="#047857" d="M 55.5,-0.5 C 128.833,-0.5 202.167,-0.5 275.5,-0.5C 296.485,4.98567 309.652,18.319 315,39.5C 315.5,61.4975 315.667,83.4975 315.5,105.5C 368.168,105.333 420.834,105.5 473.5,106C 484.667,109.167 491.833,116.333 495,127.5C 495.667,179.5 495.667,231.5 495,283.5C 491.833,294.667 484.667,301.833 473.5,305C 432.167,305.333 390.833,305.667 349.5,306C 338.5,314.167 327.5,322.333 316.5,330.5C 315.667,377.496 315.167,424.496 315,471.5C 309.652,492.681 296.485,506.014 275.5,511.5C 202.167,511.5 128.833,511.5 55.5,511.5C 34.5149,506.014 21.3483,492.681 16,471.5C 15.3333,327.5 15.3333,183.5 16,39.5C 21.3483,18.319 34.5149,4.98567 55.5,-0.5 Z M 65.5,19.5 C 132.167,19.3333 198.834,19.5 265.5,20C 278.28,20.7184 287.28,26.885 292.5,38.5C 207.833,39.8333 123.167,39.8333 38.5,38.5C 43.9346,26.9607 52.9346,20.6274 65.5,19.5 Z M 35.5,59.5 C 122.167,59.5 208.833,59.5 295.5,59.5C 295.5,74.8333 295.5,90.1667 295.5,105.5C 269.498,105.333 243.498,105.5 217.5,106C 206.333,109.167 199.167,116.333 196,127.5C 195.013,180.558 195.347,233.558 197,286.5C 200.803,295.991 207.636,302.157 217.5,305C 230.162,305.5 242.829,305.667 255.5,305.5C 255.333,323.836 255.5,342.17 256,360.5C 259.699,365.272 264.533,366.772 270.5,365C 278.667,358.833 286.833,352.667 295,346.5C 295.5,368.164 295.667,389.831 295.5,411.5C 208.833,411.5 122.167,411.5 35.5,411.5C 35.5,294.167 35.5,176.833 35.5,59.5 Z M 225.5,125.5 C 306.878,125.011 388.211,125.511 469.5,127C 472.553,129.051 474.386,131.885 475,135.5C 475.981,183.546 475.647,231.546 474,279.5C 471.949,282.553 469.115,284.386 465.5,285C 424.167,285.333 382.833,285.667 341.5,286C 319.385,301.781 297.552,317.948 276,334.5C 275.667,319.833 275.333,305.167 275,290.5C 273.833,288.667 272.333,287.167 270.5,286C 255.5,285.667 240.5,285.333 225.5,285C 220,284.167 216.833,281 216,275.5C 215.333,228.833 215.333,182.167 216,135.5C 217.014,129.988 220.181,126.655 225.5,125.5 Z M 35.5,431.5 C 122.167,431.5 208.833,431.5 295.5,431.5C 295.666,441.506 295.5,451.506 295,461.5C 293.167,479.333 283.333,489.167 265.5,491C 198.833,491.667 132.167,491.667 65.5,491C 47.6667,489.167 37.8333,479.333 36,461.5C 35.5002,451.506 35.3335,441.506 35.5,431.5 Z"/></g>
<g><path style="opacity:0.891" fill="#047857" d="M 260.5,165.5 C 272.324,163.824 277.158,168.824 275,180.5C 271.345,185.275 266.512,186.775 260.5,185C 255.725,181.345 254.225,176.512 256,170.5C 257.366,168.638 258.866,166.972 260.5,165.5 Z"/></g>
<g><path style="opacity:0.986" fill="#047857" d="M 300.5,165.5 C 343.835,165.333 387.168,165.5 430.5,166C 435.275,169.655 436.775,174.488 435,180.5C 433.833,182.333 432.333,183.833 430.5,185C 387.167,185.667 343.833,185.667 300.5,185C 295.725,181.345 294.225,176.512 296,170.5C 297.366,168.638 298.866,166.972 300.5,165.5 Z"/></g>
<g><path style="opacity:0.891" fill="#047857" d="M 260.5,225.5 C 272.324,223.824 277.158,228.824 275,240.5C 271.345,245.275 266.512,246.775 260.5,245C 255.725,241.345 254.225,236.512 256,230.5C 257.366,228.638 258.866,226.972 260.5,225.5 Z"/></g>
<g><path style="opacity:0.986" fill="#047857" d="M 300.5,225.5 C 343.835,225.333 387.168,225.5 430.5,226C 435.275,229.655 436.775,234.488 435,240.5C 433.833,242.333 432.333,243.833 430.5,245C 387.167,245.667 343.833,245.667 300.5,245C 295.725,241.345 294.225,236.512 296,230.5C 297.366,228.638 298.866,226.972 300.5,225.5 Z"/></g>
<g><path style="opacity:0.89" fill="#047857" d="M 120.5,451.5 C 132.324,449.824 137.158,454.824 135,466.5C 131.345,471.275 126.512,472.775 120.5,471C 115.725,467.345 114.225,462.512 116,456.5C 117.366,454.638 118.866,452.972 120.5,451.5 Z"/></g>
<g><path style="opacity:0.967" fill="#047857" d="M 160.5,451.5 C 177.17,451.333 193.837,451.5 210.5,452C 215.275,455.655 216.775,460.488 215,466.5C 213.833,468.333 212.333,469.833 210.5,471C 193.833,471.667 177.167,471.667 160.5,471C 155.725,467.345 154.225,462.512 156,456.5C 157.366,454.638 158.866,452.972 160.5,451.5 Z"/></g>
</svg>
