<?xml version="1.0" encoding="UTF-8"?>
<svg version="1.1" xmlns="http://www.w3.org/2000/svg" width="512" height="512">
<path d="M0 0 C1.85654835 -0.00424107 1.85654835 -0.00424107 3.75060272 -0.00856781 C9.64474563 -0.02197852 15.53887539 -0.0318858 21.43303132 -0.0357697 C27.46666372 -0.03977202 33.50010832 -0.05241358 39.53369141 -0.078125 C97.28105898 -0.31937123 97.28105898 -0.31937123 124.296875 3.203125 C125.57649109 3.36690643 126.85610718 3.53068787 128.17449951 3.69943237 C136.23716782 4.74334894 144.27152478 5.90278996 152.296875 7.203125 C153.30298828 7.36425781 154.30910156 7.52539062 155.34570312 7.69140625 C165.8358542 9.40835712 175.77996614 11.23399091 185.296875 16.203125 C186.15152344 16.64398437 187.00617188 17.08484375 187.88671875 17.5390625 C206.01705868 27.6518253 216.90197798 43.87911638 222.53515625 63.48828125 C224.38259662 72.49810581 224.44323257 81.6242154 224.43058777 90.78964233 C224.43285333 92.01085081 224.43511888 93.23205928 224.43745309 94.49027407 C224.4426557 97.84941168 224.44344361 101.2084954 224.44225872 104.56763315 C224.44205341 108.20235476 224.44758571 111.83706858 224.45231628 115.4717865 C224.46059467 122.58071821 224.46336983 129.68964164 224.46392866 136.79857777 C224.46440505 142.58005102 224.46646591 148.36152154 224.46962929 154.14299393 C224.4784273 170.55807305 224.48304987 186.97314565 224.48229881 203.38822715 C224.48223888 204.71344241 224.48223888 204.71344241 224.48217773 206.06542969 C224.48213685 206.94999295 224.48209597 207.83455622 224.48205385 208.74592443 C224.48164737 223.08244298 224.49121973 237.41893528 224.5053161 251.75544624 C224.51969775 266.49913092 224.52658534 281.2428028 224.52572232 295.98649466 C224.52539103 304.25476481 224.52810867 312.5230074 224.53890038 320.79127121 C224.54802882 327.82986631 224.55016134 334.86842136 224.54339095 341.90701984 C224.54013788 345.49345675 224.54002497 349.07981692 224.5487442 352.66624641 C224.55812499 356.56507942 224.5518018 360.46380183 224.54411316 364.36264038 C224.54925672 365.48066367 224.55440029 366.59868695 224.55969971 367.75058973 C224.48600182 384.74777448 221.38419181 399.63580644 209.296875 412.203125 C199.88514841 420.9013272 189.75343893 424.80162443 177.296875 427.203125 C178.01435913 427.91275391 178.01435913 427.91275391 178.74633789 428.63671875 C180.9534284 430.82276906 183.15641133 433.01291629 185.359375 435.203125 C186.11154297 435.94691406 186.86371094 436.69070313 187.63867188 437.45703125 C191.79639725 441.59675781 195.75814004 445.82256684 199.58374023 450.26953125 C202.50356782 453.56510407 205.65441824 456.6217805 208.796875 459.703125 C216.68237118 467.50465172 216.68237118 467.50465172 219.796875 471.203125 C222.04765897 473.82537129 224.36355438 476.31643915 226.83203125 478.734375 C227.49074219 479.38535156 228.14945312 480.03632813 228.828125 480.70703125 C230.14491053 482.00102626 231.46626313 483.29039655 232.79296875 484.57421875 C244.58647418 496.1475135 244.58647418 496.1475135 244.921875 502.390625 C244.23679021 506.56964224 243.3049029 508.28356851 240.296875 511.203125 C237.29713441 512.70299529 234.20464191 512.3765777 230.91308594 512.39599609 C230.15189957 512.40417358 229.3907132 512.41235107 228.60646057 512.42077637 C226.0813984 512.44563631 223.55639253 512.46214905 221.03125 512.4765625 C219.73787594 512.48454802 219.73787594 512.48454802 218.41837311 512.49269485 C213.85330595 512.51943079 209.28826617 512.53880306 204.72314453 512.55322266 C200.01077508 512.56985944 195.2991065 512.61462737 190.5870018 512.6655941 C186.96153982 512.69927561 183.33624389 512.71080111 179.71063995 512.71644974 C177.97390648 512.72316121 176.23718389 512.73838067 174.50060272 512.76234055 C172.06590482 512.794012 169.63309258 512.79402656 167.19824219 512.78662109 C166.12725029 512.8112291 166.12725029 512.8112291 165.03462219 512.83633423 C159.38606714 512.76621172 157.15011067 511.01789626 153.296875 507.203125 C151.72045898 505.3605957 151.72045898 505.3605957 150.54296875 503.62890625 C150.08728516 502.96987305 149.63160156 502.31083984 149.16210938 501.63183594 C148.69095703 500.93348633 148.21980469 500.23513672 147.734375 499.515625 C146.69243148 498.00580238 145.64942402 496.49671356 144.60546875 494.98828125 C144.06776855 494.20727051 143.53006836 493.42625977 142.97607422 492.62158203 C140.13418892 488.52857305 137.2165681 484.49082158 134.296875 480.453125 C133.48754517 479.32837769 133.48754517 479.32837769 132.66186523 478.1809082 C132.14954346 477.471521 131.63722168 476.76213379 131.109375 476.03125 C130.66207031 475.4115332 130.21476562 474.79181641 129.75390625 474.15332031 C129.03267578 473.18797363 129.03267578 473.18797363 128.296875 472.203125 C127.75708071 471.35210772 127.21728642 470.50109043 126.66113472 469.62428474 C124.45949563 466.91261177 124.45949563 466.91261177 121.00587273 466.5515728 C119.0287514 466.53315928 119.0287514 466.53315928 117.01168823 466.51437378 C116.27620321 466.5009293 115.5407182 466.48748482 114.78294575 466.47363293 C112.31704176 466.43494011 109.85241742 466.43202875 107.38623047 466.42919922 C105.61861398 466.40932735 103.8510191 466.38744762 102.08345032 466.3637085 C97.27941981 466.30666806 92.47577751 466.28264812 87.67144918 466.26804495 C84.66818744 466.25782653 81.66502813 466.24124176 78.66180801 466.22253799 C68.17879475 466.15828164 57.69608858 466.12323031 47.21289062 466.11181641 C37.45093542 466.10032028 27.69107859 466.02126029 17.92978179 465.91134632 C9.54313434 465.82022491 1.15718214 465.77935231 -7.22995651 465.77662289 C-12.23674419 465.77399238 -17.24135091 465.75073358 -22.24762344 465.67580795 C-26.96181855 465.60678527 -31.67207653 465.60047735 -36.38656044 465.64125824 C-38.11111706 465.64564643 -39.83589995 465.62803764 -41.55995369 465.58616257 C-50.428998 465.17328171 -50.428998 465.17328171 -58.36940718 468.47956514 C-61.80770678 471.98701337 -64.23991055 475.97916348 -66.703125 480.203125 C-67.78173599 481.73695472 -68.87251718 483.26251239 -69.98828125 484.76953125 C-70.91633591 486.09997957 -71.84216017 487.43198679 -72.765625 488.765625 C-76.36564321 493.90368462 -79.97502561 499.03190715 -83.703125 504.078125 C-84.7240625 505.46644531 -84.7240625 505.46644531 -85.765625 506.8828125 C-88.76073313 510.46969602 -90.4025229 512.05842128 -95.18760681 512.59080505 C-96.59880517 512.61162318 -98.0103061 512.61593096 -99.42163086 512.60717773 C-100.19446915 512.61404099 -100.96730743 512.62090424 -101.76356506 512.62797546 C-104.31522049 512.64625874 -106.86626195 512.64240384 -109.41796875 512.63671875 C-111.19389547 512.64127994 -112.96982042 512.64658532 -114.7457428 512.65260315 C-118.46720552 512.66153732 -122.18845369 512.65910781 -125.90991211 512.64916992 C-130.67608837 512.63768173 -135.4415236 512.6578876 -140.2076025 512.68708706 C-143.87509354 512.70544459 -147.54240687 512.70515748 -151.20993233 512.69944954 C-152.9669861 512.69929626 -154.72405187 512.70534617 -156.48106194 512.71774101 C-158.93958716 512.73264059 -161.3967419 512.72198258 -163.85522461 512.70483398 C-164.57902313 512.71450195 -165.30282166 512.72416992 -166.04855347 512.73413086 C-170.8667148 512.66385394 -173.32017554 511.62140097 -176.703125 508.203125 C-178.41330086 504.78277327 -178.59429456 501.8480685 -177.703125 498.203125 C-171.53376665 488.73492822 -162.59758052 480.89146413 -154.578125 473.015625 C-152.11375509 470.58808931 -149.65268042 468.15727982 -147.1953125 465.72265625 C-146.60764603 465.14053375 -146.01997955 464.55841125 -145.414505 463.95864868 C-141.96613008 460.52223559 -138.70489414 456.99717254 -135.5546875 453.28393555 C-131.03371657 448.20320833 -126.09219223 443.491968 -121.265625 438.703125 C-120.1410417 437.58356868 -119.01669095 436.46377871 -117.89257812 435.34375 C-115.16543156 432.62750966 -112.43516593 429.91444208 -109.703125 427.203125 C-110.64051514 427.0177417 -111.57790527 426.8323584 -112.54370117 426.64135742 C-113.78611572 426.38717041 -115.02853027 426.1329834 -116.30859375 425.87109375 C-117.53473389 425.62383545 -118.76087402 425.37657715 -120.02416992 425.12182617 C-133.01158673 421.87863489 -142.86161217 413.86508507 -150.19921875 402.8671875 C-152.65364125 398.51935337 -154.23133635 393.95874318 -155.703125 389.203125 C-156.033125 388.213125 -156.363125 387.223125 -156.703125 386.203125 C-156.79793836 384.44058366 -156.83404634 382.67464393 -156.83734608 380.90955734 C-156.84180392 379.80511489 -156.84626176 378.70067243 -156.85085469 377.56276202 C-156.85067033 376.34441078 -156.85048597 375.12605955 -156.85029602 373.87078857 C-156.85397271 372.58023914 -156.8576494 371.2896897 -156.8614375 369.9600327 C-156.87146222 366.37006794 -156.87517509 362.78011989 -156.87782681 359.19014311 C-156.88172874 355.32074491 -156.8913075 351.45135996 -156.90003967 347.58197021 C-156.91981247 338.23045301 -156.92987363 328.8789347 -156.93876746 319.5274018 C-156.94315108 315.1211648 -156.94851789 310.71492899 -156.95375633 306.30869293 C-156.97077328 291.65505091 -156.98526489 277.00140964 -156.99250507 262.34775925 C-156.99441492 258.54401397 -156.99633525 254.74026869 -156.99829102 250.93652344 C-156.99877476 249.9911391 -156.9992585 249.04575476 -156.9997569 248.07172242 C-157.00804746 232.77574094 -157.03336579 217.47983793 -157.06587169 202.18389067 C-157.09899068 186.47089926 -157.11695841 170.75794764 -157.12014931 155.04492116 C-157.12231048 146.22645918 -157.13100084 137.40811142 -157.15661049 128.58968353 C-157.17838411 121.07478851 -157.1863355 113.56003545 -157.17664371 106.04511246 C-157.17211751 102.2153684 -157.17388602 98.38591679 -157.19340515 94.55621338 C-157.31146129 69.99305727 -155.59708646 50.53225208 -138.703125 31.203125 C-138.17203125 30.58953125 -137.6409375 29.9759375 -137.09375 29.34375 C-113.94415403 4.43037529 -70.13425895 4.00602181 -38.703125 1.203125 C-37.91202332 1.11946686 -37.12092163 1.03580872 -36.30584717 0.94961548 C-24.23515219 -0.18168707 -12.11189199 0.01881186 0 0 Z M-83.703125 28.203125 C-84.5060498 28.3371875 -85.30897461 28.47125 -86.13623047 28.609375 C-102.00136235 31.32850494 -115.60152034 36.08905995 -126.140625 48.93359375 C-133.7074263 59.92437264 -136.00304513 69.78267006 -135.98400879 82.84684753 C-135.98995103 84.12251361 -135.99589328 85.39817968 -136.00201559 86.7125023 C-136.01809056 90.24222846 -136.02173107 93.77187314 -136.02321053 97.30163157 C-136.02692299 101.11297495 -136.04202327 104.9242766 -136.05548096 108.7355957 C-136.08260155 117.06422787 -136.09468961 125.39284073 -136.10350227 133.7215097 C-136.10903448 138.92533445 -136.11751048 144.12915182 -136.12651062 149.33297157 C-136.15088911 163.75087485 -136.17148963 178.16877223 -136.1782608 192.58669567 C-136.17869994 193.5087934 -136.17913907 194.43089113 -136.17959151 195.38093122 C-136.18002806 196.30518773 -136.18046462 197.22944423 -136.1809144 198.18170851 C-136.18180132 200.05448862 -136.18269445 201.92726873 -136.18359375 203.80004883 C-136.18403661 204.72900502 -136.18447947 205.6579612 -136.18493575 206.61506758 C-136.19283005 221.66391216 -136.22773594 236.71256297 -136.27431279 251.76133271 C-136.32178524 267.22470966 -136.34666653 282.68798946 -136.34899664 298.15144044 C-136.35082753 306.82840018 -136.36226604 315.50510731 -136.39863586 324.1819973 C-136.42949933 331.57103952 -136.43964293 338.95975105 -136.42315966 346.3488455 C-136.4153681 350.1156007 -136.41709756 353.88169061 -136.44527435 357.64836311 C-136.47560742 361.74087916 -136.45895699 365.83190898 -136.43811035 369.92448425 C-136.45422316 371.10262213 -136.47033597 372.28076002 -136.48693705 373.49459904 C-136.38007089 382.49393569 -133.96274459 390.30619379 -127.95990229 397.20716351 C-118.75394771 405.98302079 -107.28429592 406.35431083 -95.29875183 406.33683777 C-94.15643185 406.33910333 -93.01411188 406.34136888 -91.83717614 406.34370309 C-88.01277835 406.3500288 -84.18841612 406.34921464 -80.36401367 406.34838867 C-77.62061936 406.35083805 -74.87722755 406.35475552 -72.13383484 406.35856628 C-65.45716704 406.36686091 -58.78050807 406.36962058 -52.10383555 406.37017866 C-46.67502496 406.37065437 -41.24621728 406.37271187 -35.81740761 406.37587929 C-20.41491185 406.38468251 -5.01242305 406.38929917 10.39007524 406.38854881 C11.21984895 406.38850886 12.04962265 406.3884689 12.90454102 406.38842773 C13.73533154 406.38838685 14.56612206 406.38834597 15.42208805 406.38830385 C28.884674 406.38789744 42.34723198 406.39746655 55.80980984 406.4115661 C69.64369354 406.42593984 83.4775636 406.43283574 97.31145495 406.43197232 C105.07387295 406.43164071 112.83626161 406.43437236 120.59867287 406.44515038 C127.20779331 406.4542685 133.81687113 406.45641985 140.42599515 406.44964095 C143.79534942 406.44638239 147.16455541 406.44738805 150.53391266 406.4549942 C154.19319814 406.46271894 157.85226998 406.45806588 161.5115509 406.45036316 C163.09489431 406.4580785 163.09489431 406.4580785 164.71022445 406.46594971 C175.47891657 406.41597414 184.66387078 405.01408813 193.296875 398.203125 C203.0404643 388.13534973 203.44890325 377.49506871 203.43058777 364.17355347 C203.43285333 362.9639298 203.43511888 361.75430613 203.43745309 360.5080272 C203.44267786 357.16265536 203.44343975 353.81733739 203.44225872 350.47196531 C203.44205422 346.85898678 203.44757821 343.24601619 203.45231628 339.63304138 C203.46061343 332.55831972 203.46337072 325.4836064 203.46392866 318.40888028 C203.46440437 312.654962 203.46646184 306.90104647 203.46962929 301.14712906 C203.47843413 284.81909239 203.48304905 268.49106228 203.48229881 252.16302322 C203.48225886 251.28325876 203.4822189 250.4034943 203.48217773 249.49707031 C203.48213685 248.61622627 203.48209597 247.73538223 203.48205385 246.82784595 C203.48164767 232.56220481 203.49121077 218.29659011 203.5053161 204.03095661 C203.51969862 189.36875945 203.52658522 174.70657516 203.52572232 160.04437077 C203.52539095 151.81851849 203.52811168 143.5926939 203.53890038 135.36684799 C203.54803019 128.36109389 203.5501604 121.35538003 203.54339095 114.34962253 C203.54013793 110.77941543 203.54002464 107.20928542 203.5487442 103.63908577 C203.55812604 99.75755481 203.55180124 95.87613492 203.54411316 91.99459839 C203.5518285 90.32514359 203.5518285 90.32514359 203.55969971 88.62196243 C203.48255534 70.90539259 199.88393009 56.34015698 187.4921875 43.3046875 C146.87278222 4.70782522 -28.11206265 18.88456033 -83.703125 28.203125 Z M-87.7109375 433.234375 C-88.36835938 434.2140625 -89.02578125 435.19375 -89.703125 436.203125 C-95.93444749 443.9667399 -103.23280863 450.80281268 -110.30566406 457.78515625 C-115.74120997 463.15738188 -121.10299655 468.52517074 -126.06689453 474.34423828 C-129.08742291 477.77579648 -132.37767791 480.94172005 -135.640625 484.140625 C-136.98531044 485.45996293 -138.32788854 486.78145344 -139.66796875 488.10546875 C-140.2518335 488.67773193 -140.83569824 489.24999512 -141.43725586 489.83959961 C-142.81652093 491.01517817 -142.81652093 491.01517817 -142.703125 492.203125 C-137.0477465 492.52676003 -131.3978417 492.76133076 -125.73535156 492.91723633 C-123.81414882 492.9822552 -121.89358067 493.07071578 -119.97460938 493.18383789 C-109.54237992 494.13843361 -109.54237992 494.13843361 -99.90213013 491.01712036 C-96.32458399 487.59828446 -94.0601821 483.51348406 -91.703125 479.203125 C-90.67753608 477.7352584 -89.63284887 476.28029051 -88.55859375 474.84765625 C-87.66672187 473.57209094 -86.77738763 472.29474749 -85.890625 471.015625 C-84.87449036 469.56454892 -83.85753429 468.11404779 -82.83984375 466.6640625 C-82.32599121 465.93155273 -81.81213867 465.19904297 -81.28271484 464.44433594 C-78.61445181 460.65845424 -75.91268463 456.89702316 -73.203125 453.140625 C-72.67009766 452.40110596 -72.13707031 451.66158691 -71.58789062 450.8996582 C-68.83557095 447.09691423 -66.05079554 443.32288858 -63.21484375 439.58203125 C-62.65667969 438.8454126 -62.09851563 438.10879395 -61.5234375 437.34985352 C-60.45646509 435.9470592 -59.38502951 434.54764541 -58.30859375 433.15209961 C-55.62395091 430.03008161 -55.62395091 430.03008161 -54.703125 426.203125 C-73.24252203 423.91453479 -73.24252203 423.91453479 -87.7109375 433.234375 Z M-35.703125 436.203125 C-36.85588094 437.71384167 -38.02012746 439.21597069 -39.203125 440.703125 C-41.25436538 443.17407302 -41.25436538 443.17407302 -41.703125 446.203125 C8.126875 446.203125 57.956875 446.203125 109.296875 446.203125 C107.92377379 443.45692258 106.73186602 441.26153469 104.984375 438.8203125 C104.33082031 437.90572266 104.33082031 437.90572266 103.6640625 436.97265625 C103.21289062 436.34746094 102.76171875 435.72226562 102.296875 435.078125 C101.84570312 434.44519531 101.39453125 433.81226563 100.9296875 433.16015625 C99.15970457 430.69370075 97.44729414 428.35354414 95.296875 426.203125 C93.06420015 425.87630232 93.06420015 425.87630232 90.44064331 425.89532471 C89.41451431 425.87812378 88.38838531 425.86092285 87.3311615 425.84320068 C86.20077957 425.83468079 85.07039764 425.82616089 83.90576172 425.81738281 C82.71863083 425.80102783 81.53149994 425.78467285 80.30839539 425.76782227 C76.36450592 425.71804146 72.42064645 425.68475708 68.4765625 425.65625 C67.11778868 425.64552932 65.75901513 425.6347743 64.40024185 425.62398529 C58.74535997 425.58071778 53.09048949 425.5432498 47.43548393 425.52074051 C39.33862173 425.48829803 31.24368487 425.42205549 23.14754856 425.30793881 C17.45146446 425.23040022 11.75589359 425.19145887 6.05929577 425.18089938 C2.65888306 425.17360723 -0.73947697 425.14974923 -4.13931656 425.08469391 C-7.93957673 425.02144267 -11.73499618 425.02130382 -15.53564453 425.03613281 C-16.65388107 425.00332214 -17.77211761 424.97051147 -18.92424011 424.93670654 C-27.97786647 425.08111491 -30.97820065 428.86054318 -35.703125 436.203125 Z M122.296875 426.203125 C124.05722228 429.8528042 126.23422939 433.05675965 128.609375 436.328125 C129.04596436 436.93430664 129.48255371 437.54048828 129.93237305 438.16503906 C131.38446374 440.17972918 132.84066783 442.19140875 134.296875 444.203125 C135.32838035 445.63262828 136.35962516 447.06231959 137.390625 448.4921875 C139.56690441 451.50933998 141.7455107 454.52479298 143.92578125 457.5390625 C146.18752295 460.66645773 148.44507592 463.79681103 150.69921875 466.9296875 C151.26020264 467.70860352 151.82118652 468.48751953 152.39916992 469.29003906 C153.44841333 470.7470711 154.4968426 472.20469002 155.54418945 473.66308594 C156.55231772 475.06198598 157.58013667 476.44686592 158.62524414 477.81835938 C160.296875 480.203125 160.296875 480.203125 161.96655273 483.38476562 C165.46669603 489.46248303 165.46669603 489.46248303 171.40057373 492.8192749 C177.5431808 493.70354014 183.68749104 493.29615726 189.859375 492.953125 C191.74527271 492.89285922 193.63135556 492.838119 195.51757812 492.7890625 C200.11528542 492.65751888 204.70402797 492.45095763 209.296875 492.203125 C208.35394902 491.09932038 207.41048336 489.99597677 206.46679688 488.89282227 C205.94146362 488.27834732 205.41613037 487.66387238 204.87487793 487.03077698 C202.56453187 484.35492102 200.19370274 481.73901261 197.796875 479.140625 C197.0385437 478.31751831 197.0385437 478.31751831 196.26489258 477.4777832 C191.68819072 472.55015213 186.93588508 467.81100018 182.15600586 463.08154297 C179.27941751 460.22453412 176.47670672 457.36615642 173.859375 454.265625 C169.80477237 449.46439477 165.25798244 445.14020112 160.79663086 440.72241211 C156.42529588 436.37741378 152.24703882 431.93771852 148.296875 427.203125 C147.24816247 425.93006944 147.24816247 425.93006944 144.88842773 426.08959961 C143.32523804 426.09745483 143.32523804 426.09745483 141.73046875 426.10546875 C140.60576172 426.10869141 139.48105469 426.11191406 138.32226562 426.11523438 C136.54625977 426.12780273 136.54625977 426.12780273 134.734375 426.140625 C133.54650391 426.14513672 132.35863281 426.14964844 131.13476562 426.15429688 C128.18875274 426.16612825 125.24283819 426.18261213 122.296875 426.203125 Z " fill="#676D75" transform="translate(222.703125,-0.203125)"/>
<path d="M0 0 C1.18497448 -0.00779995 2.36994896 -0.01559991 3.59083176 -0.02363622 C6.87665373 -0.04013153 10.16155249 -0.03419294 13.44735146 -0.01870513 C16.99209133 -0.00739752 20.53670588 -0.02485133 24.0814209 -0.03860474 C31.02414198 -0.06084816 37.96659294 -0.05603116 44.90932465 -0.04154153 C50.55134805 -0.03025358 56.1932957 -0.02871645 61.83532715 -0.03416061 C62.63806084 -0.03492678 63.44079454 -0.03569294 64.2678535 -0.03648233 C65.89854719 -0.03808094 67.52924087 -0.03970201 69.15993452 -0.04134528 C84.45412488 -0.05560601 99.74816543 -0.03920502 115.04233122 -0.01234345 C128.16794428 0.00999566 141.29333624 0.00611562 154.41894531 -0.01693726 C169.6580685 -0.04368959 184.89706037 -0.05423269 200.13620377 -0.03887594 C201.76092782 -0.03728318 203.38565189 -0.03571132 205.01037598 -0.03416061 C205.80978945 -0.03338924 206.60920293 -0.03261786 207.43284106 -0.03182311 C213.06866274 -0.02750439 218.70440118 -0.03479632 224.34020996 -0.04655838 C231.20762953 -0.06057566 238.07476332 -0.05679996 244.94215012 -0.03015466 C248.44667541 -0.01700573 251.95072411 -0.01188165 255.45524597 -0.02840042 C259.25254462 -0.04200802 263.04849128 -0.02499469 266.84570312 0 C267.95610332 -0.01115361 269.06650352 -0.02230722 270.21055222 -0.03379881 C277.63097374 0.06133152 277.63097374 0.06133152 281.58392334 2.9246006 C284.69062885 7.50344091 284.54997026 10.95514357 284.56329346 16.44676208 C284.56775014 17.47353539 284.56775014 17.47353539 284.57229686 18.52105159 C284.5809661 20.81398373 284.5824906 23.10686356 284.58398438 25.39981079 C284.58861379 27.04419567 284.59363861 28.68857948 284.59902954 30.33296204 C284.61214322 34.79999446 284.61859642 39.26701186 284.6230402 43.73406053 C284.62597244 46.52552063 284.63007752 49.31697664 284.63454437 52.10843468 C284.64821625 60.84416173 284.65788457 69.57987942 284.66174626 78.31561643 C284.66622716 88.39634572 284.68377782 98.47693943 284.71274686 108.5576275 C284.73436814 116.3522357 284.74445077 124.14680576 284.74578738 131.94144362 C284.74683504 136.59573339 284.75273456 141.24989565 284.77060699 145.90415382 C284.78709551 150.28313546 284.78923941 154.66189383 284.78046799 159.04089546 C284.77969804 160.64568429 284.7840347 162.25048516 284.79392624 163.85524368 C284.80666485 166.05113468 284.80075928 168.2462372 284.79034424 170.44212341 C284.7918108 171.66936536 284.79327736 172.8966073 284.79478836 174.1610384 C284.34882465 178.32632765 283.36539966 180.92909215 281.42285156 184.63491821 C278.17501695 186.80014129 277.28897749 186.88663861 273.53863716 186.89498043 C272.52556279 186.90204602 271.51248842 186.90911161 270.46871483 186.91639131 C268.79437601 186.91276869 268.79437601 186.91276869 267.08621216 186.90907288 C265.90294653 186.91430955 264.7196809 186.91954623 263.50055873 186.9249416 C260.21046527 186.93737638 256.92058526 186.94078439 253.63048291 186.94034469 C250.08437465 186.94199054 246.53830553 186.95505263 242.99221802 186.96653748 C235.23610954 186.98940397 227.48002839 186.99730973 219.72389078 187.00236392 C214.88263319 187.00561877 210.04138356 187.01213993 205.20013046 187.01936531 C191.80062427 187.03893273 178.40112548 187.05533633 165.00160408 187.05824184 C163.71498795 187.0585232 163.71498795 187.0585232 162.40237956 187.05881024 C160.66346606 187.05917649 158.92455255 187.05954019 157.18563904 187.05990135 C156.32242015 187.06008416 155.45920126 187.06026697 154.56982422 187.06045532 C153.70555399 187.06063587 152.84128376 187.06081642 151.95082353 187.06100244 C137.94136029 187.06454533 123.93205065 187.09157422 109.9226407 187.12895321 C95.54536555 187.16700733 81.16816668 187.1863991 66.79084003 187.18670136 C58.71602447 187.18728655 50.64139216 187.19581847 42.56662369 187.22469902 C35.69186948 187.2491742 28.81736536 187.25652208 21.9425794 187.24145149 C18.43399443 187.23426675 14.92590367 187.23520614 11.41737366 187.25786209 C7.61584744 187.2821752 3.81503163 187.26786009 0.01345825 187.24964905 C-1.09830619 187.26284902 -2.21007063 187.27604898 -3.3555249 187.28964895 C-8.06459627 187.2379072 -10.7599402 187.17002101 -14.76187897 184.54957676 C-17.03311937 180.90279573 -17.20578411 178.67408839 -17.21206665 174.38565063 C-17.22376658 173.30647637 -17.22376658 173.30647637 -17.23570287 172.2055006 C-17.25561255 169.79993845 -17.23986401 167.39596023 -17.22412109 164.99038696 C-17.23089773 163.26378456 -17.23980113 161.53718939 -17.25067139 159.81060791 C-17.27346596 155.12458705 -17.2646278 150.43911658 -17.24877596 145.75308609 C-17.23611778 140.84934251 -17.24785685 135.94564607 -17.25570679 131.04190063 C-17.26480358 122.80686989 -17.25281463 114.57206335 -17.22900391 106.33706665 C-17.20179257 96.816007 -17.21060672 87.29548268 -17.23813593 77.774436 C-17.26082513 69.60018042 -17.26402801 61.42608601 -17.25094259 53.25180912 C-17.24314703 48.36952502 -17.24210936 43.48749255 -17.25862503 38.60522461 C-17.27306777 34.01510939 -17.26305186 29.42568441 -17.23415375 24.83564377 C-17.22754185 23.15101645 -17.22944243 21.46633105 -17.24046707 19.78172684 C-17.25413124 17.48176222 -17.23700032 15.18400939 -17.21206665 12.88418579 C-17.21018152 11.59740433 -17.20829639 10.31062286 -17.20635414 8.98484802 C-16.57714844 5.63491821 -16.57714844 5.63491821 -14.76103783 2.72152138 C-9.9609146 -0.42430158 -5.62575712 -0.0565089 0 0 Z M4.42285156 20.63491821 C4.42285156 68.81491821 4.42285156 116.99491821 4.42285156 166.63491821 C43.69285156 166.63491821 82.96285156 166.63491821 123.42285156 166.63491821 C123.42285156 118.45491821 123.42285156 70.27491821 123.42285156 20.63491821 C84.15285156 20.63491821 44.88285156 20.63491821 4.42285156 20.63491821 Z M144.42285156 20.63491821 C144.42285156 68.81491821 144.42285156 116.99491821 144.42285156 166.63491821 C183.69285156 166.63491821 222.96285156 166.63491821 263.42285156 166.63491821 C263.42285156 118.45491821 263.42285156 70.27491821 263.42285156 20.63491821 C224.15285156 20.63491821 184.88285156 20.63491821 144.42285156 20.63491821 Z " fill="#676D75" transform="translate(122.5771484375,79.36508178710938)"/>
<path d="M0 0 C0.77601563 0.42410156 1.55203125 0.84820312 2.3515625 1.28515625 C8.28627845 4.84797068 12.12173431 9.32526247 16 15 C16.598125 15.86625 17.19625 16.7325 17.8125 17.625 C22.67258032 27.34516065 22.67589431 37.69462133 20 48 C16.27814351 58.79338381 9.69278689 67.00169528 -0.47265625 72.28515625 C-10.27979455 76.73424826 -21.00768192 77.72106725 -31.5390625 75.12890625 C-41.95491307 71.02446901 -49.62814147 64.82935815 -55 55 C-55.41378906 54.28585937 -55.82757813 53.57171875 -56.25390625 52.8359375 C-60.60245876 44.01761848 -60.48004131 32.88742095 -58.1171875 23.48828125 C-54.08109126 13.05056216 -47.81446499 5.36371924 -38 0 C-37.28585937 -0.41378906 -36.57171875 -0.82757813 -35.8359375 -1.25390625 C-25.18174413 -6.50777824 -10.21009715 -5.91595882 0 0 Z M-35.44140625 24.828125 C-38.43339295 29.95724506 -38.878818 35.19055047 -38 41 C-36.38670547 47.02581534 -32.92535079 50.74093404 -27.62890625 53.92578125 C-22.05179633 56.20468946 -16.29030948 56.18907224 -10.6328125 54.14453125 C-5.5913536 51.35746058 -1.95472831 47.44275267 0 42 C0.95610282 36.17717706 0.91388882 30.80551763 -2 25.5625 C-5.70344585 20.62113353 -9.72594487 17.58433409 -15.8671875 16.48828125 C-24.1553195 16.01376988 -30.23139551 18.2203065 -35.44140625 24.828125 Z " fill="#676D75" transform="translate(385,300)"/>
<path d="M0 0 C0.77601563 0.42410156 1.55203125 0.84820312 2.3515625 1.28515625 C8.28627845 4.84797068 12.12173431 9.32526247 16 15 C16.598125 15.86625 17.19625 16.7325 17.8125 17.625 C22.67258032 27.34516065 22.67589431 37.69462133 20 48 C16.27814351 58.79338381 9.69278689 67.00169528 -0.47265625 72.28515625 C-10.27979455 76.73424826 -21.00768192 77.72106725 -31.5390625 75.12890625 C-41.95491307 71.02446901 -49.62814147 64.82935815 -55 55 C-55.41378906 54.28585937 -55.82757813 53.57171875 -56.25390625 52.8359375 C-60.60245876 44.01761848 -60.48004131 32.88742095 -58.1171875 23.48828125 C-54.08109126 13.05056216 -47.81446499 5.36371924 -38 0 C-37.28585938 -0.41378906 -36.57171875 -0.82757813 -35.8359375 -1.25390625 C-25.18174413 -6.50777824 -10.21009715 -5.91595882 0 0 Z M-35.44140625 24.828125 C-38.43339295 29.95724506 -38.878818 35.19055047 -38 41 C-36.38670547 47.02581534 -32.92535079 50.74093404 -27.62890625 53.92578125 C-22.05179633 56.20468946 -16.29030948 56.18907224 -10.6328125 54.14453125 C-5.5913536 51.35746058 -1.95472831 47.44275267 0 42 C0.95610282 36.17717706 0.91388882 30.80551763 -2 25.5625 C-5.70344585 20.62113353 -9.72594487 17.58433409 -15.8671875 16.48828125 C-24.1553195 16.01376988 -30.23139551 18.2203065 -35.44140625 24.828125 Z " fill="#676D75" transform="translate(165,300)"/>
<path d="M0 0 C1.30578003 -0.0131424 1.30578003 -0.0131424 2.63793945 -0.02655029 C5.50913665 -0.04851729 8.37878776 -0.03400134 11.25 -0.01708984 C13.24870092 -0.02045876 15.24739984 -0.025312 17.24609375 -0.03158569 C21.43249032 -0.03895336 25.61835304 -0.02825475 29.8046875 -0.00488281 C35.16848239 0.02360472 40.53102639 0.00720021 45.89477539 -0.02274513 C50.02125458 -0.04082084 54.14743763 -0.03505878 58.27392578 -0.02210617 C60.25146635 -0.01877292 62.22903389 -0.02285637 64.20654297 -0.03450394 C66.97175203 -0.04721708 69.73494125 -0.02782972 72.5 0 C73.31573486 -0.01012115 74.13146973 -0.02024231 74.97192383 -0.03067017 C79.20816151 0.04823793 80.79392482 0.28620074 84.234375 3.00772095 C86.61358708 6.1230522 87.25 7.73005547 87.25 11.64697266 C85.8000457 15.99683556 85.10115325 18.07953716 81.25 20.64697266 C78.37763623 20.85730923 75.60087838 20.95104796 72.72705078 20.95336914 C71.42170883 20.96585442 71.42170883 20.96585442 70.08999634 20.97859192 C67.20838977 21.00272051 64.32700943 21.01146745 61.4453125 21.01806641 C59.4437554 21.02703045 57.442199 21.03615225 55.44064331 21.04542542 C51.2424761 21.06192566 47.04438874 21.06961743 42.84619141 21.07250977 C37.46675647 21.07789509 32.08807192 21.11557708 26.70884895 21.16125393 C22.57385518 21.19099659 18.43904272 21.19823271 14.30395126 21.19923592 C12.32079506 21.20344365 10.33763858 21.21590004 8.35458755 21.23675346 C5.57974324 21.26361038 2.80664621 21.25885966 0.03173828 21.24633789 C-1.19657715 21.26858932 -1.19657715 21.26858932 -2.44970703 21.29129028 C-6.72019623 21.23641415 -8.28729423 21.01334106 -11.75735474 18.26576233 C-13.92070981 15.42262109 -14.4300485 14.17007654 -14.375 10.64697266 C-14.38789063 9.82197266 -14.40078125 8.99697266 -14.4140625 8.14697266 C-12.39354273 0.54031 -6.72155558 -0.08339708 0 0 Z " fill="#676D75" transform="translate(219.75,345.35302734375)"/>
<path d="M0 0 C1.30578003 -0.0131424 1.30578003 -0.0131424 2.63793945 -0.02655029 C5.50913665 -0.04851729 8.37878776 -0.03400134 11.25 -0.01708984 C13.24870092 -0.02045876 15.24739984 -0.025312 17.24609375 -0.03158569 C21.43249032 -0.03895336 25.61835304 -0.02825475 29.8046875 -0.00488281 C35.16848239 0.02360472 40.53102639 0.00720021 45.89477539 -0.02274513 C50.02125458 -0.04082084 54.14743763 -0.03505878 58.27392578 -0.02210617 C60.25146635 -0.01877292 62.22903389 -0.02285637 64.20654297 -0.03450394 C66.97175203 -0.04721708 69.73494125 -0.02782972 72.5 0 C73.31573486 -0.01012115 74.13146973 -0.02024231 74.97192383 -0.03067017 C79.20816151 0.04823793 80.79392482 0.28620074 84.234375 3.00772095 C86.61358708 6.1230522 87.25 7.73005547 87.25 11.64697266 C85.8000457 15.99683556 85.10115325 18.07953716 81.25 20.64697266 C78.37763623 20.85730923 75.60087838 20.95104796 72.72705078 20.95336914 C71.42170883 20.96585442 71.42170883 20.96585442 70.08999634 20.97859192 C67.20838977 21.00272051 64.32700943 21.01146745 61.4453125 21.01806641 C59.4437554 21.02703045 57.442199 21.03615225 55.44064331 21.04542542 C51.2424761 21.06192566 47.04438874 21.06961743 42.84619141 21.07250977 C37.46675647 21.07789509 32.08807192 21.11557708 26.70884895 21.16125393 C22.57385518 21.19099659 18.43904272 21.19823271 14.30395126 21.19923592 C12.32079506 21.20344365 10.33763858 21.21590004 8.35458755 21.23675346 C5.57974324 21.26361038 2.80664621 21.25885966 0.03173828 21.24633789 C-1.19657715 21.26858932 -1.19657715 21.26858932 -2.44970703 21.29129028 C-6.72019623 21.23641415 -8.28729423 21.01334106 -11.75735474 18.26576233 C-13.92070981 15.42262109 -14.4300485 14.17007654 -14.375 10.64697266 C-14.38789063 9.82197266 -14.40078125 8.99697266 -14.4140625 8.14697266 C-12.39354273 0.54031 -6.72155558 -0.08339708 0 0 Z " fill="#676D75" transform="translate(219.75,305.35302734375)"/>
<path d="M0 0 C1.30578003 -0.0131424 1.30578003 -0.0131424 2.63793945 -0.02655029 C5.50913665 -0.04851729 8.37878776 -0.03400134 11.25 -0.01708984 C13.24870092 -0.02045876 15.24739984 -0.025312 17.24609375 -0.03158569 C21.43249032 -0.03895336 25.61835304 -0.02825475 29.8046875 -0.00488281 C35.16848239 0.02360472 40.53102639 0.00720021 45.89477539 -0.02274513 C50.02125458 -0.04082084 54.14743763 -0.03505878 58.27392578 -0.02210617 C60.25146635 -0.01877292 62.22903389 -0.02285637 64.20654297 -0.03450394 C66.97175203 -0.04721708 69.73494125 -0.02782972 72.5 0 C73.31573486 -0.01012115 74.13146973 -0.02024231 74.97192383 -0.03067017 C79.20816151 0.04823793 80.79392482 0.28620074 84.234375 3.00772095 C86.61358708 6.1230522 87.25 7.73005547 87.25 11.64697266 C85.8000457 15.99683556 85.10115325 18.07953716 81.25 20.64697266 C78.37763623 20.85730923 75.60087838 20.95104796 72.72705078 20.95336914 C71.42170883 20.96585442 71.42170883 20.96585442 70.08999634 20.97859192 C67.20838977 21.00272051 64.32700943 21.01146745 61.4453125 21.01806641 C59.4437554 21.02703045 57.442199 21.03615225 55.44064331 21.04542542 C51.2424761 21.06192566 47.04438874 21.06961743 42.84619141 21.07250977 C37.46675647 21.07789509 32.08807192 21.11557708 26.70884895 21.16125393 C22.57385518 21.19099659 18.43904272 21.19823271 14.30395126 21.19923592 C12.32079506 21.20344365 10.33763858 21.21590004 8.35458755 21.23675346 C5.57974324 21.26361038 2.80664621 21.25885966 0.03173828 21.24633789 C-1.19657715 21.26858932 -1.19657715 21.26858932 -2.44970703 21.29129028 C-6.72019623 21.23641415 -8.28729423 21.01334106 -11.75735474 18.26576233 C-13.92070981 15.42262109 -14.4300485 14.17007654 -14.375 10.64697266 C-14.38789063 9.82197266 -14.40078125 8.99697266 -14.4140625 8.14697266 C-12.39354273 0.54031 -6.72155558 -0.08339708 0 0 Z " fill="#676D75" transform="translate(219.75,39.35302734375)"/>
<path d="M0 0 C3.41421647 2.36904816 4.64346607 3.97496494 6 7.875 C6 11.90306262 4.89929459 14.47273862 3 18 C-1.25929566 20.83953044 -5.00382943 20.73987876 -10 20 C-13.125 18.125 -13.125 18.125 -15 15 C-15.98876625 9.97377154 -15.7769173 6.29486216 -13.125 1.875 C-8.72313726 -0.76611764 -5.00852491 -1.01979818 0 0 Z " fill="#676D75" transform="translate(341,40)"/>
<path d="M0 0 C3.41421647 2.36904816 4.64346607 3.97496494 6 7.875 C6 11.90306262 4.89929459 14.47273862 3 18 C-1.25929566 20.83953044 -5.00382943 20.73987876 -10 20 C-13.125 18.125 -13.125 18.125 -15 15 C-15.98876625 9.97377154 -15.7769173 6.29486216 -13.125 1.875 C-8.72313726 -0.76611764 -5.00852491 -1.01979818 0 0 Z " fill="#676D75" transform="translate(181,40)"/>
</svg>
