<?xml version="1.0" encoding="UTF-8"?>
<svg version="1.1" xmlns="http://www.w3.org/2000/svg" width="512" height="512">
<path d="M0 0 C8.04047227 6.50682664 11.47453459 13.32194576 12.859375 23.45703125 C13.11726501 27.53090672 13.12151702 31.58810734 13.09988403 35.6690979 C13.10159607 36.85901337 13.10330811 38.04892883 13.10507202 39.27490234 C13.10779161 42.55746128 13.10157524 45.83985981 13.09152046 49.12239984 C13.08274471 52.72417915 13.08571247 56.32595301 13.0871563 59.9277401 C13.08821673 66.90945873 13.07901027 73.89112564 13.06615364 80.87283101 C13.05171984 88.9538813 13.05016229 97.03490078 13.04858398 105.1159668 C13.03809518 126.43799644 13.01017283 147.76001463 12.984375 169.08203125 C12.943125 216.72578125 12.901875 264.36953125 12.859375 313.45703125 C115.159375 313.12703125 217.459375 312.79703125 322.859375 312.45703125 C297.119375 286.71703125 271.379375 260.97703125 244.859375 234.45703125 C239.0052134 223.91954036 235.85626434 216.48902121 238.51171875 204.515625 C241.48819301 195.33071088 246.18551975 189.61676092 254.671875 185.01953125 C263.51702261 180.97697935 271.59192581 180.49541428 280.859375 183.45703125 C290.30336938 187.73656408 297.12592919 195.15599962 304.30786133 202.38793945 C305.63043244 203.70508172 306.95385108 205.02137344 308.27804565 206.33688354 C311.85108782 209.89178218 315.41147155 213.45910615 318.96908402 217.02943826 C322.70431384 220.77484017 326.44934476 224.51042185 330.1927948 228.24760437 C336.47485132 234.52239763 342.74845862 240.80554578 349.01733398 247.09350586 C356.25353128 254.35147868 363.50403816 261.59491689 370.76212674 268.830993 C377.00753916 275.05822512 383.24508737 281.29325391 389.47618693 287.53480786 C393.19165203 291.25649216 396.90972671 294.97546125 400.63492775 298.68740273 C404.13659136 302.17746996 407.62824573 305.67725754 411.11257553 309.18462753 C412.38898945 310.46630786 413.66877752 311.74463855 414.95224953 313.01925087 C424.62996741 322.63632878 431.89728599 330.4670672 432.171875 344.64453125 C432.18950786 360.91574295 420.68512263 369.77903074 409.91904831 380.57039642 C409.31033512 381.18041756 408.70162193 381.79043869 408.07446289 382.41894531 C406.78575306 383.71393085 405.4972297 385.00910196 404.20887756 386.30444336 C400.00348367 390.53072965 395.79288797 394.75181403 391.58203125 398.97265625 C390.12756077 400.43117834 388.67312305 401.8897331 387.21871758 403.34832001 C380.390119 410.19592916 373.55914061 417.0411532 366.7252093 423.88344026 C358.85083202 431.76760704 350.98482072 439.65999998 343.1257382 447.55941224 C337.03744058 453.6778742 330.94148263 459.78863568 324.83974069 465.89368987 C321.20059931 469.53517913 317.5648234 473.17988376 313.93712044 476.8327713 C310.5272089 480.26597722 307.10788154 483.6895184 303.68117332 487.10595703 C302.42805966 488.35857575 301.17834132 489.61460215 299.93236542 490.87432098 C298.2259099 492.59853568 296.50743632 494.30984249 294.78553772 496.01861572 C294.05724631 496.763361 294.05724631 496.763361 293.31424195 497.52315164 C286.65467562 504.06149896 279.40908121 506.57627247 270.234375 506.76953125 C260.61834839 506.66977994 253.64659512 504.05955176 246.6171875 497.45703125 C239.78795694 489.68688448 238.46855281 482.13696747 238.59375 472.05859375 C239.83281102 455.25838399 257.09910778 443.08059437 268.26953125 431.94921875 C269.8487252 430.37189335 271.42769593 428.79434445 273.00645447 427.21658325 C277.13217148 423.09465702 281.26088427 418.97574458 285.39025879 414.85748291 C289.61552516 410.64250518 293.83790912 406.42464208 298.06054688 402.20703125 C306.3240271 393.95422758 314.5906796 385.70460947 322.859375 377.45703125 C322.1310467 377.45605444 321.4027184 377.45507763 320.65231955 377.45407122 C277.47982977 377.39579151 234.30739043 377.32198889 191.13496277 377.22804497 C185.95048975 377.21677689 180.76601645 377.20563842 175.58154297 377.19458008 C174.03334856 377.19127455 174.03334856 377.19127455 172.45387749 377.18790225 C155.74467009 377.15253574 139.03546274 377.12766795 122.32623179 377.10668423 C105.17934539 377.08491704 88.03250754 377.05185786 70.88566244 377.00832969 C60.30627102 376.98182884 49.72694009 376.96412192 39.14751713 376.95768521 C31.89151947 376.95242655 24.63559789 376.93619347 17.37964101 376.91136559 C13.19416434 376.89736703 9.00882383 376.88817365 4.8233223 376.89202309 C0.98737252 376.895444 -2.84828689 376.88500733 -6.68417723 376.86379573 C-8.72074277 376.85606916 -10.7573478 376.86295295 -12.7939142 376.87044829 C-25.18350759 376.77481818 -33.87712237 374.47347597 -42.86328125 365.79296875 C-50.33091088 357.75655161 -50.58020652 349.383253 -50.54176331 338.85784912 C-50.54737404 337.4776832 -50.55427871 336.09752204 -50.56235927 334.71736836 C-50.58065379 330.93902815 -50.58031962 327.16088765 -50.57677615 323.38251328 C-50.57616261 319.30191898 -50.59273483 315.22138798 -50.60694885 311.14082336 C-50.63183753 303.15148513 -50.64011197 295.16221331 -50.64178599 287.17283955 C-50.64321295 280.67665121 -50.64938458 274.18048471 -50.65888786 267.68430328 C-50.68529929 249.25427332 -50.6991473 230.8242957 -50.69689644 212.39424667 C-50.69677657 211.40127906 -50.6966567 210.40831145 -50.6965332 209.38525391 C-50.69641056 208.3910697 -50.69628792 207.39688548 -50.69616156 206.37257448 C-50.69494241 190.26328224 -50.72364717 174.15420043 -50.7659483 158.04496905 C-50.80907006 141.4922212 -50.82975718 124.93957592 -50.82716697 108.38677049 C-50.8261721 99.09839122 -50.83436738 89.81023257 -50.86670113 80.52190399 C-50.89405648 72.61319213 -50.90050929 64.7048009 -50.88017286 56.79606214 C-50.87039694 52.76401486 -50.87013314 48.73258224 -50.8962326 44.70059395 C-50.91992198 41.00276536 -50.91544203 37.30603555 -50.88938021 33.60823277 C-50.88263871 31.65102322 -50.90518967 29.69377875 -50.92909914 27.73670363 C-50.81728239 18.12526712 -48.40941302 10.22106479 -41.89913756 2.95549655 C-30.47437624 -8.08078095 -12.94850375 -9.33331931 0 0 Z " fill="#ffffff" transform="translate(65.140625,5.54296875)"/>
</svg>
