<svg width="148" height="148" viewBox="0 0 148 148" fill="none" xmlns="http://www.w3.org/2000/svg">
<path fill-rule="evenodd" clip-rule="evenodd" d="M73.9999 140.6C110.782 140.6 140.6 110.782 140.6 73.9999C140.6 37.2182 110.782 7.39999 73.9999 7.39999C37.2182 7.39999 7.39999 37.2182 7.39999 73.9999C7.39999 110.782 37.2182 140.6 73.9999 140.6ZM73.9999 148C114.87 148 148 114.87 148 73.9999C148 33.1297 114.87 0 73.9999 0C33.1297 0 0 33.1297 0 73.9999C0 114.87 33.1297 148 73.9999 148Z" fill="#D9D9D9"/>
<g clip-path="url(#clip0_561_6438)">
<path d="M73.4313 136.956C63.3546 136.956 53.275 137.073 43.2013 136.924C29.8291 136.728 21.1046 122.795 26.7385 110.663C29.4721 104.779 32.4661 99.0116 35.463 93.256C36.2753 91.7459 37.307 90.3647 38.5244 89.1574C42.3789 85.2695 47.8489 84.6137 52.4321 87.6292C54.2555 88.8266 55.7217 90.5802 57.3109 92.1172C58.4611 93.2296 59.4299 94.5646 60.6913 95.519C64.0687 98.0807 68.1252 97.8055 71.125 94.8193C72.1939 93.7238 73.1112 92.4901 73.8527 91.1511C76.7502 86.0863 79.5598 80.9689 82.3987 75.869C83.8299 73.2986 85.5069 70.9272 87.8629 69.1033C92.171 65.7688 97.2284 66.0059 101.185 69.7416C103.011 71.4902 104.456 73.5972 105.429 75.9305C110.527 87.7873 115.722 99.606 120.63 111.542C125.538 123.478 116.665 136.652 103.772 136.953C103.515 136.953 103.26 136.971 103.006 136.971H73.4459L73.4313 136.956Z" fill="#D9D9D9"/>
<path d="M34.348 55.7269C34.3602 52.6006 35.2987 49.5481 37.045 46.9553C38.7913 44.3625 41.2669 42.3458 44.1589 41.1603C47.0509 39.9747 50.2293 39.6735 53.2924 40.2947C56.3555 40.9159 59.1657 42.4317 61.3677 44.6503C63.5697 46.8689 65.0646 49.6908 65.6635 52.7592C66.2624 55.8276 65.9383 59.0048 64.7323 61.889C63.5262 64.7732 61.4923 67.2349 58.8878 68.963C56.2832 70.691 53.2249 71.6078 50.0995 71.5974C48.0206 71.6002 45.9618 71.1908 44.042 70.3928C42.1222 69.5948 40.3796 68.4241 38.9149 66.9483C37.4502 65.4725 36.2924 63.721 35.5085 61.7949C34.7246 59.8688 34.3302 57.8064 34.348 55.7269Z" fill="#D9D9D9"/>
</g>
<defs>
<clipPath id="clip0_561_6438">
<rect width="97" height="97" fill="white" transform="translate(25 40)"/>
</clipPath>
</defs>
</svg>
