<svg width="19" height="12" viewBox="0 0 19 12" fill="none" xmlns="http://www.w3.org/2000/svg">
<g clip-path="url(#clip0_283_10542)">
<path d="M7.37909 5.65891C5.87583 4.19161 6.1593 2.04087 7.38983 0.919863C8.64183 -0.219935 10.5719 -0.20168 11.7847 0.955298C13.0142 2.12838 13.2123 4.23027 11.7574 5.65461C11.832 5.69005 11.9012 5.72119 11.9694 5.75555C14.1073 6.81965 15.2347 8.54447 15.3518 10.93C15.3738 11.3939 15.1027 11.6591 14.6431 11.6591C11.2618 11.6591 7.88072 11.6591 4.4998 11.6591C4.03808 11.6591 3.76266 11.3955 3.78467 10.9354C3.90064 8.50706 5.06191 6.76864 7.25239 5.71636C7.28836 5.69971 7.32487 5.68361 7.37909 5.65891ZM14.0139 10.3663C13.7132 8.08454 11.6908 6.41108 9.32958 6.52329C6.88516 6.63979 5.31854 8.59619 5.13064 10.3663H14.0139ZM11.4964 3.2961C11.4956 2.91466 11.3816 2.54204 11.169 2.22537C10.9564 1.90869 10.6546 1.66219 10.3019 1.51703C9.94912 1.37187 9.56126 1.33457 9.18732 1.40986C8.81339 1.48515 8.47018 1.66964 8.2011 1.93999C7.93202 2.21035 7.74916 2.55443 7.67564 2.92871C7.60212 3.303 7.64125 3.69068 7.78808 4.04273C7.93491 4.39478 8.18284 4.69538 8.50052 4.90651C8.8182 5.11764 9.19135 5.22982 9.57279 5.22887C10.0838 5.22646 10.5731 5.02176 10.9336 4.65956C11.2941 4.29735 11.4964 3.80712 11.4964 3.2961Z" fill="#676D75"/>
<path d="M17.2178 8.44613C17.0251 7.58712 16.5859 6.92354 15.8848 6.43658C15.5384 6.19468 15.1452 6.0279 14.7305 5.94695C14.5479 5.91098 14.3665 5.87018 14.1855 5.82723C14.0515 5.79088 13.9328 5.71221 13.8472 5.60294C13.7615 5.49367 13.7134 5.35964 13.7101 5.22083C13.7068 5.08201 13.7484 4.94584 13.8287 4.8326C13.9091 4.71936 14.0239 4.63511 14.156 4.5924C14.2135 4.57522 14.2731 4.56448 14.3316 4.5516C14.6212 4.49313 14.8814 4.33589 15.0679 4.10676C15.2544 3.87762 15.3555 3.59083 15.3539 3.29541C15.3523 2.99999 15.2481 2.7143 15.0592 2.48718C14.8703 2.26006 14.6083 2.10562 14.3182 2.05027C13.872 1.959 13.6283 1.68358 13.6739 1.32387C13.7195 0.96416 14.0218 0.733301 14.4019 0.763366C15.3855 0.844972 16.3068 1.65137 16.5564 2.65963C16.7572 3.47032 16.5945 4.21014 16.0947 4.87748L15.9921 5.01439C16.5382 5.27742 17.0271 5.64538 17.431 6.09728C18.1512 6.90361 18.5544 7.94381 18.566 9.02489C18.5751 9.45922 18.3077 9.72766 17.8718 9.72981C17.4781 9.73232 17.0831 9.73232 16.6869 9.72981C16.2821 9.72981 15.9921 9.45224 15.9964 9.07965C16.0007 8.70705 16.2858 8.44881 16.6815 8.44506C16.8506 8.44291 17.0176 8.44613 17.2178 8.44613Z" fill="#676D75"/>
<path d="M1.93066 8.44606C2.1336 8.44606 2.314 8.44231 2.49439 8.44606C2.66142 8.44938 2.82057 8.51773 2.938 8.63656C3.05543 8.75539 3.12187 8.91535 3.1232 9.08241C3.12453 9.24947 3.06064 9.41046 2.94512 9.53115C2.82959 9.65183 2.67155 9.7227 2.50459 9.72867C2.06972 9.73655 1.63466 9.73655 1.19943 9.72867C0.823615 9.72116 0.555175 9.43231 0.568597 9.04254C0.632486 7.2864 1.43459 5.97588 2.96147 5.10828C3.01838 5.07606 3.07637 5.046 3.14562 5.00842C2.80893 4.61894 2.59061 4.14132 2.5164 3.63186C2.31292 2.30146 3.32172 0.947451 4.65372 0.770281C5.07893 0.713908 5.39462 0.924365 5.45904 1.30448C5.51595 1.65238 5.27704 1.95303 4.87653 2.03678C4.21455 2.17583 3.78935 2.66171 3.78398 3.28557C3.77807 3.92016 4.18932 4.40604 4.86633 4.56334C5.22711 4.6471 5.42952 4.87098 5.43435 5.19096C5.43795 5.33597 5.39206 5.47789 5.30423 5.59334C5.21641 5.70878 5.09187 5.79087 4.95115 5.82609C4.75734 5.87172 4.56031 5.90501 4.36757 5.95386C3.10214 6.27599 2.29789 7.06896 1.94677 8.32473C1.93864 8.36476 1.93325 8.4053 1.93066 8.44606Z" fill="#676D75"/>
</g>
<defs>
<clipPath id="clip0_283_10542">
<rect width="18" height="11.5837" fill="white" transform="translate(0.568115 0.0756836)"/>
</clipPath>
</defs>
</svg>
