<svg width="18" height="12" viewBox="0 0 18 12" fill="none" xmlns="http://www.w3.org/2000/svg">
<g clip-path="url(#clip0_523_14145)">
<path d="M6.81098 5.79111C5.30771 4.32382 5.59118 2.17307 6.82171 1.05207C8.07372 -0.0877324 10.0038 -0.0694782 11.2166 1.0875C12.4461 2.26058 12.6442 4.36247 11.1892 5.78682C11.2639 5.82225 11.3331 5.85339 11.4013 5.88775C13.5392 6.95185 14.6666 8.67667 14.7837 11.0622C14.8057 11.5261 14.5345 11.7913 14.075 11.7913C10.6937 11.7913 7.3126 11.7913 3.93169 11.7913C3.46997 11.7913 3.19455 11.5277 3.21656 11.0676C3.33253 8.63926 4.4938 6.90084 6.68427 5.84856C6.72024 5.83191 6.75675 5.81581 6.81098 5.79111ZM13.4457 10.4985C13.1451 8.21674 11.1227 6.54328 8.76146 6.65549C6.31705 6.77199 4.75043 8.72839 4.56252 10.4985H13.4457ZM10.9283 3.4283C10.9275 3.04686 10.8135 2.67424 10.6009 2.35757C10.3882 2.04089 10.0865 1.79439 9.73374 1.64923C9.381 1.50407 8.99314 1.46678 8.61921 1.54206C8.24527 1.61735 7.90206 1.80184 7.63298 2.07219C7.3639 2.34255 7.18104 2.68663 7.10753 3.06092C7.03401 3.4352 7.07314 3.82289 7.21997 4.17493C7.36679 4.52698 7.61473 4.82758 7.9324 5.03871C8.25008 5.24984 8.62323 5.36203 9.00467 5.36107C9.51569 5.35866 10.005 5.15396 10.3655 4.79176C10.7259 4.42955 10.9283 3.93933 10.9283 3.4283Z" fill="#005B40"/>
<path d="M16.65 8.5787C16.4572 7.71969 16.0181 7.0561 15.3169 6.56915C14.9705 6.32725 14.5773 6.16047 14.1626 6.07952C13.9801 6.04355 13.7986 6.00274 13.6177 5.95979C13.4837 5.92345 13.365 5.84478 13.2793 5.73551C13.1936 5.62624 13.1455 5.49221 13.1422 5.3534C13.1389 5.21458 13.1805 5.07841 13.2609 4.96517C13.3412 4.85193 13.456 4.76767 13.5881 4.72497C13.6456 4.70779 13.7052 4.69705 13.7637 4.68417C14.0533 4.6257 14.3136 4.46846 14.5 4.23932C14.6865 4.01019 14.7876 3.7234 14.786 3.42798C14.7844 3.13256 14.6803 2.84687 14.4913 2.61975C14.3024 2.39263 14.0405 2.23819 13.7503 2.18284C13.3041 2.09157 13.0604 1.81615 13.106 1.45644C13.1517 1.09673 13.4539 0.865869 13.834 0.895935C14.8176 0.97754 15.7389 1.78394 15.9885 2.7922C16.1893 3.60289 16.0267 4.34271 15.5268 5.01005L15.4243 5.14696C15.9703 5.40998 16.4592 5.77794 16.8631 6.22984C17.5833 7.03618 17.9866 8.07638 17.9981 9.15745C18.0072 9.59179 17.7398 9.86023 17.3039 9.86238C16.9102 9.86488 16.5152 9.86488 16.119 9.86238C15.7142 9.86238 15.4243 9.58481 15.4286 9.21222C15.4329 8.83962 15.718 8.58138 16.1136 8.57762C16.2828 8.57548 16.4497 8.5787 16.65 8.5787Z" fill="#005B40"/>
<path d="M1.36255 8.57863C1.56549 8.57863 1.74588 8.57487 1.92627 8.57863C2.09331 8.58195 2.25246 8.65029 2.36988 8.76913C2.48731 8.88796 2.55376 9.04792 2.55508 9.21498C2.55641 9.38204 2.49252 9.54303 2.377 9.66371C2.26148 9.7844 2.10343 9.85527 1.93647 9.86124C1.5016 9.86912 1.06655 9.86912 0.631317 9.86124C0.2555 9.85373 -0.0129403 9.56488 0.000481739 9.17511C0.0643706 7.41897 0.866471 6.10845 2.39336 5.24085C2.45027 5.20863 2.50825 5.17857 2.57751 5.14099C2.24081 4.75151 2.02249 4.27388 1.94828 3.76442C1.74481 2.43403 2.75361 1.08002 4.08561 0.902849C4.51082 0.846477 4.8265 1.05693 4.89093 1.43705C4.94784 1.78494 4.70893 2.0856 4.30841 2.16935C3.64644 2.3084 3.22123 2.79428 3.21586 3.41814C3.20996 4.05273 3.6212 4.53861 4.29821 4.69591C4.659 4.77966 4.8614 5.00354 4.86623 5.32352C4.86984 5.46854 4.82395 5.61046 4.73612 5.7259C4.64829 5.84135 4.52376 5.92344 4.38304 5.95865C4.18923 6.00429 3.99219 6.03758 3.79945 6.08643C2.53402 6.40856 1.72978 7.20153 1.37866 8.4573C1.37052 8.49733 1.36514 8.53787 1.36255 8.57863Z" fill="#005B40"/>
</g>
<defs>
<clipPath id="clip0_523_14145">
<rect width="18" height="11.5837" fill="white" transform="translate(0 0.20813)"/>
</clipPath>
</defs>
</svg>
