<?xml version="1.0" encoding="UTF-8"?>
<!DOCTYPE svg PUBLIC "-//W3C//DTD SVG 1.1//EN" "http://www.w3.org/Graphics/SVG/1.1/DTD/svg11.dtd">
<svg xmlns="http://www.w3.org/2000/svg" version="1.1" width="512px" height="512px" style="shape-rendering:geometricPrecision; text-rendering:geometricPrecision; image-rendering:optimizeQuality; fill-rule:evenodd; clip-rule:evenodd" xmlns:xlink="http://www.w3.org/1999/xlink">
<g><path style="opacity:0.967" fill="#676D75" d="M 79.5,40.5 C 104.53,39.3622 118.863,51.1955 122.5,76C 118.941,102.287 103.941,113.954 77.5,111C 57.7085,104.266 48.8751,90.4322 51,69.5C 54.6813,53.9862 64.1813,44.3195 79.5,40.5 Z"/></g>
<g><path style="opacity:0.966" fill="#676D75" d="M 245.5,56.5 C 266.161,55.4033 279.328,64.7366 285,84.5C 287.253,104.837 278.753,118.337 259.5,125C 237.558,128.357 223.391,119.524 217,98.5C 214.849,76.4394 224.349,62.4394 245.5,56.5 Z"/></g>
<g><path style="opacity:0.965" fill="#676D75" d="M 406.5,68.5 C 432.084,70.9179 443.584,84.9179 441,110.5C 434.514,130.002 421.014,138.169 400.5,135C 380.642,128.123 372.475,114.289 376,93.5C 380.991,78.6615 391.158,70.3281 406.5,68.5 Z"/></g>
<g><path style="opacity:0.98" fill="#676D75" d="M 511.5,282.5 C 511.5,286.5 511.5,290.5 511.5,294.5C 503.309,307.28 493.475,308.614 482,298.5C 473.11,276.051 464.777,253.384 457,230.5C 461.671,262.692 466.837,294.858 472.5,327C 472.371,330.93 470.705,333.93 467.5,336C 462.177,336.499 456.844,336.666 451.5,336.5C 451.667,375.835 451.5,415.168 451,454.5C 446.591,468.123 437.424,472.957 423.5,469C 418.269,466.768 414.769,462.935 413,457.5C 412.5,417.168 412.333,376.835 412.5,336.5C 409.833,336.5 407.167,336.5 404.5,336.5C 404.667,376.501 404.5,416.501 404,456.5C 401.076,465.385 394.909,470.052 385.5,470.5C 375.373,470.205 368.873,465.205 366,455.5C 365.5,415.835 365.333,376.168 365.5,336.5C 360.156,336.666 354.823,336.499 349.5,336C 346.148,333.798 344.481,330.632 344.5,326.5C 349.669,293.827 354.502,261.161 359,228.5C 350.444,254.838 341.111,280.838 331,306.5C 323.517,312.442 315.684,312.942 307.5,308C 305.044,305.592 303.211,302.759 302,299.5C 301.667,257.167 301.333,214.833 301,172.5C 300.125,169.785 298.292,168.452 295.5,168.5C 295.991,265.211 295.491,361.877 294,458.5C 287.791,469.462 278.625,472.962 266.5,469C 261.269,466.768 257.769,462.935 256,457.5C 254.522,415.214 254.022,372.881 254.5,330.5C 251.833,330.5 249.167,330.5 246.5,330.5C 246.667,372.168 246.5,413.835 246,455.5C 240.751,468.706 231.251,473.206 217.5,469C 210.46,465.29 206.626,459.456 206,451.5C 205.5,411.168 205.333,370.835 205.5,330.5C 200.156,330.666 194.823,330.499 189.5,330C 185.463,327.925 183.796,324.592 184.5,320C 189.838,287.473 195.005,254.973 200,222.5C 190.277,248.278 180.277,273.945 170,299.5C 162.107,306.46 153.607,307.293 144.5,302C 142.383,300.269 140.883,298.102 140,295.5C 138.682,250.892 138.015,206.226 138,161.5C 136.649,159.981 135.149,158.648 133.5,157.5C 132.667,255.832 132.167,354.165 132,452.5C 127.728,467.723 117.895,473.223 102.5,469C 96.5082,466.341 92.6748,461.841 91,455.5C 90.5,399.168 90.3333,342.834 90.5,286.5C 87.8333,286.5 85.1667,286.5 82.5,286.5C 82.6667,342.168 82.5,397.834 82,453.5C 77.1916,467.989 67.3583,473.156 52.5,469C 46.5082,466.341 42.6748,461.841 41,455.5C 40.8333,356.165 40.3333,256.832 39.5,157.5C 37.7419,158.128 36.2419,159.128 35,160.5C 34.9794,205.212 34.3127,249.879 33,294.5C 26.9692,305.754 18.1359,308.587 6.5,303C 3.54644,300.559 1.21311,297.725 -0.5,294.5C -0.5,247.833 -0.5,201.167 -0.5,154.5C 4.41913,137.75 15.4191,127.25 32.5,123C 69.8721,122.032 107.205,122.365 144.5,124C 160.399,129.232 169.899,140.065 173,156.5C 173.333,168.833 173.667,181.167 174,193.5C 178.353,179.439 183.686,165.772 190,152.5C 194.576,144.786 201.076,139.286 209.5,136C 241.119,134.363 272.786,134.03 304.5,135C 321.56,139.393 331.727,150.226 335,167.5C 335.333,178.167 335.667,188.833 336,199.5C 339.882,187.185 344.549,175.185 350,163.5C 355.552,154.616 363.386,148.782 373.5,146C 396.833,145.333 420.167,145.333 443.5,146C 457.133,149.631 466.3,158.131 471,171.5C 484.038,208.79 497.538,245.79 511.5,282.5 Z"/></g>
</svg>
