<?xml version="1.0" encoding="UTF-8"?>
<!DOCTYPE svg PUBLIC "-//W3C//DTD SVG 1.1//EN" "http://www.w3.org/Graphics/SVG/1.1/DTD/svg11.dtd">
<svg xmlns="http://www.w3.org/2000/svg" version="1.1" width="512px" height="512px" style="shape-rendering:geometricPrecision; text-rendering:geometricPrecision; image-rendering:optimizeQuality; fill-rule:evenodd; clip-rule:evenodd" xmlns:xlink="http://www.w3.org/1999/xlink">
<g><path style="opacity:0.933" fill="#676D75" d="M 213.5,15.5 C 233.44,13.2361 251.94,17.2361 269,27.5C 287.839,12.445 307.339,11.6117 327.5,25C 346.056,41.6549 354.223,62.4882 352,87.5C 370.174,94.1674 377.841,107.167 375,126.5C 372.353,139.647 364.519,147.647 351.5,150.5C 346.39,196.107 321.723,224.94 277.5,237C 238.741,244.525 206.241,233.691 180,204.5C 167.955,188.539 161.122,170.539 159.5,150.5C 149.606,148.301 142.44,142.634 138,133.5C 131.136,112.388 137.636,97.221 157.5,88C 152.62,56.2026 164.953,33.8693 194.5,21C 200.835,18.7106 207.169,16.8773 213.5,15.5 Z M 214.5,32.5 C 233.515,30.7532 250.848,35.2532 266.5,46C 269.964,46.8166 273.298,46.4833 276.5,45C 287.316,31.2112 300.316,28.8778 315.5,38C 324.758,44.2225 330.258,52.7225 332,63.5C 319.9,53.6816 306.067,49.8483 290.5,52C 288.714,52.7845 287.214,53.9512 286,55.5C 266.551,86.4771 238.384,100.977 201.5,99C 193.216,98.3767 185.216,96.5434 177.5,93.5C 168.063,66.8552 176.396,47.6886 202.5,36C 206.623,34.8077 210.623,33.641 214.5,32.5 Z M 298.5,68.5 C 312.639,69.315 323.472,75.6484 331,87.5C 332.651,91.7452 333.984,96.0785 335,100.5C 335.903,101.701 337.069,102.535 338.5,103C 355.563,104.034 361.396,112.534 356,128.5C 351.258,133.427 345.425,135.927 338.5,136C 337.299,136.903 336.465,138.069 336,139.5C 330.461,197.717 298.628,224.884 240.5,221C 210.011,214.845 189.845,197.012 180,167.5C 177.685,158.276 176.018,148.942 175,139.5C 174.535,138.069 173.701,136.903 172.5,136C 156.345,135.195 150.178,127.028 154,111.5C 156.039,109.126 158.372,107.126 161,105.5C 200.761,122.6 238.595,119.1 274.5,95C 284.129,87.5429 292.129,78.7096 298.5,68.5 Z"/></g>
<g><path style="opacity:0.937" fill="#676D75" d="M 229.5,247.5 C 236.742,246.372 241.242,249.372 243,256.5C 249.221,263.046 256.387,264.213 264.5,260C 267.656,256.688 270.323,253.021 272.5,249C 305.286,249.432 334.286,260.265 359.5,281.5C 363.577,291.515 360.244,296.015 349.5,295C 342.606,289.775 335.44,284.942 328,280.5C 327.768,284.555 327.268,288.555 326.5,292.5C 321.297,296.743 316.464,296.41 312,291.5C 311.5,285.175 311.334,278.842 311.5,272.5C 302.643,269.702 293.643,267.369 284.5,265.5C 280.676,269.476 276.343,272.976 271.5,276C 253.907,282.853 238.907,279.353 226.5,265.5C 217.357,267.369 208.357,269.702 199.5,272.5C 199.5,287.833 199.5,303.167 199.5,318.5C 216.503,318.333 233.503,318.5 250.5,319C 256.542,321.837 258.042,326.337 255,332.5C 254.167,333.333 253.333,334.167 252.5,335C 227.451,335.038 202.451,335.705 177.5,337C 170.614,341.597 166.948,348.097 166.5,356.5C 161.297,360.743 156.464,360.41 152,355.5C 150.729,333.264 161.229,320.93 183.5,318.5C 183.667,305.829 183.5,293.162 183,280.5C 152.759,298.304 131.426,323.638 119,356.5C 115.281,359.902 111.114,360.402 106.5,358C 104.556,356.278 103.556,354.111 103.5,351.5C 121.44,300.395 156.44,267.228 208.5,252C 215.621,250.411 222.621,248.911 229.5,247.5 Z"/></g>
<g><path style="opacity:0.951" fill="#676D75" d="M 291.5,302.5 C 342.168,302.333 392.834,302.5 443.5,303C 458.029,305.198 467.196,313.364 471,327.5C 471.667,354.167 471.667,380.833 471,407.5C 467.061,419.773 458.894,427.606 446.5,431C 393.833,431.667 341.167,431.667 288.5,431C 276.08,427.579 267.913,419.746 264,407.5C 263.333,380.833 263.333,354.167 264,327.5C 267.976,313.353 277.143,305.02 291.5,302.5 Z M 293.5,319.5 C 342.834,319.333 392.168,319.5 441.5,320C 449.534,322.037 454.034,327.204 455,335.5C 455.667,356.833 455.667,378.167 455,399.5C 454.553,406.566 451.053,411.399 444.5,414C 393.167,414.667 341.833,414.667 290.5,414C 283.947,411.399 280.447,406.566 280,399.5C 279.333,378.167 279.333,356.833 280,335.5C 281.157,327.188 285.657,321.855 293.5,319.5 Z M 365.5,343.5 C 383.607,344.774 391.774,354.441 390,372.5C 383.396,389.818 371.563,394.651 354.5,387C 343.376,377.062 341.542,365.562 349,352.5C 353.516,347.495 359.016,344.495 365.5,343.5 Z"/></g>
<g><path style="opacity:0.931" fill="#676D75" d="M 364.5,326.5 C 394.946,328.776 409.112,345.109 407,375.5C 403.075,393.092 392.241,403.592 374.5,407C 350.015,409.484 334.515,398.984 328,375.5C 325.193,347.828 337.36,331.495 364.5,326.5 Z M 365.5,343.5 C 359.016,344.495 353.516,347.495 349,352.5C 341.542,365.562 343.376,377.062 354.5,387C 371.563,394.651 383.396,389.818 390,372.5C 391.774,354.441 383.607,344.774 365.5,343.5 Z"/></g>
<g><path style="opacity:0.907" fill="#676D75" d="M 421.5,326.5 C 429.253,326.104 436.92,326.604 444.5,328C 447.829,332.137 448.329,336.637 446,341.5C 445.25,342.126 444.416,342.626 443.5,343C 439.5,343.167 435.5,343.333 431.5,343.5C 426.722,343.609 422.056,343.109 417.5,342C 415.571,338.744 415.071,335.244 416,331.5C 417.107,328.887 418.94,327.22 421.5,326.5 Z"/></g>
<g><path style="opacity:0.951" fill="#676D75" d="M 67.5,366.5 C 118.168,366.333 168.834,366.5 219.5,367C 234.029,369.198 243.196,377.364 247,391.5C 247.667,418.167 247.667,444.833 247,471.5C 243.061,483.773 234.894,491.606 222.5,495C 169.833,495.667 117.167,495.667 64.5,495C 52.0799,491.579 43.9132,483.746 40,471.5C 39.3333,444.833 39.3333,418.167 40,391.5C 43.9764,377.353 53.1431,369.02 67.5,366.5 Z M 69.5,383.5 C 118.834,383.333 168.168,383.5 217.5,384C 225.534,386.037 230.034,391.204 231,399.5C 231.667,420.833 231.667,442.167 231,463.5C 230.553,470.566 227.053,475.399 220.5,478C 169.167,478.667 117.833,478.667 66.5,478C 59.9469,475.399 56.4469,470.566 56,463.5C 55.3333,442.167 55.3333,420.833 56,399.5C 57.1569,391.188 61.6569,385.855 69.5,383.5 Z M 141.5,407.5 C 159.607,408.774 167.774,418.441 166,436.5C 159.396,453.818 147.563,458.651 130.5,451C 119.376,441.062 117.542,429.562 125,416.5C 129.516,411.495 135.016,408.495 141.5,407.5 Z"/></g>
<g><path style="opacity:0.907" fill="#676D75" d="M 197.5,390.5 C 205.253,390.104 212.92,390.604 220.5,392C 223.829,396.137 224.329,400.637 222,405.5C 221.25,406.126 220.416,406.626 219.5,407C 215.5,407.167 211.5,407.333 207.5,407.5C 202.722,407.609 198.056,407.109 193.5,406C 191.571,402.744 191.071,399.244 192,395.5C 193.107,392.887 194.94,391.22 197.5,390.5 Z"/></g>
<g><path style="opacity:0.907" fill="#676D75" d="M 293.5,390.5 C 301.253,390.104 308.92,390.604 316.5,392C 319.829,396.137 320.329,400.637 318,405.5C 317.25,406.126 316.416,406.626 315.5,407C 311.5,407.167 307.5,407.333 303.5,407.5C 298.722,407.609 294.056,407.109 289.5,406C 287.571,402.744 287.071,399.244 288,395.5C 289.107,392.887 290.94,391.22 293.5,390.5 Z"/></g>
<g><path style="opacity:0.933" fill="#676D75" d="M 134.5,391.5 C 159.484,388.392 175.651,398.725 183,422.5C 186.175,447.669 175.675,463.836 151.5,471C 127.164,473.764 111.33,463.597 104,440.5C 100.593,415.459 110.759,399.126 134.5,391.5 Z M 141.5,407.5 C 135.016,408.495 129.516,411.495 125,416.5C 117.542,429.562 119.376,441.062 130.5,451C 147.563,458.651 159.396,453.818 166,436.5C 167.774,418.441 159.607,408.774 141.5,407.5 Z"/></g>
<g><path style="opacity:0.931" fill="#676D75" d="M 366.5,438.5 C 372.88,438.215 376.546,441.215 377.5,447.5C 375.446,453.712 371.113,457.212 364.5,458C 330.132,467.504 295.132,471.838 259.5,471C 254.547,466.357 254.213,461.357 258.5,456C 289.523,454.897 320.19,450.897 350.5,444C 356.107,442.632 361.441,440.799 366.5,438.5 Z"/></g>
<g><path style="opacity:0.907" fill="#676D75" d="M 69.5,454.5 C 77.253,454.104 84.9196,454.604 92.5,456C 95.8291,460.137 96.3291,464.637 94,469.5C 93.2496,470.126 92.4162,470.626 91.5,471C 87.5,471.167 83.5,471.333 79.5,471.5C 74.7222,471.609 70.0555,471.109 65.5,470C 63.5715,466.744 63.0715,463.244 64,459.5C 65.1065,456.887 66.9399,455.22 69.5,454.5 Z"/></g>
</svg>
