<?xml version="1.0" encoding="UTF-8"?>
<!DOCTYPE svg PUBLIC "-//W3C//DTD SVG 1.1//EN" "http://www.w3.org/Graphics/SVG/1.1/DTD/svg11.dtd">
<svg xmlns="http://www.w3.org/2000/svg" version="1.1" width="512px" height="512px" style="shape-rendering:geometricPrecision; text-rendering:geometricPrecision; image-rendering:optimizeQuality; fill-rule:evenodd; clip-rule:evenodd" xmlns:xlink="http://www.w3.org/1999/xlink">
<g><path style="opacity:0.908" fill="#676D75" d="M 488.5,511.5 C 333.167,511.5 177.833,511.5 22.5,511.5C 20.9087,510.781 19.4087,509.781 18,508.5C 17.3333,498.833 17.3333,489.167 18,479.5C 18.8333,478.667 19.6667,477.833 20.5,477C 31.1615,476.5 41.8281,476.333 52.5,476.5C 52.5,465.833 52.5,455.167 52.5,444.5C 48.0329,444.867 43.6996,444.367 39.5,443C 38.8568,440.254 38.5235,437.421 38.5,434.5C 42.7481,383.104 47.4148,331.771 52.5,280.5C 49.614,280.29 46.614,280.123 43.5,280C 41.6711,279.727 40.1711,278.893 39,277.5C 38.5,236.835 38.3333,196.168 38.5,155.5C 32.4908,155.666 26.4908,155.499 20.5,155C 19.6667,154.167 18.8333,153.333 18,152.5C 17.3333,140.167 17.3333,127.833 18,115.5C 95.6026,76.9491 173.436,38.7824 251.5,1C 254.167,0.333333 256.833,0.333333 259.5,1C 336.378,38.6056 413.378,75.939 490.5,113C 491.333,113.833 492.167,114.667 493,115.5C 493.667,127.833 493.667,140.167 493,152.5C 492.097,153.701 490.931,154.535 489.5,155C 483.843,155.499 478.176,155.666 472.5,155.5C 472.667,196.168 472.5,236.835 472,277.5C 469.974,279.097 467.641,280.097 465,280.5C 462.801,279.355 460.635,279.355 458.5,280.5C 464.173,334.07 468.673,387.737 472,441.5C 471.5,442 471,442.5 470.5,443C 466.637,444.354 462.637,444.854 458.5,444.5C 458.5,455.167 458.5,465.833 458.5,476.5C 469.172,476.333 479.839,476.5 490.5,477C 491.333,477.833 492.167,478.667 493,479.5C 493.667,489.167 493.667,498.833 493,508.5C 491.591,509.781 490.091,510.781 488.5,511.5 Z M 254.5,12.5 C 323.267,45.3829 391.934,78.5496 460.5,112C 323.833,112.667 187.167,112.667 50.5,112C 118.714,79.0586 186.714,45.892 254.5,12.5 Z M 254.5,48.5 C 276.6,58.7158 298.6,69.2158 320.5,80C 277.167,80.6667 233.833,80.6667 190.5,80C 212.048,69.7254 233.381,59.2254 254.5,48.5 Z M 29.5,124.5 C 180.167,124.5 330.833,124.5 481.5,124.5C 481.5,130.833 481.5,137.167 481.5,143.5C 330.833,143.5 180.167,143.5 29.5,143.5C 29.5,137.167 29.5,130.833 29.5,124.5 Z M 49.5,155.5 C 68.8333,155.5 88.1667,155.5 107.5,155.5C 103.905,197.053 84.7384,229.053 50,251.5C 49.5,219.502 49.3334,187.502 49.5,155.5 Z M 119.5,155.5 C 133.833,155.5 148.167,155.5 162.5,155.5C 158.75,200.064 137.417,233.23 98.5,255C 83.0974,262.856 66.7641,267.356 49.5,268.5C 49.238,267.022 49.5713,265.689 50.5,264.5C 92.4971,240.445 115.497,204.112 119.5,155.5 Z M 174.5,155.5 C 228.5,155.5 282.5,155.5 336.5,155.5C 337.726,175.013 342.726,193.513 351.5,211C 346.5,234 341.5,257 336.5,280C 341.051,298.058 351.718,311.224 368.5,319.5C 368.833,320.167 369.167,320.833 369.5,321.5C 367.338,338.109 366.172,354.776 366,371.5C 378.528,383.352 393.028,392.019 409.5,397.5C 410.332,407.817 410.832,418.151 411,428.5C 411.465,429.931 412.299,431.097 413.5,432C 417.288,433.978 421.121,435.811 425,437.5C 425.5,450.496 425.667,463.496 425.5,476.5C 312.167,476.5 198.833,476.5 85.5,476.5C 85.1675,463.483 85.5009,450.483 86.5,437.5C 90.1667,435.667 93.8333,433.833 97.5,432C 98.7014,431.097 99.5348,429.931 100,428.5C 100.168,418.151 100.668,407.817 101.5,397.5C 118.304,392.522 132.804,383.855 145,371.5C 144.828,354.103 143.661,336.77 141.5,319.5C 155.725,313.776 165.892,303.776 172,289.5C 173.023,286.217 173.857,282.884 174.5,279.5C 169.626,256.461 164.626,233.461 159.5,210.5C 168.366,193.233 173.366,174.9 174.5,155.5 Z M 348.5,155.5 C 362.849,155.167 377.182,155.501 391.5,156.5C 395.887,204.652 418.887,240.652 460.5,264.5C 461.429,265.689 461.762,267.022 461.5,268.5C 418.913,264.72 386.413,244.72 364,208.5C 354.328,192.145 349.161,174.478 348.5,155.5 Z M 403.5,155.5 C 422.833,155.5 442.167,155.5 461.5,155.5C 461.667,187.502 461.5,219.502 461,251.5C 426.255,229.037 407.088,197.037 403.5,155.5 Z M 149.5,225.5 C 150.117,225.611 150.617,225.944 151,226.5C 154.755,244.353 158.588,262.186 162.5,280C 158.624,291.369 151.624,300.202 141.5,306.5C 138.433,285.268 136.6,263.935 136,242.5C 141.118,237.227 145.618,231.561 149.5,225.5 Z M 360.5,225.5 C 365.094,231.269 369.927,236.936 375,242.5C 374.28,263.919 372.447,285.252 369.5,306.5C 359.155,300.149 352.155,291.149 348.5,279.5C 352.379,261.432 356.379,243.432 360.5,225.5 Z M 123.5,252.5 C 127.649,290.293 130.816,328.293 133,366.5C 123.424,374.623 112.758,380.956 101,385.5C 100.333,346.167 100.333,306.833 101,267.5C 109.221,263.421 116.721,258.421 123.5,252.5 Z M 386.5,252.5 C 393.914,258.066 401.747,263.066 410,267.5C 410.667,306.833 410.667,346.167 410,385.5C 398.21,380.943 387.543,374.61 378,366.5C 380.39,328.487 383.223,290.487 386.5,252.5 Z M 86.5,272.5 C 87.8331,297.324 88.4998,322.491 88.5,348C 88.1667,373.167 87.8333,398.333 87.5,423.5C 76.1233,429.719 63.9566,433.052 51,433.5C 50.8333,432 50.6667,430.5 50.5,429C 55.2475,378.863 59.5809,328.696 63.5,278.5C 71.5549,277.571 79.2216,275.571 86.5,272.5 Z M 422.5,272.5 C 430.659,274.914 438.826,277.248 447,279.5C 451.877,330.817 456.211,382.15 460,433.5C 447.043,433.052 434.877,429.719 423.5,423.5C 422.5,373.171 422.167,322.838 422.5,272.5 Z M 220.5,308.5 C 233.746,308.895 244.413,314.395 252.5,325C 254.5,325.667 256.5,325.667 258.5,325C 264.093,318.54 270.76,313.54 278.5,310C 294.97,306.154 307.136,311.654 315,326.5C 319.445,336.757 318.778,346.757 313,356.5C 293.986,375.681 274.82,394.681 255.5,413.5C 236.514,395.014 217.681,376.347 199,357.5C 191.081,346.019 190.747,334.352 198,322.5C 203.72,314.894 211.22,310.227 220.5,308.5 Z M 436.5,441.5 C 439.728,442.546 443.061,443.212 446.5,443.5C 446.5,454.5 446.5,465.5 446.5,476.5C 443.167,476.5 439.833,476.5 436.5,476.5C 436.5,464.833 436.5,453.167 436.5,441.5 Z M 68.5,442.5 C 70.1667,442.5 71.8333,442.5 73.5,442.5C 73.5,453.833 73.5,465.167 73.5,476.5C 70.5,476.5 67.5,476.5 64.5,476.5C 64.5,465.5 64.5,454.5 64.5,443.5C 66.099,443.768 67.4324,443.434 68.5,442.5 Z M 29.5,488.5 C 180.167,488.5 330.833,488.5 481.5,488.5C 481.5,492.167 481.5,495.833 481.5,499.5C 330.833,499.5 180.167,499.5 29.5,499.5C 29.5,495.833 29.5,492.167 29.5,488.5 Z"/></g>
<g><path style="opacity:0.9" fill="#676D75" d="M 253.5,35.5 C 259.34,37.0818 265.007,39.2484 270.5,42C 297.167,55 323.833,68 350.5,81C 354.619,85.0734 354.285,88.74 349.5,92C 318.167,92.1667 286.833,92.3333 255.5,92.5C 223.416,92.6599 191.416,92.1599 159.5,91C 156.731,87.3932 157.064,84.0599 160.5,81C 191.837,66.3307 222.837,51.164 253.5,35.5 Z M 254.5,48.5 C 233.381,59.2254 212.048,69.7254 190.5,80C 233.833,80.6667 277.167,80.6667 320.5,80C 298.6,69.2158 276.6,58.7158 254.5,48.5 Z"/></g>
<g><path style="opacity:0.898" fill="#676D75" d="M 282.5,296.5 C 305.978,296.318 321.478,307.318 329,329.5C 331.689,342.704 329.022,354.704 321,365.5C 300.167,386.333 279.333,407.167 258.5,428C 256.5,428.667 254.5,428.667 252.5,428C 231.667,407.167 210.833,386.333 190,365.5C 178.388,347.249 178.722,329.249 191,311.5C 206.664,296.545 224.498,293.379 244.5,302C 248.528,304.349 252.194,307.183 255.5,310.5C 263.341,303.414 272.341,298.747 282.5,296.5 Z M 220.5,308.5 C 211.22,310.227 203.72,314.894 198,322.5C 190.747,334.352 191.081,346.019 199,357.5C 217.681,376.347 236.514,395.014 255.5,413.5C 274.82,394.681 293.986,375.681 313,356.5C 318.778,346.757 319.445,336.757 315,326.5C 307.136,311.654 294.97,306.154 278.5,310C 270.76,313.54 264.093,318.54 258.5,325C 256.5,325.667 254.5,325.667 252.5,325C 244.413,314.395 233.746,308.895 220.5,308.5 Z"/></g>
</svg>
