<svg width="15" height="15" viewBox="0 0 15 15" fill="none" xmlns="http://www.w3.org/2000/svg">
<g clip-path="url(#clip0_990_6937)">
<path d="M8.23291 10.6067C8.23291 10.2454 8.34252 9.93596 8.5778 9.68277C8.85851 9.3786 9.10456 9.0442 9.31143 8.68571C9.34359 8.63091 9.38195 8.57976 9.41483 8.52532C9.76995 7.93382 10.3344 7.85563 10.9128 8.00323C11.1718 8.069 11.3483 8.25569 11.4973 8.47052C11.6935 8.7544 11.8466 9.06678 12.0695 9.33276C12.163 9.44455 12.2602 9.55197 12.3559 9.66158C12.6595 10.009 12.7739 10.4113 12.6906 10.8643C12.6113 11.2973 12.2587 11.5168 11.8035 11.4259C11.6563 11.3961 11.517 11.336 11.3943 11.2494C10.7966 10.8336 10.1539 10.8336 9.55403 11.252C9.33977 11.4026 9.07694 11.4678 8.81711 11.4346C8.50619 11.4014 8.2815 11.1361 8.24351 10.7682C8.23583 10.7101 8.23547 10.651 8.23291 10.6067Z" fill="#07C189"/>
<path d="M9.72506 5.81182C9.73163 5.95102 9.65966 6.17973 9.54238 6.39383C9.49937 6.47043 9.43933 6.53612 9.36689 6.58581C9.29444 6.6355 9.21155 6.66787 9.1246 6.6804C9.03765 6.69294 8.94898 6.68531 8.86545 6.65811C8.78192 6.63091 8.70577 6.58486 8.64288 6.52353C8.2008 6.09388 8.07731 5.38071 8.34877 4.82171C8.54679 4.41325 8.97644 4.32922 9.30417 4.64196C9.60522 4.92913 9.71592 5.2974 9.72506 5.81182Z" fill="#07C189"/>
<path d="M11.2217 5.67629C11.2345 5.30874 11.3404 4.97152 11.5921 4.69239C11.9308 4.31644 12.3879 4.38513 12.6082 4.84109C12.8449 5.33103 12.7489 6.02301 12.3872 6.43038C12.0368 6.82496 11.5706 6.75518 11.3481 6.27583C11.2604 6.08622 11.2326 5.8849 11.2217 5.67629Z" fill="#07C189"/>
<path d="M14.4757 7.52609C14.4519 7.86623 14.3193 8.15486 14.0234 8.34814C13.7048 8.55639 13.4066 8.40988 13.3738 8.03064C13.3434 7.67808 13.4812 7.39164 13.7497 7.16877C13.8918 7.05076 14.0551 6.97623 14.2396 7.06172C14.4322 7.15087 14.4611 7.33355 14.4757 7.52609Z" fill="#07C189"/>
<path d="M9.72123 11.7335C9.44352 11.902 9.1171 11.9721 8.7947 11.9323C8.32741 11.8822 7.98872 11.6352 7.83491 11.1939C7.61204 10.5545 7.71288 9.944 8.14765 9.42483C8.44986 9.06734 8.72546 8.68818 8.97226 8.29041C9.1458 8.00799 9.36319 7.76466 9.66643 7.61268C9.69164 7.60025 9.71868 7.58966 9.71904 7.55751C9.71904 7.35729 9.71904 7.15562 9.71904 6.93969C9.13448 7.38762 8.49474 7.1337 8.17506 6.75263C7.66027 6.13884 7.55395 5.2492 7.92917 4.54261C8.26932 3.90214 9.08406 3.76221 9.62222 4.25032C9.64999 4.27517 9.6657 4.31901 9.71977 4.31864C9.71977 3.68366 9.73146 3.05087 9.71685 2.4188C9.70004 1.69248 9.34236 1.1766 8.69386 0.85034C8.53128 0.768866 8.35189 0.74804 8.18236 0.693237H6.70852C6.61317 0.723562 6.5116 0.715524 6.41624 0.744387C5.72207 0.953369 5.19523 1.66252 5.1945 2.39031C5.1945 3.18264 5.1945 3.97533 5.1945 4.7684C5.19737 4.84166 5.19357 4.91503 5.18317 4.98761C5.14079 5.22217 5.00488 5.35808 4.77032 5.40046C4.69774 5.41086 4.62437 5.41465 4.55111 5.41178C3.74733 5.41178 2.94757 5.41178 2.14562 5.41178C1.8473 5.41281 1.55558 5.49969 1.3053 5.66205C0.838748 5.95835 0.540254 6.36645 0.475586 6.92691V8.45774C0.503718 8.46651 0.499699 8.49135 0.504814 8.51291C0.710143 9.40766 1.37728 9.93779 2.29505 9.93779H4.63331C5.03265 9.93779 5.22701 10.1325 5.22701 10.5326C5.22701 11.3568 5.21898 12.1814 5.23103 13.0057C5.24309 13.8299 5.88867 14.5507 6.69501 14.6636C7.11188 14.7221 7.53203 14.6863 7.95036 14.6874C8.94595 14.6907 9.71173 13.9256 9.72087 12.9282C9.72379 12.6231 9.72087 12.3177 9.72087 12.0126L9.72123 11.7335ZM2.21138 6.44135C1.77844 6.48154 1.52196 6.73364 1.48067 7.16073C1.46241 7.34341 1.35974 7.45302 1.2136 7.44242C1.05833 7.43292 0.96516 7.30432 0.979409 7.12018C1.02983 6.46254 1.5585 5.95105 2.19056 5.94374C2.35351 5.94191 2.46494 6.03289 2.47407 6.17428C2.48211 6.32627 2.38529 6.42528 2.21138 6.44135ZM3.48245 6.43879C3.43751 6.44135 3.39184 6.43879 3.34654 6.43879C3.30123 6.43879 3.25593 6.44172 3.21099 6.43879C3.14928 6.43695 3.09061 6.41153 3.04706 6.36777C3.0035 6.32401 2.97836 6.26523 2.9768 6.20351C2.97378 6.13964 2.99586 6.07713 3.03833 6.02934C3.08079 5.98155 3.14027 5.95227 3.20405 5.94776C3.29892 5.941 3.39415 5.941 3.48903 5.94776C3.55291 5.95092 3.61307 5.97874 3.65686 6.02536C3.70065 6.07198 3.72464 6.13377 3.72379 6.19773C3.72293 6.26168 3.6973 6.32281 3.65229 6.36825C3.60728 6.41369 3.54639 6.4399 3.48245 6.44135V6.43879ZM6.61865 8.74345C6.12067 8.43619 5.85908 7.7274 6.02824 7.16658C6.18351 6.65143 6.67637 6.40628 7.18202 6.59297C7.70046 6.78442 8.07604 7.34962 8.07678 7.94003C8.07678 8.41865 7.83747 8.78948 7.44764 8.90457C7.14476 8.99372 6.8722 8.90018 6.61865 8.74345Z" fill="#07C189"/>
<path d="M7.58102 7.9835C7.57496 8.03845 7.56557 8.09299 7.55289 8.14681C7.48567 8.39488 7.27522 8.49901 7.03445 8.40658C6.64572 8.25788 6.37682 7.7029 6.50323 7.31051C6.57922 7.07303 6.75459 6.98389 6.99098 7.06317C7.33405 7.17716 7.57883 7.54361 7.58102 7.9835Z" fill="#07C189"/>
</g>
<defs>
<clipPath id="clip0_990_6937">
<rect width="14" height="14.0048" fill="white" transform="translate(0.475586 0.69397)"/>
</clipPath>
</defs>
</svg>
